<?xml version="1.0" standalone="no"?>
<!DOCTYPE svg PUBLIC "-//W3C//DTD SVG 1.1//EN" "http://www.w3.org/Graphics/SVG/1.1/DTD/svg11.dtd" >
<svg xmlns="http://www.w3.org/2000/svg" xmlns:xlink="http://www.w3.org/1999/xlink" version="1.1">
<metadata>
Created by FontForge 20170731 at Mon Nov 14 20:23:37 2022
 By Aleksey,,,
Copyright 2018 Production Systems SAS - All rights reserved - End-User License Agreement:  http://www.productiontype.com/license
</metadata>
<defs>
<font id="MediaSansExtended-Black" horiz-adv-x="724" >
  <font-face 
    font-family="Media Sans Extended Black"
    font-weight="900"
    font-stretch="expanded"
    units-per-em="2048"
    panose-1="2 0 0 0 0 0 0 0 0 0"
    ascent="1843"
    descent="-205"
    x-height="1475"
    cap-height="1669"
    bbox="-772 -217 3375 2034"
    underline-thickness="188"
    underline-position="-311"
    unicode-range="U+0020-FB02"
  />
<missing-glyph horiz-adv-x="1024" 
d="M113 0v1536h798v-1536h-798zM512 831l307 639h-614zM174 127l307 641l-307 641v-1282zM850 127v1282l-307 -641zM205 66h614l-307 639z" />
    <glyph glyph-name="fi" unicode="fi" horiz-adv-x="2101" 
d="M1436 1532v186h604v-186h-604zM20 827v406h310v20q0 202 114.5 309t323.5 107h588v-330h-326q-96 0 -96 -86v-20h420v-406h-420v-827h-604v827h-310zM1436 0v1475h604v-1475h-604z" />
    <glyph glyph-name="fl" unicode="fl" horiz-adv-x="2101" 
d="M20 827v406h310v20q0 202 114.5 309t323.5 107h588v-330h-326q-96 0 -96 -86v-20h420v-406h-420v-827h-604v827h-310zM1436 0v1669h604v-1669h-604z" />
    <glyph glyph-name=".notdef" horiz-adv-x="1024" 
d="M113 0v1536h798v-1536h-798zM512 831l307 639h-614zM174 127l307 641l-307 641v-1282zM850 127v1282l-307 -641zM205 66h614l-307 639z" />
    <glyph glyph-name=".null" horiz-adv-x="0" 
 />
    <glyph glyph-name="nonmarkingreturn" horiz-adv-x="682" 
 />
    <glyph glyph-name="space" unicode=" " horiz-adv-x="452" 
 />
    <glyph glyph-name="exclam" unicode="!" horiz-adv-x="636" 
d="M106 676l-47 993h519l-50 -993h-422zM557 0h-475v461h475v-461z" />
    <glyph glyph-name="quotedbl" unicode="&#x22;" horiz-adv-x="1015" 
d="M399 1108h-288l-68 346v215h420v-215zM909 1108h-288l-68 346v215h420v-215z" />
    <glyph glyph-name="numbersign" unicode="#" horiz-adv-x="2070" 
d="M745 1669h373l-135 -461h344l135 461h369l-137 -461h272v-254h-346l-82 -272h317v-258h-393l-125 -424h-362l123 424h-346l-125 -424h-367l123 424h-281v258h357l80 272h-316v254h389zM827 682h347l79 272h-346z" />
    <glyph glyph-name="dollar" unicode="$" horiz-adv-x="1921" 
d="M879 1772h174v-95q403 -15 605 -152t202 -382v-15h-498v11q0 89 -72.5 131.5t-236.5 50.5v-266q320 -18 504.5 -76.5t264 -165t79.5 -281.5v-16q0 -177 -84 -289t-271 -171t-493 -66v-92h-174v94q-436 9 -640 131.5t-204 376.5v22h504v-10q0 -57 29 -91.5t104.5 -54.5
t206.5 -24v279q-249 14 -411.5 48t-259 97t-135 149t-38.5 213v15q0 513 844 536v93zM592 1188q0 -38 21 -60.5t83.5 -38t182.5 -24.5v256q-161 -6 -224 -36.5t-63 -92.5v-4zM1343 463v8q0 42 -21 66t-84 42t-185 29v-266q162 4 226 32t64 89z" />
    <glyph glyph-name="percent" unicode="%" horiz-adv-x="2166" 
d="M39 1303v36q0 166 128 253t386 87q260 0 388 -87t128 -253v-36q0 -166 -128 -253t-388 -87q-258 0 -386 87t-128 253zM1778 1669h164l-1553 -1669h-164zM336 1317q0 -74 50.5 -105.5t166.5 -31.5q118 0 168.5 31t50.5 106v8q0 75 -50.5 106t-168.5 31
q-116 0 -166.5 -31.5t-50.5 -105.5v-8zM1100 334v37q0 166 128 253t386 87q260 0 388 -87t128 -253v-37q0 -166 -128 -253t-388 -87q-258 0 -386 87t-128 253zM1397 348q0 -74 50.5 -105.5t166.5 -31.5q118 0 168.5 31t50.5 106v8q0 75 -50.5 106.5t-168.5 31.5
q-116 0 -166.5 -31.5t-50.5 -106.5v-8z" />
    <glyph glyph-name="ampersand" unicode="&#x26;" horiz-adv-x="2326" 
d="M985 1679q346 0 527.5 -104t181.5 -275v-20q0 -102 -39 -175t-137.5 -138.5t-272.5 -128.5l297 -230q84 96 84 244v16h524v-34q0 -291 -243 -510l417 -324h-636l-140 106q-295 -116 -678 -116q-301 0 -480 48.5t-258 147.5t-79 263v24q0 158 111.5 275.5t312.5 179.5
q-116 97 -157 166t-41 161v23q0 183 180.5 292t525.5 109zM805 1247q0 -40 26 -74t123 -110q125 38 181.5 82t56.5 100v15q0 112 -191 112q-94 0 -145 -30t-51 -85v-10zM635 535q0 -70 82 -103t268 -33q82 0 162 13l-365 278q-82 -28 -114.5 -62t-32.5 -83v-10z" />
    <glyph glyph-name="quotesingle" unicode="'" horiz-adv-x="505" 
d="M399 1108h-288l-68 346v215h420v-215z" />
    <glyph glyph-name="parenleft" unicode="(" horiz-adv-x="765" 
d="M416 1669h321q-297 -412 -297 -887q0 -472 297 -884h-321q-99 135 -162.5 259.5t-103 284.5t-39.5 340q0 264 77.5 472.5t227.5 414.5z" />
    <glyph glyph-name="parenright" unicode=")" horiz-adv-x="765" 
d="M352 1669q150 -205 226.5 -413t76.5 -472t-76.5 -472.5t-226.5 -413.5h-323q299 410 299 886q0 475 -299 885h323z" />
    <glyph glyph-name="asterisk" unicode="*" horiz-adv-x="905" 
d="M594 864l-141 238l-140 -238l-198 142l184 200l-270 64l77 233l246 -98l-20 264h241l-16 -272l244 106l76 -233l-271 -64l187 -200z" />
    <glyph glyph-name="plus" unicode="+" horiz-adv-x="1392" 
d="M834 137h-267v535h-522v266h522v532h267v-532h512v-266h-512v-535z" />
    <glyph glyph-name="comma" unicode="," horiz-adv-x="532" 
d="M424 -102h-399l84 143h-80v420h475v-420z" />
    <glyph glyph-name="hyphen" unicode="-" horiz-adv-x="630" 
d="M618 631h-606v336h606v-336z" />
    <glyph glyph-name="period" unicode="." horiz-adv-x="532" 
d="M504 0h-475v461h475v-461z" />
    <glyph glyph-name="slash" unicode="/" horiz-adv-x="804" 
d="M598 1669h195l-586 -1669h-195z" />
    <glyph glyph-name="zero" unicode="0" horiz-adv-x="2240" 
d="M1120 1679q1092 0 1092 -805v-79q0 -805 -1092 -805q-1091 0 -1091 805v79q0 805 1091 805zM1120 1163q-260 0 -371.5 -73.5t-111.5 -247.5v-15q0 -174 111.5 -247.5t371.5 -73.5q262 0 374 73.5t112 247.5v15q0 174 -112 247.5t-374 73.5z" />
    <glyph glyph-name="one" unicode="1" horiz-adv-x="1138" 
d="M1079 0h-604v1030l-444 -184v555l628 268h420v-1669z" />
    <glyph glyph-name="two" unicode="2" horiz-adv-x="2222" 
d="M1507 1012v6q0 86 -92 124t-287 38q-246 0 -352 -64.5t-106 -206.5v-6h-611v12q0 374 270.5 569t815.5 195q207 0 374.5 -25.5t285.5 -72t197.5 -113t117 -147t37.5 -176.5v-15q0 -114 -54.5 -199.5t-189.5 -162t-360.5 -139.5t-569.5 -125h1169v-504h-2076v451
q253 71 436.5 124t337 100t253.5 80t177 65t118.5 54t67.5 46.5t33.5 44.5t7.5 47z" />
    <glyph glyph-name="three" unicode="3" horiz-adv-x="2330" 
d="M1212 -10q-603 0 -879 157t-276 490v22h609v-26q0 -215 469 -215q289 0 405.5 30.5t116.5 104.5v6q0 58 -57.5 83.5t-202.5 25.5h-418v356h305q169 0 247.5 27.5t78.5 85.5v6q0 63 -93.5 92t-312.5 29q-188 0 -297 -25t-153.5 -73.5t-44.5 -129.5v-12h-611v18
q0 315 281 476t872 161q490 0 727.5 -110t237.5 -312v-14q0 -132 -100 -220.5t-314 -109.5q469 -56 469 -407v-14q0 -502 -1059 -502z" />
    <glyph glyph-name="four" unicode="4" horiz-adv-x="2105" 
d="M1282 0v305h-1262v371l924 993h938v-1012h203v-352h-203v-305h-600zM672 657h610v707z" />
    <glyph glyph-name="five" unicode="5" horiz-adv-x="2258" 
d="M2200 573v-18q0 -139 -58 -241.5t-182 -176t-326.5 -110.5t-484.5 -37q-561 0 -826.5 145t-265.5 447v16h609v-8q0 -84 117.5 -128t344.5 -44q251 0 358 42.5t107 133.5v6q0 63 -38 100t-137 56.5t-275 19.5q-447 0 -447 -112h-524v1005h1911v-428h-1387v-563
q0 195 193.5 312.5t550.5 117.5q197 0 335.5 -28t235.5 -90.5t143 -165.5t46 -251z" />
    <glyph glyph-name="six" unicode="6" horiz-adv-x="2269" 
d="M1151 -10q-550 0 -821 195t-271 603v29q0 151 43.5 281t134.5 237.5t225 183.5t322 118t418 42q241 0 431.5 -43t312.5 -121t185.5 -183.5t63.5 -233.5v-4h-593v6q0 174 -390 174q-298 0 -423 -114t-125 -376v-98q0 -19 4 -55q12 430 708 430q425 0 630.5 -125.5
t205.5 -374.5v-12q0 -177 -129 -303.5t-367 -191t-565 -64.5zM1137 827q-227 0 -339.5 -48.5t-125.5 -166.5q25 -106 137.5 -158.5t331.5 -52.5q174 0 278 23.5t145.5 67t41.5 112.5v10q0 75 -42 120.5t-146 69t-281 23.5z" />
    <glyph glyph-name="seven" unicode="7" horiz-adv-x="2095" 
d="M1085 0h-739q71 244 328.5 554t644.5 611h-1290v504h2039v-379q-227 -206 -408 -403t-295.5 -359t-183 -293t-96.5 -235z" />
    <glyph glyph-name="eight" unicode="8" horiz-adv-x="2248" 
d="M1124 1679q515 0 750 -104.5t235 -312.5v-17q0 -138 -103.5 -223.5t-324.5 -126.5q267 -42 400 -153t133 -273v-23q0 -248 -256.5 -352t-833.5 -104q-578 0 -834.5 104t-256.5 352v23q0 161 133.5 272.5t398.5 153.5q-221 41 -324.5 126.5t-103.5 223.5v17
q0 103 55.5 179.5t173 130t307 80.5t451.5 27zM1124 1008q167 0 262 15t131.5 43t36.5 75v8q0 46 -39 75t-135 45.5t-256 16.5q-161 0 -257.5 -16.5t-135.5 -45.5t-39 -75v-8q0 -47 36.5 -75t132 -43t263.5 -15zM1124 354q190 0 295 15t146 45t41 84v6q0 54 -44.5 86.5
t-150 48.5t-287.5 16t-288 -16t-150.5 -48.5t-44.5 -86.5v-6q0 -54 41 -84t146 -45t296 -15z" />
    <glyph glyph-name="nine" unicode="9" horiz-adv-x="2269" 
d="M1120 1679q550 0 821 -195t271 -603v-29q0 -151 -43.5 -281t-134.5 -237.5t-224.5 -183.5t-322 -118t-418.5 -42q-193 0 -354.5 28t-278.5 79t-198.5 123t-121.5 160.5t-40 190.5v4h594v-6q0 -176 389 -176q298 0 424.5 115t126.5 377v98q0 37 -6 64q-6 -439 -709 -439
q-834 0 -834 500v12q0 177 128.5 303.5t366.5 191t564 64.5zM668 1055q0 -75 41.5 -120.5t145 -69t280.5 -23.5q230 0 342 49.5t122 171.5q-27 103 -140 155t-329 52q-172 0 -276 -24.5t-145 -68.5t-41 -112v-10z" />
    <glyph glyph-name="colon" unicode=":" horiz-adv-x="532" 
d="M504 649h-475v461h475v-461zM504 0h-475v461h475v-461z" />
    <glyph glyph-name="semicolon" unicode=";" horiz-adv-x="532" 
d="M504 649h-475v461h475v-461zM424 -102h-399l84 143h-80v420h475v-420z" />
    <glyph glyph-name="less" unicode="&#x3c;" horiz-adv-x="1392" 
d="M57 686v238l768 393h508l-954 -512l954 -512h-512z" />
    <glyph glyph-name="equal" unicode="=" horiz-adv-x="1392" 
d="M1346 1042h-1301v269h1301v-269zM1346 299h-1301v268h1301v-268z" />
    <glyph glyph-name="greater" unicode="&#x3e;" horiz-adv-x="1392" 
d="M1333 686l-764 -393h-512l957 512l-957 512h510l766 -393v-238z" />
    <glyph glyph-name="question" unicode="?" horiz-adv-x="1916" 
d="M45 1081q0 289 237 443.5t730 154.5q450 0 656 -115t206 -352v-8q0 -83 -25.5 -148t-69 -106.5t-100 -71.5t-119 -48.5t-125 -33t-119 -29t-100 -33t-69 -48t-25.5 -70.5v-26h-446v31q0 96 27.5 170t72 116.5t102 74t117 45t117 27t102 23t72 29t27.5 49.5v6
q0 37 -27.5 58.5t-100.5 33t-202 11.5q-214 0 -307.5 -46t-93.5 -149v-12h-537v24zM1139 0h-475v461h475v-461z" />
    <glyph glyph-name="at" unicode="@" horiz-adv-x="2064" 
d="M1270 868v310h342v-560q0 -109 18 -144.5t76 -35.5q76 0 108.5 64.5t32.5 222.5v25q0 311 -189 441t-624 130q-299 0 -477 -61t-255 -184t-77 -326v-37q0 -161 45 -270.5t144 -178t246 -98t360 -29.5q268 0 412.5 25.5t209.5 79.5h238q-189 -252 -852 -252
q-360 0 -578 77t-315.5 233t-97.5 409v39q0 361 247.5 549t755.5 188q502 0 746 -180t244 -523v-34q0 -233 -90.5 -347t-301.5 -114q-188 0 -276.5 64t-91.5 206q0 -143 -89.5 -224t-281.5 -81q-257 0 -375 117.5t-118 353.5v14q0 231 118 347t375 116q371 0 371 -332z
M1270 668v102q0 164 -258 164q-135 0 -198.5 -52t-63.5 -159v-8q0 -107 63 -159t199 -52q119 0 188.5 40t69.5 124z" />
    <glyph glyph-name="A" unicode="A" horiz-adv-x="2187" 
d="M1587 0l-112 303h-766l-113 -303h-580l621 1669h909l627 -1669h-586zM848 680h487l-243 655z" />
    <glyph glyph-name="B" unicode="B" horiz-adv-x="2027" 
d="M59 0v1669h1282q531 0 531 -383v-16q0 -143 -107 -234.5t-333 -113.5q293 -14 434 -124t141 -290v-19q0 -141 -46 -234.5t-151.5 -150.5t-261 -80.5t-389.5 -23.5h-1100zM1067 1284h-401v-256h411q104 0 151.5 29.5t47.5 97.5v8q0 65 -50 93t-159 28zM1147 684h-481v-285
h481q123 0 177 32.5t54 107.5v8q0 73 -55.5 105t-175.5 32z" />
    <glyph glyph-name="C" unicode="C" horiz-adv-x="2256" 
d="M1612 786h608v-14q0 -379 -272 -580.5t-815 -201.5q-553 0 -824.5 208.5t-271.5 592.5v88q0 189 65.5 335.5t198.5 251t342.5 159t489.5 54.5q541 0 814 -201.5t273 -580.5v-12h-608v8q0 133 -122.5 201.5t-365.5 68.5q-261 0 -370 -76.5t-109 -240.5v-23
q0 -164 109 -240.5t370 -76.5q488 0 488 272v8z" />
    <glyph glyph-name="D" unicode="D" horiz-adv-x="2170" 
d="M59 0v1669h981q298 0 508 -50t340 -154t189 -252.5t59 -354.5v-65q0 -201 -59 -346.5t-189 -246.5t-340 -150.5t-508 -49.5h-981zM1069 1163h-405v-663h405q237 0 346 68.5t109 242.5v23q0 96 -27.5 160t-87 101t-141 52.5t-199.5 15.5z" />
    <glyph glyph-name="E" unicode="E" horiz-adv-x="1744" 
d="M1702 455v-455h-1643v1669h1643v-457h-1038v-151h960v-426h-960v-180h1038z" />
    <glyph glyph-name="F" unicode="F" horiz-adv-x="1722" 
d="M1624 559h-960v-559h-605v1669h1643v-455h-1038v-227h960v-428z" />
    <glyph glyph-name="G" unicode="G" horiz-adv-x="2271" 
d="M1094 -10q-552 0 -804.5 202.5t-252.5 626.5v51q0 388 270.5 598.5t822.5 210.5q268 0 476.5 -50.5t342 -142t202.5 -218t69 -281.5v-6h-600v6q0 98 -134 159.5t-362 61.5q-255 0 -367 -90t-112 -293v-20q0 -188 112.5 -275.5t366.5 -87.5q200 0 331 36t194 134h-521v297
h1092v-909h-311l-62 295q-60 -120 -263.5 -212.5t-489.5 -92.5z" />
    <glyph glyph-name="H" unicode="H" horiz-adv-x="2152" 
d="M1487 0v604h-823v-604h-605v1669h605v-553h823v553h606v-1669h-606z" />
    <glyph glyph-name="I" unicode="I" 
d="M59 0v1669h605v-1669h-605z" />
    <glyph glyph-name="J" unicode="J" horiz-adv-x="1245" 
d="M23 0v528h170q195 0 291 111t96 340v690h604v-776q0 -239 -54.5 -410.5t-164 -277.5t-267 -155.5t-372.5 -49.5h-303z" />
    <glyph glyph-name="K" unicode="K" horiz-adv-x="2220" 
d="M59 0v1669h605v-661l774 661h747l-948 -801l969 -868h-785l-757 674v-674h-605z" />
    <glyph glyph-name="L" unicode="L" horiz-adv-x="1728" 
d="M59 0v1669h605v-1124h1040v-545h-1645z" />
    <glyph glyph-name="M" unicode="M" horiz-adv-x="2928" 
d="M1163 0l-499 952v-952h-605v1669h887l527 -1012l526 1012h868v-1669h-604v944l-502 -944h-598z" />
    <glyph glyph-name="N" unicode="N" horiz-adv-x="2154" 
d="M1552 0l-929 899v-899h-564v1669h551l922 -874v874h561v-1669h-541z" />
    <glyph glyph-name="O" unicode="O" horiz-adv-x="2252" 
d="M2216 795q0 -805 -1086 -805q-1093 0 -1093 805v79q0 805 1093 805q1086 0 1086 -805v-79zM1610 842q0 174 -111 247.5t-373 73.5q-261 0 -371 -73t-110 -248v-15q0 -175 110 -248t371 -73q262 0 373 73.5t111 247.5v15z" />
    <glyph glyph-name="P" unicode="P" horiz-adv-x="2019" 
d="M1096 389h-432v-389h-605v1669h1063q237 0 406 -40.5t272.5 -122t151 -196t47.5 -270.5v-45q0 -148 -49 -258.5t-155.5 -189.5t-281 -118.5t-417.5 -39.5zM1126 1184h-462v-369h462q134 0 197 42.5t63 137.5v9q0 99 -62 139.5t-198 40.5z" />
    <glyph glyph-name="Q" unicode="Q" horiz-adv-x="2260" 
d="M1415 -102v125q-145 -33 -285 -33q-1093 0 -1093 805v79q0 805 1093 805q1086 0 1086 -805v-34q0 -300 -199 -484h199v-458h-801zM1610 842q0 174 -111 247.5t-373 73.5q-261 0 -371 -73t-110 -248v-15q0 -175 110 -248t371 -73q262 0 373 73.5t111 247.5v15z" />
    <glyph glyph-name="R" unicode="R" horiz-adv-x="2000" 
d="M1333 0l-254 492h-32h-381v-492h-607v1669h1016q241 0 410 -36t272.5 -111t150 -181t46.5 -254v-36q0 -167 -71 -282t-224 -183l326 -586h-652zM1096 1223h-430v-310h430q132 0 191 34.5t59 119.5v8q0 85 -58 116.5t-192 31.5z" />
    <glyph glyph-name="S" unicode="S" horiz-adv-x="2181" 
d="M551 555q0 -56 43 -91t148 -53t282 -18q205 0 317 13.5t147.5 36t35.5 61.5v6q0 39 -32.5 59t-145 31.5t-336.5 11.5q-282 0 -471 29t-301.5 93t-159.5 155.5t-47 226.5v17q0 179 107 298.5t342.5 183.5t602.5 64q511 0 771 -146t260 -409v-12h-512v2q0 158 -490 158
q-146 0 -241.5 -7.5t-142 -23.5t-63 -33t-16.5 -43v-2q0 -26 18 -41.5t72.5 -28.5t161 -18.5t277.5 -5.5q353 0 569.5 -55.5t315 -168t98.5 -294.5v-14q0 -184 -108 -303.5t-348 -181.5t-622 -62q-530 0 -788 132t-258 415v22h514v-4z" />
    <glyph glyph-name="T" unicode="T" horiz-adv-x="1892" 
d="M1860 1155h-611v-1155h-606v1155h-612v514h1829v-514z" />
    <glyph glyph-name="U" unicode="U" horiz-adv-x="2152" 
d="M1487 1669h606v-610q0 -301 -52.5 -501.5t-174.5 -329t-313 -183.5t-478 -55q-286 0 -476 54.5t-312.5 182.5t-175 328.5t-52.5 503.5v610h605v-600q0 -209 44 -331.5t131.5 -174t233.5 -51.5q110 0 185.5 27.5t128 92t76.5 171.5t24 266v600z" />
    <glyph glyph-name="V" unicode="V" horiz-adv-x="2121" 
d="M610 1669l459 -1118l459 1118h586l-697 -1669h-717l-692 1669h602z" />
    <glyph glyph-name="W" unicode="W" horiz-adv-x="3215" 
d="M489 0l-477 1669h637l269 -987l339 987h746l324 -938l260 938h614l-485 -1669h-731l-381 1116l-387 -1116h-728z" />
    <glyph glyph-name="X" unicode="X" horiz-adv-x="2265" 
d="M1546 0l-416 541l-411 -541h-721l698 840l-680 829h723l396 -520l393 520h721l-680 -831l698 -838h-721z" />
    <glyph glyph-name="Y" unicode="Y" horiz-adv-x="2119" 
d="M754 645l-754 1024h672l387 -543l385 543h676l-762 -1026v-643h-604v645z" />
    <glyph glyph-name="Z" unicode="Z" horiz-adv-x="2025" 
d="M41 0v420l1014 794h-967v455h1880v-420l-967 -790h984v-459h-1944z" />
    <glyph glyph-name="bracketleft" unicode="[" horiz-adv-x="757" 
d="M131 -102v1771h584v-151h-256v-1469h256v-151h-584z" />
    <glyph glyph-name="backslash" unicode="\" horiz-adv-x="804" 
d="M207 1669l586 -1669h-195l-586 1669h195z" />
    <glyph glyph-name="bracketright" unicode="]" horiz-adv-x="757" 
d="M43 -102v151h256v1469h-256v151h584v-1771h-584z" />
    <glyph glyph-name="asciicircum" unicode="^" horiz-adv-x="1392" 
d="M578 1669h237l393 -766v-510l-512 959l-512 -959v512z" />
    <glyph glyph-name="underscore" unicode="_" horiz-adv-x="1134" 
d="M1114 -217h-1094v188h1094v-188z" />
    <glyph glyph-name="grave" unicode="`" horiz-adv-x="512" 
d="M176 1542l-174 127h426l80 -127h-332z" />
    <glyph glyph-name="a" unicode="a" horiz-adv-x="1980" 
d="M709 907v-10h-617v16q0 281 230.5 426.5t678.5 145.5q481 0 700.5 -137.5t219.5 -444.5v-903h-604v403q0 -68 -20 -128t-65.5 -113t-114 -90.5t-172.5 -59.5t-234 -22q-345 0 -516.5 91.5t-171.5 293.5v22q0 68 21 124t57 97.5t91.5 75t116.5 56t141.5 41t157 29.5
t172 22t177.5 18.5t182 18.5t178 22v10q0 72 -72 106t-244 34q-161 0 -226.5 -34.5t-65.5 -109.5zM627 395q0 -56 56.5 -82t190.5 -26q97 0 169.5 7.5t138 27t100.5 58.5t35 97v103q-400 -39 -513 -62q-153 -31 -173 -88q-4 -10 -4 -22v-13z" />
    <glyph glyph-name="b" unicode="b" horiz-adv-x="2080" 
d="M664 1669v-756q0 128 33 228.5t104 179.5t192.5 121.5t288.5 42.5q200 0 344 -49t232.5 -145t130 -231t41.5 -315v-16q0 -180 -41.5 -314.5t-130 -231t-232.5 -145t-344 -48.5q-167 0 -288.5 42.5t-192.5 121t-104 179t-33 228.5v-561h-605v1669h605zM664 829v-184
q0 -70 47.5 -113.5t128.5 -61t200 -17.5q198 0 290.5 63.5t92.5 212.5v16q0 149 -92.5 213t-290.5 64q-182 0 -279 -45t-97 -148z" />
    <glyph glyph-name="c" unicode="c" horiz-adv-x="2064" 
d="M1411 688h608v-35q0 -663 -987 -663t-987 741v12q0 742 987 742t987 -664v-35h-608v7q0 106 -90 156t-285 50q-203 0 -294 -56.5t-91 -197.5v-16q0 -141 91 -197.5t294 -56.5q195 0 285 50.5t90 156.5v6z" />
    <glyph glyph-name="d" unicode="d" horiz-adv-x="2080" 
d="M1417 913v756h606v-1669h-606v561q0 -128 -32.5 -228.5t-103 -179t-192 -121t-288.5 -42.5q-200 0 -344 48.5t-232.5 145t-130 231t-41.5 314.5v16q0 180 41.5 315t130 231t232.5 145t344 49q134 0 239 -28.5t175.5 -78.5t116 -122.5t65.5 -157t20 -185.5zM1417 829
q0 103 -97 148t-278 45q-199 0 -291 -64t-92 -213v-16q0 -149 92 -212.5t291 -63.5q182 0 278.5 44.5t96.5 147.5v184z" />
    <glyph glyph-name="e" unicode="e" horiz-adv-x="2064" 
d="M2021 647h-1366q15 -133 112.5 -192.5t279.5 -59.5q176 0 266 42t90 122v2h618v-10q0 -121 -61.5 -222.5t-181.5 -177.5t-310.5 -118.5t-435.5 -42.5q-987 0 -987 723v20q0 752 993 752q480 0 731.5 -185.5t251.5 -525.5v-127zM1034 1104q-167 0 -257.5 -50t-114.5 -161
h753q-13 211 -381 211z" />
    <glyph glyph-name="f" unicode="f" horiz-adv-x="1376" 
d="M20 827v406h310v20q0 202 114.5 309t323.5 107h588v-330h-326q-96 0 -96 -86v-20h420v-406h-420v-827h-604v827h-310z" />
    <glyph glyph-name="g" unicode="g" horiz-adv-x="2082" 
d="M1417 1475h606v-1063q0 -272 -237 -398.5t-758 -126.5q-907 0 -907 377v23h563v-6q0 -79 79.5 -108.5t270.5 -29.5q206 0 294.5 46t88.5 157v447q0 -81 -20 -149t-66 -127.5t-116 -100.5t-175.5 -64.5t-238.5 -23.5q-393 0 -571.5 141t-178.5 424v22q0 285 178.5 427.5
t571.5 142.5q166 0 287.5 -35t192 -99.5t103.5 -146t33 -182.5v453zM1417 954q0 88 -97.5 126t-279.5 38q-199 0 -291 -47.5t-92 -159.5v-14q0 -109 92 -157t291 -48q377 0 377 168v94z" />
    <glyph glyph-name="h" unicode="h" horiz-adv-x="2019" 
d="M664 1669v-915q0 188 33.5 322.5t106.5 227t192 137t288 44.5q352 0 514 -164t162 -535v-786h-604v659q0 154 -80.5 224.5t-267.5 70.5q-163 0 -253.5 -63t-90.5 -211v-680h-605v1669h605z" />
    <glyph glyph-name="i" unicode="i" 
d="M59 1532v186h605v-186h-605zM59 0v1475h605v-1475h-605z" />
    <glyph glyph-name="j" unicode="j" horiz-adv-x="794" 
d="M129 1532v186h604v-186h-604zM733 354q0 -225 -122.5 -340.5t-350.5 -115.5h-237v485h20q86 0 86 92v1000h604v-1121z" />
    <glyph glyph-name="k" unicode="k" horiz-adv-x="2052" 
d="M59 0v1669h605v-907l610 713h766l-690 -736l702 -739h-774l-614 700v-700h-605z" />
    <glyph glyph-name="l" unicode="l" 
d="M59 0v1669h605v-1669h-605z" />
    <glyph glyph-name="m" unicode="m" horiz-adv-x="3313" 
d="M664 1475v-721q0 188 33.5 322.5t106.5 227t192 137t288 44.5q338 0 500 -150t174 -489q19 324 164.5 481.5t453.5 157.5q354 0 516 -164t162 -535v-786h-604v659q0 151 -79 223t-273 72q-53 0 -96.5 -6t-87.5 -22.5t-75 -43.5t-52.5 -72t-26.5 -105v-705h-604v659
q0 151 -79.5 223t-270.5 72q-58 0 -104.5 -6.5t-92.5 -24.5t-76.5 -48t-49.5 -80t-19 -117v-678h-605v1475h605z" />
    <glyph glyph-name="n" unicode="n" horiz-adv-x="2019" 
d="M664 1475v-721q0 188 33.5 322.5t106.5 227t192 137t288 44.5q352 0 514 -164t162 -535v-786h-604v659q0 154 -80.5 224.5t-267.5 70.5q-163 0 -253.5 -63t-90.5 -211v-680h-605v1475h605z" />
    <glyph glyph-name="o" unicode="o" horiz-adv-x="2050" 
d="M1024 1485q497 0 739 -191t242 -549v-16q0 -358 -242 -548.5t-739 -190.5t-738 190t-241 549v16q0 359 241.5 549.5t737.5 190.5zM1024 475q198 0 285.5 58t87.5 200v8q0 142 -87.5 200t-285.5 58t-285.5 -58t-87.5 -200v-8q0 -142 87.5 -200t285.5 -58z" />
    <glyph glyph-name="p" unicode="p" horiz-adv-x="2080" 
d="M664 1475v-535q0 122 33 218t104 171t192.5 115.5t288.5 40.5q200 0 344 -46.5t232.5 -138.5t130 -220t41.5 -300v-12q0 -172 -41.5 -300t-130 -220t-232.5 -138.5t-344 -46.5q-167 0 -288.5 40.5t-192.5 115.5t-104 171t-33 218v-710h-605v1577h605zM664 858v-168
q0 -98 96.5 -140t279.5 -42q199 0 291 59.5t92 200.5v12q0 140 -92.5 200t-290.5 60q-182 0 -279 -42.5t-97 -139.5z" />
    <glyph glyph-name="q" unicode="q" horiz-adv-x="2082" 
d="M1421 1348q366 18 555 131h47v-1581h-602v710q0 -97 -20.5 -177.5t-66.5 -149.5t-116.5 -116.5t-175.5 -74.5t-239 -27q-200 0 -344.5 46.5t-233 138t-130.5 220t-42 300.5v12q0 172 42 300.5t130.5 220t233 138t344.5 46.5q134 0 239 -27t175.5 -74.5t116.5 -116.5
t66.5 -149.5t20.5 -177.5v408zM1421 858q0 182 -377 182q-199 0 -292 -60t-93 -200v-12q0 -141 92.5 -200.5t292.5 -59.5q183 0 280 42t97 140v168z" />
    <glyph glyph-name="r" unicode="r" horiz-adv-x="1419" 
d="M664 707q0 403 141.5 590.5t464.5 187.5q77 0 119 -12v-560q-100 19 -200.5 22.5t-195.5 -12.5t-168 -51t-117 -98t-44 -147v-627h-605v1475h605v-768z" />
    <glyph glyph-name="s" unicode="s" horiz-adv-x="1925" 
d="M1894 461q0 -112 -48.5 -196t-155.5 -147t-289.5 -95.5t-437.5 -32.5q-477 0 -703.5 117t-226.5 382v13h573v-21q0 -73 87.5 -109t279.5 -36q135 0 211 12t104.5 33t28.5 57v4q0 37 -25.5 57.5t-105.5 33t-230 12.5q-210 0 -356 12t-259 41t-178 79t-97.5 123.5
t-32.5 178.5v16q0 490 930 490q927 0 927 -508v-14h-575v26q0 144 -363 144q-352 0 -352 -105v-6q0 -34 24 -52.5t109 -30t248 -11.5q185 0 322 -10t240 -33.5t169.5 -57.5t107.5 -87t57.5 -116.5t16.5 -150.5v-12z" />
    <glyph glyph-name="t" unicode="t" horiz-adv-x="1290" 
d="M883 0h-604v991h-259v484h259v167h604v-167h385v-484h-385v-991z" />
    <glyph glyph-name="u" unicode="u" horiz-adv-x="2019" 
d="M1356 0v721q0 -377 -144 -554t-477 -177q-352 0 -514 163.5t-162 534.5v787h605v-660q0 -154 80.5 -224.5t267.5 -70.5q58 0 105 6.5t93 24.5t77 48t50 79.5t19 116.5v680h604v-1475h-604z" />
    <glyph glyph-name="v" unicode="v" horiz-adv-x="2002" 
d="M1356 1475h639l-537 -1475h-913l-537 1475h641l355 -1125z" />
    <glyph glyph-name="w" unicode="w" horiz-adv-x="2805" 
d="M430 0l-418 1475h611l213 -770l254 770h628l254 -764l207 764h614l-417 -1475h-725l-244 821l-252 -821h-725z" />
    <glyph glyph-name="x" unicode="x" horiz-adv-x="2088" 
d="M1360 0l-320 512l-315 -512h-717l522 741l-505 734h716l306 -498l301 498h718l-507 -732l522 -743h-721z" />
    <glyph glyph-name="y" unicode="y" horiz-adv-x="2064" 
d="M1532 438q-47 -92 -86.5 -157.5t-88.5 -123.5t-96 -95.5t-115 -68.5t-139 -47.5t-174.5 -28.5t-214.5 -15.5t-266 -3.5v460h326q93 0 145 24t99 85l6 8h-324l-602 1000h682l383 -715l350 715h643z" />
    <glyph glyph-name="z" unicode="z" horiz-adv-x="1806" 
d="M45 0v375l875 647h-818v453h1659v-375l-809 -647h809v-453h-1716z" />
    <glyph glyph-name="braceleft" unicode="{" horiz-adv-x="757" 
d="M68 709v151q67 4 89.5 25.5t22.5 75.5v536q0 101 38 136.5t149 35.5h342v-151h-140q-34 0 -46.5 -21t-12.5 -78v-471q0 -49 -35 -95.5t-102 -68.5q67 -22 102 -68t35 -95v-474q0 -57 12.5 -77.5t46.5 -20.5h140v-151h-342q-111 0 -149 35.5t-38 136.5v538
q0 54 -22.5 75.5t-89.5 25.5z" />
    <glyph glyph-name="bar" unicode="|" horiz-adv-x="331" 
d="M72 1772h188v-1874h-188v1874z" />
    <glyph glyph-name="braceright" unicode="}" horiz-adv-x="757" 
d="M690 709q-67 -6 -89.5 -27.5t-22.5 -75.5v-536q0 -101 -38 -136.5t-149 -35.5h-342v151h139q33 0 46.5 21t13.5 77v471q0 51 34 96.5t103 67.5q-69 23 -103 69t-34 95v473q0 56 -13.5 77.5t-46.5 21.5h-139v151h342q111 0 149 -35.5t38 -136.5v-539q0 -54 22 -75t90 -25
v-149z" />
    <glyph glyph-name="asciitilde" unicode="~" horiz-adv-x="1392" 
d="M975 637q-89 0 -166.5 16.5t-124 35.5t-107 35.5t-118.5 16.5q-68 0 -93.5 -27t-25.5 -85h-295q0 340 379 340q88 0 165.5 -16.5t124 -36t109 -36t123.5 -16.5q63 0 87 27t24 86h295q0 -179 -101 -259.5t-276 -80.5z" />
    <glyph glyph-name="nbspace" unicode="&#xa0;" horiz-adv-x="452" 
 />
    <glyph glyph-name="exclamdown" unicode="&#xa1;" horiz-adv-x="636" 
d="M557 1475v-416h-475v416h475zM106 844h422l50 -946h-519z" />
    <glyph glyph-name="cent" unicode="&#xa2;" horiz-adv-x="1908" 
d="M1307 707h555v-21q0 -289 -194 -438t-615 -164v-84h-183v84q-419 15 -622 183t-203 466v17q0 612 825 641v84h183v-84q809 -29 809 -572v-31h-555v7q0 151 -254 172v-445q254 20 254 178v7zM602 741q0 -108 64.5 -160t203.5 -61v449q-141 -9 -204.5 -59t-63.5 -158v-11z
" />
    <glyph glyph-name="sterling" unicode="&#xa3;" horiz-adv-x="2246" 
d="M836 950v-24h544v-156h-544v-266h1359v-504h-1974v770h-209v156h209v18q0 352 254 543.5t746 191.5q467 0 729 -175t262 -486v-45h-617v14q0 105 -91.5 157t-282.5 52q-385 0 -385 -246z" />
    <glyph glyph-name="currency" unicode="&#xa4;" horiz-adv-x="1392" 
d="M700 324q-134 0 -247 55l-211 -211l-193 190l213 213q-53 103 -53 244q0 139 53 242l-213 213l193 192l211 -213q115 56 247 56q131 0 246 -56l213 213l191 -192l-213 -213q53 -103 53 -242q0 -141 -53 -244l213 -213l-191 -190l-213 211q-104 -55 -246 -55zM700 555
q122 0 190 68.5t68 191.5q0 120 -68.5 189t-189.5 69q-122 0 -191 -68.5t-69 -189.5q0 -123 68.5 -191.5t191.5 -68.5z" />
    <glyph glyph-name="yen" unicode="&#xa5;" horiz-adv-x="2068" 
d="M1716 604h-381v-604h-606v604h-393v154h393v178h-393v154h358l-692 579h676l379 -330l379 330h630l-696 -579h346v-154h-381v-178h381v-154z" />
    <glyph glyph-name="brokenbar" unicode="&#xa6;" horiz-adv-x="331" 
d="M72 1772h188v-850h-188v850zM72 748h188v-850h-188v850z" />
    <glyph glyph-name="section" unicode="&#xa7;" horiz-adv-x="1675" 
d="M1620 301q0 -101 -42 -175.5t-134 -128.5t-245 -81t-368 -27q-400 0 -592.5 104.5t-193.5 342.5v10h492v-16q0 -131 303 -131q157 0 219.5 20.5t62.5 63.5v6q0 32 -22.5 49.5t-96.5 28.5t-217 14q-169 2 -287.5 13t-211 34.5t-146.5 63.5t-81 98.5t-27 140.5v17
q0 166 114 241q-96 83 -96 248v16q0 210 195 318t583 108q401 0 599 -109.5t198 -334.5v-14h-493v20q0 125 -306 125q-282 0 -282 -86v-6q0 -31 22 -47.5t97.5 -27t224.5 -13.5q182 -2 309.5 -15.5t214 -38.5t135.5 -68.5t69.5 -98.5t20.5 -134v-6q0 -176 -112 -250
q94 -82 94 -268v-6zM868 709q120 0 256 -11q19 22 19 60v4q0 34 -22.5 52t-96 29.5t-217.5 14.5q-177 4 -254 10q-29 -23 -29 -61v-6q0 -31 22 -48t98 -28.5t224 -15.5z" />
    <glyph glyph-name="dieresis" unicode="&#xa8;" horiz-adv-x="512" 
d="M-102 1528v158h303v-158h-303zM614 1528h-303v158h303v-158z" />
    <glyph glyph-name="copyright" unicode="&#xa9;" horiz-adv-x="2004" 
d="M1968 844v-19q0 -408 -252 -621.5t-712 -213.5t-713.5 213.5t-253.5 621.5v19q0 408 253.5 621.5t713.5 213.5t712 -213.5t252 -621.5zM1802 825v19q0 340 -192 503.5t-606 163.5q-415 0 -607 -163.5t-192 -503.5v-19q0 -340 192 -503.5t607 -163.5q414 0 606 163.5
t192 503.5zM1262 797v8h378v-21q0 -239 -157.5 -367t-485.5 -128q-308 0 -470 134t-162 406v25q0 274 162 408.5t470 134.5q328 0 485.5 -128t157.5 -368v-20h-378v8q0 78 -64.5 116.5t-198.5 38.5q-142 0 -206 -47.5t-64 -146.5v-14q0 -100 63.5 -147.5t206.5 -47.5
q263 0 263 156z" />
    <glyph glyph-name="ordfeminine" unicode="&#xaa;" horiz-adv-x="985" 
d="M647 1399v8q0 33 -33.5 48t-109.5 15q-80 0 -111 -16.5t-31 -52.5v-4h-296v8q0 274 426 274q233 0 341.5 -66t108.5 -212v-430h-295v190q0 -88 -69.5 -143t-221.5 -55q-164 0 -244.5 44t-80.5 142v14q0 37 15.5 66.5t39.5 49.5t65 36.5t79.5 26t96 18.5t102.5 14t110 12
t108 13zM444 1108q203 0 203 88v51q-219 -23 -266 -36q-58 -17 -59 -48v-8q0 -25 26.5 -36t95.5 -11zM909 766h-831v131h831v-131z" />
    <glyph glyph-name="guillemotleft" unicode="&#xab;" horiz-adv-x="872" 
d="M20 799l156 508h301l-158 -508l158 -508h-301zM393 799l156 508h301l-158 -508l158 -508h-301z" />
    <glyph glyph-name="logicalnot" unicode="&#xac;" horiz-adv-x="1392" 
d="M1346 131h-265v541h-1036v266h1301v-807z" />
    <glyph glyph-name="registered" unicode="&#xae;" horiz-adv-x="1099" 
d="M549 705q-244 0 -384 124t-140 357v12q0 233 140 357t384 124q246 0 386 -123.5t140 -357.5v-12q0 -234 -140 -357.5t-386 -123.5zM549 1563q-206 0 -297.5 -94t-91.5 -271v-12q0 -177 91.5 -271t297.5 -94q208 0 299.5 93.5t91.5 271.5v12q0 178 -91.5 271.5
t-299.5 93.5zM643 922l-90 196h-72v-196h-153v540h260q122 0 177.5 -39t55.5 -125v-14q0 -125 -119 -154l107 -208h-166zM584 1335h-103v-92h103q48 0 66 9.5t18 35.5v2q0 28 -17.5 36.5t-66.5 8.5z" />
    <glyph glyph-name="macron" unicode="&#xaf;" horiz-adv-x="512" 
d="M-72 1544v125h656v-125h-656z" />
    <glyph glyph-name="degree" unicode="&#xb0;" horiz-adv-x="917" 
d="M463 827q-195 0 -313.5 116.5t-118.5 303.5q0 195 118 313.5t314 118.5q193 0 307.5 -118t114.5 -314q0 -188 -115 -304t-307 -116zM463 1503q-122 0 -190 -67.5t-68 -188.5q0 -113 68.5 -179.5t189.5 -66.5q115 0 181.5 66.5t66.5 179.5q0 121 -66 188.5t-182 67.5z" />
    <glyph glyph-name="plusminus" unicode="&#xb1;" horiz-adv-x="1392" 
d="M1346 131h-1301v264h524v387h-524v267h524v426h267v-426h510v-267h-510v-387h510v-264z" />
    <glyph glyph-name="twosuperior" unicode="&#xb2;" horiz-adv-x="980" 
d="M647 1384v5q0 65 -149 65q-97 0 -135.5 -24t-38.5 -84v-5h-277v7q0 331 485 331q201 0 304.5 -59.5t103.5 -161.5v-4q0 -68 -34 -107t-140.5 -73.5t-323.5 -71.5h496v-233h-883v211q227 57 335 85.5t172 51.5t74.5 34.5t10.5 32.5z" />
    <glyph glyph-name="threesuperior" unicode="&#xb3;" horiz-adv-x="1024" 
d="M541 963q-259 0 -379.5 67.5t-120.5 206.5v12h278v-8q0 -82 195 -82q104 0 147.5 10.5t43.5 36.5v2q0 19 -20.5 28t-72.5 9h-180v164h125q67 0 95 8t28 29v2q0 23 -38 33t-122 10q-188 0 -188 -86v-2h-275v8q0 268 478 268q423 0 423 -180v-8q0 -111 -147 -137
q87 -12 129.5 -54t42.5 -106v-8q0 -108 -109.5 -165.5t-332.5 -57.5z" />
    <glyph glyph-name="acute" unicode="&#xb4;" horiz-adv-x="512" 
d="M336 1542h-332l80 127h426z" />
    <glyph glyph-name="mu" unicode="&#xb5;" horiz-adv-x="2019" 
d="M59 -102v1577h605v-660q0 -154 80.5 -224.5t267.5 -70.5q58 0 105 6.5t93 24.5t77 48t50 79.5t19 116.5v680h604v-1475h-604v721q0 -731 -512 -731q-100 0 -180 30v-122h-605z" />
    <glyph glyph-name="paragraph" unicode="&#xb6;" horiz-adv-x="1634" 
d="M1237 1669h299v-1771h-299v1771zM737 678h-8q-189 0 -315.5 25t-201 80.5t-105.5 134t-31 194.5v68q0 180 57.5 283.5t200 154.5t395.5 51h307v-1771h-299v780z" />
    <glyph glyph-name="periodcentered" unicode="&#xb7;" horiz-adv-x="532" 
d="M504 567h-475v461h475v-461z" />
    <glyph glyph-name="cedilla" unicode="&#xb8;" horiz-adv-x="512" 
d="M262 -205q-192 0 -269 17t-77 59v4h299v-4q0 -16 21 -16q24 0 24 28q0 27 -24 27q-15 0 -21 -14h-276l270 104h213l-154 -63q71 20 144 20q102 0 145 -18t43 -62q0 -33 -28.5 -50t-100 -24.5t-209.5 -7.5z" />
    <glyph glyph-name="onesuperior" unicode="&#xb9;" horiz-adv-x="552" 
d="M514 969h-289v403l-200 -94v262l272 129h217v-700z" />
    <glyph glyph-name="ordmasculine" unicode="&#xba;" horiz-adv-x="978" 
d="M489 1679q234 0 351.5 -91.5t117.5 -262.5v-8q0 -171 -117.5 -262.5t-351.5 -91.5t-351.5 91.5t-117.5 262.5v8q0 171 117.5 262.5t351.5 91.5zM489 1196q92 0 133.5 28t41.5 93v8q0 65 -41.5 93t-133.5 28t-133 -28t-41 -93v-8q0 -65 41 -93t133 -28zM905 766h-831v131
h831v-131z" />
    <glyph glyph-name="guillemotright" unicode="&#xbb;" horiz-adv-x="872" 
d="M477 799l-153 -508h-304l158 508l-158 508h304zM850 799l-154 -508h-303l158 508l-158 508h303z" />
    <glyph glyph-name="onequarter" unicode="&#xbc;" horiz-adv-x="1779" 
d="M637 969h-289v403l-201 -94v262l273 129h217v-700zM1579 1669h164l-1553 -1669h-163zM829 133v164l359 403h446v-391h66v-176h-66v-133h-284v133h-521zM1130 309h220v277z" />
    <glyph glyph-name="onehalf" unicode="&#xbd;" horiz-adv-x="1912" 
d="M637 969h-289v403l-201 -94v262l273 129h217v-700zM1579 1669h164l-1553 -1669h-163zM1579 416v4q0 65 -149 65q-97 0 -136 -24t-39 -84v-4h-276v6q0 332 485 332q201 0 304.5 -60t103.5 -162v-4q0 -68 -34 -107t-140.5 -73.5t-323.5 -71.5h496v-233h-883v211
q225 56 334.5 85.5t173 52.5t74 34.5t10.5 32.5z" />
    <glyph glyph-name="threequarters" unicode="&#xbe;" horiz-adv-x="1945" 
d="M541 963q-259 0 -379.5 67.5t-120.5 206.5v12h278v-8q0 -82 195 -82q104 0 147.5 10.5t43.5 36.5v2q0 19 -20.5 28t-72.5 9h-180v164h125q67 0 95 8t28 29v2q0 23 -38 33t-122 10q-188 0 -188 -86v-2h-275v8q0 268 478 268q423 0 423 -180v-8q0 -111 -147 -137
q87 -12 129.5 -54t42.5 -106v-8q0 -108 -109.5 -165.5t-332.5 -57.5zM1743 1669h164l-1553 -1669h-164zM993 133v164l359 403h446v-391h66v-176h-66v-133h-285v133h-520zM1294 309h219v277z" />
    <glyph glyph-name="questiondown" unicode="&#xbf;" horiz-adv-x="1916" 
d="M778 1475h475v-416h-475v416zM1874 463q0 -576 -975 -576q-446 0 -650 109.5t-204 339.5v8q0 79 26 141.5t69.5 102.5t100 69.5t119 47.5t125 32.5t119 28.5t100 31t69.5 44.5t26 65.5v27h444v-31q0 -91 -27.5 -161.5t-72 -111.5t-102 -71t-117 -43.5t-117 -27t-102 -23
t-72 -28.5t-27.5 -48v-8q0 -46 71.5 -68t258.5 -22q213 0 307 44t94 140v14h537v-26z" />
    <glyph glyph-name="Agrave" unicode="&#xc0;" horiz-adv-x="2187" 
d="M928 1737l-174 127h426l80 -127h-332zM1587 0l-112 303h-766l-113 -303h-580l621 1669h909l627 -1669h-586zM848 680h487l-243 655z" />
    <glyph glyph-name="Aacute" unicode="&#xc1;" horiz-adv-x="2187" 
d="M1262 1737h-332l80 127h426zM1587 0l-112 303h-766l-113 -303h-580l621 1669h909l627 -1669h-586zM848 680h487l-243 655z" />
    <glyph glyph-name="Acircumflex" unicode="&#xc2;" horiz-adv-x="2187" 
d="M1186 1737l-92 53l-93 -53h-256l136 127h426l135 -127h-256zM1587 0l-112 303h-766l-113 -303h-580l621 1669h909l627 -1669h-586zM848 680h487l-243 655z" />
    <glyph glyph-name="Atilde" unicode="&#xc3;" horiz-adv-x="2187" 
d="M1430 1864q0 -71 -41 -101t-123 -30q-67 0 -137 20.5t-93 20.5t-32 -9t-9 -28h-239q0 70 42 100.5t128 30.5q71 0 140.5 -18.5t84.5 -18.5q23 0 31 7t8 26h240zM1587 0l-112 303h-766l-113 -303h-580l621 1669h909l627 -1669h-586zM848 680h487l-243 655z" />
    <glyph glyph-name="Adieresis" unicode="&#xc4;" horiz-adv-x="2187" 
d="M735 1722v158h303v-158h-303zM1452 1722h-303v158h303v-158zM1587 0l-112 303h-766l-113 -303h-580l621 1669h909l627 -1669h-586zM848 680h487l-243 655z" />
    <glyph glyph-name="Aring" unicode="&#xc5;" horiz-adv-x="2187" 
d="M1587 0l-112 303h-766l-113 -303h-580l621 1669h262q-47 27 -47 80q0 119 242 119q243 0 243 -119q0 -53 -47 -80h256l627 -1669h-586zM1094 1679q84 0 84 68q0 74 -84 74q-82 0 -82 -74q0 -68 82 -68zM848 680h487l-243 655z" />
    <glyph glyph-name="AE" unicode="&#xc6;" horiz-adv-x="3092" 
d="M-6 0l1087 1669h1968v-455h-1011v-159h932v-426h-932v-172h1011v-457h-1617v475h-549l-299 -475h-590zM1118 848h314v495z" />
    <glyph glyph-name="Ccedilla" unicode="&#xc7;" horiz-adv-x="2256" 
d="M1145 -205q-192 0 -269 17t-77 59v4h299v-4q0 -16 20 -16q25 0 25 28q0 27 -25 27q-14 0 -20 -14h-277l246 94q-521 13 -775.5 221t-254.5 580v88q0 189 65.5 335.5t198.5 251t342.5 159t489.5 54.5q541 0 814 -201.5t273 -580.5v-12h-608v8q0 133 -122.5 201.5
t-365.5 68.5q-261 0 -370 -76.5t-109 -240.5v-23q0 -164 109 -240.5t370 -76.5q488 0 488 272v8h608v-14q0 -351 -232 -550t-696 -228l-141 -57q71 20 143 20q102 0 145.5 -18t43.5 -62q0 -33 -28.5 -50t-100 -24.5t-209.5 -7.5z" />
    <glyph glyph-name="Egrave" unicode="&#xc8;" horiz-adv-x="1744" 
d="M702 1737l-174 127h426l80 -127h-332zM1702 455v-455h-1643v1669h1643v-457h-1038v-151h960v-426h-960v-180h1038z" />
    <glyph glyph-name="Eacute" unicode="&#xc9;" horiz-adv-x="1744" 
d="M1036 1737h-331l79 127h426zM1702 455v-455h-1643v1669h1643v-457h-1038v-151h960v-426h-960v-180h1038z" />
    <glyph glyph-name="Ecircumflex" unicode="&#xca;" horiz-adv-x="1744" 
d="M961 1737l-93 53l-92 -53h-256l135 127h426l136 -127h-256zM1702 455v-455h-1643v1669h1643v-457h-1038v-151h960v-426h-960v-180h1038z" />
    <glyph glyph-name="Edieresis" unicode="&#xcb;" horiz-adv-x="1744" 
d="M510 1722v158h303v-158h-303zM1227 1722h-303v158h303v-158zM1702 455v-455h-1643v1669h1643v-457h-1038v-151h960v-426h-960v-180h1038z" />
    <glyph glyph-name="Igrave" unicode="&#xcc;" 
d="M197 1737l-174 127h426l79 -127h-331zM59 0v1669h605v-1669h-605z" />
    <glyph glyph-name="Iacute" unicode="&#xcd;" 
d="M530 1737h-331l80 127h426zM59 0v1669h605v-1669h-605z" />
    <glyph glyph-name="Icircumflex" unicode="&#xce;" 
d="M455 1737l-93 53l-92 -53h-256l136 127h425l136 -127h-256zM59 0v1669h605v-1669h-605z" />
    <glyph glyph-name="Idieresis" unicode="&#xcf;" 
d="M4 1722v158h303v-158h-303zM721 1722h-303v158h303v-158zM59 0v1669h605v-1669h-605z" />
    <glyph glyph-name="Eth" unicode="&#xd0;" horiz-adv-x="2170" 
d="M59 0v1669h981q298 0 508 -50t340 -154t189 -252.5t59 -354.5v-65q0 -201 -59 -346.5t-189 -246.5t-340 -150.5t-508 -49.5h-981zM1040 707h-376v-207h405q237 0 346 68.5t109 242.5v23q0 96 -27.5 160t-87 101t-141 52.5t-199.5 15.5h-405v-202h376v-254z" />
    <glyph glyph-name="Ntilde" unicode="&#xd1;" horiz-adv-x="2154" 
d="M1423 1864q0 -71 -40.5 -101t-122.5 -30q-67 0 -137 20.5t-93 20.5t-32 -9t-9 -28h-239q0 70 42 100.5t128 30.5q71 0 140.5 -18.5t84.5 -18.5q23 0 31 7t8 26h239zM1552 0l-929 899v-899h-564v1669h551l922 -874v874h561v-1669h-541z" />
    <glyph glyph-name="Ograve" unicode="&#xd2;" horiz-adv-x="2252" 
d="M965 1737l-174 127h426l79 -127h-331zM2216 795q0 -805 -1086 -805q-1093 0 -1093 805v79q0 805 1093 805q1086 0 1086 -805v-79zM1610 842q0 174 -111 247.5t-373 73.5q-261 0 -371 -73t-110 -248v-15q0 -175 110 -248t371 -73q262 0 373 73.5t111 247.5v15z" />
    <glyph glyph-name="Oacute" unicode="&#xd3;" horiz-adv-x="2252" 
d="M1298 1737h-331l80 127h426zM2216 795q0 -805 -1086 -805q-1093 0 -1093 805v79q0 805 1093 805q1086 0 1086 -805v-79zM1610 842q0 174 -111 247.5t-373 73.5q-261 0 -371 -73t-110 -248v-15q0 -175 110 -248t371 -73q262 0 373 73.5t111 247.5v15z" />
    <glyph glyph-name="Ocircumflex" unicode="&#xd4;" horiz-adv-x="2252" 
d="M1225 1737l-92 53l-93 -53h-256l136 127h426l135 -127h-256zM2216 795q0 -805 -1086 -805q-1093 0 -1093 805v79q0 805 1093 805q1086 0 1086 -805v-79zM1610 842q0 174 -111 247.5t-373 73.5q-261 0 -371 -73t-110 -248v-15q0 -175 110 -248t371 -73q262 0 373 73.5
t111 247.5v15z" />
    <glyph glyph-name="Otilde" unicode="&#xd5;" horiz-adv-x="2252" 
d="M1466 1864q0 -71 -40.5 -101t-122.5 -30q-67 0 -137 20.5t-93 20.5t-32 -9t-9 -28h-239q0 70 42 100.5t128 30.5q71 0 140.5 -18.5t84.5 -18.5q23 0 31 7t8 26h239zM2216 795q0 -805 -1086 -805q-1093 0 -1093 805v79q0 805 1093 805q1086 0 1086 -805v-79zM1610 842
q0 174 -111 247.5t-373 73.5q-261 0 -371 -73t-110 -248v-15q0 -175 110 -248t371 -73q262 0 373 73.5t111 247.5v15z" />
    <glyph glyph-name="Odieresis" unicode="&#xd6;" horiz-adv-x="2252" 
d="M774 1722v158h303v-158h-303zM1491 1722h-303v158h303v-158zM2216 795q0 -805 -1086 -805q-1093 0 -1093 805v79q0 805 1093 805q1086 0 1086 -805v-79zM1610 842q0 174 -111 247.5t-373 73.5q-261 0 -371 -73t-110 -248v-15q0 -175 110 -248t371 -73q262 0 373 73.5
t111 247.5v15z" />
    <glyph glyph-name="multiply" unicode="&#xd7;" horiz-adv-x="1392" 
d="M262 178l-188 193l436 436l-457 457l193 190l454 -457l435 433l188 -189l-432 -434l452 -455l-188 -188l-455 454z" />
    <glyph glyph-name="Oslash" unicode="&#xd8;" horiz-adv-x="2260" 
d="M37 0l254 205q-254 205 -254 633v36q0 805 1093 805q462 0 732 -147l172 137h166l-244 -196q268 -202 268 -599v-36q0 -428 -270.5 -638t-823.5 -210q-488 0 -749 151l-180 -141h-164zM1126 1163q-254 0 -367.5 -71.5t-113.5 -249.5v-15q0 -158 94 -231l662 539
q-101 28 -275 28zM1616 842q0 170 -107 243l-665 -540q103 -33 282 -33q257 0 373.5 70.5t116.5 244.5v15z" />
    <glyph glyph-name="Ugrave" unicode="&#xd9;" horiz-adv-x="2152" 
d="M909 1737l-174 127h426l80 -127h-332zM1487 1669h606v-610q0 -301 -52.5 -501.5t-174.5 -329t-313 -183.5t-478 -55q-286 0 -476 54.5t-312.5 182.5t-175 328.5t-52.5 503.5v610h605v-600q0 -209 44 -331.5t131.5 -174t233.5 -51.5q110 0 185.5 27.5t128 92t76.5 171.5
t24 266v600z" />
    <glyph glyph-name="Uacute" unicode="&#xda;" horiz-adv-x="2152" 
d="M1245 1737h-332l80 127h426zM1487 1669h606v-610q0 -301 -52.5 -501.5t-174.5 -329t-313 -183.5t-478 -55q-286 0 -476 54.5t-312.5 182.5t-175 328.5t-52.5 503.5v610h605v-600q0 -209 44 -331.5t131.5 -174t233.5 -51.5q110 0 185.5 27.5t128 92t76.5 171.5t24 266v600
z" />
    <glyph glyph-name="Ucircumflex" unicode="&#xdb;" horiz-adv-x="2152" 
d="M1167 1737l-92 53l-92 -53h-256l135 127h426l135 -127h-256zM1487 1669h606v-610q0 -301 -52.5 -501.5t-174.5 -329t-313 -183.5t-478 -55q-286 0 -476 54.5t-312.5 182.5t-175 328.5t-52.5 503.5v610h605v-600q0 -209 44 -331.5t131.5 -174t233.5 -51.5
q110 0 185.5 27.5t128 92t76.5 171.5t24 266v600z" />
    <glyph glyph-name="Udieresis" unicode="&#xdc;" horiz-adv-x="2152" 
d="M717 1722v158h303v-158h-303zM1434 1722h-304v158h304v-158zM1487 1669h606v-610q0 -301 -52.5 -501.5t-174.5 -329t-313 -183.5t-478 -55q-286 0 -476 54.5t-312.5 182.5t-175 328.5t-52.5 503.5v610h605v-600q0 -209 44 -331.5t131.5 -174t233.5 -51.5
q110 0 185.5 27.5t128 92t76.5 171.5t24 266v600z" />
    <glyph glyph-name="Yacute" unicode="&#xdd;" horiz-adv-x="2119" 
d="M1229 1737h-332l80 127h426zM754 645l-754 1024h672l387 -543l385 543h676l-762 -1026v-643h-604v645z" />
    <glyph glyph-name="Thorn" unicode="&#xde;" horiz-adv-x="2019" 
d="M59 1669h605v-164h458q237 0 406 -40.5t272.5 -122t151 -195.5t47.5 -270v-46q0 -148 -49 -258.5t-155.5 -189.5t-281 -118.5t-417.5 -39.5h-432v-225h-605v1669zM1126 1020h-462v-369h462q134 0 197 42.5t63 137.5v9q0 99 -62 139.5t-198 40.5z" />
    <glyph glyph-name="germandbls" unicode="&#xdf;" horiz-adv-x="2000" 
d="M1868 1315v-6q0 -260 -385 -305q249 -33 364 -152t115 -324v-20q0 -127 -37.5 -215.5t-114 -149.5t-208 -94.5t-304 -46t-417.5 -8.5v391q190 -6 291 9.5t143.5 56.5t42.5 120v7q0 93 -61 136.5t-201 43.5h-178v340h118q130 0 178 22.5t48 79.5v6q0 62 -57.5 86.5
t-207.5 24.5q-190 0 -261.5 -50t-71.5 -184v-1083h-605v1073q0 128 29.5 222.5t97.5 169t180.5 121t275.5 70t384 23.5q304 0 488.5 -38.5t269 -117.5t84.5 -208z" />
    <glyph glyph-name="agrave" unicode="&#xe0;" horiz-adv-x="1980" 
d="M852 1542l-174 127h426l80 -127h-332zM709 907v-10h-617v16q0 281 230.5 426.5t678.5 145.5q481 0 700.5 -137.5t219.5 -444.5v-903h-604v403q0 -68 -20 -128t-65.5 -113t-114 -90.5t-172.5 -59.5t-234 -22q-345 0 -516.5 91.5t-171.5 293.5v22q0 68 21 124t57 97.5
t91.5 75t116.5 56t141.5 41t157 29.5t172 22t177.5 18.5t182 18.5t178 22v10q0 72 -72 106t-244 34q-161 0 -226.5 -34.5t-65.5 -109.5zM627 395q0 -56 56.5 -82t190.5 -26q97 0 169.5 7.5t138 27t100.5 58.5t35 97v103q-400 -39 -513 -62q-153 -31 -173 -88q-4 -10 -4 -22
v-13z" />
    <glyph glyph-name="aacute" unicode="&#xe1;" horiz-adv-x="1980" 
d="M1186 1542h-332l80 127h426zM709 907v-10h-617v16q0 281 230.5 426.5t678.5 145.5q481 0 700.5 -137.5t219.5 -444.5v-903h-604v403q0 -68 -20 -128t-65.5 -113t-114 -90.5t-172.5 -59.5t-234 -22q-345 0 -516.5 91.5t-171.5 293.5v22q0 68 21 124t57 97.5t91.5 75
t116.5 56t141.5 41t157 29.5t172 22t177.5 18.5t182 18.5t178 22v10q0 72 -72 106t-244 34q-161 0 -226.5 -34.5t-65.5 -109.5zM627 395q0 -56 56.5 -82t190.5 -26q97 0 169.5 7.5t138 27t100.5 58.5t35 97v103q-400 -39 -513 -62q-153 -31 -173 -88q-4 -10 -4 -22v-13z" />
    <glyph glyph-name="acircumflex" unicode="&#xe2;" horiz-adv-x="1980" 
d="M1112 1542l-92 53l-92 -53h-256l135 127h426l135 -127h-256zM709 907v-10h-617v16q0 281 230.5 426.5t678.5 145.5q481 0 700.5 -137.5t219.5 -444.5v-903h-604v403q0 -68 -20 -128t-65.5 -113t-114 -90.5t-172.5 -59.5t-234 -22q-345 0 -516.5 91.5t-171.5 293.5v22
q0 68 21 124t57 97.5t91.5 75t116.5 56t141.5 41t157 29.5t172 22t177.5 18.5t182 18.5t178 22v10q0 72 -72 106t-244 34q-161 0 -226.5 -34.5t-65.5 -109.5zM627 395q0 -56 56.5 -82t190.5 -26q97 0 169.5 7.5t138 27t100.5 58.5t35 97v103q-400 -39 -513 -62
q-153 -31 -173 -88q-4 -10 -4 -22v-13z" />
    <glyph glyph-name="atilde" unicode="&#xe3;" horiz-adv-x="1980" 
d="M1354 1669q0 -71 -41 -101t-123 -30q-67 0 -136.5 20.5t-92.5 20.5t-32 -9t-9 -28h-240q0 70 42 100.5t128 30.5q71 0 140.5 -18.5t84.5 -18.5q23 0 31 7t8 26h240zM709 907v-10h-617v16q0 281 230.5 426.5t678.5 145.5q481 0 700.5 -137.5t219.5 -444.5v-903h-604v403
q0 -68 -20 -128t-65.5 -113t-114 -90.5t-172.5 -59.5t-234 -22q-345 0 -516.5 91.5t-171.5 293.5v22q0 68 21 124t57 97.5t91.5 75t116.5 56t141.5 41t157 29.5t172 22t177.5 18.5t182 18.5t178 22v10q0 72 -72 106t-244 34q-161 0 -226.5 -34.5t-65.5 -109.5zM627 395
q0 -56 56.5 -82t190.5 -26q97 0 169.5 7.5t138 27t100.5 58.5t35 97v103q-400 -39 -513 -62q-153 -31 -173 -88q-4 -10 -4 -22v-13z" />
    <glyph glyph-name="adieresis" unicode="&#xe4;" horiz-adv-x="1980" 
d="M662 1528v158h303v-158h-303zM1378 1528h-303v158h303v-158zM709 907v-10h-617v16q0 281 230.5 426.5t678.5 145.5q481 0 700.5 -137.5t219.5 -444.5v-903h-604v403q0 -68 -20 -128t-65.5 -113t-114 -90.5t-172.5 -59.5t-234 -22q-345 0 -516.5 91.5t-171.5 293.5v22
q0 68 21 124t57 97.5t91.5 75t116.5 56t141.5 41t157 29.5t172 22t177.5 18.5t182 18.5t178 22v10q0 72 -72 106t-244 34q-161 0 -226.5 -34.5t-65.5 -109.5zM627 395q0 -56 56.5 -82t190.5 -26q97 0 169.5 7.5t138 27t100.5 58.5t35 97v103q-400 -39 -513 -62
q-153 -31 -173 -88q-4 -10 -4 -22v-13z" />
    <glyph glyph-name="aring" unicode="&#xe5;" horiz-adv-x="1980" 
d="M709 907v-10h-617v16q0 250 183.5 393.5t541.5 172.5q-41 27 -41 75q0 119 242 119q244 0 244 -119q0 -50 -43 -77q363 -28 532.5 -165.5t169.5 -408.5v-903h-604v403q0 -68 -20 -128t-65.5 -113t-114 -90.5t-172.5 -59.5t-234 -22q-345 0 -516.5 91.5t-171.5 293.5v22
q0 68 21 124t57 97.5t91.5 75t116.5 56t141.5 41t157 29.5t172 22t177.5 18.5t182 18.5t178 22v10q0 72 -72 106t-244 34q-161 0 -226.5 -34.5t-65.5 -109.5zM1018 1485q84 0 84 67q0 74 -84 74q-82 0 -82 -74q0 -67 82 -67zM627 395q0 -56 56.5 -82t190.5 -26
q97 0 169.5 7.5t138 27t100.5 58.5t35 97v103q-400 -39 -513 -62q-153 -31 -173 -88q-4 -10 -4 -22v-13z" />
    <glyph glyph-name="ae" unicode="&#xe6;" horiz-adv-x="3336" 
d="M3293 551q0 -121 -61.5 -222.5t-181 -177.5t-310 -118.5t-434.5 -42.5q-274 0 -470 55.5t-309 155.5t-165 248q-23 -238 -181.5 -348.5t-469.5 -110.5q-345 0 -516.5 91.5t-171.5 293.5v22q0 68 21 124t57 97.5t91.5 75t116.5 56t141.5 41t157 29.5t172 22t177.5 18.5
t182 18.5t178 22v10q0 75 -74.5 107.5t-241.5 32.5q-163 0 -227.5 -36.5t-64.5 -107.5v-10h-617v16q0 281 225 426.5t660 145.5q449 0 688 -152q270 152 647 152q480 0 730.5 -185.5t250.5 -525.5v-127h-1366q15 -133 112 -192.5t281 -59.5q176 0 265.5 42t89.5 122v2h618
v-10zM2306 1104q-166 0 -257.5 -50t-115.5 -161h754q-13 211 -381 211zM627 395q0 -56 56.5 -82t190.5 -26q237 0 347.5 44t130.5 148q-19 80 -23 101q-400 -38 -508 -58q-162 -30 -188 -85q-6 -14 -6 -29v-13z" />
    <glyph glyph-name="ccedilla" unicode="&#xe7;" horiz-adv-x="2064" 
d="M1047 -205q-192 0 -269.5 17t-77.5 59v4h299v-4q0 -16 21 -16q24 0 24 28q0 27 -24 27q-15 0 -21 -14h-276l246 94q-924 23 -924 741v12q0 742 987 742t987 -664v-35h-608v7q0 106 -90 156t-285 50q-203 0 -294 -56.5t-91 -197.5v-16q0 -141 91 -197.5t294 -56.5
q195 0 285 50.5t90 156.5v6h608v-35q0 -605 -825 -659l-141 -57q71 20 143 20q102 0 145 -18t43 -62q0 -33 -28 -50t-99.5 -24.5t-209.5 -7.5z" />
    <glyph glyph-name="egrave" unicode="&#xe8;" horiz-adv-x="2064" 
d="M864 1542l-174 127h426l80 -127h-332zM2021 647h-1366q15 -133 112.5 -192.5t279.5 -59.5q176 0 266 42t90 122v2h618v-10q0 -121 -61.5 -222.5t-181.5 -177.5t-310.5 -118.5t-435.5 -42.5q-987 0 -987 723v20q0 752 993 752q480 0 731.5 -185.5t251.5 -525.5v-127z
M1034 1104q-167 0 -257.5 -50t-114.5 -161h753q-13 211 -381 211z" />
    <glyph glyph-name="eacute" unicode="&#xe9;" horiz-adv-x="2064" 
d="M1200 1542h-332l80 127h426zM2021 647h-1366q15 -133 112.5 -192.5t279.5 -59.5q176 0 266 42t90 122v2h618v-10q0 -121 -61.5 -222.5t-181.5 -177.5t-310.5 -118.5t-435.5 -42.5q-987 0 -987 723v20q0 752 993 752q480 0 731.5 -185.5t251.5 -525.5v-127zM1034 1104
q-167 0 -257.5 -50t-114.5 -161h753q-13 211 -381 211z" />
    <glyph glyph-name="ecircumflex" unicode="&#xea;" horiz-adv-x="2064" 
d="M1124 1542l-92 53l-92 -53h-256l135 127h426l135 -127h-256zM2021 647h-1366q15 -133 112.5 -192.5t279.5 -59.5q176 0 266 42t90 122v2h618v-10q0 -121 -61.5 -222.5t-181.5 -177.5t-310.5 -118.5t-435.5 -42.5q-987 0 -987 723v20q0 752 993 752q480 0 731.5 -185.5
t251.5 -525.5v-127zM1034 1104q-167 0 -257.5 -50t-114.5 -161h753q-13 211 -381 211z" />
    <glyph glyph-name="edieresis" unicode="&#xeb;" horiz-adv-x="2064" 
d="M674 1528v158h303v-158h-303zM1391 1528h-304v158h304v-158zM2021 647h-1366q15 -133 112.5 -192.5t279.5 -59.5q176 0 266 42t90 122v2h618v-10q0 -121 -61.5 -222.5t-181.5 -177.5t-310.5 -118.5t-435.5 -42.5q-987 0 -987 723v20q0 752 993 752q480 0 731.5 -185.5
t251.5 -525.5v-127zM1034 1104q-167 0 -257.5 -50t-114.5 -161h753q-13 211 -381 211z" />
    <glyph glyph-name="igrave" unicode="&#xec;" 
d="M195 1542l-175 127h426l80 -127h-331zM59 0v1475h605v-1475h-605z" />
    <glyph glyph-name="iacute" unicode="&#xed;" 
d="M528 1542h-331l79 127h426zM59 0v1475h605v-1475h-605z" />
    <glyph glyph-name="icircumflex" unicode="&#xee;" 
d="M453 1542l-93 53l-92 -53h-256l135 127h426l136 -127h-256zM59 0v1475h605v-1475h-605z" />
    <glyph glyph-name="idieresis" unicode="&#xef;" 
d="M2 1528v158h303v-158h-303zM719 1528h-303v158h303v-158zM59 0v1475h605v-1475h-605z" />
    <glyph glyph-name="eth" unicode="&#xf0;" horiz-adv-x="2080" 
d="M1419 659q0 257 -79.5 399t-256.5 191l-211 -119h-237l256 146h-43h-371l217 393h273q273 0 489 -76l133 76h240l-238 -133q212 -113 321 -306t109 -444v-22q0 -407 -242 -590.5t-765 -183.5q-231 0 -398 22t-276 63t-173.5 107.5t-90 146.5t-25.5 189v17q0 253 185 381
t550 128q332 0 482.5 -109.5t150.5 -330.5v55zM1040 322q201 0 290 50t89 156v9q0 188 -381 188q-196 0 -288.5 -46t-92.5 -151v-12q0 -105 90.5 -149.5t292.5 -44.5z" />
    <glyph glyph-name="ntilde" unicode="&#xf1;" horiz-adv-x="2019" 
d="M1346 1669q0 -71 -41 -101t-123 -30q-67 0 -137 20.5t-93 20.5t-32 -9t-9 -28h-239q0 70 42 100.5t128 30.5q71 0 140.5 -18.5t84.5 -18.5q23 0 31 7t8 26h240zM664 1475v-721q0 188 33.5 322.5t106.5 227t192 137t288 44.5q352 0 514 -164t162 -535v-786h-604v659
q0 154 -80.5 224.5t-267.5 70.5q-163 0 -253.5 -63t-90.5 -211v-680h-605v1475h605z" />
    <glyph glyph-name="ograve" unicode="&#xf2;" horiz-adv-x="2050" 
d="M858 1542l-174 127h426l80 -127h-332zM1024 1485q497 0 739 -191t242 -549v-16q0 -358 -242 -548.5t-739 -190.5t-738 190t-241 549v16q0 359 241.5 549.5t737.5 190.5zM1024 475q198 0 285.5 58t87.5 200v8q0 142 -87.5 200t-285.5 58t-285.5 -58t-87.5 -200v-8
q0 -142 87.5 -200t285.5 -58z" />
    <glyph glyph-name="oacute" unicode="&#xf3;" horiz-adv-x="2050" 
d="M1192 1542h-332l80 127h426zM1024 1485q497 0 739 -191t242 -549v-16q0 -358 -242 -548.5t-739 -190.5t-738 190t-241 549v16q0 359 241.5 549.5t737.5 190.5zM1024 475q198 0 285.5 58t87.5 200v8q0 142 -87.5 200t-285.5 58t-285.5 -58t-87.5 -200v-8q0 -142 87.5 -200
t285.5 -58z" />
    <glyph glyph-name="ocircumflex" unicode="&#xf4;" horiz-adv-x="2050" 
d="M1118 1542l-92 53l-92 -53h-256l135 127h426l135 -127h-256zM1024 1485q497 0 739 -191t242 -549v-16q0 -358 -242 -548.5t-739 -190.5t-738 190t-241 549v16q0 359 241.5 549.5t737.5 190.5zM1024 475q198 0 285.5 58t87.5 200v8q0 142 -87.5 200t-285.5 58t-285.5 -58
t-87.5 -200v-8q0 -142 87.5 -200t285.5 -58z" />
    <glyph glyph-name="otilde" unicode="&#xf5;" horiz-adv-x="2050" 
d="M1360 1669q0 -71 -41 -101t-123 -30q-67 0 -136.5 20.5t-92.5 20.5t-32 -9t-9 -28h-240q0 70 42 100.5t128 30.5q71 0 140.5 -18.5t84.5 -18.5q23 0 31 7t8 26h240zM1024 1485q497 0 739 -191t242 -549v-16q0 -358 -242 -548.5t-739 -190.5t-738 190t-241 549v16
q0 359 241.5 549.5t737.5 190.5zM1024 475q198 0 285.5 58t87.5 200v8q0 142 -87.5 200t-285.5 58t-285.5 -58t-87.5 -200v-8q0 -142 87.5 -200t285.5 -58z" />
    <glyph glyph-name="odieresis" unicode="&#xf6;" horiz-adv-x="2050" 
d="M668 1528v158h303v-158h-303zM1384 1528h-303v158h303v-158zM1024 1485q497 0 739 -191t242 -549v-16q0 -358 -242 -548.5t-739 -190.5t-738 190t-241 549v16q0 359 241.5 549.5t737.5 190.5zM1024 475q198 0 285.5 58t87.5 200v8q0 142 -87.5 200t-285.5 58t-285.5 -58
t-87.5 -200v-8q0 -142 87.5 -200t285.5 -58z" />
    <glyph glyph-name="divide" unicode="&#xf7;" horiz-adv-x="1392" 
d="M850 1153h-293v317h293v-317zM1346 672h-1301v266h1301v-266zM850 139h-293v316h293v-316z" />
    <glyph glyph-name="oslash" unicode="&#xf8;" horiz-adv-x="2050" 
d="M45 0l236 186q-236 184 -236 543v16q0 359 241.5 549.5t737.5 190.5q408 0 649 -131l158 121h174l-236 -185q236 -187 236 -545v-16q0 -358 -242 -548.5t-739 -190.5q-406 0 -647 131l-158 -121h-174zM651 733q0 -119 60 -176l520 420q-76 22 -207 22q-198 0 -285.5 -58
t-87.5 -200v-8zM1024 475q198 0 285.5 58t87.5 200v8q0 116 -60 179l-520 -422q79 -23 207 -23z" />
    <glyph glyph-name="ugrave" unicode="&#xf9;" horiz-adv-x="2019" 
d="M842 1542l-174 127h426l80 -127h-332zM1356 0v721q0 -377 -144 -554t-477 -177q-352 0 -514 163.5t-162 534.5v787h605v-660q0 -154 80.5 -224.5t267.5 -70.5q58 0 105 6.5t93 24.5t77 48t50 79.5t19 116.5v680h604v-1475h-604z" />
    <glyph glyph-name="uacute" unicode="&#xfa;" horiz-adv-x="2019" 
d="M1176 1542h-332l80 127h426zM1356 0v721q0 -377 -144 -554t-477 -177q-352 0 -514 163.5t-162 534.5v787h605v-660q0 -154 80.5 -224.5t267.5 -70.5q58 0 105 6.5t93 24.5t77 48t50 79.5t19 116.5v680h604v-1475h-604z" />
    <glyph glyph-name="ucircumflex" unicode="&#xfb;" horiz-adv-x="2019" 
d="M1100 1542l-92 53l-93 -53h-256l136 127h426l135 -127h-256zM1356 0v721q0 -377 -144 -554t-477 -177q-352 0 -514 163.5t-162 534.5v787h605v-660q0 -154 80.5 -224.5t267.5 -70.5q58 0 105 6.5t93 24.5t77 48t50 79.5t19 116.5v680h604v-1475h-604z" />
    <glyph glyph-name="udieresis" unicode="&#xfc;" horiz-adv-x="2019" 
d="M649 1528v158h303v-158h-303zM1366 1528h-303v158h303v-158zM1356 0v721q0 -377 -144 -554t-477 -177q-352 0 -514 163.5t-162 534.5v787h605v-660q0 -154 80.5 -224.5t267.5 -70.5q58 0 105 6.5t93 24.5t77 48t50 79.5t19 116.5v680h604v-1475h-604z" />
    <glyph glyph-name="yacute" unicode="&#xfd;" horiz-adv-x="2064" 
d="M1217 1542h-332l80 127h426zM1532 438q-47 -92 -86.5 -157.5t-88.5 -123.5t-96 -95.5t-115 -68.5t-139 -47.5t-174.5 -28.5t-214.5 -15.5t-266 -3.5v460h326q93 0 145 24t99 85l6 8h-324l-602 1000h682l383 -715l350 715h643z" />
    <glyph glyph-name="thorn" unicode="&#xfe;" horiz-adv-x="2080" 
d="M664 940q0 122 33 218t104 171t192.5 115.5t288.5 40.5q200 0 344 -46.5t232.5 -138.5t130 -220t41.5 -300v-12q0 -172 -41.5 -300t-130 -220t-232.5 -138.5t-344 -46.5q-167 0 -288.5 40.5t-192.5 115.5t-104 171t-33 218v-710h-605v1771h605v-729zM664 690
q0 -98 96.5 -140t279.5 -42q199 0 291 59.5t92 200.5v12q0 140 -92.5 200t-290.5 60q-182 0 -279 -42.5t-97 -139.5v-168z" />
    <glyph glyph-name="ydieresis" unicode="&#xff;" horiz-adv-x="2064" 
d="M690 1528v158h303v-158h-303zM1407 1528h-303v158h303v-158zM1532 438q-47 -92 -86.5 -157.5t-88.5 -123.5t-96 -95.5t-115 -68.5t-139 -47.5t-174.5 -28.5t-214.5 -15.5t-266 -3.5v460h326q93 0 145 24t99 85l6 8h-324l-602 1000h682l383 -715l350 715h643z" />
    <glyph glyph-name="Amacron" unicode="&#x100;" horiz-adv-x="2187" 
d="M766 1739v125h655v-125h-655zM1587 0l-112 303h-766l-113 -303h-580l621 1669h909l627 -1669h-586zM848 680h487l-243 655z" />
    <glyph glyph-name="amacron" unicode="&#x101;" horiz-adv-x="1980" 
d="M692 1544v125h656v-125h-656zM709 907v-10h-617v16q0 281 230.5 426.5t678.5 145.5q481 0 700.5 -137.5t219.5 -444.5v-903h-604v403q0 -68 -20 -128t-65.5 -113t-114 -90.5t-172.5 -59.5t-234 -22q-345 0 -516.5 91.5t-171.5 293.5v22q0 68 21 124t57 97.5t91.5 75
t116.5 56t141.5 41t157 29.5t172 22t177.5 18.5t182 18.5t178 22v10q0 72 -72 106t-244 34q-161 0 -226.5 -34.5t-65.5 -109.5zM627 395q0 -56 56.5 -82t190.5 -26q97 0 169.5 7.5t138 27t100.5 58.5t35 97v103q-400 -39 -513 -62q-153 -31 -173 -88q-4 -10 -4 -22v-13z" />
    <glyph glyph-name="Abreve" unicode="&#x102;" horiz-adv-x="2187" 
d="M1094 1823q72 0 75 41h256q-4 -44 -30.5 -71t-99.5 -43.5t-201 -16.5q-129 0 -202.5 16.5t-100 43t-33.5 71.5h258q0 -41 78 -41zM1587 0l-112 303h-766l-113 -303h-580l621 1669h909l627 -1669h-586zM848 680h487l-243 655z" />
    <glyph glyph-name="abreve" unicode="&#x103;" horiz-adv-x="1980" 
d="M1018 1628q73 0 76 41h256q-4 -44 -30.5 -71t-100 -43.5t-201.5 -16.5q-129 0 -202.5 16.5t-100 43t-33.5 71.5h258q0 -41 78 -41zM709 907v-10h-617v16q0 281 230.5 426.5t678.5 145.5q481 0 700.5 -137.5t219.5 -444.5v-903h-604v403q0 -68 -20 -128t-65.5 -113
t-114 -90.5t-172.5 -59.5t-234 -22q-345 0 -516.5 91.5t-171.5 293.5v22q0 68 21 124t57 97.5t91.5 75t116.5 56t141.5 41t157 29.5t172 22t177.5 18.5t182 18.5t178 22v10q0 72 -72 106t-244 34q-161 0 -226.5 -34.5t-65.5 -109.5zM627 395q0 -56 56.5 -82t190.5 -26
q97 0 169.5 7.5t138 27t100.5 58.5t35 97v103q-400 -39 -513 -62q-153 -31 -173 -88q-4 -10 -4 -22v-13z" />
    <glyph glyph-name="Aogonek" unicode="&#x104;" horiz-adv-x="2187" 
d="M1587 0l-112 303h-766l-113 -303h-580l621 1669h909l627 -1669h-182q-110 -65 -132 -82.5t-22 -38.5q0 -24 25 -24q14 0 19 8t5 26v9h295v-4q0 -48 -81 -73.5t-275 -25.5q-71 0 -117 1t-85.5 4t-61.5 8t-37.5 14t-21 20.5t-5.5 28.5q0 43 61.5 69t225.5 60h-197zM848 680
h487l-243 655z" />
    <glyph glyph-name="aogonek" unicode="&#x105;" horiz-adv-x="1980" 
d="M709 907v-10h-617v16q0 281 230.5 426.5t678.5 145.5q481 0 700.5 -137.5t219.5 -444.5v-903h-176q-110 -65 -132 -82.5t-22 -38.5q0 -24 25 -24q14 0 19 8t5 26v9h295v-4q0 -48 -81 -73.5t-275 -25.5q-71 0 -117 1t-85.5 4t-61.5 8t-37.5 14t-21 20.5t-5.5 28.5
q0 43 61.5 69t225.5 60h-221v403q0 -68 -20 -128t-65.5 -113t-114 -90.5t-172.5 -59.5t-234 -22q-345 0 -516.5 91.5t-171.5 293.5v22q0 68 21 124t57 97.5t91.5 75t116.5 56t141.5 41t157 29.5t172 22t177.5 18.5t182 18.5t178 22v10q0 72 -72 106t-244 34
q-161 0 -226.5 -34.5t-65.5 -109.5zM627 395q0 -56 56.5 -82t190.5 -26q97 0 169.5 7.5t138 27t100.5 58.5t35 97v103q-400 -39 -513 -62q-153 -31 -173 -88q-4 -10 -4 -22v-13z" />
    <glyph glyph-name="Cacute" unicode="&#x106;" horiz-adv-x="2256" 
d="M1298 1737h-331l80 127h426zM1612 786h608v-14q0 -379 -272 -580.5t-815 -201.5q-553 0 -824.5 208.5t-271.5 592.5v88q0 189 65.5 335.5t198.5 251t342.5 159t489.5 54.5q541 0 814 -201.5t273 -580.5v-12h-608v8q0 133 -122.5 201.5t-365.5 68.5q-261 0 -370 -76.5
t-109 -240.5v-23q0 -164 109 -240.5t370 -76.5q488 0 488 272v8z" />
    <glyph glyph-name="cacute" unicode="&#x107;" horiz-adv-x="2064" 
d="M1200 1542h-332l80 127h426zM1411 688h608v-35q0 -663 -987 -663t-987 741v12q0 742 987 742t987 -664v-35h-608v7q0 106 -90 156t-285 50q-203 0 -294 -56.5t-91 -197.5v-16q0 -141 91 -197.5t294 -56.5q195 0 285 50.5t90 156.5v6z" />
    <glyph glyph-name="Ccircumflex" unicode="&#x108;" horiz-adv-x="2256" 
d="M1223 1737l-93 53l-92 -53h-256l136 127h425l136 -127h-256zM1612 786h608v-14q0 -379 -272 -580.5t-815 -201.5q-553 0 -824.5 208.5t-271.5 592.5v88q0 189 65.5 335.5t198.5 251t342.5 159t489.5 54.5q541 0 814 -201.5t273 -580.5v-12h-608v8q0 133 -122.5 201.5
t-365.5 68.5q-261 0 -370 -76.5t-109 -240.5v-23q0 -164 109 -240.5t370 -76.5q488 0 488 272v8z" />
    <glyph glyph-name="ccircumflex" unicode="&#x109;" horiz-adv-x="2064" 
d="M1124 1542l-92 53l-92 -53h-256l135 127h426l135 -127h-256zM1411 688h608v-35q0 -663 -987 -663t-987 741v12q0 742 987 742t987 -664v-35h-608v7q0 106 -90 156t-285 50q-203 0 -294 -56.5t-91 -197.5v-16q0 -141 91 -197.5t294 -56.5q195 0 285 50.5t90 156.5v6z" />
    <glyph glyph-name="Cdotaccent" unicode="&#x10a;" horiz-adv-x="2256" 
d="M1130 1714q-88 0 -122.5 20t-34.5 66t34.5 66t122.5 20t123 -20t35 -66t-35 -66t-123 -20zM1612 786h608v-14q0 -379 -272 -580.5t-815 -201.5q-553 0 -824.5 208.5t-271.5 592.5v88q0 189 65.5 335.5t198.5 251t342.5 159t489.5 54.5q541 0 814 -201.5t273 -580.5v-12
h-608v8q0 133 -122.5 201.5t-365.5 68.5q-261 0 -370 -76.5t-109 -240.5v-23q0 -164 109 -240.5t370 -76.5q488 0 488 272v8z" />
    <glyph glyph-name="cdotaccent" unicode="&#x10b;" horiz-adv-x="2064" 
d="M1032 1520q-88 0 -123 20t-35 66t35 66t123 20t123 -20t35 -66t-35 -66t-123 -20zM1411 688h608v-35q0 -663 -987 -663t-987 741v12q0 742 987 742t987 -664v-35h-608v7q0 106 -90 156t-285 50q-203 0 -294 -56.5t-91 -197.5v-16q0 -141 91 -197.5t294 -56.5
q195 0 285 50.5t90 156.5v6z" />
    <glyph glyph-name="Ccaron" unicode="&#x10c;" horiz-adv-x="2256" 
d="M1200 1864h258l-115 -127h-425l-115 127h258l69 -52zM1612 786h608v-14q0 -379 -272 -580.5t-815 -201.5q-553 0 -824.5 208.5t-271.5 592.5v88q0 189 65.5 335.5t198.5 251t342.5 159t489.5 54.5q541 0 814 -201.5t273 -580.5v-12h-608v8q0 133 -122.5 201.5
t-365.5 68.5q-261 0 -370 -76.5t-109 -240.5v-23q0 -164 109 -240.5t370 -76.5q488 0 488 272v8z" />
    <glyph glyph-name="ccaron" unicode="&#x10d;" horiz-adv-x="2064" 
d="M1102 1669h258l-115 -127h-426l-114 127h258l69 -51zM1411 688h608v-35q0 -663 -987 -663t-987 741v12q0 742 987 742t987 -664v-35h-608v7q0 106 -90 156t-285 50q-203 0 -294 -56.5t-91 -197.5v-16q0 -141 91 -197.5t294 -56.5q195 0 285 50.5t90 156.5v6z" />
    <glyph glyph-name="Dcaron" unicode="&#x10e;" horiz-adv-x="2170" 
d="M1165 1864h258l-114 -127h-426l-115 127h258l70 -52zM59 0v1669h981q298 0 508 -50t340 -154t189 -252.5t59 -354.5v-65q0 -201 -59 -346.5t-189 -246.5t-340 -150.5t-508 -49.5h-981zM1069 1163h-405v-663h405q237 0 346 68.5t109 242.5v23q0 96 -27.5 160t-87 101
t-141 52.5t-199.5 15.5z" />
    <glyph glyph-name="dcaron" unicode="&#x10f;" horiz-adv-x="2080" 
d="M1417 913v756h606v-1669h-606v561q0 -128 -32.5 -228.5t-103 -179t-192 -121t-288.5 -42.5q-200 0 -344 48.5t-232.5 145t-130 231t-41.5 314.5v16q0 180 41.5 315t130 231t232.5 145t344 49q134 0 239 -28.5t175.5 -78.5t116 -122.5t65.5 -157t20 -185.5zM2269 1505
h-205v164h289zM1417 829q0 103 -97 148t-278 45q-199 0 -291 -64t-92 -213v-16q0 -149 92 -212.5t291 -63.5q182 0 278.5 44.5t96.5 147.5v184z" />
    <glyph glyph-name="Dcroat" unicode="&#x110;" horiz-adv-x="2170" 
d="M59 0v1669h981q298 0 508 -50t340 -154t189 -252.5t59 -354.5v-65q0 -201 -59 -346.5t-189 -246.5t-340 -150.5t-508 -49.5h-981zM1040 707h-376v-207h405q237 0 346 68.5t109 242.5v23q0 96 -27.5 160t-87 101t-141 52.5t-199.5 15.5h-405v-202h376v-254z" />
    <glyph glyph-name="dcroat" unicode="&#x111;" horiz-adv-x="2080" 
d="M1417 913v535h-287v182h287v39h606v-1669h-606v561q0 -128 -32.5 -228.5t-103 -179t-192 -121t-288.5 -42.5q-200 0 -344 48.5t-232.5 145t-130 231t-41.5 314.5v16q0 180 41.5 315t130 231t232.5 145t344 49q134 0 239 -28.5t175.5 -78.5t116 -122.5t65.5 -157
t20 -185.5zM1417 829q0 103 -97 148t-278 45q-199 0 -291 -64t-92 -213v-16q0 -149 92 -212.5t291 -63.5q182 0 278.5 44.5t96.5 147.5v184z" />
    <glyph glyph-name="Emacron" unicode="&#x112;" horiz-adv-x="1744" 
d="M541 1739v125h655v-125h-655zM1702 455v-455h-1643v1669h1643v-457h-1038v-151h960v-426h-960v-180h1038z" />
    <glyph glyph-name="emacron" unicode="&#x113;" horiz-adv-x="2064" 
d="M705 1544v125h655v-125h-655zM2021 647h-1366q15 -133 112.5 -192.5t279.5 -59.5q176 0 266 42t90 122v2h618v-10q0 -121 -61.5 -222.5t-181.5 -177.5t-310.5 -118.5t-435.5 -42.5q-987 0 -987 723v20q0 752 993 752q480 0 731.5 -185.5t251.5 -525.5v-127zM1034 1104
q-167 0 -257.5 -50t-114.5 -161h753q-13 211 -381 211z" />
    <glyph glyph-name="Ebreve" unicode="&#x114;" horiz-adv-x="1744" 
d="M868 1823q73 0 76 41h256q-4 -44 -30.5 -71t-100 -43.5t-201.5 -16.5q-129 0 -202.5 16.5t-100 43t-33.5 71.5h259q0 -41 77 -41zM1702 455v-455h-1643v1669h1643v-457h-1038v-151h960v-426h-960v-180h1038z" />
    <glyph glyph-name="ebreve" unicode="&#x115;" horiz-adv-x="2064" 
d="M1032 1628q73 0 76 41h256q-4 -44 -30.5 -71t-100 -43.5t-201.5 -16.5q-129 0 -202.5 16.5t-100 43t-33.5 71.5h258q0 -41 78 -41zM2021 647h-1366q15 -133 112.5 -192.5t279.5 -59.5q176 0 266 42t90 122v2h618v-10q0 -121 -61.5 -222.5t-181.5 -177.5t-310.5 -118.5
t-435.5 -42.5q-987 0 -987 723v20q0 752 993 752q480 0 731.5 -185.5t251.5 -525.5v-127zM1034 1104q-167 0 -257.5 -50t-114.5 -161h753q-13 211 -381 211z" />
    <glyph glyph-name="Edotaccent" unicode="&#x116;" horiz-adv-x="1744" 
d="M868 1714q-88 0 -122.5 20t-34.5 66t34.5 66t122.5 20t123 -20t35 -66t-35 -66t-123 -20zM1702 455v-455h-1643v1669h1643v-457h-1038v-151h960v-426h-960v-180h1038z" />
    <glyph glyph-name="edotaccent" unicode="&#x117;" horiz-adv-x="2064" 
d="M1032 1520q-88 0 -123 20t-35 66t35 66t123 20t123 -20t35 -66t-35 -66t-123 -20zM2021 647h-1366q15 -133 112.5 -192.5t279.5 -59.5q176 0 266 42t90 122v2h618v-10q0 -121 -61.5 -222.5t-181.5 -177.5t-310.5 -118.5t-435.5 -42.5q-987 0 -987 723v20q0 752 993 752
q480 0 731.5 -185.5t251.5 -525.5v-127zM1034 1104q-167 0 -257.5 -50t-114.5 -161h753q-13 211 -381 211z" />
    <glyph glyph-name="Eogonek" unicode="&#x118;" horiz-adv-x="1744" 
d="M1485 0q-108 -64 -131 -82.5t-23 -40.5t25 -22q14 0 19 8t5 26v9h295v-4q0 -49 -80 -74t-276 -25q-104 0 -164 3t-99 11.5t-52 22t-13 37.5q0 44 60 69.5t227 61.5h-1219v1669h1643v-457h-1038v-151h960v-426h-960v-180h1038v-455h-217z" />
    <glyph glyph-name="eogonek" unicode="&#x119;" horiz-adv-x="2064" 
d="M2021 537q0 -72 -19 -132.5t-49.5 -103t-67 -79.5t-73 -70.5t-67 -68t-49.5 -80.5t-19 -99q0 -26 5.5 -35.5t19.5 -9.5q15 0 19.5 10.5t4.5 48.5v25h295v-9q0 -82 -71 -110.5t-273 -28.5q-89 0 -143.5 2t-97 7t-62.5 16t-29.5 26.5t-9.5 40.5q0 24 13.5 44.5t43.5 39.5
t59 33.5t79 38t84 41.5q-267 -94 -582 -94q-987 0 -987 723v20q0 752 993 752q480 0 731.5 -185.5t251.5 -525.5v-127h-1366q15 -133 112.5 -192.5t279.5 -59.5q176 0 266 42t90 122v2h618v-24zM1034 1104q-167 0 -257.5 -50t-114.5 -161h753q-13 211 -381 211z" />
    <glyph glyph-name="Ecaron" unicode="&#x11a;" horiz-adv-x="1744" 
d="M938 1864h258l-115 -127h-426l-114 127h258l69 -52zM1702 455v-455h-1643v1669h1643v-457h-1038v-151h960v-426h-960v-180h1038z" />
    <glyph glyph-name="ecaron" unicode="&#x11b;" horiz-adv-x="2064" 
d="M1102 1669h258l-115 -127h-426l-114 127h258l69 -51zM2021 647h-1366q15 -133 112.5 -192.5t279.5 -59.5q176 0 266 42t90 122v2h618v-10q0 -121 -61.5 -222.5t-181.5 -177.5t-310.5 -118.5t-435.5 -42.5q-987 0 -987 723v20q0 752 993 752q480 0 731.5 -185.5
t251.5 -525.5v-127zM1034 1104q-167 0 -257.5 -50t-114.5 -161h753q-13 211 -381 211z" />
    <glyph glyph-name="Gcircumflex" unicode="&#x11c;" horiz-adv-x="2271" 
d="M1223 1737l-93 53l-92 -53h-256l136 127h425l136 -127h-256zM1094 -10q-552 0 -804.5 202.5t-252.5 626.5v51q0 388 270.5 598.5t822.5 210.5q268 0 476.5 -50.5t342 -142t202.5 -218t69 -281.5v-6h-600v6q0 98 -134 159.5t-362 61.5q-255 0 -367 -90t-112 -293v-20
q0 -188 112.5 -275.5t366.5 -87.5q200 0 331 36t194 134h-521v297h1092v-909h-311l-62 295q-60 -120 -263.5 -212.5t-489.5 -92.5z" />
    <glyph glyph-name="gcircumflex" unicode="&#x11d;" horiz-adv-x="2082" 
d="M1128 1542l-92 53l-92 -53h-256l135 127h426l135 -127h-256zM1417 1475h606v-1063q0 -272 -237 -398.5t-758 -126.5q-907 0 -907 377v23h563v-6q0 -79 79.5 -108.5t270.5 -29.5q206 0 294.5 46t88.5 157v447q0 -81 -20 -149t-66 -127.5t-116 -100.5t-175.5 -64.5
t-238.5 -23.5q-393 0 -571.5 141t-178.5 424v22q0 285 178.5 427.5t571.5 142.5q166 0 287.5 -35t192 -99.5t103.5 -146t33 -182.5v453zM1417 954q0 88 -97.5 126t-279.5 38q-199 0 -291 -47.5t-92 -159.5v-14q0 -109 92 -157t291 -48q377 0 377 168v94z" />
    <glyph glyph-name="Gbreve" unicode="&#x11e;" horiz-adv-x="2271" 
d="M1130 1823q73 0 76 41h256q-4 -44 -30.5 -71t-100 -43.5t-201.5 -16.5q-129 0 -202.5 16.5t-99.5 43t-33 71.5h258q0 -41 77 -41zM1094 -10q-552 0 -804.5 202.5t-252.5 626.5v51q0 388 270.5 598.5t822.5 210.5q268 0 476.5 -50.5t342 -142t202.5 -218t69 -281.5v-6
h-600v6q0 98 -134 159.5t-362 61.5q-255 0 -367 -90t-112 -293v-20q0 -188 112.5 -275.5t366.5 -87.5q200 0 331 36t194 134h-521v297h1092v-909h-311l-62 295q-60 -120 -263.5 -212.5t-489.5 -92.5z" />
    <glyph glyph-name="gbreve" unicode="&#x11f;" horiz-adv-x="2082" 
d="M1036 1628q73 0 76 41h256q-4 -44 -30.5 -71t-100 -43.5t-201.5 -16.5q-129 0 -202.5 16.5t-100 43t-33.5 71.5h258q0 -41 78 -41zM1417 1475h606v-1063q0 -272 -237 -398.5t-758 -126.5q-907 0 -907 377v23h563v-6q0 -79 79.5 -108.5t270.5 -29.5q206 0 294.5 46
t88.5 157v447q0 -81 -20 -149t-66 -127.5t-116 -100.5t-175.5 -64.5t-238.5 -23.5q-393 0 -571.5 141t-178.5 424v22q0 285 178.5 427.5t571.5 142.5q166 0 287.5 -35t192 -99.5t103.5 -146t33 -182.5v453zM1417 954q0 88 -97.5 126t-279.5 38q-199 0 -291 -47.5t-92 -159.5
v-14q0 -109 92 -157t291 -48q377 0 377 168v94z" />
    <glyph glyph-name="Gdotaccent" unicode="&#x120;" horiz-adv-x="2271" 
d="M1130 1714q-88 0 -122.5 20t-34.5 66t34.5 66t122.5 20t123 -20t35 -66t-35 -66t-123 -20zM1094 -10q-552 0 -804.5 202.5t-252.5 626.5v51q0 388 270.5 598.5t822.5 210.5q268 0 476.5 -50.5t342 -142t202.5 -218t69 -281.5v-6h-600v6q0 98 -134 159.5t-362 61.5
q-255 0 -367 -90t-112 -293v-20q0 -188 112.5 -275.5t366.5 -87.5q200 0 331 36t194 134h-521v297h1092v-909h-311l-62 295q-60 -120 -263.5 -212.5t-489.5 -92.5z" />
    <glyph glyph-name="gdotaccent" unicode="&#x121;" horiz-adv-x="2082" 
d="M1036 1520q-88 0 -122.5 20t-34.5 66t34.5 66t122.5 20t123 -20t35 -66t-35 -66t-123 -20zM1417 1475h606v-1063q0 -272 -237 -398.5t-758 -126.5q-907 0 -907 377v23h563v-6q0 -79 79.5 -108.5t270.5 -29.5q206 0 294.5 46t88.5 157v447q0 -81 -20 -149t-66 -127.5
t-116 -100.5t-175.5 -64.5t-238.5 -23.5q-393 0 -571.5 141t-178.5 424v22q0 285 178.5 427.5t571.5 142.5q166 0 287.5 -35t192 -99.5t103.5 -146t33 -182.5v453zM1417 954q0 88 -97.5 126t-279.5 38q-199 0 -291 -47.5t-92 -159.5v-14q0 -109 92 -157t291 -48
q377 0 377 168v94z" />
    <glyph glyph-name="Gcommaaccent" unicode="&#x122;" horiz-adv-x="2271" 
d="M1094 -10q-552 0 -804.5 202.5t-252.5 626.5v51q0 388 270.5 598.5t822.5 210.5q268 0 476.5 -50.5t342 -142t202.5 -218t69 -281.5v-6h-600v6q0 98 -134 159.5t-362 61.5q-255 0 -367 -90t-112 -293v-20q0 -188 112.5 -275.5t366.5 -87.5q200 0 331 36t194 134h-521v297
h1092v-909h-311l-62 295q-60 -120 -263.5 -212.5t-489.5 -92.5zM1214 -205h-282l168 55h-178v113h440v-115z" />
    <glyph glyph-name="gcommaaccent" unicode="&#x123;" horiz-adv-x="2082" 
d="M999 1688h279l-215 -62h209v-106h-443v108zM1417 1475h606v-1063q0 -272 -237 -398.5t-758 -126.5q-907 0 -907 377v23h563v-6q0 -79 79.5 -108.5t270.5 -29.5q206 0 294.5 46t88.5 157v447q0 -81 -20 -149t-66 -127.5t-116 -100.5t-175.5 -64.5t-238.5 -23.5
q-393 0 -571.5 141t-178.5 424v22q0 285 178.5 427.5t571.5 142.5q166 0 287.5 -35t192 -99.5t103.5 -146t33 -182.5v453zM1417 954q0 88 -97.5 126t-279.5 38q-199 0 -291 -47.5t-92 -159.5v-14q0 -109 92 -157t291 -48q377 0 377 168v94z" />
    <glyph glyph-name="Hcircumflex" unicode="&#x124;" horiz-adv-x="2152" 
d="M1167 1737l-92 53l-92 -53h-256l135 127h426l135 -127h-256zM1487 0v604h-823v-604h-605v1669h605v-553h823v553h606v-1669h-606z" />
    <glyph glyph-name="hcircumflex" unicode="&#x125;" horiz-adv-x="2019" 
d="M1130 1737l-92 53l-92 -53h-256l135 127h426l135 -127h-256zM664 1669v-915q0 188 33.5 322.5t106.5 227t192 137t288 44.5q352 0 514 -164t162 -535v-786h-604v659q0 154 -80.5 224.5t-267.5 70.5q-163 0 -253.5 -63t-90.5 -211v-680h-605v1669h605z" />
    <glyph glyph-name="Hbar" unicode="&#x126;" horiz-adv-x="2152" 
d="M1487 0v604h-823v-604h-605v1270h-61v254h61v145h605v-145h823v145h606v-145h61v-254h-61v-1270h-606zM664 1116h823v154h-823v-154z" />
    <glyph glyph-name="hbar" unicode="&#x127;" horiz-adv-x="2019" 
d="M664 1669v-39h276v-182h-276v-694q0 188 33.5 322.5t106.5 227t192 137t288 44.5q352 0 514 -164t162 -535v-786h-604v659q0 154 -80.5 224.5t-267.5 70.5q-163 0 -253.5 -63t-90.5 -211v-680h-605v1669h605z" />
    <glyph glyph-name="Itilde" unicode="&#x128;" 
d="M698 1864q0 -71 -40.5 -101t-122.5 -30q-67 0 -137 20.5t-93 20.5t-32 -9t-9 -28h-239q0 70 42 100.5t128 30.5q71 0 140.5 -18.5t84.5 -18.5q23 0 31 7t8 26h239zM59 0v1669h605v-1669h-605z" />
    <glyph glyph-name="itilde" unicode="&#x129;" 
d="M696 1669q0 -71 -41 -101t-123 -30q-67 0 -136.5 20.5t-92.5 20.5t-32 -9t-9 -28h-239q0 70 42 100.5t128 30.5q71 0 140.5 -18.5t84.5 -18.5q23 0 31 7t8 26h239zM59 0v1475h605v-1475h-605z" />
    <glyph glyph-name="Imacron" unicode="&#x12a;" 
d="M35 1739v125h655v-125h-655zM59 0v1669h605v-1669h-605z" />
    <glyph glyph-name="imacron" unicode="&#x12b;" 
d="M33 1544v125h655v-125h-655zM59 0v1475h605v-1475h-605z" />
    <glyph glyph-name="Ibreve" unicode="&#x12c;" 
d="M362 1823q73 0 76 41h256q-4 -44 -30.5 -71t-100 -43.5t-201.5 -16.5q-129 0 -202.5 16.5t-99.5 43t-33 71.5h258q0 -41 77 -41zM59 0v1669h605v-1669h-605z" />
    <glyph glyph-name="ibreve" unicode="&#x12d;" 
d="M360 1628q73 0 76 41h256q-4 -44 -30.5 -71t-100 -43.5t-201.5 -16.5q-129 0 -202.5 16.5t-99.5 43t-33 71.5h258q0 -41 77 -41zM59 0v1475h605v-1475h-605z" />
    <glyph glyph-name="Iogonek" unicode="&#x12e;" 
d="M59 0v1669h605v-1669h-148q-108 -64 -131 -82.5t-23 -40.5t23 -22q27 0 27 34v9h295v-4q0 -49 -81 -74t-278 -25q-103 0 -163 3t-99 11.5t-52.5 22t-13.5 37.5q0 43 60.5 69t226.5 62h-248z" />
    <glyph glyph-name="iogonek" unicode="&#x12f;" 
d="M59 1532v186h605v-186h-605zM59 0v1475h605v-1475h-148q-108 -64 -131 -82.5t-23 -40.5t23 -22q27 0 27 34v9h295v-4q0 -49 -81 -74t-278 -25q-103 0 -163 3t-99 11.5t-52.5 22t-13.5 37.5q0 43 60.5 69t226.5 62h-248z" />
    <glyph glyph-name="Idotaccent" unicode="&#x130;" 
d="M362 1714q-88 0 -122.5 20t-34.5 66t34.5 66t122.5 20t123 -20t35 -66t-35 -66t-123 -20zM59 0v1669h605v-1669h-605z" />
    <glyph glyph-name="dotlessi" unicode="&#x131;" 
d="M59 0v1475h605v-1475h-605z" />
    <glyph glyph-name="IJ" unicode="&#x132;" horiz-adv-x="1968" 
d="M59 0v1669h605v-1669h-605zM748 0v528h170q195 0 291 111t96 340v690h604v-776q0 -239 -54.5 -410.5t-164 -277.5t-267 -155.5t-372.5 -49.5h-303z" />
    <glyph glyph-name="ij" unicode="&#x133;" horiz-adv-x="1519" 
d="M59 1532v186h605v-186h-605zM854 1532v186h604v-186h-604zM59 0v1475h605v-1475h-605zM1458 354q0 -225 -122.5 -340.5t-350.5 -115.5h-237v485h20q86 0 86 92v1000h604v-1121z" />
    <glyph glyph-name="Jcircumflex" unicode="&#x134;" horiz-adv-x="1245" 
d="M975 1737l-92 53l-92 -53h-256l135 127h426l135 -127h-256zM23 0v528h170q195 0 291 111t96 340v690h604v-776q0 -239 -54.5 -410.5t-164 -277.5t-267 -155.5t-372.5 -49.5h-303z" />
    <glyph glyph-name="jcircumflex" unicode="&#x135;" horiz-adv-x="794" 
d="M524 1542l-92 53l-92 -53h-256l135 127h426l135 -127h-256zM733 354q0 -225 -122.5 -340.5t-350.5 -115.5h-237v485h20q86 0 86 92v1000h604v-1121z" />
    <glyph glyph-name="Kcommaaccent" unicode="&#x136;" horiz-adv-x="2220" 
d="M59 0v1669h605v-661l774 661h747l-948 -801l969 -868h-785l-757 674v-674h-605zM1053 -205h-283l168 55h-178v113h440v-115z" />
    <glyph glyph-name="kcommaaccent" unicode="&#x137;" horiz-adv-x="2052" 
d="M59 0v1669h605v-907l610 713h766l-690 -736l702 -739h-774l-614 700v-700h-605zM1030 -205h-282l167 55h-178v113h441v-115z" />
    <glyph glyph-name="Lacute" unicode="&#x139;" horiz-adv-x="1728" 
d="M539 1737h-332l80 127h426zM59 0v1669h605v-1124h1040v-545h-1645z" />
    <glyph glyph-name="lacute" unicode="&#x13a;" 
d="M535 1737h-332l80 127h426zM59 0v1669h605v-1669h-605z" />
    <glyph glyph-name="Lcommaaccent" unicode="&#x13b;" horiz-adv-x="1728" 
d="M59 0v1669h605v-1124h1040v-545h-1645zM967 -205h-283l168 55h-178v113h440v-115z" />
    <glyph glyph-name="lcommaaccent" unicode="&#x13c;" 
d="M59 0v1669h605v-1669h-605zM446 -205h-282l168 55h-178v113h440v-115z" />
    <glyph glyph-name="Lcaron" unicode="&#x13d;" horiz-adv-x="1728" 
d="M59 0v1669h605v-1124h1040v-545h-1645zM936 1505h-205v164h289z" />
    <glyph glyph-name="lcaron" unicode="&#x13e;" 
d="M59 0v1669h605v-1669h-605zM911 1505h-204v164h288z" />
    <glyph glyph-name="Ldot" unicode="&#x13f;" horiz-adv-x="1728" 
d="M59 0v1669h605v-1124h1040v-545h-1645zM1217 995q-88 0 -123 20t-35 66t35 66t123 20t122.5 -20t34.5 -66t-34.5 -66t-122.5 -20z" />
    <glyph glyph-name="ldot" unicode="&#x140;" 
d="M59 0v1669h605v-1669h-605zM858 733q-88 0 -123 20t-35 66t35 66t123 20t123 -20t35 -66t-35 -66t-123 -20z" />
    <glyph glyph-name="Lslash" unicode="&#x141;" horiz-adv-x="1728" 
d="M59 0v1669h605v-504l454 117v-223l-454 -117v-397h1040v-545h-1645z" />
    <glyph glyph-name="lslash" unicode="&#x142;" 
d="M59 0v1028l-71 -24v178l71 24v463h605v-289l79 25v-174l-79 -25v-1206h-605z" />
    <glyph glyph-name="Nacute" unicode="&#x143;" horiz-adv-x="2154" 
d="M1257 1737h-331l80 127h426zM1552 0l-929 899v-899h-564v1669h551l922 -874v874h561v-1669h-541z" />
    <glyph glyph-name="nacute" unicode="&#x144;" horiz-adv-x="2019" 
d="M1178 1542h-332l80 127h426zM664 1475v-721q0 188 33.5 322.5t106.5 227t192 137t288 44.5q352 0 514 -164t162 -535v-786h-604v659q0 154 -80.5 224.5t-267.5 70.5q-163 0 -253.5 -63t-90.5 -211v-680h-605v1475h605z" />
    <glyph glyph-name="Ncommaaccent" unicode="&#x145;" horiz-adv-x="2154" 
d="M1552 0l-929 899v-899h-564v1669h551l922 -874v874h561v-1669h-541zM1163 -205h-282l168 55h-179v113h441v-115z" />
    <glyph glyph-name="ncommaaccent" unicode="&#x146;" horiz-adv-x="2019" 
d="M664 1475v-721q0 188 33.5 322.5t106.5 227t192 137t288 44.5q352 0 514 -164t162 -535v-786h-604v659q0 154 -80.5 224.5t-267.5 70.5q-163 0 -253.5 -63t-90.5 -211v-680h-605v1475h605zM1094 -205h-283l168 55h-178v113h440v-115z" />
    <glyph glyph-name="Ncaron" unicode="&#x147;" horiz-adv-x="2154" 
d="M1159 1864h258l-114 -127h-426l-115 127h258l70 -52zM1552 0l-929 899v-899h-564v1669h551l922 -874v874h561v-1669h-541z" />
    <glyph glyph-name="ncaron" unicode="&#x148;" horiz-adv-x="2019" 
d="M1079 1669h258l-114 -127h-426l-115 127h258l70 -51zM664 1475v-721q0 188 33.5 322.5t106.5 227t192 137t288 44.5q352 0 514 -164t162 -535v-786h-604v659q0 154 -80.5 224.5t-267.5 70.5q-163 0 -253.5 -63t-90.5 -211v-680h-605v1475h605z" />
    <glyph glyph-name="Eng" unicode="&#x14a;" horiz-adv-x="2154" 
d="M2093 438q0 -287 -161 -413.5t-488 -126.5h-334v438h295q135 0 135 78v8l-917 602v-1024h-564v1669h551l922 -618v618h561v-1231z" />
    <glyph glyph-name="eng" unicode="&#x14b;" horiz-adv-x="2019" 
d="M999 -113v490h33q166 0 245 47t79 158v143q0 118 -80.5 173.5t-267.5 55.5q-74 0 -130.5 -11t-107.5 -39.5t-78.5 -85t-27.5 -138.5v-680h-605v1475h605v-721q0 188 33.5 322.5t106.5 227t192 137t288 44.5q352 0 514 -164t162 -535v-299q0 -600 -727 -600h-234z" />
    <glyph glyph-name="Omacron" unicode="&#x14c;" horiz-adv-x="2252" 
d="M805 1739v125h655v-125h-655zM2216 795q0 -805 -1086 -805q-1093 0 -1093 805v79q0 805 1093 805q1086 0 1086 -805v-79zM1610 842q0 174 -111 247.5t-373 73.5q-261 0 -371 -73t-110 -248v-15q0 -175 110 -248t371 -73q262 0 373 73.5t111 247.5v15z" />
    <glyph glyph-name="omacron" unicode="&#x14d;" horiz-adv-x="2050" 
d="M698 1544v125h656v-125h-656zM1024 1485q497 0 739 -191t242 -549v-16q0 -358 -242 -548.5t-739 -190.5t-738 190t-241 549v16q0 359 241.5 549.5t737.5 190.5zM1024 475q198 0 285.5 58t87.5 200v8q0 142 -87.5 200t-285.5 58t-285.5 -58t-87.5 -200v-8
q0 -142 87.5 -200t285.5 -58z" />
    <glyph glyph-name="Obreve" unicode="&#x14e;" horiz-adv-x="2252" 
d="M1130 1823q73 0 76 41h256q-4 -44 -30.5 -71t-100 -43.5t-201.5 -16.5q-129 0 -202.5 16.5t-99.5 43t-33 71.5h258q0 -41 77 -41zM2216 795q0 -805 -1086 -805q-1093 0 -1093 805v79q0 805 1093 805q1086 0 1086 -805v-79zM1610 842q0 174 -111 247.5t-373 73.5
q-261 0 -371 -73t-110 -248v-15q0 -175 110 -248t371 -73q262 0 373 73.5t111 247.5v15z" />
    <glyph glyph-name="obreve" unicode="&#x14f;" horiz-adv-x="2050" 
d="M1024 1628q73 0 76 41h256q-4 -44 -30.5 -71t-100 -43.5t-201.5 -16.5q-129 0 -202.5 16.5t-100 43t-33.5 71.5h258q0 -41 78 -41zM1024 1485q497 0 739 -191t242 -549v-16q0 -358 -242 -548.5t-739 -190.5t-738 190t-241 549v16q0 359 241.5 549.5t737.5 190.5z
M1024 475q198 0 285.5 58t87.5 200v8q0 142 -87.5 200t-285.5 58t-285.5 -58t-87.5 -200v-8q0 -142 87.5 -200t285.5 -58z" />
    <glyph glyph-name="Ohungarumlaut" unicode="&#x150;" horiz-adv-x="2252" 
d="M1069 1737h-276l120 127h322zM1436 1737h-279l123 127h319zM2216 795q0 -805 -1086 -805q-1093 0 -1093 805v79q0 805 1093 805q1086 0 1086 -805v-79zM1610 842q0 174 -111 247.5t-373 73.5q-261 0 -371 -73t-110 -248v-15q0 -175 110 -248t371 -73q262 0 373 73.5
t111 247.5v15z" />
    <glyph glyph-name="ohungarumlaut" unicode="&#x151;" horiz-adv-x="2050" 
d="M963 1542h-277l121 127h321zM1329 1542h-278l123 127h319zM1024 1485q497 0 739 -191t242 -549v-16q0 -358 -242 -548.5t-739 -190.5t-738 190t-241 549v16q0 359 241.5 549.5t737.5 190.5zM1024 475q198 0 285.5 58t87.5 200v8q0 142 -87.5 200t-285.5 58t-285.5 -58
t-87.5 -200v-8q0 -142 87.5 -200t285.5 -58z" />
    <glyph glyph-name="OE" unicode="&#x152;" horiz-adv-x="3182" 
d="M1130 0q-297 0 -506.5 50t-339 154t-188.5 252.5t-59 354.5v66q0 161 37 285t118 221t209 159.5t309.5 94.5t419.5 32h1993v-457h-1026v-151h948v-426h-948v-180h1026v-455h-1993zM1104 504h434v665h-434q-237 0 -347 -68.5t-110 -242.5v-22q0 -96 28 -160.5t87.5 -102
t141.5 -53.5t200 -16z" />
    <glyph glyph-name="oe" unicode="&#x153;" horiz-adv-x="3418" 
d="M3375 659h-1368q10 -137 108 -199.5t281 -62.5q189 0 275 42t86 128v6h618v-20q0 -122 -61.5 -224t-181.5 -178t-310.5 -118.5t-435.5 -42.5q-210 0 -376 41.5t-312 128.5q-141 -87 -303 -128.5t-367 -41.5q-495 0 -739 190.5t-244 548.5v16q0 359 241.5 549.5
t737.5 190.5q211 0 373.5 -42.5t304.5 -131.5q148 89 315 131.5t375 42.5q480 0 731.5 -185.5t251.5 -525.5v-115zM2388 1102q-172 0 -264 -52t-113 -167h758q-6 219 -381 219zM1024 475q198 0 285.5 58t87.5 200v8q0 142 -87.5 200t-285.5 58t-285.5 -58t-87.5 -200v-8
q0 -142 87.5 -200t285.5 -58z" />
    <glyph glyph-name="Racute" unicode="&#x154;" horiz-adv-x="2000" 
d="M1174 1737h-332l80 127h426zM1333 0l-254 492h-32h-381v-492h-607v1669h1016q241 0 410 -36t272.5 -111t150 -181t46.5 -254v-36q0 -167 -71 -282t-224 -183l326 -586h-652zM1096 1223h-430v-310h430q132 0 191 34.5t59 119.5v8q0 85 -58 116.5t-192 31.5z" />
    <glyph glyph-name="racute" unicode="&#x155;" horiz-adv-x="1419" 
d="M1008 1542h-332l80 127h426zM664 707q0 403 141.5 590.5t464.5 187.5q77 0 119 -12v-560q-100 19 -200.5 22.5t-195.5 -12.5t-168 -51t-117 -98t-44 -147v-627h-605v1475h605v-768z" />
    <glyph glyph-name="Rcommaaccent" unicode="&#x156;" horiz-adv-x="2000" 
d="M1333 0l-254 492h-32h-381v-492h-607v1669h1016q241 0 410 -36t272.5 -111t150 -181t46.5 -254v-36q0 -167 -71 -282t-224 -183l326 -586h-652zM1096 1223h-430v-310h430q132 0 191 34.5t59 119.5v8q0 85 -58 116.5t-192 31.5zM1090 -205h-283l168 55h-178v113h440v-115z
" />
    <glyph glyph-name="rcommaaccent" unicode="&#x157;" horiz-adv-x="1419" 
d="M664 707q0 403 141.5 590.5t464.5 187.5q77 0 119 -12v-560q-100 19 -200.5 22.5t-195.5 -12.5t-168 -51t-117 -98t-44 -147v-627h-605v1475h605v-768zM434 -205h-282l167 55h-178v113h441v-115z" />
    <glyph glyph-name="Rcaron" unicode="&#x158;" horiz-adv-x="2000" 
d="M1073 1864h258l-114 -127h-426l-115 127h258l70 -52zM1333 0l-254 492h-32h-381v-492h-607v1669h1016q241 0 410 -36t272.5 -111t150 -181t46.5 -254v-36q0 -167 -71 -282t-224 -183l326 -586h-652zM1096 1223h-430v-310h430q132 0 191 34.5t59 119.5v8q0 85 -58 116.5
t-192 31.5z" />
    <glyph glyph-name="rcaron" unicode="&#x159;" horiz-adv-x="1419" 
d="M909 1669h258l-114 -127h-426l-115 127h258l70 -51zM664 707q0 403 141.5 590.5t464.5 187.5q77 0 119 -12v-560q-100 19 -200.5 22.5t-195.5 -12.5t-168 -51t-117 -98t-44 -147v-627h-605v1475h605v-768z" />
    <glyph glyph-name="Sacute" unicode="&#x15a;" horiz-adv-x="2181" 
d="M1251 1737h-331l79 127h426zM551 555q0 -56 43 -91t148 -53t282 -18q205 0 317 13.5t147.5 36t35.5 61.5v6q0 39 -32.5 59t-145 31.5t-336.5 11.5q-282 0 -471 29t-301.5 93t-159.5 155.5t-47 226.5v17q0 179 107 298.5t342.5 183.5t602.5 64q511 0 771 -146t260 -409
v-12h-512v2q0 158 -490 158q-146 0 -241.5 -7.5t-142 -23.5t-63 -33t-16.5 -43v-2q0 -26 18 -41.5t72.5 -28.5t161 -18.5t277.5 -5.5q353 0 569.5 -55.5t315 -168t98.5 -294.5v-14q0 -184 -108 -303.5t-348 -181.5t-622 -62q-530 0 -788 132t-258 415v22h514v-4z" />
    <glyph glyph-name="sacute" unicode="&#x15b;" horiz-adv-x="1925" 
d="M1137 1542h-332l80 127h426zM1894 461q0 -112 -48.5 -196t-155.5 -147t-289.5 -95.5t-437.5 -32.5q-477 0 -703.5 117t-226.5 382v13h573v-21q0 -73 87.5 -109t279.5 -36q135 0 211 12t104.5 33t28.5 57v4q0 37 -25.5 57.5t-105.5 33t-230 12.5q-210 0 -356 12t-259 41
t-178 79t-97.5 123.5t-32.5 178.5v16q0 490 930 490q927 0 927 -508v-14h-575v26q0 144 -363 144q-352 0 -352 -105v-6q0 -34 24 -52.5t109 -30t248 -11.5q185 0 322 -10t240 -33.5t169.5 -57.5t107.5 -87t57.5 -116.5t16.5 -150.5v-12z" />
    <glyph glyph-name="Scircumflex" unicode="&#x15c;" horiz-adv-x="2181" 
d="M1176 1737l-93 53l-92 -53h-256l135 127h426l136 -127h-256zM551 555q0 -56 43 -91t148 -53t282 -18q205 0 317 13.5t147.5 36t35.5 61.5v6q0 39 -32.5 59t-145 31.5t-336.5 11.5q-282 0 -471 29t-301.5 93t-159.5 155.5t-47 226.5v17q0 179 107 298.5t342.5 183.5
t602.5 64q511 0 771 -146t260 -409v-12h-512v2q0 158 -490 158q-146 0 -241.5 -7.5t-142 -23.5t-63 -33t-16.5 -43v-2q0 -26 18 -41.5t72.5 -28.5t161 -18.5t277.5 -5.5q353 0 569.5 -55.5t315 -168t98.5 -294.5v-14q0 -184 -108 -303.5t-348 -181.5t-622 -62
q-530 0 -788 132t-258 415v22h514v-4z" />
    <glyph glyph-name="scircumflex" unicode="&#x15d;" horiz-adv-x="1925" 
d="M1061 1542l-92 53l-92 -53h-256l135 127h426l135 -127h-256zM1894 461q0 -112 -48.5 -196t-155.5 -147t-289.5 -95.5t-437.5 -32.5q-477 0 -703.5 117t-226.5 382v13h573v-21q0 -73 87.5 -109t279.5 -36q135 0 211 12t104.5 33t28.5 57v4q0 37 -25.5 57.5t-105.5 33
t-230 12.5q-210 0 -356 12t-259 41t-178 79t-97.5 123.5t-32.5 178.5v16q0 490 930 490q927 0 927 -508v-14h-575v26q0 144 -363 144q-352 0 -352 -105v-6q0 -34 24 -52.5t109 -30t248 -11.5q185 0 322 -10t240 -33.5t169.5 -57.5t107.5 -87t57.5 -116.5t16.5 -150.5v-12z
" />
    <glyph glyph-name="Scedilla" unicode="&#x15e;" horiz-adv-x="2181" 
d="M551 555q0 -56 43 -91t148 -53t282 -18q205 0 317 13.5t147.5 36t35.5 61.5v6q0 39 -32.5 59t-145 31.5t-336.5 11.5q-282 0 -471 29t-301.5 93t-159.5 155.5t-47 226.5v17q0 179 107 298.5t342.5 183.5t602.5 64q511 0 771 -146t260 -409v-12h-512v2q0 158 -490 158
q-146 0 -241.5 -7.5t-142 -23.5t-63 -33t-16.5 -43v-2q0 -26 18 -41.5t72.5 -28.5t161 -18.5t277.5 -5.5q353 0 569.5 -55.5t315 -168t98.5 -294.5v-14q0 -172 -93.5 -286.5t-299 -180.5t-531.5 -78l-135 -55q71 20 145 20q102 0 145.5 -18t43.5 -62q0 -33 -28.5 -50
t-100 -24.5t-209.5 -7.5q-193 0 -270.5 17t-77.5 59v4h301v-4q0 -16 20 -16q25 0 25 28q0 27 -25 27q-16 0 -22 -14h-277l248 94q-497 8 -740 140.5t-243 406.5v22h514v-4z" />
    <glyph glyph-name="scedilla" unicode="&#x15f;" horiz-adv-x="1925" 
d="M981 -205q-192 0 -269 17t-77 59v4h299v-4q0 -16 20 -16q25 0 25 28q0 27 -25 27q-14 0 -20 -14h-277l246 94q-446 8 -658 125t-212 374v13h573v-21q0 -73 87.5 -109t279.5 -36q135 0 211 12t104.5 33t28.5 57v4q0 37 -25.5 57.5t-105.5 33t-230 12.5q-210 0 -356 12
t-259 41t-178 79t-97.5 123.5t-32.5 178.5v16q0 490 930 490q927 0 927 -508v-14h-575v26q0 144 -363 144q-352 0 -352 -105v-6q0 -34 24 -52.5t109 -30t248 -11.5q185 0 322 -10t240 -33.5t169.5 -57.5t107.5 -87t57.5 -116.5t16.5 -150.5v-12q0 -102 -41 -181t-130 -141
t-239.5 -98.5t-359.5 -46.5l-137 -57q71 20 143 20q102 0 145.5 -18t43.5 -62q0 -33 -28.5 -50t-100 -24.5t-209.5 -7.5z" />
    <glyph glyph-name="Scaron" unicode="&#x160;" horiz-adv-x="2181" 
d="M1153 1864h258l-115 -127h-426l-114 127h258l69 -52zM551 555q0 -56 43 -91t148 -53t282 -18q205 0 317 13.5t147.5 36t35.5 61.5v6q0 39 -32.5 59t-145 31.5t-336.5 11.5q-282 0 -471 29t-301.5 93t-159.5 155.5t-47 226.5v17q0 179 107 298.5t342.5 183.5t602.5 64
q511 0 771 -146t260 -409v-12h-512v2q0 158 -490 158q-146 0 -241.5 -7.5t-142 -23.5t-63 -33t-16.5 -43v-2q0 -26 18 -41.5t72.5 -28.5t161 -18.5t277.5 -5.5q353 0 569.5 -55.5t315 -168t98.5 -294.5v-14q0 -184 -108 -303.5t-348 -181.5t-622 -62q-530 0 -788 132
t-258 415v22h514v-4z" />
    <glyph glyph-name="scaron" unicode="&#x161;" horiz-adv-x="1925" 
d="M1038 1669h258l-114 -127h-426l-115 127h258l70 -51zM1894 461q0 -112 -48.5 -196t-155.5 -147t-289.5 -95.5t-437.5 -32.5q-477 0 -703.5 117t-226.5 382v13h573v-21q0 -73 87.5 -109t279.5 -36q135 0 211 12t104.5 33t28.5 57v4q0 37 -25.5 57.5t-105.5 33t-230 12.5
q-210 0 -356 12t-259 41t-178 79t-97.5 123.5t-32.5 178.5v16q0 490 930 490q927 0 927 -508v-14h-575v26q0 144 -363 144q-352 0 -352 -105v-6q0 -34 24 -52.5t109 -30t248 -11.5q185 0 322 -10t240 -33.5t169.5 -57.5t107.5 -87t57.5 -116.5t16.5 -150.5v-12z" />
    <glyph glyph-name="Tcaron" unicode="&#x164;" horiz-adv-x="1892" 
d="M1016 1864h258l-115 -127h-426l-115 127h259l69 -52zM1860 1155h-611v-1155h-606v1155h-612v514h1829v-514z" />
    <glyph glyph-name="tcaron" unicode="&#x165;" horiz-adv-x="1290" 
d="M1169 1507h-204v164h288zM883 0h-604v991h-259v484h259v167h604v-167h385v-484h-385v-991z" />
    <glyph glyph-name="Tbar" unicode="&#x166;" horiz-adv-x="1892" 
d="M1649 623h-400v-623h-606v623h-397v190h397v342h-612v514h1829v-514h-611v-342h400v-190z" />
    <glyph glyph-name="tbar" unicode="&#x167;" horiz-adv-x="1290" 
d="M82 582v184h197v225h-259v484h259v167h604v-167h385v-484h-385v-225h282v-184h-282v-582h-604v582h-197z" />
    <glyph glyph-name="Utilde" unicode="&#x168;" horiz-adv-x="2152" 
d="M1411 1864q0 -71 -41 -101t-123 -30q-67 0 -136.5 20.5t-92.5 20.5t-32 -9t-9 -28h-240q0 70 42 100.5t128 30.5q71 0 141 -18.5t85 -18.5q23 0 30.5 7t7.5 26h240zM1487 1669h606v-610q0 -301 -52.5 -501.5t-174.5 -329t-313 -183.5t-478 -55q-286 0 -476 54.5
t-312.5 182.5t-175 328.5t-52.5 503.5v610h605v-600q0 -209 44 -331.5t131.5 -174t233.5 -51.5q110 0 185.5 27.5t128 92t76.5 171.5t24 266v600z" />
    <glyph glyph-name="utilde" unicode="&#x169;" horiz-adv-x="2019" 
d="M1343 1669q0 -71 -40.5 -101t-122.5 -30q-67 0 -137 20.5t-93 20.5t-32 -9t-9 -28h-239q0 70 42 100.5t128 30.5q71 0 140.5 -18.5t84.5 -18.5q23 0 31 7t8 26h239zM1356 0v721q0 -377 -144 -554t-477 -177q-352 0 -514 163.5t-162 534.5v787h605v-660
q0 -154 80.5 -224.5t267.5 -70.5q58 0 105 6.5t93 24.5t77 48t50 79.5t19 116.5v680h604v-1475h-604z" />
    <glyph glyph-name="Umacron" unicode="&#x16a;" horiz-adv-x="2152" 
d="M748 1739v125h655v-125h-655zM1487 1669h606v-610q0 -301 -52.5 -501.5t-174.5 -329t-313 -183.5t-478 -55q-286 0 -476 54.5t-312.5 182.5t-175 328.5t-52.5 503.5v610h605v-600q0 -209 44 -331.5t131.5 -174t233.5 -51.5q110 0 185.5 27.5t128 92t76.5 171.5t24 266
v600z" />
    <glyph glyph-name="umacron" unicode="&#x16b;" horiz-adv-x="2019" 
d="M680 1544v125h655v-125h-655zM1356 0v721q0 -377 -144 -554t-477 -177q-352 0 -514 163.5t-162 534.5v787h605v-660q0 -154 80.5 -224.5t267.5 -70.5q58 0 105 6.5t93 24.5t77 48t50 79.5t19 116.5v680h604v-1475h-604z" />
    <glyph glyph-name="Ubreve" unicode="&#x16c;" horiz-adv-x="2152" 
d="M1075 1823q73 0 76 41h256q-4 -44 -30.5 -71t-100 -43.5t-201.5 -16.5q-129 0 -202.5 16.5t-100 43t-33.5 71.5h258q0 -41 78 -41zM1487 1669h606v-610q0 -301 -52.5 -501.5t-174.5 -329t-313 -183.5t-478 -55q-286 0 -476 54.5t-312.5 182.5t-175 328.5t-52.5 503.5v610
h605v-600q0 -209 44 -331.5t131.5 -174t233.5 -51.5q110 0 185.5 27.5t128 92t76.5 171.5t24 266v600z" />
    <glyph glyph-name="ubreve" unicode="&#x16d;" horiz-adv-x="2019" 
d="M1008 1628q72 0 75 41h256q-4 -44 -30.5 -71t-99.5 -43.5t-201 -16.5q-129 0 -202.5 16.5t-100 43t-33.5 71.5h258q0 -41 78 -41zM1356 0v721q0 -377 -144 -554t-477 -177q-352 0 -514 163.5t-162 534.5v787h605v-660q0 -154 80.5 -224.5t267.5 -70.5q58 0 105 6.5
t93 24.5t77 48t50 79.5t19 116.5v680h604v-1475h-604z" />
    <glyph glyph-name="Uring" unicode="&#x16e;" horiz-adv-x="2152" 
d="M1075 1634q-241 0 -241 115q0 119 241 119q244 0 244 -119q0 -115 -244 -115zM1075 1679q84 0 84 68q0 74 -84 74q-82 0 -82 -74q0 -68 82 -68zM1487 1669h606v-610q0 -301 -52.5 -501.5t-174.5 -329t-313 -183.5t-478 -55q-286 0 -476 54.5t-312.5 182.5t-175 328.5
t-52.5 503.5v610h605v-600q0 -209 44 -331.5t131.5 -174t233.5 -51.5q110 0 185.5 27.5t128 92t76.5 171.5t24 266v600z" />
    <glyph glyph-name="uring" unicode="&#x16f;" horiz-adv-x="2019" 
d="M1008 1440q-242 0 -242 114q0 119 242 119q243 0 243 -119q0 -114 -243 -114zM1008 1485q84 0 84 67q0 74 -84 74q-82 0 -82 -74q0 -67 82 -67zM1356 0v721q0 -377 -144 -554t-477 -177q-352 0 -514 163.5t-162 534.5v787h605v-660q0 -154 80.5 -224.5t267.5 -70.5
q58 0 105 6.5t93 24.5t77 48t50 79.5t19 116.5v680h604v-1475h-604z" />
    <glyph glyph-name="Uhungarumlaut" unicode="&#x170;" horiz-adv-x="2152" 
d="M1014 1737h-277l121 127h322zM1380 1737h-278l123 127h319zM1487 1669h606v-610q0 -301 -52.5 -501.5t-174.5 -329t-313 -183.5t-478 -55q-286 0 -476 54.5t-312.5 182.5t-175 328.5t-52.5 503.5v610h605v-600q0 -209 44 -331.5t131.5 -174t233.5 -51.5q110 0 185.5 27.5
t128 92t76.5 171.5t24 266v600z" />
    <glyph glyph-name="uhungarumlaut" unicode="&#x171;" horiz-adv-x="2019" 
d="M946 1542h-276l121 127h321zM1313 1542h-279l123 127h320zM1356 0v721q0 -377 -144 -554t-477 -177q-352 0 -514 163.5t-162 534.5v787h605v-660q0 -154 80.5 -224.5t267.5 -70.5q58 0 105 6.5t93 24.5t77 48t50 79.5t19 116.5v680h604v-1475h-604z" />
    <glyph glyph-name="Uogonek" unicode="&#x172;" horiz-adv-x="2152" 
d="M1487 1669h606v-610q0 -282 -45.5 -474t-150.5 -321.5t-269.5 -193t-408.5 -76.5q-101 -60 -122.5 -77.5t-21.5 -39.5q0 -9 6.5 -15.5t16.5 -6.5q26 0 26 34v9h295v-4q0 -49 -80 -74t-276 -25q-104 0 -164 3t-99 11.5t-52 22t-13 37.5q0 41 53 66t195 57q-259 9 -432 69
t-284.5 189t-159.5 324.5t-48 484.5v610h605v-600q0 -209 44 -331.5t131.5 -174t233.5 -51.5q110 0 185.5 27.5t128 92t76.5 171.5t24 266v600z" />
    <glyph glyph-name="uogonek" unicode="&#x173;" horiz-adv-x="2019" 
d="M1356 0v721q0 -377 -144 -554t-477 -177q-352 0 -514 163.5t-162 534.5v787h605v-660q0 -154 80.5 -224.5t267.5 -70.5q58 0 105 6.5t93 24.5t77 48t50 79.5t19 116.5v680h604v-1475h-176q-108 -64 -131 -82.5t-23 -40.5q0 -9 6.5 -15.5t16.5 -6.5q26 0 26 34v9h295v-4
q0 -49 -80 -74t-276 -25q-104 0 -164 3t-99 11.5t-52 22t-13 37.5q0 44 60 69.5t227 61.5h-221z" />
    <glyph glyph-name="Wcircumflex" unicode="&#x174;" horiz-adv-x="3215" 
d="M1696 1737l-92 53l-93 -53h-256l136 127h426l135 -127h-256zM489 0l-477 1669h637l269 -987l339 987h746l324 -938l260 938h614l-485 -1669h-731l-381 1116l-387 -1116h-728z" />
    <glyph glyph-name="wcircumflex" unicode="&#x175;" horiz-adv-x="2805" 
d="M1497 1542l-92 53l-92 -53h-256l135 127h426l135 -127h-256zM430 0l-418 1475h611l213 -770l254 770h628l254 -764l207 764h614l-417 -1475h-725l-244 821l-252 -821h-725z" />
    <glyph glyph-name="Ycircumflex" unicode="&#x176;" horiz-adv-x="2119" 
d="M1153 1737l-92 53l-92 -53h-256l135 127h426l135 -127h-256zM754 645l-754 1024h672l387 -543l385 543h676l-762 -1026v-643h-604v645z" />
    <glyph glyph-name="ycircumflex" unicode="&#x177;" horiz-adv-x="2064" 
d="M1141 1542l-92 53l-93 -53h-256l136 127h426l135 -127h-256zM1532 438q-47 -92 -86.5 -157.5t-88.5 -123.5t-96 -95.5t-115 -68.5t-139 -47.5t-174.5 -28.5t-214.5 -15.5t-266 -3.5v460h326q93 0 145 24t99 85l6 8h-324l-602 1000h682l383 -715l350 715h643z" />
    <glyph glyph-name="Ydieresis" unicode="&#x178;" horiz-adv-x="2119" 
d="M702 1722v158h304v-158h-304zM1419 1722h-303v158h303v-158zM754 645l-754 1024h672l387 -543l385 543h676l-762 -1026v-643h-604v645z" />
    <glyph glyph-name="Zacute" unicode="&#x179;" horiz-adv-x="2025" 
d="M1182 1737h-332l80 127h426zM41 0v420l1014 794h-967v455h1880v-420l-967 -790h984v-459h-1944z" />
    <glyph glyph-name="zacute" unicode="&#x17a;" horiz-adv-x="1806" 
d="M1069 1542h-332l80 127h426zM45 0v375l875 647h-818v453h1659v-375l-809 -647h809v-453h-1716z" />
    <glyph glyph-name="Zdotaccent" unicode="&#x17b;" horiz-adv-x="2025" 
d="M1014 1714q-88 0 -123 20t-35 66t35 66t123 20t122.5 -20t34.5 -66t-34.5 -66t-122.5 -20zM41 0v420l1014 794h-967v455h1880v-420l-967 -790h984v-459h-1944z" />
    <glyph glyph-name="zdotaccent" unicode="&#x17c;" horiz-adv-x="1806" 
d="M901 1520q-88 0 -123 20t-35 66t35 66t123 20t123 -20t35 -66t-35 -66t-123 -20zM45 0v375l875 647h-818v453h1659v-375l-809 -647h809v-453h-1716z" />
    <glyph glyph-name="Zcaron" unicode="&#x17d;" horiz-adv-x="2025" 
d="M1083 1864h258l-114 -127h-426l-115 127h258l70 -52zM41 0v420l1014 794h-967v455h1880v-420l-967 -790h984v-459h-1944z" />
    <glyph glyph-name="zcaron" unicode="&#x17e;" horiz-adv-x="1806" 
d="M971 1669h258l-115 -127h-426l-115 127h258l70 -51zM45 0v375l875 647h-818v453h1659v-375l-809 -647h809v-453h-1716z" />
    <glyph glyph-name="Schwa" unicode="&#x18f;" horiz-adv-x="2260" 
d="M2224 834q0 -407 -274 -625.5t-826 -218.5q-527 0 -807 211.5t-280 605.5v139h1558q-18 140 -134 210.5t-343 70.5q-220 0 -331 -50t-111 -137v-2h-639v11q0 107 42.5 201t131.5 173t216.5 136t306.5 88.5t394 31.5q554 0 825 -209t271 -610v-26zM664 676
q0 -123 119 -191.5t345 -68.5q211 0 324.5 65t138.5 197h-927v-2z" />
    <glyph glyph-name="florin" unicode="&#x192;" horiz-adv-x="2246" 
d="M836 950v-24h544v-156h-544v-872h-615v872h-209v156h209v18q0 352 254 543.5t746 191.5q467 0 729 -175t262 -486v-45h-617v14q0 105 -91.5 157t-282.5 52q-385 0 -385 -246z" />
    <glyph glyph-name="Aringacute" unicode="&#x1fa;" horiz-adv-x="2187" 
d="M1253 1907h-331l79 127h426zM1587 0l-112 303h-766l-113 -303h-580l621 1669h262q-47 27 -47 80q0 119 242 119q243 0 243 -119q0 -53 -47 -80h256l627 -1669h-586zM1094 1679q84 0 84 68q0 74 -84 74q-82 0 -82 -74q0 -68 82 -68zM848 680h487l-243 655z" />
    <glyph glyph-name="aringacute" unicode="&#x1fb;" horiz-adv-x="1980" 
d="M1174 1716h-332l80 127h426zM709 907v-10h-617v16q0 250 183.5 393.5t541.5 172.5q-41 27 -41 75q0 119 242 119q244 0 244 -119q0 -50 -43 -77q363 -28 532.5 -165.5t169.5 -408.5v-903h-604v403q0 -68 -20 -128t-65.5 -113t-114 -90.5t-172.5 -59.5t-234 -22
q-345 0 -516.5 91.5t-171.5 293.5v22q0 68 21 124t57 97.5t91.5 75t116.5 56t141.5 41t157 29.5t172 22t177.5 18.5t182 18.5t178 22v10q0 72 -72 106t-244 34q-161 0 -226.5 -34.5t-65.5 -109.5zM1018 1485q84 0 84 67q0 74 -84 74q-82 0 -82 -74q0 -67 82 -67zM627 395
q0 -56 56.5 -82t190.5 -26q97 0 169.5 7.5t138 27t100.5 58.5t35 97v103q-400 -39 -513 -62q-153 -31 -173 -88q-4 -10 -4 -22v-13z" />
    <glyph glyph-name="AEacute" unicode="&#x1fc;" horiz-adv-x="3092" 
d="M1903 1737h-332l80 127h426zM-6 0l1087 1669h1968v-455h-1011v-159h932v-426h-932v-172h1011v-457h-1617v475h-549l-299 -475h-590zM1118 848h314v495z" />
    <glyph glyph-name="aeacute" unicode="&#x1fd;" horiz-adv-x="3336" 
d="M1833 1542h-332l80 127h426zM3293 551q0 -121 -61.5 -222.5t-181 -177.5t-310 -118.5t-434.5 -42.5q-274 0 -470 55.5t-309 155.5t-165 248q-23 -238 -181.5 -348.5t-469.5 -110.5q-345 0 -516.5 91.5t-171.5 293.5v22q0 68 21 124t57 97.5t91.5 75t116.5 56t141.5 41
t157 29.5t172 22t177.5 18.5t182 18.5t178 22v10q0 75 -74.5 107.5t-241.5 32.5q-163 0 -227.5 -36.5t-64.5 -107.5v-10h-617v16q0 281 225 426.5t660 145.5q449 0 688 -152q270 152 647 152q480 0 730.5 -185.5t250.5 -525.5v-127h-1366q15 -133 112 -192.5t281 -59.5
q176 0 265.5 42t89.5 122v2h618v-10zM2306 1104q-166 0 -257.5 -50t-115.5 -161h754q-13 211 -381 211zM627 395q0 -56 56.5 -82t190.5 -26q237 0 347.5 44t130.5 148q-19 80 -23 101q-400 -38 -508 -58q-162 -30 -188 -85q-6 -14 -6 -29v-13z" />
    <glyph glyph-name="Oslashacute" unicode="&#x1fe;" horiz-adv-x="2260" 
d="M1298 1737h-331l80 127h426zM37 0l254 205q-254 205 -254 633v36q0 805 1093 805q462 0 732 -147l172 137h166l-244 -196q268 -202 268 -599v-36q0 -428 -270.5 -638t-823.5 -210q-488 0 -749 151l-180 -141h-164zM1126 1163q-254 0 -367.5 -71.5t-113.5 -249.5v-15
q0 -158 94 -231l662 539q-101 28 -275 28zM1616 842q0 170 -107 243l-665 -540q103 -33 282 -33q257 0 373.5 70.5t116.5 244.5v15z" />
    <glyph glyph-name="oslashacute" unicode="&#x1ff;" horiz-adv-x="2050" 
d="M1192 1542h-332l80 127h426zM45 0l236 186q-236 184 -236 543v16q0 359 241.5 549.5t737.5 190.5q408 0 649 -131l158 121h174l-236 -185q236 -187 236 -545v-16q0 -358 -242 -548.5t-739 -190.5q-406 0 -647 131l-158 -121h-174zM651 733q0 -119 60 -176l520 420
q-76 22 -207 22q-198 0 -285.5 -58t-87.5 -200v-8zM1024 475q198 0 285.5 58t87.5 200v8q0 116 -60 179l-520 -422q79 -23 207 -23z" />
    <glyph glyph-name="Scommaaccent" unicode="&#x218;" horiz-adv-x="2181" 
d="M551 555q0 -56 43 -91t148 -53t282 -18q205 0 317 13.5t147.5 36t35.5 61.5v6q0 39 -32.5 59t-145 31.5t-336.5 11.5q-282 0 -471 29t-301.5 93t-159.5 155.5t-47 226.5v17q0 179 107 298.5t342.5 183.5t602.5 64q511 0 771 -146t260 -409v-12h-512v2q0 158 -490 158
q-146 0 -241.5 -7.5t-142 -23.5t-63 -33t-16.5 -43v-2q0 -26 18 -41.5t72.5 -28.5t161 -18.5t277.5 -5.5q353 0 569.5 -55.5t315 -168t98.5 -294.5v-14q0 -184 -108 -303.5t-348 -181.5t-622 -62q-530 0 -788 132t-258 415v22h514v-4zM1167 -205h-282l168 55h-179v113h441
v-115z" />
    <glyph glyph-name="scommaaccent" unicode="&#x219;" horiz-adv-x="1925" 
d="M1894 461q0 -112 -48.5 -196t-155.5 -147t-289.5 -95.5t-437.5 -32.5q-477 0 -703.5 117t-226.5 382v13h573v-21q0 -73 87.5 -109t279.5 -36q135 0 211 12t104.5 33t28.5 57v4q0 37 -25.5 57.5t-105.5 33t-230 12.5q-210 0 -356 12t-259 41t-178 79t-97.5 123.5
t-32.5 178.5v16q0 490 930 490q927 0 927 -508v-14h-575v26q0 144 -363 144q-352 0 -352 -105v-6q0 -34 24 -52.5t109 -30t248 -11.5q185 0 322 -10t240 -33.5t169.5 -57.5t107.5 -87t57.5 -116.5t16.5 -150.5v-12zM1051 -205h-283l168 55h-178v113h440v-115z" />
    <glyph glyph-name="Tcommaaccent" unicode="&#x21a;" horiz-adv-x="1892" 
d="M1860 1155h-611v-1155h-606v1155h-612v514h1829v-514zM1030 -205h-282l167 55h-178v113h441v-115z" />
    <glyph glyph-name="tcommaaccent" unicode="&#x21b;" horiz-adv-x="1290" 
d="M883 0h-604v991h-259v484h259v167h604v-167h385v-484h-385v-991zM647 -205h-282l167 55h-178v113h441v-115z" />
    <glyph glyph-name="dotlessj" unicode="&#x237;" horiz-adv-x="794" 
d="M733 354q0 -225 -122.5 -340.5t-350.5 -115.5h-237v485h20q86 0 86 92v1000h604v-1121z" />
    <glyph glyph-name="schwa" unicode="&#x259;" horiz-adv-x="2064" 
d="M45 827h1366q-15 133 -112 192.5t-281 59.5q-354 0 -354 -164v-2h-619v11q0 121 61.5 222.5t181 177.5t310 118.5t434.5 42.5q989 0 989 -723v-21q0 -751 -995 -751q-480 0 -730.5 185t-250.5 525v127zM1032 371q166 0 257.5 50t115.5 161h-754q13 -211 381 -211z" />
    <glyph glyph-name="circumflex" unicode="&#x2c6;" horiz-adv-x="512" 
d="M348 1542l-92 53l-92 -53h-256l135 127h426l135 -127h-256z" />
    <glyph glyph-name="caron" unicode="&#x2c7;" horiz-adv-x="512" 
d="M326 1669h258l-115 -127h-426l-115 127h258l70 -51z" />
    <glyph glyph-name="breve" unicode="&#x2d8;" horiz-adv-x="512" 
d="M256 1628q73 0 76 41h256q-4 -44 -30.5 -71t-100 -43.5t-201.5 -16.5q-129 0 -202.5 16.5t-100 43t-33.5 71.5h258q0 -41 78 -41z" />
    <glyph glyph-name="dotaccent" unicode="&#x2d9;" horiz-adv-x="512" 
d="M258 1520q-88 0 -123 20t-35 66t35 66t123 20t123 -20t35 -66t-35 -66t-123 -20z" />
    <glyph glyph-name="ring" unicode="&#x2da;" horiz-adv-x="512" 
d="M256 1440q-242 0 -242 114q0 119 242 119q244 0 244 -119q0 -114 -244 -114zM256 1485q84 0 84 67q0 74 -84 74q-82 0 -82 -74q0 -67 82 -67z" />
    <glyph glyph-name="ogonek" unicode="&#x2db;" horiz-adv-x="512" 
d="M408 0q-108 -64 -131 -82.5t-23 -40.5t25 -22q14 0 19 8t5 26v9h295v-4q0 -49 -80 -74t-276 -25q-104 0 -164 3t-99 11.5t-52 22t-13 37.5q0 44 60 69.5t227 61.5h207z" />
    <glyph glyph-name="tilde" unicode="&#x2dc;" horiz-adv-x="512" 
d="M592 1669q0 -71 -41 -101t-123 -30q-67 0 -136.5 20.5t-92.5 20.5t-32 -9t-9 -28h-240q0 70 42 100.5t128 30.5q71 0 140.5 -18.5t84.5 -18.5q23 0 31 7t8 26h240z" />
    <glyph glyph-name="hungarumlaut" unicode="&#x2dd;" horiz-adv-x="512" 
d="M166 1542h-277l121 127h322zM532 1542h-278l123 127h319z" />
    <glyph glyph-name="pi" unicode="&#x3c0;" horiz-adv-x="2019" 
d="M141 0l121 1063q-120 -15 -219 -39v393q204 58 481 58h1452v-400h-174l-47 -547q-7 -65 23.5 -100t91.5 -35h84v-393h-291q-263 0 -404.5 140.5t-117.5 408.5l47 526h-328l-104 -1075h-615z" />
    <glyph glyph-name="Wgrave" unicode="&#x1e80;" horiz-adv-x="3215" 
d="M1436 1737l-174 127h426l79 -127h-331zM489 0l-477 1669h637l269 -987l339 987h746l324 -938l260 938h614l-485 -1669h-731l-381 1116l-387 -1116h-728z" />
    <glyph glyph-name="wgrave" unicode="&#x1e81;" horiz-adv-x="2805" 
d="M1237 1542l-174 127h426l80 -127h-332zM430 0l-418 1475h611l213 -770l254 770h628l254 -764l207 764h614l-417 -1475h-725l-244 821l-252 -821h-725z" />
    <glyph glyph-name="Wacute" unicode="&#x1e82;" horiz-adv-x="3215" 
d="M1769 1737h-331l80 127h426zM489 0l-477 1669h637l269 -987l339 987h746l324 -938l260 938h614l-485 -1669h-731l-381 1116l-387 -1116h-728z" />
    <glyph glyph-name="wacute" unicode="&#x1e83;" horiz-adv-x="2805" 
d="M1573 1542h-332l80 127h426zM430 0l-418 1475h611l213 -770l254 770h628l254 -764l207 764h614l-417 -1475h-725l-244 821l-252 -821h-725z" />
    <glyph glyph-name="Wdieresis" unicode="&#x1e84;" horiz-adv-x="3215" 
d="M1245 1722v158h303v-158h-303zM1962 1722h-303v158h303v-158zM489 0l-477 1669h637l269 -987l339 987h746l324 -938l260 938h614l-485 -1669h-731l-381 1116l-387 -1116h-728z" />
    <glyph glyph-name="wdieresis" unicode="&#x1e85;" horiz-adv-x="2805" 
d="M1047 1528v158h303v-158h-303zM1763 1528h-303v158h303v-158zM430 0l-418 1475h611l213 -770l254 770h628l254 -764l207 764h614l-417 -1475h-725l-244 821l-252 -821h-725z" />
    <glyph glyph-name="Ygrave" unicode="&#x1ef2;" horiz-adv-x="2119" 
d="M893 1737l-174 127h426l80 -127h-332zM754 645l-754 1024h672l387 -543l385 543h676l-762 -1026v-643h-604v645z" />
    <glyph glyph-name="ygrave" unicode="&#x1ef3;" horiz-adv-x="2064" 
d="M883 1542l-174 127h426l79 -127h-331zM1532 438q-47 -92 -86.5 -157.5t-88.5 -123.5t-96 -95.5t-115 -68.5t-139 -47.5t-174.5 -28.5t-214.5 -15.5t-266 -3.5v460h326q93 0 145 24t99 85l6 8h-324l-602 1000h682l383 -715l350 715h643z" />
    <glyph glyph-name="thinspace" unicode="&#x2009;" horiz-adv-x="227" 
 />
    <glyph glyph-name="endash" unicode="&#x2013;" horiz-adv-x="1134" 
d="M1114 705h-1094v188h1094v-188z" />
    <glyph glyph-name="emdash" unicode="&#x2014;" horiz-adv-x="2281" 
d="M2261 705h-2241v188h2241v-188z" />
    <glyph glyph-name="quoteleft" unicode="&#x2018;" horiz-adv-x="532" 
d="M111 1669h329l-84 -227h148v-375h-475v375z" />
    <glyph glyph-name="quoteright" unicode="&#x2019;" horiz-adv-x="532" 
d="M422 1067h-326l80 227h-147v375h475v-375z" />
    <glyph glyph-name="quotesinglbase" unicode="&#x201a;" horiz-adv-x="532" 
d="M428 -205h-326l74 205h-147v375h475v-375z" />
    <glyph glyph-name="quotedblleft" unicode="&#x201c;" horiz-adv-x="1056" 
d="M111 1669h329l-84 -227h148v-375h-475v375zM635 1669h330l-84 -227h147v-375h-475v375z" />
    <glyph glyph-name="quotedblright" unicode="&#x201d;" horiz-adv-x="1056" 
d="M422 1067h-326l80 227h-147v375h475v-375zM946 1067h-325l79 227h-147v375h475v-375z" />
    <glyph glyph-name="quotedblbase" unicode="&#x201e;" horiz-adv-x="1056" 
d="M428 -205h-326l74 205h-147v375h475v-375zM952 -205h-325l73 205h-147v375h475v-375z" />
    <glyph glyph-name="dagger" unicode="&#x2020;" horiz-adv-x="733" 
d="M193 1669h350v-113h164v-192h-164v-459h-350v459h-164v192h164v113z" />
    <glyph glyph-name="daggerdbl" unicode="&#x2021;" horiz-adv-x="733" 
d="M707 1210v-194h-164v-111h-350v111h-164v194h164v154h-164v192h164v113h350v-113h164v-192h-164v-154h164z" />
    <glyph glyph-name="bullet" unicode="&#x2022;" horiz-adv-x="856" 
d="M428 365q-149 0 -233.5 39t-125 133t-40.5 262t40.5 262t125 133t233.5 39t233.5 -39t125 -133t40.5 -262t-40.5 -262t-125 -133t-233.5 -39z" />
    <glyph glyph-name="ellipsis" unicode="&#x2026;" horiz-adv-x="1601" 
d="M504 0h-475v461h475v-461zM1040 0h-475v461h475v-461zM1575 0h-475v461h475v-461z" />
    <glyph glyph-name="perthousand" unicode="&#x2030;" horiz-adv-x="3276" 
d="M39 1303v36q0 166 128 253t386 87q260 0 388 -87t128 -253v-36q0 -166 -128 -253t-388 -87q-258 0 -386 87t-128 253zM1778 1669h164l-1553 -1669h-164zM336 1317q0 -74 50.5 -105.5t166.5 -31.5q118 0 168.5 31t50.5 106v8q0 75 -50.5 106t-168.5 31
q-116 0 -166.5 -31.5t-50.5 -105.5v-8zM1100 334v37q0 166 128 253t386 87q260 0 388 -87t128 -253v-37q0 -166 -128 -253t-388 -87q-258 0 -386 87t-128 253zM2206 334v37q0 166 128 253t386 87q260 0 388 -87t128 -253v-37q0 -166 -128 -253t-388 -87q-258 0 -386 87
t-128 253zM1397 348q0 -74 50.5 -105.5t166.5 -31.5q118 0 168.5 31t50.5 106v8q0 75 -50.5 106.5t-168.5 31.5q-116 0 -166.5 -31.5t-50.5 -106.5v-8zM2503 348q0 -74 50.5 -105.5t166.5 -31.5q118 0 168.5 31t50.5 106v8q0 75 -50.5 106.5t-168.5 31.5
q-116 0 -166.5 -31.5t-50.5 -106.5v-8z" />
    <glyph glyph-name="guilsinglleft" unicode="&#x2039;" horiz-adv-x="499" 
d="M20 799l156 508h301l-158 -508l158 -508h-301z" />
    <glyph glyph-name="guilsinglright" unicode="&#x203a;" horiz-adv-x="499" 
d="M477 799l-153 -508h-304l158 508l-158 508h304z" />
    <glyph glyph-name="fraction" unicode="&#x2044;" horiz-adv-x="172" 
d="M780 1669h164l-1552 -1669h-164z" />
    <glyph glyph-name="zerosuperior" unicode="&#x2070;" horiz-adv-x="1107" 
d="M39 1303v36q0 166 128 253t386 87q260 0 388 -87t128 -253v-36q0 -166 -128 -253t-388 -87q-258 0 -386 87t-128 253zM336 1317q0 -74 50.5 -105.5t166.5 -31.5q118 0 168.5 31t50.5 106v8q0 75 -50.5 106t-168.5 31q-116 0 -166.5 -31.5t-50.5 -105.5v-8z" />
    <glyph glyph-name="foursuperior" unicode="&#x2074;" horiz-adv-x="931" 
d="M31 1102v164l358 403h447v-391h65v-176h-65v-133h-285v133h-520zM332 1278h219v276z" />
    <glyph glyph-name="fivesuperior" unicode="&#x2075;" horiz-adv-x="1007" 
d="M969 1208v-8q0 -118 -107.5 -177.5t-349.5 -59.5t-357.5 62.5t-115.5 186.5v7h276v-2q0 -62 189 -62q101 0 143.5 17t42.5 57v4q0 44 -38 61t-144 17q-184 0 -184 -49h-238v407h832v-194h-594v-209q0 155 307 155q178 0 258 -51t80 -162z" />
    <glyph glyph-name="sixsuperior" unicode="&#x2076;" horiz-adv-x="1085" 
d="M549 963q-510 0 -510 337v15q0 164 135 264t399 100q223 0 344 -67.5t121 -175.5v-2h-299v2q0 63 -157 63q-130 0 -186 -47.5t-56 -153.5v-57q0 -53 48 -78.5t157 -25.5q110 0 154 18.5t44 56.5v2q0 41 -44.5 60.5t-151.5 19.5q-103 0 -152 -21t-49 -67v11q-2 85 74 127
t242 42q204 0 294.5 -47t90.5 -151v-6q0 -106 -132 -162.5t-366 -56.5z" />
    <glyph glyph-name="sevensuperior" unicode="&#x2077;" horiz-adv-x="999" 
d="M524 969h-362q32 108 146.5 232.5t287.5 240.5h-578v227h963v-162q-208 -168 -318.5 -305t-138.5 -233z" />
    <glyph glyph-name="eightsuperior" unicode="&#x2078;" horiz-adv-x="1073" 
d="M537 1679q241 0 350.5 -44t109.5 -134v-6q0 -59 -45 -95t-149 -54q121 -18 182.5 -65t61.5 -114v-12q0 -68 -44.5 -108.5t-157.5 -62t-308 -21.5q-194 0 -306.5 21.5t-157 62t-44.5 108.5v12q0 67 60.5 114t182.5 65q-106 18 -150 54t-44 95v6q0 90 109 134t350 44z
M537 1382q98 0 135 13t37 47v4q0 34 -37.5 47.5t-134.5 13.5q-96 0 -134 -13.5t-38 -47.5v-4q0 -34 37.5 -47t134.5 -13zM537 1126q110 0 151 14t41 48v4q0 35 -41 49t-151 14q-108 0 -150.5 -14.5t-42.5 -48.5v-4q0 -34 42 -48t151 -14z" />
    <glyph glyph-name="ninesuperior" unicode="&#x2079;" horiz-adv-x="1085" 
d="M537 1679q510 0 510 -338v-14q0 -164 -136 -264t-401 -100q-222 0 -342.5 67.5t-120.5 175.5v2h299v-2q0 -63 158 -63q130 0 185.5 47t55.5 153v58q0 53 -48 78.5t-156 25.5q-110 0 -154.5 -18.5t-44.5 -56.5v-3q0 -41 44 -60t153 -19q103 0 151.5 21t48.5 67v-11
q2 -85 -74 -127.5t-243 -42.5q-202 0 -292.5 47.5t-90.5 151.5v6q0 106 132 162.5t366 56.5z" />
    <glyph glyph-name="zeroinferior" unicode="&#x2080;" horiz-adv-x="1107" 
d="M39 334v37q0 166 128 253t386 87q260 0 388 -87t128 -253v-37q0 -166 -128 -253t-388 -87q-258 0 -386 87t-128 253zM336 348q0 -74 50.5 -105.5t166.5 -31.5q118 0 168.5 31t50.5 106v8q0 75 -50.5 106.5t-168.5 31.5q-116 0 -166.5 -31.5t-50.5 -106.5v-8z" />
    <glyph glyph-name="oneinferior" unicode="&#x2081;" horiz-adv-x="552" 
d="M514 0h-289v403l-200 -94v262l272 129h217v-700z" />
    <glyph glyph-name="twoinferior" unicode="&#x2082;" horiz-adv-x="980" 
d="M647 416v4q0 65 -149 65q-97 0 -135.5 -24t-38.5 -84v-4h-277v6q0 332 485 332q201 0 304.5 -60t103.5 -162v-4q0 -68 -34 -107t-140.5 -73.5t-323.5 -71.5h496v-233h-883v211q225 56 334.5 85.5t173 52.5t74 34.5t10.5 32.5z" />
    <glyph glyph-name="threeinferior" unicode="&#x2083;" horiz-adv-x="1024" 
d="M541 -6q-259 0 -379.5 67.5t-120.5 206.5v13h278v-9q0 -82 195 -82q103 0 147 11t44 37v2q0 19 -20 27.5t-73 8.5h-180v164h125q67 0 95 8t28 29v2q0 23 -38 33t-122 10q-188 0 -188 -86v-2h-275v8q0 269 478 269q423 0 423 -181v-8q0 -111 -147 -137q87 -12 129.5 -54
t42.5 -106v-8q0 -108 -109.5 -165.5t-332.5 -57.5z" />
    <glyph glyph-name="fourinferior" unicode="&#x2084;" horiz-adv-x="931" 
d="M31 133v164l358 403h447v-391h65v-176h-65v-133h-285v133h-520zM332 309h219v277z" />
    <glyph glyph-name="fiveinferior" unicode="&#x2085;" horiz-adv-x="1007" 
d="M969 240v-9q0 -118 -107.5 -177.5t-349.5 -59.5q-473 0 -473 250v6h276v-2q0 -62 189 -62q101 0 143.5 17t42.5 57v4q0 44 -38 61t-144 17q-184 0 -184 -49h-238v407h832v-194h-594v-209q0 156 307 156q178 0 258 -51t80 -162z" />
    <glyph glyph-name="sixinferior" unicode="&#x2086;" horiz-adv-x="1085" 
d="M549 -6q-510 0 -510 338v14q0 164 135.5 264.5t398.5 100.5q223 0 344 -68t121 -176v-2h-299v2q0 63 -157 63q-131 0 -186.5 -47t-55.5 -153v-58q0 -53 48 -78.5t157 -25.5q110 0 154 18.5t44 57.5v2q0 41 -44.5 60.5t-151.5 19.5q-103 0 -152 -21t-49 -67v10
q-2 85 74 127.5t242 42.5q203 0 294 -47t91 -152v-6q0 -106 -132 -162.5t-366 -56.5z" />
    <glyph glyph-name="seveninferior" unicode="&#x2087;" horiz-adv-x="999" 
d="M524 0h-362q32 108 146.5 232.5t287.5 240.5h-578v227h963v-161q-208 -168 -318.5 -305.5t-138.5 -233.5z" />
    <glyph glyph-name="eightinferior" unicode="&#x2088;" horiz-adv-x="1073" 
d="M537 711q241 0 350.5 -44.5t109.5 -134.5v-6q0 -59 -45 -95t-149 -54q121 -18 182.5 -65t61.5 -113v-13q0 -68 -44.5 -108.5t-157.5 -62t-308 -21.5q-194 0 -306.5 21.5t-157 62t-44.5 108.5v13q0 67 60.5 113.5t182.5 64.5q-106 18 -150 54t-44 95v6q0 90 109 134.5
t350 44.5zM537 414q98 0 135 12.5t37 46.5v4q0 34 -37.5 48t-134.5 14q-96 0 -134 -14t-38 -48v-4q0 -34 37.5 -46.5t134.5 -12.5zM537 158q111 0 151.5 13.5t40.5 47.5v4q0 35 -41 49.5t-151 14.5q-108 0 -150.5 -14.5t-42.5 -49.5v-4q0 -34 42 -47.5t151 -13.5z" />
    <glyph glyph-name="nineinferior" unicode="&#x2089;" horiz-adv-x="1085" 
d="M537 711q510 0 510 -338v-15q0 -164 -136 -264t-401 -100q-222 0 -342.5 68t-120.5 176v2h299v-2q0 -64 158 -64q130 0 185.5 47.5t55.5 153.5v57q0 54 -48 79.5t-156 25.5q-110 0 -154.5 -18.5t-44.5 -57.5v-2q0 -41 44 -60.5t153 -19.5q103 0 151.5 21t48.5 67v-10
q2 -85 -74 -127.5t-243 -42.5q-202 0 -292.5 47t-90.5 151v7q0 106 132 162.5t366 56.5z" />
    <glyph glyph-name="lira" unicode="&#x20a4;" horiz-adv-x="2215" 
d="M193 1669h616v-387l592 154v-164l-592 -154v-153l592 153v-166l-592 -153v-295h373q202 0 288 78t86 241v17h619v-58q0 -368 -272 -575t-754 -207h-956v639l-121 -35v166l121 35v153l-121 -34v166l121 32v547z" />
    <glyph glyph-name="Euro" unicode="&#x20ac;" horiz-adv-x="2125" 
d="M1303 604h-607q59 -223 428 -223q224 0 334.5 91t110.5 259v35h518v-12q0 -370 -245.5 -567t-733.5 -197q-425 0 -663 159.5t-295 454.5h-140v154h121v49v55q0 49 2 74h-123v154h146q63 284 299.5 436.5t652.5 152.5q487 0 733 -196.5t246 -564.5v-15h-518v35
q0 168 -110.5 259t-334.5 91q-347 0 -419 -198h598v-154h-619v-178h619v-154z" />
    <glyph glyph-name="indianrupee" unicode="&#x20b9;" horiz-adv-x="2011" 
d="M963 0l-906 610v287h828q128 0 190.5 30.5t79.5 112.5h-1098v144h1098q-17 82 -79.5 112.5t-190.5 30.5h-828v342h1923v-141h-505q149 -44 215 -127t75 -217h215v-144h-215q-14 -220 -188.5 -333t-532.5 -113h-124l878 -594h-835z" />
    <glyph glyph-name="litre" unicode="&#x2113;" horiz-adv-x="876" 
d="M659 524q0 -69 27 -100t86 -31h84v-393h-278q-258 0 -391.5 135.5t-133.5 409.5v1124h606v-1145z" />
    <glyph glyph-name="numero" unicode="&#x2116;" horiz-adv-x="3108" 
d="M2619 1679q234 0 351.5 -91.5t117.5 -262.5v-8q0 -171 -117.5 -262.5t-351.5 -91.5t-351.5 91.5t-117.5 262.5v8q0 171 117.5 262.5t351.5 91.5zM1548 0l-923 834v-834h-566v1475h547l924 -777v777h563v-1475h-545zM2619 1196q92 0 133 28t41 93v8q0 65 -41 93t-133 28
t-133 -28t-41 -93v-8q0 -65 41 -93t133 -28zM3035 766h-831v131h831v-131z" />
    <glyph glyph-name="uni2117" unicode="&#x2117;" horiz-adv-x="2004" 
d="M1968 844v-19q0 -408 -252 -621.5t-712 -213.5t-713.5 213.5t-253.5 621.5v19q0 408 253.5 621.5t713.5 213.5t712 -213.5t252 -621.5zM1802 825v19q0 341 -192 504t-606 163q-416 0 -607.5 -163t-191.5 -504v-19q0 -341 191.5 -504t607.5 -163q414 0 606 163t192 504z
M1126 547h-196v-254h-367v1100h563q276 0 394 -103t118 -319v-25q0 -203 -118.5 -301t-393.5 -98zM1108 1057h-178v-230h178q87 0 124.5 22.5t37.5 84.5v8q0 63 -38.5 89t-123.5 26z" />
    <glyph glyph-name="servicemark" unicode="&#x2120;" horiz-adv-x="741" 
d="M311 1354q0 -125 -131 -125q-73 0 -104 35t-31 112v6h78v-4q0 -39 12.5 -55t44.5 -16q28 0 40.5 10.5t12.5 36.5v4q0 27 -19 41.5t-62 30.5q-55 17 -81 43t-26 79v9q0 118 135 118q131 0 131 -135v-8h-78v8q0 32 -12.5 45t-40.5 13q-30 0 -42.5 -10.5t-12.5 -35.5v-2
q0 -20 16 -31t62 -28q56 -20 82 -50t26 -87v-4zM498 1239l-74 307v-307h-78v430h111l65 -256l68 256h104v-430h-76v305l-75 -305h-45z" />
    <glyph glyph-name="trademark" unicode="&#x2122;" horiz-adv-x="671" 
d="M174 1239h-84v354h-78v76h238v-76h-76v-354zM430 1239l-74 307v-307h-77v430h110l66 -256l61 256h111v-430h-78v305l-74 -305h-45z" />
    <glyph glyph-name="Omega" unicode="&#x2126;" horiz-adv-x="2256" 
d="M1128 1194q-248 0 -365.5 -81t-117.5 -253v-14q0 -172 106.5 -294t338.5 -216v-336h-1049v369h860q-231 31 -396.5 86t-268.5 136t-151 183.5t-48 233.5v34q0 146 65.5 261.5t197 200t341.5 130t487 45.5t487 -45.5t342 -130t197.5 -200t65.5 -261.5v-34
q0 -131 -48 -233.5t-151 -183.5t-268.5 -136t-396.5 -86h860v-369h-1049v336q232 94 338.5 216t106.5 294v14q0 172 -118 253t-366 81z" />
    <glyph glyph-name="estimated" unicode="&#x212e;" horiz-adv-x="1708" 
d="M324 788v-520q84 -92 222 -148.5t308 -56.5q121 0 233 36.5t199 99t152.5 142t105.5 169.5h80q-92 -227 -300.5 -373.5t-469.5 -146.5q-245 0 -434.5 104.5t-294.5 296.5t-105 443q0 186 65 345t177.5 268t265.5 170.5t326 61.5q181 0 337.5 -67t264.5 -181t170 -269
t62 -328q0 -8 -1 -22.5t-1 -23.5h-1362zM324 862h1077v508q-80 101 -224.5 166.5t-322.5 65.5q-159 0 -304 -61.5t-226 -154.5v-524z" />
    <glyph glyph-name="arrowleft" unicode="&#x2190;" horiz-adv-x="1884" 
d="M20 717v41l635 635h564l-476 -449h1121v-414h-1121l476 -448h-564z" />
    <glyph glyph-name="arrowup" unicode="&#x2191;" horiz-adv-x="1884" 
d="M1597 512l-448 475v-987h-414v987l-448 -475v532l635 635h41l634 -635v-532z" />
    <glyph glyph-name="arrowright" unicode="&#x2192;" horiz-adv-x="1884" 
d="M1864 717l-635 -635h-563l475 448h-1121v414h1121l-475 449h563l635 -635v-41z" />
    <glyph glyph-name="arrowdown" unicode="&#x2193;" horiz-adv-x="1884" 
d="M1597 625l-634 -635h-41l-635 635v532l448 -475v987h414v-987l448 475v-532z" />
    <glyph glyph-name="arrowleftright" unicode="&#x2194;" horiz-adv-x="2723" 
d="M20 717v41l605 635h563l-457 -449h1262l-457 449h563l604 -635v-41l-604 -635h-563l457 448h-1262l457 -448h-563z" />
    <glyph glyph-name="uni21A9" unicode="&#x21a9;" horiz-adv-x="1884" 
d="M20 717v41l605 635h563l-457 -449h719v725h414v-1139h-1133l457 -448h-563z" />
    <glyph glyph-name="uni21AA" unicode="&#x21aa;" horiz-adv-x="1884" 
d="M434 1669v-725h719l-457 449h564l604 -635v-41l-604 -635h-564l457 448h-1133v1139h414z" />
    <glyph glyph-name="partialdiff" unicode="&#x2202;" horiz-adv-x="2072" 
d="M1442 680v131q0 258 -86.5 362.5t-298.5 104.5h-355v391h363q491 0 728 -215t237 -637v-121q0 -706 -990 -706q-987 0 -987 563v37q0 141 41 244t130.5 176t235.5 109t351 36q322 0 476.5 -123t154.5 -352zM1442 582v24q0 94 -93.5 137t-293.5 43q-209 0 -302.5 -46
t-93.5 -152v-31q0 -99 88 -139.5t289 -40.5q221 0 313.5 45t92.5 160z" />
    <glyph glyph-name="Delta" unicode="&#x2206;" horiz-adv-x="2187" 
d="M1546 1669l625 -1669h-2155l621 1669h909zM735 369h717l-358 966z" />
    <glyph glyph-name="product" unicode="&#x220f;" horiz-adv-x="2154" 
d="M1489 -102v1259h-825v-1259h-605v1771h2036v-1771h-606z" />
    <glyph glyph-name="summation" unicode="&#x2211;" horiz-adv-x="1720" 
d="M59 -102v675l1004 207l-1004 238v651h1616v-452h-1026l948 -216v-436l-938 -211h1016v-456h-1616z" />
    <glyph glyph-name="minus" unicode="&#x2212;" horiz-adv-x="1392" 
d="M1346 672h-1301v266h1301v-266z" />
    <glyph glyph-name="radical" unicode="&#x221a;" horiz-adv-x="1742" 
d="M1249 1669h486l-553 -1669h-654l-520 1270h533l329 -926z" />
    <glyph glyph-name="infinity" unicode="&#x221e;" horiz-adv-x="1392" 
d="M399 1163q102 0 179 -40.5t122 -114.5q81 94 228 94q133 0 211 -81.5t78 -215.5q0 -129 -78.5 -209t-210.5 -80q-144 0 -230 92q-44 -72 -121 -112.5t-178 -40.5q-163 0 -260.5 97.5t-97.5 252.5q0 162 97 260t261 98zM401 979q-176 0 -176 -174q0 -81 44.5 -124.5
t131.5 -43.5q83 0 127.5 44t44.5 124q0 86 -44 130t-128 44zM926 940q-138 0 -138 -135q0 -127 138 -127q63 0 96 32.5t33 94.5q0 135 -129 135z" />
    <glyph glyph-name="integral" unicode="&#x222b;" horiz-adv-x="843" 
d="M739 365q0 -230 -123 -348.5t-352 -118.5h-241v483h26q88 0 88 94v727q0 229 124.5 348t352.5 119h275v-483h-60q-90 0 -90 -94v-727z" />
    <glyph glyph-name="approxequal" unicode="&#x2248;" horiz-adv-x="1392" 
d="M975 999q-89 0 -166.5 16.5t-124 36t-107 36t-118.5 16.5q-68 0 -93.5 -27t-25.5 -86h-295q0 340 379 340q88 0 165.5 -16.5t124 -35.5t109 -35.5t123.5 -16.5q63 0 87 26.5t24 85.5h295q0 -179 -101 -259.5t-276 -80.5zM975 279q-89 0 -166.5 16.5t-124 35.5t-107 35.5
t-118.5 16.5q-68 0 -93.5 -27t-25.5 -86h-295q0 340 379 340q88 0 165.5 -16t124 -36t109 -36t123.5 -16q63 0 87 26.5t24 85.5h295q0 -339 -377 -339z" />
    <glyph glyph-name="notequal" unicode="&#x2260;" horiz-adv-x="1392" 
d="M45 299v268h330l364 475h-694v269h899l125 162h277l-125 -162h125v-269h-330l-365 -475h695v-268h-900l-122 -160h-279l123 160h-123z" />
    <glyph glyph-name="lessequal" unicode="&#x2264;" horiz-adv-x="1392" 
d="M57 866v162l672 291h604l-878 -373l878 -368h-602zM1346 233h-1301v269h1301v-269z" />
    <glyph glyph-name="greaterequal" unicode="&#x2265;" horiz-adv-x="1392" 
d="M1335 866l-676 -288h-600l879 368l-879 373h605l671 -291v-162zM45 233v269h1301v-269h-1301z" />
    <glyph glyph-name="uni2295" unicode="&#x2295;" horiz-adv-x="1615" 
d="M807 -23q-205 0 -370.5 93.5t-259 259.5t-93.5 372q0 205 93.5 370.5t259 259t370.5 93.5q206 0 372 -93.5t259.5 -259t93.5 -370.5q0 -206 -93.5 -372t-259.5 -259.5t-372 -93.5zM807 1300q-254 0 -417 -164t-163 -434q0 -271 163 -435.5t417 -164.5t418 164.5
t164 435.5q0 134 -44 247t-121.5 189.5t-184.5 119t-232 42.5zM412 639v125h327v344h135v-344h330v-125h-330v-344h-135v344h-327z" />
    <glyph glyph-name="uni2296" unicode="&#x2296;" horiz-adv-x="1615" 
d="M807 -23q-205 0 -370.5 93.5t-259 259.5t-93.5 372q0 205 93.5 370.5t259 259t370.5 93.5q206 0 372 -93.5t259.5 -259t93.5 -370.5q0 -206 -93.5 -372t-259.5 -259.5t-372 -93.5zM807 1300q-254 0 -417 -164t-163 -434q0 -271 163 -435.5t417 -164.5t418 164.5
t164 435.5q0 134 -44 247t-121.5 189.5t-184.5 119t-232 42.5zM412 639v125h792v-125h-792z" />
    <glyph glyph-name="uni2297" unicode="&#x2297;" horiz-adv-x="1615" 
d="M807 -23q-205 0 -370.5 93.5t-259 259.5t-93.5 372q0 205 93.5 370.5t259 259t370.5 93.5q206 0 372 -93.5t259.5 -259t93.5 -370.5q0 -206 -93.5 -372t-259.5 -259.5t-372 -93.5zM807 1300q-254 0 -417 -164t-163 -434q0 -271 163 -435.5t417 -164.5t418 164.5
t164 435.5q0 134 -44 247t-121.5 189.5t-184.5 119t-232 42.5zM569 377l-86 88l236 235l-242 244l88 90l244 -243l235 235l89 -86l-236 -235l242 -244l-90 -90l-242 243z" />
    <glyph glyph-name="uni2298" unicode="&#x2298;" horiz-adv-x="1615" 
d="M807 -23q-205 0 -370.5 93.5t-259 259.5t-93.5 372q0 205 93.5 370.5t259 259t370.5 93.5q206 0 372 -93.5t259.5 -259t93.5 -370.5q0 -206 -93.5 -372t-259.5 -259.5t-372 -93.5zM227 702q0 -219 109 -372l846 846q-155 124 -375 124q-254 0 -417 -164t-163 -434z
M807 102q254 0 418 164.5t164 435.5q0 218 -111 373l-846 -846q152 -127 375 -127z" />
    <glyph glyph-name="uni23CF" unicode="&#x23cf;" horiz-adv-x="1994" 
d="M997 1317l705 -705h-1409zM293 408h1409v-285h-1409v285z" />
    <glyph glyph-name="uni23E9" unicode="&#x23e9;" horiz-adv-x="1994" 
d="M1802 705l-704 -705v1409zM1044 705l-704 -705v1409z" />
    <glyph glyph-name="uni23EA" unicode="&#x23ea;" horiz-adv-x="1994" 
d="M193 705l704 704v-1409zM952 705l705 704v-1409z" />
    <glyph glyph-name="uni23EB" unicode="&#x23eb;" horiz-adv-x="1994" 
d="M997 1464l705 -704h-1409zM997 705l705 -705h-1409z" />
    <glyph glyph-name="uni23EC" unicode="&#x23ec;" horiz-adv-x="1994" 
d="M995 715l-704 704h1409zM995 -43l-704 702h1409z" />
    <glyph glyph-name="uni23ED" unicode="&#x23ed;" horiz-adv-x="1994" 
d="M1896 0h-286v1409h286v-1409zM803 705l-705 -705v1409zM1563 705l-705 -705v1409z" />
    <glyph glyph-name="uni23EE" unicode="&#x23ee;" horiz-adv-x="1994" 
d="M98 0v1409h285v-1409h-285zM1192 705l704 704v-1409zM432 705l705 704v-1409z" />
    <glyph glyph-name="uni23EF" unicode="&#x23ef;" horiz-adv-x="1994" 
d="M975 705l-705 -705v1409zM1024 0v1409h285v-1409h-285zM1444 0v1409h285v-1409h-285z" />
    <glyph glyph-name="uni23F8" unicode="&#x23f8;" horiz-adv-x="1994" 
d="M494 0v1409h370v-1409h-370zM1133 0v1409h372v-1409h-372z" />
    <glyph glyph-name="uni23F9" unicode="&#x23f9;" horiz-adv-x="1994" 
d="M1700 0h-1409v1409h1409v-1409z" />
    <glyph glyph-name="uni23FA" unicode="&#x23fa;" horiz-adv-x="1994" 
d="M995 115q-125 0 -234.5 47t-186 126.5t-120.5 188t-44 228.5q0 122 44 230.5t120.5 187.5t186 125t234.5 46q167 0 301.5 -78.5t209.5 -213t75 -297.5q0 -120 -44 -228.5t-121 -188t-186.5 -126.5t-234.5 -47z" />
    <glyph glyph-name="lozenge" unicode="&#x25ca;" horiz-adv-x="1306" 
d="M25 834l417 835h422l418 -835l-418 -834h-422zM383 834l270 -529l271 529l-271 530z" />
    <glyph glyph-name="uni25D0" unicode="&#x25d0;" horiz-adv-x="2084" 
d="M1042 -23q-206 0 -372 93.5t-259.5 259.5t-93.5 372q0 205 93.5 370.5t259.5 259t372 93.5q205 0 370.5 -93.5t259 -259t93.5 -370.5q0 -206 -93.5 -372t-259 -259.5t-370.5 -93.5zM1042 102q252 0 416 168t164 432q0 173 -75 310.5t-207.5 214t-297.5 76.5v-1201z" />
    <glyph glyph-name="uni25D1" unicode="&#x25d1;" horiz-adv-x="2084" 
d="M1042 1425q205 0 370.5 -93.5t259 -259t93.5 -370.5q0 -206 -93.5 -372t-259 -259.5t-370.5 -93.5q-206 0 -372 93.5t-259.5 259.5t-93.5 372q0 205 93.5 370.5t259.5 259t372 93.5zM1042 1303q-124 0 -231.5 -45t-184.5 -123.5t-121 -190.5t-44 -242q0 -174 75.5 -311.5
t207.5 -213t298 -75.5v1201z" />
    <glyph glyph-name="uni25D2" unicode="&#x25d2;" horiz-adv-x="2084" 
d="M1765 702q0 -206 -93.5 -372t-259 -259.5t-370.5 -93.5q-206 0 -372 93.5t-259.5 259.5t-93.5 372q0 205 93.5 370.5t259.5 259t372 93.5q205 0 370.5 -93.5t259 -259t93.5 -370.5zM1628 705q0 131 -45 242.5t-123.5 188t-186 119.5t-231.5 43q-166 0 -299 -73.5
t-209.5 -209t-76.5 -310.5h1171z" />
    <glyph glyph-name="uni25D3" unicode="&#x25d3;" horiz-adv-x="2084" 
d="M1765 702q0 -206 -93.5 -372t-259 -259.5t-370.5 -93.5q-206 0 -372 93.5t-259.5 259.5t-93.5 372q0 205 93.5 370.5t259.5 259t372 93.5q205 0 370.5 -93.5t259 -259t93.5 -370.5zM1628 700h-1171q0 -176 76.5 -312t209.5 -209t299 -73q165 0 298.5 73t210.5 209.5
t77 311.5z" />
    <glyph glyph-name="uni25D4" unicode="&#x25d4;" horiz-adv-x="2084" 
d="M1765 702q0 -206 -93.5 -372t-259 -259.5t-370.5 -93.5q-206 0 -372 93.5t-259.5 259.5t-93.5 372q0 205 93.5 370.5t259.5 259t372 93.5q205 0 370.5 -93.5t259 -259t93.5 -370.5zM1042 1298v-596h584q0 171 -76.5 307.5t-210 212.5t-297.5 76z" />
    <glyph glyph-name="uni25D5" unicode="&#x25d5;" horiz-adv-x="2084" 
d="M317 702q0 205 93.5 370.5t259.5 259t372 93.5q205 0 370.5 -93.5t259 -259t93.5 -370.5q0 -206 -93.5 -372t-259 -259.5t-370.5 -93.5q-206 0 -372 93.5t-259.5 259.5t-93.5 372zM1042 1298q-250 0 -416.5 -168.5t-166.5 -427.5h583v596z" />
    <glyph glyph-name="uni25E7" unicode="&#x25e7;" horiz-adv-x="2084" 
d="M338 0v1409h1409v-1409h-1409zM1042 127h570v1155h-570v-1155z" />
    <glyph glyph-name="uni25E8" unicode="&#x25e8;" horiz-adv-x="2084" 
d="M1747 0h-1409v1409h1409v-1409zM1042 127v1155h-569v-1155h569z" />
    <glyph glyph-name="uni2610" unicode="&#x2610;" horiz-adv-x="1536" 
d="M154 0v1229h1228v-1229h-1228zM281 123h974v983h-974v-983z" />
    <glyph glyph-name="uni2611" unicode="&#x2611;" horiz-adv-x="1536" 
d="M154 0v1229h1228v-1229h-1228zM281 123h974v983h-974v-983zM821 283h-125l-266 481h131l195 -358l229 567h125z" />
    <glyph glyph-name="uni2612" unicode="&#x2612;" horiz-adv-x="1536" 
d="M154 0v1229h1228v-1229h-1228zM281 123h974v983h-974v-983zM535 938l233 -240l233 240l82 -80l-235 -242l235 -243l-82 -80l-233 239l-233 -239l-82 80l235 243l-235 242z" />
    <glyph glyph-name="heart" unicode="&#x2665;" horiz-adv-x="2142" 
d="M1071 1427q130 252 463 252q143 0 252.5 -42t177.5 -118.5t102.5 -179t34.5 -227.5v-35q0 -127 -27 -230.5t-73.5 -174.5t-107.5 -127.5t-131.5 -97.5t-143 -76.5t-144.5 -72t-133 -76t-111 -96t-77 -126.5h-164q-27 70 -77 126.5t-111 96t-133 76t-144.5 72t-143 76.5
t-131.5 97.5t-107.5 127.5t-73.5 174.5t-27 230.5v35q0 125 34.5 227.5t102.5 179t177.5 118.5t252.5 42q333 0 463 -252zM1071 362q35 57 92 106.5t117 85t125.5 71t123 74.5t104 86t73.5 115t27 153v22q0 268 -271 268q-76 0 -132.5 -24.5t-93.5 -73t-60 -105t-41 -136.5
h-127q-18 80 -41.5 136.5t-60.5 105t-93.5 73t-132.5 24.5q-270 0 -270 -268v-22q0 -85 27 -153t73.5 -115t103.5 -86t122.5 -74.5t125.5 -71t117 -85t92 -106.5z" />
    <glyph glyph-name="uni2690" unicode="&#x2690;" horiz-adv-x="1134" 
d="M158 1409h129v-90h30q82 0 144.5 -15t103 -37t82 -44t104.5 -37t146 -15h135v-663h-129q-97 0 -171.5 15t-121 36t-89.5 42.5t-101 36.5t-131 15h-2v-653h-129v1409zM874 637h29v407h-29q-85 0 -148.5 15t-103.5 36.5t-79 43t-97 36.5t-135 15h-24v-408h24q72 0 128 -15
t96 -36t81.5 -42.5t107 -36.5t150.5 -15z" />
    <glyph glyph-name="uni2691" unicode="&#x2691;" horiz-adv-x="1134" 
d="M158 1409h129v-90h30q82 0 144.5 -15t103 -37t82 -44t104.5 -37t146 -15h135v-663h-147q-92 0 -162.5 15t-114.5 36t-84.5 42.5t-95 36.5t-123.5 15h-18v-653h-129v1409z" />
    <glyph glyph-name="uni26AA" unicode="&#x26aa;" horiz-adv-x="1939" 
d="M25 831v7q0 202 54 355t166.5 263t294.5 166.5t431 56.5q944 0 944 -841v-7q0 -841 -944 -841q-249 0 -431 56.5t-294.5 166.5t-166.5 263t-54 355zM137 831q0 -377 200 -553t634 -176q432 0 631.5 176t199.5 553v7q0 377 -199.5 553t-631.5 176q-434 0 -634 -176
t-200 -553v-7z" />
    <glyph glyph-name="uni26AB" unicode="&#x26ab;" horiz-adv-x="1939" 
d="M25 831v7q0 202 54 355t166.5 263t294.5 166.5t431 56.5q944 0 944 -841v-7q0 -841 -944 -841q-249 0 -431 56.5t-294.5 166.5t-166.5 263t-54 355z" />
    <glyph glyph-name="uni2713" unicode="&#x2713;" horiz-adv-x="1536" 
d="M821 246h-125l-303 545h133l230 -420l264 649h125z" />
    <glyph glyph-name="uni2717" unicode="&#x2717;" horiz-adv-x="1536" 
d="M498 973l268 -275l268 275l84 -80l-270 -277l270 -276l-84 -80l-268 275l-268 -275l-82 80l270 276l-270 277z" />
    <glyph glyph-name="uni2780" unicode="&#x2780;" horiz-adv-x="1939" 
d="M25 831v7q0 202 54 355t166.5 263t294.5 166.5t431 56.5q944 0 944 -841v-7q0 -841 -944 -841q-249 0 -431 56.5t-294.5 166.5t-166.5 263t-54 355zM137 831q0 -377 200 -553t634 -176q432 0 631.5 176t199.5 553v7q0 377 -199.5 553t-631.5 176q-434 0 -634 -176
t-200 -553v-7zM1176 397h-291v559l-230 -84v283l303 119h218v-877z" />
    <glyph glyph-name="uni2781" unicode="&#x2781;" horiz-adv-x="1939" 
d="M25 831v7q0 202 54 355t166.5 263t294.5 166.5t431 56.5q944 0 944 -841v-7q0 -841 -944 -841q-249 0 -431 56.5t-294.5 166.5t-166.5 263t-54 355zM137 831q0 -377 200 -553t634 -176q432 0 631.5 176t199.5 553v7q0 377 -199.5 553t-631.5 176q-434 0 -634 -176
t-200 -553v-7zM1122 922v4q0 82 -145 82q-103 0 -139.5 -28.5t-36.5 -98.5v-4h-279v8q0 198 115.5 298.5t363.5 100.5q202 0 309 -73.5t107 -200.5v-2q0 -64 -17.5 -106.5t-70 -83t-149.5 -73.5t-256 -69h489v-279h-883v252q208 65 331 108.5t178.5 74t69 48t13.5 42.5z" />
    <glyph glyph-name="uni2782" unicode="&#x2782;" horiz-adv-x="1939" 
d="M25 831v7q0 202 54 355t166.5 263t294.5 166.5t431 56.5q944 0 944 -841v-7q0 -841 -944 -841q-249 0 -431 56.5t-294.5 166.5t-166.5 263t-54 355zM137 831q0 -377 200 -553t634 -176q432 0 631.5 176t199.5 553v7q0 377 -199.5 553t-631.5 176q-434 0 -634 -176
t-200 -553v-7zM999 387q-268 0 -383.5 86.5t-115.5 259.5v17h276v-13q0 -55 43.5 -80.5t153.5 -25.5q104 0 146 13t42 46v2q0 26 -20.5 37.5t-71.5 11.5h-178v203h125q66 0 94.5 10.5t28.5 36.5v4q0 56 -160 56q-103 0 -145.5 -27t-42.5 -84v-2h-275v10q0 336 477 336
q216 0 319 -59.5t103 -167.5v-8q0 -66 -36 -112t-109 -60q170 -28 170 -201v-10q0 -135 -109 -207t-332 -72z" />
    <glyph glyph-name="uni2783" unicode="&#x2783;" horiz-adv-x="1939" 
d="M25 831v7q0 202 54 355t166.5 263t294.5 166.5t431 56.5q944 0 944 -841v-7q0 -841 -944 -841q-249 0 -431 56.5t-294.5 166.5t-166.5 263t-54 355zM137 831q0 -377 200 -553t634 -176q432 0 631.5 176t199.5 553v7q0 377 -199.5 553t-631.5 176q-434 0 -634 -176
t-200 -553v-7zM1018 397v168h-539v201l361 508h487v-492h80v-217h-80v-168h-309zM807 782h229v328z" />
    <glyph glyph-name="uni2784" unicode="&#x2784;" horiz-adv-x="1939" 
d="M25 831v7q0 202 54 355t166.5 263t294.5 166.5t431 56.5q944 0 944 -841v-7q0 -841 -944 -841q-249 0 -431 56.5t-294.5 166.5t-166.5 263t-54 355zM137 831q0 -377 200 -553t634 -176q432 0 631.5 176t199.5 553v7q0 377 -199.5 553t-631.5 176q-434 0 -634 -176
t-200 -553v-7zM1438 688v-8q0 -149 -106.5 -221t-348.5 -72q-261 0 -368 69.5t-107 229.5v10h278v-4q0 -40 43.5 -59t143.5 -19q101 0 143.5 22.5t42.5 70.5v4q0 52 -37.5 72t-144.5 20q-178 0 -178 -55h-242v526h829v-242h-587v-276q0 105 74.5 155t226.5 50
q179 0 258.5 -65.5t79.5 -207.5z" />
    <glyph glyph-name="uni2785" unicode="&#x2785;" horiz-adv-x="1939" 
d="M25 831v7q0 202 54 355t166.5 263t294.5 166.5t431 56.5q944 0 944 -841v-7q0 -841 -944 -841q-249 0 -431 56.5t-294.5 166.5t-166.5 263t-54 355zM137 831q0 -377 200 -553t634 -176q432 0 631.5 176t199.5 553v7q0 377 -199.5 553t-631.5 176q-434 0 -634 -176
t-200 -553v-7zM971 387q-508 0 -508 424v18q0 99 32.5 181t97.5 143.5t169 96t239 34.5q222 0 341.5 -84t119.5 -219v-2h-299v2q0 38 -37 57t-122 19q-133 0 -186.5 -58t-53.5 -192q0 -80 6 -92q2 103 78.5 153t243.5 50q198 0 288 -59t90 -191v-6q0 -133 -132 -204
t-367 -71zM977 803q-103 0 -152.5 -23.5t-52.5 -74.5v-5q8 -48 55 -71t144 -23q108 0 152 22.5t44 69.5v7q0 51 -43 74.5t-147 23.5z" />
    <glyph glyph-name="uni2786" unicode="&#x2786;" horiz-adv-x="1939" 
d="M25 831v7q0 202 54 355t166.5 263t294.5 166.5t431 56.5q944 0 944 -841v-7q0 -841 -944 -841q-249 0 -431 56.5t-294.5 166.5t-166.5 263t-54 355zM137 831q0 -377 200 -553t634 -176q432 0 631.5 176t199.5 553v7q0 377 -199.5 553t-631.5 176q-434 0 -634 -176
t-200 -553v-7zM997 397h-362q34 135 150 292t288 302h-581v283h962v-201q-207 -210 -318 -383t-139 -293z" />
    <glyph glyph-name="uni2787" unicode="&#x2787;" horiz-adv-x="1939" 
d="M25 831v7q0 202 54 355t166.5 263t294.5 166.5t431 56.5q944 0 944 -841v-7q0 -841 -944 -841q-249 0 -431 56.5t-294.5 166.5t-166.5 263t-54 355zM137 831q0 -377 200 -553t634 -176q432 0 631.5 176t199.5 553v7q0 377 -199.5 553t-631.5 176q-434 0 -634 -176
t-200 -553v-7zM971 1284q459 0 459 -219v-8q0 -74 -46 -121t-151 -68q124 -24 185 -82t61 -143v-12q0 -85 -47 -137t-160 -79.5t-301 -27.5q-280 0 -395 58.5t-115 185.5v12q0 85 61 143t183 82q-104 21 -149.5 68t-45.5 121v8q0 219 461 219zM971 913q96 0 133 16.5
t37 57.5v4q0 42 -37 59t-133 17q-97 0 -134.5 -17t-37.5 -59v-4q0 -42 37 -58t135 -16zM971 592q109 0 150.5 17.5t41.5 60.5v4q0 44 -42 62t-150 18q-110 0 -152.5 -18t-42.5 -62v-4q0 -43 42 -60.5t153 -17.5z" />
    <glyph glyph-name="uni2788" unicode="&#x2788;" horiz-adv-x="1939" 
d="M25 831v7q0 202 54 355t166.5 263t294.5 166.5t431 56.5q944 0 944 -841v-7q0 -841 -944 -841q-249 0 -431 56.5t-294.5 166.5t-166.5 263t-54 355zM137 831q0 -377 200 -553t634 -176q432 0 631.5 176t199.5 553v7q0 377 -199.5 553t-631.5 176q-434 0 -634 -176
t-200 -553v-7zM965 1284q510 0 510 -424v-18q0 -205 -136.5 -330t-402.5 -125q-222 0 -341.5 84t-119.5 219v2h299v-2q0 -38 37.5 -57t122.5 -19q132 0 186 58t54 192q0 78 -7 92q-2 -103 -77.5 -152.5t-243.5 -49.5q-200 0 -289.5 59t-89.5 191v6q0 133 132 203.5t366 70.5
zM961 868q102 0 150.5 24t53.5 75l-2 4q-6 48 -52.5 71t-143.5 23q-109 0 -153 -22.5t-44 -69.5v-6q0 -51 43.5 -75t147.5 -24z" />
    <glyph glyph-name="uni2789" unicode="&#x2789;" horiz-adv-x="1939" 
d="M25 831v7q0 202 54 355t166.5 263t294.5 166.5t431 56.5q944 0 944 -841v-7q0 -841 -944 -841q-249 0 -431 56.5t-294.5 166.5t-166.5 263t-54 355zM137 831q0 -377 200 -553t634 -176q432 0 631.5 176t199.5 553v7q0 377 -199.5 553t-631.5 176q-434 0 -634 -176
t-200 -553v-7zM760 813v45q0 208 109.5 317t332.5 109q222 0 331 -109t109 -317v-45q0 -208 -109 -317t-331 -109q-223 0 -332.5 109t-109.5 317zM711 397h-291v553l-107 -39v289l181 74h217v-877zM1049 831q0 -95 35 -135.5t118 -40.5q82 0 118 40.5t36 135.5v9
q0 95 -36 135.5t-118 40.5q-83 0 -118 -40.5t-35 -135.5v-9z" />
    <glyph glyph-name="uni278A" unicode="&#x278a;" horiz-adv-x="1939" 
d="M25 831v7q0 202 54 355t166.5 263t294.5 166.5t431 56.5q944 0 944 -841v-7q0 -841 -944 -841q-249 0 -431 56.5t-294.5 166.5t-166.5 263t-54 355zM1176 397v877h-218l-303 -119v-283l230 84v-559h291z" />
    <glyph glyph-name="uni278B" unicode="&#x278b;" horiz-adv-x="1939" 
d="M25 831v7q0 202 54 355t166.5 263t294.5 166.5t431 56.5q944 0 944 -841v-7q0 -841 -944 -841q-249 0 -431 56.5t-294.5 166.5t-166.5 263t-54 355zM1122 922q0 -25 -13.5 -42.5t-69 -48t-178.5 -74t-331 -108.5v-252h883v279h-489q159 36 256 69t149.5 73.5t70 83
t17.5 106.5v2q0 127 -107 200.5t-309 73.5q-248 0 -363.5 -100.5t-115.5 -298.5v-8h279v4q0 70 36.5 98.5t139.5 28.5q145 0 145 -82v-4z" />
    <glyph glyph-name="uni278C" unicode="&#x278c;" horiz-adv-x="1939" 
d="M25 831v7q0 202 54 355t166.5 263t294.5 166.5t431 56.5q944 0 944 -841v-7q0 -841 -944 -841q-249 0 -431 56.5t-294.5 166.5t-166.5 263t-54 355zM999 387q223 0 332 72t109 207v10q0 173 -170 201q73 14 109 60t36 112v8q0 108 -103 167.5t-319 59.5q-477 0 -477 -336
v-10h275v2q0 57 42.5 84t145.5 27q160 0 160 -56v-4q0 -26 -28.5 -36.5t-94.5 -10.5h-125v-203h178q51 0 71.5 -11.5t20.5 -37.5v-2q0 -33 -42 -46t-146 -13q-110 0 -153.5 25.5t-43.5 80.5v13h-276v-17q0 -173 115.5 -259.5t383.5 -86.5z" />
    <glyph glyph-name="uni278D" unicode="&#x278d;" horiz-adv-x="1939" 
d="M25 831v7q0 202 54 355t166.5 263t294.5 166.5t431 56.5q944 0 944 -841v-7q0 -841 -944 -841q-249 0 -431 56.5t-294.5 166.5t-166.5 263t-54 355zM1018 397h309v168h80v217h-80v492h-487l-361 -508v-201h539v-168zM807 782l229 328v-328h-229z" />
    <glyph glyph-name="uni278E" unicode="&#x278e;" horiz-adv-x="1939" 
d="M25 831v7q0 202 54 355t166.5 263t294.5 166.5t431 56.5q944 0 944 -841v-7q0 -841 -944 -841q-249 0 -431 56.5t-294.5 166.5t-166.5 263t-54 355zM1438 688q0 142 -79.5 207.5t-258.5 65.5q-152 0 -226.5 -50t-74.5 -155v276h587v242h-829v-526h242q0 55 178 55
q107 0 144.5 -20t37.5 -72v-4q0 -48 -42.5 -70.5t-143.5 -22.5q-100 0 -143.5 19t-43.5 59v4h-278v-10q0 -160 107 -229.5t368 -69.5q242 0 348.5 72t106.5 221v8z" />
    <glyph glyph-name="uni278F" unicode="&#x278f;" horiz-adv-x="1939" 
d="M25 831v7q0 202 54 355t166.5 263t294.5 166.5t431 56.5q944 0 944 -841v-7q0 -841 -944 -841q-249 0 -431 56.5t-294.5 166.5t-166.5 263t-54 355zM971 387q235 0 367 71t132 204v6q0 132 -90 191t-288 59q-167 0 -243.5 -50t-78.5 -153q-6 12 -6 92q0 134 53.5 192
t186.5 58q85 0 122 -19t37 -57v-2h299v2q0 135 -119.5 219t-341.5 84q-135 0 -239 -34.5t-169 -96t-97.5 -143.5t-32.5 -181v-18q0 -424 508 -424zM977 803q104 0 147 -23.5t43 -74.5v-7q0 -47 -44 -69.5t-152 -22.5q-97 0 -144 23t-55 71v5q3 51 52.5 74.5t152.5 23.5z" />
    <glyph glyph-name="uni2790" unicode="&#x2790;" horiz-adv-x="1939" 
d="M25 831v7q0 202 54 355t166.5 263t294.5 166.5t431 56.5q944 0 944 -841v-7q0 -841 -944 -841q-249 0 -431 56.5t-294.5 166.5t-166.5 263t-54 355zM997 397q28 120 139 293t318 383v201h-962v-283h581q-172 -145 -288 -302t-150 -292h362z" />
    <glyph glyph-name="uni2791" unicode="&#x2791;" horiz-adv-x="1939" 
d="M25 831v7q0 202 54 355t166.5 263t294.5 166.5t431 56.5q944 0 944 -841v-7q0 -841 -944 -841q-249 0 -431 56.5t-294.5 166.5t-166.5 263t-54 355zM971 1284q-461 0 -461 -219v-8q0 -74 45.5 -121t149.5 -68q-122 -24 -183 -82t-61 -143v-12q0 -127 115 -185.5
t395 -58.5q188 0 301 27.5t160 79.5t47 137v12q0 85 -61 143t-185 82q105 21 151 68t46 121v8q0 219 -459 219zM971 913q-98 0 -135 16t-37 58v4q0 42 37.5 59t134.5 17q96 0 133 -17t37 -59v-4q0 -41 -37 -57.5t-133 -16.5zM971 592q-111 0 -153 17.5t-42 60.5v4
q0 44 42.5 62t152.5 18q108 0 150 -18t42 -62v-4q0 -43 -41.5 -60.5t-150.5 -17.5z" />
    <glyph glyph-name="uni2792" unicode="&#x2792;" horiz-adv-x="1939" 
d="M25 831v7q0 202 54 355t166.5 263t294.5 166.5t431 56.5q944 0 944 -841v-7q0 -841 -944 -841q-249 0 -431 56.5t-294.5 166.5t-166.5 263t-54 355zM965 1284q-234 0 -366 -70.5t-132 -203.5v-6q0 -132 89.5 -191t289.5 -59q168 0 243.5 49.5t77.5 152.5q7 -14 7 -92
q0 -134 -54 -192t-186 -58q-85 0 -122.5 19t-37.5 57v2h-299v-2q0 -135 119.5 -219t341.5 -84q266 0 402.5 125t136.5 330v18q0 424 -510 424zM961 868q-104 0 -147.5 24t-43.5 75v6q0 47 44 69.5t153 22.5q97 0 143.5 -23t52.5 -71l2 -4q-5 -51 -53.5 -75t-150.5 -24z" />
    <glyph glyph-name="uni2793" unicode="&#x2793;" horiz-adv-x="1939" 
d="M25 831v7q0 202 54 355t166.5 263t294.5 166.5t431 56.5q944 0 944 -841v-7q0 -841 -944 -841q-249 0 -431 56.5t-294.5 166.5t-166.5 263t-54 355zM760 813q0 -208 109.5 -317t332.5 -109q222 0 331 109t109 317v45q0 208 -109 317t-331 109q-223 0 -332.5 -109
t-109.5 -317v-45zM711 397v877h-217l-181 -74v-289l107 39v-553h291zM1049 831v9q0 95 35 135.5t118 40.5q82 0 118 -40.5t36 -135.5v-9q0 -95 -36 -135.5t-118 -40.5q-83 0 -118 40.5t-35 135.5z" />
    <glyph glyph-name="uni2913" unicode="&#x2913;" horiz-adv-x="1579" 
d="M1237 733l-446 -524l-449 524h172l209 -268v944h133v-946l209 270h172zM340 0v127h899v-127h-899z" />
    <glyph glyph-name="uni29B6" unicode="&#x29b6;" horiz-adv-x="1615" 
d="M807 -23q-205 0 -370.5 93.5t-259 259.5t-93.5 372q0 205 93.5 370.5t259 259t370.5 93.5q206 0 372 -93.5t259.5 -259t93.5 -370.5q0 -206 -93.5 -372t-259.5 -259.5t-372 -93.5zM1389 702q0 251 -143.5 411.5t-371.5 182.5v-1190q229 22 372 183t143 413zM227 702
q0 -252 142 -413t370 -183v1190q-228 -22 -370 -182.5t-142 -411.5z" />
    <glyph glyph-name="uni29B8" unicode="&#x29b8;" horiz-adv-x="1615" 
d="M807 -23q-205 0 -370.5 93.5t-259 259.5t-93.5 372q0 205 93.5 370.5t259 259t370.5 93.5q206 0 372 -93.5t259.5 -259t93.5 -370.5q0 -206 -93.5 -372t-259.5 -259.5t-372 -93.5zM807 1300q-221 0 -373 -124l844 -846q111 155 111 372q0 134 -44 247t-121.5 189.5
t-184.5 119t-232 42.5zM227 702q0 -271 163 -435.5t417 -164.5q222 0 377 127l-846 844q-111 -152 -111 -371z" />
    <glyph glyph-name="uni29BF" unicode="&#x29bf;" horiz-adv-x="1615" 
d="M807 -23q-205 0 -370.5 93.5t-259 259.5t-93.5 372q0 205 93.5 370.5t259 259t370.5 93.5q206 0 372 -93.5t259.5 -259t93.5 -370.5q0 -206 -93.5 -372t-259.5 -259.5t-372 -93.5zM807 1300q-254 0 -417 -164t-163 -434q0 -271 163 -435.5t417 -164.5t418 164.5
t164 435.5q0 134 -44 247t-121.5 189.5t-184.5 119t-232 42.5zM807 424q-120 0 -199.5 79t-79.5 199t79.5 199.5t199.5 79.5t199 -79.5t79 -199.5t-79 -199t-199 -79z" />
    <glyph glyph-name="uni2B12" unicode="&#x2b12;" horiz-adv-x="2084" 
d="M338 1409h1409v-1409h-1409v1409zM473 705v-578h1139v578h-1139z" />
    <glyph glyph-name="uni2B13" unicode="&#x2b13;" horiz-adv-x="2084" 
d="M338 0v1409h1409v-1409h-1409zM473 705h1139v577h-1139v-577z" />
    <glyph glyph-name="uni2B14" unicode="&#x2b14;" horiz-adv-x="2084" 
d="M338 0v1409h1409v-1409h-1409zM504 1282l1108 -1110v1110h-1108z" />
    <glyph glyph-name="uni2B15" unicode="&#x2b15;" horiz-adv-x="2084" 
d="M1747 1409v-1409h-1409v1409h1409zM473 1237v-1110h1108z" />
    <glyph glyph-name="uni2B16" unicode="&#x2b16;" horiz-adv-x="2084" 
d="M154 705l888 888l889 -888l-889 -889zM1761 705l-702 706v-1415z" />
    <glyph glyph-name="uni2B17" unicode="&#x2b17;" horiz-adv-x="2084" 
d="M1931 705l-889 -889l-888 889l888 888zM324 705l702 -709v1415z" />
    <glyph glyph-name="uni2B18" unicode="&#x2b18;" horiz-adv-x="2084" 
d="M1042 1593l889 -888l-889 -889l-888 889zM1042 -14l707 702h-1415z" />
    <glyph glyph-name="uni2B19" unicode="&#x2b19;" horiz-adv-x="2084" 
d="M1042 -184l-888 889l888 888l889 -888zM1042 1423l-708 -702h1415z" />
    <glyph glyph-name="J.ss01" unicode="&#xe000;" horiz-adv-x="2291" 
d="M1624 1669h604v-663q0 -524 -268.5 -770t-820.5 -246q-529 0 -809.5 223.5t-280.5 667.5v88h602v-76q0 -208 119 -294.5t373 -86.5q128 0 215.5 24t148.5 81.5t89 153t28 237.5v661z" />
    <glyph glyph-name="R.ss02" unicode="&#xe001;" horiz-adv-x="2002" 
d="M59 1669h1010q324 0 519.5 -59.5t278.5 -174.5t83 -300v-33q0 -294 -269 -414q145 -50 203 -155.5t58 -270.5v-262h-605v258q0 131 -65.5 180t-233.5 49h-374v-487h-605v1669zM1090 1255h-426v-346h430q132 0 190.5 37.5t58.5 132.5v13q0 94 -58.5 128.5t-194.5 34.5z
" />
    <glyph glyph-name="R.ss03" unicode="&#xe002;" horiz-adv-x="2015" 
d="M59 1669h1010q324 0 519.5 -59.5t278.5 -174.5t83 -300v-33q0 -289 -271 -414q141 -43 200.5 -140t59.5 -241v-37q0 -102 12 -157t54 -113h-606q-64 94 -64 231v25q0 139 -64 185t-235 46h-372v-487h-605v1669zM1090 1255h-426v-346h430q132 0 190.5 37.5t58.5 132.5v13
q0 94 -58.5 128.5t-194.5 34.5z" />
    <glyph glyph-name="caronSlovak" unicode="&#xe003;" horiz-adv-x="512" 
d="M350 1505h-205v164h289z" />
    <glyph glyph-name="commaaccent" unicode="&#xe004;" horiz-adv-x="512" 
d="M340 -205h-283l168 55h-178v113h440v-115z" />
    <glyph glyph-name="commaaccent.alt" unicode="&#xe005;" horiz-adv-x="512" 
d="M219 1688h279l-215 -62h209v-106h-443v108z" />
    <glyph glyph-name="idotaccent" unicode="&#xe009;" 
d="M360 1520q-88 0 -122.5 20t-34.5 66t34.5 66t122.5 20t123 -20t35 -66t-35 -66t-123 -20zM59 0v1475h605v-1475h-605z" />
    <glyph glyph-name="two.ss05" unicode="&#xe00a;" horiz-adv-x="2222" 
d="M74 219q0 177 34 299t116 209.5t213.5 136t330.5 70.5l522 57q166 21 226.5 46.5t60.5 66.5v6q0 37 -36 59.5t-134.5 35t-271.5 12.5q-200 0 -321 -22t-171.5 -63t-50.5 -106v-8h-514v18q0 310 275.5 476.5t838.5 166.5q495 0 749 -133t254 -387v-16q0 -94 -21.5 -164.5
t-72.5 -129.5t-137 -100.5t-214 -71.5t-306 -48l-510 -58q-118 -15 -171.5 -43.5t-64.5 -81.5h1438v-446h-2062v219z" />
    <glyph glyph-name="y.ss05" unicode="&#xe00b;" horiz-adv-x="2162" 
d="M911 -102l78 272h-440l-459 1305h610l342 -1123l416 1123h627l-633 -1577h-541z" />
    <glyph glyph-name="zero.slash" unicode="&#xe00c;" horiz-adv-x="2240" 
d="M31 0l256 203q-258 201 -258 592v79q0 805 1091 805q475 0 744 -153l180 143h168l-256 -203q256 -205 256 -592v-79q0 -805 -1092 -805q-472 0 -743 151l-180 -141h-166zM1120 1163q-260 0 -371.5 -73.5t-111.5 -247.5v-15q0 -165 96 -237l672 540q-103 33 -285 33z
M1606 842q0 163 -99 237l-669 -540q103 -33 282 -33q262 0 374 73.5t112 247.5v15z" />
    <glyph glyph-name="CR" horiz-adv-x="512" 
 />
    <glyph glyph-name="Q.stack" horiz-adv-x="2260" 
d="M1415 0v76q-150 -17 -285 -17q-552 0 -822.5 200t-270.5 568v84q0 368 270.5 568t822.5 200q277 0 485 -52.5t339.5 -153t196.5 -241t65 -321.5v-84q0 -220 -121 -368h121v-459h-801zM1610 879q0 105 -45.5 170.5t-153 100t-285.5 34.5q-262 0 -371.5 -73.5
t-109.5 -231.5v-19q0 -158 109.5 -231.5t371.5 -73.5q178 0 285.5 34.5t153 100t45.5 170.5v19z" />
    <glyph glyph-name="Agrave.stack" horiz-adv-x="2187" 
d="M637 1618v61l909 -24v-37h-909zM1589 0l-110 289h-770l-111 -289h-582l621 1608h909l625 -1608h-582zM852 659h483l-241 627z" />
    <glyph glyph-name="Aacute.stack" horiz-adv-x="2187" 
d="M1546 1618h-909v37l909 24v-61zM1589 0l-110 289h-770l-111 -289h-582l621 1608h909l625 -1608h-582zM852 659h483l-241 627z" />
    <glyph glyph-name="Acircumflex.stack" horiz-adv-x="2187" 
d="M1190 1618l-96 37l-95 -37h-358l109 51h688l106 -51h-354zM1589 0l-110 289h-770l-111 -289h-582l621 1608h909l625 -1608h-582zM852 659h483l-241 627z" />
    <glyph glyph-name="Atilde.stack" horiz-adv-x="2187" 
d="M1544 1669q0 -51 -227 -51q-93 0 -206 5t-169 5q-61 0 -61 -10h-244q0 51 227 51q95 0 207.5 -5t167.5 -5q64 0 64 10h241zM2171 0h-582l-110 289h-770l-111 -289h-582l621 1608h909zM852 659h483l-241 627z" />
    <glyph glyph-name="Adieresis.stack" horiz-adv-x="2187" 
d="M637 1622v41h416v-41h-416zM1546 1622h-413v41h413v-41zM1589 0l-110 289h-770l-111 -289h-582l621 1608h909l625 -1608h-582zM852 659h483l-241 627z" />
    <glyph glyph-name="Amacron.stack" horiz-adv-x="2187" 
d="M541 1622v41h1106v-41h-1106zM1589 0l-110 289h-770l-111 -289h-582l621 1608h909l625 -1608h-582zM852 659h483l-241 627z" />
    <glyph glyph-name="Abreve.stack" horiz-adv-x="2187" 
d="M1094 1645q205 0 217 24h248q-1 -17 -39 -27.5t-143.5 -17t-282.5 -6.5q-178 0 -284 6.5t-144 17t-39 27.5h247q12 -24 220 -24zM1589 0l-110 289h-770l-111 -289h-582l621 1608h909l625 -1608h-582zM852 659h483l-241 627z" />
    <glyph glyph-name="Aring.stack" horiz-adv-x="2187" 
d="M1589 0l-110 289h-770l-111 -289h-582l621 1608h387v6q0 26 19 41.5t51 15.5t50.5 -15.5t18.5 -41.5v-6h383l625 -1608h-582zM1094 1649q-20 0 -30.5 -9.5t-10.5 -25.5v-6h82v6q0 16 -10.5 25.5t-30.5 9.5zM852 659h483l-241 627z" />
    <glyph glyph-name="Aringacute.stack" horiz-adv-x="2187" 
d="M637 1618v37l909 24v-61h-909zM1589 0l-116 289h-758l-117 -289h-582l621 1546h387v6q0 26 19 42t51 16t50.5 -16t18.5 -42v-6h383l625 -1546h-582zM1094 1587q-20 0 -30.5 -9.5t-10.5 -25.5v-6h82v6q0 16 -10.5 25.5t-30.5 9.5zM862 659h461l-229 574z" />
    <glyph glyph-name="Aogonek.stack" horiz-adv-x="2187" 
d="M1589 61l-110 289h-770l-111 -289h-582l621 1608h909l625 -1608h-404q-59 -15 -73.5 -21t-14.5 -15q0 -11 23 -11q24 0 24 9v4h166v-4q0 -29 -225 -29q-115 0 -154.5 5.5t-39.5 20.5q0 28 174 41h-58zM852 721h483l-241 627z" />
    <glyph glyph-name="AEacute.stack" horiz-adv-x="3092" 
d="M2161 1618h-824v37l824 24v-61zM-6 0l1087 1608h1966v-443h-1011v-147h934v-414h-934v-162h1011v-442h-1615v451h-551l-295 -451h-592zM1122 819h310v473z" />
    <glyph glyph-name="Cacute.stack" horiz-adv-x="2256" 
d="M1542 1618h-823v37l823 24v-61zM1612 754h608v-15q0 -363 -272 -556t-815 -193q-553 0 -824.5 200t-271.5 568v82q0 368 271.5 568t824.5 200q541 0 814 -193.5t273 -556.5v-14h-608v8q0 240 -488 240q-176 0 -282.5 -32.5t-151.5 -93t-45 -157.5v-21q0 -97 45 -157.5
t151.5 -92.5t282.5 -32q488 0 488 239v9z" />
    <glyph glyph-name="Ccircumflex.stack" horiz-adv-x="2256" 
d="M1225 1618l-95 37l-96 -37h-311l108 51h599l106 -51h-311zM1612 754h608v-15q0 -363 -272 -556t-815 -193q-553 0 -824.5 200t-271.5 568v82q0 368 271.5 568t824.5 200q541 0 814 -193.5t273 -556.5v-14h-608v8q0 240 -488 240q-176 0 -282.5 -32.5t-151.5 -93
t-45 -157.5v-21q0 -97 45 -157.5t151.5 -92.5t282.5 -32q488 0 488 239v9z" />
    <glyph glyph-name="Ccaron.stack" horiz-adv-x="2256" 
d="M1225 1669h311l-106 -51h-599l-108 51h311l96 -37zM1612 754h608v-15q0 -363 -272 -556t-815 -193q-553 0 -824.5 200t-271.5 568v82q0 368 271.5 568t824.5 200q541 0 814 -193.5t273 -556.5v-14h-608v8q0 240 -488 240q-176 0 -282.5 -32.5t-151.5 -93t-45 -157.5v-21
q0 -97 45 -157.5t151.5 -92.5t282.5 -32q488 0 488 239v9z" />
    <glyph glyph-name="Cdotaccent.stack" horiz-adv-x="2256" 
d="M1612 754h608v-15q0 -363 -272 -556t-815 -193q-553 0 -824.5 200t-271.5 568v82q0 348 243.5 546.5t739.5 219.5q5 33 30.5 49t79.5 16q102 0 111 -65q487 -20 733 -212t246 -536v-14h-608v8q0 240 -488 240q-176 0 -282.5 -32.5t-151.5 -93t-45 -157.5v-21
q0 -97 45 -157.5t151.5 -92.5t282.5 -32q488 0 488 239v9z" />
    <glyph glyph-name="Ccedilla.stack" horiz-adv-x="2256" 
d="M1612 819h608v-14q0 -333 -226.5 -524.5t-678.5 -223.5l-8 -57h-312l27 53q-497 21 -741 220.5t-244 549.5v84q0 182 65.5 323t198.5 242t342.5 154t489.5 53q541 0 814 -194.5t273 -558.5v-13h-608v9q0 237 -488 237q-176 0 -282.5 -31.5t-151.5 -92t-45 -158.5v-21
q0 -99 45 -160.5t151 -93t283 -31.5q488 0 488 240v8z" />
    <glyph glyph-name="Dcaron.stack" horiz-adv-x="2170" 
d="M1192 1669h311l-108 -51h-598l-109 51h311l97 -37zM59 0v1608h981q298 0 508 -49t340 -149t189 -243t59 -340v-65q0 -193 -59 -332.5t-189 -237t-340 -145t-508 -47.5h-981zM1069 1104h-405v-604h405q237 0 346 62.5t109 219.5v21q0 169 -109 235t-346 66z" />
    <glyph glyph-name="Egrave.stack" horiz-adv-x="1744" 
d="M377 1618v61l983 -24v-37h-983zM1702 440v-440h-1643v1608h1643v-441h-1038v-143h960v-414h-960v-170h1038z" />
    <glyph glyph-name="Eacute.stack" horiz-adv-x="1744" 
d="M1360 1618h-983v37l983 24v-61zM1702 440v-440h-1643v1608h1643v-441h-1038v-143h960v-414h-960v-170h1038z" />
    <glyph glyph-name="Ecircumflex.stack" horiz-adv-x="1744" 
d="M965 1618l-97 37l-94 -37h-311l106 51h598l109 -51h-311zM1702 440v-440h-1643v1608h1643v-441h-1038v-143h960v-414h-960v-170h1038z" />
    <glyph glyph-name="Ecaron.stack" horiz-adv-x="1744" 
d="M965 1669h311l-109 -51h-598l-106 51h311l94 -37zM1702 440v-440h-1643v1608h1643v-441h-1038v-143h960v-414h-960v-170h1038z" />
    <glyph glyph-name="Edieresis.stack" horiz-adv-x="1744" 
d="M457 1622v41h370v-41h-370zM1280 1622h-369v41h369v-41zM1702 440v-440h-1643v1608h1643v-441h-1038v-143h960v-414h-960v-170h1038z" />
    <glyph glyph-name="Emacron.stack" horiz-adv-x="1744" 
d="M457 1622v41h823v-41h-823zM1702 440v-440h-1643v1608h1643v-441h-1038v-143h960v-414h-960v-170h1038z" />
    <glyph glyph-name="Ebreve.stack" horiz-adv-x="1744" 
d="M868 1645q181 0 189 24h217q-1 -17 -34.5 -27.5t-125.5 -17t-246 -6.5q-153 0 -244 6.5t-124.5 17t-34.5 27.5h215q8 -24 188 -24zM1702 440v-440h-1643v1608h1643v-441h-1038v-143h960v-414h-960v-170h1038z" />
    <glyph glyph-name="Edotaccent.stack" horiz-adv-x="1744" 
d="M868 1671q100 0 109 -63h725v-441h-1038v-143h960v-414h-960v-170h1038v-440h-1643v1608h701q9 63 108 63z" />
    <glyph glyph-name="Eogonek.stack" horiz-adv-x="1744" 
d="M1577 61q-59 -15 -73.5 -21t-14.5 -15q0 -11 22 -11q25 0 25 9v4h166v-4q0 -29 -223 -29q-116 0 -156.5 5.5t-40.5 20.5q0 28 174 41h-1397v1608h1643v-442h-1038v-142h960v-413h-960v-168h1038v-443h-125z" />
    <glyph glyph-name="Gcircumflex.stack" horiz-adv-x="2271" 
d="M1225 1618l-95 37l-96 -37h-311l108 51h599l106 -51h-311zM1094 -10q-551 0 -804 193.5t-253 600.5v47q0 372 270.5 574.5t822.5 202.5q529 0 809.5 -181.5t280.5 -486.5v-6h-602v4q0 91 -129.5 144t-358.5 53q-259 0 -372 -80.5t-113 -263.5v-17q0 -172 112.5 -252
t366.5 -80q132 0 227 12t178.5 49t125.5 101h-527v260h1092v-864h-311l-62 283q-29 -54 -93 -105t-157 -93.5t-224.5 -68.5t-278.5 -26z" />
    <glyph glyph-name="Gbreve.stack" horiz-adv-x="2271" 
d="M1130 1645q181 0 189 24h215q-1 -17 -34.5 -27.5t-125 -17t-244.5 -6.5q-154 0 -245.5 6.5t-125 17t-34.5 27.5h217q8 -24 188 -24zM1094 -10q-551 0 -804 193.5t-253 600.5v47q0 372 270.5 574.5t822.5 202.5q529 0 809.5 -181.5t280.5 -486.5v-6h-602v4
q0 91 -129.5 144t-358.5 53q-259 0 -372 -80.5t-113 -263.5v-17q0 -172 112.5 -252t366.5 -80q132 0 227 12t178.5 49t125.5 101h-527v260h1092v-864h-311l-62 283q-29 -54 -93 -105t-157 -93.5t-224.5 -68.5t-278.5 -26z" />
    <glyph glyph-name="Gdotaccent.stack" horiz-adv-x="2271" 
d="M1094 -10q-551 0 -804 193.5t-253 600.5v47q0 353 243.5 553.5t739.5 221.5q5 33 30.5 49t79.5 16q102 0 111 -65q477 -20 728 -198.5t251 -467.5v-6h-602v4q0 91 -129.5 144t-358.5 53q-259 0 -372 -80.5t-113 -263.5v-17q0 -172 112.5 -252t366.5 -80q132 0 227 12
t178.5 49t125.5 101h-527v260h1092v-864h-311l-62 283q-29 -54 -93 -105t-157 -93.5t-224.5 -68.5t-278.5 -26z" />
    <glyph glyph-name="Gcommaaccent.stack" horiz-adv-x="2271" 
d="M1094 51q-369 0 -603.5 88t-344 263.5t-109.5 447.5v49q0 374 270.5 577t822.5 203q267 0 475.5 -49t342.5 -138t203 -211.5t69 -272.5v-7h-602v5q0 97 -132.5 156t-361.5 59q-255 0 -367 -85t-112 -280v-18q0 -181 112.5 -265t366.5 -84q97 0 172 7t146.5 24.5t124 52
t84.5 84.5h-523v275h1092v-871h-311l-62 285q-61 -117 -264 -206t-489 -89zM1241 0h-274l24 41h283z" />
    <glyph glyph-name="Hcircumflex.stack" horiz-adv-x="2152" 
d="M1171 1618l-94 37l-96 -37h-311l108 51h596l109 -51h-312zM1487 0v586h-823v-586h-605v1608h605v-510h823v510h606v-1608h-606z" />
    <glyph glyph-name="Igrave.stack" 
d="M59 1618v61l605 -24v-37h-605zM59 0v1608h605v-1608h-605z" />
    <glyph glyph-name="Iacute.stack" 
d="M664 1618h-605v37l605 24v-61zM59 0v1608h605v-1608h-605z" />
    <glyph glyph-name="Icircumflex.stack" 
d="M451 1618l-89 37l-88 -37h-215l105 51h397l103 -51h-213zM59 0v1608h605v-1608h-605z" />
    <glyph glyph-name="Itilde.stack" 
d="M512 1618q-63 0 -138 5t-112 5q-41 0 -41 -10h-162q0 51 154 51q61 0 136.5 -5t113.5 -5q41 0 41 10h160q0 -51 -152 -51zM59 0v1608h605v-1608h-605z" />
    <glyph glyph-name="Idieresis.stack" 
d="M59 1622v41h269v-41h-269zM664 1622h-267v41h267v-41zM59 0v1608h605v-1608h-605z" />
    <glyph glyph-name="Imacron.stack" 
d="M668 1622h-611v41h611v-41zM59 0v1608h605v-1608h-605z" />
    <glyph glyph-name="Ibreve.stack" 
d="M360 1645q138 0 142 24h162q0 -10 -8.5 -17.5t-29.5 -14t-55 -10.5t-87 -6.5t-124 -2.5q-87 0 -147 3.5t-93.5 10.5t-47.5 16t-15 21h164q4 -24 139 -24zM59 0v1608h605v-1608h-605z" />
    <glyph glyph-name="Idotaccent.stack" 
d="M59 0v1608h195q9 63 108 63q100 0 109 -63h193v-1608h-605z" />
    <glyph glyph-name="Iogonek.stack" 
d="M59 61v1608h605v-1608h-203q-59 -15 -73.5 -21t-14.5 -15q0 -11 22 -11q25 0 25 9v4h166v-4q0 -29 -226 -29q-115 0 -154.5 5.5t-39.5 20.5q0 28 174 41h-281z" />
    <glyph glyph-name="Jcircumflex.stack" horiz-adv-x="1245" 
d="M971 1618l-88 37l-88 -37h-215l102 51h399l103 -51h-213zM23 0v528h170q195 0 291 106t96 327v647h604v-748q0 -454 -212.5 -657t-645.5 -203h-303z" />
    <glyph glyph-name="Jcircumflex.ss01" horiz-adv-x="2291" 
d="M2017 1737l-92 53l-92 -53h-256l135 127h426l135 -127h-256zM1624 1669h604v-663q0 -524 -268.5 -770t-820.5 -246q-529 0 -809.5 223.5t-280.5 667.5v88h602v-76q0 -208 119 -294.5t373 -86.5q128 0 215.5 24t148.5 81.5t89 153t28 237.5v661z" />
    <glyph glyph-name="Jcircumflex.ss01.stack" horiz-adv-x="2291" 
d="M2015 1618l-88 37l-88 -37h-215l102 51h400l102 -51h-213zM1624 1608h604v-631q0 -509 -268.5 -748t-820.5 -239q-526 0 -807.5 224.5t-282.5 657.5v86h602v-73q0 -204 119 -288.5t373 -84.5q128 0 215.5 23.5t148.5 79.5t89 149.5t28 232.5v611z" />
    <glyph glyph-name="Kcommaaccent.stack" horiz-adv-x="2220" 
d="M59 61v1608h605v-641l788 641h733l-979 -792l1000 -816h-752l-790 654v-654h-605zM1079 0h-274l22 41h285z" />
    <glyph glyph-name="Lacute.stack" horiz-adv-x="1728" 
d="M664 1618h-605v37l605 24v-61zM59 0v1608h605v-1063h1040v-545h-1645z" />
    <glyph glyph-name="Lcommaaccent.stack" horiz-adv-x="1728" 
d="M59 61v1608h605v-1063h1040v-545h-1645zM993 0h-274l22 41h285z" />
    <glyph glyph-name="Nacute.stack" horiz-adv-x="2154" 
d="M1501 1618h-823v37l823 24v-61zM1552 0l-929 864v-864h-564v1608h551l922 -842v842h561v-1608h-541z" />
    <glyph glyph-name="Ncaron.stack" horiz-adv-x="2154" 
d="M1184 1669h311l-106 -51h-598l-109 51h311l97 -37zM1552 0l-929 864v-864h-564v1608h551l922 -842v842h561v-1608h-541z" />
    <glyph glyph-name="Ntilde.stack" horiz-adv-x="2154" 
d="M1491 1669q0 -51 -203 -51q-83 0 -183 5t-149 5q-55 0 -55 -10h-215q0 51 203 51q83 0 183 -5t149 -5q55 0 55 10h215zM1552 0l-929 864v-864h-564v1608h551l922 -842v842h561v-1608h-541z" />
    <glyph glyph-name="Ncommaaccent.stack" horiz-adv-x="2154" 
d="M1552 61l-929 865v-865h-564v1608h551l922 -842v842h561v-1608h-541zM1192 0h-277l25 41h283z" />
    <glyph glyph-name="Ograve.stack" horiz-adv-x="2252" 
d="M721 1618v61l823 -24v-37h-823zM2216 762q0 -772 -1086 -772q-1093 0 -1093 772v74q0 772 1093 772q1086 0 1086 -772v-74zM1610 807q0 166 -111.5 236.5t-372.5 70.5t-371 -70.5t-110 -236.5v-16q0 -166 110.5 -237t370.5 -71q261 0 372.5 71t111.5 237v16z" />
    <glyph glyph-name="Oacute.stack" horiz-adv-x="2252" 
d="M1544 1618h-823v37l823 24v-61zM2216 762q0 -772 -1086 -772q-1093 0 -1093 772v74q0 772 1093 772q1086 0 1086 -772v-74zM1610 807q0 166 -111.5 236.5t-372.5 70.5t-371 -70.5t-110 -236.5v-16q0 -166 110.5 -237t370.5 -71q261 0 372.5 71t111.5 237v16z" />
    <glyph glyph-name="Ocircumflex.stack" horiz-adv-x="2252" 
d="M1227 1618l-97 37l-94 -37h-311l109 51h596l108 -51h-311zM2216 762q0 -772 -1086 -772q-1093 0 -1093 772v74q0 772 1093 772q1086 0 1086 -772v-74zM1610 807q0 166 -111.5 236.5t-372.5 70.5t-371 -70.5t-110 -236.5v-16q0 -166 110.5 -237t370.5 -71q261 0 372.5 71
t111.5 237v16z" />
    <glyph glyph-name="Otilde.stack" horiz-adv-x="2252" 
d="M1534 1669q0 -51 -203 -51q-83 0 -183 5t-149 5q-55 0 -55 -10h-215q0 51 203 51q83 0 183 -5t149 -5q55 0 55 10h215zM2216 762q0 -772 -1086 -772q-1093 0 -1093 772v74q0 772 1093 772q1086 0 1086 -772v-74zM1610 807q0 166 -111.5 236.5t-372.5 70.5t-371 -70.5
t-110 -236.5v-16q0 -166 110.5 -237t370.5 -71q261 0 372.5 71t111.5 237v16z" />
    <glyph glyph-name="Odieresis.stack" horiz-adv-x="2252" 
d="M721 1622v41h369v-41h-369zM1544 1622h-370v41h370v-41zM2216 762q0 -772 -1086 -772q-1093 0 -1093 772v74q0 772 1093 772q1086 0 1086 -772v-74zM1610 807q0 166 -111.5 236.5t-372.5 70.5t-371 -70.5t-110 -236.5v-16q0 -166 110.5 -237t370.5 -71q261 0 372.5 71
t111.5 237v16z" />
    <glyph glyph-name="Omacron.stack" horiz-adv-x="2252" 
d="M721 1622v41h823v-41h-823zM2216 762q0 -772 -1086 -772q-1093 0 -1093 772v74q0 772 1093 772q1086 0 1086 -772v-74zM1610 807q0 166 -111.5 236.5t-372.5 70.5t-371 -70.5t-110 -236.5v-16q0 -166 110.5 -237t370.5 -71q261 0 372.5 71t111.5 237v16z" />
    <glyph glyph-name="Obreve.stack" horiz-adv-x="2252" 
d="M1321 1669h215q-1 -17 -34.5 -27.5t-125.5 -17t-246 -6.5q-153 0 -244 6.5t-124.5 17t-34.5 27.5h215q8 -24 188 -24q183 0 191 24zM37 836q0 772 1093 772q1086 0 1086 -772v-74q0 -772 -1086 -772q-1093 0 -1093 772v74zM1610 791v16q0 166 -111.5 236.5t-372.5 70.5
t-371 -70.5t-110 -236.5v-16q0 -166 110.5 -237t370.5 -71q261 0 372.5 71t111.5 237z" />
    <glyph glyph-name="Ohungarumlaut.stack" horiz-adv-x="2252" 
d="M1077 1618h-213l78 51h266zM1376 1618h-213l80 51h264zM2216 762q0 -772 -1086 -772q-1093 0 -1093 772v74q0 772 1093 772q1086 0 1086 -772v-74zM1610 807q0 166 -111.5 236.5t-372.5 70.5t-371 -70.5t-110 -236.5v-16q0 -166 110.5 -237t370.5 -71q261 0 372.5 71
t111.5 237v16z" />
    <glyph glyph-name="Oslashacute.stack" horiz-adv-x="2260" 
d="M1544 1618h-823v37l823 24v-61zM37 0l254 197q-254 191 -254 565v74q0 772 1093 772q460 0 725 -140l177 138h166l-250 -195q268 -193 268 -575v-74q0 -772 -1086 -772q-481 0 -747 147l-182 -137h-164zM643 793q0 -152 90 -224l662 518q-105 27 -269 27q-261 0 -372 -71
t-111 -238v-12zM1608 805q0 164 -107 235l-665 -522q104 -35 290 -35q261 0 371.5 71.5t110.5 238.5v12z" />
    <glyph glyph-name="Racute.stack" horiz-adv-x="2000" 
d="M1417 1618h-823v37l823 24v-61zM1333 0l-256 475h-30h-383v-475h-605v1608h1014q242 0 411.5 -34.5t273 -106.5t150 -174t46.5 -244v-37q0 -162 -71 -273t-226 -174l330 -565h-654zM1094 1176h-430v-295h430q133 0 193.5 33.5t60.5 113.5v6q0 82 -59 112t-195 30z" />
    <glyph glyph-name="Rcaron.stack" horiz-adv-x="2000" 
d="M1100 1669h311l-108 -51h-596l-109 51h311l95 -37zM1333 0l-256 475h-30h-383v-475h-605v1608h1014q242 0 411.5 -34.5t273 -106.5t150 -174t46.5 -244v-37q0 -162 -71 -273t-226 -174l330 -565h-654zM1094 1176h-430v-295h430q133 0 193.5 33.5t60.5 113.5v6
q0 82 -59 112t-195 30z" />
    <glyph glyph-name="Rcommaaccent.stack" horiz-adv-x="2000" 
d="M1333 61l-254 474h-32h-383v-474h-605v1608h1014q242 0 411.5 -34.5t273 -106.5t150 -174t46.5 -244v-37q0 -161 -71 -272t-224 -176l328 -564h-654zM1094 1237h-430v-295h430q134 0 194 33.5t60 114.5v8q0 80 -59 109.5t-195 29.5zM1122 0h-276l24 41h285z" />
    <glyph glyph-name="Racute.ss02" horiz-adv-x="2002" 
d="M1171 1737h-331l80 127h426zM59 1669h1010q324 0 519.5 -59.5t278.5 -174.5t83 -300v-33q0 -294 -269 -414q145 -50 203 -155.5t58 -270.5v-262h-605v258q0 131 -65.5 180t-233.5 49h-374v-487h-605v1669zM1090 1255h-426v-346h430q132 0 190.5 37.5t58.5 132.5v13
q0 94 -58.5 128.5t-194.5 34.5z" />
    <glyph glyph-name="Rcaron.ss02" horiz-adv-x="2002" 
d="M1075 1864h258l-114 -127h-426l-115 127h258l70 -52zM59 1669h1010q324 0 519.5 -59.5t278.5 -174.5t83 -300v-33q0 -294 -269 -414q145 -50 203 -155.5t58 -270.5v-262h-605v258q0 131 -65.5 180t-233.5 49h-374v-487h-605v1669zM1090 1255h-426v-346h430
q132 0 190.5 37.5t58.5 132.5v13q0 94 -58.5 128.5t-194.5 34.5z" />
    <glyph glyph-name="Rcommaaccent.ss02" horiz-adv-x="2002" 
d="M59 1669h1010q324 0 519.5 -59.5t278.5 -174.5t83 -300v-33q0 -294 -269 -414q145 -50 203 -155.5t58 -270.5v-262h-605v258q0 131 -65.5 180t-233.5 49h-374v-487h-605v1669zM1090 1255h-426v-346h430q132 0 190.5 37.5t58.5 132.5v13q0 94 -58.5 128.5t-194.5 34.5z
M1090 -205h-283l168 55h-178v113h440v-115z" />
    <glyph glyph-name="Racute.ss02.stack" horiz-adv-x="2002" 
d="M1417 1618h-823v37l823 24v-61zM59 1608h1010q324 0 519.5 -57.5t278.5 -168t83 -288.5v-31q0 -284 -269 -401q145 -48 203 -150.5t58 -259.5v-252h-605v248q0 126 -66 174.5t-233 48.5h-374v-471h-605v1608zM1090 1206h-426v-329h430q132 0 190.5 36.5t58.5 126.5v11
q0 89 -58.5 122t-194.5 33z" />
    <glyph glyph-name="Rcaron.ss02.stack" horiz-adv-x="2002" 
d="M1100 1669h311l-108 -51h-596l-109 51h311l95 -37zM59 1608h1010q324 0 519.5 -57.5t278.5 -168t83 -288.5v-31q0 -284 -269 -401q145 -48 203 -150.5t58 -259.5v-252h-605v248q0 126 -66 174.5t-233 48.5h-374v-471h-605v1608zM1090 1206h-426v-329h430
q132 0 190.5 36.5t58.5 126.5v11q0 89 -58.5 122t-194.5 33z" />
    <glyph glyph-name="Rcommaaccent.ss02.stack" horiz-adv-x="2002" 
d="M59 1669h1010q324 0 519.5 -57.5t278.5 -168t83 -288.5v-31q0 -284 -269 -399q145 -50 203 -152.5t58 -259.5v-252h-605v248q0 126 -66 174.5t-233 48.5h-374v-471h-605v1608zM1090 1268h-426v-330h430q132 0 190.5 37t58.5 127v10q0 89 -58.5 122.5t-194.5 33.5zM1126 0
h-274l25 41h282z" />
    <glyph glyph-name="Racute.ss03" horiz-adv-x="2015" 
d="M1171 1737h-331l80 127h426zM59 1669h1010q324 0 519.5 -59.5t278.5 -174.5t83 -300v-33q0 -289 -271 -414q141 -43 200.5 -140t59.5 -241v-37q0 -102 12 -157t54 -113h-606q-64 94 -64 231v25q0 139 -64 185t-235 46h-372v-487h-605v1669zM1090 1255h-426v-346h430
q132 0 190.5 37.5t58.5 132.5v13q0 94 -58.5 128.5t-194.5 34.5z" />
    <glyph glyph-name="Rcaron.ss03" horiz-adv-x="2015" 
d="M1075 1864h258l-114 -127h-426l-115 127h258l70 -52zM59 1669h1010q324 0 519.5 -59.5t278.5 -174.5t83 -300v-33q0 -289 -271 -414q141 -43 200.5 -140t59.5 -241v-37q0 -102 12 -157t54 -113h-606q-64 94 -64 231v25q0 139 -64 185t-235 46h-372v-487h-605v1669z
M1090 1255h-426v-346h430q132 0 190.5 37.5t58.5 132.5v13q0 94 -58.5 128.5t-194.5 34.5z" />
    <glyph glyph-name="Rcommaaccent.ss03" horiz-adv-x="2015" 
d="M59 1669h1010q324 0 519.5 -59.5t278.5 -174.5t83 -300v-33q0 -289 -271 -414q141 -43 200.5 -140t59.5 -241v-37q0 -102 12 -157t54 -113h-606q-64 94 -64 231v25q0 139 -64 185t-235 46h-372v-487h-605v1669zM1090 1255h-426v-346h430q132 0 190.5 37.5t58.5 132.5v13
q0 94 -58.5 128.5t-194.5 34.5zM1090 -205h-283l168 55h-178v113h440v-115z" />
    <glyph glyph-name="Racute.ss03.stack" horiz-adv-x="2015" 
d="M1417 1618h-823v37l823 24v-61zM59 1608h1010q324 0 519.5 -57.5t278.5 -168t83 -288.5v-31q0 -280 -269 -399q140 -43 199 -135.5t59 -231.5v-37q0 -98 12 -150.5t54 -109.5h-604q-66 85 -66 223v23q0 133 -64.5 179t-234.5 46h-372v-471h-605v1608zM1090 1206h-426
v-329h430q132 0 190.5 36.5t58.5 126.5v11q0 89 -58.5 122t-194.5 33z" />
    <glyph glyph-name="Rcaron.ss03.stack" horiz-adv-x="2015" 
d="M1100 1669h311l-108 -51h-596l-109 51h311l95 -37zM59 1608h1010q324 0 519.5 -57.5t278.5 -168t83 -288.5v-31q0 -280 -269 -399q140 -43 199 -135.5t59 -231.5v-37q0 -98 12 -150.5t54 -109.5h-604q-66 85 -66 223v23q0 133 -64.5 179t-234.5 46h-372v-471h-605v1608z
M1090 1206h-426v-329h430q132 0 190.5 36.5t58.5 126.5v11q0 89 -58.5 122t-194.5 33z" />
    <glyph glyph-name="Rcommaaccent.ss03.stack" horiz-adv-x="2015" 
d="M59 1669h1010q324 0 519.5 -57.5t278.5 -168t83 -288.5v-31q0 -278 -269 -399q140 -42 199 -135.5t59 -231.5v-36q0 -98 12 -151t54 -110h-604q-66 89 -66 224v24q0 132 -64.5 177.5t-234.5 45.5h-372v-471h-605v1608zM1090 1268h-426v-330h430q132 0 190.5 37t58.5 127
v10q0 89 -58.5 122.5t-194.5 33.5zM1133 0h-277l25 41h282z" />
    <glyph glyph-name="Sacute.stack" horiz-adv-x="2181" 
d="M1495 1618h-823v37l823 24v-61zM551 530q0 -53 43 -85t148 -49t282 -17q206 0 317 12t147 32.5t36 57.5v6q0 38 -32 57t-145 30.5t-335 11.5q-283 0 -472 28t-301.5 89t-159 149t-46.5 217v16q0 259 252.5 391t797.5 132q511 0 771 -139.5t260 -391.5v-12h-512v2
q0 147 -490 147q-118 0 -202.5 -5t-134 -13t-78 -21t-37.5 -26.5t-9 -32.5v-2q0 -25 17.5 -40t72 -27.5t160.5 -17.5t277 -5q353 0 569.5 -54t315 -161.5t98.5 -280.5v-16q0 -176 -108.5 -290t-348 -173t-621.5 -59q-531 0 -788.5 125.5t-257.5 396.5v23h514v-5z" />
    <glyph glyph-name="Scircumflex.stack" horiz-adv-x="2181" 
d="M1180 1618l-97 37l-96 -37h-311l108 51h596l109 -51h-309zM551 530q0 -53 43 -85t148 -49t282 -17q206 0 317 12t147 32.5t36 57.5v6q0 38 -32 57t-145 30.5t-335 11.5q-283 0 -472 28t-301.5 89t-159 149t-46.5 217v16q0 259 252.5 391t797.5 132q511 0 771 -139.5
t260 -391.5v-12h-512v2q0 147 -490 147q-118 0 -202.5 -5t-134 -13t-78 -21t-37.5 -26.5t-9 -32.5v-2q0 -25 17.5 -40t72 -27.5t160.5 -17.5t277 -5q353 0 569.5 -54t315 -161.5t98.5 -280.5v-16q0 -176 -108.5 -290t-348 -173t-621.5 -59q-531 0 -788.5 125.5t-257.5 396.5
v23h514v-5z" />
    <glyph glyph-name="Scaron.stack" horiz-adv-x="2181" 
d="M1180 1669h309l-109 -51h-596l-108 51h311l96 -37zM551 530q0 -53 43 -85t148 -49t282 -17q206 0 317 12t147 32.5t36 57.5v6q0 38 -32 57t-145 30.5t-335 11.5q-283 0 -472 28t-301.5 89t-159 149t-46.5 217v16q0 259 252.5 391t797.5 132q511 0 771 -139.5t260 -391.5
v-12h-512v2q0 147 -490 147q-118 0 -202.5 -5t-134 -13t-78 -21t-37.5 -26.5t-9 -32.5v-2q0 -25 17.5 -40t72 -27.5t160.5 -17.5t277 -5q353 0 569.5 -54t315 -161.5t98.5 -280.5v-16q0 -176 -108.5 -290t-348 -173t-621.5 -59q-531 0 -788.5 125.5t-257.5 396.5v23h514v-5z
" />
    <glyph glyph-name="Scedilla.stack" horiz-adv-x="2181" 
d="M551 596q0 -53 43 -86t148.5 -50.5t281.5 -17.5q205 0 317 13t147.5 34t35.5 58v6q0 37 -32 56.5t-144.5 30.5t-335.5 11q-283 0 -472 28t-301 89.5t-159 150t-47 218.5v16q0 172 106.5 287t342 177t601.5 62q511 0 771 -140.5t260 -393.5v-15h-512v5q0 149 -490 149
q-147 0 -241.5 -7t-141 -21.5t-62.5 -30.5t-16 -41v-4q0 -24 17.5 -39t72 -27t160.5 -17t277 -5q353 0 569.5 -54t315 -162t98.5 -282v-16q0 -162 -90.5 -272t-290 -174t-514.5 -77l-6 -55h-312l27 53q-475 12 -706.5 139.5t-231.5 385.5v22h514v-4z" />
    <glyph glyph-name="Scommaaccent.stack" horiz-adv-x="2181" 
d="M551 596q0 -53 43 -86t148.5 -50.5t281.5 -17.5q205 0 317 13t147.5 34t35.5 58v6q0 37 -32 56.5t-144.5 30.5t-335.5 11q-283 0 -472 28t-301 89.5t-159 150t-47 218.5v16q0 172 106.5 287t342 177t601.5 62q511 0 771 -140.5t260 -393.5v-15h-512v5q0 149 -490 149
q-147 0 -241.5 -7t-141 -21.5t-62.5 -30.5t-16 -41v-4q0 -24 17.5 -39t72 -27t160.5 -17t277 -5q353 0 569.5 -54t315 -162t98.5 -282v-16q0 -177 -108 -292t-348.5 -175t-621.5 -60q-530 0 -788 127t-258 400v22h514v-4zM1196 0h-276l24 41h283z" />
    <glyph glyph-name="Tcaron.stack" horiz-adv-x="1892" 
d="M1040 1669h312l-107 -51h-598l-108 51h311l96 -37zM1860 1094h-611v-1094h-606v1094h-612v514h1829v-514z" />
    <glyph glyph-name="Tcommaaccent.stack" horiz-adv-x="1892" 
d="M1860 1155h-611v-1094h-606v1094h-612v514h1829v-514zM1057 0h-275l25 41h283z" />
    <glyph glyph-name="Ugrave.stack" horiz-adv-x="2152" 
d="M664 1618v61l823 -24v-37h-823zM1487 1608h606v-580q0 -195 -23 -344t-74 -266t-129 -197t-193 -132t-261.5 -75.5t-337.5 -23.5q-190 0 -336 23t-260.5 75t-193 132t-129.5 197t-74 266.5t-23 344.5v580h605v-551q0 -205 44 -325t131 -170t234 -50t235.5 49.5
t133.5 169.5t45 326v551z" />
    <glyph glyph-name="Uacute.stack" horiz-adv-x="2152" 
d="M1487 1618h-823v37l823 24v-61zM1487 1608h606v-580q0 -195 -23 -344t-74 -266t-129 -197t-193 -132t-261.5 -75.5t-337.5 -23.5q-190 0 -336 23t-260.5 75t-193 132t-129.5 197t-74 266.5t-23 344.5v580h605v-551q0 -205 44 -325t131 -170t234 -50t235.5 49.5
t133.5 169.5t45 326v551z" />
    <glyph glyph-name="Ucircumflex.stack" horiz-adv-x="2152" 
d="M1171 1618l-94 37l-96 -37h-311l108 51h596l109 -51h-312zM1487 1608h606v-580q0 -195 -23 -344t-74 -266t-129 -197t-193 -132t-261.5 -75.5t-337.5 -23.5q-190 0 -336 23t-260.5 75t-193 132t-129.5 197t-74 266.5t-23 344.5v580h605v-551q0 -205 44 -325t131 -170
t234 -50t235.5 49.5t133.5 169.5t45 326v551z" />
    <glyph glyph-name="Utilde.stack" horiz-adv-x="2152" 
d="M1479 1669q0 -51 -203 -51q-83 0 -183 5t-149 5q-55 0 -55 -10h-215q0 51 203 51q83 0 182.5 -5t148.5 -5q56 0 56 10h215zM1487 1608h606v-580q0 -195 -23 -344t-74 -266t-129 -197t-193 -132t-261.5 -75.5t-337.5 -23.5q-190 0 -336 23t-260.5 75t-193 132t-129.5 197
t-74 266.5t-23 344.5v580h605v-551q0 -205 44 -325t131 -170t234 -50t235.5 49.5t133.5 169.5t45 326v551z" />
    <glyph glyph-name="Udieresis.stack" horiz-adv-x="2152" 
d="M664 1622v41h370v-41h-370zM1487 1622h-369v41h369v-41zM1487 1608h606v-580q0 -195 -23 -344t-74 -266t-129 -197t-193 -132t-261.5 -75.5t-337.5 -23.5q-190 0 -336 23t-260.5 75t-193 132t-129.5 197t-74 266.5t-23 344.5v580h605v-551q0 -205 44 -325t131 -170
t234 -50t235.5 49.5t133.5 169.5t45 326v551z" />
    <glyph glyph-name="Umacron.stack" horiz-adv-x="2152" 
d="M664 1622v41h823v-41h-823zM1487 1608h606v-580q0 -195 -23 -344t-74 -266t-129 -197t-193 -132t-261.5 -75.5t-337.5 -23.5q-190 0 -336 23t-260.5 75t-193 132t-129.5 197t-74 266.5t-23 344.5v580h605v-551q0 -205 44 -325t131 -170t234 -50t235.5 49.5t133.5 169.5
t45 326v551z" />
    <glyph glyph-name="Ubreve.stack" horiz-adv-x="2152" 
d="M1077 1645q181 0 189 24h215q-1 -17 -34.5 -27.5t-125 -17t-244.5 -6.5q-154 0 -245.5 6.5t-125 17t-34.5 27.5h215q8 -24 190 -24zM1487 1608h606v-580q0 -195 -23 -344t-74 -266t-129 -197t-193 -132t-261.5 -75.5t-337.5 -23.5q-190 0 -336 23t-260.5 75t-193 132
t-129.5 197t-74 266.5t-23 344.5v580h605v-551q0 -205 44 -325t131 -170t234 -50t235.5 49.5t133.5 169.5t45 326v551z" />
    <glyph glyph-name="Uring.stack" horiz-adv-x="2152" 
d="M1077 1559q-69 0 -69 55q0 27 18 42t51 15q31 0 50.5 -15.5t19.5 -41.5t-19.5 -40.5t-50.5 -14.5zM1077 1649q-41 0 -41 -35q0 -33 41 -33q19 0 30 9t11 24t-11.5 25t-29.5 10zM1487 1608h606v-580q0 -195 -23 -344t-74 -266t-129 -197t-193 -132t-261.5 -75.5
t-337.5 -23.5q-190 0 -336 23t-260.5 75t-193 132t-129.5 197t-74 266.5t-23 344.5v580h605v-551q0 -205 44 -325t131 -170t234 -50t235.5 49.5t133.5 169.5t45 326v551z" />
    <glyph glyph-name="Uhungarumlaut.stack" horiz-adv-x="2152" 
d="M1022 1618h-213l78 51h264zM1323 1618h-213l78 51h264zM1487 1608h606v-580q0 -195 -23 -344t-74 -266t-129 -197t-193 -132t-261.5 -75.5t-337.5 -23.5q-190 0 -336 23t-260.5 75t-193 132t-129.5 197t-74 266.5t-23 344.5v580h605v-551q0 -205 44 -325t131 -170
t234 -50t235.5 49.5t133.5 169.5t45 326v551z" />
    <glyph glyph-name="Uogonek.stack" horiz-adv-x="2152" 
d="M1487 1669h606v-588q0 -281 -49 -470.5t-163 -314t-292 -182t-444 -63.5q-34 -9 -43.5 -13.5t-9.5 -12.5q0 -11 22 -11q25 0 25 9v4h166v-4q0 -29 -224 -29q-116 0 -156 5.5t-40 20.5q0 20 90 33q-256 9 -428 67t-282 182t-158 312.5t-48 466.5v588h605v-563
q0 -202 44 -320t131 -167.5t234 -49.5q110 0 185.5 26.5t128 88.5t76.5 165.5t24 256.5v563z" />
    <glyph glyph-name="Wgrave.stack" horiz-adv-x="3215" 
d="M1243 1618v61l774 -24v-37h-774zM489 0l-477 1608h637l269 -951l339 951h746l324 -903l260 903h614l-485 -1608h-731l-381 1075l-387 -1075h-728z" />
    <glyph glyph-name="Wacute.stack" horiz-adv-x="3215" 
d="M2017 1618h-774v37l774 24v-61zM489 0l-477 1608h637l269 -951l339 951h746l324 -903l260 903h614l-485 -1608h-731l-381 1075l-387 -1075h-728z" />
    <glyph glyph-name="Wcircumflex.stack" horiz-adv-x="3215" 
d="M1722 1618l-96 37l-94 -37h-283l109 51h543l108 -51h-287zM489 0l-477 1608h637l269 -951l339 951h746l324 -903l260 903h614l-485 -1608h-731l-381 1075l-387 -1075h-728z" />
    <glyph glyph-name="Wdieresis.stack" horiz-adv-x="3215" 
d="M1243 1622v41h346v-41h-346zM2017 1622h-348v41h348v-41zM489 0l-477 1608h637l269 -951l339 951h746l324 -903l260 903h614l-485 -1608h-731l-381 1075l-387 -1075h-728z" />
    <glyph glyph-name="Ygrave.stack" horiz-adv-x="2119" 
d="M649 1618v61l824 -24v-37h-824zM754 623l-754 985h672l387 -523l385 523h676l-762 -990v-618h-604v623z" />
    <glyph glyph-name="Yacute.stack" horiz-adv-x="2119" 
d="M1473 1618h-824v37l824 24v-61zM754 623l-754 985h672l387 -523l385 523h676l-762 -990v-618h-604v623z" />
    <glyph glyph-name="Ycircumflex.stack" horiz-adv-x="2119" 
d="M1157 1618l-96 37l-96 -37h-310l107 51h598l106 -51h-309zM754 623l-754 985h672l387 -523l385 523h676l-762 -990v-618h-604v623z" />
    <glyph glyph-name="Ydieresis.stack" horiz-adv-x="2119" 
d="M649 1622v41h371v-41h-371zM1473 1622h-371v41h371v-41zM754 623l-754 985h672l387 -523l385 523h676l-762 -990v-618h-604v623z" />
    <glyph glyph-name="Zacute.stack" horiz-adv-x="2025" 
d="M1425 1618h-823v37l823 24v-61zM41 0v406l1012 745h-965v457h1880v-404l-962 -745h979v-459h-1944z" />
    <glyph glyph-name="Zcaron.stack" horiz-adv-x="2025" 
d="M1110 1669h309l-108 -51h-596l-109 51h312l96 -37zM41 0v406l1012 745h-965v457h1880v-404l-962 -745h979v-459h-1944z" />
    <glyph glyph-name="Zdotaccent.stack" horiz-adv-x="2025" 
d="M41 0v406l1012 745h-965v457h817q9 63 109 63q99 0 108 -63h846v-404l-962 -745h979v-459h-1944z" />
    <glyph glyph-name="r.ss04" horiz-adv-x="1777" 
d="M664 1475v-711q0 372 117 546.5t390 174.5q291 0 423 -157.5t132 -520.5v-252h-604v178q0 113 -52.5 167t-174.5 54q-231 0 -231 -204v-750h-605v1475h605z" />
    <glyph glyph-name="racute.ss04" horiz-adv-x="1777" 
d="M1059 1542h-332l80 127h426zM664 1475v-711q0 372 117 546.5t390 174.5q291 0 423 -157.5t132 -520.5v-252h-604v178q0 113 -52.5 167t-174.5 54q-231 0 -231 -204v-750h-605v1475h605z" />
    <glyph glyph-name="rcaron.ss04" horiz-adv-x="1777" 
d="M961 1669h258l-115 -127h-426l-115 127h258l70 -51zM664 1475v-711q0 372 117 546.5t390 174.5q291 0 423 -157.5t132 -520.5v-252h-604v178q0 113 -52.5 167t-174.5 54q-231 0 -231 -204v-750h-605v1475h605z" />
    <glyph glyph-name="rcommaaccent.ss04" horiz-adv-x="1777" 
d="M664 1475v-711q0 372 117 546.5t390 174.5q291 0 423 -157.5t132 -520.5v-252h-604v178q0 113 -52.5 167t-174.5 54q-231 0 -231 -204v-750h-605v1475h605zM434 -205h-282l167 55h-178v113h441v-115z" />
    <glyph glyph-name="ygrave.ss05" horiz-adv-x="2162" 
d="M913 1542l-174 127h426l80 -127h-332zM911 -102l78 272h-440l-459 1305h610l342 -1123l416 1123h627l-633 -1577h-541z" />
    <glyph glyph-name="yacute.ss05" horiz-adv-x="2162" 
d="M1249 1542h-331l79 127h426zM911 -102l78 272h-440l-459 1305h610l342 -1123l416 1123h627l-633 -1577h-541z" />
    <glyph glyph-name="ycircumflex.ss05" horiz-adv-x="2162" 
d="M1171 1542l-92 53l-92 -53h-256l135 127h426l135 -127h-256zM911 -102l78 272h-440l-459 1305h610l342 -1123l416 1123h627l-633 -1577h-541z" />
    <glyph glyph-name="ydieresis.ss05" horiz-adv-x="2162" 
d="M721 1528v158h303v-158h-303zM1438 1528h-303v158h303v-158zM911 -102l78 272h-440l-459 1305h610l342 -1123l416 1123h627l-633 -1577h-541z" />
    <glyph glyph-name="hyphen.cap" horiz-adv-x="630" 
d="M618 666h-606v335h606v-335z" />
    <glyph glyph-name="exclamdown.cap" horiz-adv-x="636" 
d="M78 1669h477v-461h-477v461zM528 991l50 -991h-519l47 991h422z" />
    <glyph glyph-name="questiondown.cap" horiz-adv-x="1916" 
d="M778 1669h475v-461h-475v461zM1874 586q0 -288 -237 -442t-730 -154q-450 0 -656 115.5t-206 353.5v8q0 83 26 148t69.5 105.5t100 71t119 48.5t125 32.5t119 29t100 33t69.5 48t26 70.5v26h444v-30q0 -86 -22 -154t-58.5 -111t-84.5 -74.5t-100.5 -49.5t-105.5 -30.5
t-101 -21.5t-84.5 -20t-58.5 -29t-22 -45v-6q0 -55 70 -78.5t260 -23.5q214 0 307.5 45t93.5 147v14h537v-26z" />
    <glyph glyph-name="guilsinglleft.cap" horiz-adv-x="499" 
d="M20 834l156 507h301l-158 -507l158 -508h-301z" />
    <glyph glyph-name="guilsinglright.cap" horiz-adv-x="499" 
d="M477 834l-153 -508h-304l158 508l-158 507h304z" />
    <glyph glyph-name="guillemotleft.cap" horiz-adv-x="872" 
d="M20 834l156 507h301l-158 -507l158 -508h-301zM393 834l156 507h301l-158 -507l158 -508h-301z" />
    <glyph glyph-name="guillemotright.cap" horiz-adv-x="872" 
d="M477 834l-153 -508h-304l158 508l-158 507h304zM850 834l-154 -508h-303l158 508l-158 507h303z" />
    <glyph glyph-name="endash.cap" horiz-adv-x="1134" 
d="M1114 739h-1094v189h1094v-189z" />
    <glyph glyph-name="emdash.cap" horiz-adv-x="2281" 
d="M2261 739h-2241v189h2241v-189z" />
    <glyph glyph-name="periodcentered.cap" horiz-adv-x="532" 
d="M504 602h-475v461h475v-461z" />
    <glyph glyph-name="parenleft.cap" horiz-adv-x="765" 
d="M416 1669h321q-297 -390 -297 -835q0 -444 297 -834h-321q-150 194 -227.5 390.5t-77.5 443.5q0 170 39.5 321t103 268.5t162.5 245.5z" />
    <glyph glyph-name="parenright.cap" horiz-adv-x="765" 
d="M352 1669q150 -194 226.5 -389.5t76.5 -443.5q0 -249 -76.5 -445.5t-226.5 -390.5h-323q299 388 299 836q0 445 -299 833h323z" />
    <glyph glyph-name="bracketleft.cap" horiz-adv-x="757" 
d="M131 0v1669h584v-151h-256v-1366h256v-152h-584z" />
    <glyph glyph-name="bracketright.cap" horiz-adv-x="757" 
d="M43 0v152h256v1366h-256v151h584v-1669h-584z" />
    <glyph glyph-name="braceleft.cap" horiz-adv-x="757" 
d="M68 760v151q67 4 89.5 25.5t22.5 75.5v485q0 101 38 136.5t149 35.5h342v-151h-140q-34 0 -46.5 -21t-12.5 -78v-420q0 -49 -35 -95t-102 -68q67 -22 102 -68.5t35 -95.5v-422q0 -57 12.5 -77.5t46.5 -20.5h140v-152h-342q-111 0 -149 35.5t-38 136.5v487
q0 54 -22.5 75.5t-89.5 25.5z" />
    <glyph glyph-name="braceright.cap" horiz-adv-x="757" 
d="M690 758q-67 -4 -89.5 -25.5t-22.5 -75.5v-485q0 -101 -38 -136.5t-149 -35.5h-342v152h139q33 0 46.5 21t13.5 77v420q0 50 34.5 96t102.5 68q-68 22 -102.5 68t-34.5 95v422q0 56 -13.5 77.5t-46.5 21.5h-139v151h342q111 0 149 -35.5t38 -136.5v-485q0 -54 22.5 -75.5
t89.5 -27.5v-151z" />
    <glyph glyph-name="baht" horiz-adv-x="1996" 
d="M59 0v1669h854v103h183v-103h290q537 0 537 -385v-18q0 -144 -108.5 -235.5t-331.5 -115.5q251 -28 372 -134.5t121 -272.5v-16q0 -114 -30.5 -196t-92.5 -139.5t-165 -92t-238 -49.5t-322 -15h-32v-102h-183v102h-854zM664 1284v-260h249v260h-249zM1116 1284h-20v-260
h30q105 0 153 30.5t48 98.5v8q0 66 -50 94.5t-161 28.5zM664 688v-289h249v289h-249zM1114 688h-18v-289h18q124 0 179 33.5t55 108.5v8q0 73 -56.5 106t-177.5 33z" />
    <glyph glyph-name="rupee" horiz-adv-x="2041" 
d="M702 0l-198 618h-72v-618h-371v1669h484q249 0 367 -123t118 -377v-75q0 -307 -184 -414l233 -680h-377zM2009 377q0 -205 -112 -296t-357 -91q-246 0 -357.5 92t-111.5 317v133h354v-104q0 -82 28.5 -117t90.5 -35q57 0 84 28t27 97v41q0 60 -40 91.5t-177 78.5
q-116 38 -183 72.5t-110.5 84.5t-58.5 112.5t-15 160.5v52q0 204 112 297.5t357 93.5q248 0 358.5 -97.5t110.5 -322.5v-119h-354v94q0 84 -28.5 119t-88.5 35q-62 0 -87.5 -26.5t-25.5 -96.5v-18q0 -46 13.5 -70.5t56.5 -46.5t139 -51q112 -34 180.5 -68.5t114 -84.5
t63 -115t17.5 -162v-78zM479 1319h-47v-387h47q105 0 142.5 36t37.5 132v51q0 94 -37.5 131t-142.5 37z" />
    <glyph glyph-name="bitcoin" horiz-adv-x="1996" 
d="M59 0v1669h686v103h175v-103h108v103h172v-103h186q537 0 537 -385v-18q0 -144 -108.5 -235.5t-331.5 -115.5q251 -28 372 -134.5t121 -272.5v-16q0 -136 -42.5 -228t-139 -150t-239 -84t-355.5 -30v-102h-172v102h-108v-102h-175v102h-686zM1116 1284h-452v-260h462
q105 0 153 30.5t48 98.5v8q0 66 -50 94.5t-161 28.5zM1114 688h-450v-289h450q124 0 179 33.5t55 108.5v8q0 73 -56.5 106t-177.5 33z" />
    <glyph glyph-name="zero.opencirc" horiz-adv-x="1939" 
d="M25 831v7q0 202 54 355t166.5 263t294.5 166.5t431 56.5q944 0 944 -841v-7q0 -841 -944 -841q-249 0 -431 56.5t-294.5 166.5t-166.5 263t-54 355zM137 831q0 -377 200 -553t634 -176q432 0 631.5 176t199.5 553v7q0 377 -199.5 553t-631.5 176q-434 0 -634 -176
t-200 -553v-7zM455 829v13q0 209 129 325.5t385 116.5q258 0 387 -116t129 -326v-13q0 -210 -129 -326t-387 -116q-256 0 -385 116.5t-129 325.5zM752 831q0 -92 50 -134t167 -42t168 42t51 134v9q0 92 -51 134t-168 42t-167 -42t-50 -134v-9z" />
    <glyph glyph-name="zero.closecirc" horiz-adv-x="1939" 
d="M25 831v7q0 202 54 355t166.5 263t294.5 166.5t431 56.5q944 0 944 -841v-7q0 -841 -944 -841q-249 0 -431 56.5t-294.5 166.5t-166.5 263t-54 355zM455 829q0 -209 129 -325.5t385 -116.5q258 0 387 116t129 326v13q0 210 -129 326t-387 116q-256 0 -385 -116.5
t-129 -325.5v-13zM752 831v9q0 92 50 134t167 42t168 -42t51 -134v-9q0 -92 -51 -134t-168 -42t-167 42t-50 134z" />
    <glyph glyph-name="arrowupleft" horiz-adv-x="1884" 
d="M246 539v899l28 26h897l400 -399l-656 20l793 -792l-291 -293l-792 793l18 -654z" />
    <glyph glyph-name="arrowupright" horiz-adv-x="1884" 
d="M1241 141l19 652l-793 -793l-291 293l793 792l-656 -20l400 399h897l28 -26v-897z" />
    <glyph glyph-name="arrowdownleft" horiz-adv-x="1884" 
d="M246 936l397 399l-18 -653l792 793l291 -293l-793 -793l656 21l-400 -400h-897l-28 27v899z" />
    <glyph glyph-name="arrowdownright" horiz-adv-x="1884" 
d="M1638 37l-28 -27h-897l-400 400l656 -21l-793 793l291 293l793 -793l-19 653l397 -399v-899z" />
    <glyph glyph-name="whitesquare" horiz-adv-x="1234" 
d="M270 289v694h693v-694h-693zM487 506h258v262h-258v-262z" />
    <glyph glyph-name="whitediamond" horiz-adv-x="1234" 
d="M616 147l-489 490l489 489l490 -489zM616 453l183 184l-183 182l-182 -182z" />
    <glyph glyph-name="whitecircle" horiz-adv-x="1234" 
d="M616 274q-157 0 -259.5 103t-102.5 260q0 155 102.5 257.5t259.5 102.5q155 0 258 -102.5t103 -257.5q0 -157 -103 -260t-258 -103zM616 479q65 0 108.5 44.5t43.5 113.5q0 67 -43.5 111.5t-108.5 44.5q-66 0 -109.5 -44.5t-43.5 -111.5q0 -69 43.5 -113.5t109.5 -44.5z
" />
    <glyph glyph-name="whiteleftpointingsmalltriangle" horiz-adv-x="1234" 
d="M926 147l-797 490l797 489v-979zM709 504v264l-209 -131z" />
    <glyph glyph-name="whiterightpointingsmalltriangle" horiz-adv-x="1234" 
d="M309 147v979l797 -489zM528 504l209 133l-209 131v-264z" />
    <glyph glyph-name="whiteuppointingsmalltriangle" horiz-adv-x="1234" 
d="M127 334l489 796l490 -796h-979zM483 532h267l-134 207z" />
    <glyph glyph-name="whitedownpointingsmalltriangle" horiz-adv-x="1234" 
d="M127 1108h979l-490 -797zM483 909l133 -209l134 209h-267z" />
    <glyph glyph-name="blacksquare" horiz-adv-x="1234" 
d="M270 289v694h693v-694h-693z" />
    <glyph glyph-name="blackdiamond" horiz-adv-x="1234" 
d="M616 147l-489 490l489 489l490 -489z" />
    <glyph glyph-name="blackcircle" horiz-adv-x="1234" 
d="M616 274q-157 0 -259.5 103t-102.5 260q0 155 102.5 257.5t259.5 102.5q155 0 258 -102.5t103 -257.5q0 -157 -103 -260t-258 -103z" />
    <glyph glyph-name="blackleftpointingtriangle" horiz-adv-x="1615" 
d="M63 698l1311 707v-1405z" />
    <glyph glyph-name="blackrightpointingtriangle" horiz-adv-x="1615" 
d="M242 0v1405l1308 -707z" />
    <glyph glyph-name="blackuppointingtriangle" horiz-adv-x="1615" 
d="M803 1405l706 -1405h-1405z" />
    <glyph glyph-name="blackdownpointingtriangle" horiz-adv-x="1615" 
d="M821 -2l-717 1407h1405z" />
    <glyph glyph-name="smalltriangleleftsld" horiz-adv-x="1234" 
d="M926 147l-797 490l797 489v-979z" />
    <glyph glyph-name="smalltrianglerightsld" horiz-adv-x="1234" 
d="M309 147v979l797 -489z" />
    <glyph glyph-name="smalltrianglesld" horiz-adv-x="1234" 
d="M127 334l489 796l490 -796h-979z" />
    <glyph glyph-name="smalltriangleinvsld" horiz-adv-x="1234" 
d="M127 1108h979l-490 -797z" />
    <glyph glyph-name="whiteleftpointingtriangle" horiz-adv-x="1615" 
d="M63 698l1311 707v-1405zM526 698l602 -297v607z" />
    <glyph glyph-name="whiterightpointingtriangle" horiz-adv-x="1615" 
d="M1550 698l-1308 -698v1405zM1090 698l-603 310v-607z" />
    <glyph glyph-name="whiteuppointingtriangle" horiz-adv-x="1615" 
d="M803 1405l706 -1405h-1405zM803 911l-299 -649h610z" />
    <glyph glyph-name="whitedownpointingtriangle" horiz-adv-x="1615" 
d="M803 0l-699 1405h1405zM803 494l311 649h-610z" />
    <glyph glyph-name="chevronleft" horiz-adv-x="1615" 
d="M1343 0h-348l-858 809l858 815h348l-849 -815z" />
    <glyph glyph-name="chevronright" horiz-adv-x="1615" 
d="M1395 809l-856 -809h-351l850 809l-850 815h351z" />
    <glyph glyph-name="chevronup" horiz-adv-x="1615" 
d="M805 1403l770 -858v-350l-770 849l-766 -849v350z" />
    <glyph glyph-name="chevrondown" horiz-adv-x="1615" 
d="M805 195l-766 858v350l766 -852l770 852v-350z" />
    <glyph glyph-name="heartsuitwhite" horiz-adv-x="2142" 
d="M1071 1427q130 252 457 252q143 0 253.5 -42t179.5 -118.5t104.5 -179t35.5 -227.5v-35q0 -127 -27 -230.5t-73.5 -174.5t-107.5 -127.5t-131.5 -97.5t-143 -76.5t-144.5 -72t-133 -76t-111 -96t-77 -126.5h-164q-27 70 -77 126.5t-111 96t-133 76t-144.5 72t-143 76.5
t-131.5 97.5t-107.5 127.5t-73.5 174.5t-27 230.5v35q0 125 35.5 227.5t104.5 179t179.5 118.5t253.5 42q327 0 457 -252z" />
    </font>
</defs>
</svg>
