<?xml version="1.0" standalone="no"?>
<!DOCTYPE svg PUBLIC "-//W3C//DTD SVG 1.1//EN" "http://www.w3.org/Graphics/SVG/1.1/DTD/svg11.dtd" >
<svg xmlns="http://www.w3.org/2000/svg" xmlns:xlink="http://www.w3.org/1999/xlink" version="1.1">
<metadata>
Created by FontForge 20170731 at Tue Nov 29 21:47:34 2022
 By Aleksey,,,
Pangram Pangram
</metadata>
<defs>
<font id="PPMonumentExtended-Black" horiz-adv-x="1916" >
  <font-face 
    font-family="PP Monument Extended Black"
    font-weight="900"
    font-stretch="normal"
    units-per-em="2048"
    panose-1="0 0 10 0 0 0 0 0 0 0"
    ascent="1638"
    descent="-410"
    x-height="1229"
    cap-height="1475"
    bbox="-2171 -635 4260 2171"
    underline-thickness="204"
    underline-position="-327"
    unicode-range="U+0020-25CA"
  />
<missing-glyph horiz-adv-x="1126" 
d="M209 1638h715v-2252h-715v2252zM750 1413v74h-371v-74h145v-84h-147v-74h373v74h-148v84h148zM602 1038v158h-225v-233h373v75h-148zM451 1120h73v-82h-73v82zM750 827v74h-373v-74h147v-84h-147v-73h225v157h148zM750 541v225h-74v-148h-299v-77h373zM750 238v254h-226
v-125h78v51h74v-107h-225v181h-74v-254h373zM750 -152v254h-373v-254h373zM451 29h225v-107h-225v107zM750 -279v74h-373v-74h158l-158 -106v-74h373v74h-230l158 106h72z" />
    <glyph glyph-name="f_f" unicode="ff" horiz-adv-x="2439" 
d="M2357 1352h-319q-115 0 -157.5 -25t-45.5 -98h522v-348h-522v-881h-471v881h-522v-881h-471v881h-289v348h289v47q0 186 132.5 274t416.5 88h333v-286h-209q-115 0 -157 -25t-45 -98h522v47q0 186 132.5 274t416.5 88h444v-286z" />
    <glyph glyph-name="f_f_i" unicode="ffi" horiz-adv-x="2951" 
d="M2828 1352h-790q-115 0 -157.5 -25t-45.5 -98h993v-1229h-471v881h-522v-881h-471v881h-522v-881h-471v881h-289v348h289v47q0 186 132.5 274t416.5 88h360v-286h-236q-115 0 -157 -25t-45 -98h522v47q0 186 132.5 274t416.5 88h915v-286z" />
    <glyph glyph-name="f_i" unicode="fi" horiz-adv-x="1957" 
d="M1835 1352h-791q-115 0 -157 -25t-45 -98h993v-1229h-471v881h-522v-881h-471v881h-289v348h289v47q0 186 132.5 274t416.5 88h915v-286z" />
    <glyph glyph-name="f_l" unicode="fl" horiz-adv-x="1957" 
d="M920 1638h915v-1638h-471v1352h-320q-115 0 -157 -25t-45 -98h317v-348h-317v-881h-471v881h-289v348h289v47q0 186 132.5 274t416.5 88z" />
    <glyph glyph-name=".notdef" horiz-adv-x="1126" 
d="M209 1638h715v-2252h-715v2252zM750 1413v74h-371v-74h145v-84h-147v-74h373v74h-148v84h148zM602 1038v158h-225v-233h373v75h-148zM451 1120h73v-82h-73v82zM750 827v74h-373v-74h147v-84h-147v-73h225v157h148zM750 541v225h-74v-148h-299v-77h373zM750 238v254h-226
v-125h78v51h74v-107h-225v181h-74v-254h373zM750 -152v254h-373v-254h373zM451 29h225v-107h-225v107zM750 -279v74h-373v-74h158l-158 -106v-74h373v74h-230l158 106h72z" />
    <glyph glyph-name=".null" horiz-adv-x="0" 
 />
    <glyph glyph-name="nonmarkingreturn" horiz-adv-x="682" 
 />
    <glyph glyph-name="space" unicode=" " horiz-adv-x="798" 
 />
    <glyph glyph-name="exclam" unicode="!" horiz-adv-x="778" 
d="M123 1475h532l-20 -983h-492zM143 0v369h492v-369h-492z" />
    <glyph glyph-name="quotedbl" unicode="&#x22;" horiz-adv-x="1433" 
d="M123 1597h532l-41 -778h-450zM778 1597h533l-41 -778h-451z" />
    <glyph glyph-name="numbersign" unicode="#" horiz-adv-x="2734" 
d="M2570 1167v-348h-450l-121 -409h366v-349h-471l-110 -368h-451l111 368h-502l-111 -368h-450l111 368h-328v349h432l121 409h-348v348h452l142 471h450l-141 -471h502l141 471h450l-141 -471h346zM1047 410h501l121 409h-502z" />
    <glyph glyph-name="dollar" unicode="$" horiz-adv-x="2076" 
d="M1954 455q0 -133 -54.5 -227.5t-162 -152t-253 -85t-343.5 -31.5v-164h-205v166q-193 9 -338 42.5t-250 96t-161.5 159t-63.5 226.5h532q0 -131 281 -153v229q-416 38 -604.5 152t-188.5 346q0 215 212 333t581 124v122h205v-129q356 -23 546.5 -149t204.5 -346h-532
q0 55 -54 85.5t-165 41.5v-209q92 -8 157.5 -15t142 -18.5t129.5 -25t110.5 -33.5t96 -44.5t75 -58t57 -74.5t33 -93.5t12.5 -114.5zM676 1057q0 -29 18 -46t75 -32t167 -27v195q-103 -2 -162.5 -15t-78.5 -30.5t-19 -44.5zM1141 545v-215q116 3 179.5 18t82 34.5t18.5 51.5
q0 36 -19 54.5t-77.5 31.5t-183.5 25z" />
    <glyph glyph-name="percent" unicode="%" horiz-adv-x="3110" 
d="M707 510q-140 0 -253.5 43t-184.5 115t-108.5 161t-37.5 185t37.5 184.5t108.5 160t184.5 114.5t253.5 43q113 0 209.5 -28t164.5 -76.5t116.5 -113t71.5 -136.5t23 -148q0 -96 -37.5 -185t-108 -161t-184.5 -115t-255 -43zM1823 1475h397l-934 -1475h-397zM707 797
q113 0 165 64t52 155q0 89 -52 151t-165 62q-112 0 -163.5 -62t-51.5 -151q0 -91 51.5 -155t163.5 -64zM2402 -41q-140 0 -253.5 43t-184 115t-108 161t-37.5 185t37.5 184.5t108 160t184 114.5t253.5 43q141 0 255 -43t185 -114.5t108.5 -160t37.5 -184.5t-37.5 -185
t-108.5 -161t-185 -115t-255 -43zM2402 246q113 0 165 64t52 155q0 89 -52 151t-165 62q-112 0 -163.5 -62t-51.5 -151q0 -91 51.5 -155t163.5 -64z" />
    <glyph glyph-name="ampersand" unicode="&#x26;" horiz-adv-x="2293" 
d="M1755 303l416 -303h-574l-122 88q-258 -129 -580 -129q-772 0 -772 395q0 65 20.5 119.5t55 95.5t87.5 76.5t110 61t130 49.5q-94 77 -143 158.5t-49 181.5q0 77 34 141t91 107.5t134 73.5t160.5 43.5t172.5 13.5q265 0 424 -97.5t159 -269.5q0 -69 -30 -125t-86.5 -97
t-120.5 -70t-148 -54q5 -4 16.5 -11.5t16.5 -11.5l330 -239q69 110 92 274h369q-20 -270 -193 -471zM958 1188q-83 0 -138.5 -32.5t-55.5 -96.5q0 -56 42 -99.5t120 -87.5q119 41 167 86.5t48 102.5q0 64 -53 95.5t-130 31.5zM969 266q116 0 219 25l-293 207q-36 26 -106 73
t-74 50q-121 -78 -121 -179q0 -92 90.5 -134t284.5 -42z" />
    <glyph glyph-name="quotesingle" unicode="'" horiz-adv-x="778" 
d="M123 1597h532l-41 -778h-450z" />
    <glyph glyph-name="parenleft" unicode="(" horiz-adv-x="1331" 
d="M123 614q0 166 26 303.5t74.5 242.5t121.5 186t162 136t201.5 90t234.5 50.5t265 15.5v-389q-155 0 -258 -29t-176.5 -101t-106 -195t-32.5 -310t33 -310.5t106.5 -195t176.5 -100t257 -28.5v-390q-203 0 -364 30.5t-298.5 104t-229 189.5t-142.5 292t-51 408z" />
    <glyph glyph-name="parenright" unicode=")" horiz-adv-x="1331" 
d="M1208 614q0 -232 -51 -408t-142.5 -292t-229 -189.5t-298.5 -104t-364 -30.5v390q154 0 257 28.5t176.5 100t106.5 195t33 310.5t-32.5 310t-106 195t-176.5 101t-258 29v389q143 0 265 -15.5t234.5 -50.5t201.5 -90t162 -136t121.5 -186t74.5 -242.5t26 -303.5z" />
    <glyph glyph-name="asterisk" unicode="*" horiz-adv-x="1341" 
d="M246 807l-123 235l383 140l-383 139l123 233l329 -217l-49 342h287l-47 -342l330 219l123 -235l-385 -139l385 -140l-123 -233l-330 215l47 -342h-287l49 342z" />
    <glyph glyph-name="plus" unicode="+" horiz-adv-x="1884" 
d="M1157 870h604v-348h-604v-522h-430v522h-604v348h604v523h430v-523z" />
    <glyph glyph-name="comma" unicode="," horiz-adv-x="737" 
d="M123 0v369h491v-369l-231 -451h-219l139 451h-180z" />
    <glyph glyph-name="hyphen" unicode="-" horiz-adv-x="1966" 
d="M164 522v348h1638v-348h-1638z" />
    <glyph glyph-name="period" unicode="." horiz-adv-x="737" 
d="M123 0v369h491v-369h-491z" />
    <glyph glyph-name="slash" unicode="/" horiz-adv-x="1298" 
d="M725 1638h451l-582 -1945h-451z" />
    <glyph glyph-name="zero" unicode="0" horiz-adv-x="1966" 
d="M983 -41q-209 0 -377 57.5t-277.5 161t-168 246.5t-58.5 315q0 171 58.5 313.5t168 245.5t277.5 160.5t377 57.5t376.5 -57.5t277.5 -161t168.5 -246t58.5 -312.5q0 -171 -58.5 -314t-168.5 -246.5t-277.5 -161.5t-376.5 -58zM983 369q176 0 272.5 94t96.5 276
q0 181 -96 274t-273 93t-273 -92.5t-96 -274.5q0 -183 96.5 -276.5t272.5 -93.5z" />
    <glyph glyph-name="one" unicode="1" horiz-adv-x="1679" 
d="M635 1475h461v-1086h460v-389h-1433v389h461v670l-357 -103l-104 375z" />
    <glyph glyph-name="two" unicode="2" horiz-adv-x="1871" 
d="M1749 1063q0 -87 -31 -160t-84.5 -124.5t-123.5 -94t-149 -71.5t-159 -53t-156 -43.5t-138 -38t-107.5 -41t-61.5 -48.5h990v-389h-1606v225q0 122 60.5 217.5t157 155.5t213 106.5t233 81t213 68t157 78.5t60.5 102q0 65 -51 99t-175 34q-315 0 -315 -215h-533
q12 119 63 215t130 160.5t186 107.5t227 62t257 19q346 0 544.5 -117t198.5 -336z" />
    <glyph glyph-name="three" unicode="3" horiz-adv-x="1892" 
d="M1548 760q242 -93 242 -326q0 -229 -200.5 -352t-577.5 -123q-310 0 -503.5 61t-289.5 183t-117 319h512q0 -100 85 -147t272 -47q161 0 226 35.5t65 109.5q0 55 -31.5 84.5t-114.5 43t-242 13.5v287q146 0 226.5 14.5t110.5 42.5t30 76q0 65 -64 99t-216 34
q-182 0 -264.5 -50.5t-82.5 -164.5h-491q31 288 252 426t643 138q363 0 557 -114.5t194 -330.5q0 -223 -221 -311z" />
    <glyph glyph-name="four" unicode="4" horiz-adv-x="1994" 
d="M1626 553h246v-369h-246v-184h-512v184h-991v369l991 922h512v-922zM1114 1026l-512 -473h512v473z" />
    <glyph glyph-name="five" unicode="5" horiz-adv-x="1830" 
d="M1151 993q269 0 423.5 -127t154.5 -352q0 -258 -202 -406.5t-581 -148.5q-137 0 -257.5 19t-226.5 60.5t-183 103t-124 151t-53 199.5h533q15 -78 89 -121t204 -43q268 0 268 194q0 89 -59.5 137t-173.5 48q-91 0 -159 -23.5t-147 -83.5l-469 90l117 785h1301v-369h-889
l-25 -205q217 92 459 92z" />
    <glyph glyph-name="six" unicode="6" horiz-adv-x="1863" 
d="M1143 993q287 0 442.5 -125t155.5 -364q0 -272 -197 -408.5t-575 -136.5q-846 0 -846 743q0 174 47.5 312t132 231.5t206 155t263 88.5t309.5 27q157 0 267 -8.5t270 -32.5v-369q-289 41 -488 41q-232 0 -339.5 -57.5t-128.5 -206.5q218 110 481 110zM932 328
q276 0 276 190q0 189 -276 189q-147 0 -212 -48.5t-65 -140.5q0 -190 277 -190z" />
    <glyph glyph-name="seven" unicode="7" horiz-adv-x="1767" 
d="M123 1085v390h1522v-390q-381 -244 -543 -500t-162 -585h-512q0 122 19 233.5t65.5 229.5t120.5 222.5t190.5 208t268.5 191.5h-969z" />
    <glyph glyph-name="eight" unicode="8" horiz-adv-x="2007" 
d="M1485 778q399 -86 399 -375q0 -83 -25 -148t-86.5 -122t-160.5 -94.5t-252 -58.5t-356 -21q-204 0 -357 21t-252 58t-160.5 94t-86.5 122.5t-25 148.5q0 289 397 375q-274 94 -274 344q0 191 196 292.5t562 101.5q365 0 561 -102t196 -292q0 -250 -276 -344zM1004 1208
q-146 0 -206.5 -30t-60.5 -93t60 -92.5t207 -29.5t206.5 29.5t59.5 92.5t-60 93t-206 30zM1004 287q327 0 327 153q0 77 -78 115.5t-249 38.5q-172 0 -250 -38t-78 -116q0 -76 79 -114.5t249 -38.5z" />
    <glyph glyph-name="nine" unicode="9" horiz-adv-x="1884" 
d="M915 1516q846 0 846 -744q0 -174 -47.5 -312t-132 -231t-206 -154.5t-263 -88.5t-309.5 -27q-157 0 -267 8.5t-270 32.5v369q289 -41 488 -41q232 0 340 57.5t129 206.5q-220 -111 -482 -111q-287 0 -442.5 125.5t-155.5 364.5q0 272 197 408.5t575 136.5zM952 768
q147 0 212 48t65 140q0 191 -277 191q-276 0 -276 -191q0 -188 276 -188z" />
    <glyph glyph-name="colon" unicode=":" horiz-adv-x="737" 
d="M123 614v369h491v-369h-491zM123 0v369h491v-369h-491z" />
    <glyph glyph-name="semicolon" unicode=";" horiz-adv-x="737" 
d="M123 614v369h491v-369h-491zM303 0h-180v369h491v-369l-231 -451h-219z" />
    <glyph glyph-name="less" unicode="&#x3c;" horiz-adv-x="1884" 
d="M123 1004l1638 225v-395l-1261 -138l1261 -137v-395l-1638 225v615z" />
    <glyph glyph-name="equal" unicode="=" horiz-adv-x="1884" 
d="M123 850v348h1638v-348h-1638zM123 195v348h1638v-348h-1638z" />
    <glyph glyph-name="greater" unicode="&#x3e;" horiz-adv-x="1884" 
d="M123 834v395l1638 -225v-615l-1638 -225v395l1261 137z" />
    <glyph glyph-name="question" unicode="?" horiz-adv-x="1769" 
d="M1087 492h-491q0 90 28.5 162t74.5 117t101 79.5t110 58.5t101 45.5t74.5 48.5t28.5 60q0 47 -47.5 75.5t-151.5 28.5q-70 0 -123 -12t-94 -38.5t-62.5 -73t-21.5 -111.5h-491q6 121 46.5 217.5t110.5 164.5t169.5 113.5t220.5 67t266 21.5q711 0 711 -371
q0 -80 -31 -143t-80.5 -102.5t-109 -73t-119 -64t-109 -65t-80.5 -86.5t-31 -119zM596 0v369h491v-369h-491z" />
    <glyph glyph-name="at" unicode="@" horiz-adv-x="2820" 
d="M1524 -287q295 0 534 52.5t457 142.5l133 -270q-102 -49 -163.5 -75.5t-174 -65.5t-214.5 -59.5t-252 -36t-320 -15.5q-364 0 -631.5 76t-436.5 225.5t-251 363.5t-82 498q0 213 51.5 389.5t160.5 319t272.5 240t395 150t521.5 52.5q296 0 521 -71.5t367.5 -205.5
t213.5 -318.5t71 -416.5q0 -359 -141 -531.5t-420 -172.5q-161 0 -270.5 64.5t-163.5 172.5q-121 -211 -404 -211q-130 0 -230.5 40.5t-162.5 113.5t-93.5 168.5t-31.5 210.5t31.5 210.5t93.5 168t162.5 113t230.5 40.5q230 0 355 -141v113h327v-615q0 -41 1.5 -66.5
t6.5 -57t16.5 -50.5t30 -36.5t48 -25.5t69.5 -8q47 0 82.5 22t57 59t34.5 94t18 119t5 143q0 217 -43.5 359t-145 229t-253.5 123t-383 36q-288 0 -488.5 -48t-326 -151.5t-182 -255.5t-56.5 -368q0 -225 56 -380.5t182.5 -258.5t325.5 -150t489 -47zM1391 317
q262 0 262 226q0 225 -262 225q-263 0 -263 -225q0 -226 263 -226z" />
    <glyph glyph-name="A" unicode="A" horiz-adv-x="2347" 
d="M2245 0h-545l-121 258h-811l-121 -258h-545l707 1475h729zM1174 1122l-234 -495h467z" />
    <glyph glyph-name="B" unicode="B" horiz-adv-x="1961" 
d="M1352 0h-1229v1475h1147q142 0 242.5 -26t157.5 -75.5t82.5 -113t25.5 -146.5q0 -128 -67.5 -213t-186.5 -129q336 -86 336 -364q0 -191 -122.5 -299.5t-385.5 -108.5zM635 1106v-213h471q36 0 53.5 1t42.5 6t36 16t19.5 31.5t8.5 51.5t-8.5 52t-20 31.5t-35.5 16
t-42 6.5t-54 1h-471zM635 582v-213h553q24 0 36.5 0.5t32 3.5t29.5 9.5t21 18t15.5 30t4.5 44.5q0 38 -10 61t-33 32.5t-41.5 11.5t-54.5 2h-553z" />
    <glyph glyph-name="C" unicode="C" horiz-adv-x="2000" 
d="M102 739q0 383 234.5 580t667.5 197q400 0 631 -162.5t263 -470.5h-544q-17 81 -106 141.5t-244 60.5q-189 0 -279 -95t-90 -251q0 -157 90.5 -253.5t278.5 -96.5q155 0 244 62t106 145h544q-32 -310 -262 -473.5t-632 -163.5q-433 0 -667.5 197.5t-234.5 582.5z" />
    <glyph glyph-name="D" unicode="D" horiz-adv-x="1961" 
d="M123 1475h1065q133 0 251.5 -45t213.5 -132.5t151 -232t56 -328.5q0 -148 -37 -271t-100 -208t-149 -144t-183 -86.5t-203 -27.5h-1065v1475zM635 1044v-614h348q64 0 98 2t88.5 18t83 46t51.5 91.5t23 149.5t-23 149.5t-51.5 91.5t-83 46t-88.5 18t-98 2h-348z" />
    <glyph glyph-name="E" unicode="E" horiz-adv-x="1761" 
d="M123 1475h1515v-390h-1003v-153h962v-389h-962v-154h1003v-389h-1515v1475z" />
    <glyph glyph-name="F" unicode="F" horiz-adv-x="1761" 
d="M123 1475h1515v-431h-1003v-215h881v-430h-881v-399h-512v1475z" />
    <glyph glyph-name="G" unicode="G" horiz-adv-x="2000" 
d="M102 739q0 190 69.5 339t194.5 244t292.5 144.5t369.5 49.5q250 0 444.5 -74.5t304.5 -206.5t121 -301h-544q-19 59 -97 105t-225 46q-202 0 -299.5 -98t-97.5 -268q0 -68 12.5 -121.5t44.5 -101.5t83.5 -79.5t132.5 -50t188 -18.5q205 0 393 78v88h-459v307h868v-657
q-211 -117 -407 -161t-426 -44q-215 0 -391 49.5t-304 145t-198 245t-70 340.5z" />
    <glyph glyph-name="H" unicode="H" horiz-adv-x="2109" 
d="M635 952h840v523h512v-1475h-512v522h-840v-522h-512v1475h512v-523z" />
    <glyph glyph-name="I" unicode="I" horiz-adv-x="757" 
d="M123 1475h512v-1475h-512v1475z" />
    <glyph glyph-name="J" unicode="J" horiz-adv-x="1966" 
d="M797 1475h1046v-756q0 -381 -206 -570.5t-654 -189.5q-438 0 -649 190.5t-211 569.5h512q0 -330 348 -330t348 330v325h-534v431z" />
    <glyph glyph-name="K" unicode="K" horiz-adv-x="2093" 
d="M1237 1475h754l-686 -592l686 -883h-623l-426 569l-307 -264v-305h-512v1475h512v-555z" />
    <glyph glyph-name="L" unicode="L" horiz-adv-x="1679" 
d="M123 1475h512v-1045h962v-430h-1474v1475z" />
    <glyph glyph-name="M" unicode="M" horiz-adv-x="2646" 
d="M635 0h-512v1475h799l401 -879l401 879h799v-1475h-512v983l-450 -983h-476l-450 983v-983z" />
    <glyph glyph-name="N" unicode="N" horiz-adv-x="2215" 
d="M881 1475l700 -975v975h512v-1475h-758l-700 975v-975h-512v1475h758z" />
    <glyph glyph-name="O" unicode="O" horiz-adv-x="2129" 
d="M1065 -41q-459 0 -711 203t-252 577q0 372 252 574.5t711 202.5q457 0 710 -203t253 -574q0 -372 -253 -576t-710 -204zM1065 389q430 0 430 350q0 346 -430 346q-98 0 -173.5 -17.5t-123.5 -48t-78.5 -75.5t-42.5 -94.5t-12 -110.5q0 -77 21 -137.5t68 -110t133.5 -76
t207.5 -26.5z" />
    <glyph glyph-name="P" unicode="P" horiz-adv-x="1982" 
d="M123 0v1475h1167q276 0 433 -149t157 -411t-157 -410.5t-433 -148.5h-655v-356h-512zM1167 1044h-532v-258h532q31 0 46.5 0.5t41 4t39 11.5t28 22t20.5 37t6 54t-6 54t-20.5 37t-28 22t-39 11.5t-41 4t-46.5 0.5z" />
    <glyph glyph-name="Q" unicode="Q" horiz-adv-x="2185" 
d="M1901 297l202 -178l-245 -246l-226 199q-232 -113 -567 -113q-459 0 -711 203t-252 577q0 372 252 574.5t711 202.5q457 0 710 -203t253 -574q0 -262 -127 -442zM1065 389q97 0 186 21l-180 159l246 246l172 -153q6 41 6 77q0 346 -430 346q-98 0 -173.5 -17.5
t-123.5 -48t-78.5 -75.5t-42.5 -94.5t-12 -110.5q0 -77 21 -137.5t68 -110t133.5 -76t207.5 -26.5z" />
    <glyph glyph-name="R" unicode="R" horiz-adv-x="2023" 
d="M1606 580q129 -8 201.5 -81.5t72.5 -203.5v-295h-512v209q0 99 -33 133.5t-131 34.5h-569v-377h-512v1475h1147q303 0 456.5 -122t153.5 -356q0 -323 -274 -417zM1147 1065h-512v-279h512q32 0 48 0.5t41.5 3t38.5 8t29.5 15.5t24.5 24.5t13.5 37t5.5 51.5t-5.5 51.5
t-13.5 37t-24.5 24.5t-29.5 15t-38.5 7.5t-41.5 3t-48 0.5z" />
    <glyph glyph-name="S" unicode="S" horiz-adv-x="2035" 
d="M102 485h533q0 -157 403 -157q151 0 233.5 14.5t106 35.5t23.5 56q0 16 -2.5 27t-11 21.5t-21 17.5t-36.5 14.5t-52.5 12t-75.5 10t-98.5 10t-126.5 10.5q-450 33 -652 147t-202 355q0 221 223.5 339t609.5 118q434 0 667.5 -128.5t248.5 -373.5h-533q0 71 -92.5 102
t-290.5 31q-119 0 -188 -12.5t-91 -31t-22 -46.5q0 -34 27.5 -53t114 -35t262.5 -31q118 -10 189.5 -17.5t166.5 -21t152 -30t124 -41.5t105 -58.5t73 -78.5t49.5 -104t14.5 -132q0 -138 -58.5 -235t-174.5 -154t-272.5 -82t-368.5 -25q-227 0 -397 28.5t-295 90
t-191.5 163.5t-73.5 244z" />
    <glyph glyph-name="T" unicode="T" horiz-adv-x="1966" 
d="M102 1044v431h1762v-431h-625v-1044h-512v1044h-625z" />
    <glyph glyph-name="U" unicode="U" horiz-adv-x="2048" 
d="M1925 1475v-756q0 -380 -218 -570t-683 -190q-466 0 -683.5 189.5t-217.5 570.5v756h512v-736q0 -71 17.5 -129t58.5 -110t121 -81.5t192 -29.5q91 0 160.5 20.5t112 53t69.5 79.5t37 94.5t10 102.5v736h512z" />
    <glyph glyph-name="V" unicode="V" horiz-adv-x="2347" 
d="M1174 352l526 1123h545l-707 -1475h-729l-707 1475h545z" />
    <glyph glyph-name="W" unicode="W" horiz-adv-x="3403" 
d="M2447 391l338 1084h516l-475 -1475h-737l-387 1055l-387 -1055h-737l-476 1475h516l338 -1084l408 1084h676z" />
    <glyph glyph-name="X" unicode="X" horiz-adv-x="2359" 
d="M791 0h-689l729 737l-729 738h689l389 -431l389 431h688l-729 -738l729 -737h-688l-389 430z" />
    <glyph glyph-name="Y" unicode="Y" horiz-adv-x="2301" 
d="M1151 922l414 553h635l-793 -983v-492h-512v492l-793 983h635z" />
    <glyph glyph-name="Z" unicode="Z" horiz-adv-x="1904" 
d="M123 1044v431h1659v-431l-918 -614h918v-430h-1659v430l917 614h-917z" />
    <glyph glyph-name="bracketleft" unicode="[" horiz-adv-x="1331" 
d="M123 1638h1085v-389h-573v-1269h573v-390h-1085v2048z" />
    <glyph glyph-name="backslash" unicode="\" horiz-adv-x="1277" 
d="M705 -307l-582 1945h450l582 -1945h-450z" />
    <glyph glyph-name="bracketright" unicode="]" horiz-adv-x="1331" 
d="M123 1249v389h1085v-2048h-1085v390h573v1269h-573z" />
    <glyph glyph-name="asciicircum" unicode="^" horiz-adv-x="1886" 
d="M1251 1638l512 -921h-446l-373 694l-375 -694h-446l514 921h614z" />
    <glyph glyph-name="underscore" unicode="_" horiz-adv-x="2375" 
d="M164 -451v369h2048v-369h-2048z" />
    <glyph glyph-name="grave" unicode="`" horiz-adv-x="1042" 
d="M123 1761l797 -164v-211l-797 164v211z" />
    <glyph glyph-name="a" unicode="a" horiz-adv-x="1921" 
d="M1055 1270q394 0 577.5 -148t186.5 -493v-629h-471v164q-154 -95 -339.5 -139.5t-359.5 -44.5q-100 0 -183 12.5t-155.5 41.5t-122 73.5t-78 111.5t-28.5 152q0 97 41.5 172t109 121t162 75.5t189.5 40.5t204 11q259 0 560 -62q-4 62 -33.5 104.5t-82 66t-116 33
t-149.5 9.5q-300 0 -719 -98l-66 321q473 105 873 105zM811 307q173 0 537 62v94q-282 41 -490 41q-156 0 -220.5 -23t-64.5 -78q0 -53 53 -74.5t185 -21.5z" />
    <glyph glyph-name="b" unicode="b" 
d="M1163 1270q100 0 192 -20t181 -68.5t154 -121.5t105 -187.5t40 -258.5t-40 -258.5t-105 -187t-154 -121t-181 -68.5t-192 -20q-181 0 -330.5 62.5t-238.5 197.5v-219h-471v1638h471v-628q89 135 238.5 197.5t330.5 62.5zM969 348q374 0 374 266q0 267 -374 267
q-375 0 -375 -267q0 -266 375 -266z" />
    <glyph glyph-name="c" unicode="c" horiz-adv-x="1912" 
d="M82 614q0 323 225.5 489.5t650.5 166.5q384 0 606 -135.5t267 -407.5h-481q-65 174 -392 174q-202 0 -303.5 -69.5t-101.5 -217.5t101.5 -217t303.5 -69q327 0 392 174h481q-45 -272 -267 -407.5t-606 -135.5q-426 0 -651 166t-225 489z" />
    <glyph glyph-name="d" unicode="d" 
d="M1323 1010v628h471v-1638h-471v219q-89 -135 -238.5 -197.5t-330.5 -62.5q-100 0 -192 20t-181 68.5t-154 121t-105 187t-40 258.5t40 258.5t105 187.5t154 121.5t181 68.5t192 20q181 0 330.5 -62.5t238.5 -197.5zM948 348q375 0 375 266q0 267 -375 267t-375 -267
q0 -266 375 -266z" />
    <glyph glyph-name="e" unicode="e" horiz-adv-x="1912" 
d="M993 307q164 0 249 34t118 99h461q-31 -117 -94.5 -204.5t-165 -150t-248.5 -94.5t-338 -32q-422 0 -657.5 167.5t-235.5 487.5q0 212 112.5 361.5t307.5 222t454 72.5q200 0 359 -45t275 -133.5t178.5 -229.5t62.5 -325h-1272q24 -128 130.5 -179t303.5 -51zM956 963
q-155 0 -249.5 -45t-131.5 -148h768q-39 103 -134 148t-253 45z" />
    <glyph glyph-name="f" unicode="f" horiz-adv-x="1404" 
d="M1085 1372q-138 0 -189 -32.5t-54 -110.5h481v-348h-481v-881h-471v881h-289v348h289v47q0 190 148.5 296.5t441.5 106.5q192 0 362 -20v-301q-192 14 -238 14z" />
    <glyph glyph-name="g" unicode="g" 
d="M1323 1016v213h471v-1100q-3 -348 -188.5 -504.5t-575.5 -156.5q-403 0 -872 104l65 352q234 -46 398.5 -67t320.5 -21q91 0 155.5 11.5t118 40.5t80.5 85.5t27 139.5v141q-89 -131 -239 -192.5t-330 -61.5q-99 0 -191.5 20t-181.5 67.5t-154 118.5t-105 181.5t-40 247.5
t40 247.5t105 181.5t154 118.5t181.5 67.5t191.5 20q180 0 330 -61.5t239 -192.5zM948 389q198 0 286.5 61.5t88.5 184.5t-88.5 184.5t-286.5 61.5t-286.5 -61.5t-88.5 -184.5t88.5 -184.5t286.5 -61.5z" />
    <glyph glyph-name="h" unicode="h" horiz-adv-x="2045" 
d="M1298 1270q625 0 625 -613v-657h-471v481q0 104 -19 176t-63.5 123.5t-119 76t-183.5 24.5q-229 0 -351 -100.5t-122 -299.5v-481h-471v1638h471v-696q124 157 292 242.5t412 85.5z" />
    <glyph glyph-name="i" unicode="i" horiz-adv-x="716" 
d="M123 1352v286h471v-286h-471zM123 0v1229h471v-1229h-471z" />
    <glyph glyph-name="j" unicode="j" horiz-adv-x="1095" 
d="M502 1352v286h471v-286h-471zM502 1229h471v-1174q0 -587 -570 -587q-186 0 -362 30v359q175 -21 252 -21q86 0 128.5 18.5t61.5 68.5t19 151v1155z" />
    <glyph glyph-name="k" unicode="k" horiz-adv-x="1990" 
d="M1196 1229h713l-701 -510l701 -719h-586l-444 479l-285 -207v-272h-471v1638h471v-860z" />
    <glyph glyph-name="l" unicode="l" horiz-adv-x="716" 
d="M123 0v1638h471v-1638h-471z" />
    <glyph glyph-name="m" unicode="m" horiz-adv-x="2883" 
d="M594 0h-471v1229h471v-217q211 258 541 258q173 0 305 -77.5t192 -238.5q224 316 586 316q90 0 168.5 -20t148 -65t119.5 -112.5t78.5 -168t28.5 -226.5v-678h-471v604q0 151 -68 214t-215 63q-70 0 -127.5 -14.5t-104 -46t-72.5 -86.5t-26 -130v-604h-471v604
q0 151 -67.5 214t-214.5 63q-70 0 -127.5 -14.5t-104 -46t-72.5 -86.5t-26 -130v-604z" />
    <glyph glyph-name="n" unicode="n" horiz-adv-x="2045" 
d="M594 0h-471v1229h471v-287q124 157 292 242.5t412 85.5q625 0 625 -613v-657h-471v481q0 104 -19 176t-63.5 123.5t-119 76t-183.5 24.5q-229 0 -351 -100.5t-122 -299.5v-481z" />
    <glyph glyph-name="o" unicode="o" 
d="M958 -41q-431 0 -653.5 172t-222.5 483q0 312 222.5 484t653.5 172t654 -172.5t223 -483.5t-223 -483t-654 -172zM958 328q197 0 291 68.5t94 217.5t-94 218t-291 69t-291 -69t-94 -218t94 -217.5t291 -68.5z" />
    <glyph glyph-name="p" unicode="p" 
d="M1163 1270q100 0 192 -20t181 -68.5t154 -121.5t105 -187.5t40 -258.5t-40 -258.5t-105 -187t-154 -121t-181 -68.5t-192 -20q-181 0 -330.5 62.5t-238.5 197.5v-711h-471v1721h471v-219q89 135 238.5 197.5t330.5 62.5zM969 348q374 0 374 266q0 267 -374 267
q-375 0 -375 -267q0 -266 375 -266z" />
    <glyph glyph-name="q" unicode="q" 
d="M1323 1010v219h471v-1721h-471v711q-89 -135 -238.5 -197.5t-330.5 -62.5q-100 0 -192 20t-181 68.5t-154 121t-105 187t-40 258.5t40 258.5t105 187.5t154 121.5t181 68.5t192 20q181 0 330.5 -62.5t238.5 -197.5zM948 348q375 0 375 266q0 267 -375 267t-375 -267
q0 -266 375 -266z" />
    <glyph glyph-name="r" unicode="r" horiz-adv-x="1478" 
d="M1098 1270q155 0 299 -62v-409q-97 35 -168 48t-150 13q-59 0 -113 -10.5t-117.5 -36.5t-128.5 -79.5t-126 -131.5v-602h-471v1229h471v-266q95 164 216 235.5t288 71.5z" />
    <glyph glyph-name="s" unicode="s" horiz-adv-x="1830" 
d="M82 412h491q0 -52 28 -82t108.5 -47t226.5 -17q135 0 205.5 12t93 34t22.5 63q0 33 -14 51t-57 29.5t-108.5 17.5t-183.5 15q-13 0 -20 1q-94 7 -162 13t-140.5 15.5t-123.5 20t-102.5 26t-85 35t-64 44.5t-47.5 57t-26.5 71t-9.5 87q0 97 42.5 170t113.5 118.5t176 74
t216 39t248 10.5q134 0 247 -13t214 -43t172.5 -77t115.5 -118t50 -163h-491q0 69 -76.5 98t-241.5 29q-161 0 -228 -23t-67 -69q0 -18 4.5 -29.5t21.5 -22t39 -16.5t69 -13t98.5 -12t140.5 -12q321 -27 437 -51q203 -42 277 -139q58 -75 58 -199q0 -105 -39 -183
t-105.5 -126t-169.5 -77.5t-217 -40.5t-262 -11q-205 0 -359.5 23t-273 74t-180 140.5t-61.5 215.5z" />
    <glyph glyph-name="t" unicode="t" horiz-adv-x="1384" 
d="M1303 1229v-348h-502v-336q0 -94 43 -145.5t145 -51.5q80 0 142 8.5t172 32.5v-379q-221 -51 -424 -51q-549 0 -549 424v498h-248v348h248v225l471 123v-348h502z" />
    <glyph glyph-name="u" unicode="u" horiz-adv-x="2045" 
d="M1452 748v481h471v-1229h-471v287q-124 -157 -292 -242.5t-412 -85.5q-625 0 -625 612v658h471v-481q0 -104 19 -176t63.5 -123.5t119 -76t183.5 -24.5q229 0 351 100.5t122 299.5z" />
    <glyph glyph-name="v" unicode="v" horiz-adv-x="2045" 
d="M1024 258l463 971h477l-594 -1229h-694l-594 1229h477z" />
    <glyph glyph-name="w" unicode="w" horiz-adv-x="3270" 
d="M2343 319l381 910h465l-514 -1229h-656l-383 801l-385 -801h-655l-514 1229h465l381 -910l432 910h551z" />
    <glyph glyph-name="x" unicode="x" horiz-adv-x="2060" 
d="M698 0h-616l633 614l-633 615h616l332 -369l332 369h616l-632 -615l632 -614h-616l-332 369z" />
    <glyph glyph-name="y" unicode="y" horiz-adv-x="2025" 
d="M1022 262l465 967h477l-578 -1198q-54 -113 -106.5 -196t-118 -155t-139 -117t-167.5 -70t-206 -25q-216 0 -465 71v359q275 -62 396 -62q53 0 85.5 2.5t67 11.5t58.5 27t49 47.5t51 75.5h-221l-588 1229h477z" />
    <glyph glyph-name="z" unicode="z" horiz-adv-x="1708" 
d="M123 1229h1462v-348l-837 -533h837v-348h-1462v348l838 533h-838v348z" />
    <glyph glyph-name="braceleft" unicode="{" horiz-adv-x="1331" 
d="M123 422v389q47 0 76.5 1.5t69 7.5t64 17.5t50.5 33t39 53t19 78t1 106.5q-12 154 22 255t128.5 163t241 87t374.5 25v-389q-92 0 -152.5 -6t-110 -22.5t-76 -46.5t-38 -76t-6.5 -113q7 -88 -9.5 -154t-44 -101.5t-68 -57.5t-73.5 -28.5t-69 -6.5v-41q36 0 69 -6.5
t73.5 -28.5t68 -57.5t44 -101.5t9.5 -154q-6 -85 11.5 -137.5t67.5 -81.5t119.5 -39t184.5 -10v-390q-238 0 -387.5 25.5t-240 89.5t-121 163.5t-17.5 256.5q5 60 -1 106.5t-19 78t-39 53t-50.5 33t-64 17.5t-69 7.5t-76.5 1.5z" />
    <glyph glyph-name="bar" unicode="|" horiz-adv-x="675" 
d="M123 -307v1945h430v-1945h-430z" />
    <glyph glyph-name="braceright" unicode="}" horiz-adv-x="1372" 
d="M1249 811v-389q-47 0 -76.5 -1.5t-69 -7.5t-64 -17.5t-50.5 -33t-39 -53t-19 -78t-1 -106.5q13 -157 -17.5 -256.5t-121 -163.5t-240 -89.5t-387.5 -25.5v390q115 0 184.5 10t119.5 39t67.5 81.5t11.5 137.5q-7 88 9.5 154t44 101.5t68 57.5t73.5 28.5t69 6.5v41
q-36 0 -69 6.5t-73.5 28.5t-68 57.5t-44 101.5t-9.5 154q5 67 -6.5 113t-38 76t-76 46.5t-110 22.5t-152.5 6v389q228 0 374.5 -25t241 -87t128.5 -163t22 -255q-5 -60 1 -106.5t19 -78t39 -53t50.5 -33t64 -17.5t69 -7.5t76.5 -1.5z" />
    <glyph glyph-name="asciitilde" unicode="~" horiz-adv-x="1884" 
d="M512 369h-389q0 311 110.5 483t319.5 172q81 0 160 -25.5t141 -61.5t119.5 -72t118.5 -61.5t116 -25.5q89 0 126.5 55t37.5 191h389q0 -311 -110.5 -483t-319.5 -172q-81 0 -160 25t-141 61.5t-119.5 72.5t-118.5 61t-116 25q-89 0 -126.5 -54.5t-37.5 -190.5z" />
    <glyph glyph-name="exclamdown" unicode="&#xa1;" horiz-adv-x="778" 
d="M635 860h-492v369h492v-369zM635 737l20 -942h-532l20 942h492z" />
    <glyph glyph-name="cent" unicode="&#xa2;" horiz-adv-x="1953" 
d="M1079 999v-565q237 25 291 170h481q-42 -254 -238 -389t-534 -152v-268h-205v268q-377 20 -574.5 185t-197.5 469q0 303 197.5 468t574.5 185v268h205v-268q338 -17 534 -152t238 -389h-481q-54 145 -291 170zM573 717q0 -250 301 -281v561q-301 -31 -301 -280z" />
    <glyph glyph-name="sterling" unicode="&#xa3;" horiz-adv-x="1761" 
d="M1153 1126q-80 0 -135.5 -9.5t-96 -32t-58 -60t-21.5 -93t14 -130.5h545v-123h-531q-10 -210 -354 -289h1122v-389h-1515v389q20 20 56 54t51 49t40 40.5t36.5 39.5t26 34t22 37t12.5 35h-244v123h244q-3 19 -19 76q-29 89 -26 171t28.5 153t85.5 129t145 99.5t206.5 64
t269.5 22.5q146 0 271.5 -14.5t309.5 -47.5v-387q-168 32 -273 45.5t-212 13.5z" />
    <glyph glyph-name="currency" unicode="&#xa4;" 
d="M1855 717q0 -311 -221 -481l156 -156l-174 -174l-213 213q-187 -58 -424 -58t-424 58l-213 -213l-174 174l156 156q-222 171 -222 481t222 481l-156 156l174 174l213 -213q183 57 424 57t424 -57l213 213l174 -174l-156 -156q221 -170 221 -481zM645 557l78 -80
q90 -47 256 -47q197 0 291 69t94 218q0 120 -64 190l-63 49q-92 48 -258 48q-197 0 -291 -69t-94 -218q0 -104 45 -166z" />
    <glyph glyph-name="yen" unicode="&#xa5;" horiz-adv-x="2400" 
d="M1585 1475h635l-610 -758h461v-123h-562l-82 -102v-41h644v-123h-644v-328h-512v328h-585v123h585v41l-81 102h-504v123h403l-610 758h635l413 -553z" />
    <glyph glyph-name="brokenbar" unicode="&#xa6;" horiz-adv-x="675" 
d="M123 870v768h430v-768h-430zM123 -307v768h430v-768h-430z" />
    <glyph glyph-name="section" unicode="&#xa7;" horiz-adv-x="1892" 
d="M1446 463q164 -47 243.5 -135.5t79.5 -239.5q0 -87 -28.5 -156.5t-83.5 -116.5t-125.5 -80t-164 -51t-189.5 -26t-211 -8q-777 0 -803 434h491q0 -82 73 -108.5t249 -26.5q166 0 233.5 29.5t67.5 91.5q0 27 -8.5 44t-30 31.5t-67 24t-109.5 18t-168 17.5
q-121 10 -189.5 17t-160.5 20t-142 28.5t-108 40t-86 56.5t-47 77.5t-19 102.5q0 124 77 195t222 102q-163 47 -241 131t-78 225q0 87 28.5 156.5t83.5 116.5t126 80t164.5 51t189.5 26t211 8q777 0 803 -434h-492q0 82 -73 108.5t-249 26.5q-166 0 -233.5 -29t-67.5 -91
q0 -34 27 -52.5t108 -33t248 -29.5q121 -10 189.5 -17t160.5 -20t142 -28.5t108 -40t86 -56.5t47 -77.5t19 -102.5q0 -125 -77 -196t-226 -103zM614 668q0 -64 77.5 -90.5t305.5 -45.5q4 0 13.5 -1t13.5 -1q254 -18 254 111q0 65 -78 91t-305 44q-6 0 -17.5 1t-17.5 1
q-246 16 -246 -110z" />
    <glyph glyph-name="dieresis" unicode="&#xa8;" horiz-adv-x="1146" 
d="M123 1434v204h369v-204h-369zM655 1434v204h369v-204h-369z" />
    <glyph glyph-name="copyright" unicode="&#xa9;" horiz-adv-x="1935" 
d="M969 -20q-405 0 -625.5 198.5t-220.5 540.5t220 538.5t626 196.5q407 0 625 -196t218 -539t-218.5 -541t-624.5 -198zM969 143q321 0 494 145.5t173 430.5t-172 428t-495 143t-496.5 -144t-173.5 -427q0 -285 174.5 -430.5t495.5 -145.5zM500 717q0 189 131 285t356 96
q385 0 449 -295h-176q-25 72 -89.5 101.5t-203.5 29.5q-140 0 -215.5 -50.5t-75.5 -166.5t75.5 -166.5t215.5 -50.5q139 0 203.5 29.5t89.5 101.5h176q-64 -295 -449 -295q-225 0 -356 96t-131 285z" />
    <glyph glyph-name="guillemotleft" unicode="&#xab;" horiz-adv-x="2207" 
d="M123 614l532 615h570l-533 -615l533 -614h-570zM983 614l533 615h569l-533 -615l533 -614h-569z" />
    <glyph glyph-name="logicalnot" unicode="&#xac;" horiz-adv-x="1884" 
d="M123 932h1638v-819h-430v471h-1208v348z" />
    <glyph glyph-name="registered" unicode="&#xae;" horiz-adv-x="1935" 
d="M969 -41q-202 0 -363 55.5t-266.5 156t-161 240t-55.5 308.5t56 314t160.5 253t266.5 169t363 61q162 0 299 -39.5t236.5 -111.5t169 -171.5t104 -219.5t34.5 -255q0 -169 -55 -308.5t-159.5 -240t-265 -156t-363.5 -55.5zM969 123q318 0 492.5 154.5t174.5 441.5
q0 292 -176 462.5t-491 170.5t-492.5 -171.5t-177.5 -461.5q0 -287 176 -441.5t494 -154.5zM819 393h-172v670h404q151 0 224 -65.5t73 -184.5q0 -72 -38 -132t-112 -91l139 -197h-202l-121 172h-195v-172zM819 899v-170h240q62 0 89.5 19t27.5 65t-28 66t-89 20h-240z" />
    <glyph glyph-name="macron" unicode="&#xaf;" horiz-adv-x="1206" 
d="M123 1434v204h960v-204h-960z" />
    <glyph glyph-name="degree" unicode="&#xb0;" horiz-adv-x="1456" 
d="M727 469q-136 0 -242 29t-173 77t-110.5 116.5t-61 142t-17.5 159.5q0 85 17.5 158.5t61 142t110.5 116.5t173 77t242 29t242.5 -29t174 -77t111 -116.5t61 -142t17.5 -158.5q0 -86 -17.5 -159.5t-61 -142t-111 -116.5t-174 -77t-242.5 -29zM727 756q128 0 183 66t55 173
q0 105 -55 169.5t-183 64.5q-127 0 -181 -64.5t-54 -169.5q0 -51 11.5 -91.5t37.5 -75t73 -53.5t113 -19z" />
    <glyph glyph-name="plusminus" unicode="&#xb1;" horiz-adv-x="1884" 
d="M1157 1454v-317h604v-349h-604v-317h-430v317h-604v349h604v317h430zM1761 31h-1638v348h1638v-348z" />
    <glyph glyph-name="acute" unicode="&#xb4;" horiz-adv-x="1042" 
d="M123 1386v211l797 164v-211z" />
    <glyph glyph-name="paragraph" unicode="&#xb6;" horiz-adv-x="1939" 
d="M756 1638h430v-1945h-430v962q-78 0 -120.5 1t-119.5 10.5t-122.5 27t-103.5 53.5t-89.5 87t-54.5 131t-23 182t22.5 181.5t54.5 130.5t89.5 87t103 53.5t122.5 27t119 10.5t120 1h2zM1386 -307v1945h431v-1945h-431z" />
    <glyph glyph-name="periodcentered" unicode="&#xb7;" horiz-adv-x="737" 
d="M123 471v369h491v-369h-491z" />
    <glyph glyph-name="cedilla" unicode="&#xb8;" horiz-adv-x="892" 
d="M557 -96q98 0 155.5 -42t57.5 -120q0 -62 -37.5 -107.5t-99.5 -71t-146.5 -37.5t-175 -10.5t-188.5 13.5v184q186 -29 273 -22.5t87 55.5q0 47 -63 47q-44 0 -88 -31l-142 43l39 195h201l-31 -121q70 25 158 25z" />
    <glyph glyph-name="guillemotright" unicode="&#xbb;" horiz-adv-x="2207" 
d="M123 1229h569l533 -615l-533 -614h-569l532 614zM983 1229h569l533 -615l-533 -614h-569l533 614z" />
    <glyph glyph-name="questiondown" unicode="&#xbf;" horiz-adv-x="1769" 
d="M1174 1229v-369h-492v369h492zM682 737h492q0 -90 -28.5 -162t-74.5 -117t-101.5 -79.5t-110.5 -58.5t-101 -45.5t-74.5 -48.5t-28.5 -60q0 -47 47.5 -76t151.5 -29q143 0 222 54.5t79 181.5h492q-6 -121 -46.5 -217.5t-110.5 -164.5t-169.5 -113.5t-220.5 -67
t-266 -21.5q-711 0 -711 371q0 80 31 143t80 102.5t108.5 73t119.5 64t109 65t80 86.5t31 119z" />
    <glyph glyph-name="Agrave" unicode="&#xc0;" horiz-adv-x="2347" 
d="M774 2007l797 -164v-211l-797 164v211zM2245 0h-545l-121 258h-811l-121 -258h-545l707 1475h729zM1174 1122l-234 -495h467z" />
    <glyph glyph-name="Aacute" unicode="&#xc1;" horiz-adv-x="2347" 
d="M774 1843l797 164v-211l-797 -164v211zM2245 0h-545l-121 258h-811l-121 -258h-545l707 1475h729zM1174 1122l-234 -495h467z" />
    <glyph glyph-name="Acircumflex" unicode="&#xc2;" horiz-adv-x="2347" 
d="M1597 1843v-219l-423 164l-424 -164v219l424 164zM2245 0h-545l-121 258h-811l-121 -258h-545l707 1475h729zM1174 1122l-234 -495h467z" />
    <glyph glyph-name="Atilde" unicode="&#xc3;" horiz-adv-x="2347" 
d="M948 1782q-69 0 -96 -44t-27 -141h-286q0 72 9 134t31.5 121.5t58.5 102t94.5 68t133.5 25.5q85 0 168 -29t137 -63t116.5 -63t111.5 -29q69 0 96 44t27 140h286q0 -72 -9 -134t-31.5 -121.5t-58.5 -102t-94.5 -68t-133.5 -25.5q-85 0 -168 29t-137 63.5t-116.5 63.5
t-111.5 29zM2245 0h-545l-121 258h-811l-121 -258h-545l707 1475h729zM1174 1122l-234 -495h467z" />
    <glyph glyph-name="Adieresis" unicode="&#xc4;" horiz-adv-x="2347" 
d="M723 1884h369v-205h-369v205zM1255 1884h369v-205h-369v205zM2245 0h-545l-121 258h-811l-121 -258h-545l707 1475h729zM1174 1122l-234 -495h467z" />
    <glyph glyph-name="Aring" unicode="&#xc5;" horiz-adv-x="2347" 
d="M1174 1597q-236 0 -343.5 69.5t-107.5 201.5t107.5 201t343.5 69t343 -69t107 -201t-107.5 -201.5t-342.5 -69.5zM1174 1974q-205 0 -205 -106q0 -107 205 -107q204 0 204 107q0 106 -204 106zM2245 0h-545l-121 258h-811l-121 -258h-545l707 1475h729zM1174 1122
l-234 -495h467z" />
    <glyph glyph-name="AE" unicode="&#xc6;" horiz-adv-x="2977" 
d="M102 0l615 1475h2158v-390h-1003v-153h962v-389h-962v-154h1003v-389h-1515v256h-619l-106 -256h-533zM1087 1085l-192 -460h465v460h-273z" />
    <glyph glyph-name="Ccedilla" unicode="&#xc7;" horiz-adv-x="2000" 
d="M1004 389q155 0 244 62t106 145h544q-31 -301 -249.5 -464.5t-599.5 -172.5l-25 -100q67 24 158 24q98 0 155.5 -42t57.5 -120q0 -62 -37.5 -107.5t-99.5 -71t-146.5 -37.5t-175 -10.5t-188.5 13.5v185q186 -29 273 -22.5t87 55.5q0 47 -64 47q-44 0 -88 -31l-141 43
l37 180q-363 34 -556.5 229.5t-193.5 544.5q0 383 234.5 580t667.5 197q400 0 631 -162.5t263 -470.5h-544q-17 81 -106 141.5t-244 60.5q-189 0 -279 -95t-90 -251q0 -157 90.5 -253.5t278.5 -96.5z" />
    <glyph glyph-name="Egrave" unicode="&#xc8;" horiz-adv-x="1761" 
d="M1339 1632l-796 164v211l796 -164v-211zM123 0v1475h1515v-390h-1003v-153h962v-389h-962v-154h1003v-389h-1515z" />
    <glyph glyph-name="Eacute" unicode="&#xc9;" horiz-adv-x="1761" 
d="M1339 1796l-796 -164v211l796 164v-211zM123 0v1475h1515v-390h-1003v-153h962v-389h-962v-154h1003v-389h-1515z" />
    <glyph glyph-name="Ecircumflex" unicode="&#xca;" horiz-adv-x="1761" 
d="M518 1843l424 164l424 -164v-219l-424 164l-424 -164v219zM123 0v1475h1515v-390h-1003v-153h962v-389h-962v-154h1003v-389h-1515z" />
    <glyph glyph-name="Edieresis" unicode="&#xcb;" horiz-adv-x="1761" 
d="M860 1679h-368v205h368v-205zM1393 1679h-369v205h369v-205zM123 0v1475h1515v-390h-1003v-153h962v-389h-962v-154h1003v-389h-1515z" />
    <glyph glyph-name="Igrave" unicode="&#xcc;" horiz-adv-x="757" 
d="M-20 2007l796 -164v-211l-796 164v211zM123 1475h512v-1475h-512v1475z" />
    <glyph glyph-name="Iacute" unicode="&#xcd;" horiz-adv-x="757" 
d="M-20 1632v211l796 164v-211zM123 1475h512v-1475h-512v1475z" />
    <glyph glyph-name="Icircumflex" unicode="&#xce;" horiz-adv-x="757" 
d="M-45 1843l424 164l424 -164v-219l-424 164l-424 -164v219zM635 0h-512v1475h512v-1475z" />
    <glyph glyph-name="Idieresis" unicode="&#xcf;" horiz-adv-x="757" 
d="M-72 1679v205h369v-205h-369zM461 1679v205h368v-205h-368zM123 1475h512v-1475h-512v1475z" />
    <glyph glyph-name="Eth" unicode="&#xd0;" horiz-adv-x="2023" 
d="M184 1475h1065q133 0 251.5 -45t213.5 -132.5t151 -232t56 -328.5q0 -148 -37 -271t-100 -208t-149 -144t-183 -86.5t-203 -27.5h-1065v676h-164v123h164v676zM696 676v-246h348q64 0 98 2t89 18t83.5 46t51.5 91.5t23 149.5t-23 149.5t-51.5 91.5t-83.5 46t-89 18t-98 2
h-348v-245h308v-123h-308z" />
    <glyph glyph-name="Ntilde" unicode="&#xd1;" horiz-adv-x="2215" 
d="M883 1782q-69 0 -96 -44t-27 -141h-287q0 72 9 134t32 121.5t59 102t94.5 68t133.5 25.5q85 0 168 -29t136.5 -63t116 -63t111.5 -29q69 0 96 44t27 140h287q0 -72 -9 -134t-32 -121.5t-59 -102t-94.5 -68t-133.5 -25.5q-85 0 -168 29t-136.5 63.5t-116 63.5t-111.5 29z
M881 1475l700 -975v975h512v-1475h-758l-700 975v-975h-512v1475h758z" />
    <glyph glyph-name="Ograve" unicode="&#xd2;" horiz-adv-x="2129" 
d="M666 2007l796 -164v-211l-796 164v211zM1065 -41q-459 0 -711 203t-252 577q0 372 252 574.5t711 202.5q457 0 710 -203t253 -574q0 -372 -253 -576t-710 -204zM1065 389q430 0 430 350q0 346 -430 346q-98 0 -173.5 -17.5t-123.5 -48t-78.5 -75.5t-42.5 -94.5
t-12 -110.5q0 -77 21 -137.5t68 -110t133.5 -76t207.5 -26.5z" />
    <glyph glyph-name="Oacute" unicode="&#xd3;" horiz-adv-x="2129" 
d="M666 1632v211l796 164v-211zM1065 -41q-459 0 -711 203t-252 577q0 372 252 574.5t711 202.5q457 0 710 -203t253 -574q0 -372 -253 -576t-710 -204zM1065 389q430 0 430 350q0 346 -430 346q-98 0 -173.5 -17.5t-123.5 -48t-78.5 -75.5t-42.5 -94.5t-12 -110.5
q0 -77 21 -137.5t68 -110t133.5 -76t207.5 -26.5z" />
    <glyph glyph-name="Ocircumflex" unicode="&#xd4;" horiz-adv-x="2129" 
d="M1489 1843v-219l-424 164l-424 -164v219l424 164zM1065 1516q457 0 710 -203t253 -574q0 -372 -253 -576t-710 -204q-459 0 -711 203t-252 577q0 372 252 574.5t711 202.5zM1065 389q430 0 430 350q0 346 -430 346q-98 0 -173.5 -17.5t-123.5 -48t-78.5 -75.5
t-42.5 -94.5t-12 -110.5q0 -77 21 -137.5t68 -110t133.5 -76t207.5 -26.5z" />
    <glyph glyph-name="Otilde" unicode="&#xd5;" horiz-adv-x="2129" 
d="M717 1597h-287q0 72 9 134t32 121.5t59 102t94.5 68t133.5 25.5q85 0 168 -29t136.5 -63t116 -63t111.5 -29q69 0 96 44t27 140h287q0 -72 -9 -134t-32 -121.5t-59 -102t-94.5 -68t-133.5 -25.5q-85 0 -168 29t-136.5 63.5t-116 63.5t-111.5 29q-69 0 -96 -44t-27 -141z
M1065 -41q-459 0 -711 203t-252 577q0 372 252 574.5t711 202.5q457 0 710 -203t253 -574q0 -372 -253 -576t-710 -204zM1065 389q430 0 430 350q0 346 -430 346q-98 0 -173.5 -17.5t-123.5 -48t-78.5 -75.5t-42.5 -94.5t-12 -110.5q0 -77 21 -137.5t68 -110t133.5 -76
t207.5 -26.5z" />
    <glyph glyph-name="Odieresis" unicode="&#xd6;" horiz-adv-x="2129" 
d="M614 1679v205h369v-205h-369zM1147 1679v205h369v-205h-369zM1065 -41q-459 0 -711 203t-252 577q0 372 252 574.5t711 202.5q457 0 710 -203t253 -574q0 -372 -253 -576t-710 -204zM1065 389q430 0 430 350q0 346 -430 346q-98 0 -173.5 -17.5t-123.5 -48t-78.5 -75.5
t-42.5 -94.5t-12 -110.5q0 -77 21 -137.5t68 -110t133.5 -76t207.5 -26.5z" />
    <glyph glyph-name="multiply" unicode="&#xd7;" horiz-adv-x="1841" 
d="M1268 678l450 -260l-174 -301l-622 360l-625 -360l-174 301l450 260l-448 258l174 301l623 -358l620 358l174 -301z" />
    <glyph glyph-name="Oslash" unicode="&#xd8;" horiz-adv-x="2129" 
d="M1374 1786l-51 -289q339 -54 522 -249.5t183 -508.5q0 -372 -253 -576t-710 -204h-8l-56 -311h-243l57 329q-343 51 -528 247.5t-185 514.5q0 372 252 574.5t711 202.5h18l47 270h244zM635 739q0 -269 256 -331l117 675q-373 -21 -373 -344zM1249 1065l-119 -674
q365 26 365 348q0 265 -246 326z" />
    <glyph glyph-name="Ugrave" unicode="&#xd9;" horiz-adv-x="2048" 
d="M625 2007l796 -164v-211l-796 164v211zM1925 1475v-756q0 -380 -218 -570t-683 -190q-466 0 -683.5 189.5t-217.5 570.5v756h512v-736q0 -71 17.5 -129t58.5 -110t121 -81.5t192 -29.5q91 0 160.5 20.5t112 53t69.5 79.5t37 94.5t10 102.5v736h512z" />
    <glyph glyph-name="Uacute" unicode="&#xda;" horiz-adv-x="2048" 
d="M625 1632v211l796 164v-211zM1925 1475v-756q0 -380 -218 -570t-683 -190q-466 0 -683.5 189.5t-217.5 570.5v756h512v-736q0 -71 17.5 -129t58.5 -110t121 -81.5t192 -29.5q91 0 160.5 20.5t112 53t69.5 79.5t37 94.5t10 102.5v736h512z" />
    <glyph glyph-name="Ucircumflex" unicode="&#xdb;" horiz-adv-x="2048" 
d="M1448 1843v-219l-424 164l-424 -164v219l424 164zM1413 739v736h512v-756q0 -380 -218 -570t-683 -190q-466 0 -683.5 189.5t-217.5 570.5v756h512v-736q0 -71 17.5 -129t58.5 -110t121 -81.5t192 -29.5q91 0 160.5 20.5t112 53t69.5 79.5t37 94.5t10 102.5z" />
    <glyph glyph-name="Udieresis" unicode="&#xdc;" horiz-adv-x="2048" 
d="M573 1679v205h369v-205h-369zM1106 1679v205h369v-205h-369zM1925 1475v-756q0 -380 -218 -570t-683 -190q-466 0 -683.5 189.5t-217.5 570.5v756h512v-736q0 -71 17.5 -129t58.5 -110t121 -81.5t192 -29.5q91 0 160.5 20.5t112 53t69.5 79.5t37 94.5t10 102.5v736h512z
" />
    <glyph glyph-name="Yacute" unicode="&#xdd;" horiz-adv-x="2301" 
d="M752 1843l796 164v-211l-796 -164v211zM1151 922l414 553h635l-793 -983v-492h-512v492l-793 983h635z" />
    <glyph glyph-name="Thorn" unicode="&#xde;" horiz-adv-x="1961" 
d="M123 1475h512v-185h635q274 0 432 -145t158 -393t-158 -393.5t-432 -145.5h-635v-213h-512v1475zM1147 860h-512v-217h512q37 0 56 1t47 6.5t41.5 16t24.5 32t11 53.5q0 26 -6 45.5t-20.5 31t-27 18.5t-38.5 9.5t-41 3t-47 0.5z" />
    <glyph glyph-name="germandbls" unicode="&#xdf;" horiz-adv-x="1851" 
d="M1329 776q99 -14 172 -39t131 -67t87.5 -107t29.5 -153q0 -62 -11.5 -111.5t-31.5 -89t-56.5 -69.5t-78.5 -52.5t-105 -38t-127.5 -25t-156 -15t-180.5 -7.5t-209 -2v369q104 0 171.5 1.5t123 7.5t85.5 14.5t50.5 24t27 35.5t6.5 50t-6.5 50t-27 35.5t-50.5 24
t-85.5 14.5t-123 7.5t-171.5 1.5v246q170 0 235.5 23.5t65.5 103.5q0 70 -59.5 104.5t-160.5 34.5q-48 0 -86 -6t-75.5 -24t-62.5 -47.5t-40.5 -80t-15.5 -119.5v-870h-471v829q0 120 21 217.5t57 168.5t91.5 124t118.5 86.5t143 54t160 28.5t175 8q696 0 696 -420
q0 -233 -256 -320z" />
    <glyph glyph-name="agrave" unicode="&#xe0;" horiz-adv-x="1921" 
d="M592 1761l797 -164v-211l-797 164v211zM1055 1270q394 0 577.5 -148t186.5 -493v-629h-471v164q-154 -95 -339.5 -139.5t-359.5 -44.5q-100 0 -183 12.5t-155.5 41.5t-122 73.5t-78 111.5t-28.5 152q0 97 41.5 172t109 121t162 75.5t189.5 40.5t204 11q259 0 560 -62
q-4 62 -33.5 104.5t-82 66t-116 33t-149.5 9.5q-300 0 -719 -98l-66 321q473 105 873 105zM811 307q173 0 537 62v94q-282 41 -490 41q-156 0 -220.5 -23t-64.5 -78q0 -53 53 -74.5t185 -21.5z" />
    <glyph glyph-name="aacute" unicode="&#xe1;" horiz-adv-x="1921" 
d="M592 1597l797 164v-211l-797 -164v211zM1055 1270q394 0 577.5 -148t186.5 -493v-629h-471v164q-154 -95 -339.5 -139.5t-359.5 -44.5q-100 0 -183 12.5t-155.5 41.5t-122 73.5t-78 111.5t-28.5 152q0 97 41.5 172t109 121t162 75.5t189.5 40.5t204 11q259 0 560 -62
q-4 62 -33.5 104.5t-82 66t-116 33t-149.5 9.5q-300 0 -719 -98l-66 321q473 105 873 105zM811 307q173 0 537 62v94q-282 41 -490 41q-156 0 -220.5 -23t-64.5 -78q0 -53 53 -74.5t185 -21.5z" />
    <glyph glyph-name="acircumflex" unicode="&#xe2;" horiz-adv-x="1921" 
d="M1415 1597v-219l-424 164l-424 -164v219l424 164zM1055 1270q394 0 577.5 -148t186.5 -493v-629h-471v164q-154 -95 -339.5 -139.5t-359.5 -44.5q-100 0 -183 12.5t-155.5 41.5t-122 73.5t-78 111.5t-28.5 152q0 97 41.5 172t109 121t162 75.5t189.5 40.5t204 11
q259 0 560 -62q-4 62 -33.5 104.5t-82 66t-116 33t-149.5 9.5q-300 0 -719 -98l-66 321q473 105 873 105zM811 307q173 0 537 62v94q-282 41 -490 41q-156 0 -220.5 -23t-64.5 -78q0 -53 53 -74.5t185 -21.5z" />
    <glyph glyph-name="atilde" unicode="&#xe3;" horiz-adv-x="1921" 
d="M766 1536q-69 0 -96 -44t-27 -140h-287q0 72 9 134t32 121.5t59 101.5t94.5 67.5t133.5 25.5q85 0 168 -29t137 -63t116.5 -63t111.5 -29q69 0 95.5 43.5t26.5 140.5h287q0 -72 -9 -134t-32 -121.5t-59 -101.5t-94.5 -67.5t-133.5 -25.5q-85 0 -168 29t-136.5 63t-116 63
t-111.5 29zM1055 1270q394 0 577.5 -148t186.5 -493v-629h-471v164q-154 -95 -339.5 -139.5t-359.5 -44.5q-100 0 -183 12.5t-155.5 41.5t-122 73.5t-78 111.5t-28.5 152q0 97 41.5 172t109 121t162 75.5t189.5 40.5t204 11q259 0 560 -62q-4 62 -33.5 104.5t-82 66t-116 33
t-149.5 9.5q-300 0 -719 -98l-66 321q473 105 873 105zM811 307q173 0 537 62v94q-282 41 -490 41q-156 0 -220.5 -23t-64.5 -78q0 -53 53 -74.5t185 -21.5z" />
    <glyph glyph-name="adieresis" unicode="&#xe4;" horiz-adv-x="1921" 
d="M541 1638h368v-204h-368v204zM1073 1638h369v-204h-369v204zM1055 1270q394 0 577.5 -148t186.5 -493v-629h-471v164q-154 -95 -339.5 -139.5t-359.5 -44.5q-100 0 -183 12.5t-155.5 41.5t-122 73.5t-78 111.5t-28.5 152q0 97 41.5 172t109 121t162 75.5t189.5 40.5
t204 11q259 0 560 -62q-4 62 -33.5 104.5t-82 66t-116 33t-149.5 9.5q-300 0 -719 -98l-66 321q473 105 873 105zM811 307q173 0 537 62v94q-282 41 -490 41q-156 0 -220.5 -23t-64.5 -78q0 -53 53 -74.5t185 -21.5z" />
    <glyph glyph-name="aring" unicode="&#xe5;" horiz-adv-x="1921" 
d="M991 1352q-236 0 -343 69t-107 201t107 201t343 69t343.5 -69t107.5 -201t-107.5 -201t-343.5 -69zM991 1729q-205 0 -205 -107q0 -106 205 -106t205 106q0 107 -205 107zM1055 1270q394 0 577.5 -148t186.5 -493v-629h-471v164q-154 -95 -339.5 -139.5t-359.5 -44.5
q-100 0 -183 12.5t-155.5 41.5t-122 73.5t-78 111.5t-28.5 152q0 97 41.5 172t109 121t162 75.5t189.5 40.5t204 11q259 0 560 -62q-4 62 -33.5 104.5t-82 66t-116 33t-149.5 9.5q-300 0 -719 -98l-66 321q473 105 873 105zM811 307q173 0 537 62v94q-282 41 -490 41
q-156 0 -220.5 -23t-64.5 -78q0 -53 53 -74.5t185 -21.5z" />
    <glyph glyph-name="ae" unicode="&#xe6;" horiz-adv-x="3094" 
d="M2175 307q164 0 249 34t118 99h460q-31 -117 -94.5 -204.5t-165 -150t-248 -94.5t-337.5 -32q-489 0 -719 219q-269 -198 -766 -198q-133 0 -238 20t-185.5 62.5t-123.5 114.5t-43 169q0 67 23 122.5t63 96.5t97.5 73t123 52.5t144 33.5t155.5 18.5t162 5.5h375
q0 46 -26 77.5t-73.5 47t-100 22t-120.5 6.5q-129 0 -258 -24.5t-305 -79.5l-139 307q162 72 351 108.5t368 36.5q358 0 561 -164q235 185 655 185q200 0 359 -45t275 -133.5t178.5 -229.5t62.5 -325h-1272q24 -128 130.5 -179t303.5 -51zM2138 963q-155 0 -249.5 -45
t-131.5 -148h768q-39 103 -134 148t-253 45zM1225 381v119h-326q-171 0 -248.5 -26.5t-77.5 -84.5q0 -49 42 -65.5t141 -16.5q297 0 469 74z" />
    <glyph glyph-name="ccedilla" unicode="&#xe7;" horiz-adv-x="1912" 
d="M958 328q327 0 392 174h481q-44 -261 -250 -396.5t-561 -146.5l-21 -80q70 25 158 25q98 0 155.5 -42t57.5 -120q0 -62 -37.5 -107.5t-99.5 -71t-146.5 -37.5t-175 -10.5t-188.5 13.5v184q186 -29 273 -22.5t87 55.5q0 47 -63 47q-44 0 -88 -31l-141 43l30 158
q-360 26 -549.5 190.5t-189.5 460.5q0 323 225.5 489.5t650.5 166.5q384 0 606 -135.5t267 -407.5h-481q-65 174 -392 174q-202 0 -303.5 -69.5t-101.5 -217.5t101.5 -217t303.5 -69z" />
    <glyph glyph-name="egrave" unicode="&#xe8;" horiz-adv-x="1912" 
d="M557 1761l797 -164v-211l-797 164v211zM993 307q164 0 249 34t118 99h461q-31 -117 -94.5 -204.5t-165 -150t-248.5 -94.5t-338 -32q-422 0 -657.5 167.5t-235.5 487.5q0 212 112.5 361.5t307.5 222t454 72.5q200 0 359 -45t275 -133.5t178.5 -229.5t62.5 -325h-1272
q24 -128 130.5 -179t303.5 -51zM956 963q-155 0 -249.5 -45t-131.5 -148h768q-39 103 -134 148t-253 45z" />
    <glyph glyph-name="eacute" unicode="&#xe9;" horiz-adv-x="1912" 
d="M557 1597l797 164v-211l-797 -164v211zM993 307q164 0 249 34t118 99h461q-31 -117 -94.5 -204.5t-165 -150t-248.5 -94.5t-338 -32q-422 0 -657.5 167.5t-235.5 487.5q0 212 112.5 361.5t307.5 222t454 72.5q200 0 359 -45t275 -133.5t178.5 -229.5t62.5 -325h-1272
q24 -128 130.5 -179t303.5 -51zM956 963q-155 0 -249.5 -45t-131.5 -148h768q-39 103 -134 148t-253 45z" />
    <glyph glyph-name="ecircumflex" unicode="&#xea;" horiz-adv-x="1912" 
d="M1380 1597v-219l-424 164l-424 -164v219l424 164zM993 307q164 0 249 34t118 99h461q-31 -117 -94.5 -204.5t-165 -150t-248.5 -94.5t-338 -32q-422 0 -657.5 167.5t-235.5 487.5q0 212 112.5 361.5t307.5 222t454 72.5q200 0 359 -45t275 -133.5t178.5 -229.5t62.5 -325
h-1272q24 -128 130.5 -179t303.5 -51zM956 963q-155 0 -249.5 -45t-131.5 -148h768q-39 103 -134 148t-253 45z" />
    <glyph glyph-name="edieresis" unicode="&#xeb;" horiz-adv-x="1912" 
d="M506 1638h368v-204h-368v204zM1038 1638h369v-204h-369v204zM993 307q164 0 249 34t118 99h461q-31 -117 -94.5 -204.5t-165 -150t-248.5 -94.5t-338 -32q-422 0 -657.5 167.5t-235.5 487.5q0 212 112.5 361.5t307.5 222t454 72.5q200 0 359 -45t275 -133.5t178.5 -229.5
t62.5 -325h-1272q24 -128 130.5 -179t303.5 -51zM956 963q-155 0 -249.5 -45t-131.5 -148h768q-39 103 -134 148t-253 45z" />
    <glyph glyph-name="igrave" unicode="&#xec;" horiz-adv-x="716" 
d="M-41 1761l797 -164v-211l-797 164v211zM123 0v1229h471v-1229h-471z" />
    <glyph glyph-name="iacute" unicode="&#xed;" horiz-adv-x="716" 
d="M-41 1386v211l797 164v-211zM123 0v1229h471v-1229h-471z" />
    <glyph glyph-name="icircumflex" unicode="&#xee;" horiz-adv-x="716" 
d="M-66 1597l424 164l424 -164v-219l-424 164l-424 -164v219zM594 0h-471v1229h471v-1229z" />
    <glyph glyph-name="idieresis" unicode="&#xef;" horiz-adv-x="716" 
d="M-92 1434v204h368v-204h-368zM440 1434v204h369v-204h-369zM123 0v1229h471v-1229h-471z" />
    <glyph glyph-name="ntilde" unicode="&#xf1;" horiz-adv-x="2045" 
d="M799 1536q-69 0 -96 -44t-27 -140h-287q0 72 9 134t32 121.5t59 101.5t94.5 67.5t133.5 25.5q85 0 168 -29t136.5 -63t116 -63t111.5 -29q69 0 96 44t27 140h287q0 -72 -9 -134t-32 -121.5t-59 -101.5t-94.5 -67.5t-133.5 -25.5q-85 0 -168 29t-136.5 63t-116 63
t-111.5 29zM1298 1270q625 0 625 -613v-657h-471v481q0 104 -19 176t-63.5 123.5t-119 76t-183.5 24.5q-229 0 -351 -100.5t-122 -299.5v-481h-471v1229h471v-287q124 157 292 242.5t412 85.5z" />
    <glyph glyph-name="ograve" unicode="&#xf2;" 
d="M559 1761l797 -164v-211l-797 164v211zM958 -41q-431 0 -653.5 172t-222.5 483q0 312 222.5 484t653.5 172t654 -172.5t223 -483.5t-223 -483t-654 -172zM958 328q197 0 291 68.5t94 217.5t-94 218t-291 69t-291 -69t-94 -218t94 -217.5t291 -68.5z" />
    <glyph glyph-name="oacute" unicode="&#xf3;" 
d="M559 1386v211l797 164v-211zM958 -41q-431 0 -653.5 172t-222.5 483q0 312 222.5 484t653.5 172t654 -172.5t223 -483.5t-223 -483t-654 -172zM958 328q197 0 291 68.5t94 217.5t-94 218t-291 69t-291 -69t-94 -218t94 -217.5t291 -68.5z" />
    <glyph glyph-name="ocircumflex" unicode="&#xf4;" 
d="M1382 1597v-219l-424 164l-423 -164v219l423 164zM958 1270q431 0 654 -172.5t223 -483.5t-223 -483t-654 -172t-653.5 172t-222.5 483q0 312 222.5 484t653.5 172zM958 328q197 0 291 68.5t94 217.5t-94 218t-291 69t-291 -69t-94 -218t94 -217.5t291 -68.5z" />
    <glyph glyph-name="otilde" unicode="&#xf5;" 
d="M610 1352h-286q0 72 9 133.5t31.5 121.5t58.5 102t94.5 67.5t133.5 25.5q85 0 168 -29t137 -63t116.5 -63t111.5 -29q69 0 96 44t27 140h286q0 -72 -9 -133.5t-31.5 -121.5t-58.5 -102t-94.5 -67.5t-133.5 -25.5q-85 0 -168 29t-137 63t-116.5 63t-111.5 29
q-69 0 -96 -44t-27 -140zM958 -41q-431 0 -653.5 172t-222.5 483q0 312 222.5 484t653.5 172t654 -172.5t223 -483.5t-223 -483t-654 -172zM958 328q197 0 291 68.5t94 217.5t-94 218t-291 69t-291 -69t-94 -218t94 -217.5t291 -68.5z" />
    <glyph glyph-name="odieresis" unicode="&#xf6;" 
d="M508 1434v204h369v-204h-369zM1040 1434v204h369v-204h-369zM958 -41q-431 0 -653.5 172t-222.5 483q0 312 222.5 484t653.5 172t654 -172.5t223 -483.5t-223 -483t-654 -172zM958 328q197 0 291 68.5t94 217.5t-94 218t-291 69t-291 -69t-94 -218t94 -217.5t291 -68.5z
" />
    <glyph glyph-name="divide" unicode="&#xf7;" horiz-adv-x="1884" 
d="M745 1024v295h394v-295h-394zM123 485v349h1638v-349h-1638zM745 0v295h394v-295h-394z" />
    <glyph glyph-name="oslash" unicode="&#xf8;" 
d="M1311 1505l-62 -260q289 -54 437.5 -216t148.5 -415q0 -311 -223 -483t-654 -172h-16l-57 -235h-279l62 260q-289 54 -437.5 215.5t-148.5 414.5q0 312 222.5 484t653.5 172h17l57 235h279zM573 614q0 -204 183 -262l131 547q-160 -12 -237 -81t-77 -204zM1161 877
l-131 -547q160 12 236.5 80.5t76.5 203.5q0 205 -182 263z" />
    <glyph glyph-name="ugrave" unicode="&#xf9;" horiz-adv-x="2045" 
d="M1421 1386l-796 164v211l796 -164v-211zM1452 748v481h471v-1229h-471v287q-124 -157 -292 -242.5t-412 -85.5q-625 0 -625 612v658h471v-481q0 -104 19 -176t63.5 -123.5t119 -76t183.5 -24.5q229 0 351 100.5t122 299.5z" />
    <glyph glyph-name="uacute" unicode="&#xfa;" horiz-adv-x="2045" 
d="M1421 1550l-796 -164v211l796 164v-211zM1452 748v481h471v-1229h-471v287q-124 -157 -292 -242.5t-412 -85.5q-625 0 -625 612v658h471v-481q0 -104 19 -176t63.5 -123.5t119 -76t183.5 -24.5q229 0 351 100.5t122 299.5z" />
    <glyph glyph-name="ucircumflex" unicode="&#xfb;" horiz-adv-x="2045" 
d="M600 1597l424 164l424 -164v-219l-424 164l-424 -164v219zM1452 748v481h471v-1229h-471v287q-124 -157 -292 -242.5t-412 -85.5q-625 0 -625 612v658h471v-481q0 -104 19 -176t63.5 -123.5t119 -76t183.5 -24.5q229 0 351 100.5t122 299.5z" />
    <glyph glyph-name="udieresis" unicode="&#xfc;" horiz-adv-x="2045" 
d="M942 1434h-369v204h369v-204zM1475 1434h-369v204h369v-204zM1452 748v481h471v-1229h-471v287q-124 -157 -292 -242.5t-412 -85.5q-625 0 -625 612v658h471v-481q0 -104 19 -176t63.5 -123.5t119 -76t183.5 -24.5q229 0 351 100.5t122 299.5z" />
    <glyph glyph-name="yacute" unicode="&#xfd;" horiz-adv-x="2025" 
d="M606 1597l797 164v-211l-797 -164v211zM1022 262l465 967h477l-578 -1198q-54 -113 -106.5 -196t-118 -155t-139 -117t-167.5 -70t-206 -25q-216 0 -465 71v359q275 -62 396 -62q53 0 85.5 2.5t67 11.5t58.5 27t49 47.5t51 75.5h-221l-588 1229h477z" />
    <glyph glyph-name="thorn" unicode="&#xfe;" 
d="M1163 1249q88 0 164.5 -13t149 -41t129 -77.5t99.5 -118t66 -166.5t23 -219q0 -634 -631 -634q-177 0 -317.5 56t-231.5 161v-525h-491v1966h491v-606q91 105 231.5 161t317.5 56zM958 389q176 0 260.5 48.5t84.5 176.5t-84.5 177t-260.5 49t-260 -49t-84 -177t84 -176.5
t260 -48.5z" />
    <glyph glyph-name="ydieresis" unicode="&#xff;" horiz-adv-x="2025" 
d="M555 1638h369v-204h-369v204zM1087 1638h369v-204h-369v204zM1022 262l465 967h477l-578 -1198q-54 -113 -106.5 -196t-118 -155t-139 -117t-167.5 -70t-206 -25q-216 0 -465 71v359q275 -62 396 -62q53 0 85.5 2.5t67 11.5t58.5 27t49 47.5t51 75.5h-221l-588 1229h477z
" />
    <glyph glyph-name="Amacron" unicode="&#x100;" horiz-adv-x="2347" 
d="M692 1884h961v-205h-961v205zM2245 0h-545l-121 258h-811l-121 -258h-545l707 1475h729zM1174 1122l-234 -495h467z" />
    <glyph glyph-name="amacron" unicode="&#x101;" horiz-adv-x="1921" 
d="M510 1638h960v-204h-960v204zM1055 1270q394 0 577.5 -148t186.5 -493v-629h-471v164q-154 -95 -339.5 -139.5t-359.5 -44.5q-100 0 -183 12.5t-155.5 41.5t-122 73.5t-78 111.5t-28.5 152q0 97 41.5 172t109 121t162 75.5t189.5 40.5t204 11q259 0 560 -62
q-4 62 -33.5 104.5t-82 66t-116 33t-149.5 9.5q-300 0 -719 -98l-66 321q473 105 873 105zM811 307q173 0 537 62v94q-282 41 -490 41q-156 0 -220.5 -23t-64.5 -78q0 -53 53 -74.5t185 -21.5z" />
    <glyph glyph-name="Abreve" unicode="&#x102;" horiz-adv-x="2347" 
d="M1174 1618q-99 0 -180.5 21t-146.5 65.5t-101.5 121.5t-36.5 181h245q0 -93 53.5 -138.5t166.5 -45.5t166 45.5t53 138.5h245q0 -104 -36 -181t-101.5 -121.5t-146.5 -65.5t-180 -21zM2245 0h-545l-121 258h-811l-121 -258h-545l707 1475h729zM1174 1122l-234 -495h467z
" />
    <glyph glyph-name="abreve" unicode="&#x103;" horiz-adv-x="1921" 
d="M991 1372q-99 0 -180.5 21t-146.5 65.5t-101.5 121.5t-36.5 181h246q0 -93 53 -138.5t166 -45.5t166 45.5t53 138.5h246q0 -104 -36.5 -181t-101.5 -121.5t-146.5 -65.5t-180.5 -21zM1055 1270q394 0 577.5 -148t186.5 -493v-629h-471v164q-154 -95 -339.5 -139.5
t-359.5 -44.5q-100 0 -183 12.5t-155.5 41.5t-122 73.5t-78 111.5t-28.5 152q0 97 41.5 172t109 121t162 75.5t189.5 40.5t204 11q259 0 560 -62q-4 62 -33.5 104.5t-82 66t-116 33t-149.5 9.5q-300 0 -719 -98l-66 321q473 105 873 105zM811 307q173 0 537 62v94
q-282 41 -490 41q-156 0 -220.5 -23t-64.5 -78q0 -53 53 -74.5t185 -21.5z" />
    <glyph glyph-name="Aogonek" unicode="&#x104;" horiz-adv-x="2347" 
d="M1913 -125q0 -36 18.5 -57.5t71.5 -30.5t97.5 -10.5t144.5 -1.5v-287q-167 0 -294.5 15t-229 49t-155 94t-53.5 145q0 165 261 209h-74l-121 258h-811l-121 -258h-545l707 1475h729l707 -1475h-62q-132 0 -201 -37t-69 -88zM1174 1122l-234 -495h467z" />
    <glyph glyph-name="aogonek" unicode="&#x105;" horiz-adv-x="1941" 
d="M1507 -125q0 -36 18.5 -57.5t71.5 -30.5t97.5 -10.5t144.5 -1.5v-287q-135 0 -239.5 6.5t-200 25t-157.5 48t-98 77.5t-36 113q0 88 62.5 148.5t197.5 93.5h-20v164q-154 -95 -339.5 -139.5t-359.5 -44.5q-100 0 -183 12.5t-155.5 41.5t-122 73.5t-78 111.5t-28.5 152
q0 97 41.5 172t109 121t162 75.5t189.5 40.5t204 11q259 0 560 -62q-4 62 -33.5 104.5t-82 66t-116 33t-149.5 9.5q-300 0 -719 -98l-66 321q473 105 873 105q394 0 577.5 -148t186.5 -493v-629h-41q-149 -10 -210 -42t-61 -83zM811 307q173 0 537 62v94q-282 41 -490 41
q-156 0 -220.5 -23t-64.5 -78q0 -53 53 -74.5t185 -21.5z" />
    <glyph glyph-name="Cacute" unicode="&#x106;" horiz-adv-x="2000" 
d="M604 1632v211l797 164v-211zM102 739q0 383 234.5 580t667.5 197q400 0 631 -162.5t263 -470.5h-544q-17 81 -106 141.5t-244 60.5q-189 0 -279 -95t-90 -251q0 -157 90.5 -253.5t278.5 -96.5q155 0 244 62t106 145h544q-32 -310 -262 -473.5t-632 -163.5
q-433 0 -667.5 197.5t-234.5 582.5z" />
    <glyph glyph-name="cacute" unicode="&#x107;" horiz-adv-x="1912" 
d="M557 1386v211l797 164v-211zM82 614q0 323 225.5 489.5t650.5 166.5q384 0 606 -135.5t267 -407.5h-481q-65 174 -392 174q-202 0 -303.5 -69.5t-101.5 -217.5t101.5 -217t303.5 -69q327 0 392 174h481q-45 -272 -267 -407.5t-606 -135.5q-426 0 -651 166t-225 489z" />
    <glyph glyph-name="Cdotaccent" unicode="&#x10a;" horiz-adv-x="2000" 
d="M799 1679v205h409v-205h-409zM102 739q0 383 234.5 580t667.5 197q400 0 631 -162.5t263 -470.5h-544q-17 81 -106 141.5t-244 60.5q-189 0 -279 -95t-90 -251q0 -157 90.5 -253.5t278.5 -96.5q155 0 244 62t106 145h544q-32 -310 -262 -473.5t-632 -163.5
q-433 0 -667.5 197.5t-234.5 582.5z" />
    <glyph glyph-name="cdotaccent" unicode="&#x10b;" horiz-adv-x="1912" 
d="M752 1434v204h409v-204h-409zM82 614q0 323 225.5 489.5t650.5 166.5q384 0 606 -135.5t267 -407.5h-481q-65 174 -392 174q-202 0 -303.5 -69.5t-101.5 -217.5t101.5 -217t303.5 -69q327 0 392 174h481q-45 -272 -267 -407.5t-606 -135.5q-426 0 -651 166t-225 489z" />
    <glyph glyph-name="Ccaron" unicode="&#x10c;" horiz-adv-x="2000" 
d="M1427 1985v-220l-423 -163l-424 163v220l424 -164zM1004 389q155 0 244 62t106 145h544q-32 -310 -262 -473.5t-632 -163.5q-433 0 -667.5 197.5t-234.5 582.5q0 383 234.5 580t667.5 197q400 0 631 -162.5t263 -470.5h-544q-17 81 -106 141.5t-244 60.5q-189 0 -279 -95
t-90 -251q0 -157 90.5 -253.5t278.5 -96.5z" />
    <glyph glyph-name="ccaron" unicode="&#x10d;" horiz-adv-x="1912" 
d="M1380 1739v-219l-424 -164l-424 164v219l424 -164zM958 328q327 0 392 174h481q-45 -272 -267 -407.5t-606 -135.5q-426 0 -651 166t-225 489t225.5 489.5t650.5 166.5q384 0 606 -135.5t267 -407.5h-481q-65 174 -392 174q-202 0 -303.5 -69.5t-101.5 -217.5t101.5 -217
t303.5 -69z" />
    <glyph glyph-name="Dcaron" unicode="&#x10e;" horiz-adv-x="1961" 
d="M848 1780l424 164v-220l-424 -163l-424 163v220zM123 1475h1065q133 0 251.5 -45t213.5 -132.5t151 -232t56 -328.5q0 -148 -37 -271t-100 -208t-149 -144t-183 -86.5t-203 -27.5h-1065v1475zM635 1044v-614h348q64 0 98 2t88.5 18t83 46t51.5 91.5t23 149.5t-23 149.5
t-51.5 91.5t-83 46t-88.5 18t-98 2h-348z" />
    <glyph glyph-name="dcaron" unicode="&#x10f;" horiz-adv-x="2469" 
d="M1323 1010v628h471v-1638h-471v219q-89 -135 -238.5 -197.5t-330.5 -62.5q-100 0 -192 20t-181 68.5t-154 121t-105 187t-40 258.5t40 258.5t105 187.5t154 121.5t181 68.5t192 20q181 0 330.5 -62.5t238.5 -197.5zM1917 1270v368h491v-368l-231 -451h-219l139 451h-180z
M948 348q375 0 375 266q0 267 -375 267t-375 -267q0 -266 375 -266z" />
    <glyph glyph-name="Dcroat" unicode="&#x110;" horiz-adv-x="2023" 
d="M184 1475h1065q133 0 251.5 -45t213.5 -132.5t151 -232t56 -328.5q0 -148 -37 -271t-100 -208t-149 -144t-183 -86.5t-203 -27.5h-1065v676h-164v123h164v676zM696 676v-246h348q64 0 98 2t89 18t83.5 46t51.5 91.5t23 149.5t-23 149.5t-51.5 91.5t-83.5 46t-89 18t-98 2
h-348v-245h308v-123h-308z" />
    <glyph glyph-name="dcroat" unicode="&#x111;" horiz-adv-x="2039" 
d="M1794 1536h164v-205h-164v-1331h-471v219q-89 -135 -238.5 -197.5t-330.5 -62.5q-100 0 -192 20t-181 68.5t-154 121t-105 187t-40 258.5t40 258.5t105 187.5t154 121.5t181 68.5t192 20q181 0 330.5 -62.5t238.5 -197.5v321h-430v205h430v102h471v-102zM948 348
q375 0 375 266q0 267 -375 267t-375 -267q0 -266 375 -266z" />
    <glyph glyph-name="Emacron" unicode="&#x112;" horiz-adv-x="1761" 
d="M1421 1679h-960v205h960v-205zM123 0v1475h1515v-390h-1003v-153h962v-389h-962v-154h1003v-389h-1515z" />
    <glyph glyph-name="emacron" unicode="&#x113;" horiz-adv-x="1912" 
d="M475 1638h961v-204h-961v204zM993 307q164 0 249 34t118 99h461q-31 -117 -94.5 -204.5t-165 -150t-248.5 -94.5t-338 -32q-422 0 -657.5 167.5t-235.5 487.5q0 212 112.5 361.5t307.5 222t454 72.5q200 0 359 -45t275 -133.5t178.5 -229.5t62.5 -325h-1272
q24 -128 130.5 -179t303.5 -51zM956 963q-155 0 -249.5 -45t-131.5 -148h768q-39 103 -134 148t-253 45z" />
    <glyph glyph-name="Edotaccent" unicode="&#x116;" horiz-adv-x="1761" 
d="M1147 1679h-410v205h410v-205zM123 0v1475h1515v-390h-1003v-153h962v-389h-962v-154h1003v-389h-1515z" />
    <glyph glyph-name="edotaccent" unicode="&#x117;" horiz-adv-x="1912" 
d="M752 1638h409v-204h-409v204zM993 307q164 0 249 34t118 99h461q-31 -117 -94.5 -204.5t-165 -150t-248.5 -94.5t-338 -32q-422 0 -657.5 167.5t-235.5 487.5q0 212 112.5 361.5t307.5 222t454 72.5q200 0 359 -45t275 -133.5t178.5 -229.5t62.5 -325h-1272
q24 -128 130.5 -179t303.5 -51zM956 963q-155 0 -249.5 -45t-131.5 -148h768q-39 103 -134 148t-253 45z" />
    <glyph glyph-name="Eogonek" unicode="&#x118;" horiz-adv-x="1761" 
d="M1167 0h-1044v1475h1515v-390h-1003v-153h962v-389h-962v-154h1003v-389h-61q-149 -10 -209.5 -42t-60.5 -83q0 -36 18.5 -57.5t71 -30.5t97 -10.5t144.5 -1.5v-287q-167 0 -294.5 15t-228.5 49t-154.5 94t-53.5 145q0 77 58.5 131t201.5 78z" />
    <glyph glyph-name="eogonek" unicode="&#x119;" horiz-adv-x="1871" 
d="M993 307q164 0 249 34t118 99h461q-54 -200 -206 -318t-421 -151q-52 -18 -72 -35.5t-20 -41.5q0 -28 20.5 -45t70.5 -23.5t89.5 -8t122.5 -1.5v-287q-122 0 -209 5.5t-163 21t-121.5 42t-71 69t-25.5 102.5q0 114 170 190h-10q-422 0 -657.5 167.5t-235.5 487.5
q0 212 112.5 361.5t307.5 222t454 72.5q200 0 359 -45t275 -133.5t178.5 -229.5t62.5 -325h-1272q24 -128 130.5 -179t303.5 -51zM956 963q-155 0 -249.5 -45t-131.5 -148h768q-39 103 -134 148t-253 45z" />
    <glyph glyph-name="Ecaron" unicode="&#x11a;" horiz-adv-x="1761" 
d="M518 1985l424 -164l424 164v-220l-424 -163l-424 163v220zM123 0v1475h1515v-390h-1003v-153h962v-389h-962v-154h1003v-389h-1515z" />
    <glyph glyph-name="ecaron" unicode="&#x11b;" horiz-adv-x="1912" 
d="M1380 1739v-219l-424 -164l-424 164v219l424 -164zM993 307q164 0 249 34t118 99h461q-31 -117 -94.5 -204.5t-165 -150t-248.5 -94.5t-338 -32q-422 0 -657.5 167.5t-235.5 487.5q0 212 112.5 361.5t307.5 222t454 72.5q200 0 359 -45t275 -133.5t178.5 -229.5
t62.5 -325h-1272q24 -128 130.5 -179t303.5 -51zM956 963q-155 0 -249.5 -45t-131.5 -148h768q-39 103 -134 148t-253 45z" />
    <glyph glyph-name="Gbreve" unicode="&#x11e;" horiz-adv-x="2000" 
d="M557 2007h246q0 -93 53 -138.5t166 -45.5t166 45.5t53 138.5h246q0 -104 -36.5 -181t-101.5 -121.5t-146.5 -65.5t-180.5 -21t-180.5 21t-146.5 65.5t-101.5 121.5t-36.5 181zM102 739q0 190 69.5 339t194.5 244t292.5 144.5t369.5 49.5q250 0 444.5 -74.5t304.5 -206.5
t121 -301h-544q-19 59 -97 105t-225 46q-202 0 -299.5 -98t-97.5 -268q0 -68 12.5 -121.5t44.5 -101.5t83.5 -79.5t132.5 -50t188 -18.5q205 0 393 78v88h-459v307h868v-657q-211 -117 -407 -161t-426 -44q-215 0 -391 49.5t-304 145t-198 245t-70 340.5z" />
    <glyph glyph-name="gbreve" unicode="&#x11f;" 
d="M938 1372q-99 0 -180.5 21t-146.5 65.5t-101.5 121.5t-36.5 181h246q0 -93 53 -138.5t166 -45.5t166 45.5t53 138.5h246q0 -104 -36.5 -181t-101.5 -121.5t-146.5 -65.5t-180.5 -21zM1323 1016v213h471v-1100q-3 -348 -188.5 -504.5t-575.5 -156.5q-403 0 -872 104
l65 352q234 -46 398.5 -67t320.5 -21q91 0 155.5 11.5t118 40.5t80.5 85.5t27 139.5v141q-89 -131 -239 -192.5t-330 -61.5q-99 0 -191.5 20t-181.5 67.5t-154 118.5t-105 181.5t-40 247.5t40 247.5t105 181.5t154 118.5t181.5 67.5t191.5 20q180 0 330 -61.5t239 -192.5z
M948 389q198 0 286.5 61.5t88.5 184.5t-88.5 184.5t-286.5 61.5t-286.5 -61.5t-88.5 -184.5t88.5 -184.5t286.5 -61.5z" />
    <glyph glyph-name="Gdotaccent" unicode="&#x120;" horiz-adv-x="2000" 
d="M817 1679v205h410v-205h-410zM102 739q0 190 69.5 339t194.5 244t292.5 144.5t369.5 49.5q250 0 444.5 -74.5t304.5 -206.5t121 -301h-544q-19 59 -97 105t-225 46q-202 0 -299.5 -98t-97.5 -268q0 -68 12.5 -121.5t44.5 -101.5t83.5 -79.5t132.5 -50t188 -18.5
q205 0 393 78v88h-459v307h868v-657q-211 -117 -407 -161t-426 -44q-215 0 -391 49.5t-304 145t-198 245t-70 340.5z" />
    <glyph glyph-name="gdotaccent" unicode="&#x121;" 
d="M733 1638h410v-204h-410v204zM1323 1016v213h471v-1100q-3 -348 -188.5 -504.5t-575.5 -156.5q-403 0 -872 104l65 352q234 -46 398.5 -67t320.5 -21q91 0 155.5 11.5t118 40.5t80.5 85.5t27 139.5v141q-89 -131 -239 -192.5t-330 -61.5q-99 0 -191.5 20t-181.5 67.5
t-154 118.5t-105 181.5t-40 247.5t40 247.5t105 181.5t154 118.5t181.5 67.5t191.5 20q180 0 330 -61.5t239 -192.5zM948 389q198 0 286.5 61.5t88.5 184.5t-88.5 184.5t-286.5 61.5t-286.5 -61.5t-88.5 -184.5t88.5 -184.5t286.5 -61.5z" />
    <glyph glyph-name="uni0122" unicode="&#x122;" horiz-adv-x="2000" 
d="M102 739q0 190 69.5 339t194.5 244t292.5 144.5t369.5 49.5q250 0 444.5 -74.5t304.5 -206.5t121 -301h-544q-19 59 -97 105t-225 46q-202 0 -299.5 -98t-97.5 -268q0 -68 12.5 -121.5t44.5 -101.5t83.5 -79.5t132.5 -50t188 -18.5q205 0 393 78v88h-459v307h868v-657
q-211 -117 -407 -161t-426 -44q-215 0 -391 49.5t-304 145t-198 245t-70 340.5zM858 -389v246h410v-246l-211 -225h-199l139 225h-139z" />
    <glyph glyph-name="uni0123" unicode="&#x123;" 
d="M1004 1679h139v-245h-410v245l211 226h199zM1323 1016v213h471v-1100q-3 -348 -188.5 -504.5t-575.5 -156.5q-403 0 -872 104l65 352q234 -46 398.5 -67t320.5 -21q91 0 155.5 11.5t118 40.5t80.5 85.5t27 139.5v141q-89 -131 -239 -192.5t-330 -61.5q-99 0 -191.5 20
t-181.5 67.5t-154 118.5t-105 181.5t-40 247.5t40 247.5t105 181.5t154 118.5t181.5 67.5t191.5 20q180 0 330 -61.5t239 -192.5zM948 389q198 0 286.5 61.5t88.5 184.5t-88.5 184.5t-286.5 61.5t-286.5 -61.5t-88.5 -184.5t88.5 -184.5t286.5 -61.5z" />
    <glyph glyph-name="Hbar" unicode="&#x126;" horiz-adv-x="2314" 
d="M1577 1475h512v-164h143v-205h-143v-1106h-512v522h-840v-522h-512v1106h-143v205h143v164h512v-164h840v164zM1577 1106h-840v-154h840v154z" />
    <glyph glyph-name="hbar" unicode="&#x127;" horiz-adv-x="2168" 
d="M1421 1270q625 0 625 -613v-657h-471v481q0 104 -19 176t-63.5 123.5t-119 76t-183.5 24.5q-229 0 -351 -100.5t-122 -299.5v-481h-471v1331h-164v205h164v102h471v-102h430v-205h-430v-389q124 157 292 242.5t412 85.5z" />
    <glyph glyph-name="Imacron" unicode="&#x12a;" horiz-adv-x="757" 
d="M-102 1679v205h960v-205h-960zM123 1475h512v-1475h-512v1475z" />
    <glyph glyph-name="imacron" unicode="&#x12b;" horiz-adv-x="716" 
d="M-123 1434v204h961v-204h-961zM123 0v1229h471v-1229h-471z" />
    <glyph glyph-name="Iogonek" unicode="&#x12e;" horiz-adv-x="772" 
d="M379 -125q0 -36 18.5 -57.5t71.5 -30.5t97.5 -10.5t144.5 -1.5v-287q-167 0 -294.5 15t-228.5 49t-154.5 94t-53.5 145q0 80 56 128.5t204 80.5h-123v1475h512v-1475h20q-149 -10 -209.5 -42t-60.5 -83z" />
    <glyph glyph-name="iogonek" unicode="&#x12f;" horiz-adv-x="737" 
d="M123 1638h471v-286h-471v286zM385 -125q0 -36 18.5 -57.5t71.5 -30.5t97.5 -10.5t144.5 -1.5v-287q-167 0 -294.5 15t-228.5 49t-154.5 94t-53.5 145q0 65 35 114.5t102 94.5v1229h471v-1229h20q-229 -19 -229 -125z" />
    <glyph glyph-name="Idotaccent" unicode="&#x130;" horiz-adv-x="757" 
d="M174 1679v205h410v-205h-410zM123 1475h512v-1475h-512v1475z" />
    <glyph glyph-name="dotlessi" unicode="&#x131;" horiz-adv-x="716" 
d="M123 0v1229h471v-1229h-471z" />
    <glyph glyph-name="uni0136" unicode="&#x136;" horiz-adv-x="2093" 
d="M1237 1475h754l-686 -592l686 -883h-623l-426 569l-307 -264v-305h-512v1475h512v-555zM930 -389h-139v246h409v-246l-211 -225h-198z" />
    <glyph glyph-name="uni0137" unicode="&#x137;" horiz-adv-x="1990" 
d="M1196 1229h713l-701 -510l701 -719h-586l-444 479l-285 -207v-272h-471v1638h471v-860zM899 -389h-139v246h409v-246l-211 -225h-198z" />
    <glyph glyph-name="Lacute" unicode="&#x139;" horiz-adv-x="1679" 
d="M123 1632v211l797 164v-211zM123 1475h512v-1045h962v-430h-1474v1475z" />
    <glyph glyph-name="lacute" unicode="&#x13a;" horiz-adv-x="716" 
d="M-41 1796v211l797 164v-211zM123 0v1638h471v-1638h-471z" />
    <glyph glyph-name="uni013B" unicode="&#x13b;" horiz-adv-x="1679" 
d="M123 1475h512v-1045h962v-430h-1474v1475zM655 -614l140 225h-140v246h410v-246l-211 -225h-199z" />
    <glyph glyph-name="uni013C" unicode="&#x13c;" horiz-adv-x="716" 
d="M123 0v1638h471v-1638h-471zM154 -389v246h409v-246l-211 -225h-198l139 225h-139z" />
    <glyph glyph-name="Lcaron" unicode="&#x13d;" horiz-adv-x="1679" 
d="M123 1475h512v-1045h962v-430h-1474v1475zM1444 1393v-246l-211 -225h-199l140 225h-140v246h410z" />
    <glyph glyph-name="lcaron" unicode="&#x13e;" horiz-adv-x="1169" 
d="M123 0v1638h471v-1638h-471zM719 1352v245h409v-245l-210 -226h-199l139 226h-139z" />
    <glyph glyph-name="Lslash" unicode="&#x141;" horiz-adv-x="1843" 
d="M1192 958l-434 -129v-399h962v-430h-1474v676l-221 -66v271l221 65v529h512v-375l434 129v-271z" />
    <glyph glyph-name="lslash" unicode="&#x142;" horiz-adv-x="1236" 
d="M854 1004l301 139v-225l-301 -140v-778h-471v561l-301 -139v225l301 139v852h471v-634z" />
    <glyph glyph-name="Nacute" unicode="&#x143;" horiz-adv-x="2215" 
d="M709 1632v211l796 164v-211zM881 1475l700 -975v975h512v-1475h-758l-700 975v-975h-512v1475h758z" />
    <glyph glyph-name="nacute" unicode="&#x144;" horiz-adv-x="2045" 
d="M1421 1550l-796 -164v211l796 164v-211zM594 0h-471v1229h471v-287q124 157 292 242.5t412 85.5q625 0 625 -613v-657h-471v481q0 104 -19 176t-63.5 123.5t-119 76t-183.5 24.5q-229 0 -351 -100.5t-122 -299.5v-481z" />
    <glyph glyph-name="uni0145" unicode="&#x145;" horiz-adv-x="2215" 
d="M881 1475l700 -975v975h512v-1475h-758l-700 975v-975h-512v1475h758zM780 -614l140 225h-140v246h410v-246l-211 -225h-199z" />
    <glyph glyph-name="uni0146" unicode="&#x146;" horiz-adv-x="2045" 
d="M1298 1270q625 0 625 -613v-657h-471v481q0 104 -19 176t-63.5 123.5t-119 76t-183.5 24.5q-229 0 -351 -100.5t-122 -299.5v-481h-471v1229h471v-287q124 157 292 242.5t412 85.5zM819 -614l139 225h-139v246h410v-246l-211 -225h-199z" />
    <glyph glyph-name="Ncaron" unicode="&#x147;" horiz-adv-x="2215" 
d="M684 1985l424 -164l424 164v-220l-424 -163l-424 163v220zM123 1475h758l700 -975v975h512v-1475h-758l-700 975v-975h-512v1475z" />
    <glyph glyph-name="ncaron" unicode="&#x148;" horiz-adv-x="2045" 
d="M1024 1575l424 164v-219l-424 -164l-424 164v219zM1298 1270q625 0 625 -613v-657h-471v481q0 104 -19 176t-63.5 123.5t-119 76t-183.5 24.5q-229 0 -351 -100.5t-122 -299.5v-481h-471v1229h471v-287q124 157 292 242.5t412 85.5z" />
    <glyph glyph-name="Eng" unicode="&#x14a;" horiz-adv-x="2215" 
d="M881 1475l700 -975v975h512v-1475q0 -272 -137.5 -412.5t-431.5 -140.5q-182 0 -363 31v379q175 -21 232 -21q93 0 130.5 35.5t37.5 128.5h-226l-700 975v-975h-512v1475h758z" />
    <glyph glyph-name="eng" unicode="&#x14b;" horiz-adv-x="2045" 
d="M1298 1270q625 0 625 -613v-657q0 -272 -138.5 -412.5t-432.5 -140.5q-182 0 -363 31v379q175 -21 232 -21q136 0 183.5 34.5t47.5 129.5v481q0 104 -19 176t-63.5 123.5t-119 76t-183.5 24.5q-229 0 -351 -100.5t-122 -299.5v-481h-471v1229h471v-287q124 157 292 242.5
t412 85.5z" />
    <glyph glyph-name="Omacron" unicode="&#x14c;" horiz-adv-x="2129" 
d="M584 1679v205h960v-205h-960zM1065 -41q-459 0 -711 203t-252 577q0 372 252 574.5t711 202.5q457 0 710 -203t253 -574q0 -372 -253 -576t-710 -204zM1065 389q430 0 430 350q0 346 -430 346q-98 0 -173.5 -17.5t-123.5 -48t-78.5 -75.5t-42.5 -94.5t-12 -110.5
q0 -77 21 -137.5t68 -110t133.5 -76t207.5 -26.5z" />
    <glyph glyph-name="omacron" unicode="&#x14d;" 
d="M477 1434v204h961v-204h-961zM958 -41q-431 0 -653.5 172t-222.5 483q0 312 222.5 484t653.5 172t654 -172.5t223 -483.5t-223 -483t-654 -172zM958 328q197 0 291 68.5t94 217.5t-94 218t-291 69t-291 -69t-94 -218t94 -217.5t291 -68.5z" />
    <glyph glyph-name="Ohungarumlaut" unicode="&#x150;" horiz-adv-x="2129" 
d="M621 1645v219l423 164v-220zM1167 1645v219l424 164v-220zM1065 -41q-459 0 -711 203t-252 577q0 372 252 574.5t711 202.5q457 0 710 -203t253 -574q0 -372 -253 -576t-710 -204zM1065 389q430 0 430 350q0 346 -430 346q-98 0 -173.5 -17.5t-123.5 -48t-78.5 -75.5
t-42.5 -94.5t-12 -110.5q0 -77 21 -137.5t68 -110t133.5 -76t207.5 -26.5z" />
    <glyph glyph-name="ohungarumlaut" unicode="&#x151;" 
d="M514 1399v219l424 164v-219zM1061 1399v219l424 164v-219zM958 -41q-431 0 -653.5 172t-222.5 483q0 312 222.5 484t653.5 172t654 -172.5t223 -483.5t-223 -483t-654 -172zM958 328q197 0 291 68.5t94 217.5t-94 218t-291 69t-291 -69t-94 -218t94 -217.5t291 -68.5z
" />
    <glyph glyph-name="OE" unicode="&#x152;" horiz-adv-x="3444" 
d="M1806 1475h1516v-390h-1004v-153h963v-389h-963v-154h1004v-389h-1516v190q-249 -231 -741 -231q-459 0 -711 203t-252 577q0 372 252 574.5t711 202.5q490 0 741 -230v189zM1065 389q430 0 430 350q0 346 -430 346q-98 0 -173.5 -17.5t-123.5 -48t-78.5 -75.5
t-42.5 -94.5t-12 -110.5q0 -77 21 -137.5t68 -110t133.5 -76t207.5 -26.5z" />
    <glyph glyph-name="oe" unicode="&#x153;" horiz-adv-x="3317" 
d="M2398 307q164 0 249 34t118 99h461q-31 -117 -94.5 -204.5t-165 -150t-248.5 -94.5t-338 -32q-485 0 -717 215q-224 -215 -705 -215q-431 0 -653.5 172t-222.5 483q0 312 222.5 484t653.5 172q484 0 709 -219q115 108 293 163.5t401 55.5q200 0 359 -45t275 -133.5
t178.5 -229.5t62.5 -325h-1272q24 -128 130.5 -179t303.5 -51zM2361 963q-155 0 -249.5 -45t-131.5 -148h768q-39 103 -134 148t-253 45zM958 328q197 0 291 68.5t94 217.5t-94 218t-291 69t-291 -69t-94 -218t94 -217.5t291 -68.5z" />
    <glyph glyph-name="Racute" unicode="&#x154;" horiz-adv-x="2023" 
d="M561 1632v211l797 164v-211zM1606 580q129 -8 201.5 -81.5t72.5 -203.5v-295h-512v209q0 99 -33 133.5t-131 34.5h-569v-377h-512v1475h1147q303 0 456.5 -122t153.5 -356q0 -323 -274 -417zM1147 1065h-512v-279h512q32 0 48 0.5t41.5 3t38.5 8t29.5 15.5t24.5 24.5
t13.5 37t5.5 51.5t-5.5 51.5t-13.5 37t-24.5 24.5t-29.5 15t-38.5 7.5t-41.5 3t-48 0.5z" />
    <glyph glyph-name="racute" unicode="&#x155;" horiz-adv-x="1478" 
d="M319 1597l797 164v-211l-797 -164v211zM1098 1270q155 0 299 -62v-409q-97 35 -168 48t-150 13q-59 0 -113 -10.5t-117.5 -36.5t-128.5 -79.5t-126 -131.5v-602h-471v1229h471v-266q95 164 216 235.5t288 71.5z" />
    <glyph glyph-name="uni0156" unicode="&#x156;" horiz-adv-x="2023" 
d="M1606 580q129 -8 201.5 -81.5t72.5 -203.5v-295h-512v209q0 99 -33 133.5t-131 34.5h-569v-377h-512v1475h1147q303 0 456.5 -122t153.5 -356q0 -323 -274 -417zM1147 1065h-512v-279h512q32 0 48 0.5t41.5 3t38.5 8t29.5 15.5t24.5 24.5t13.5 37t5.5 51.5t-5.5 51.5
t-13.5 37t-24.5 24.5t-29.5 15t-38.5 7.5t-41.5 3t-48 0.5zM817 -614l139 225h-139v246h410v-246l-211 -225h-199z" />
    <glyph glyph-name="uni0157" unicode="&#x157;" horiz-adv-x="1478" 
d="M1098 1270q155 0 299 -62v-409q-97 35 -168 48t-150 13q-59 0 -113 -10.5t-117.5 -36.5t-128.5 -79.5t-126 -131.5v-602h-471v1229h471v-266q95 164 216 235.5t288 71.5zM293 -389h-139v246h409v-246l-211 -225h-198z" />
    <glyph glyph-name="Rcaron" unicode="&#x158;" horiz-adv-x="2023" 
d="M961 1821l423 164v-220l-423 -163l-424 163v220zM1606 580q129 -8 201.5 -81.5t72.5 -203.5v-295h-512v209q0 99 -33 133.5t-131 34.5h-569v-377h-512v1475h1147q303 0 456.5 -122t153.5 -356q0 -323 -274 -417zM1147 1065h-512v-279h512q32 0 48 0.5t41.5 3t38.5 8
t29.5 15.5t24.5 24.5t13.5 37t5.5 51.5t-5.5 51.5t-13.5 37t-24.5 24.5t-29.5 15t-38.5 7.5t-41.5 3t-48 0.5z" />
    <glyph glyph-name="rcaron" unicode="&#x159;" horiz-adv-x="1478" 
d="M1143 1739v-219l-424 -164l-424 164v219l424 -164zM1098 1270q155 0 299 -62v-409q-97 35 -168 48t-150 13q-59 0 -113 -10.5t-117.5 -36.5t-128.5 -79.5t-126 -131.5v-602h-471v1229h471v-266q95 164 216 235.5t288 71.5z" />
    <glyph glyph-name="Sacute" unicode="&#x15a;" horiz-adv-x="2035" 
d="M618 1632v211l797 164v-211zM102 485h533q0 -157 403 -157q151 0 233.5 14.5t106 35.5t23.5 56q0 16 -2.5 27t-11 21.5t-21 17.5t-36.5 14.5t-52.5 12t-75.5 10t-98.5 10t-126.5 10.5q-450 33 -652 147t-202 355q0 221 223.5 339t609.5 118q434 0 667.5 -128.5
t248.5 -373.5h-533q0 71 -92.5 102t-290.5 31q-119 0 -188 -12.5t-91 -31t-22 -46.5q0 -34 27.5 -53t114 -35t262.5 -31q118 -10 189.5 -17.5t166.5 -21t152 -30t124 -41.5t105 -58.5t73 -78.5t49.5 -104t14.5 -132q0 -138 -58.5 -235t-174.5 -154t-272.5 -82t-368.5 -25
q-227 0 -397 28.5t-295 90t-191.5 163.5t-73.5 244z" />
    <glyph glyph-name="sacute" unicode="&#x15b;" horiz-adv-x="1830" 
d="M516 1386v211l797 164v-211zM82 412h491q0 -52 28 -82t108.5 -47t226.5 -17q135 0 205.5 12t93 34t22.5 63q0 33 -14 51t-57 29.5t-108.5 17.5t-183.5 15q-13 0 -20 1q-94 7 -162 13t-140.5 15.5t-123.5 20t-102.5 26t-85 35t-64 44.5t-47.5 57t-26.5 71t-9.5 87
q0 97 42.5 170t113.5 118.5t176 74t216 39t248 10.5q134 0 247 -13t214 -43t172.5 -77t115.5 -118t50 -163h-491q0 69 -76.5 98t-241.5 29q-161 0 -228 -23t-67 -69q0 -18 4.5 -29.5t21.5 -22t39 -16.5t69 -13t98.5 -12t140.5 -12q321 -27 437 -51q203 -42 277 -139
q58 -75 58 -199q0 -105 -39 -183t-105.5 -126t-169.5 -77.5t-217 -40.5t-262 -11q-205 0 -359.5 23t-273 74t-180 140.5t-61.5 215.5z" />
    <glyph glyph-name="Scedilla" unicode="&#x15e;" horiz-adv-x="2035" 
d="M1933 455q0 -136 -57 -232t-169.5 -153t-264 -83t-357.5 -28l-24 -100q67 24 158 24q98 0 155.5 -42t57.5 -120q0 -62 -37.5 -107.5t-100 -71t-147 -37.5t-175 -10.5t-188.5 13.5v185q186 -29 273.5 -22.5t87.5 55.5q0 47 -64 47q-44 0 -88 -31l-141 43l35 178
q-376 21 -574 145.5t-211 376.5h533q0 -157 403 -157q151 0 233.5 14.5t106 35.5t23.5 56q0 16 -2.5 27t-11 21.5t-21 17.5t-36.5 14.5t-52.5 12t-75.5 10t-98.5 10t-126.5 10.5q-450 33 -652 147t-202 355q0 221 223.5 339t609.5 118q434 0 667.5 -128.5t248.5 -373.5h-533
q0 71 -92.5 102t-290.5 31q-119 0 -188 -12.5t-91 -31t-22 -46.5q0 -34 27.5 -53t114 -35t262.5 -31q118 -10 189.5 -17.5t166.5 -21t152 -30t124 -41.5t105 -58.5t73 -78.5t49.5 -104t14.5 -132z" />
    <glyph glyph-name="scedilla" unicode="&#x15f;" horiz-adv-x="1830" 
d="M1749 397q0 -103 -37.5 -180t-101.5 -125.5t-163.5 -78t-209.5 -41.5t-254 -13l-25 -100q67 24 158 24q98 0 155.5 -42t57.5 -120q0 -62 -37.5 -107.5t-99.5 -71t-146.5 -37.5t-175 -10.5t-188.5 13.5v185q186 -29 273 -22.5t87 55.5q0 47 -63 47q-44 0 -88 -31l-141 43
l34 178q-166 9 -291.5 37.5t-219.5 81t-142.5 135.5t-48.5 195h491q0 -52 28 -82t108.5 -47t226.5 -17q135 0 205.5 12t93 34t22.5 63q0 33 -14 51t-57 29.5t-108.5 17.5t-183.5 15q-13 0 -20 1q-94 7 -162 13t-140.5 15.5t-123.5 20t-102.5 26t-85 35t-64 44.5t-47.5 57
t-26.5 71t-9.5 87q0 97 42.5 170t113.5 118.5t176 74t216 39t248 10.5q134 0 247 -13t214 -43t172.5 -77t115.5 -118t50 -163h-491q0 69 -76.5 98t-241.5 29q-161 0 -228 -23t-67 -69q0 -18 4.5 -29.5t21.5 -22t39 -16.5t69 -13t98.5 -12t140.5 -12q321 -27 437 -51
q203 -42 277 -139q58 -75 58 -199z" />
    <glyph glyph-name="Scaron" unicode="&#x160;" horiz-adv-x="2035" 
d="M1442 1985v-220l-424 -163l-424 163v220l424 -164zM1059 938q118 -10 189.5 -17.5t166.5 -21t152 -30t124 -41.5t105 -58.5t73 -78.5t49.5 -104t14.5 -132q0 -138 -58.5 -235t-174.5 -154t-272.5 -82t-368.5 -25q-227 0 -397 28.5t-295 90t-191.5 163.5t-73.5 244h533
q0 -157 403 -157q151 0 233.5 14.5t106 35.5t23.5 56q0 16 -2.5 27t-11 21.5t-21 17.5t-36.5 14.5t-52.5 12t-75.5 10t-98.5 10t-126.5 10.5q-450 33 -652 147t-202 355q0 221 223.5 339t609.5 118q434 0 667.5 -128.5t248.5 -373.5h-533q0 71 -92.5 102t-290.5 31
q-119 0 -188 -12.5t-91 -31t-22 -46.5q0 -34 27.5 -53t114 -35t262.5 -31z" />
    <glyph glyph-name="scaron" unicode="&#x161;" horiz-adv-x="1830" 
d="M1339 1739v-219l-424 -164l-423 164v219l423 -164zM977 786q321 -27 437 -51q203 -42 277 -139q58 -75 58 -199q0 -105 -39 -183t-105.5 -126t-169.5 -77.5t-217 -40.5t-262 -11q-205 0 -359.5 23t-273 74t-180 140.5t-61.5 215.5h491q0 -52 28 -82t108.5 -47t226.5 -17
q135 0 205.5 12t93 34t22.5 63q0 33 -14 51t-57 29.5t-108.5 17.5t-183.5 15q-13 0 -20 1q-94 7 -162 13t-140.5 15.5t-123.5 20t-102.5 26t-85 35t-64 44.5t-47.5 57t-26.5 71t-9.5 87q0 97 42.5 170t113.5 118.5t176 74t216 39t248 10.5q134 0 247 -13t214 -43t172.5 -77
t115.5 -118t50 -163h-491q0 69 -76.5 98t-241.5 29q-161 0 -228 -23t-67 -69q0 -18 4.5 -29.5t21.5 -22t39 -16.5t69 -13t98.5 -12t140.5 -12z" />
    <glyph glyph-name="uni0162" unicode="&#x162;" horiz-adv-x="1966" 
d="M1864 1475v-431h-625v-1044h-182l-31 -121q70 25 158 25q98 0 155.5 -42t57.5 -120q0 -62 -37.5 -107.5t-99.5 -71t-146.5 -37.5t-175 -10.5t-188.5 13.5v184q186 -29 273 -22.5t87 55.5q0 47 -63 47q-45 0 -89 -31l-141 43l39 195h-129v1044h-625v431h1762z" />
    <glyph glyph-name="uni0163" unicode="&#x163;" horiz-adv-x="1384" 
d="M1303 1229v-348h-502v-336q0 -94 43 -145.5t145 -51.5q80 0 142 8.5t172 32.5v-379q-217 -51 -414 -51l-21 -80q70 25 158 25q98 0 155.5 -42t57.5 -120q0 -62 -37.5 -107.5t-99.5 -71t-146.5 -37.5t-175 -10.5t-188.5 13.5v184q186 -29 273 -22.5t87 55.5q0 47 -63 47
q-44 0 -88 -31l-142 43l33 168q-362 65 -362 410v498h-248v348h248v225l471 123v-348h502z" />
    <glyph glyph-name="Tcaron" unicode="&#x164;" horiz-adv-x="1966" 
d="M983 1821l424 164v-220l-424 -163l-424 163v220zM102 1475h1762v-431h-625v-1044h-512v1044h-625v431z" />
    <glyph glyph-name="tcaron" unicode="&#x165;" horiz-adv-x="1384" 
d="M903 1505v221h410v-221l-211 -202h-199l139 202h-139zM330 1454l471 123v-348h502v-348h-502v-336q0 -94 43 -145.5t145 -51.5q80 0 142 8.5t172 32.5v-379q-221 -51 -424 -51q-549 0 -549 424v498h-248v348h248v225z" />
    <glyph glyph-name="Tbar" unicode="&#x166;" horiz-adv-x="1966" 
d="M102 1475h1762v-431h-625v-307h461v-205h-461v-532h-512v532h-461v205h461v307h-625v431z" />
    <glyph glyph-name="tbar" unicode="&#x167;" horiz-adv-x="1384" 
d="M1303 1229v-348h-502v-103h502v-205h-502v-28q0 -94 43 -145.5t145 -51.5q80 0 142 8.5t172 32.5v-379q-221 -51 -424 -51q-549 0 -549 424v190h-248v205h248v103h-248v348h248v225l471 123v-348h502z" />
    <glyph glyph-name="Umacron" unicode="&#x16a;" horiz-adv-x="2048" 
d="M543 1679v205h960v-205h-960zM1925 1475v-756q0 -380 -218 -570t-683 -190q-466 0 -683.5 189.5t-217.5 570.5v756h512v-736q0 -71 17.5 -129t58.5 -110t121 -81.5t192 -29.5q91 0 160.5 20.5t112 53t69.5 79.5t37 94.5t10 102.5v736h512z" />
    <glyph glyph-name="umacron" unicode="&#x16b;" horiz-adv-x="2045" 
d="M1503 1434h-960v204h960v-204zM1452 748v481h471v-1229h-471v287q-124 -157 -292 -242.5t-412 -85.5q-625 0 -625 612v658h471v-481q0 -104 19 -176t63.5 -123.5t119 -76t183.5 -24.5q229 0 351 100.5t122 299.5z" />
    <glyph glyph-name="Uring" unicode="&#x16e;" horiz-adv-x="2048" 
d="M1024 1597q-236 0 -343.5 69.5t-107.5 201.5t107.5 201t343.5 69t343.5 -69t107.5 -201t-107.5 -201.5t-343.5 -69.5zM1024 1761q205 0 205 107q0 106 -205 106t-205 -106q0 -107 205 -107zM1925 1475v-756q0 -380 -218 -570t-683 -190q-466 0 -683.5 189.5t-217.5 570.5
v756h512v-736q0 -71 17.5 -129t58.5 -110t121 -81.5t192 -29.5q91 0 160.5 20.5t112 53t69.5 79.5t37 94.5t10 102.5v736h512z" />
    <glyph glyph-name="uring" unicode="&#x16f;" horiz-adv-x="2045" 
d="M1024 1352q-236 0 -343.5 69t-107.5 201t107.5 201t343.5 69t343.5 -69t107.5 -201t-107.5 -201t-343.5 -69zM1024 1729q-205 0 -205 -107q0 -106 205 -106t205 106q0 107 -205 107zM1452 748v481h471v-1229h-471v287q-124 -157 -292 -242.5t-412 -85.5q-625 0 -625 612
v658h471v-481q0 -104 19 -176t63.5 -123.5t119 -76t183.5 -24.5q229 0 351 100.5t122 299.5z" />
    <glyph glyph-name="Uhungarumlaut" unicode="&#x170;" horiz-adv-x="2048" 
d="M580 1645v219l424 164v-220zM1126 1645v219l424 164v-220zM1925 1475v-756q0 -380 -218 -570t-683 -190q-466 0 -683.5 189.5t-217.5 570.5v756h512v-736q0 -71 17.5 -129t58.5 -110t121 -81.5t192 -29.5q91 0 160.5 20.5t112 53t69.5 79.5t37 94.5t10 102.5v736h512z
" />
    <glyph glyph-name="uhungarumlaut" unicode="&#x171;" horiz-adv-x="2045" 
d="M1004 1563l-424 -164v219l424 164v-219zM1550 1563l-424 -164v219l424 164v-219zM1452 748v481h471v-1229h-471v287q-124 -157 -292 -242.5t-412 -85.5q-625 0 -625 612v658h471v-481q0 -104 19 -176t63.5 -123.5t119 -76t183.5 -24.5q229 0 351 100.5t122 299.5z" />
    <glyph glyph-name="Uogonek" unicode="&#x172;" horiz-adv-x="2048" 
d="M1413 739v736h512v-756q0 -305 -139.5 -487.5t-433.5 -241.5q-88 -23 -121 -44.5t-33 -51.5q0 -28 20.5 -45t70.5 -23.5t89.5 -8t122.5 -1.5v-287q-122 0 -209 5.5t-163 21t-121.5 42t-71 69t-25.5 102.5q0 117 172 190h-59q-466 0 -683.5 189.5t-217.5 570.5v756h512
v-736q0 -71 17.5 -129t58.5 -110t121 -81.5t192 -29.5q91 0 160.5 20.5t112 53t69.5 79.5t37 94.5t10 102.5z" />
    <glyph glyph-name="uogonek" unicode="&#x173;" horiz-adv-x="2045" 
d="M1452 1229h471v-1229q-151 -10 -211.5 -43.5t-60.5 -91.5q0 -22 7 -38t26.5 -25.5t36.5 -15t55.5 -8t64 -3t80.5 -0.5v-287q-101 0 -183 5t-160.5 16t-136 31.5t-101.5 50.5t-66.5 73t-22.5 98q0 188 322 238h-121v287q-124 -157 -292 -242.5t-412 -85.5q-625 0 -625 612
v658h471v-481q0 -104 19 -176t63.5 -123.5t119 -76t183.5 -24.5q229 0 351 100.5t122 299.5v481z" />
    <glyph glyph-name="Wcircumflex" unicode="&#x174;" horiz-adv-x="3403" 
d="M2126 1843v-219l-424 164l-424 -164v219l424 164zM2447 391l338 1084h516l-475 -1475h-737l-387 1055l-387 -1055h-737l-476 1475h516l338 -1084l408 1084h676z" />
    <glyph glyph-name="wcircumflex" unicode="&#x175;" horiz-adv-x="3270" 
d="M2060 1597v-219l-424 164l-424 -164v219l424 164zM2343 319l381 910h465l-514 -1229h-656l-383 801l-385 -801h-655l-514 1229h465l381 -910l432 910h551z" />
    <glyph glyph-name="Ycircumflex" unicode="&#x176;" horiz-adv-x="2301" 
d="M1575 1843v-219l-424 164l-424 -164v219l424 164zM1151 922l414 553h635l-793 -983v-492h-512v492l-793 983h635z" />
    <glyph glyph-name="ycircumflex" unicode="&#x177;" horiz-adv-x="2025" 
d="M1430 1597v-219l-424 164l-424 -164v219l424 164zM1022 262l465 967h477l-578 -1198q-54 -113 -106.5 -196t-118 -155t-139 -117t-167.5 -70t-206 -25q-216 0 -465 71v359q275 -62 396 -62q53 0 85.5 2.5t67 11.5t58.5 27t49 47.5t51 75.5h-221l-588 1229h477z" />
    <glyph glyph-name="Ydieresis" unicode="&#x178;" horiz-adv-x="2301" 
d="M700 1884h369v-205h-369v205zM1233 1884h369v-205h-369v205zM1151 922l414 553h635l-793 -983v-492h-512v492l-793 983h635z" />
    <glyph glyph-name="Zacute" unicode="&#x179;" horiz-adv-x="1904" 
d="M553 1843l797 164v-211l-797 -164v211zM123 1475h1659v-431l-918 -614h918v-430h-1659v430l917 614h-917v431z" />
    <glyph glyph-name="zacute" unicode="&#x17a;" horiz-adv-x="1708" 
d="M455 1597l796 164v-211l-796 -164v211zM123 1229h1462v-348l-837 -533h837v-348h-1462v348l838 533h-838v348z" />
    <glyph glyph-name="Zdotaccent" unicode="&#x17b;" horiz-adv-x="1904" 
d="M748 1884h409v-205h-409v205zM123 1475h1659v-431l-918 -614h918v-430h-1659v430l917 614h-917v431z" />
    <glyph glyph-name="zdotaccent" unicode="&#x17c;" horiz-adv-x="1708" 
d="M649 1638h410v-204h-410v204zM123 1229h1462v-348l-837 -533h837v-348h-1462v348l838 533h-838v348z" />
    <glyph glyph-name="Zcaron" unicode="&#x17d;" horiz-adv-x="1904" 
d="M1376 1985v-220l-424 -163l-424 163v220l424 -164zM123 1475h1659v-431l-918 -614h918v-430h-1659v430l917 614h-917v431z" />
    <glyph glyph-name="zcaron" unicode="&#x17e;" horiz-adv-x="1708" 
d="M1278 1739v-219l-424 -164l-424 164v219l424 -164zM123 1229h1462v-348l-837 -533h837v-348h-1462v348l838 533h-838v348z" />
    <glyph glyph-name="uni0218" unicode="&#x218;" horiz-adv-x="2035" 
d="M102 485h533q0 -157 403 -157q151 0 233.5 14.5t106 35.5t23.5 56q0 16 -2.5 27t-11 21.5t-21 17.5t-36.5 14.5t-52.5 12t-75.5 10t-98.5 10t-126.5 10.5q-450 33 -652 147t-202 355q0 221 223.5 339t609.5 118q434 0 667.5 -128.5t248.5 -373.5h-533q0 71 -92.5 102
t-290.5 31q-119 0 -188 -12.5t-91 -31t-22 -46.5q0 -34 27.5 -53t114 -35t262.5 -31q118 -10 189.5 -17.5t166.5 -21t152 -30t124 -41.5t105 -58.5t73 -78.5t49.5 -104t14.5 -132q0 -138 -58.5 -235t-174.5 -154t-272.5 -82t-368.5 -25q-227 0 -397 28.5t-295 90
t-191.5 163.5t-73.5 244zM813 -410v246h410v-246l-211 -225h-199l139 225h-139z" />
    <glyph glyph-name="uni0219" unicode="&#x219;" horiz-adv-x="1830" 
d="M82 412h491q0 -52 28 -82t108.5 -47t226.5 -17q135 0 205.5 12t93 34t22.5 63q0 33 -14 51t-57 29.5t-108.5 17.5t-183.5 15q-13 0 -20 1q-94 7 -162 13t-140.5 15.5t-123.5 20t-102.5 26t-85 35t-64 44.5t-47.5 57t-26.5 71t-9.5 87q0 97 42.5 170t113.5 118.5t176 74
t216 39t248 10.5q134 0 247 -13t214 -43t172.5 -77t115.5 -118t50 -163h-491q0 69 -76.5 98t-241.5 29q-161 0 -228 -23t-67 -69q0 -18 4.5 -29.5t21.5 -22t39 -16.5t69 -13t98.5 -12t140.5 -12q321 -27 437 -51q203 -42 277 -139q58 -75 58 -199q0 -105 -39 -183
t-105.5 -126t-169.5 -77.5t-217 -40.5t-262 -11q-205 0 -359.5 23t-273 74t-180 140.5t-61.5 215.5zM711 -410v246h409v-246l-211 -225h-198l139 225h-139z" />
    <glyph glyph-name="uni021A" unicode="&#x21a;" horiz-adv-x="1966" 
d="M102 1475h1762v-431h-625v-1044h-512v1044h-625v431zM778 -614l140 225h-140v246h410v-246l-211 -225h-199z" />
    <glyph glyph-name="uni021B" unicode="&#x21b;" horiz-adv-x="1384" 
d="M1303 1229v-348h-502v-336q0 -94 43 -145.5t145 -51.5q80 0 142 8.5t172 32.5v-379q-221 -51 -424 -51q-549 0 -549 424v498h-248v348h248v225l471 123v-348h502zM760 -410h-139v246h409v-246l-211 -225h-198z" />
    <glyph glyph-name="circumflex" unicode="&#x2c6;" horiz-adv-x="1093" 
d="M123 1597l424 164l424 -164v-219l-424 164l-424 -164v219z" />
    <glyph glyph-name="caron" unicode="&#x2c7;" horiz-adv-x="1093" 
d="M123 1739l424 -164l424 164v-219l-424 -164l-424 164v219z" />
    <glyph glyph-name="breve" unicode="&#x2d8;" horiz-adv-x="1175" 
d="M123 1761h246q0 -93 53 -138.5t166 -45.5t166 45.5t53 138.5h246q0 -104 -36.5 -181t-101.5 -121.5t-146.5 -65.5t-180.5 -21t-180.5 21t-146.5 65.5t-101.5 121.5t-36.5 181z" />
    <glyph glyph-name="dotaccent" unicode="&#x2d9;" horiz-adv-x="655" 
d="M123 1434v204h409v-204h-409z" />
    <glyph glyph-name="ring" unicode="&#x2da;" horiz-adv-x="1146" 
d="M573 1352q-236 0 -343 69t-107 201t107 201t343 69t343.5 -69t107.5 -201t-107.5 -201t-343.5 -69zM573 1516q205 0 205 106q0 107 -205 107q-204 0 -204 -107q0 -106 204 -106z" />
    <glyph glyph-name="ogonek" unicode="&#x2db;" horiz-adv-x="835" 
d="M713 -266v-205q-123 0 -211.5 5.5t-168 21t-128 42t-76 69.5t-27.5 102q0 68 43.5 121.5t128.5 109.5h220q-4 -3 -19 -15t-21 -17.5t-19 -17t-19 -20.5t-13.5 -22t-10.5 -26.5t-3 -28.5q0 -22 6 -39.5t21.5 -29.5t29.5 -21t42 -14.5t47 -8.5t56 -4t58.5 -1.5t63.5 -0.5z
" />
    <glyph glyph-name="tilde" unicode="&#x2dc;" horiz-adv-x="1515" 
d="M410 1352h-287q0 72 9 134t32 121.5t59 101.5t94.5 67.5t133.5 25.5q85 0 168 -29t136.5 -63t116 -63t111.5 -29q69 0 96 44t27 140h287q0 -72 -9 -134t-32 -121.5t-59 -101.5t-94.5 -67.5t-133.5 -25.5q-85 0 -168 29t-137 63t-116.5 63t-111.5 29q-69 0 -95.5 -43.5
t-26.5 -140.5z" />
    <glyph glyph-name="hungarumlaut" unicode="&#x2dd;" horiz-adv-x="1216" 
d="M123 1399v219l424 164v-219zM670 1399v219l424 164v-219z" />
    <glyph glyph-name="gravecomb" unicode="&#x300;" horiz-adv-x="0" 
d="M-920 1761l797 -164v-211l-797 164v211z" />
    <glyph glyph-name="acutecomb" unicode="&#x301;" horiz-adv-x="0" 
d="M-920 1386v211l797 164v-211z" />
    <glyph glyph-name="uni0302" unicode="&#x302;" horiz-adv-x="0" 
d="M-971 1597l424 164l424 -164v-219l-424 164l-424 -164v219z" />
    <glyph glyph-name="tildecomb" unicode="&#x303;" horiz-adv-x="0" 
d="M-1106 1352h-287q0 72 9 134t32 121.5t59 101.5t94.5 67.5t133.5 25.5q85 0 168 -29t137 -63t116.5 -63t111.5 -29q69 0 95.5 43.5t26.5 140.5h287q0 -72 -9 -134t-32 -121.5t-59 -101.5t-94.5 -67.5t-133.5 -25.5q-85 0 -168 29t-136.5 63t-116 63t-111.5 29
q-69 0 -96 -44t-27 -140z" />
    <glyph glyph-name="uni0304" unicode="&#x304;" horiz-adv-x="0" 
d="M-1083 1434v204h960v-204h-960z" />
    <glyph glyph-name="uni0306" unicode="&#x306;" horiz-adv-x="0" 
d="M-1053 1761h246q0 -93 53 -138.5t166 -45.5t166 45.5t53 138.5h246q0 -104 -36.5 -181t-101.5 -121.5t-146.5 -65.5t-180.5 -21t-180.5 21t-146.5 65.5t-101.5 121.5t-36.5 181z" />
    <glyph glyph-name="uni0307" unicode="&#x307;" horiz-adv-x="0" 
d="M-532 1434v204h409v-204h-409z" />
    <glyph glyph-name="uni0308" unicode="&#x308;" horiz-adv-x="0" 
d="M-1024 1434v204h369v-204h-369zM-492 1434v204h369v-204h-369z" />
    <glyph glyph-name="uni030A" unicode="&#x30a;" horiz-adv-x="0" 
d="M-573 1352q-236 0 -343.5 69t-107.5 201t107.5 201t343.5 69t343 -69t107 -201t-107 -201t-343 -69zM-573 1516q204 0 204 106q0 107 -204 107q-205 0 -205 -107q0 -106 205 -106z" />
    <glyph glyph-name="uni030B" unicode="&#x30b;" horiz-adv-x="0" 
d="M-1094 1399v219l424 164v-219zM-547 1399v219l424 164v-219z" />
    <glyph glyph-name="uni030C" unicode="&#x30c;" horiz-adv-x="0" 
d="M-971 1739l424 -164l424 164v-219l-424 -164l-424 164v219z" />
    <glyph glyph-name="uni0312" unicode="&#x312;" horiz-adv-x="0" 
d="M-123 1679v-245h-409v245l210 226h199l-139 -226h139z" />
    <glyph glyph-name="uni0326" unicode="&#x326;" horiz-adv-x="0" 
d="M-532 -389v246h409v-246l-211 -225h-198l139 225h-139z" />
    <glyph glyph-name="uni0327" unicode="&#x327;" horiz-adv-x="0" 
d="M-336 -96q98 0 155.5 -42t57.5 -120q0 -62 -37.5 -107.5t-99.5 -71t-146.5 -37.5t-175 -10.5t-188.5 13.5v184q186 -29 273 -22.5t87 55.5q0 47 -63 47q-44 0 -88 -31l-141 43l38 195h201l-31 -121q70 25 158 25z" />
    <glyph glyph-name="uni0328" unicode="&#x328;" horiz-adv-x="0" 
d="M-123 -266v-205q-123 0 -211.5 5.5t-167.5 21t-127.5 42t-76 69.5t-27.5 102q0 68 43.5 121.5t128.5 109.5h219q-2 -2 -18.5 -15t-21.5 -17.5t-18.5 -17t-19 -21t-13 -21.5t-10.5 -26.5t-3 -28.5q0 -22 6 -39.5t21 -29.5t29.5 -21t42 -14.5t47 -8.5t56 -4t58 -1.5
t63.5 -0.5z" />
    <glyph glyph-name="uni0335" unicode="&#x335;" horiz-adv-x="0" 
d="M-1106 594v205h983v-205h-983z" />
    <glyph glyph-name="uni0336" unicode="&#x336;" horiz-adv-x="0" 
d="M-2171 594v205h2048v-205h-2048z" />
    <glyph glyph-name="uni0337" unicode="&#x337;" horiz-adv-x="0" 
d="M-573 1638h450l-582 -1945h-450z" />
    <glyph glyph-name="uni0338" unicode="&#x338;" horiz-adv-x="0" 
d="M-471 1475h348l-532 -1782h-349z" />
    <glyph glyph-name="Wgrave" unicode="&#x1e80;" horiz-adv-x="3403" 
d="M1303 2007l796 -164v-211l-796 164v211zM2447 391l338 1084h516l-475 -1475h-737l-387 1055l-387 -1055h-737l-476 1475h516l338 -1084l408 1084h676z" />
    <glyph glyph-name="wgrave" unicode="&#x1e81;" horiz-adv-x="3270" 
d="M1237 1761l797 -164v-211l-797 164v211zM2343 319l381 910h465l-514 -1229h-656l-383 801l-385 -801h-655l-514 1229h465l381 -910l432 910h551z" />
    <glyph glyph-name="Wacute" unicode="&#x1e82;" horiz-adv-x="3403" 
d="M1303 1843l796 164v-211l-796 -164v211zM2447 391l338 1084h516l-475 -1475h-737l-387 1055l-387 -1055h-737l-476 1475h516l338 -1084l408 1084h676z" />
    <glyph glyph-name="wacute" unicode="&#x1e83;" horiz-adv-x="3270" 
d="M1237 1597l797 164v-211l-797 -164v211zM2343 319l381 910h465l-514 -1229h-656l-383 801l-385 -801h-655l-514 1229h465l381 -910l432 910h551z" />
    <glyph glyph-name="Wdieresis" unicode="&#x1e84;" horiz-adv-x="3403" 
d="M1251 1884h369v-205h-369v205zM1784 1884h368v-205h-368v205zM2447 391l338 1084h516l-475 -1475h-737l-387 1055l-387 -1055h-737l-476 1475h516l338 -1084l408 1084h676z" />
    <glyph glyph-name="wdieresis" unicode="&#x1e85;" horiz-adv-x="3270" 
d="M1186 1638h368v-204h-368v204zM1718 1638h369v-204h-369v204zM2343 319l381 910h465l-514 -1229h-656l-383 801l-385 -801h-655l-514 1229h465l381 -910l432 910h551z" />
    <glyph glyph-name="Ygrave" unicode="&#x1ef2;" horiz-adv-x="2301" 
d="M752 2007l796 -164v-211l-796 164v211zM1151 922l414 553h635l-793 -983v-492h-512v492l-793 983h635z" />
    <glyph glyph-name="ygrave" unicode="&#x1ef3;" horiz-adv-x="2025" 
d="M606 1761l797 -164v-211l-797 164v211zM1022 262l465 967h477l-578 -1198q-54 -113 -106.5 -196t-118 -155t-139 -117t-167.5 -70t-206 -25q-216 0 -465 71v359q275 -62 396 -62q53 0 85.5 2.5t67 11.5t58.5 27t49 47.5t51 75.5h-221l-588 1229h477z" />
    <glyph glyph-name="endash" unicode="&#x2013;" horiz-adv-x="2375" 
d="M164 522v348h2048v-348h-2048z" />
    <glyph glyph-name="emdash" unicode="&#x2014;" horiz-adv-x="2785" 
d="M164 522v348h2457v-348h-2457z" />
    <glyph glyph-name="quoteleft" unicode="&#x2018;" horiz-adv-x="819" 
d="M614 819h-471l144 778h409z" />
    <glyph glyph-name="quoteright" unicode="&#x2019;" horiz-adv-x="798" 
d="M205 1597h471l-144 -778h-409z" />
    <glyph glyph-name="quotesinglbase" unicode="&#x201a;" horiz-adv-x="737" 
d="M123 0v369h491v-369l-231 -451h-219l139 451h-180z" />
    <glyph glyph-name="quotedblleft" unicode="&#x201c;" horiz-adv-x="1454" 
d="M614 819h-471l144 778h409zM1249 819h-471l144 778h409z" />
    <glyph glyph-name="quotedblright" unicode="&#x201d;" horiz-adv-x="1454" 
d="M205 1597h471l-144 -778h-409zM840 1597h471l-144 -778h-409z" />
    <glyph glyph-name="quotedblbase" unicode="&#x201e;" horiz-adv-x="1372" 
d="M303 0h-180v369h491v-369l-231 -451h-219zM758 0v369h491v-369l-231 -451h-219l139 451h-180z" />
    <glyph glyph-name="dagger" unicode="&#x2020;" horiz-adv-x="1884" 
d="M1157 1229h604v-389h-604v-1147h-430v1147h-604v389h604v409h430v-409z" />
    <glyph glyph-name="daggerdbl" unicode="&#x2021;" horiz-adv-x="1884" 
d="M1761 1229v-389h-604v-348h604v-390h-604v-409h-430v409h-604v390h604v348h-604v389h604v409h430v-409h604z" />
    <glyph glyph-name="bullet" unicode="&#x2022;" horiz-adv-x="1091" 
d="M547 356q-217 0 -320.5 73t-103.5 228q0 154 103.5 226.5t320.5 72.5q216 0 319 -73t103 -226q0 -155 -103 -228t-319 -73z" />
    <glyph glyph-name="ellipsis" unicode="&#x2026;" horiz-adv-x="1966" 
d="M123 0v369h491v-369h-491zM737 0v369h492v-369h-492zM1352 0v369h491v-369h-491z" />
    <glyph glyph-name="perthousand" unicode="&#x2030;" horiz-adv-x="4382" 
d="M707 510q-140 0 -253.5 43t-184.5 115t-108.5 161t-37.5 185t37.5 184.5t108.5 160t184.5 114.5t253.5 43q113 0 209.5 -28t164.5 -76.5t116.5 -113t71.5 -136.5t23 -148q0 -96 -37.5 -185t-108 -161t-184.5 -115t-255 -43zM1823 1475h397l-934 -1475h-397zM707 797
q113 0 165 64t52 155q0 89 -52 151t-165 62q-112 0 -163.5 -62t-51.5 -151q0 -91 51.5 -155t163.5 -64zM2402 -41q-140 0 -253.5 43t-184 115t-108 161t-37.5 185t37.5 184.5t108 160t184 114.5t253.5 43q141 0 255 -43t185 -114.5t108.5 -160t37.5 -184.5t-37.5 -185
t-108.5 -161t-185 -115t-255 -43zM3674 -41q-140 0 -253.5 43t-184.5 115t-108.5 161t-37.5 185t37.5 184.5t108.5 160t184.5 114.5t253.5 43q141 0 255 -43t185 -114.5t108.5 -160t37.5 -184.5t-37.5 -185t-108.5 -161t-185 -115t-255 -43zM2402 246q113 0 165 64t52 155
q0 89 -52 151t-165 62q-112 0 -163.5 -62t-51.5 -151q0 -91 51.5 -155t163.5 -64zM3674 246q113 0 165 64t52 155q0 89 -52 151t-165 62q-112 0 -163.5 -62t-51.5 -151q0 -91 51.5 -155t163.5 -64z" />
    <glyph glyph-name="guilsinglleft" unicode="&#x2039;" horiz-adv-x="1347" 
d="M123 614l532 615h570l-533 -615l533 -614h-570z" />
    <glyph glyph-name="guilsinglright" unicode="&#x203a;" horiz-adv-x="1347" 
d="M123 1229h569l533 -615l-533 -614h-569l532 614z" />
    <glyph glyph-name="fraction" unicode="&#x2044;" horiz-adv-x="1290" 
d="M725 1638h451l-582 -1945h-451z" />
    <glyph glyph-name="Euro" unicode="&#x20ac;" horiz-adv-x="1720" 
d="M1153 1106q-130 0 -205 -47t-104 -146h516v-122h-539q-2 -23 -2 -72v-31h541v-123h-522q57 -196 315 -196q109 0 194.5 16.5t249.5 65.5v-410q-169 -46 -297.5 -64t-283.5 -18q-168 0 -299 44t-217 125.5t-136.5 190t-68.5 246.5h-172v123h164v31q0 49 2 72h-166v122h178
q20 137 72 245t138 189.5t214 125t291 43.5q155 0 283.5 -18t297.5 -64v-410q-164 49 -249.5 65.5t-194.5 16.5z" />
    <glyph glyph-name="trademark" unicode="&#x2122;" horiz-adv-x="2314" 
d="M461 1270h-338v164h846v-164h-336l-2 -506h-170v506zM1239 764h-172v670h272l289 -510l291 510h272l-2 -670h-170v506l-288 -506h-205l-287 506v-506z" />
    <glyph glyph-name="arrowleft" unicode="&#x2190;" horiz-adv-x="1679" 
d="M1556 870v-307h-886l291 -272l-216 -203l-622 631l622 627l216 -203l-291 -273h886z" />
    <glyph glyph-name="arrowup" unicode="&#x2191;" horiz-adv-x="1503" 
d="M905 948v-887h-307v887l-272 -291l-203 215l627 623l630 -623l-202 -215z" />
    <glyph glyph-name="arrowright" unicode="&#x2192;" horiz-adv-x="1679" 
d="M1010 563h-887v307h887l-291 273l215 203l622 -627l-622 -631l-215 203z" />
    <glyph glyph-name="arrowdown" unicode="&#x2193;" horiz-adv-x="1503" 
d="M598 1393h307v-887l273 291l202 -215l-630 -623l-627 623l203 215l272 -291v887z" />
    <glyph glyph-name="arrowboth" unicode="&#x2194;" horiz-adv-x="2881" 
d="M2212 870l-291 273l215 203l623 -627l-623 -631l-215 203l291 272h-1542l291 -272l-216 -203l-622 631l622 627l216 -203l-291 -273h1542z" />
    <glyph glyph-name="arrowupdn" unicode="&#x2195;" horiz-adv-x="1503" 
d="M905 1153v-1098l273 291l202 -215l-630 -623l-627 623l203 215l272 -291v1098l-272 -291l-203 215l627 623l630 -623l-202 -215z" />
    <glyph glyph-name="uni2196" unicode="&#x2196;" horiz-adv-x="1372" 
d="M1249 399l-217 -217l-626 627l12 -397l-295 8l6 887l883 2l8 -295l-397 12z" />
    <glyph glyph-name="uni2197" unicode="&#x2197;" horiz-adv-x="1372" 
d="M967 791l-627 -627l-217 217l627 627l-398 -13l8 295l883 -2l6 -887l-295 -8z" />
    <glyph glyph-name="uni2198" unicode="&#x2198;" horiz-adv-x="1372" 
d="M123 1053l217 217l627 -627l-13 397l295 -8l-6 -887l-883 -2l-8 295l398 -12z" />
    <glyph glyph-name="uni2199" unicode="&#x2199;" horiz-adv-x="1372" 
d="M406 643l626 627l217 -217l-626 -627l397 12l-8 -295l-883 2l-6 887l295 8z" />
    <glyph glyph-name="emptyset" unicode="&#x2205;" horiz-adv-x="2371" 
d="M2005 1780l244 -244l-221 -221q188 -247 188 -596q0 -160 -41.5 -304t-126.5 -265t-206 -209t-288.5 -137.5t-365.5 -49.5q-337 0 -580 142l-241 -242l-244 244l225 225q-190 245 -190 596q0 160 42 303.5t127.5 263.5t207 207.5t289 136.5t364.5 49q330 0 579 -137z
M649 719q0 -142 41 -254l758 758q-109 47 -260 47q-269 0 -404 -144t-135 -407zM1724 719q0 150 -38 254l-760 -760q107 -49 262 -49q268 0 402 145.5t134 409.5z" />
    <glyph glyph-name="product" unicode="&#x220f;" horiz-adv-x="2668" 
d="M123 1638h2423v-389h-441v-1556h-430v1556h-682v-1556h-430v1556h-440v389z" />
    <glyph glyph-name="minus" unicode="&#x2212;" horiz-adv-x="1884" 
d="M123 522v348h1638v-348h-1638z" />
    <glyph glyph-name="integral" unicode="&#x222b;" horiz-adv-x="2033" 
d="M123 -307v389q42 0 65.5 0.5t68.5 3.5t73.5 8t71 16.5t71 27t64 40.5t60 56.5t48 75t39.5 96.5l154 520q44 149 103 263t116.5 189t145.5 126.5t152 77.5t177.5 39t180 15t198.5 2v-389q-171 0 -260 -23q-230 -59 -301 -300l-154 -520q-34 -117 -77.5 -212t-86.5 -165
t-104.5 -124t-109.5 -89t-125 -59.5t-128.5 -37t-142.5 -18.5t-144 -7t-155 -1z" />
    <glyph glyph-name="approxequal" unicode="&#x2248;" horiz-adv-x="1884" 
d="M512 778h-389q0 311 110.5 483.5t319.5 172.5q81 0 160 -25.5t141 -61.5t119.5 -72t118.5 -61.5t116 -25.5q89 0 126.5 55t37.5 191h389q0 -311 -110.5 -483.5t-319.5 -172.5q-81 0 -160 25.5t-141 61.5t-119.5 72t-118.5 61.5t-116 25.5q-89 0 -126.5 -55t-37.5 -191z
M512 0h-389q0 311 110.5 483t319.5 172q81 0 160 -25t141 -61.5t119.5 -72.5t118.5 -61t116 -25q89 0 126.5 54.5t37.5 190.5h389q0 -311 -110.5 -483t-319.5 -172q-81 0 -160 25.5t-141 61.5t-119.5 72t-118.5 61.5t-116 25.5q-89 0 -126.5 -55t-37.5 -191z" />
    <glyph glyph-name="notequal" unicode="&#x2260;" horiz-adv-x="1884" 
d="M1761 1196v-348h-508l-90 -307h598v-348h-702l-141 -472h-451l141 472h-485v348h590l90 307h-680v348h784l142 471h450l-141 -471h403z" />
    <glyph glyph-name="lessequal" unicode="&#x2264;" horiz-adv-x="1884" 
d="M123 1294l1638 226v-396l-1261 -137l1261 -137v-395l-1638 225v614zM1761 0h-1638v348h1638v-348z" />
    <glyph glyph-name="greaterequal" unicode="&#x2265;" horiz-adv-x="1884" 
d="M123 1124v396l1638 -226v-614l-1638 -225v395l1261 137zM1761 0h-1638v348h1638v-348z" />
    <glyph glyph-name="lozenge" unicode="&#x25ca;" horiz-adv-x="1990" 
d="M1315 -369h-637l-555 1004l555 1003h637l553 -1003zM567 635l430 -780l426 780l-426 780z" />
    <glyph glyph-name="A.ss01" horiz-adv-x="2736" 
d="M2634 0h-545l-121 258h-1200l-121 -258h-545l707 1475h1118zM1139 1044l-197 -417h852l-197 417h-458z" />
    <glyph glyph-name="Aacute.ss01" horiz-adv-x="2736" 
d="M969 1843l796 164v-211l-796 -164v211zM2634 0h-545l-121 258h-1200l-121 -258h-545l707 1475h1118zM1139 1044l-197 -417h852l-197 417h-458z" />
    <glyph glyph-name="Abreve.ss01" horiz-adv-x="2736" 
d="M1368 1618q-99 0 -180.5 21t-146.5 65.5t-101.5 121.5t-36.5 181h246q0 -93 53 -138.5t166 -45.5t166 45.5t53 138.5h246q0 -104 -36.5 -181t-101.5 -121.5t-146.5 -65.5t-180.5 -21zM2634 0h-545l-121 258h-1200l-121 -258h-545l707 1475h1118zM1139 1044l-197 -417h852
l-197 417h-458z" />
    <glyph glyph-name="Acircumflex.ss01" horiz-adv-x="2736" 
d="M1792 1843v-219l-424 164l-424 -164v219l424 164zM2634 0h-545l-121 258h-1200l-121 -258h-545l707 1475h1118zM1139 1044l-197 -417h852l-197 417h-458z" />
    <glyph glyph-name="Adieresis.ss01" horiz-adv-x="2736" 
d="M918 1884h368v-205h-368v205zM1450 1884h369v-205h-369v205zM2634 0h-545l-121 258h-1200l-121 -258h-545l707 1475h1118zM1139 1044l-197 -417h852l-197 417h-458z" />
    <glyph glyph-name="Agrave.ss01" horiz-adv-x="2736" 
d="M969 2007l796 -164v-211l-796 164v211zM2634 0h-545l-121 258h-1200l-121 -258h-545l707 1475h1118zM1139 1044l-197 -417h852l-197 417h-458z" />
    <glyph glyph-name="Amacron.ss01" horiz-adv-x="2736" 
d="M887 1884h960v-205h-960v205zM2634 0h-545l-121 258h-1200l-121 -258h-545l707 1475h1118zM1139 1044l-197 -417h852l-197 417h-458z" />
    <glyph glyph-name="Aogonek.ss01" horiz-adv-x="2736" 
d="M2300 -147q0 -22 6 -39.5t21 -29.5t29.5 -21t42 -14.5t47 -8.5t56 -4t58 -1.5t63.5 -0.5v-205q-123 0 -211.5 5.5t-167.5 21t-127.5 42t-76 69.5t-27.5 102q0 68 43.5 121.5t128.5 109.5h-96l-121 258h-1200l-121 -258h-545l707 1475h1118l707 -1475h-230
q-2 -2 -18.5 -15t-21.5 -17.5t-18.5 -17t-19 -21t-13 -21.5t-10.5 -26.5t-3 -28.5zM1139 1044l-197 -417h852l-197 417h-458z" />
    <glyph glyph-name="Aring.ss01" horiz-adv-x="2736" 
d="M1368 1597q-235 0 -342.5 69.5t-107.5 201.5t107 201t343 69t343.5 -69t107.5 -201t-107.5 -201.5t-343.5 -69.5zM1368 1974q-205 0 -205 -106q0 -107 205 -107t205 107q0 106 -205 106zM2634 0h-545l-121 258h-1200l-121 -258h-545l707 1475h1118zM1139 1044l-197 -417
h852l-197 417h-458z" />
    <glyph glyph-name="Atilde.ss01" horiz-adv-x="2736" 
d="M1143 1782q-69 0 -96 -44t-27 -141h-287q0 72 9 134t32 121.5t59 102t94.5 68t133.5 25.5q85 0 168 -29t136.5 -63t116 -63t111.5 -29q69 0 96 44t27 140h287q0 -72 -9 -134t-32 -121.5t-59 -102t-94.5 -68t-133.5 -25.5q-85 0 -168 29t-136.5 63.5t-116 63.5t-111.5 29z
M2634 0h-545l-121 258h-1200l-121 -258h-545l707 1475h1118zM1139 1044l-197 -417h852l-197 417h-458z" />
    <glyph glyph-name="K.ss01" horiz-adv-x="2195" 
d="M1026 952l438 523h609l-607 -738l607 -737h-609l-438 522h-391v-522h-512v1475h512v-523h391z" />
    <glyph glyph-name="uni0136.ss01" horiz-adv-x="2195" 
d="M1026 952l438 523h609l-607 -738l607 -737h-609l-438 522h-391v-522h-512v1475h512v-523h391zM852 -614l139 225h-139v246h410v-246l-211 -225h-199z" />
    <glyph glyph-name="R.ss01" horiz-adv-x="1982" 
d="M1880 936q0 -171 -79 -300t-226 -190l305 -446h-586l-243 397h-416v-397h-512v1475h1188q276 0 422.5 -138.5t146.5 -400.5zM1147 1065h-512v-258h512q45 0 66.5 1t53 7.5t45.5 19.5t25 38t11 63t-11 63t-25 38t-45.5 19.5t-53 7.5t-66.5 1z" />
    <glyph glyph-name="Racute.ss01" horiz-adv-x="1982" 
d="M1358 1796l-797 -164v211l797 164v-211zM1880 936q0 -171 -79 -300t-226 -190l305 -446h-586l-243 397h-416v-397h-512v1475h1188q276 0 422.5 -138.5t146.5 -400.5zM1147 1065h-512v-258h512q45 0 66.5 1t53 7.5t45.5 19.5t25 38t11 63t-11 63t-25 38t-45.5 19.5
t-53 7.5t-66.5 1z" />
    <glyph glyph-name="Rcaron.ss01" horiz-adv-x="1982" 
d="M537 1985l424 -164l423 164v-220l-423 -163l-424 163v220zM1880 936q0 -171 -79 -300t-226 -190l305 -446h-586l-243 397h-416v-397h-512v1475h1188q276 0 422.5 -138.5t146.5 -400.5zM1147 1065h-512v-258h512q45 0 66.5 1t53 7.5t45.5 19.5t25 38t11 63t-11 63t-25 38
t-45.5 19.5t-53 7.5t-66.5 1z" />
    <glyph glyph-name="uni0156.ss01" horiz-adv-x="1982" 
d="M1880 936q0 -171 -79 -300t-226 -190l305 -446h-586l-243 397h-416v-397h-512v1475h1188q276 0 422.5 -138.5t146.5 -400.5zM1147 1065h-512v-258h512q45 0 66.5 1t53 7.5t45.5 19.5t25 38t11 63t-11 63t-25 38t-45.5 19.5t-53 7.5t-66.5 1zM954 -614h-198l139 225h-139
v246h409v-246z" />
    <glyph glyph-name="V.ss01" horiz-adv-x="2736" 
d="M2089 1475h545l-707 -1475h-1118l-707 1475h545l492 -1045h458z" />
    <glyph glyph-name="W.ss01" horiz-adv-x="3637" 
d="M2695 430l324 1045h516l-475 -1475h-967l-274 1018l-275 -1018h-966l-476 1475h516l324 -1045h219l289 1045h737l289 -1045h219z" />
    <glyph glyph-name="Wacute.ss01" horiz-adv-x="3637" 
d="M1419 1843l797 164v-211l-797 -164v211zM2695 430l324 1045h516l-475 -1475h-967l-274 1018l-275 -1018h-966l-476 1475h516l324 -1045h219l289 1045h737l289 -1045h219z" />
    <glyph glyph-name="Wcircumflex.ss01" horiz-adv-x="3637" 
d="M2243 1843v-219l-424 164l-424 -164v219l424 164zM2695 430l324 1045h516l-475 -1475h-967l-274 1018l-275 -1018h-966l-476 1475h516l324 -1045h219l289 1045h737l289 -1045h219z" />
    <glyph glyph-name="Wdieresis.ss01" horiz-adv-x="3637" 
d="M1368 1884h369v-205h-369v205zM1901 1884h368v-205h-368v205zM2695 430l324 1045h516l-475 -1475h-967l-274 1018l-275 -1018h-966l-476 1475h516l324 -1045h219l289 1045h737l289 -1045h219z" />
    <glyph glyph-name="Wgrave.ss01" horiz-adv-x="3637" 
d="M1419 2007l797 -164v-211l-797 164v211zM2695 430l324 1045h516l-475 -1475h-967l-274 1018l-275 -1018h-966l-476 1475h516l324 -1045h219l289 1045h737l289 -1045h219z" />
    <glyph glyph-name="i.loclTRK" horiz-adv-x="716" 
d="M123 1352v286h471v-286h-471zM123 0v1229h471v-1229h-471z" />
    <glyph glyph-name="a.ss01" 
d="M1323 1010v207h471v-1229h-471v231q-89 -135 -238.5 -197.5t-330.5 -62.5q-100 0 -192 20t-181 68.5t-154 121t-105 187t-40 258.5t40 258.5t105 187.5t154 121.5t181 68.5t192 20q181 0 330.5 -62.5t238.5 -197.5zM948 348q375 0 375 266q0 267 -375 267t-375 -267
q0 -266 375 -266z" />
    <glyph glyph-name="aacute.ss01" 
d="M549 1597l797 164v-211l-797 -164v211zM1323 1010v207h471v-1229h-471v231q-89 -135 -238.5 -197.5t-330.5 -62.5q-100 0 -192 20t-181 68.5t-154 121t-105 187t-40 258.5t40 258.5t105 187.5t154 121.5t181 68.5t192 20q181 0 330.5 -62.5t238.5 -197.5zM948 348
q375 0 375 266q0 267 -375 267t-375 -267q0 -266 375 -266z" />
    <glyph glyph-name="abreve.ss01" 
d="M948 1372q-99 0 -180.5 21t-146.5 65.5t-101.5 121.5t-36.5 181h246q0 -93 53 -138.5t166 -45.5t166 45.5t53 138.5h246q0 -104 -36.5 -181t-101.5 -121.5t-146.5 -65.5t-180.5 -21zM1323 1010v207h471v-1229h-471v231q-89 -135 -238.5 -197.5t-330.5 -62.5
q-100 0 -192 20t-181 68.5t-154 121t-105 187t-40 258.5t40 258.5t105 187.5t154 121.5t181 68.5t192 20q181 0 330.5 -62.5t238.5 -197.5zM948 348q375 0 375 266q0 267 -375 267t-375 -267q0 -266 375 -266z" />
    <glyph glyph-name="acircumflex.ss01" 
d="M1372 1597v-219l-424 164l-424 -164v219l424 164zM1323 1010v207h471v-1229h-471v231q-89 -135 -238.5 -197.5t-330.5 -62.5q-100 0 -192 20t-181 68.5t-154 121t-105 187t-40 258.5t40 258.5t105 187.5t154 121.5t181 68.5t192 20q181 0 330.5 -62.5t238.5 -197.5z
M948 348q375 0 375 266q0 267 -375 267t-375 -267q0 -266 375 -266z" />
    <glyph glyph-name="adieresis.ss01" 
d="M498 1638h368v-204h-368v204zM1030 1638h369v-204h-369v204zM1323 1010v207h471v-1229h-471v231q-89 -135 -238.5 -197.5t-330.5 -62.5q-100 0 -192 20t-181 68.5t-154 121t-105 187t-40 258.5t40 258.5t105 187.5t154 121.5t181 68.5t192 20q181 0 330.5 -62.5
t238.5 -197.5zM948 348q375 0 375 266q0 267 -375 267t-375 -267q0 -266 375 -266z" />
    <glyph glyph-name="agrave.ss01" 
d="M549 1761l797 -164v-211l-797 164v211zM1323 1010v207h471v-1229h-471v231q-89 -135 -238.5 -197.5t-330.5 -62.5q-100 0 -192 20t-181 68.5t-154 121t-105 187t-40 258.5t40 258.5t105 187.5t154 121.5t181 68.5t192 20q181 0 330.5 -62.5t238.5 -197.5zM948 348
q375 0 375 266q0 267 -375 267t-375 -267q0 -266 375 -266z" />
    <glyph glyph-name="amacron.ss01" 
d="M467 1638h960v-204h-960v204zM1323 1010v207h471v-1229h-471v231q-89 -135 -238.5 -197.5t-330.5 -62.5q-100 0 -192 20t-181 68.5t-154 121t-105 187t-40 258.5t40 258.5t105 187.5t154 121.5t181 68.5t192 20q181 0 330.5 -62.5t238.5 -197.5zM948 348q375 0 375 266
q0 267 -375 267t-375 -267q0 -266 375 -266z" />
    <glyph glyph-name="aogonek.ss01" 
d="M1499 -147q0 -22 6 -39.5t21.5 -29.5t29.5 -21t42 -14.5t47 -8.5t56 -4t58.5 -1.5t63.5 -0.5v-205q-123 0 -211.5 5.5t-168 21t-128 42t-76 69.5t-27.5 102q0 64 39 116t115 103h-43v231q-89 -135 -238.5 -197.5t-330.5 -62.5q-100 0 -192 20t-181 68.5t-154 121
t-105 187t-40 258.5t40 258.5t105 187.5t154 121.5t181 68.5t192 20q181 0 330.5 -62.5t238.5 -197.5v207h471v-1229h-207q-27 -22 -42.5 -36.5t-30.5 -42t-15 -56.5zM948 348q375 0 375 266q0 267 -375 267t-375 -267q0 -266 375 -266z" />
    <glyph glyph-name="aring.ss01" 
d="M948 1352q-236 0 -343 69t-107 201t107 201t343 69t343.5 -69t107.5 -201t-107.5 -201t-343.5 -69zM948 1729q-205 0 -205 -107q0 -106 205 -106t205 106q0 107 -205 107zM1323 1010v207h471v-1229h-471v231q-89 -135 -238.5 -197.5t-330.5 -62.5q-100 0 -192 20
t-181 68.5t-154 121t-105 187t-40 258.5t40 258.5t105 187.5t154 121.5t181 68.5t192 20q181 0 330.5 -62.5t238.5 -197.5zM948 348q375 0 375 266q0 267 -375 267t-375 -267q0 -266 375 -266z" />
    <glyph glyph-name="atilde.ss01" 
d="M723 1536q-69 0 -96 -44t-27 -140h-287q0 72 9 134t32 121.5t59 101.5t94.5 67.5t133.5 25.5q85 0 168 -29t137 -63t116.5 -63t111.5 -29q69 0 95.5 43.5t26.5 140.5h287q0 -72 -9 -134t-32 -121.5t-59 -101.5t-94.5 -67.5t-133.5 -25.5q-85 0 -168 29t-136.5 63t-116 63
t-111.5 29zM1323 1010v207h471v-1229h-471v231q-89 -135 -238.5 -197.5t-330.5 -62.5q-100 0 -192 20t-181 68.5t-154 121t-105 187t-40 258.5t40 258.5t105 187.5t154 121.5t181 68.5t192 20q181 0 330.5 -62.5t238.5 -197.5zM948 348q375 0 375 266q0 267 -375 267
t-375 -267q0 -266 375 -266z" />
    <glyph glyph-name="g.ss01" horiz-adv-x="2017" 
d="M1425 1229h531v-205q-61 0 -195 29q74 -91 74 -228q0 -83 -27 -149.5t-89.5 -123t-161.5 -94t-247 -58.5t-341 -21q-355 0 -439 -8.5t-84 -51.5t90 -51t492 -8q159 0 278.5 -8t219 -26t167 -48t113.5 -74.5t67 -104t21 -138.5q0 -71 -19.5 -127.5t-54.5 -97.5t-93 -70.5
t-125.5 -48.5t-161 -30t-190 -15t-222.5 -4q-114 0 -199.5 1.5t-178 6t-159.5 13.5t-133 22.5t-109.5 34t-78.5 48t-51.5 64t-16.5 82.5q0 103 92.5 161.5t237.5 75.5q-76 12 -133.5 31t-103 48.5t-69.5 72.5t-24 98q0 182 285 230q-285 105 -285 368q0 82 27 148.5
t89.5 123t161 94t247 58.5t342.5 21q272 0 456 -41zM969 645q179 0 256.5 42t77.5 138q0 94 -77.5 136.5t-256.5 42.5q-180 0 -257 -42t-77 -137q0 -96 77 -138t257 -42zM1505 -137q0 20 -7 33t-28 24t-52.5 17t-88 9.5t-126.5 5t-175 1.5h-4h-2q-104 0 -172.5 -1.5t-124 -5
t-86.5 -9.5t-51.5 -17t-27.5 -24t-7 -33q0 -30 16.5 -46t72.5 -26t141 -13t245 -3q106 0 175 1t126.5 5t88 9.5t52 16t28.5 23.5t7 33z" />
    <glyph glyph-name="gbreve.ss01" horiz-adv-x="2017" 
d="M956 1372q-99 0 -180 21t-146.5 65.5t-101.5 121.5t-36 181h245q0 -93 53 -138.5t166 -45.5t166.5 45.5t53.5 138.5h245q0 -104 -36.5 -181t-101.5 -121.5t-146.5 -65.5t-180.5 -21zM1425 1229h531v-205q-61 0 -195 29q74 -91 74 -228q0 -83 -27 -149.5t-89.5 -123
t-161.5 -94t-247 -58.5t-341 -21q-355 0 -439 -8.5t-84 -51.5t90 -51t492 -8q159 0 278.5 -8t219 -26t167 -48t113.5 -74.5t67 -104t21 -138.5q0 -71 -19.5 -127.5t-54.5 -97.5t-93 -70.5t-125.5 -48.5t-161 -30t-190 -15t-222.5 -4q-114 0 -199.5 1.5t-178 6t-159.5 13.5
t-133 22.5t-109.5 34t-78.5 48t-51.5 64t-16.5 82.5q0 103 92.5 161.5t237.5 75.5q-76 12 -133.5 31t-103 48.5t-69.5 72.5t-24 98q0 182 285 230q-285 105 -285 368q0 82 27 148.5t89.5 123t161 94t247 58.5t342.5 21q272 0 456 -41zM969 645q179 0 256.5 42t77.5 138
q0 94 -77.5 136.5t-256.5 42.5q-180 0 -257 -42t-77 -137q0 -96 77 -138t257 -42zM1505 -137q0 20 -7 33t-28 24t-52.5 17t-88 9.5t-126.5 5t-175 1.5h-4h-2q-104 0 -172.5 -1.5t-124 -5t-86.5 -9.5t-51.5 -17t-27.5 -24t-7 -33q0 -30 16.5 -46t72.5 -26t141 -13t245 -3
q106 0 175 1t126.5 5t88 9.5t52 16t28.5 23.5t7 33z" />
    <glyph glyph-name="uni0123.ss01" horiz-adv-x="2017" 
d="M1022 1679h139v-245h-409v245l211 226h198zM1425 1229h531v-205q-61 0 -195 29q74 -91 74 -228q0 -83 -27 -149.5t-89.5 -123t-161.5 -94t-247 -58.5t-341 -21q-355 0 -439 -8.5t-84 -51.5t90 -51t492 -8q159 0 278.5 -8t219 -26t167 -48t113.5 -74.5t67 -104t21 -138.5
q0 -71 -19.5 -127.5t-54.5 -97.5t-93 -70.5t-125.5 -48.5t-161 -30t-190 -15t-222.5 -4q-114 0 -199.5 1.5t-178 6t-159.5 13.5t-133 22.5t-109.5 34t-78.5 48t-51.5 64t-16.5 82.5q0 103 92.5 161.5t237.5 75.5q-76 12 -133.5 31t-103 48.5t-69.5 72.5t-24 98
q0 182 285 230q-285 105 -285 368q0 82 27 148.5t89.5 123t161 94t247 58.5t342.5 21q272 0 456 -41zM969 645q179 0 256.5 42t77.5 138q0 94 -77.5 136.5t-256.5 42.5q-180 0 -257 -42t-77 -137q0 -96 77 -138t257 -42zM1505 -137q0 20 -7 33t-28 24t-52.5 17t-88 9.5
t-126.5 5t-175 1.5h-4h-2q-104 0 -172.5 -1.5t-124 -5t-86.5 -9.5t-51.5 -17t-27.5 -24t-7 -33q0 -30 16.5 -46t72.5 -26t141 -13t245 -3q106 0 175 1t126.5 5t88 9.5t52 16t28.5 23.5t7 33z" />
    <glyph glyph-name="gdotaccent.ss01" horiz-adv-x="2017" 
d="M752 1638h409v-204h-409v204zM1425 1229h531v-205q-61 0 -195 29q74 -91 74 -228q0 -83 -27 -149.5t-89.5 -123t-161.5 -94t-247 -58.5t-341 -21q-355 0 -439 -8.5t-84 -51.5t90 -51t492 -8q159 0 278.5 -8t219 -26t167 -48t113.5 -74.5t67 -104t21 -138.5
q0 -71 -19.5 -127.5t-54.5 -97.5t-93 -70.5t-125.5 -48.5t-161 -30t-190 -15t-222.5 -4q-114 0 -199.5 1.5t-178 6t-159.5 13.5t-133 22.5t-109.5 34t-78.5 48t-51.5 64t-16.5 82.5q0 103 92.5 161.5t237.5 75.5q-76 12 -133.5 31t-103 48.5t-69.5 72.5t-24 98
q0 182 285 230q-285 105 -285 368q0 82 27 148.5t89.5 123t161 94t247 58.5t342.5 21q272 0 456 -41zM969 645q179 0 256.5 42t77.5 138q0 94 -77.5 136.5t-256.5 42.5q-180 0 -257 -42t-77 -137q0 -96 77 -138t257 -42zM1505 -137q0 20 -7 33t-28 24t-52.5 17t-88 9.5
t-126.5 5t-175 1.5h-4h-2q-104 0 -172.5 -1.5t-124 -5t-86.5 -9.5t-51.5 -17t-27.5 -24t-7 -33q0 -30 16.5 -46t72.5 -26t141 -13t245 -3q106 0 175 1t126.5 5t88 9.5t52 16t28.5 23.5t7 33z" />
    </font>
</defs>
</svg>
