<?xml version="1.0" standalone="no"?>
<!DOCTYPE svg PUBLIC "-//W3C//DTD SVG 1.1//EN" "http://www.w3.org/Graphics/SVG/1.1/DTD/svg11.dtd" >
<svg xmlns="http://www.w3.org/2000/svg" xmlns:xlink="http://www.w3.org/1999/xlink" version="1.1">
<metadata>
Created by FontForge 20170731 at Tue Nov 29 21:47:34 2022
 By Aleksey,,,
Pangram Pangram
</metadata>
<defs>
<font id="PPMonumentExtended-Light" horiz-adv-x="0" >
  <font-face 
    font-family="PP Monument Extended Light"
    font-weight="300"
    font-stretch="normal"
    units-per-em="2048"
    panose-1="0 0 4 0 0 0 0 0 0 0"
    ascent="1638"
    descent="-410"
    x-height="1188"
    cap-height="1434"
    bbox="-2136 -614 3678 2124"
    underline-thickness="96"
    underline-position="-219"
    unicode-range="U+0020-25CA"
  />
<missing-glyph horiz-adv-x="1126" 
d="M209 1638h715v-2252h-715v2252zM750 1413v74h-371v-74h145v-84h-147v-74h373v74h-148v84h148zM602 1038v158h-225v-233h373v75h-148zM451 1120h73v-82h-73v82zM750 827v74h-373v-74h147v-84h-147v-73h225v157h148zM750 541v225h-74v-148h-299v-77h373zM750 238v254h-226
v-125h78v51h74v-107h-225v181h-74v-254h373zM750 -152v254h-373v-254h373zM451 29h225v-107h-225v107zM750 -279v74h-373v-74h158l-158 -106v-74h373v74h-230l158 106h72z" />
    <glyph glyph-name="f_f" unicode="ff" horiz-adv-x="2330" 
d="M2181 1530h-299q-90 0 -143 -11.5t-85.5 -46t-43.5 -87t-11 -142.5v-55h582v-109h-582v-1079h-118v1079h-822v-1079h-118v1079h-377v109h377v65q0 103 18 173t62 119t118.5 71t186.5 22h446v-108h-430q-90 0 -143 -11.5t-85.5 -46t-43.5 -87t-11 -142.5v-55h822v65
q0 103 18 173t62 119t118.5 71t186.5 22h315v-108z" />
    <glyph glyph-name="f_f_i" unicode="ffi" horiz-adv-x="2750" 
d="M2552 1530h-658q-90 0 -142 -12t-85 -45.5t-44 -86.5t-11 -143v-55h940v-1188h-119v1079h-821v-1079h-119v1079h-834v-1079h-118v1079h-377v109h377v65q0 103 18 173t62 119t118.5 71t186.5 22h481v-108h-465q-90 0 -143 -11.5t-85.5 -46t-43.5 -87t-11 -142.5v-55h834
v65q0 103 18.5 173t63 119t119 71t186.5 22h672v-108z" />
    <glyph glyph-name="f_i" unicode="fi" horiz-adv-x="1796" 
d="M1599 1530h-657q-90 0 -143 -11.5t-85.5 -46t-43.5 -87t-11 -142.5v-55h940v-1188h-118v1079h-822v-1079h-118v1079h-377v109h377v65q0 103 18 173t62 119t118.5 71t186.5 22h673v-108z" />
    <glyph glyph-name="f_l" unicode="fl" horiz-adv-x="1816" 
d="M926 1638h694v-1638h-119v1530h-559q-90 0 -143 -11.5t-85.5 -46t-43.5 -87t-11 -142.5v-55h582v-109h-582v-1079h-118v1079h-377v109h377v65q0 103 18 173t62 119t118.5 71t186.5 22z" />
    <glyph glyph-name=".notdef" horiz-adv-x="1126" 
d="M209 1638h715v-2252h-715v2252zM750 1413v74h-371v-74h145v-84h-147v-74h373v74h-148v84h148zM602 1038v158h-225v-233h373v75h-148zM451 1120h73v-82h-73v82zM750 827v74h-373v-74h147v-84h-147v-73h225v157h148zM750 541v225h-74v-148h-299v-77h373zM750 238v254h-226
v-125h78v51h74v-107h-225v181h-74v-254h373zM750 -152v254h-373v-254h373zM451 29h225v-107h-225v107zM750 -279v74h-373v-74h158l-158 -106v-74h373v74h-230l158 106h72z" />
    <glyph glyph-name=".null" 
 />
    <glyph glyph-name="nonmarkingreturn" horiz-adv-x="682" 
 />
    <glyph glyph-name="space" unicode=" " horiz-adv-x="819" 
 />
    <glyph glyph-name="exclam" unicode="!" horiz-adv-x="544" 
d="M213 1434h119v-1024h-119v1024zM199 0v133h147v-133h-147z" />
    <glyph glyph-name="quotedbl" unicode="&#x22;" horiz-adv-x="874" 
d="M199 1556h123l-15 -655h-96zM553 1556h123l-14 -655h-95z" />
    <glyph glyph-name="numbersign" unicode="#" horiz-adv-x="2719" 
d="M2509 1038v-110h-539l-186 -627h575v-111h-608l-149 -497h-121l149 497h-776l-149 -497h-123l149 497h-520v111h553l186 627h-588v110h621l131 437h123l-131 -437h776l131 437h121l-131 -437h506zM887 301h776l186 627h-776z" />
    <glyph glyph-name="dollar" unicode="$" horiz-adv-x="2107" 
d="M1894 387q0 -99 -38 -173.5t-104.5 -122t-168 -77.5t-217.5 -42t-264 -13v-164h-98v164q-164 4 -289.5 22.5t-226.5 56.5t-166.5 97.5t-100.5 145t-37 198.5h125q0 -212 161.5 -306t533.5 -103v604q-178 11 -301.5 30t-214.5 50t-142.5 77.5t-75.5 109t-24 149.5
q0 208 184.5 295t573.5 90v163h98v-163q731 -21 731 -496h-125q0 197 -148 285.5t-458 99.5v-586q130 -9 210 -16t174.5 -20.5t148.5 -31t110.5 -45.5t84.5 -66t46 -90.5t18 -121.5zM371 1085q0 -57 13.5 -98t47.5 -72.5t79.5 -52t122 -36t160.5 -24.5t210 -18v582h-15
q-333 0 -475.5 -64.5t-142.5 -216.5zM1102 668v-600q339 0 503 72.5t164 242.5q0 42 -7 74.5t-25.5 59t-42.5 45.5t-67 34.5t-88.5 26t-117 19t-143.5 14.5t-176 12z" />
    <glyph glyph-name="percent" unicode="%" horiz-adv-x="2748" 
d="M686 592q-106 0 -190.5 26.5t-139 70t-91 102t-51.5 119t-15 124.5t15 124t51.5 118.5t91 102t139.5 70t190 26.5q107 0 192.5 -26.5t140 -70t91 -102t51.5 -118.5t15 -124q0 -65 -15 -125t-51.5 -118.5t-91 -102t-140 -70t-192.5 -26.5zM1905 1434h151l-1212 -1434h-152
zM686 700q159 0 263 87.5t104 246.5t-104 245.5t-263 86.5q-157 0 -260.5 -86.5t-103.5 -245.5t103.5 -246.5t260.5 -87.5zM2060 -41q-106 0 -191.5 26.5t-140 70t-91 102t-51.5 119t-15 124.5t15 124t51.5 118.5t91 102t140 70t191.5 26.5t191.5 -26.5t140 -70t91 -102
t52 -118.5t15.5 -124t-15.5 -124.5t-52 -119t-91 -102t-140 -70t-191.5 -26.5zM2060 68q159 0 263 87t104 246t-104 245.5t-263 86.5q-102 0 -183.5 -36t-132 -112.5t-50.5 -183.5q0 -159 104.5 -246t261.5 -87z" />
    <glyph glyph-name="ampersand" unicode="&#x26;" horiz-adv-x="2029" 
d="M1524 231l307 -231h-203l-194 147q-245 -188 -629 -188q-134 0 -239 20.5t-173 55.5t-112.5 84.5t-63 104.5t-18.5 118q0 67 21.5 124t54.5 98t89 81.5t107.5 68t128.5 62.5q-105 87 -162 176t-57 191q0 147 112.5 239.5t323.5 92.5q196 0 306 -89t110 -225
q0 -67 -24 -119.5t-80.5 -99.5t-129.5 -87t-190 -91q178 -129 207 -150l414 -311q137 158 149 389h125q-12 -272 -180 -461zM508 1139q0 -80 55.5 -154.5t157.5 -155.5l29 13q204 89 280 152.5t76 154.5q0 106 -81 161.5t-210 55.5q-143 0 -225 -54.5t-82 -172.5zM811 68
q328 0 528 151l-399 303q-50 38 -142.5 104.5t-113.5 82.5q-85 -37 -142.5 -69t-111 -75.5t-80 -96t-26.5 -116.5q0 -76 37 -132t104.5 -88.5t153 -48t192.5 -15.5z" />
    <glyph glyph-name="quotesingle" unicode="'" horiz-adv-x="518" 
d="M199 1556h123l-15 -655h-96z" />
    <glyph glyph-name="parenleft" unicode="(" horiz-adv-x="1202" 
d="M199 616q0 506 205 764t602 258v-108q-682 0 -682 -914q0 -246 49 -425.5t141.5 -286t214 -156t277.5 -49.5v-109q-397 0 -602 259.5t-205 766.5z" />
    <glyph glyph-name="parenright" unicode=")" horiz-adv-x="1202" 
d="M1006 616q0 -507 -205 -766.5t-602 -259.5v109q123 0 225 30.5t187.5 99t144 174t91 260.5t32.5 353q0 914 -680 914v108q397 0 602 -258t205 -764z" />
    <glyph glyph-name="asterisk" unicode="*" horiz-adv-x="1226" 
d="M254 944l-55 96l321 177l-321 174l55 98l313 -193l-10 342h113l-8 -342l309 193l57 -98l-321 -177l321 -174l-55 -96l-311 191l8 -342h-113l10 342z" />
    <glyph glyph-name="plus" unicode="+" horiz-adv-x="1925" 
d="M1018 752h708v-111h-708v-641h-111v641h-708v111h708v641h111v-641z" />
    <glyph glyph-name="comma" unicode="," horiz-adv-x="518" 
d="M184 0v133h150v-133l-86 -313h-64l60 313h-60z" />
    <glyph glyph-name="hyphen" unicode="-" horiz-adv-x="2007" 
d="M240 641v111h1527v-111h-1527z" />
    <glyph glyph-name="period" unicode="." horiz-adv-x="518" 
d="M184 0v133h150v-133h-150z" />
    <glyph glyph-name="slash" unicode="/" horiz-adv-x="1050" 
d="M731 1475h121l-533 -1782h-120z" />
    <glyph glyph-name="zero" unicode="0" horiz-adv-x="1914" 
d="M956 -41q-362 0 -570 206.5t-208 553.5q0 346 208 551t570 205q361 0 571 -206t210 -550q0 -345 -210 -552.5t-571 -207.5zM956 68q296 0 476 175.5t180 475.5q0 298 -180 472.5t-476 174.5q-295 0 -474 -174t-179 -473q0 -301 179 -476t474 -175z" />
    <glyph glyph-name="one" unicode="1" horiz-adv-x="1632" 
d="M750 1434h124v-1325h560v-109h-1235v109h557l2 1202l-516 -217l-43 108z" />
    <glyph glyph-name="two" unicode="2" horiz-adv-x="1832" 
d="M1649 1051q0 -100 -43.5 -179.5t-117 -132.5t-169.5 -95.5t-203 -74t-215 -61.5t-208.5 -65.5t-180 -79t-132 -108t-63.5 -146.5h1332v-109h-1471v61q4 235 235 376q132 80 408 161q269 80 292 87q242 79 334 176q77 82 77 192q0 313 -535 313q-304 0 -464 -105
t-160 -315h-125q0 261 194 395t555 134q321 0 490.5 -104.5t169.5 -319.5z" />
    <glyph glyph-name="three" unicode="3" horiz-adv-x="1832" 
d="M1346 731q150 -37 230.5 -119t80.5 -223q0 -430 -719 -430q-362 0 -561 127t-199 381h125q0 -88 31 -155.5t86.5 -113.5t138 -75t180.5 -42t219 -13q283 0 427.5 76.5t144.5 244.5q0 64 -19 110.5t-63.5 79t-102 53t-149.5 31.5t-190.5 15t-239.5 4v96q134 0 231 4.5
t185 16.5t145.5 33t100.5 53.5t62 79t19 108.5q0 147 -134 220t-423 73q-335 0 -492 -96t-157 -303h-125q0 255 194 381.5t560 126.5q353 0 528.5 -101.5t175.5 -298.5q0 -140 -75 -221.5t-215 -122.5z" />
    <glyph glyph-name="four" unicode="4" horiz-adv-x="1994" 
d="M1444 444h352v-110h-352v-334h-119v334h-1126v110l1126 990h119v-990zM1325 1284l-958 -840h958v840z" />
    <glyph glyph-name="five" unicode="5" horiz-adv-x="1861" 
d="M1059 1014q176 0 315.5 -55.5t224 -168t84.5 -266.5q0 -262 -198.5 -413.5t-544.5 -151.5q-338 0 -535 119t-227 352h125q31 -176 193.5 -269t453.5 -93q149 0 266 34t191.5 94.5t113 141t38.5 176.5q0 187 -142 289t-391 102q-158 0 -313.5 -46t-352.5 -148l-112 39
l168 684h1202v-109h-1106l-123 -496q320 185 670 185z" />
    <glyph glyph-name="six" unicode="6" horiz-adv-x="1914" 
d="M1012 1014q127 0 232 -17.5t193.5 -56.5t149.5 -98.5t95 -148t34 -201.5q0 -260 -195.5 -396.5t-549.5 -136.5q-401 0 -585 167.5t-187 514.5v8v6q1 158 27 284t75 215t114.5 152t151.5 99.5t179.5 53t205.5 16.5q291 0 658 -78v-109q-16 3 -97 18t-106 19.5t-93.5 15
t-109 14t-100 7.5t-115.5 4q-174 0 -296 -35t-204.5 -114.5t-122 -206t-42.5 -310.5q71 131 247.5 222.5t440.5 91.5zM956 68q321 0 478 108.5t157 310.5q0 209 -145.5 313.5t-458.5 104.5q-295 0 -468 -114.5t-173 -303.5q0 -86 37 -160t109 -132.5t191.5 -92.5t272.5 -34z
" />
    <glyph glyph-name="seven" unicode="7" horiz-adv-x="1644" 
d="M117 1325v109h1411v-109q-433 -216 -637.5 -536t-204.5 -789h-127q0 109 10.5 210t36 209.5t65.5 206.5t102.5 197t144 185.5t192 168t244.5 148.5h-1237z" />
    <glyph glyph-name="eight" unicode="8" horiz-adv-x="1914" 
d="M1360 793q377 -91 377 -387q0 -447 -781 -447q-778 0 -778 447q0 295 375 387q-246 87 -246 303q0 88 33.5 155.5t107.5 118.5t201.5 78t306.5 27q178 0 306 -27t202.5 -78t109 -118.5t34.5 -155.5q0 -217 -248 -303zM432 1098q0 -128 124.5 -193t399.5 -65q277 0 401 65
t124 193q0 131 -123.5 199.5t-401.5 68.5t-401 -68.5t-123 -199.5zM956 68q656 0 656 344q0 103 -64.5 172.5t-212 108t-379.5 38.5q-231 0 -378 -38.5t-211 -108t-64 -172.5q0 -344 653 -344z" />
    <glyph glyph-name="nine" unicode="9" horiz-adv-x="1914" 
d="M1716 784v-6q-1 -158 -27 -284t-75 -214.5t-114.5 -151.5t-152 -99.5t-180.5 -53t-206 -16.5q-289 0 -656 78v108q17 -3 84 -15.5t90 -16.5t80.5 -13.5t91 -13t84.5 -9t97 -7.5t94 -2q175 0 296.5 35t204 114t122 205.5t42.5 310.5q-34 -61 -92 -115t-141 -99.5
t-200.5 -72t-254.5 -26.5q-127 0 -232 17.5t-193.5 56.5t-149.5 98.5t-95 148t-34 201.5q0 260 195.5 396.5t549.5 136.5q401 0 585 -167.5t187 -514.5v-9zM928 528q294 0 467.5 114.5t173.5 303.5q0 86 -37 160t-109.5 133t-192.5 93t-274 34q-319 0 -475.5 -109
t-156.5 -311q0 -210 145 -314t459 -104z" />
    <glyph glyph-name="colon" unicode=":" horiz-adv-x="518" 
d="M184 614v134h150v-134h-150zM184 0v133h150v-133h-150z" />
    <glyph glyph-name="semicolon" unicode=";" horiz-adv-x="518" 
d="M184 614v134h150v-134h-150zM244 0h-60v133h150v-133l-86 -313h-64z" />
    <glyph glyph-name="less" unicode="&#x3c;" horiz-adv-x="1898" 
d="M199 774l1501 400v-119l-1340 -359l1340 -356v-121l-1501 399v156z" />
    <glyph glyph-name="equal" unicode="=" horiz-adv-x="1925" 
d="M199 969v110h1527v-110h-1527zM199 313v111h1527v-111h-1527z" />
    <glyph glyph-name="greater" unicode="&#x3e;" horiz-adv-x="1898" 
d="M199 1055v119l1501 -400v-156l-1501 -399v121l1339 356z" />
    <glyph glyph-name="question" unicode="?" horiz-adv-x="1792" 
d="M852 395h-127q0 85 25.5 150.5t68.5 107.5t98.5 73.5t117.5 52.5t123.5 40t117 41t98.5 51t68.5 74.5t25.5 106.5q0 76 -37 130t-108.5 85t-166.5 45t-222 14q-157 0 -268.5 -21.5t-194 -71t-122.5 -135.5t-40 -210h-125q0 122 34 215t95 155.5t153 102.5t201 57t246 17
q339 0 510.5 -90.5t171.5 -294.5q0 -75 -25.5 -133t-68.5 -94.5t-98.5 -65t-117 -49t-123.5 -40.5t-117.5 -46t-98.5 -59.5t-68.5 -86t-25.5 -121.5zM696 0v133h150v-133h-150z" />
    <glyph glyph-name="at" unicode="@" horiz-adv-x="2646" 
d="M1389 -403q351 0 577 81.5t379 233.5l63 -82q-75 -77 -162 -134.5t-208 -106.5t-285 -75t-364 -26q-598 0 -894 265t-296 796q0 529 293 802t870 273q209 0 375 -32.5t301 -106t224 -188t137 -281t48 -383.5q0 -117 -10 -209t-36 -176t-69 -139t-111 -87t-159 -32
q-84 0 -145 20.5t-96.5 58t-54 81.5t-25.5 100q-130 -219 -471 -219q-139 0 -246 39.5t-173 111t-99 166t-33 209.5q0 237 138.5 380.5t412.5 143.5q335 0 465 -209v177h118v-684q0 -64 7.5 -107t28.5 -81.5t64 -57.5t109 -19q62 0 108 25t75 69t46.5 114.5t24 152.5
t6.5 192q0 240 -63 408t-189.5 267.5t-299 143.5t-408.5 44q-1038 0 -1038 -967q0 -495 262.5 -723.5t802.5 -228.5zM1290 139q121 0 209.5 32t139 91t73.5 131.5t23 163.5t-23 163.5t-73.5 130.5t-139 90t-209.5 32q-122 0 -210.5 -32t-139 -90t-73.5 -130.5t-23 -163.5
q0 -72 14 -132.5t46.5 -114t83 -91t127.5 -59t175 -21.5z" />
    <glyph glyph-name="A" unicode="A" horiz-adv-x="2205" 
d="M2030 0h-138l-217 367h-1145l-217 -367h-135l852 1434h146zM1104 1333l-508 -856h1014z" />
    <glyph glyph-name="B" unicode="B" horiz-adv-x="2029" 
d="M1413 0h-1214v1434h1147q115 0 201 -28.5t137 -79t75.5 -115t24.5 -142.5q0 -106 -49 -194t-150 -138q268 -83 268 -346q0 -182 -114.5 -286.5t-325.5 -104.5zM317 1325v-545h1000q72 0 130 13.5t107.5 43.5t77 85.5t27.5 132.5q0 270 -342 270h-1000zM317 670v-561h1069
q170 0 255 67.5t85 216.5q0 78 -27 133.5t-76 86t-107 44t-130 13.5h-1069z" />
    <glyph glyph-name="C" unicode="C" horiz-adv-x="2039" 
d="M178 719q0 171 59 311t170 238.5t276 152.5t370 54q175 0 322 -44t247 -120t161.5 -174.5t78.5 -212.5h-125q-13 68 -46 130.5t-90.5 119.5t-133.5 99.5t-183 67.5t-231 25q-357 0 -553.5 -173t-196.5 -474q0 -302 197 -476.5t553 -174.5q154 0 279.5 38t207 102.5
t131 142t66.5 163.5h127q-18 -114 -80 -214t-162 -176.5t-247 -120.5t-322 -44q-411 0 -643 206t-232 554z" />
    <glyph glyph-name="D" unicode="D" horiz-adv-x="2002" 
d="M199 1434h901q148 0 277 -44.5t230 -130.5t159.5 -225.5t58.5 -316.5t-58.5 -316.5t-159.5 -225.5t-230 -130.5t-277 -44.5h-901v1434zM317 1325v-1216h727q315 0 485.5 153t170.5 455t-170.5 455t-485.5 153h-727z" />
    <glyph glyph-name="E" unicode="E" horiz-adv-x="1781" 
d="M199 1434h1405v-109h-1287v-553h1246v-110h-1246v-553h1287v-109h-1405v1434z" />
    <glyph glyph-name="F" unicode="F" horiz-adv-x="1781" 
d="M199 1434h1405v-109h-1287v-639h1164v-108h-1164v-578h-118v1434z" />
    <glyph glyph-name="G" unicode="G" horiz-adv-x="2041" 
d="M178 717q0 227 109.5 399.5t308 265.5t457.5 93q184 0 334.5 -46.5t247.5 -125t154.5 -175t74.5 -204.5h-125q-10 60 -38.5 119t-84 118.5t-130.5 104t-187.5 72.5t-245.5 28q-162 0 -293 -40.5t-214 -106t-139.5 -152t-80 -174t-23.5 -176.5t23 -176.5t79.5 -174
t139.5 -152t213.5 -106t292.5 -40.5q213 0 363.5 39.5t324.5 130.5v344h-715v110h840v-506q-211 -121 -394 -174t-419 -53q-258 0 -456 93t-307.5 265.5t-109.5 399.5z" />
    <glyph glyph-name="H" unicode="H" horiz-adv-x="2027" 
d="M317 772h1393v662h119v-1434h-119v662h-1393v-662h-118v1434h118v-662z" />
    <glyph glyph-name="I" unicode="I" horiz-adv-x="514" 
d="M199 1434h118v-1434h-118v1434z" />
    <glyph glyph-name="J" unicode="J" horiz-adv-x="1980" 
d="M872 1434h910v-715q0 -176 -43.5 -309t-136.5 -231t-247 -148.5t-366 -50.5q-170 0 -302.5 33t-224 94.5t-150.5 153.5t-86 204.5t-27 253.5h118q0 -76 7.5 -140t27.5 -130t52 -118t84 -98.5t121 -77.5t165.5 -49t214.5 -18q164 0 286 35t195 91.5t117.5 141t60 170.5
t15.5 193v606h-791v109z" />
    <glyph glyph-name="K" unicode="K" horiz-adv-x="1968" 
d="M1595 1434h197l-834 -617l834 -817h-172l-758 745l-545 -403v-342h-118v1434h118v-945z" />
    <glyph glyph-name="L" unicode="L" horiz-adv-x="1673" 
d="M199 1434h118v-1325h1178v-109h-1296v1434z" />
    <glyph glyph-name="M" unicode="M" horiz-adv-x="2441" 
d="M317 0h-118v1434h168l854 -1303l854 1303h168v-1434h-119v1298l-848 -1298h-111l-848 1298v-1298z" />
    <glyph glyph-name="N" unicode="N" horiz-adv-x="2052" 
d="M367 1434l1368 -1319v1319h118v-1434h-167l-1369 1319v-1319h-118v1434h168z" />
    <glyph glyph-name="O" unicode="O" horiz-adv-x="2115" 
d="M1059 -41q-420 0 -650.5 205t-230.5 555q0 349 230.5 552.5t650.5 203.5q210 0 376.5 -54t276.5 -153t168.5 -238.5t58.5 -310.5q0 -349 -231 -554.5t-649 -205.5zM1059 68q356 0 554.5 173.5t198.5 477.5q0 303 -198 475t-555 172q-358 0 -557 -171.5t-199 -475.5
q0 -305 199.5 -478t556.5 -173z" />
    <glyph glyph-name="P" unicode="P" horiz-adv-x="1935" 
d="M199 0v1434h995q256 0 409.5 -133t153.5 -361q0 -229 -153 -362.5t-410 -133.5h-877v-444h-118zM1161 1325h-844v-770h844q98 0 179 20t148.5 63t105.5 120t38 182t-38 181.5t-105.5 120t-148.5 63.5t-179 20z" />
    <glyph glyph-name="Q" unicode="Q" horiz-adv-x="2111" 
d="M1735 188l233 -233l-84 -84l-242 242q-228 -154 -583 -154q-420 0 -650.5 205t-230.5 555q0 349 230.5 552.5t650.5 203.5q210 0 376.5 -54t276.5 -153t168.5 -238.5t58.5 -310.5q0 -333 -204 -531zM1059 68q307 0 497 131l-303 303l84 84l312 -312q163 171 163 445
q0 303 -198 475t-555 172q-358 0 -557 -171.5t-199 -475.5q0 -305 199.5 -478t556.5 -173z" />
    <glyph glyph-name="R" unicode="R" horiz-adv-x="1935" 
d="M1473 651q104 -15 163.5 -83t59.5 -177v-391h-119v371q0 101 -54.5 148.5t-164.5 47.5h-1041v-567h-118v1434h983q534 0 534 -412q0 -282 -243 -371zM1161 1325h-844v-647h844q211 0 320.5 74t109.5 256q0 94 -29.5 157.5t-88.5 97.5t-133.5 48t-178.5 14z" />
    <glyph glyph-name="S" unicode="S" horiz-adv-x="2037" 
d="M164 479h125q0 -225 183 -318t609 -93q340 0 504 72.5t164 242.5q0 35 -5 63t-17.5 52t-28.5 42.5t-44.5 34t-58 26.5t-77 21t-93 16.5t-114.5 13t-133.5 11t-157.5 9.5q-156 9 -270 23t-205 36.5t-150 53.5t-98 75.5t-55.5 100t-16.5 129.5q0 211 192 298t593 87
q400 0 601 -122t201 -374h-124q0 214 -174 300.5t-545 86.5q-334 0 -476.5 -64.5t-142.5 -216.5q0 -44 8 -78t27.5 -62t45 -48.5t69 -37t90 -28t117 -21t142 -15.5t171.5 -13q116 -8 179.5 -12.5t155 -13.5t139.5 -18.5t113 -25.5t98 -35.5t71.5 -47t56 -62.5t29.5 -80
t12 -100q0 -100 -39 -175t-106.5 -123t-171.5 -77.5t-221.5 -41t-268.5 -11.5q-182 0 -320 15.5t-249.5 52.5t-183 96.5t-110 148t-40.5 207.5z" />
    <glyph glyph-name="T" unicode="T" horiz-adv-x="2007" 
d="M178 1325v109h1651v-109h-766v-1325h-119v1325h-766z" />
    <glyph glyph-name="U" unicode="U" horiz-adv-x="2062" 
d="M1864 1434v-736q0 -133 -26 -242t-87 -203t-155.5 -158t-237.5 -100t-328 -36q-155 0 -280.5 24.5t-216 72t-155.5 111.5t-104 148.5t-57 178t-18 204.5v736h118v-736q0 -71 7.5 -132.5t28 -127t54 -118.5t88.5 -101t128 -80.5t176.5 -51.5t230.5 -19t231 19t177 51.5
t128.5 81t89 101.5t54 118.5t28 126.5t7.5 132v736h119z" />
    <glyph glyph-name="V" unicode="V" horiz-adv-x="2205" 
d="M1104 100l788 1334h138l-854 -1434h-146l-852 1434h135z" />
    <glyph glyph-name="W" unicode="W" horiz-adv-x="3219" 
d="M2329 123l583 1311h129l-641 -1434h-143l-649 1343l-660 -1343h-145l-625 1434h129l570 -1313l647 1313h170z" />
    <glyph glyph-name="X" unicode="X" horiz-adv-x="2138" 
d="M365 0h-181l799 717l-799 717h181l704 -635l705 635h180l-799 -717l799 -717h-180l-705 635z" />
    <glyph glyph-name="Y" unicode="Y" horiz-adv-x="2189" 
d="M1094 590l757 844h160l-854 -953v-481h-127v481l-852 953h158z" />
    <glyph glyph-name="Z" unicode="Z" horiz-adv-x="1904" 
d="M199 1325v109h1507v-109l-1327 -1216h1327v-109h-1507v109l1327 1216h-1327z" />
    <glyph glyph-name="bracketleft" unicode="[" horiz-adv-x="1202" 
d="M199 1638h807v-108h-682v-1831h682v-109h-807v2048z" />
    <glyph glyph-name="backslash" unicode="\" horiz-adv-x="1050" 
d="M731 -307l-532 1782h120l533 -1782h-121z" />
    <glyph glyph-name="bracketright" unicode="]" horiz-adv-x="1202" 
d="M199 1530v108h807v-2048h-807v109h680v1831h-680z" />
    <glyph glyph-name="asciicircum" unicode="^" horiz-adv-x="1898" 
d="M1030 1638l670 -921h-146l-604 827l-606 -827h-145l673 921h158z" />
    <glyph glyph-name="underscore" unicode="_" horiz-adv-x="2416" 
d="M240 -322v111h1937v-111h-1937z" />
    <glyph glyph-name="grave" unicode="`" horiz-adv-x="1138" 
d="M199 1673l741 -164v-110l-741 164v110z" />
    <glyph glyph-name="a" unicode="a" horiz-adv-x="1855" 
d="M1006 1229q340 0 504 -125t167 -404v-700h-118v160q-113 -47 -188 -75t-183.5 -61.5t-216.5 -49t-221 -15.5q-302 0 -441 104.5t-139 307.5q0 113 51.5 195.5t147 131t218 71t277.5 22.5q306 0 695 -117v53q0 393 -560 393q-311 0 -686 -116l-47 100q384 125 740 125z
M770 68q304 0 789 200v293q-118 35 -197.5 56t-221 43t-272.5 22q-75 0 -141.5 -6t-133 -19t-118.5 -37t-93 -57.5t-63 -83t-22 -110.5q0 -160 117 -230.5t356 -70.5z" />
    <glyph glyph-name="b" unicode="b" horiz-adv-x="1892" 
d="M981 1229q340 0 536.5 -167.5t196.5 -467.5t-196.5 -467.5t-536.5 -167.5q-245 0 -414 83.5t-250 238.5v-281h-118v1638h118v-731q81 155 250 238.5t414 83.5zM958 68q288 0 459.5 137t171.5 389t-171.5 389t-459.5 137q-190 0 -333.5 -59t-225.5 -179t-82 -288t82 -288
t225.5 -179t333.5 -59z" />
    <glyph glyph-name="c" unicode="c" horiz-adv-x="1851" 
d="M178 594q0 304 204 469.5t568 165.5q297 0 483.5 -112t241.5 -324h-131q-103 327 -594 327q-113 0 -209.5 -19t-177.5 -59.5t-138.5 -101.5t-89.5 -149t-32 -197t32 -197t89.5 -149t138.5 -101.5t177.5 -59.5t209.5 -19q491 0 594 327h131q-55 -212 -241.5 -324
t-483.5 -112q-364 0 -568 165.5t-204 469.5z" />
    <glyph glyph-name="d" unicode="d" horiz-adv-x="1892" 
d="M1575 907v731h119v-1638h-119v281q-81 -155 -250 -238.5t-414 -83.5q-340 0 -536.5 167.5t-196.5 467.5t196.5 467.5t536.5 167.5q245 0 414 -83.5t250 -238.5zM934 68q190 0 333.5 59t225.5 179t82 288t-82 288t-225.5 179t-333.5 59q-288 0 -459.5 -137t-171.5 -389
t171.5 -389t459.5 -137z" />
    <glyph glyph-name="e" unicode="e" horiz-adv-x="1884" 
d="M961 68q481 0 591 294h131q-52 -189 -236.5 -296t-485.5 -107q-369 0 -576 165.5t-207 469.5q0 303 205.5 469t562.5 166q361 0 560.5 -164.5t199.5 -484.5h-1403q2 -132 51.5 -231.5t138 -160t206 -90.5t262.5 -30zM946 1120q-172 0 -304 -43.5t-221.5 -142
t-111.5 -244.5h1266q-17 145 -102.5 243t-218 142.5t-308.5 44.5z" />
    <glyph glyph-name="f" unicode="f" horiz-adv-x="1390" 
d="M954 1550q-95 0 -150.5 -12.5t-89 -47.5t-44.5 -88t-11 -145v-69h582v-109h-582v-1079h-118v1079h-377v109h377v82q0 103 18 173.5t60.5 120t114.5 72.5t179 23q148 0 328 -21v-106q-144 18 -287 18z" />
    <glyph glyph-name="g" unicode="g" horiz-adv-x="1892" 
d="M1575 909v279h119v-1112q0 -148 -36 -257.5t-115.5 -189.5t-213 -120.5t-321.5 -40.5q-81 0 -154.5 3t-155 10t-127.5 12t-147 17.5t-139 16.5v106q30 -4 131 -16t144 -16.5t123.5 -12t150.5 -10t145 -2.5q142 0 245.5 22t170.5 63t107.5 106.5t56.5 143.5t16 183v185
q-81 -154 -247 -237t-408 -83q-225 0 -391.5 73t-258.5 217t-92 345t92 345t258.5 217t391.5 73q242 0 408 -83t247 -237zM940 68q189 0 331 59t223 179t81 288t-81 288t-223 179t-331 59q-290 0 -463.5 -137t-173.5 -389t173.5 -389t463.5 -137z" />
    <glyph glyph-name="h" unicode="h" horiz-adv-x="1888" 
d="M1028 1229q161 0 279 -33.5t205 -109t131.5 -203t46.5 -310.5v-573h-119v561q0 300 -132.5 429.5t-426.5 129.5q-145 0 -272 -42t-221 -118t-148 -190.5t-54 -251.5v-518h-118v1638h118v-782q97 179 282 276t429 97z" />
    <glyph glyph-name="i" unicode="i" horiz-adv-x="514" 
d="M199 1407v231h118v-231h-118zM199 0v1188h118v-1188h-118z" />
    <glyph glyph-name="j" unicode="j" horiz-adv-x="940" 
d="M643 1407v231h119v-231h-119zM643 1188h119v-1270q0 -118 -11.5 -193.5t-45.5 -137.5t-99.5 -90.5t-167.5 -28.5q-110 0 -321 36v107q9 -2 63.5 -11t77.5 -12.5t64 -7.5t73 -4q65 0 107 10.5t71 32.5t43.5 65t20.5 98t6 142v1264z" />
    <glyph glyph-name="k" unicode="k" horiz-adv-x="1783" 
d="M1393 1188h215l-725 -477l725 -711h-176l-650 643l-465 -305v-338h-118v1638h118v-1161z" />
    <glyph glyph-name="l" unicode="l" horiz-adv-x="514" 
d="M199 0v1638h118v-1638h-118z" />
    <glyph glyph-name="m" unicode="m" horiz-adv-x="2850" 
d="M317 0h-118v1188h118v-291q86 166 242.5 249t364.5 83q228 0 359.5 -90t176.5 -291q83 190 245.5 285.5t385.5 95.5q284 0 420.5 -140t140.5 -466v-623h-119v616q0 269 -108.5 386.5t-358.5 117.5q-120 0 -223.5 -34.5t-184 -101t-127 -175t-46.5 -246.5v-563h-119v616
q0 269 -108.5 386.5t-358.5 117.5q-95 0 -180.5 -21t-159.5 -66t-127.5 -110t-84 -157t-30.5 -203v-563z" />
    <glyph glyph-name="n" unicode="n" horiz-adv-x="1888" 
d="M317 0h-118v1188h118v-332q97 179 282 276t429 97q161 0 279 -33.5t205 -109t131.5 -203t46.5 -310.5v-573h-119v561q0 300 -132.5 429.5t-426.5 129.5q-145 0 -272 -42t-221 -118t-148 -190.5t-54 -251.5v-518z" />
    <glyph glyph-name="o" unicode="o" horiz-adv-x="1906" 
d="M952 -41q-234 0 -407.5 73t-270 217t-96.5 345t96.5 345t270 217t407.5 73q235 0 409.5 -73t271 -217t96.5 -345t-96.5 -345t-271 -217t-409.5 -73zM952 68q297 0 474.5 135t177.5 391t-177.5 391t-474.5 135q-194 0 -338.5 -57t-227.5 -177t-83 -292t83 -292t227.5 -177
t338.5 -57z" />
    <glyph glyph-name="p" unicode="p" horiz-adv-x="1892" 
d="M987 1229q337 0 532 -167.5t195 -467.5t-195 -467.5t-532 -167.5q-245 0 -416 84.5t-254 239.5v-775h-118v1680h118v-283q83 155 254 239.5t416 84.5zM963 68q289 0 457.5 136.5t168.5 389.5q0 169 -80 288.5t-221.5 178.5t-331.5 59q-290 0 -464.5 -137t-174.5 -389
q0 -168 84 -288t228 -179t334 -59z" />
    <glyph glyph-name="q" unicode="q" horiz-adv-x="1892" 
d="M1575 905v283h119v-1680h-119v775q-83 -155 -254 -239.5t-416 -84.5q-337 0 -532 167.5t-195 467.5t195 467.5t532 167.5q245 0 416 -84.5t254 -239.5zM930 68q190 0 334 59t227.5 179t83.5 288q0 252 -174.5 389t-464.5 137q-190 0 -331.5 -59t-221.5 -178.5t-80 -288.5
q0 -253 169 -389.5t458 -136.5z" />
    <glyph glyph-name="r" unicode="r" horiz-adv-x="1390" 
d="M913 1229q166 0 334 -41v-109q-163 41 -329 41q-142 0 -285.5 -52.5t-315.5 -197.5v-870h-118v1188h118v-205q147 141 290 193.5t306 52.5z" />
    <glyph glyph-name="s" unicode="s" horiz-adv-x="1898" 
d="M178 377h125q27 -172 197.5 -240.5t517.5 -68.5q222 0 347 25.5t177.5 78t52.5 143.5q0 37 -5.5 65t-21.5 50t-37 37.5t-58 27.5t-79.5 20t-107 15.5t-133 13t-165.5 12.5q-9 1 -14.5 1t-13 1t-14.5 1q-135 10 -228.5 20.5t-178.5 28t-137.5 41t-92.5 57.5t-56.5 80
t-16.5 107q0 79 34 138.5t93.5 96.5t150.5 60t193 32t233 9q166 0 284.5 -15t218.5 -54t157 -112t73 -182h-125q-14 77 -61.5 128t-131 78t-183 37.5t-242.5 10.5q-302 0 -436 -51.5t-134 -171.5q0 -40 11 -68.5t43 -51t72.5 -37t119.5 -27.5t161.5 -22t219.5 -21
q307 -27 376 -38q203 -30 282 -102q75 -71 75 -204q0 -199 -168.5 -283t-527.5 -84q-143 0 -254.5 9.5t-221 36.5t-184 72.5t-125 121t-61.5 178.5z" />
    <glyph glyph-name="t" unicode="t" horiz-adv-x="1501" 
d="M1317 1188v-109h-658v-651q0 -79 8.5 -136.5t29 -97.5t47 -64.5t71 -38.5t92 -18.5t117.5 -4.5q107 0 293 28v-106q-194 -31 -309 -31q-103 0 -174 11.5t-130 41t-93 82.5t-52 135t-18 199v651h-377v109h377v313l118 55v-368h658z" />
    <glyph glyph-name="u" unicode="u" horiz-adv-x="1888" 
d="M1571 670v518h119v-1188h-119v332q-97 -179 -282 -276t-429 -97q-128 0 -228 20.5t-182 68t-136 122.5t-83.5 186t-31.5 258v574h118v-561q0 -299 132 -429t425 -130q146 0 273 42t221.5 118t148.5 190.5t54 251.5z" />
    <glyph glyph-name="v" unicode="v" horiz-adv-x="1937" 
d="M969 88l655 1100h137l-708 -1188h-166l-709 1188h135z" />
    <glyph glyph-name="w" unicode="w" horiz-adv-x="2922" 
d="M2095 96l522 1092h129l-567 -1188h-164l-553 1075l-555 -1075h-164l-565 1188h127l522 -1094l559 1094h150z" />
    <glyph glyph-name="x" unicode="x" horiz-adv-x="1882" 
d="M360 0h-182l686 594l-686 594h182l580 -512l580 512h184l-686 -594l686 -594h-184l-580 512z" />
    <glyph glyph-name="y" unicode="y" horiz-adv-x="1916" 
d="M965 57l639 1131h137l-731 -1288q-109 -191 -159 -258q-97 -126 -216 -159q-53 -15 -117 -15q-114 0 -301 32v109q188 -33 287 -33q45 0 82.5 9t71.5 32t59.5 46.5t57 70t54 83.5t60.5 105l43 78h-72l-682 1188h137z" />
    <glyph glyph-name="z" unicode="z" horiz-adv-x="1708" 
d="M199 1188h1310v-109l-1124 -970h1124v-109h-1310v109l1124 970h-1124v109z" />
    <glyph glyph-name="braceleft" unicode="{" horiz-adv-x="1193" 
d="M199 541v151q41 0 68 1.5t58.5 7t50.5 16.5t38.5 29.5t29 46.5t16.5 66t6.5 90t-7.5 118q-16 165 5 273.5t87 175.5t172.5 94.5t273.5 27.5v-108q-205 0 -300 -50.5t-117 -166.5t2 -307q9 -94 -2 -164.5t-34 -109.5t-58 -63t-64.5 -31t-61.5 -7v-29q32 0 61.5 -7
t64.5 -31t58 -63t34 -109.5t2 -164.5q-24 -192 -2 -309.5t117 -168t300 -50.5v-109q-177 0 -286.5 28t-172 97.5t-79 175.5t-0.5 275q7 66 7.5 118t-6.5 90t-16.5 66t-29 46.5t-38.5 29.5t-50.5 16.5t-58.5 7t-68 1.5z" />
    <glyph glyph-name="bar" unicode="|" horiz-adv-x="514" 
d="M199 -307v1945h118v-1945h-118z" />
    <glyph glyph-name="braceright" unicode="}" horiz-adv-x="1193" 
d="M997 692v-151q-42 0 -69 -1.5t-58.5 -7t-50.5 -16.5t-38.5 -29.5t-29 -46.5t-16.5 -66.5t-6.5 -90t6.5 -117.5q8 -109 6.5 -194t-24.5 -149t-61 -108.5t-103 -72t-150.5 -40t-203.5 -12.5v109q204 0 299 50.5t117.5 168t-1.5 309.5q-10 94 1 164.5t34 109.5t57.5 63
t64.5 31t63 7v29q-33 0 -63 7t-64.5 31t-57.5 63t-34 109.5t-1 164.5q23 191 0.5 307t-117 166.5t-298.5 50.5v108q166 0 272.5 -27.5t172 -94.5t86.5 -175.5t5 -273.5q-6 -66 -6.5 -117.5t6.5 -90t16.5 -66.5t29 -46.5t38.5 -29.5t50.5 -16.5t58.5 -7t69 -1.5z" />
    <glyph glyph-name="asciitilde" unicode="~" horiz-adv-x="1914" 
d="M324 436h-125q0 520 389 520q78 0 145 -22.5t116 -58.5t93.5 -79.5t85.5 -87.5t83.5 -80t97 -58.5t116.5 -22.5q76 0 128.5 27.5t82.5 82.5t42.5 127t12.5 172h125q0 -520 -391 -520q-77 0 -144 22.5t-115.5 59t-93 80t-86 87t-84 80t-97.5 59t-117 22.5
q-146 0 -205 -103t-59 -307z" />
    <glyph glyph-name="exclamdown" unicode="&#xa1;" horiz-adv-x="550" 
d="M346 1096h-147v133h147v-133zM332 819v-1024h-119v1024h119z" />
    <glyph glyph-name="cent" unicode="&#xa2;" horiz-adv-x="1892" 
d="M1001 1243v-1053q464 12 564 328h131q-54 -205 -233 -317.5t-462 -118.5v-287h-96v289q-334 14 -520 178.5t-186 454.5t186 454.5t520 178.5v288h96v-286q283 -6 462 -118.5t233 -318.5h-131q-100 316 -564 328zM324 717q0 -127 43 -225.5t122 -161t183 -96.5t233 -41
v1048q-129 -7 -233 -41t-183 -96.5t-122 -161t-43 -225.5z" />
    <glyph glyph-name="sterling" unicode="&#xa3;" horiz-adv-x="1775" 
d="M1055 1366q-194 0 -297.5 -64.5t-129 -194.5t6.5 -325q4 -23 8 -63h723v-96h-717q0 -187 -85 -309.5t-251 -204.5h1264v-109h-1378v109q74 49 118.5 82t92.5 81t73 95t40 112t12 144h-336v96h325q-3 34 -12 76q-20 93 -22 177.5t14.5 161t57.5 138.5t102.5 107.5
t152.5 70.5t205 25q236 0 555 -62v-108q-283 61 -522 61z" />
    <glyph glyph-name="currency" unicode="&#xa4;" horiz-adv-x="1990" 
d="M1772 696q0 -185 -81 -320.5t-231 -213.5l320 -342l-84 -80l-350 373q-161 -52 -349 -52q-195 0 -352 54l-350 -375l-84 80l319 342q-149 79 -229 215t-80 319q0 180 77 314t220 213l-307 329l84 80l336 -358q155 57 366 57q213 0 365 -57l334 358l84 -80l-305 -329
q143 -79 220 -213t77 -314zM346 696q0 -256 177 -391t474 -135q194 0 338.5 57t228 177t83.5 292t-83.5 292t-228 177.5t-338.5 57.5t-339 -57.5t-228.5 -177.5t-83.5 -292z" />
    <glyph glyph-name="yen" unicode="&#xa5;" horiz-adv-x="2230" 
d="M1872 1434h160l-760 -848h604v-97h-690l-8 -8v-127h698v-96h-698v-258h-127v258h-699v96h699v127l-9 8h-690v97h604l-757 848h157l758 -844z" />
    <glyph glyph-name="brokenbar" unicode="&#xa6;" horiz-adv-x="514" 
d="M199 885v753h118v-753h-118zM199 -307v753h118v-753h-118z" />
    <glyph glyph-name="section" unicode="&#xa7;" horiz-adv-x="1888" 
d="M1368 406q192 -37 275 -109t83 -209q0 -82 -32 -142.5t-87.5 -98.5t-143.5 -61t-186.5 -31.5t-229.5 -8.5q-165 0 -294.5 19t-237 62t-171 120t-76.5 186h125q11 -82 66 -138.5t149 -86t201.5 -41.5t249.5 -12q297 0 420 52.5t123 184.5q0 126 -116.5 167t-498.5 83
q-85 9 -142.5 16t-127 17t-115.5 19.5t-98.5 22.5t-86 27.5t-69 33.5t-56.5 41.5t-38.5 50t-25 60.5t-7.5 72q0 139 94.5 215t284.5 103q-189 37 -270.5 108.5t-81.5 208.5q0 82 34 142.5t92.5 98.5t149 61t190.5 31.5t230 8.5q166 0 291.5 -19t227 -62.5t160 -120.5
t71.5 -187h-125q-9 67 -44.5 116.5t-90 80.5t-134.5 50t-168.5 26.5t-201.5 7.5q-294 0 -424.5 -53.5t-130.5 -184.5q0 -127 113.5 -167.5t492.5 -84.5q147 -16 232 -27.5t185.5 -31t154.5 -43t104 -59t70 -84t20 -113.5q0 -141 -94 -216.5t-285 -100.5zM346 725
q0 -47 12.5 -81t47 -61t79.5 -44.5t127.5 -33.5t172 -27t231.5 -25q4 0 10.5 -1t9.5 -1q316 -3 451 55.5t135 191.5q0 36 -7 63.5t-25 51t-41.5 41t-66 32.5t-88 26t-117.5 22t-144.5 19.5t-178.5 19.5q-4 0 -11 1t-11 1q-316 3 -451 -56.5t-135 -193.5z" />
    <glyph glyph-name="dieresis" unicode="&#xa8;" horiz-adv-x="1042" 
d="M199 1427v136h182v-136h-182zM662 1427v136h184v-136h-184z" />
    <glyph glyph-name="copyright" unicode="&#xa9;" horiz-adv-x="2084" 
d="M1044 -20q-390 0 -617.5 200.5t-227.5 538.5t227.5 536.5t617.5 198.5t617 -198.5t227 -536.5t-227 -538.5t-617 -200.5zM1044 61q174 0 317 48.5t239 136t148 208.5t52 265q0 293 -202.5 473t-553.5 180q-352 0 -555.5 -180.5t-203.5 -472.5q0 -144 52.5 -265
t148.5 -208.5t239.5 -136t318.5 -48.5zM582 717q0 182 123 284.5t348 102.5q189 0 296 -77.5t136 -213.5h-92q-56 209 -340 209q-80 0 -147.5 -17t-121 -52t-84 -95.5t-30.5 -140.5q0 -65 20 -116.5t55 -86.5t83.5 -58t104 -33.5t118.5 -10.5q286 0 342 209h92
q-29 -136 -136.5 -213.5t-297.5 -77.5q-224 0 -346.5 102.5t-122.5 284.5z" />
    <glyph glyph-name="guillemotleft" unicode="&#xab;" horiz-adv-x="1665" 
d="M199 594l532 594h168l-532 -594l532 -594h-168zM764 594l532 594h170l-532 -594l532 -594h-170z" />
    <glyph glyph-name="logicalnot" unicode="&#xac;" horiz-adv-x="1947" 
d="M1749 752v-582h-113v471h-1437v111h1550z" />
    <glyph glyph-name="registered" unicode="&#xae;" horiz-adv-x="2084" 
d="M1044 -41q-387 0 -616 210t-229 550q0 167 59 307t167 239.5t267 154.5t352 55q257 0 449 -95.5t293.5 -266t101.5 -394.5q0 -167 -59 -308t-167 -240.5t-266.5 -155.5t-351.5 -56zM1044 41q176 0 319.5 52t238.5 143t146.5 214.5t51.5 268.5t-51 268t-146 213.5
t-238.5 141.5t-320.5 51t-321.5 -51.5t-239.5 -142t-146.5 -213.5t-51.5 -267q0 -145 51.5 -268.5t147 -214.5t239.5 -143t321 -52zM829 373h-88v700h387q151 0 222 -65.5t71 -173.5q0 -89 -50.5 -154t-153.5 -84l180 -223h-109l-172 217h-287v-217zM829 991v-319h295
q108 0 158.5 38t50.5 124q0 83 -50.5 120t-158.5 37h-295z" />
    <glyph glyph-name="macron" unicode="&#xaf;" horiz-adv-x="1247" 
d="M199 1454v109h850v-109h-850z" />
    <glyph glyph-name="degree" unicode="&#xb0;" horiz-adv-x="1374" 
d="M686 592q-109 0 -195.5 26.5t-140 69.5t-88.5 102t-49 119t-14 125t14 124.5t49 118.5t88.5 102t140 69.5t195.5 26.5q110 0 197 -26.5t140.5 -69.5t89 -102t49.5 -118.5t14 -124.5t-14 -125t-49.5 -119t-89 -102t-140.5 -69.5t-197 -26.5zM686 700q166 0 266.5 86.5
t100.5 247.5t-100 246.5t-267 85.5q-165 0 -264.5 -85.5t-99.5 -246.5t99.5 -247.5t264.5 -86.5z" />
    <glyph glyph-name="plusminus" unicode="&#xb1;" horiz-adv-x="1925" 
d="M1018 1434v-416h708v-111h-708v-415h-111v415h-708v111h708v416h111zM1726 150h-1527v110h1527v-110z" />
    <glyph glyph-name="acute" unicode="&#xb4;" horiz-adv-x="1138" 
d="M199 1399v110l741 164v-110z" />
    <glyph glyph-name="paragraph" unicode="&#xb6;" horiz-adv-x="1601" 
d="M885 1638h119v-1945h-119v1141q-104 0 -178.5 3.5t-151 13t-127.5 27.5t-98 48t-73.5 72t-42 101t-15.5 136q0 67 10.5 121t34.5 94.5t54.5 71t77.5 51t96 33.5t119 20t136.5 9.5t157.5 2.5zM1284 -307v1945h119v-1945h-119z" />
    <glyph glyph-name="periodcentered" unicode="&#xb7;" horiz-adv-x="550" 
d="M184 559v135h150v-135h-150z" />
    <glyph glyph-name="cedilla" unicode="&#xb8;" horiz-adv-x="956" 
d="M561 -117q86 0 141.5 -38.5t55.5 -120.5q0 -70 -47 -118t-125 -67.5t-178.5 -23t-208.5 13.5v96q123 -18 219.5 -19.5t155.5 27.5t59 88q0 41 -31.5 65t-79.5 26q-76 3 -164 -37l-96 26l41 199h117l-31 -154q80 37 172 37z" />
    <glyph glyph-name="guillemotright" unicode="&#xbb;" horiz-adv-x="1691" 
d="M225 1188h170l533 -594l-533 -594h-170l533 594zM793 1188h168l532 -594l-532 -594h-168l532 594z" />
    <glyph glyph-name="questiondown" unicode="&#xbf;" horiz-adv-x="1820" 
d="M1122 1229v-133h-147v133h147zM969 834h125q0 -85 -25.5 -150.5t-68.5 -107.5t-99 -73.5t-117.5 -52.5t-123 -40t-117.5 -41t-99 -51t-68.5 -74.5t-25.5 -106.5q0 -76 37.5 -130t109.5 -85t167.5 -45t222.5 -14q157 0 268.5 21.5t193 71.5t121 135.5t39.5 209.5h127
q0 -122 -34 -215t-95 -155.5t-153 -102.5t-201 -57t-246 -17q-339 0 -510.5 90.5t-171.5 294.5q0 75 25.5 133t68.5 94.5t99 65t117.5 49t123 40.5t117.5 46t99 59.5t68.5 86t25.5 121.5z" />
    <glyph glyph-name="Agrave" unicode="&#xc0;" horiz-adv-x="2205" 
d="M731 1919l742 -164v-110l-742 163v111zM2030 0h-138l-217 367h-1145l-217 -367h-135l852 1434h146zM1104 1333l-508 -856h1014z" />
    <glyph glyph-name="Aacute" unicode="&#xc1;" horiz-adv-x="2205" 
d="M731 1755l742 164v-111l-742 -163v110zM2030 0h-138l-217 367h-1145l-217 -367h-135l852 1434h146zM1104 1333l-508 -856h1014z" />
    <glyph glyph-name="Acircumflex" unicode="&#xc2;" horiz-adv-x="2205" 
d="M1473 1741v-115l-371 164l-369 -164v115l369 164zM2030 0h-138l-217 367h-1145l-217 -367h-135l852 1434h146zM1104 1333l-508 -856h1014z" />
    <glyph glyph-name="Atilde" unicode="&#xc3;" horiz-adv-x="2205" 
d="M864 1823q-170 0 -170 -199h-125q0 51 14 100.5t44.5 98t89.5 78.5t139 30q70 0 127 -22.5t96 -54.5t76 -63.5t84 -54t102 -22.5q88 0 129 52.5t41 144.5h125q0 -40 -8 -79.5t-28.5 -81.5t-52 -73.5t-83 -52t-116.5 -20.5q-70 0 -127 22.5t-96 55t-75.5 64.5t-83.5 54.5
t-102 22.5zM2030 0h-138l-217 367h-1145l-217 -367h-135l852 1434h146zM1104 1333l-508 -856h1014z" />
    <glyph glyph-name="Adieresis" unicode="&#xc4;" horiz-adv-x="2205" 
d="M778 1808h185v-135h-185v135zM1243 1808h182v-135h-182v135zM2030 0h-138l-217 367h-1145l-217 -367h-135l852 1434h146zM1104 1333l-508 -856h1014z" />
    <glyph glyph-name="Aring" unicode="&#xc5;" horiz-adv-x="2205" 
d="M1102 1583q-197 0 -291 60.5t-94 168.5q0 109 94 169.5t291 60.5q198 0 292.5 -60.5t94.5 -169.5q0 -108 -94.5 -168.5t-292.5 -60.5zM1102 1954q-146 0 -211.5 -36t-65.5 -106t65 -104.5t212 -34.5q148 0 213 34.5t65 104.5t-65.5 106t-212.5 36zM2030 0h-138l-217 367
h-1145l-217 -367h-135l852 1434h146zM1104 1333l-508 -856h1014z" />
    <glyph glyph-name="AE" unicode="&#xc6;" horiz-adv-x="2992" 
d="M178 0l766 1434h1872v-109h-1288v-553h1247v-110h-1247v-553h1288v-109h-1407v387h-883l-207 -387h-141zM1028 1325l-442 -827h823v827h-381z" />
    <glyph glyph-name="Ccedilla" unicode="&#xc7;" horiz-adv-x="2039" 
d="M1053 -41h-19l-28 -133q80 37 174 37q85 0 140.5 -39t55.5 -121q0 -70 -47 -118t-125 -67.5t-179.5 -23t-209.5 13.5v97q124 -18 220.5 -19.5t155 27.5t58.5 88q0 41 -30 64.5t-78 25.5q-79 3 -164 -37l-96 27l39 184q-234 22 -401.5 121.5t-254 261t-86.5 371.5
q0 171 59 311t170 238.5t276 152.5t370 54q175 0 322 -44t247 -120t161.5 -174.5t78.5 -212.5h-125q-13 68 -46 130.5t-90.5 119.5t-133.5 99.5t-183 67.5t-231 25q-357 0 -553.5 -173t-196.5 -474q0 -302 197 -476.5t553 -174.5q154 0 279.5 38t207 102.5t131 142
t66.5 163.5h127q-18 -114 -80 -214t-162 -176.5t-247 -120.5t-322 -44z" />
    <glyph glyph-name="Egrave" unicode="&#xc8;" horiz-adv-x="1781" 
d="M1272 1645l-744 163v111l744 -164v-110zM199 0v1434h1405v-109h-1287v-553h1246v-110h-1246v-553h1287v-109h-1405z" />
    <glyph glyph-name="Eacute" unicode="&#xc9;" horiz-adv-x="1781" 
d="M1272 1808l-744 -163v110l744 164v-111zM199 0v1434h1405v-109h-1287v-553h1246v-110h-1246v-553h1287v-109h-1405z" />
    <glyph glyph-name="Ecircumflex" unicode="&#xca;" horiz-adv-x="1781" 
d="M532 1741l369 164l369 -164v-115l-369 164l-369 -164v115zM199 0v1434h1405v-109h-1287v-553h1246v-110h-1246v-553h1287v-109h-1405z" />
    <glyph glyph-name="Edieresis" unicode="&#xcb;" horiz-adv-x="1781" 
d="M760 1673h-182v135h182v-135zM1225 1673h-183v135h183v-135zM199 0v1434h1405v-109h-1287v-553h1246v-110h-1246v-553h1287v-109h-1405z" />
    <glyph glyph-name="Igrave" unicode="&#xcc;" horiz-adv-x="514" 
d="M-43 1919l598 -164v-110l-598 163v111zM199 1434h118v-1434h-118v1434z" />
    <glyph glyph-name="Iacute" unicode="&#xcd;" horiz-adv-x="514" 
d="M-115 1645v110l742 164v-111zM199 1434h118v-1434h-118v1434z" />
    <glyph glyph-name="Icircumflex" unicode="&#xce;" horiz-adv-x="514" 
d="M-43 1741l301 164l301 -164v-115l-301 164l-301 -164v115zM317 0h-118v1434h118v-1434z" />
    <glyph glyph-name="Idieresis" unicode="&#xcf;" horiz-adv-x="514" 
d="M-12 1673v135h162v-135h-162zM367 1673v135h161v-135h-161zM199 1434h118v-1434h-118v1434z" />
    <glyph glyph-name="Eth" unicode="&#xd0;" horiz-adv-x="2115" 
d="M311 1434h901q118 0 224.5 -27.5t198.5 -85t159.5 -141t106 -202.5t38.5 -261t-38.5 -261t-106 -202.5t-159.5 -141t-198.5 -85t-224.5 -27.5h-901v676h-182v82h182v676zM430 676v-567h727q316 0 485.5 152.5t169.5 455.5t-169.5 455.5t-485.5 152.5h-727v-567h574v-82
h-574z" />
    <glyph glyph-name="Ntilde" unicode="&#xd1;" horiz-adv-x="2052" 
d="M801 1823q-170 0 -170 -199h-125q0 40 8 79.5t28.5 81.5t52 73.5t83.5 52t117 20.5q70 0 126.5 -22.5t95.5 -54.5t75.5 -63.5t83.5 -54t102 -22.5q170 0 170 197h125q0 -51 -14 -100.5t-44.5 -98t-89.5 -78.5t-139 -30q-70 0 -127 22.5t-96 55t-76 64.5t-84 54.5
t-102 22.5zM367 1434l1368 -1319v1319h118v-1434h-167l-1369 1319v-1319h-118v1434h168z" />
    <glyph glyph-name="Ograve" unicode="&#xd2;" horiz-adv-x="2115" 
d="M686 1919l741 -164v-110l-741 163v111zM1059 -41q-420 0 -650.5 205t-230.5 555q0 349 230.5 552.5t650.5 203.5q210 0 376.5 -54t276.5 -153t168.5 -238.5t58.5 -310.5q0 -349 -231 -554.5t-649 -205.5zM1059 68q356 0 554.5 173.5t198.5 477.5q0 303 -198 475t-555 172
q-358 0 -557 -171.5t-199 -475.5q0 -305 199.5 -478t556.5 -173z" />
    <glyph glyph-name="Oacute" unicode="&#xd3;" horiz-adv-x="2115" 
d="M686 1645v110l741 164v-111zM1059 -41q-420 0 -650.5 205t-230.5 555q0 349 230.5 552.5t650.5 203.5q210 0 376.5 -54t276.5 -153t168.5 -238.5t58.5 -310.5q0 -349 -231 -554.5t-649 -205.5zM1059 68q356 0 554.5 173.5t198.5 477.5q0 303 -198 475t-555 172
q-358 0 -557 -171.5t-199 -475.5q0 -305 199.5 -478t556.5 -173z" />
    <glyph glyph-name="Ocircumflex" unicode="&#xd4;" horiz-adv-x="2115" 
d="M1427 1741v-115l-368 164l-371 -164v115l371 164zM1059 1475q210 0 376.5 -54t276.5 -153t168.5 -238.5t58.5 -310.5q0 -349 -231 -554.5t-649 -205.5q-420 0 -650.5 205t-230.5 555q0 349 230.5 552.5t650.5 203.5zM1059 68q356 0 554.5 173.5t198.5 477.5
q0 303 -198 475t-555 172q-358 0 -557 -171.5t-199 -475.5q0 -305 199.5 -478t556.5 -173z" />
    <glyph glyph-name="Otilde" unicode="&#xd5;" horiz-adv-x="2115" 
d="M649 1624h-125q0 40 8 79.5t28.5 81.5t52 73.5t83.5 52t117 20.5q70 0 126.5 -22.5t95.5 -54.5t75.5 -63.5t83.5 -54t102 -22.5q170 0 170 197h125q0 -40 -8 -79.5t-28.5 -81.5t-51.5 -73.5t-82 -52t-116 -20.5q-70 0 -127 22.5t-96.5 55t-76 64.5t-84 54.5t-102.5 22.5
q-170 0 -170 -199zM1059 -41q-420 0 -650.5 205t-230.5 555q0 349 230.5 552.5t650.5 203.5q210 0 376.5 -54t276.5 -153t168.5 -238.5t58.5 -310.5q0 -349 -231 -554.5t-649 -205.5zM1059 68q356 0 554.5 173.5t198.5 477.5q0 303 -198 475t-555 172q-358 0 -557 -171.5
t-199 -475.5q0 -305 199.5 -478t556.5 -173z" />
    <glyph glyph-name="Odieresis" unicode="&#xd6;" horiz-adv-x="2115" 
d="M735 1673v135h183v-135h-183zM1198 1673v135h184v-135h-184zM1059 -41q-420 0 -650.5 205t-230.5 555q0 349 230.5 552.5t650.5 203.5q210 0 376.5 -54t276.5 -153t168.5 -238.5t58.5 -310.5q0 -349 -231 -554.5t-649 -205.5zM1059 68q356 0 554.5 173.5t198.5 477.5
q0 303 -198 475t-555 172q-358 0 -557 -171.5t-199 -475.5q0 -305 199.5 -478t556.5 -173z" />
    <glyph glyph-name="multiply" unicode="&#xd7;" horiz-adv-x="1775" 
d="M1522 1141l55 -94l-580 -336l580 -334l-53 -96l-635 366l-637 -366l-53 96l579 334l-579 336l55 94l635 -367z" />
    <glyph glyph-name="Oslash" unicode="&#xd8;" horiz-adv-x="2115" 
d="M1384 1638l-55 -190q294 -61 452 -252.5t158 -476.5q0 -349 -231 -554.5t-649 -205.5q-93 0 -158 8l-49 -170h-121l55 189q-293 61 -450.5 253.5t-157.5 479.5q0 349 230.5 552.5t650.5 203.5q81 0 155 -9l50 172h120zM303 719q0 -248 133.5 -410.5t380.5 -216.5
l367 1268q-62 6 -125 6q-358 0 -557 -171.5t-199 -475.5zM1059 68q356 0 554.5 173.5t198.5 477.5q0 246 -133.5 408t-380.5 214l-366 -1267q62 -6 127 -6z" />
    <glyph glyph-name="Ugrave" unicode="&#xd9;" horiz-adv-x="2062" 
d="M659 1919l742 -164v-110l-742 163v111zM1864 1434v-736q0 -133 -26 -242t-87 -203t-155.5 -158t-237.5 -100t-328 -36q-155 0 -280.5 24.5t-216 72t-155.5 111.5t-104 148.5t-57 178t-18 204.5v736h118v-736q0 -71 7.5 -132.5t28 -127t54 -118.5t88.5 -101t128 -80.5
t176.5 -51.5t230.5 -19t231 19t177 51.5t128.5 81t89 101.5t54 118.5t28 126.5t7.5 132v736h119z" />
    <glyph glyph-name="Uacute" unicode="&#xda;" horiz-adv-x="2062" 
d="M659 1645v110l742 164v-111zM1864 1434v-736q0 -133 -26 -242t-87 -203t-155.5 -158t-237.5 -100t-328 -36q-155 0 -280.5 24.5t-216 72t-155.5 111.5t-104 148.5t-57 178t-18 204.5v736h118v-736q0 -71 7.5 -132.5t28 -127t54 -118.5t88.5 -101t128 -80.5t176.5 -51.5
t230.5 -19t231 19t177 51.5t128.5 81t89 101.5t54 118.5t28 126.5t7.5 132v736h119z" />
    <glyph glyph-name="Ucircumflex" unicode="&#xdb;" horiz-adv-x="2062" 
d="M1401 1741v-115l-371 164l-368 -164v115l368 164zM1745 698v736h119v-736q0 -133 -26 -242t-87 -203t-155.5 -158t-237.5 -100t-328 -36q-155 0 -280.5 24.5t-216 72t-155.5 111.5t-104 148.5t-57 178t-18 204.5v736h118v-736q0 -71 7.5 -132.5t28 -127t54 -118.5
t88.5 -101t128 -80.5t176.5 -51.5t230.5 -19t231 19t177 51.5t128.5 81t89 101.5t54 118.5t28 126.5t7.5 132z" />
    <glyph glyph-name="Udieresis" unicode="&#xdc;" horiz-adv-x="2062" 
d="M707 1673v135h184v-135h-184zM1171 1673v135h183v-135h-183zM1864 1434v-736q0 -133 -26 -242t-87 -203t-155.5 -158t-237.5 -100t-328 -36q-155 0 -280.5 24.5t-216 72t-155.5 111.5t-104 148.5t-57 178t-18 204.5v736h118v-736q0 -71 7.5 -132.5t28 -127t54 -118.5
t88.5 -101t128 -80.5t176.5 -51.5t230.5 -19t231 19t177 51.5t128.5 81t89 101.5t54 118.5t28 126.5t7.5 132v736h119z" />
    <glyph glyph-name="Yacute" unicode="&#xdd;" horiz-adv-x="2189" 
d="M721 1755l743 164v-111l-743 -163v110zM1094 590l757 844h160l-854 -953v-481h-127v481l-852 953h158z" />
    <glyph glyph-name="Thorn" unicode="&#xde;" horiz-adv-x="1927" 
d="M199 1434h125v-220h878q257 0 403 -128.5t146 -364.5q0 -237 -146 -365.5t-403 -128.5h-878v-227h-125v1434zM1167 1106h-843v-770h843q457 0 457 385t-457 385z" />
    <glyph glyph-name="germandbls" unicode="&#xdf;" horiz-adv-x="1853" 
d="M1241 754q224 -26 330 -107t106 -254q0 -54 -8 -98.5t-28 -80.5t-45.5 -64.5t-67.5 -50.5t-86.5 -37.5t-111 -26.5t-131.5 -18t-158 -10.5t-181 -5t-209 -1.5v109q113 0 191 0.5t163 3.5t140.5 7.5t115 12t95.5 19t72.5 27.5t56.5 36t36.5 47t22.5 59.5t6 73.5
q0 49 -9.5 85t-37 64.5t-57.5 47.5t-92 32.5t-118 20.5t-159 11t-190.5 5t-235.5 1v110q149 0 255 8.5t191.5 29t137 55.5t78 88.5t26.5 127.5q0 152 -115.5 218.5t-346.5 66.5q-102 0 -177 -9t-139.5 -31.5t-107 -60t-72.5 -95t-43.5 -136.5t-13.5 -184v-850h-125v850
q0 179 37 298t121 192.5t208.5 104t311.5 30.5q286 0 436.5 -92.5t150.5 -295.5q0 -229 -223 -333z" />
    <glyph glyph-name="agrave" unicode="&#xe0;" horiz-adv-x="1855" 
d="M600 1673l741 -164v-110l-741 164v110zM1006 1229q340 0 504 -125t167 -404v-700h-118v160q-113 -47 -188 -75t-183.5 -61.5t-216.5 -49t-221 -15.5q-302 0 -441 104.5t-139 307.5q0 113 51.5 195.5t147 131t218 71t277.5 22.5q306 0 695 -117v53q0 393 -560 393
q-311 0 -686 -116l-47 100q384 125 740 125zM770 68q304 0 789 200v293q-118 35 -197.5 56t-221 43t-272.5 22q-75 0 -141.5 -6t-133 -19t-118.5 -37t-93 -57.5t-63 -83t-22 -110.5q0 -160 117 -230.5t356 -70.5z" />
    <glyph glyph-name="aacute" unicode="&#xe1;" horiz-adv-x="1855" 
d="M600 1509l741 164v-110l-741 -164v110zM1006 1229q340 0 504 -125t167 -404v-700h-118v160q-113 -47 -188 -75t-183.5 -61.5t-216.5 -49t-221 -15.5q-302 0 -441 104.5t-139 307.5q0 113 51.5 195.5t147 131t218 71t277.5 22.5q306 0 695 -117v53q0 393 -560 393
q-311 0 -686 -116l-47 100q384 125 740 125zM770 68q304 0 789 200v293q-118 35 -197.5 56t-221 43t-272.5 22q-75 0 -141.5 -6t-133 -19t-118.5 -37t-93 -57.5t-63 -83t-22 -110.5q0 -160 117 -230.5t356 -70.5z" />
    <glyph glyph-name="acircumflex" unicode="&#xe2;" horiz-adv-x="1855" 
d="M1341 1495v-115l-368 164l-371 -164v115l371 164zM1006 1229q340 0 504 -125t167 -404v-700h-118v160q-113 -47 -188 -75t-183.5 -61.5t-216.5 -49t-221 -15.5q-302 0 -441 104.5t-139 307.5q0 113 51.5 195.5t147 131t218 71t277.5 22.5q306 0 695 -117v53
q0 393 -560 393q-311 0 -686 -116l-47 100q384 125 740 125zM770 68q304 0 789 200v293q-118 35 -197.5 56t-221 43t-272.5 22q-75 0 -141.5 -6t-133 -19t-118.5 -37t-93 -57.5t-63 -83t-22 -110.5q0 -160 117 -230.5t356 -70.5z" />
    <glyph glyph-name="atilde" unicode="&#xe3;" horiz-adv-x="1855" 
d="M733 1577q-170 0 -170 -199h-125q0 40 8 79.5t28.5 81.5t52 74t83.5 52.5t117 20.5q70 0 126.5 -22.5t95.5 -54.5t75.5 -64t83.5 -54.5t102 -22.5q170 0 170 197h125q0 -40 -8 -79.5t-28.5 -81.5t-51.5 -73.5t-82 -52t-116 -20.5q-70 0 -127 22.5t-96.5 55t-76 64.5
t-84 54.5t-102.5 22.5zM1006 1229q340 0 504 -125t167 -404v-700h-118v160q-113 -47 -188 -75t-183.5 -61.5t-216.5 -49t-221 -15.5q-302 0 -441 104.5t-139 307.5q0 113 51.5 195.5t147 131t218 71t277.5 22.5q306 0 695 -117v53q0 393 -560 393q-311 0 -686 -116l-47 100
q384 125 740 125zM770 68q304 0 789 200v293q-118 35 -197.5 56t-221 43t-272.5 22q-75 0 -141.5 -6t-133 -19t-118.5 -37t-93 -57.5t-63 -83t-22 -110.5q0 -160 117 -230.5t356 -70.5z" />
    <glyph glyph-name="adieresis" unicode="&#xe4;" horiz-adv-x="1855" 
d="M649 1563h182v-136h-182v136zM1112 1563h184v-136h-184v136zM1006 1229q340 0 504 -125t167 -404v-700h-118v160q-113 -47 -188 -75t-183.5 -61.5t-216.5 -49t-221 -15.5q-302 0 -441 104.5t-139 307.5q0 113 51.5 195.5t147 131t218 71t277.5 22.5q306 0 695 -117v53
q0 393 -560 393q-311 0 -686 -116l-47 100q384 125 740 125zM770 68q304 0 789 200v293q-118 35 -197.5 56t-221 43t-272.5 22q-75 0 -141.5 -6t-133 -19t-118.5 -37t-93 -57.5t-63 -83t-22 -110.5q0 -160 117 -230.5t356 -70.5z" />
    <glyph glyph-name="aring" unicode="&#xe5;" horiz-adv-x="1855" 
d="M973 1337q-198 0 -292.5 61t-94.5 169q0 109 94.5 169t292.5 60q197 0 291 -60t94 -169q0 -108 -94.5 -169t-290.5 -61zM973 1708q-148 0 -213.5 -35.5t-65.5 -105.5t65.5 -105t213.5 -35q146 0 211 35t65 105t-65 105.5t-211 35.5zM1006 1229q340 0 504 -125t167 -404
v-700h-118v160q-113 -47 -188 -75t-183.5 -61.5t-216.5 -49t-221 -15.5q-302 0 -441 104.5t-139 307.5q0 113 51.5 195.5t147 131t218 71t277.5 22.5q306 0 695 -117v53q0 393 -560 393q-311 0 -686 -116l-47 100q384 125 740 125zM770 68q304 0 789 200v293
q-118 35 -197.5 56t-221 43t-272.5 22q-75 0 -141.5 -6t-133 -19t-118.5 -37t-93 -57.5t-63 -83t-22 -110.5q0 -160 117 -230.5t356 -70.5z" />
    <glyph glyph-name="ae" unicode="&#xe6;" horiz-adv-x="3233" 
d="M2310 68q482 0 592 294h131q-52 -189 -237 -296t-486 -107q-284 0 -475 100t-264 287q-58 -100 -155.5 -177.5t-213 -121.5t-235 -66t-238.5 -22q-265 0 -412 93.5t-147 277.5q0 70 18.5 124.5t50.5 94t85 67.5t112 45t142.5 27t165 13.5t190.5 3.5h588q0 83 -26 150.5
t-72 111.5t-102 75t-124 47.5t-129 23.5t-125 7q-283 0 -635 -119l-43 103q360 125 684 125q269 0 431 -79.5t225 -238.5q88 155 265 236.5t425 81.5q361 0 560.5 -164.5t199.5 -484.5h-1403q2 -132 51.5 -231.5t138 -160t205.5 -90.5t262 -30zM2296 1120q-172 0 -304 -43.5
t-221.5 -142t-111.5 -244.5h1266q-17 145 -102.5 243t-218 142.5t-308.5 44.5zM1522 463v127l-580 4q-81 0 -131 -0.5t-115.5 -3t-104.5 -7.5t-86.5 -14t-75 -22t-56 -32t-43 -44t-24 -57.5t-9.5 -73.5q0 -272 446 -272q122 0 236 23t218.5 69.5t189 124t135.5 178.5z" />
    <glyph glyph-name="ccedilla" unicode="&#xe7;" horiz-adv-x="1851" 
d="M950 68q491 0 594 327h131q-55 -212 -240.5 -324t-480.5 -112l-28 -133q80 37 174 37q84 0 139 -39t55 -121q0 -71 -46.5 -118.5t-124.5 -67t-179 -23t-209 13.5v97q124 -18 220.5 -19.5t155 27.5t58.5 88q0 41 -30 64.5t-78 25.5q-79 3 -164 -37l-96 27l35 182
q-312 27 -485 189.5t-173 441.5q0 304 204 469.5t568 165.5q297 0 483.5 -112t241.5 -324h-131q-103 327 -594 327q-113 0 -209.5 -19t-177.5 -59.5t-138.5 -101.5t-89.5 -149t-32 -197t32 -197t89.5 -149t138.5 -101.5t177.5 -59.5t209.5 -19z" />
    <glyph glyph-name="egrave" unicode="&#xe8;" horiz-adv-x="1884" 
d="M586 1673l743 -164v-110l-743 164v110zM961 68q481 0 591 294h131q-52 -189 -236.5 -296t-485.5 -107q-369 0 -576 165.5t-207 469.5q0 303 205.5 469t562.5 166q361 0 560.5 -164.5t199.5 -484.5h-1403q2 -132 51.5 -231.5t138 -160t206 -90.5t262.5 -30zM946 1120
q-172 0 -304 -43.5t-221.5 -142t-111.5 -244.5h1266q-17 145 -102.5 243t-218 142.5t-308.5 44.5z" />
    <glyph glyph-name="eacute" unicode="&#xe9;" horiz-adv-x="1884" 
d="M586 1509l743 164v-110l-743 -164v110zM961 68q481 0 591 294h131q-52 -189 -236.5 -296t-485.5 -107q-369 0 -576 165.5t-207 469.5q0 303 205.5 469t562.5 166q361 0 560.5 -164.5t199.5 -484.5h-1403q2 -132 51.5 -231.5t138 -160t206 -90.5t262.5 -30zM946 1120
q-172 0 -304 -43.5t-221.5 -142t-111.5 -244.5h1266q-17 145 -102.5 243t-218 142.5t-308.5 44.5z" />
    <glyph glyph-name="ecircumflex" unicode="&#xea;" horiz-adv-x="1884" 
d="M1327 1495v-115l-369 164l-368 -164v115l368 164zM961 68q481 0 591 294h131q-52 -189 -236.5 -296t-485.5 -107q-369 0 -576 165.5t-207 469.5q0 303 205.5 469t562.5 166q361 0 560.5 -164.5t199.5 -484.5h-1403q2 -132 51.5 -231.5t138 -160t206 -90.5t262.5 -30z
M946 1120q-172 0 -304 -43.5t-221.5 -142t-111.5 -244.5h1266q-17 145 -102.5 243t-218 142.5t-308.5 44.5z" />
    <glyph glyph-name="edieresis" unicode="&#xeb;" horiz-adv-x="1884" 
d="M635 1563h182v-136h-182v136zM1100 1563h182v-136h-182v136zM961 68q481 0 591 294h131q-52 -189 -236.5 -296t-485.5 -107q-369 0 -576 165.5t-207 469.5q0 303 205.5 469t562.5 166q361 0 560.5 -164.5t199.5 -484.5h-1403q2 -132 51.5 -231.5t138 -160t206 -90.5
t262.5 -30zM946 1120q-172 0 -304 -43.5t-221.5 -142t-111.5 -244.5h1266q-17 145 -102.5 243t-218 142.5t-308.5 44.5z" />
    <glyph glyph-name="igrave" unicode="&#xec;" horiz-adv-x="522" 
d="M-111 1673l742 -164v-110l-742 164v110zM199 0v1188h125v-1188h-125z" />
    <glyph glyph-name="iacute" unicode="&#xed;" horiz-adv-x="522" 
d="M-111 1399v110l742 164v-110zM199 0v1188h125v-1188h-125z" />
    <glyph glyph-name="icircumflex" unicode="&#xee;" horiz-adv-x="522" 
d="M-109 1495l369 164l371 -164v-115l-371 164l-369 -164v115zM324 0h-125v1188h125v-1188z" />
    <glyph glyph-name="idieresis" unicode="&#xef;" horiz-adv-x="522" 
d="M-63 1427v136h184v-136h-184zM401 1427v136h183v-136h-183zM199 0v1188h125v-1188h-125z" />
    <glyph glyph-name="ntilde" unicode="&#xf1;" horiz-adv-x="1888" 
d="M784 1577q-170 0 -170 -199h-125q0 40 8 79.5t28.5 81.5t52 74t83.5 52.5t117 20.5q70 0 127 -22.5t96 -54.5t75.5 -64t83.5 -54.5t102 -22.5q170 0 170 197h124q0 -40 -8 -79.5t-28.5 -81.5t-51.5 -73.5t-82 -52t-116 -20.5q-70 0 -127 22.5t-96.5 55t-76 64.5t-84 54.5
t-102.5 22.5zM1028 1229q161 0 279 -33.5t205 -109t131.5 -203t46.5 -310.5v-573h-119v561q0 300 -132.5 429.5t-426.5 129.5q-145 0 -272 -42t-221 -118t-148 -190.5t-54 -251.5v-518h-118v1188h118v-332q97 179 282 276t429 97z" />
    <glyph glyph-name="ograve" unicode="&#xf2;" horiz-adv-x="1906" 
d="M582 1673l741 -164v-110l-741 164v110zM952 -41q-234 0 -407.5 73t-270 217t-96.5 345t96.5 345t270 217t407.5 73q235 0 409.5 -73t271 -217t96.5 -345t-96.5 -345t-271 -217t-409.5 -73zM952 68q297 0 474.5 135t177.5 391t-177.5 391t-474.5 135q-194 0 -338.5 -57
t-227.5 -177t-83 -292t83 -292t227.5 -177t338.5 -57z" />
    <glyph glyph-name="oacute" unicode="&#xf3;" horiz-adv-x="1906" 
d="M582 1399v110l741 164v-110zM952 -41q-234 0 -407.5 73t-270 217t-96.5 345t96.5 345t270 217t407.5 73q235 0 409.5 -73t271 -217t96.5 -345t-96.5 -345t-271 -217t-409.5 -73zM952 68q297 0 474.5 135t177.5 391t-177.5 391t-474.5 135q-194 0 -338.5 -57t-227.5 -177
t-83 -292t83 -292t227.5 -177t338.5 -57z" />
    <glyph glyph-name="ocircumflex" unicode="&#xf4;" horiz-adv-x="1906" 
d="M1323 1495v-115l-371 164l-368 -164v115l368 164zM952 1229q235 0 409.5 -73t271 -217t96.5 -345t-96.5 -345t-271 -217t-409.5 -73q-234 0 -407.5 73t-270 217t-96.5 345t96.5 345t270 217t407.5 73zM952 68q297 0 474.5 135t177.5 391t-177.5 391t-474.5 135
q-194 0 -338.5 -57t-227.5 -177t-83 -292t83 -292t227.5 -177t338.5 -57z" />
    <glyph glyph-name="otilde" unicode="&#xf5;" horiz-adv-x="1906" 
d="M545 1378h-125q0 40 8 79.5t28.5 81.5t52 74t82.5 52.5t116 20.5q70 0 127 -22.5t96 -54.5t76 -64t84 -54.5t102 -22.5q88 0 129 52.5t41 144.5h125q0 -40 -8 -79.5t-28.5 -81.5t-52 -73.5t-83.5 -52t-117 -20.5q-70 0 -126.5 22.5t-95.5 55t-75.5 64.5t-83.5 54.5
t-102 22.5q-170 0 -170 -199zM952 -41q-234 0 -407.5 73t-270 217t-96.5 345t96.5 345t270 217t407.5 73q235 0 409.5 -73t271 -217t96.5 -345t-96.5 -345t-271 -217t-409.5 -73zM952 68q297 0 474.5 135t177.5 391t-177.5 391t-474.5 135q-194 0 -338.5 -57t-227.5 -177
t-83 -292t83 -292t227.5 -177t338.5 -57z" />
    <glyph glyph-name="odieresis" unicode="&#xf6;" horiz-adv-x="1906" 
d="M629 1427v136h184v-136h-184zM1094 1427v136h182v-136h-182zM952 -41q-234 0 -407.5 73t-270 217t-96.5 345t96.5 345t270 217t407.5 73q235 0 409.5 -73t271 -217t96.5 -345t-96.5 -345t-271 -217t-409.5 -73zM952 68q297 0 474.5 135t177.5 391t-177.5 391t-474.5 135
q-194 0 -338.5 -57t-227.5 -177t-83 -292t83 -292t227.5 -177t338.5 -57z" />
    <glyph glyph-name="divide" unicode="&#xf7;" horiz-adv-x="1925" 
d="M881 1024v133h149v-133h-149zM199 641v111h1527v-111h-1527zM881 236v133h149v-133h-149z" />
    <glyph glyph-name="oslash" unicode="&#xf8;" horiz-adv-x="1906" 
d="M1280 1485l-84 -279q252 -52 392.5 -209.5t140.5 -402.5q0 -201 -96.5 -345t-271 -217t-409.5 -73q-66 0 -127 6l-77 -262h-123l84 279q-251 54 -391 210.5t-140 401.5q0 201 96.5 345t270 217t407.5 73q65 0 127 -6l78 262h123zM303 594q0 -207 116 -335t320 -171
l308 1028q-62 4 -95 4q-194 0 -338.5 -57t-227.5 -177t-83 -292zM952 68q297 0 474.5 135t177.5 391q0 207 -116.5 335t-322.5 171l-307 -1028q62 -4 94 -4z" />
    <glyph glyph-name="ugrave" unicode="&#xf9;" horiz-adv-x="1888" 
d="M596 1563v110l741 -164v-110zM1571 670v518h119v-1188h-119v332q-97 -179 -282 -276t-429 -97q-128 0 -228 20.5t-182 68t-136 122.5t-83.5 186t-31.5 258v574h118v-561q0 -299 132 -429t425 -130q146 0 273 42t221.5 118t148.5 190.5t54 251.5z" />
    <glyph glyph-name="uacute" unicode="&#xfa;" horiz-adv-x="1888" 
d="M596 1399v110l741 164v-110zM1571 670v518h119v-1188h-119v332q-97 -179 -282 -276t-429 -97q-128 0 -228 20.5t-182 68t-136 122.5t-83.5 186t-31.5 258v574h118v-561q0 -299 132 -429t425 -130q146 0 273 42t221.5 118t148.5 190.5t54 251.5z" />
    <glyph glyph-name="ucircumflex" unicode="&#xfb;" horiz-adv-x="1888" 
d="M967 1659l370 -164v-115l-370 164l-369 -164v115zM1571 670v518h119v-1188h-119v332q-97 -179 -282 -276t-429 -97q-128 0 -228 20.5t-182 68t-136 122.5t-83.5 186t-31.5 258v574h118v-561q0 -299 132 -429t425 -130q146 0 273 42t221.5 118t148.5 190.5t54 251.5z" />
    <glyph glyph-name="udieresis" unicode="&#xfc;" horiz-adv-x="1888" 
d="M643 1427v136h184v-136h-184zM1108 1427v136h182v-136h-182zM1571 670v518h119v-1188h-119v332q-97 -179 -282 -276t-429 -97q-128 0 -228 20.5t-182 68t-136 122.5t-83.5 186t-31.5 258v574h118v-561q0 -299 132 -429t425 -130q146 0 273 42t221.5 118t148.5 190.5
t54 251.5z" />
    <glyph glyph-name="yacute" unicode="&#xfd;" horiz-adv-x="1916" 
d="M608 1509l742 164v-110l-742 -164v110zM965 57l639 1131h137l-731 -1288q-109 -191 -159 -258q-97 -126 -216 -159q-53 -15 -117 -15q-114 0 -301 32v109q188 -33 287 -33q45 0 82.5 9t71.5 32t59.5 46.5t57 70t54 83.5t60.5 105l43 78h-72l-682 1188h137z" />
    <glyph glyph-name="thorn" unicode="&#xfe;" horiz-adv-x="1898" 
d="M981 1229q160 0 295.5 -44.5t234.5 -126.5t155 -205t56 -273q0 -120 -36 -220.5t-102 -174t-158 -124.5t-204.5 -76.5t-240.5 -25.5q-231 0 -400 72.5t-257 216.5v-713h-125v2103h125v-720q88 152 258 231.5t399 79.5zM961 68q295 0 464.5 133.5t169.5 378.5
q0 249 -171 394.5t-463 145.5q-296 0 -466.5 -142t-170.5 -398q0 -253 168.5 -382.5t468.5 -129.5z" />
    <glyph glyph-name="ydieresis" unicode="&#xff;" horiz-adv-x="1916" 
d="M655 1563h185v-136h-185v136zM1120 1563h183v-136h-183v136zM965 57l639 1131h137l-731 -1288q-109 -191 -159 -258q-97 -126 -216 -159q-53 -15 -117 -15q-114 0 -301 32v109q188 -33 287 -33q45 0 82.5 9t71.5 32t59.5 46.5t57 70t54 83.5t60.5 105l43 78h-72
l-682 1188h137z" />
    <glyph glyph-name="Amacron" unicode="&#x100;" horiz-adv-x="2205" 
d="M676 1808h852v-108h-852v108zM2030 0h-138l-217 367h-1145l-217 -367h-135l852 1434h146zM1104 1333l-508 -856h1014z" />
    <glyph glyph-name="amacron" unicode="&#x101;" horiz-adv-x="1855" 
d="M545 1563h852v-109h-852v109zM1006 1229q340 0 504 -125t167 -404v-700h-118v160q-113 -47 -188 -75t-183.5 -61.5t-216.5 -49t-221 -15.5q-302 0 -441 104.5t-139 307.5q0 113 51.5 195.5t147 131t218 71t277.5 22.5q306 0 695 -117v53q0 393 -560 393q-311 0 -686 -116
l-47 100q384 125 740 125zM770 68q304 0 789 200v293q-118 35 -197.5 56t-221 43t-272.5 22q-75 0 -141.5 -6t-133 -19t-118.5 -37t-93 -57.5t-63 -83t-22 -110.5q0 -160 117 -230.5t356 -70.5z" />
    <glyph glyph-name="Abreve" unicode="&#x102;" horiz-adv-x="2205" 
d="M1102 1624q-100 0 -173.5 16.5t-130 54t-85.5 104t-29 161.5h113q0 -70 21.5 -117.5t65 -72t95 -34.5t123.5 -10q73 0 125 10t95 34.5t65 72t22 117.5h113q0 -95 -29 -161.5t-86.5 -104t-131 -54t-173.5 -16.5zM2030 0h-138l-217 367h-1145l-217 -367h-135l852 1434h146z
M1104 1333l-508 -856h1014z" />
    <glyph glyph-name="abreve" unicode="&#x103;" horiz-adv-x="1855" 
d="M973 1378q-100 0 -173.5 16.5t-131 54t-86.5 104t-29 161.5h113q0 -70 22 -117.5t65 -72t95 -34t125 -9.5q57 0 100.5 5.5t83.5 21t65.5 41t40.5 67t15 98.5h113q0 -95 -29 -161.5t-85.5 -104t-130 -54t-173.5 -16.5zM1006 1229q340 0 504 -125t167 -404v-700h-118v160
q-113 -47 -188 -75t-183.5 -61.5t-216.5 -49t-221 -15.5q-302 0 -441 104.5t-139 307.5q0 113 51.5 195.5t147 131t218 71t277.5 22.5q306 0 695 -117v53q0 393 -560 393q-311 0 -686 -116l-47 100q384 125 740 125zM770 68q304 0 789 200v293q-118 35 -197.5 56t-221 43
t-272.5 22q-75 0 -141.5 -6t-133 -19t-118.5 -37t-93 -57.5t-63 -83t-22 -110.5q0 -160 117 -230.5t356 -70.5z" />
    <glyph glyph-name="Aogonek" unicode="&#x104;" horiz-adv-x="2205" 
d="M1782 -209q0 -166 248 -166v-110q-373 0 -373 231q0 92 66 154.5t169 99.5l-217 367h-1145l-217 -367h-135l852 1434h146l854 -1434q-44 -13 -73.5 -24t-65.5 -29.5t-57.5 -38.5t-36.5 -50.5t-15 -66.5zM1104 1333l-508 -856h1014z" />
    <glyph glyph-name="aogonek" unicode="&#x105;" horiz-adv-x="1898" 
d="M1006 1229q340 0 504 -125t167 -404v-700h-2q-41 -6 -82 -22t-79.5 -42t-62.5 -66t-24 -87q0 -76 68 -117t180 -41v-110q-169 0 -270.5 56t-101.5 171q0 163 253 258h3v160q-113 -47 -188 -75t-183.5 -61.5t-216.5 -49t-221 -15.5q-302 0 -441 104.5t-139 307.5
q0 113 51.5 195.5t147 131t218 71t277.5 22.5q306 0 695 -117v53q0 393 -560 393q-311 0 -686 -116l-47 100q384 125 740 125zM770 68q304 0 789 200v293q-118 35 -197.5 56t-221 43t-272.5 22q-75 0 -141.5 -6t-133 -19t-118.5 -37t-93 -57.5t-63 -83t-22 -110.5
q0 -160 117 -230.5t356 -70.5z" />
    <glyph glyph-name="Cacute" unicode="&#x106;" horiz-adv-x="2039" 
d="M668 1645v110l743 164v-111zM178 719q0 171 59 311t170 238.5t276 152.5t370 54q175 0 322 -44t247 -120t161.5 -174.5t78.5 -212.5h-125q-13 68 -46 130.5t-90.5 119.5t-133.5 99.5t-183 67.5t-231 25q-357 0 -553.5 -173t-196.5 -474q0 -302 197 -476.5t553 -174.5
q154 0 279.5 38t207 102.5t131 142t66.5 163.5h127q-18 -114 -80 -214t-162 -176.5t-247 -120.5t-322 -44q-411 0 -643 206t-232 554z" />
    <glyph glyph-name="cacute" unicode="&#x107;" horiz-adv-x="1851" 
d="M584 1399v110l741 164v-110zM178 594q0 304 204 469.5t568 165.5q297 0 483.5 -112t241.5 -324h-131q-103 327 -594 327q-113 0 -209.5 -19t-177.5 -59.5t-138.5 -101.5t-89.5 -149t-32 -197t32 -197t89.5 -149t138.5 -101.5t177.5 -59.5t209.5 -19q491 0 594 327h131
q-55 -212 -241.5 -324t-483.5 -112q-364 0 -568 165.5t-204 469.5z" />
    <glyph glyph-name="Cdotaccent" unicode="&#x10a;" horiz-adv-x="2039" 
d="M948 1673v135h185v-135h-185zM178 719q0 171 59 311t170 238.5t276 152.5t370 54q175 0 322 -44t247 -120t161.5 -174.5t78.5 -212.5h-125q-13 68 -46 130.5t-90.5 119.5t-133.5 99.5t-183 67.5t-231 25q-357 0 -553.5 -173t-196.5 -474q0 -302 197 -476.5t553 -174.5
q154 0 279.5 38t207 102.5t131 142t66.5 163.5h127q-18 -114 -80 -214t-162 -176.5t-247 -120.5t-322 -44q-411 0 -643 206t-232 554z" />
    <glyph glyph-name="cdotaccent" unicode="&#x10b;" horiz-adv-x="1851" 
d="M864 1427v136h183v-136h-183zM178 594q0 304 204 469.5t568 165.5q297 0 483.5 -112t241.5 -324h-131q-103 327 -594 327q-113 0 -209.5 -19t-177.5 -59.5t-138.5 -101.5t-89.5 -149t-32 -197t32 -197t89.5 -149t138.5 -101.5t177.5 -59.5t209.5 -19q491 0 594 327h131
q-55 -212 -241.5 -324t-483.5 -112q-364 0 -568 165.5t-204 469.5z" />
    <glyph glyph-name="Ccaron" unicode="&#x10c;" horiz-adv-x="2039" 
d="M1409 1901v-115l-369 -164l-368 164v115l368 -164zM1737 514h127q-18 -114 -80 -214t-162 -176.5t-247 -120.5t-322 -44q-411 0 -643 206t-232 554q0 171 59 311t170 238.5t276 152.5t370 54q175 0 322 -44t247 -120t161.5 -174.5t78.5 -212.5h-125q-13 68 -46 130.5
t-90.5 119.5t-133.5 99.5t-183 67.5t-231 25q-357 0 -553.5 -173t-196.5 -474q0 -302 197 -476.5t553 -174.5q154 0 279.5 38t207 102.5t131 142t66.5 163.5z" />
    <glyph glyph-name="ccaron" unicode="&#x10d;" horiz-adv-x="1851" 
d="M1325 1655v-115l-371 -164l-368 164v115l368 -164zM950 68q491 0 594 327h131q-55 -212 -241.5 -324t-483.5 -112q-364 0 -568 165.5t-204 469.5t204 469.5t568 165.5q297 0 483.5 -112t241.5 -324h-131q-103 327 -594 327q-113 0 -209.5 -19t-177.5 -59.5t-138.5 -101.5
t-89.5 -149t-32 -197t32 -197t89.5 -149t138.5 -101.5t177.5 -59.5t209.5 -19z" />
    <glyph glyph-name="Dcaron" unicode="&#x10e;" horiz-adv-x="2002" 
d="M868 1737l369 164v-115l-369 -164l-368 164v115zM199 1434h901q148 0 277 -44.5t230 -130.5t159.5 -225.5t58.5 -316.5t-58.5 -316.5t-159.5 -225.5t-230 -130.5t-277 -44.5h-901v1434zM317 1325v-1216h727q315 0 485.5 153t170.5 455t-170.5 455t-485.5 153h-727z" />
    <glyph glyph-name="dcaron" unicode="&#x10f;" horiz-adv-x="2195" 
d="M1575 907v731h119v-1638h-119v281q-81 -155 -250 -238.5t-414 -83.5q-340 0 -536.5 167.5t-196.5 467.5t196.5 467.5t536.5 167.5q245 0 414 -83.5t250 -238.5zM1841 1505v133h150v-133l-86 -315h-64l60 315h-60zM934 68q190 0 333.5 59t225.5 179t82 288t-82 288
t-225.5 179t-333.5 59q-288 0 -459.5 -137t-171.5 -389t171.5 -389t459.5 -137z" />
    <glyph glyph-name="Dcroat" unicode="&#x110;" horiz-adv-x="2115" 
d="M311 1434h901q118 0 224.5 -27.5t198.5 -85t159.5 -141t106 -202.5t38.5 -261t-38.5 -261t-106 -202.5t-159.5 -141t-198.5 -85t-224.5 -27.5h-901v676h-182v82h182v676zM430 676v-567h727q316 0 485.5 152.5t169.5 455.5t-169.5 455.5t-485.5 152.5h-727v-567h574v-82
h-574z" />
    <glyph glyph-name="dcroat" unicode="&#x111;" horiz-adv-x="2000" 
d="M1694 1460h151v-108h-151v-1352h-119v281q-81 -155 -250 -238.5t-414 -83.5q-340 0 -536.5 167.5t-196.5 467.5t196.5 467.5t536.5 167.5q245 0 414 -83.5t250 -238.5v445h-594v108h594v178h119v-178zM934 68q190 0 333.5 59t225.5 179t82 288t-82 288t-225.5 179
t-333.5 59q-288 0 -459.5 -137t-171.5 -389t171.5 -389t459.5 -137z" />
    <glyph glyph-name="Emacron" unicode="&#x112;" horiz-adv-x="1781" 
d="M1325 1700h-850v108h850v-108zM199 0v1434h1405v-109h-1287v-553h1246v-110h-1246v-553h1287v-109h-1405z" />
    <glyph glyph-name="emacron" unicode="&#x113;" horiz-adv-x="1884" 
d="M532 1563h850v-109h-850v109zM961 68q481 0 591 294h131q-52 -189 -236.5 -296t-485.5 -107q-369 0 -576 165.5t-207 469.5q0 303 205.5 469t562.5 166q361 0 560.5 -164.5t199.5 -484.5h-1403q2 -132 51.5 -231.5t138 -160t206 -90.5t262.5 -30zM946 1120
q-172 0 -304 -43.5t-221.5 -142t-111.5 -244.5h1266q-17 145 -102.5 243t-218 142.5t-308.5 44.5z" />
    <glyph glyph-name="Edotaccent" unicode="&#x116;" horiz-adv-x="1781" 
d="M993 1673h-184v135h184v-135zM199 0v1434h1405v-109h-1287v-553h1246v-110h-1246v-553h1287v-109h-1405z" />
    <glyph glyph-name="edotaccent" unicode="&#x117;" horiz-adv-x="1884" 
d="M866 1563h185v-136h-185v136zM961 68q481 0 591 294h131q-52 -189 -236.5 -296t-485.5 -107q-369 0 -576 165.5t-207 469.5q0 303 205.5 469t562.5 166q361 0 560.5 -164.5t199.5 -484.5h-1403q2 -132 51.5 -231.5t138 -160t206 -90.5t262.5 -30zM946 1120
q-172 0 -304 -43.5t-221.5 -142t-111.5 -244.5h1266q-17 145 -102.5 243t-218 142.5t-308.5 44.5z" />
    <glyph glyph-name="Eogonek" unicode="&#x118;" horiz-adv-x="1781" 
d="M1479 0h-1280v1434h1405v-109h-1287v-553h1246v-110h-1246v-553h1287v-109h-27q-99 -21 -160 -70.5t-61 -134.5t67 -127.5t181 -42.5v-110q-111 0 -192 23.5t-131 79.5t-50 142q0 88 66 150.5t182 89.5z" />
    <glyph glyph-name="eogonek" unicode="&#x119;" horiz-adv-x="1884" 
d="M961 68q481 0 591 294h131q-39 -140 -151.5 -236.5t-292.5 -137.5q-127 -38 -182.5 -85.5t-55.5 -113.5q0 -78 76.5 -114.5t245.5 -36.5v-109q-232 0 -339 51t-107 174q0 143 198 209q-74 -4 -114 -4q-369 0 -576 165.5t-207 469.5q0 303 205.5 469t562.5 166
q361 0 560.5 -164.5t199.5 -484.5h-1403q2 -132 51.5 -231.5t138 -160t206 -90.5t262.5 -30zM946 1120q-172 0 -304 -43.5t-221.5 -142t-111.5 -244.5h1266q-17 145 -102.5 243t-218 142.5t-308.5 44.5z" />
    <glyph glyph-name="Ecaron" unicode="&#x11a;" horiz-adv-x="1781" 
d="M532 1901l369 -164l369 164v-115l-369 -164l-369 164v115zM199 0v1434h1405v-109h-1287v-553h1246v-110h-1246v-553h1287v-109h-1405z" />
    <glyph glyph-name="ecaron" unicode="&#x11b;" horiz-adv-x="1884" 
d="M1327 1655v-115l-369 -164l-368 164v115l368 -164zM961 68q481 0 591 294h131q-52 -189 -236.5 -296t-485.5 -107q-369 0 -576 165.5t-207 469.5q0 303 205.5 469t562.5 166q361 0 560.5 -164.5t199.5 -484.5h-1403q2 -132 51.5 -231.5t138 -160t206 -90.5t262.5 -30z
M946 1120q-172 0 -304 -43.5t-221.5 -142t-111.5 -244.5h1266q-17 145 -102.5 243t-218 142.5t-308.5 44.5z" />
    <glyph glyph-name="Gbreve" unicode="&#x11e;" horiz-adv-x="2041" 
d="M633 1960h112q0 -70 22 -117.5t65.5 -72t95.5 -34.5t125 -10q72 0 123.5 10t95 34.5t65 72t21.5 117.5h112q0 -95 -28.5 -161.5t-85.5 -104t-130 -54t-173 -16.5t-173.5 16.5t-131 54t-86.5 104t-29 161.5zM178 717q0 227 109.5 399.5t308 265.5t457.5 93
q184 0 334.5 -46.5t247.5 -125t154.5 -175t74.5 -204.5h-125q-10 60 -38.5 119t-84 118.5t-130.5 104t-187.5 72.5t-245.5 28q-162 0 -293 -40.5t-214 -106t-139.5 -152t-80 -174t-23.5 -176.5t23 -176.5t79.5 -174t139.5 -152t213.5 -106t292.5 -40.5q213 0 363.5 39.5
t324.5 130.5v344h-715v110h840v-506q-211 -121 -394 -174t-419 -53q-258 0 -456 93t-307.5 265.5t-109.5 399.5z" />
    <glyph glyph-name="gbreve" unicode="&#x11f;" horiz-adv-x="1892" 
d="M940 1378q-100 0 -173.5 16.5t-130 54t-85.5 104t-29 161.5h113q0 -57 15 -98.5t40.5 -67t65.5 -41t83.5 -21t100.5 -5.5q73 0 125 9.5t95 34t65 72t22 117.5h113q0 -95 -29 -161.5t-86.5 -104t-131 -54t-173.5 -16.5zM1575 909v279h119v-1112q0 -148 -36 -257.5
t-115.5 -189.5t-213 -120.5t-321.5 -40.5q-81 0 -154.5 3t-155 10t-127.5 12t-147 17.5t-139 16.5v106q30 -4 131 -16t144 -16.5t123.5 -12t150.5 -10t145 -2.5q142 0 245.5 22t170.5 63t107.5 106.5t56.5 143.5t16 183v185q-81 -154 -247 -237t-408 -83q-225 0 -391.5 73
t-258.5 217t-92 345t92 345t258.5 217t391.5 73q242 0 408 -83t247 -237zM940 68q189 0 331 59t223 179t81 288t-81 288t-223 179t-331 59q-290 0 -463.5 -137t-173.5 -389t173.5 -389t463.5 -137z" />
    <glyph glyph-name="Gdotaccent" unicode="&#x120;" horiz-adv-x="2041" 
d="M961 1673v135h182v-135h-182zM178 717q0 227 109.5 399.5t308 265.5t457.5 93q184 0 334.5 -46.5t247.5 -125t154.5 -175t74.5 -204.5h-125q-10 60 -38.5 119t-84 118.5t-130.5 104t-187.5 72.5t-245.5 28q-162 0 -293 -40.5t-214 -106t-139.5 -152t-80 -174
t-23.5 -176.5t23 -176.5t79.5 -174t139.5 -152t213.5 -106t292.5 -40.5q213 0 363.5 39.5t324.5 130.5v344h-715v110h840v-506q-211 -121 -394 -174t-419 -53q-258 0 -456 93t-307.5 265.5t-109.5 399.5z" />
    <glyph glyph-name="gdotaccent" unicode="&#x121;" horiz-adv-x="1892" 
d="M850 1563h182v-136h-182v136zM1575 909v279h119v-1112q0 -148 -36 -257.5t-115.5 -189.5t-213 -120.5t-321.5 -40.5q-81 0 -154.5 3t-155 10t-127.5 12t-147 17.5t-139 16.5v106q30 -4 131 -16t144 -16.5t123.5 -12t150.5 -10t145 -2.5q142 0 245.5 22t170.5 63
t107.5 106.5t56.5 143.5t16 183v185q-81 -154 -247 -237t-408 -83q-225 0 -391.5 73t-258.5 217t-92 345t92 345t258.5 217t391.5 73q242 0 408 -83t247 -237zM940 68q189 0 331 59t223 179t81 288t-81 288t-223 179t-331 59q-290 0 -463.5 -137t-173.5 -389t173.5 -389
t463.5 -137z" />
    <glyph glyph-name="uni0122" unicode="&#x122;" horiz-adv-x="2041" 
d="M178 717q0 227 109.5 399.5t308 265.5t457.5 93q184 0 334.5 -46.5t247.5 -125t154.5 -175t74.5 -204.5h-125q-10 60 -38.5 119t-84 118.5t-130.5 104t-187.5 72.5t-245.5 28q-162 0 -293 -40.5t-214 -106t-139.5 -152t-80 -174t-23.5 -176.5t23 -176.5t79.5 -174
t139.5 -152t213.5 -106t292.5 -40.5q213 0 363.5 39.5t324.5 130.5v344h-715v110h840v-506q-211 -121 -394 -174t-419 -53q-258 0 -456 93t-307.5 265.5t-109.5 399.5zM989 -305v133h156v-133l-98 -207h-68l74 207h-64z" />
    <glyph glyph-name="uni0123" unicode="&#x123;" horiz-adv-x="1892" 
d="M950 1595h64v-133h-156v133l98 207h66zM1575 909v279h119v-1112q0 -148 -36 -257.5t-115.5 -189.5t-213 -120.5t-321.5 -40.5q-81 0 -154.5 3t-155 10t-127.5 12t-147 17.5t-139 16.5v106q30 -4 131 -16t144 -16.5t123.5 -12t150.5 -10t145 -2.5q142 0 245.5 22t170.5 63
t107.5 106.5t56.5 143.5t16 183v185q-81 -154 -247 -237t-408 -83q-225 0 -391.5 73t-258.5 217t-92 345t92 345t258.5 217t391.5 73q242 0 408 -83t247 -237zM940 68q189 0 331 59t223 179t81 288t-81 288t-223 179t-331 59q-290 0 -463.5 -137t-173.5 -389t173.5 -389
t463.5 -137z" />
    <glyph glyph-name="Hbar" unicode="&#x126;" horiz-adv-x="2150" 
d="M1772 1434h118v-232h158v-110h-158v-1092h-118v662h-1393v-662h-119v1092h-158v110h158v232h119v-232h1393v232zM1772 1092h-1393v-320h1393v320z" />
    <glyph glyph-name="hbar" unicode="&#x127;" horiz-adv-x="1990" 
d="M1130 1229q161 0 279 -33.5t205 -109t131.5 -203t46.5 -310.5v-573h-119v561q0 300 -132.5 429.5t-426.5 129.5q-145 0 -271.5 -42t-220.5 -118t-148 -190.5t-54 -251.5v-518h-119v1352h-143v108h143v178h119v-178h600v-108h-600v-496q97 179 281.5 276t428.5 97z" />
    <glyph glyph-name="Imacron" unicode="&#x12a;" horiz-adv-x="514" 
d="M-37 1700v108h586v-108h-586zM199 1434h118v-1434h-118v1434z" />
    <glyph glyph-name="imacron" unicode="&#x12b;" horiz-adv-x="522" 
d="M-166 1454v109h852v-109h-852zM199 0v1188h125v-1188h-125z" />
    <glyph glyph-name="Iogonek" unicode="&#x12e;" horiz-adv-x="516" 
d="M119 -205q0 -85 67 -127.5t181 -42.5v-110q-111 0 -192 23.5t-131 79.5t-50 142q0 144 199 240v1434h118v-1434q-34 -14 -54.5 -24t-50 -29t-46 -38.5t-29 -49t-12.5 -64.5z" />
    <glyph glyph-name="iogonek" unicode="&#x12f;" horiz-adv-x="522" 
d="M129 1563h182v-136h-182v136zM131 -205q0 -85 66.5 -127.5t181.5 -42.5v-110q-111 0 -192.5 23.5t-132 79.5t-50.5 142q0 142 195 240v1188h125v-1188q-34 -14 -54.5 -24t-50.5 -29t-46.5 -38.5t-29 -49t-12.5 -64.5z" />
    <glyph glyph-name="Idotaccent" unicode="&#x130;" horiz-adv-x="514" 
d="M166 1673v135h182v-135h-182zM199 1434h118v-1434h-118v1434z" />
    <glyph glyph-name="dotlessi" unicode="&#x131;" horiz-adv-x="522" 
d="M199 0v1188h125v-1188h-125z" />
    <glyph glyph-name="uni0136" unicode="&#x136;" horiz-adv-x="1968" 
d="M1595 1434h197l-834 -617l834 -817h-172l-758 745l-545 -403v-342h-118v1434h118v-945zM907 -315l72 77l-31 -67zM973 -305l-88 -131l-27 67l49 54h33z" />
    <glyph glyph-name="uni0137" unicode="&#x137;" horiz-adv-x="1783" 
d="M1393 1188h215l-725 -477l725 -711h-176l-650 643l-465 -305v-338h-118v1638h118v-1161zM829 -305h-63v133h156v-133l-99 -207h-67z" />
    <glyph glyph-name="Lacute" unicode="&#x139;" horiz-adv-x="1673" 
d="M199 1645v110l741 164v-111zM199 1434h118v-1325h1178v-109h-1296v1434z" />
    <glyph glyph-name="lacute" unicode="&#x13a;" horiz-adv-x="514" 
d="M-115 1849v111l742 164v-111zM199 0v1638h118v-1638h-118z" />
    <glyph glyph-name="uni013B" unicode="&#x13b;" horiz-adv-x="1673" 
d="M199 1434h118v-1325h1178v-109h-1296v1434zM766 -512l74 207h-64v133h156v-133l-98 -207h-68z" />
    <glyph glyph-name="uni013C" unicode="&#x13c;" horiz-adv-x="514" 
d="M199 0v1638h118v-1638h-118zM184 -305v133h156v-133l-100 -207h-66l72 207h-62z" />
    <glyph glyph-name="Lcaron" unicode="&#x13d;" horiz-adv-x="1673" 
d="M199 1434h118v-1325h1178v-109h-1296v1434zM1249 1393v-133l-100 -207h-66l72 207h-61v133h155z" />
    <glyph glyph-name="lcaron" unicode="&#x13e;" horiz-adv-x="706" 
d="M199 0v1638h118v-1638h-118zM457 1464v133h155v-133l-100 -207h-66l72 207h-61z" />
    <glyph glyph-name="Lslash" unicode="&#x141;" horiz-adv-x="2021" 
d="M1239 981l-717 -356v-516h1178v-109h-1297v565l-233 -116v122l233 115v748h119v-689l717 359v-123z" />
    <glyph glyph-name="lslash" unicode="&#x142;" horiz-adv-x="894" 
d="M504 942l268 129v-119l-268 -129v-823h-119v766l-262 -125v119l262 125v753h119v-696z" />
    <glyph glyph-name="Nacute" unicode="&#x143;" horiz-adv-x="2052" 
d="M668 1645v110l741 164v-111zM367 1434l1368 -1319v1319h118v-1434h-167l-1369 1319v-1319h-118v1434h168z" />
    <glyph glyph-name="nacute" unicode="&#x144;" horiz-adv-x="1888" 
d="M1393 1563l-742 -164v110l742 164v-110zM317 0h-118v1188h118v-332q97 179 282 276t429 97q161 0 279 -33.5t205 -109t131.5 -203t46.5 -310.5v-573h-119v561q0 300 -132.5 429.5t-426.5 129.5q-145 0 -272 -42t-221 -118t-148 -190.5t-54 -251.5v-518z" />
    <glyph glyph-name="uni0145" unicode="&#x145;" horiz-adv-x="2052" 
d="M367 1434l1368 -1319v1319h118v-1434h-167l-1369 1319v-1319h-118v1434h168zM930 -512l71 207h-63v133h156v-133l-99 -207h-65z" />
    <glyph glyph-name="uni0146" unicode="&#x146;" horiz-adv-x="1888" 
d="M1028 1229q161 0 279 -33.5t205 -109t131.5 -203t46.5 -310.5v-573h-119v561q0 300 -132.5 429.5t-426.5 129.5q-145 0 -272 -42t-221 -118t-148 -190.5t-54 -251.5v-518h-118v1188h118v-332q97 179 282 276t429 97zM924 -512l2 131l2 76l-33 65l74 68l82 -66l-56 -198z
" />
    <glyph glyph-name="Ncaron" unicode="&#x147;" horiz-adv-x="2052" 
d="M670 1901l370 -164l369 164v-115l-369 -164l-370 164v115zM199 1434h168l1368 -1319v1319h118v-1434h-167l-1369 1319v-1319h-118v1434z" />
    <glyph glyph-name="ncaron" unicode="&#x148;" horiz-adv-x="1888" 
d="M883 1544l368 55l142 15l-228 -182l-370 53l-142 96zM1028 1229q161 0 279 -33.5t205 -109t131.5 -203t46.5 -310.5v-573h-119v561q0 300 -132.5 429.5t-426.5 129.5q-145 0 -272 -42t-221 -118t-148 -190.5t-54 -251.5v-518h-118v1188h118v-332q97 179 282 276t429 97z
" />
    <glyph glyph-name="Eng" unicode="&#x14a;" horiz-adv-x="2052" 
d="M367 1434l1368 -1319v1319h118v-1434q0 -130 -22 -222t-75.5 -163t-150 -106t-239.5 -35q-181 0 -362 51v106q99 -25 175 -36t185 -11q208 0 286.5 92.5t78.5 323.5h-43l-1369 1319v-1319h-118v1434h168z" />
    <glyph glyph-name="eng" unicode="&#x14b;" horiz-adv-x="1888" 
d="M1028 1229q161 0 279 -33.5t205 -109t131.5 -203t46.5 -310.5v-573q0 -129 -22 -219.5t-75.5 -158.5t-148.5 -101t-236 -33q-180 0 -362 45v98q189 -41 319 -41q113 0 186 17.5t124.5 63.5t73.5 125.5t22 203.5v561q0 300 -132.5 429.5t-426.5 129.5q-145 0 -272 -42
t-221 -118t-148 -190.5t-54 -251.5v-518h-118v1188h118v-332q97 179 282 276t429 97z" />
    <glyph glyph-name="Omacron" unicode="&#x14c;" horiz-adv-x="2115" 
d="M631 1700v108h852v-108h-852zM1059 -41q-420 0 -650.5 205t-230.5 555q0 349 230.5 552.5t650.5 203.5q210 0 376.5 -54t276.5 -153t168.5 -238.5t58.5 -310.5q0 -349 -231 -554.5t-649 -205.5zM1059 68q356 0 554.5 173.5t198.5 477.5q0 303 -198 475t-555 172
q-358 0 -557 -171.5t-199 -475.5q0 -305 199.5 -478t556.5 -173z" />
    <glyph glyph-name="omacron" unicode="&#x14d;" horiz-adv-x="1906" 
d="M526 1454v109h852v-109h-852zM952 -41q-234 0 -407.5 73t-270 217t-96.5 345t96.5 345t270 217t407.5 73q235 0 409.5 -73t271 -217t96.5 -345t-96.5 -345t-271 -217t-409.5 -73zM952 68q297 0 474.5 135t177.5 391t-177.5 391t-474.5 135q-194 0 -338.5 -57t-227.5 -177
t-83 -292t83 -292t227.5 -177t338.5 -57z" />
    <glyph glyph-name="Ohungarumlaut" unicode="&#x150;" horiz-adv-x="2115" 
d="M655 1651v114l396 164v-114zM1147 1651v114l397 164v-114zM1059 -41q-420 0 -650.5 205t-230.5 555q0 349 230.5 552.5t650.5 203.5q210 0 376.5 -54t276.5 -153t168.5 -238.5t58.5 -310.5q0 -349 -231 -554.5t-649 -205.5zM1059 68q356 0 554.5 173.5t198.5 477.5
q0 303 -198 475t-555 172q-358 0 -557 -171.5t-199 -475.5q0 -305 199.5 -478t556.5 -173z" />
    <glyph glyph-name="ohungarumlaut" unicode="&#x151;" horiz-adv-x="1906" 
d="M549 1405v115l397 163v-114zM1042 1405v115l396 163v-114zM952 -41q-234 0 -407.5 73t-270 217t-96.5 345t96.5 345t270 217t407.5 73q235 0 409.5 -73t271 -217t96.5 -345t-96.5 -345t-271 -217t-409.5 -73zM952 68q297 0 474.5 135t177.5 391t-177.5 391t-474.5 135
q-194 0 -338.5 -57t-227.5 -177t-83 -292t83 -292t227.5 -177t338.5 -57z" />
    <glyph glyph-name="OE" unicode="&#x152;" horiz-adv-x="3426" 
d="M1841 1434h1407v-109h-1288v-553h1247v-110h-1247v-553h1288v-109h-1407v340q-98 -181 -298.5 -281t-483.5 -100q-420 0 -650.5 205t-230.5 555q0 349 230.5 552.5t650.5 203.5q282 0 482.5 -99.5t299.5 -277.5v336zM1059 68q356 0 554.5 173.5t198.5 477.5
q0 303 -198 475t-555 172q-358 0 -557 -171.5t-199 -475.5q0 -305 199.5 -478t556.5 -173z" />
    <glyph glyph-name="oe" unicode="&#x153;" horiz-adv-x="3330" 
d="M2406 68q482 0 592 294h131q-52 -189 -237 -296t-486 -107q-277 0 -465 94.5t-266 274.5q-79 -179 -267.5 -274t-455.5 -95q-234 0 -407.5 73t-270 217t-96.5 345t96.5 345t270 217t407.5 73q267 0 455.5 -95t267.5 -274q78 179 263.5 274t453.5 95q361 0 560.5 -164.5
t199.5 -484.5h-1403q2 -132 51.5 -231.5t138 -160t205.5 -90.5t262 -30zM952 68q297 0 474.5 135t177.5 391t-177.5 391t-474.5 135q-194 0 -338.5 -57t-227.5 -177t-83 -292t83 -292t227.5 -177t338.5 -57zM2392 1120q-172 0 -304 -43.5t-221.5 -142t-111.5 -244.5h1266
q-17 145 -102.5 243t-218 142.5t-308.5 44.5z" />
    <glyph glyph-name="Racute" unicode="&#x154;" horiz-adv-x="1935" 
d="M535 1645v110l741 164v-111zM1473 651q104 -15 163.5 -83t59.5 -177v-391h-119v371q0 101 -54.5 148.5t-164.5 47.5h-1041v-567h-118v1434h983q534 0 534 -412q0 -282 -243 -371zM1161 1325h-844v-647h844q211 0 320.5 74t109.5 256q0 94 -29.5 157.5t-88.5 97.5
t-133.5 48t-178.5 14z" />
    <glyph glyph-name="racute" unicode="&#x155;" horiz-adv-x="1390" 
d="M338 1509l741 164v-110l-741 -164v110zM913 1229q166 0 334 -41v-109q-163 41 -329 41q-142 0 -285.5 -52.5t-315.5 -197.5v-870h-118v1188h118v-205q147 141 290 193.5t306 52.5z" />
    <glyph glyph-name="uni0156" unicode="&#x156;" horiz-adv-x="1935" 
d="M1473 651q104 -15 163.5 -83t59.5 -177v-391h-119v371q0 101 -54.5 148.5t-164.5 47.5h-1041v-567h-118v1434h983q534 0 534 -412q0 -282 -243 -371zM1161 1325h-844v-647h844q211 0 320.5 74t109.5 256q0 94 -29.5 157.5t-88.5 97.5t-133.5 48t-178.5 14zM897 -512
l74 207h-64v133h156v-133l-98 -207h-68z" />
    <glyph glyph-name="uni0157" unicode="&#x157;" horiz-adv-x="1390" 
d="M913 1229q166 0 334 -41v-109q-163 41 -329 41q-142 0 -285.5 -52.5t-315.5 -197.5v-870h-118v1188h118v-205q147 141 290 193.5t306 52.5zM246 -305h-62v133h156v-133l-100 -207h-66z" />
    <glyph glyph-name="Rcaron" unicode="&#x158;" horiz-adv-x="1935" 
d="M905 1737l371 164v-115l-371 -164l-368 164v115zM1473 651q104 -15 163.5 -83t59.5 -177v-391h-119v371q0 101 -54.5 148.5t-164.5 47.5h-1041v-567h-118v1434h983q534 0 534 -412q0 -282 -243 -371zM1161 1325h-844v-647h844q211 0 320.5 74t109.5 256q0 94 -29.5 157.5
t-88.5 97.5t-133.5 48t-178.5 14z" />
    <glyph glyph-name="rcaron" unicode="&#x159;" horiz-adv-x="1390" 
d="M1079 1655v-115l-370 -164l-369 164v115l369 -164zM913 1229q166 0 334 -41v-109q-163 41 -329 41q-142 0 -285.5 -52.5t-315.5 -197.5v-870h-118v1188h118v-205q147 141 290 193.5t306 52.5z" />
    <glyph glyph-name="Sacute" unicode="&#x15a;" horiz-adv-x="2037" 
d="M647 1645v110l742 164v-111zM164 479h125q0 -225 183 -318t609 -93q340 0 504 72.5t164 242.5q0 35 -5 63t-17.5 52t-28.5 42.5t-44.5 34t-58 26.5t-77 21t-93 16.5t-114.5 13t-133.5 11t-157.5 9.5q-156 9 -270 23t-205 36.5t-150 53.5t-98 75.5t-55.5 100t-16.5 129.5
q0 211 192 298t593 87q400 0 601 -122t201 -374h-124q0 214 -174 300.5t-545 86.5q-334 0 -476.5 -64.5t-142.5 -216.5q0 -44 8 -78t27.5 -62t45 -48.5t69 -37t90 -28t117 -21t142 -15.5t171.5 -13q116 -8 179.5 -12.5t155 -13.5t139.5 -18.5t113 -25.5t98 -35.5t71.5 -47
t56 -62.5t29.5 -80t12 -100q0 -100 -39 -175t-106.5 -123t-171.5 -77.5t-221.5 -41t-268.5 -11.5q-182 0 -320 15.5t-249.5 52.5t-183 96.5t-110 148t-40.5 207.5z" />
    <glyph glyph-name="sacute" unicode="&#x15b;" horiz-adv-x="1898" 
d="M575 1399v110l742 164v-110zM178 377h125q27 -172 197.5 -240.5t517.5 -68.5q222 0 347 25.5t177.5 78t52.5 143.5q0 37 -5.5 65t-21.5 50t-37 37.5t-58 27.5t-79.5 20t-107 15.5t-133 13t-165.5 12.5q-9 1 -14.5 1t-13 1t-14.5 1q-135 10 -228.5 20.5t-178.5 28
t-137.5 41t-92.5 57.5t-56.5 80t-16.5 107q0 79 34 138.5t93.5 96.5t150.5 60t193 32t233 9q166 0 284.5 -15t218.5 -54t157 -112t73 -182h-125q-14 77 -61.5 128t-131 78t-183 37.5t-242.5 10.5q-302 0 -436 -51.5t-134 -171.5q0 -40 11 -68.5t43 -51t72.5 -37t119.5 -27.5
t161.5 -22t219.5 -21q307 -27 376 -38q203 -30 282 -102q75 -71 75 -204q0 -199 -168.5 -283t-527.5 -84q-143 0 -254.5 9.5t-221 36.5t-184 72.5t-125 121t-61.5 178.5z" />
    <glyph glyph-name="Scedilla" unicode="&#x15e;" horiz-adv-x="2037" 
d="M1067 -41h-35l-28 -133q80 37 174 37q84 0 139 -39t55 -121q0 -71 -46.5 -118.5t-124.5 -67t-179 -23t-209 13.5v97q124 -18 220.5 -19.5t155 27.5t58.5 88q0 41 -30 64.5t-78 25.5q-79 3 -164 -37l-96 27l34 182q-188 8 -322.5 38.5t-231.5 91t-145 156t-50 230.5h125
q0 -225 183 -318t609 -93q340 0 504 72.5t164 242.5q0 35 -5 63t-17.5 52t-28.5 42.5t-44.5 34t-58 26.5t-77 21t-93 16.5t-114.5 13t-133.5 11t-157.5 9.5q-156 9 -270 23t-205 36.5t-150 53.5t-98 75.5t-55.5 100t-16.5 129.5q0 211 192 298t593 87q400 0 601 -122
t201 -374h-124q0 214 -174 300.5t-545 86.5q-334 0 -476.5 -64.5t-142.5 -216.5q0 -44 8 -78t27.5 -62t45 -48.5t69 -37t90 -28t117 -21t142 -15.5t171.5 -13q116 -8 179.5 -12.5t155 -13.5t139.5 -18.5t113 -25.5t98 -35.5t71.5 -47t56 -62.5t29.5 -80t12 -100
q0 -100 -39 -175t-106.5 -123t-171.5 -77.5t-221.5 -41t-268.5 -11.5z" />
    <glyph glyph-name="scedilla" unicode="&#x15f;" horiz-adv-x="1898" 
d="M1024 -41h-66l-26 -133q80 37 172 37q86 0 141 -39t55 -121q0 -70 -47 -118t-125 -67.5t-178.5 -23t-208.5 13.5v97q123 -18 219.5 -19.5t156 27.5t59.5 88q0 41 -31.5 64.5t-79.5 25.5q-76 3 -164 -37l-96 27l37 182q-112 6 -202.5 21.5t-174 46t-142 75.5t-97 113.5
t-48.5 157.5h125q27 -172 197.5 -240.5t517.5 -68.5q222 0 347 25.5t177.5 78t52.5 143.5q0 37 -5.5 65t-21.5 50t-37 37.5t-58 27.5t-79.5 20t-107 15.5t-133 13t-165.5 12.5q-9 1 -14.5 1t-13 1t-14.5 1q-135 10 -228.5 20.5t-178.5 28t-137.5 41t-92.5 57.5t-56.5 80
t-16.5 107q0 79 34 138.5t93.5 96.5t150.5 60t193 32t233 9q166 0 284.5 -15t218.5 -54t157 -112t73 -182h-125q-14 77 -61.5 128t-131 78t-183 37.5t-242.5 10.5q-302 0 -436 -51.5t-134 -171.5q0 -40 11 -68.5t43 -51t72.5 -37t119.5 -27.5t161.5 -22t219.5 -21
q307 -27 376 -38q203 -30 282 -102q75 -71 75 -204q0 -199 -168.5 -283t-527.5 -84z" />
    <glyph glyph-name="Scaron" unicode="&#x160;" horiz-adv-x="2037" 
d="M1389 1901v-115l-369 -164l-371 164v115l371 -164zM1020 782q116 -8 179.5 -12.5t155 -13.5t139.5 -18.5t113 -25.5t98 -35.5t71.5 -47t56 -62.5t29.5 -80t12 -100q0 -100 -39 -175t-106.5 -123t-171.5 -77.5t-221.5 -41t-268.5 -11.5q-182 0 -320 15.5t-249.5 52.5
t-183 96.5t-110 148t-40.5 207.5h125q0 -225 183 -318t609 -93q340 0 504 72.5t164 242.5q0 35 -5 63t-17.5 52t-28.5 42.5t-44.5 34t-58 26.5t-77 21t-93 16.5t-114.5 13t-133.5 11t-157.5 9.5q-156 9 -270 23t-205 36.5t-150 53.5t-98 75.5t-55.5 100t-16.5 129.5
q0 211 192 298t593 87q400 0 601 -122t201 -374h-124q0 214 -174 300.5t-545 86.5q-334 0 -476.5 -64.5t-142.5 -216.5q0 -44 8 -78t27.5 -62t45 -48.5t69 -37t90 -28t117 -21t142 -15.5t171.5 -13z" />
    <glyph glyph-name="scaron" unicode="&#x161;" horiz-adv-x="1898" 
d="M1317 1655v-115l-371 -164l-368 164v115l368 -164zM987 670q307 -27 376 -38q203 -30 282 -102q75 -71 75 -204q0 -199 -168.5 -283t-527.5 -84q-143 0 -254.5 9.5t-221 36.5t-184 72.5t-125 121t-61.5 178.5h125q27 -172 197.5 -240.5t517.5 -68.5q222 0 347 25.5
t177.5 78t52.5 143.5q0 37 -5.5 65t-21.5 50t-37 37.5t-58 27.5t-79.5 20t-107 15.5t-133 13t-165.5 12.5q-9 1 -14.5 1t-13 1t-14.5 1q-135 10 -228.5 20.5t-178.5 28t-137.5 41t-92.5 57.5t-56.5 80t-16.5 107q0 79 34 138.5t93.5 96.5t150.5 60t193 32t233 9
q166 0 284.5 -15t218.5 -54t157 -112t73 -182h-125q-14 77 -61.5 128t-131 78t-183 37.5t-242.5 10.5q-302 0 -436 -51.5t-134 -171.5q0 -40 11 -68.5t43 -51t72.5 -37t119.5 -27.5t161.5 -22t219.5 -21z" />
    <glyph glyph-name="uni0162" unicode="&#x162;" horiz-adv-x="2007" 
d="M1829 1434v-109h-766v-1325h-4l-31 -154q83 37 176 37q85 0 140 -38.5t55 -120.5q0 -71 -46.5 -118.5t-124.5 -67t-179 -23t-209 13.5v96q124 -18 220.5 -19.5t155 27.5t58.5 88q0 41 -30.5 65t-78.5 26q-79 3 -164 -37l-96 26l43 199h-4v1325h-766v109h1651z" />
    <glyph glyph-name="uni0163" unicode="&#x163;" horiz-adv-x="1501" 
d="M1317 1188v-109h-658v-651q0 -79 8.5 -136.5t29 -97.5t47 -64.5t71 -38.5t92 -18.5t117.5 -4.5q107 0 293 28v-106q-194 -31 -309 -31q-45 0 -115 4l-29 -137q80 37 174 37q84 0 139.5 -39t55.5 -121q0 -71 -46.5 -118.5t-124.5 -67t-179 -23t-209 13.5v97
q124 -18 220.5 -19.5t155 27.5t58.5 88q0 41 -30.5 64.5t-78.5 25.5q-78 3 -163 -37l-97 27l39 199h10q-132 33 -189.5 134t-57.5 314v651h-377v109h377v313l118 55v-368h658z" />
    <glyph glyph-name="Tcaron" unicode="&#x164;" horiz-adv-x="2007" 
d="M1004 1737l368 164v-115l-368 -164l-369 164v115zM178 1434h1651v-109h-766v-1325h-119v1325h-766v109z" />
    <glyph glyph-name="tcaron" unicode="&#x165;" horiz-adv-x="1501" 
d="M1063 1495l-98 -207h-66l72 207h-64v133h156v-133zM1317 1188v-109h-658v-651q0 -79 8.5 -136.5t29 -97.5t47 -64.5t71 -38.5t92 -18.5t117.5 -4.5q107 0 293 28v-106q-194 -31 -309 -31q-103 0 -174 11.5t-130 41t-93 82.5t-52 135t-18 199v651h-377v109h377v313l118 55
v-368h658z" />
    <glyph glyph-name="Tbar" unicode="&#x166;" horiz-adv-x="2007" 
d="M178 1434h1651v-109h-766v-551h487v-108h-487v-666h-119v666h-487v108h487v551h-766v109z" />
    <glyph glyph-name="tbar" unicode="&#x167;" horiz-adv-x="1501" 
d="M1317 1188v-109h-658v-356h658v-109h-658v-186q0 -79 8.5 -136.5t29 -97.5t47 -64.5t71 -38.5t92 -18.5t117.5 -4.5q107 0 293 28v-106q-194 -31 -309 -31q-103 0 -174 11.5t-130 41t-93 82.5t-52 135t-18 199v186h-377v109h377v356h-377v109h377v313l118 55v-368h658z
" />
    <glyph glyph-name="Umacron" unicode="&#x16a;" horiz-adv-x="2062" 
d="M604 1700v108h852v-108h-852zM1864 1434v-736q0 -133 -26 -242t-87 -203t-155.5 -158t-237.5 -100t-328 -36q-155 0 -280.5 24.5t-216 72t-155.5 111.5t-104 148.5t-57 178t-18 204.5v736h118v-736q0 -71 7.5 -132.5t28 -127t54 -118.5t88.5 -101t128 -80.5t176.5 -51.5
t230.5 -19t231 19t177 51.5t128.5 81t89 101.5t54 118.5t28 126.5t7.5 132v736h119z" />
    <glyph glyph-name="umacron" unicode="&#x16b;" horiz-adv-x="1888" 
d="M541 1454v109h852v-109h-852zM1571 670v518h119v-1188h-119v332q-97 -179 -282 -276t-429 -97q-128 0 -228 20.5t-182 68t-136 122.5t-83.5 186t-31.5 258v574h118v-561q0 -299 132 -429t425 -130q146 0 273 42t221.5 118t148.5 190.5t54 251.5z" />
    <glyph glyph-name="Uring" unicode="&#x16e;" horiz-adv-x="2062" 
d="M1030 1583q-197 0 -291 60.5t-94 168.5q0 109 94 169.5t291 60.5q198 0 292.5 -60.5t94.5 -169.5q0 -108 -94.5 -168.5t-292.5 -60.5zM1030 1673q148 0 213.5 34.5t65.5 104.5t-66 106t-213 36q-146 0 -211 -36t-65 -106t64.5 -104.5t211.5 -34.5zM1864 1434v-736
q0 -133 -26 -242t-87 -203t-155.5 -158t-237.5 -100t-328 -36q-155 0 -280.5 24.5t-216 72t-155.5 111.5t-104 148.5t-57 178t-18 204.5v736h118v-736q0 -71 7.5 -132.5t28 -127t54 -118.5t88.5 -101t128 -80.5t176.5 -51.5t230.5 -19t231 19t177 51.5t128.5 81t89 101.5
t54 118.5t28 126.5t7.5 132v736h119z" />
    <glyph glyph-name="uring" unicode="&#x16f;" horiz-adv-x="1888" 
d="M967 1337q-196 0 -290.5 61t-94.5 169q0 109 94 169t291 60q198 0 292.5 -60t94.5 -169q0 -108 -94.5 -169t-292.5 -61zM967 1708q-146 0 -211.5 -35.5t-65.5 -105.5t65 -105t212 -35q148 0 213 35t65 105t-65 105.5t-213 35.5zM1571 670v518h119v-1188h-119v332
q-97 -179 -282 -276t-429 -97q-128 0 -228 20.5t-182 68t-136 122.5t-83.5 186t-31.5 258v574h118v-561q0 -299 132 -429t425 -130q146 0 273 42t221.5 118t148.5 190.5t54 251.5z" />
    <glyph glyph-name="Uhungarumlaut" unicode="&#x170;" horiz-adv-x="2062" 
d="M627 1651v114l397 164v-114zM1120 1651v114l396 164v-114zM1864 1434v-736q0 -133 -26 -242t-87 -203t-155.5 -158t-237.5 -100t-328 -36q-155 0 -280.5 24.5t-216 72t-155.5 111.5t-104 148.5t-57 178t-18 204.5v736h118v-736q0 -71 7.5 -132.5t28 -127t54 -118.5
t88.5 -101t128 -80.5t176.5 -51.5t230.5 -19t231 19t177 51.5t128.5 81t89 101.5t54 118.5t28 126.5t7.5 132v736h119z" />
    <glyph glyph-name="uhungarumlaut" unicode="&#x171;" horiz-adv-x="1888" 
d="M563 1405v115l398 163v-114zM1057 1405v115l395 163v-114zM1571 670v518h119v-1188h-119v332q-97 -179 -282 -276t-429 -97q-128 0 -228 20.5t-182 68t-136 122.5t-83.5 186t-31.5 258v574h118v-561q0 -299 132 -429t425 -130q146 0 273 42t221.5 118t148.5 190.5
t54 251.5z" />
    <glyph glyph-name="Uogonek" unicode="&#x172;" horiz-adv-x="2088" 
d="M1745 698v736h119v-736q0 -568 -486 -698h2q-150 -39 -215 -89.5t-65 -121.5q0 -79 76 -115t245 -36v-109q-234 0 -340 48t-106 169q0 150 207 219q-70 -6 -152 -6q-155 0 -280.5 24.5t-216 72t-155.5 111.5t-104 148.5t-57 178t-18 204.5v736h118v-736q0 -71 7.5 -132.5
t28 -127t54 -118.5t88.5 -101t128 -80.5t176.5 -51.5t230.5 -19t231 19t177 51.5t128.5 81t89 101.5t54 118.5t28 126.5t7.5 132z" />
    <glyph glyph-name="uogonek" unicode="&#x173;" horiz-adv-x="1888" 
d="M1571 1188h119v-1188q-41 -6 -82 -22t-79.5 -42t-62.5 -66t-24 -87q0 -76 68 -117t180 -41v-110q-168 0 -270.5 59t-102.5 176q0 46 20.5 86t58.5 70t81 52t98 42h-4v332q-97 -179 -282 -276t-429 -97q-161 0 -279.5 33.5t-206 108.5t-131.5 203t-44 310v574h118v-561
q0 -299 132 -429t425 -130q146 0 273 42t221.5 118t148.5 190.5t54 251.5v518z" />
    <glyph glyph-name="Wcircumflex" unicode="&#x174;" horiz-adv-x="3219" 
d="M1978 1741v-115l-368 164l-371 -164v115l371 164zM2329 123l583 1311h129l-641 -1434h-143l-649 1343l-660 -1343h-145l-625 1434h129l570 -1313l647 1313h170z" />
    <glyph glyph-name="wcircumflex" unicode="&#x175;" horiz-adv-x="2922" 
d="M1831 1495v-115l-371 164l-368 -164v115l368 164zM2095 96l522 1092h129l-567 -1188h-164l-553 1075l-555 -1075h-164l-565 1188h127l522 -1094l559 1094h150z" />
    <glyph glyph-name="Ycircumflex" unicode="&#x176;" horiz-adv-x="2189" 
d="M1462 1741v-115l-368 164l-369 -164v115l369 164zM1094 590l757 844h160l-854 -953v-481h-127v481l-852 953h158z" />
    <glyph glyph-name="ycircumflex" unicode="&#x177;" horiz-adv-x="1916" 
d="M1350 1495v-115l-371 164l-369 -164v115l369 164zM965 57l639 1131h137l-731 -1288q-109 -191 -159 -258q-97 -126 -216 -159q-53 -15 -117 -15q-114 0 -301 32v109q188 -33 287 -33q45 0 82.5 9t71.5 32t59.5 46.5t57 70t54 83.5t60.5 105l43 78h-72l-682 1188h137z" />
    <glyph glyph-name="Ydieresis" unicode="&#x178;" horiz-adv-x="2189" 
d="M770 1808h182v-135h-182v135zM1235 1808h182v-135h-182v135zM1094 590l757 844h160l-854 -953v-481h-127v481l-852 953h158z" />
    <glyph glyph-name="Zacute" unicode="&#x179;" horiz-adv-x="1904" 
d="M580 1755l743 164v-111l-743 -163v110zM199 1434h1507v-109l-1327 -1216h1327v-109h-1507v109l1327 1216h-1327v109z" />
    <glyph glyph-name="zacute" unicode="&#x17a;" horiz-adv-x="1708" 
d="M481 1509l744 164v-110l-744 -164v110zM199 1188h1310v-109l-1124 -970h1124v-109h-1310v109l1124 970h-1124v109z" />
    <glyph glyph-name="Zdotaccent" unicode="&#x17b;" horiz-adv-x="1904" 
d="M860 1808h184v-135h-184v135zM199 1434h1507v-109l-1327 -1216h1327v-109h-1507v109l1327 1216h-1327v109z" />
    <glyph glyph-name="zdotaccent" unicode="&#x17c;" horiz-adv-x="1708" 
d="M762 1563h184v-136h-184v136zM199 1188h1310v-109l-1124 -970h1124v-109h-1310v109l1124 970h-1124v109z" />
    <glyph glyph-name="Zcaron" unicode="&#x17d;" horiz-adv-x="1904" 
d="M1321 1901v-115l-369 -164l-368 164v115l368 -164zM199 1434h1507v-109l-1327 -1216h1327v-109h-1507v109l1327 1216h-1327v109z" />
    <glyph glyph-name="zcaron" unicode="&#x17e;" horiz-adv-x="1708" 
d="M1223 1655v-115l-369 -164l-369 164v115l369 -164zM199 1188h1310v-109l-1124 -970h1124v-109h-1310v109l1124 970h-1124v109z" />
    <glyph glyph-name="uni0218" unicode="&#x218;" horiz-adv-x="2037" 
d="M164 479h125q0 -225 183 -318t609 -93q340 0 504 72.5t164 242.5q0 35 -5 63t-17.5 52t-28.5 42.5t-44.5 34t-58 26.5t-77 21t-93 16.5t-114.5 13t-133.5 11t-157.5 9.5q-156 9 -270 23t-205 36.5t-150 53.5t-98 75.5t-55.5 100t-16.5 129.5q0 211 192 298t593 87
q400 0 601 -122t201 -374h-124q0 214 -174 300.5t-545 86.5q-334 0 -476.5 -64.5t-142.5 -216.5q0 -44 8 -78t27.5 -62t45 -48.5t69 -37t90 -28t117 -21t142 -15.5t171.5 -13q116 -8 179.5 -12.5t155 -13.5t139.5 -18.5t113 -25.5t98 -35.5t71.5 -47t56 -62.5t29.5 -80
t12 -100q0 -100 -39 -175t-106.5 -123t-171.5 -77.5t-221.5 -41t-268.5 -11.5q-182 0 -320 15.5t-249.5 52.5t-183 96.5t-110 148t-40.5 207.5zM946 -326v133h156v-133l-101 -206h-65l72 206h-62z" />
    <glyph glyph-name="uni0219" unicode="&#x219;" horiz-adv-x="1898" 
d="M178 377h125q27 -172 197.5 -240.5t517.5 -68.5q222 0 347 25.5t177.5 78t52.5 143.5q0 37 -5.5 65t-21.5 50t-37 37.5t-58 27.5t-79.5 20t-107 15.5t-133 13t-165.5 12.5q-9 1 -14.5 1t-13 1t-14.5 1q-135 10 -228.5 20.5t-178.5 28t-137.5 41t-92.5 57.5t-56.5 80
t-16.5 107q0 79 34 138.5t93.5 96.5t150.5 60t193 32t233 9q166 0 284.5 -15t218.5 -54t157 -112t73 -182h-125q-14 77 -61.5 128t-131 78t-183 37.5t-242.5 10.5q-302 0 -436 -51.5t-134 -171.5q0 -40 11 -68.5t43 -51t72.5 -37t119.5 -27.5t161.5 -22t219.5 -21
q307 -27 376 -38q203 -30 282 -102q75 -71 75 -204q0 -199 -168.5 -283t-527.5 -84q-143 0 -254.5 9.5t-221 36.5t-184 72.5t-125 121t-61.5 178.5zM872 -326v133h156v-133l-98 -206h-66l72 206h-64z" />
    <glyph glyph-name="uni021A" unicode="&#x21a;" horiz-adv-x="2007" 
d="M178 1434h1651v-109h-766v-1325h-119v1325h-766v109zM920 -512l73 207h-63v133h155v-133l-98 -207h-67z" />
    <glyph glyph-name="uni021B" unicode="&#x21b;" horiz-adv-x="1501" 
d="M1317 1188v-109h-658v-651q0 -79 8.5 -136.5t29 -97.5t47 -64.5t71 -38.5t92 -18.5t117.5 -4.5q107 0 293 28v-106q-194 -31 -309 -31q-103 0 -174 11.5t-130 41t-93 82.5t-52 135t-18 199v651h-377v109h377v313l118 55v-368h658zM905 -305h-63v133h155v-133l-98 -207
h-68z" />
    <glyph glyph-name="circumflex" unicode="&#x2c6;" horiz-adv-x="1134" 
d="M199 1495l368 164l369 -164v-115l-369 164l-368 -164v115z" />
    <glyph glyph-name="caron" unicode="&#x2c7;" horiz-adv-x="1134" 
d="M199 1655l368 -164l369 164v-115l-369 -164l-368 164v115z" />
    <glyph glyph-name="breve" unicode="&#x2d8;" horiz-adv-x="1232" 
d="M199 1714h110q0 -57 15.5 -98.5t41 -67t66 -41t84 -21t100.5 -5.5t100.5 5.5t84 21t66.5 41t41.5 67t15.5 98.5h110q0 -95 -29 -161.5t-85.5 -104t-130 -54t-173.5 -16.5t-173 16.5t-130 54t-85.5 104t-28.5 161.5z" />
    <glyph glyph-name="dotaccent" unicode="&#x2d9;" horiz-adv-x="579" 
d="M199 1427v136h182v-136h-182z" />
    <glyph glyph-name="ring" unicode="&#x2da;" horiz-adv-x="1169" 
d="M584 1337q-196 0 -290.5 61t-94.5 169q0 109 94 169t291 60q198 0 292.5 -60t94.5 -169q0 -108 -94.5 -169t-292.5 -61zM584 1427q148 0 213 35t65 105t-65 105.5t-213 35.5q-146 0 -211.5 -35.5t-65.5 -105.5t65 -105t212 -35z" />
    <glyph glyph-name="ogonek" unicode="&#x2db;" horiz-adv-x="843" 
d="M645 -362v-109q-232 0 -339 51t-107 174q0 68 44 125.5t138 120.5h92q-2 -2 -18.5 -15t-21 -16.5t-19.5 -16.5t-20.5 -19t-17.5 -19t-17.5 -22t-13.5 -22.5t-11.5 -25t-6.5 -26t-3 -29.5q0 -79 76 -115t245 -36z" />
    <glyph glyph-name="tilde" unicode="&#x2dc;" horiz-adv-x="1464" 
d="M324 1378h-125q0 40 8 79.5t28.5 81.5t51.5 74t82 52.5t116 20.5q70 0 127 -22.5t96.5 -54.5t76 -64t84 -54.5t102.5 -22.5q88 0 129 52.5t41 144.5h125q0 -40 -8 -79.5t-28.5 -81.5t-52 -73.5t-83.5 -52t-117 -20.5q-70 0 -126.5 22.5t-95.5 55t-75.5 64.5t-83.5 54.5
t-102 22.5q-170 0 -170 -199z" />
    <glyph glyph-name="hungarumlaut" unicode="&#x2dd;" horiz-adv-x="1284" 
d="M199 1405v115l395 163v-114zM690 1405v115l397 163v-114z" />
    <glyph glyph-name="gravecomb" unicode="&#x300;" 
d="M-981 1673l741 -164v-110l-741 164v110z" />
    <glyph glyph-name="acutecomb" unicode="&#x301;" 
d="M-940 1399v110l741 164v-110z" />
    <glyph glyph-name="uni0302" unicode="&#x302;" 
d="M-936 1495l369 164l368 -164v-115l-368 164l-369 -164v115z" />
    <glyph glyph-name="tildecomb" unicode="&#x303;" 
d="M-1141 1378h-125q0 40 8 79.5t28.5 81.5t52 74t82.5 52.5t116 20.5q70 0 127 -22.5t96 -54.5t76 -64t84 -54.5t102 -22.5q88 0 129 52.5t41 144.5h125q0 -40 -8 -79.5t-28.5 -81.5t-52 -73.5t-83 -52t-116.5 -20.5q-70 0 -127 22.5t-96 55t-75.5 64.5t-83.5 54.5
t-102 22.5q-170 0 -170 -199z" />
    <glyph glyph-name="uni0304" unicode="&#x304;" 
d="M-1049 1454v109h850v-109h-850z" />
    <glyph glyph-name="uni0306" unicode="&#x306;" 
d="M-1034 1714h110q0 -57 15.5 -98.5t41.5 -67t66.5 -41t84 -21t100.5 -5.5t100.5 5.5t84 21t66 41t41 67t15.5 98.5h110q0 -95 -28.5 -161.5t-85.5 -104t-130 -54t-173 -16.5t-173.5 16.5t-130 54t-85.5 104t-29 161.5z" />
    <glyph glyph-name="uni0307" unicode="&#x307;" 
d="M-381 1427v136h182v-136h-182z" />
    <glyph glyph-name="uni0308" unicode="&#x308;" 
d="M-844 1427v136h182v-136h-182zM-381 1427v136h184v-136h-184z" />
    <glyph glyph-name="uni030A" unicode="&#x30a;" 
d="M-586 1337q-196 0 -290.5 61t-94.5 169q0 109 94 169t291 60q198 0 292.5 -60t94.5 -169q0 -108 -94.5 -169t-292.5 -61zM-586 1427q148 0 213.5 35t65.5 105t-65.5 105.5t-213.5 35.5q-146 0 -211 -35.5t-65 -105.5t65 -105t211 -35z" />
    <glyph glyph-name="uni030B" unicode="&#x30b;" 
d="M-1085 1405v115l395 163v-114zM-594 1405v115l397 163v-114z" />
    <glyph glyph-name="uni030C" unicode="&#x30c;" 
d="M-936 1655l369 -164l368 164v-115l-368 -164l-369 164v115z" />
    <glyph glyph-name="uni0312" unicode="&#x312;" 
d="M-207 1595v-133h-155v133l98 207h65l-71 -207h63z" />
    <glyph glyph-name="uni0326" unicode="&#x326;" 
d="M-354 -305v133h155v-133l-98 -207h-65l71 207h-63z" />
    <glyph glyph-name="uni0327" unicode="&#x327;" 
d="M-395 -117q86 0 141 -38.5t55 -120.5q0 -70 -47 -118t-125 -67.5t-178.5 -23t-208.5 13.5v96q123 -18 219.5 -19.5t155.5 27.5t59 88q0 41 -31 65t-79 26q-76 3 -164 -37l-96 26l41 199h116l-30 -154q80 37 172 37z" />
    <glyph glyph-name="uni0328" unicode="&#x328;" 
d="M-199 -362v-109q-232 0 -339 51t-107 174q0 68 44 125.5t138 120.5h92q-2 -2 -18.5 -15t-21 -16.5t-19.5 -16.5t-20.5 -19t-17.5 -19t-17.5 -22t-13.5 -22.5t-11.5 -25t-6.5 -26t-3 -29.5q0 -79 76 -115t245 -36z" />
    <glyph glyph-name="uni0335" unicode="&#x335;" 
d="M-1071 641v111h872v-111h-872z" />
    <glyph glyph-name="uni0336" unicode="&#x336;" 
d="M-2136 641v111h1937v-111h-1937z" />
    <glyph glyph-name="uni0337" unicode="&#x337;" 
d="M-319 1475h120l-532 -1782h-121z" />
    <glyph glyph-name="uni0338" unicode="&#x338;" 
d="M-319 1542h120l-532 -1782h-121z" />
    <glyph glyph-name="Wgrave" unicode="&#x1e80;" horiz-adv-x="3219" 
d="M1237 1919l741 -164v-110l-741 163v111zM2329 123l583 1311h129l-641 -1434h-143l-649 1343l-660 -1343h-145l-625 1434h129l570 -1313l647 1313h170z" />
    <glyph glyph-name="wgrave" unicode="&#x1e81;" horiz-adv-x="2922" 
d="M1090 1673l741 -164v-110l-741 164v110zM2095 96l522 1092h129l-567 -1188h-164l-553 1075l-555 -1075h-164l-565 1188h127l522 -1094l559 1094h150z" />
    <glyph glyph-name="Wacute" unicode="&#x1e82;" horiz-adv-x="3219" 
d="M1237 1755l741 164v-111l-741 -163v110zM2329 123l583 1311h129l-641 -1434h-143l-649 1343l-660 -1343h-145l-625 1434h129l570 -1313l647 1313h170z" />
    <glyph glyph-name="wacute" unicode="&#x1e83;" horiz-adv-x="2922" 
d="M1090 1509l741 164v-110l-741 -164v110zM2095 96l522 1092h129l-567 -1188h-164l-553 1075l-555 -1075h-164l-565 1188h127l522 -1094l559 1094h150z" />
    <glyph glyph-name="Wdieresis" unicode="&#x1e84;" horiz-adv-x="3219" 
d="M1286 1808h182v-135h-182v135zM1749 1808h184v-135h-184v135zM2329 123l583 1311h129l-641 -1434h-143l-649 1343l-660 -1343h-145l-625 1434h129l570 -1313l647 1313h170z" />
    <glyph glyph-name="wdieresis" unicode="&#x1e85;" horiz-adv-x="2922" 
d="M1137 1563h184v-136h-184v136zM1602 1563h182v-136h-182v136zM2095 96l522 1092h129l-567 -1188h-164l-553 1075l-555 -1075h-164l-565 1188h127l522 -1094l559 1094h150z" />
    <glyph glyph-name="Ygrave" unicode="&#x1ef2;" horiz-adv-x="2189" 
d="M721 1919l743 -164v-110l-743 163v111zM1094 590l757 844h160l-854 -953v-481h-127v481l-852 953h158z" />
    <glyph glyph-name="ygrave" unicode="&#x1ef3;" horiz-adv-x="1916" 
d="M608 1673l742 -164v-110l-742 164v110zM965 57l639 1131h137l-731 -1288q-109 -191 -159 -258q-97 -126 -216 -159q-53 -15 -117 -15q-114 0 -301 32v109q188 -33 287 -33q45 0 82.5 9t71.5 32t59.5 46.5t57 70t54 83.5t60.5 105l43 78h-72l-682 1188h137z" />
    <glyph glyph-name="endash" unicode="&#x2013;" horiz-adv-x="2416" 
d="M240 641v111h1937v-111h-1937z" />
    <glyph glyph-name="emdash" unicode="&#x2014;" horiz-adv-x="2826" 
d="M240 641v111h2347v-111h-2347z" />
    <glyph glyph-name="quoteleft" unicode="&#x2018;" horiz-adv-x="649" 
d="M342 901h-123l109 655h102z" />
    <glyph glyph-name="quoteright" unicode="&#x2019;" horiz-adv-x="649" 
d="M307 1556h123l-108 -655h-103z" />
    <glyph glyph-name="quotesinglbase" unicode="&#x201a;" horiz-adv-x="550" 
d="M184 0v133h150v-133l-86 -313h-64l60 313h-60z" />
    <glyph glyph-name="quotedblleft" unicode="&#x201c;" horiz-adv-x="1003" 
d="M342 901h-123l109 655h102zM696 901h-123l109 655h102z" />
    <glyph glyph-name="quotedblright" unicode="&#x201d;" horiz-adv-x="1003" 
d="M307 1556h123l-108 -655h-103zM662 1556h122l-108 -655h-103z" />
    <glyph glyph-name="quotedblbase" unicode="&#x201e;" horiz-adv-x="851" 
d="M244 0h-60v133h150v-133l-86 -313h-64zM485 0v133h148v-133l-84 -313h-64l58 313h-58z" />
    <glyph glyph-name="dagger" unicode="&#x2020;" horiz-adv-x="1746" 
d="M936 1188h614v-109h-614v-1386h-119v1386h-618v109h618v342h119v-342z" />
    <glyph glyph-name="daggerdbl" unicode="&#x2021;" horiz-adv-x="1746" 
d="M1550 1188v-109h-614v-676h614v-110h-614v-600h-119v600h-618v110h618v676h-618v109h618v342h119v-342h614z" />
    <glyph glyph-name="bullet" unicode="&#x2022;" horiz-adv-x="749" 
d="M375 522q-91 0 -133.5 30.5t-42.5 94.5t42.5 94.5t133.5 30.5q90 0 133 -30.5t43 -94.5t-43 -94.5t-133 -30.5z" />
    <glyph glyph-name="ellipsis" unicode="&#x2026;" horiz-adv-x="1411" 
d="M184 0v133h150v-133h-150zM614 0v133h150v-133h-150zM1044 0v133h150v-133h-150z" />
    <glyph glyph-name="perthousand" unicode="&#x2030;" horiz-adv-x="3876" 
d="M686 592q-106 0 -190.5 26.5t-139 70t-91 102t-51.5 119t-15 124.5t15 124t51.5 118.5t91 102t139.5 70t190 26.5q107 0 192.5 -26.5t140 -70t91 -102t51.5 -118.5t15 -124q0 -65 -15 -125t-51.5 -118.5t-91 -102t-140 -70t-192.5 -26.5zM1905 1434h151l-1212 -1434h-152
zM686 700q159 0 263 87.5t104 246.5t-104 245.5t-263 86.5q-157 0 -260.5 -86.5t-103.5 -245.5t103.5 -246.5t260.5 -87.5zM2060 -41q-106 0 -191.5 26.5t-140 70t-91 102t-51.5 119t-15 124.5t15 124t51.5 118.5t91 102t140 70t191.5 26.5t191.5 -26.5t140 -70t91 -102
t52 -118.5t15.5 -124t-15.5 -124.5t-52 -119t-91 -102t-140 -70t-191.5 -26.5zM3189 -41q-106 0 -191.5 26.5t-140 70t-91 102t-52 119t-15.5 124.5t15.5 124t52 118.5t91 102t140 70t191.5 26.5t191.5 -26.5t140 -70t91 -102t51.5 -118.5t15 -124t-15 -124.5t-51.5 -119
t-91 -102t-140 -70t-191.5 -26.5zM2060 68q159 0 263 87t104 246t-104 245.5t-263 86.5q-102 0 -183.5 -36t-132 -112.5t-50.5 -183.5q0 -159 104.5 -246t261.5 -87zM3189 68q159 0 262.5 87t103.5 246t-103.5 245.5t-262.5 86.5q-102 0 -183.5 -36t-132.5 -112.5
t-51 -183.5t51 -183.5t132.5 -113t183.5 -36.5z" />
    <glyph glyph-name="guilsinglleft" unicode="&#x2039;" horiz-adv-x="1097" 
d="M199 594l532 594h168l-532 -594l532 -594h-168z" />
    <glyph glyph-name="guilsinglright" unicode="&#x203a;" horiz-adv-x="1097" 
d="M199 1188h168l532 -594l-532 -594h-168l532 594z" />
    <glyph glyph-name="fraction" unicode="&#x2044;" horiz-adv-x="1054" 
d="M731 1475h121l-533 -1782h-120z" />
    <glyph glyph-name="Euro" unicode="&#x20ac;" horiz-adv-x="1802" 
d="M1077 1366q-488 0 -567 -448h856v-97h-868q-4 -66 -4 -102q0 -37 4 -103h868v-96h-858q40 -231 179.5 -341.5t389.5 -110.5q220 0 527 75v-108q-311 -76 -545 -76q-303 0 -470 146t-208 415h-182v96h172q-4 66 -4 103q0 36 4 102h-172v97h184q21 127 71.5 227.5t132 175
t201.5 114.5t271 40q234 0 545 -76v-109q-311 76 -527 76z" />
    <glyph glyph-name="trademark" unicode="&#x2122;" horiz-adv-x="2258" 
d="M500 1352h-357v82h801v-82h-358v-617h-86v617zM1167 735h-86v699h119l371 -625l371 625h118v-699h-86v584l-348 -584h-110l-349 584v-584z" />
    <glyph glyph-name="arrowleft" unicode="&#x2190;" horiz-adv-x="1720" 
d="M1522 772v-110h-1116l423 -453l-84 -84l-546 594l546 590l84 -84l-423 -453h1116z" />
    <glyph glyph-name="arrowup" unicode="&#x2191;" horiz-adv-x="1581" 
d="M846 1186v-1118h-111v1118l-452 -424l-84 84l589 547l594 -547l-84 -84z" />
    <glyph glyph-name="arrowright" unicode="&#x2192;" horiz-adv-x="1720" 
d="M1315 662h-1116v110h1116l-424 453l84 84l547 -590l-547 -594l-84 84z" />
    <glyph glyph-name="arrowdown" unicode="&#x2193;" horiz-adv-x="1581" 
d="M735 1393h111v-1117l452 422l84 -84l-594 -546l-589 546l84 84l452 -422v1117z" />
    <glyph glyph-name="arrowboth" unicode="&#x2194;" horiz-adv-x="2762" 
d="M2357 772l-424 453l84 84l547 -590l-547 -594l-84 84l424 453h-1951l423 -453l-84 -84l-546 594l546 590l84 -84l-423 -453h1951z" />
    <glyph glyph-name="arrowupdn" unicode="&#x2195;" horiz-adv-x="1581" 
d="M846 1376v-1427l452 424l84 -84l-594 -547l-589 547l84 84l452 -424v1427l-452 -424l-84 84l589 547l594 -547l-84 -84z" />
    <glyph glyph-name="uni2196" unicode="&#x2196;" horiz-adv-x="1404" 
d="M1206 295l-80 -80l-788 791l-21 -619l-118 -2l32 807l805 33v-119l-620 -23z" />
    <glyph glyph-name="uni2197" unicode="&#x2197;" horiz-adv-x="1404" 
d="M1067 1006l-791 -789l-77 78l788 790l-618 21v119l802 -31l35 -807h-119z" />
    <glyph glyph-name="uni2198" unicode="&#x2198;" horiz-adv-x="1404" 
d="M199 1139l80 78l788 -789l20 619h119l-35 -807l-802 -31v119l618 20z" />
    <glyph glyph-name="uni2199" unicode="&#x2199;" horiz-adv-x="1404" 
d="M338 428l788 789l80 -78l-790 -791l620 -20v-119l-805 31l-32 807h118z" />
    <glyph glyph-name="emptyset" unicode="&#x2205;" horiz-adv-x="2367" 
d="M2161 1622l-256 -256q247 -238 247 -647q0 -200 -62.5 -364t-182.5 -283t-304 -184.5t-417 -65.5q-394 0 -643 182l-264 -264l-72 72l258 258q-248 242 -248 649q0 199 63.5 363t184 282t304.5 183t417 65q394 0 641 -180l262 262zM340 719q0 -358 211 -563l1192 1192
q-216 153 -557 153q-398 0 -622 -206.5t-224 -575.5zM1186 -68q396 0 620 208.5t224 578.5q0 357 -209 563l-1194 -1194q220 -156 559 -156z" />
    <glyph glyph-name="product" unicode="&#x220f;" horiz-adv-x="2584" 
d="M199 1638h2187v-108h-510v-1837h-119v1837h-964v-1837h-119v1837h-475v108z" />
    <glyph glyph-name="minus" unicode="&#x2212;" horiz-adv-x="1925" 
d="M199 641v111h1527v-111h-1527z" />
    <glyph glyph-name="integral" unicode="&#x222b;" horiz-adv-x="2074" 
d="M199 -307v108q69 0 123.5 2.5t111 9t100.5 18t88 29.5t78 43t66.5 59t57 77.5t46 98t37.5 121.5t27 147l74 520q16 113 43 206.5t58 162.5t77.5 123t88.5 90t104 61t111.5 38.5t124 20.5t127 8.5t134.5 1.5v-108q-94 0 -164.5 -5.5t-145 -21t-129 -43t-106.5 -72.5
t-88.5 -108t-65 -152t-44.5 -202l-74 -520q-21 -149 -60 -263.5t-80 -190t-112 -126.5t-123.5 -77t-149.5 -39t-154 -15t-171 -2h-10z" />
    <glyph glyph-name="approxequal" unicode="&#x2248;" horiz-adv-x="1914" 
d="M324 737h-125q0 518 389 518q78 0 145 -22.5t116 -58.5t93.5 -80t85.5 -87.5t83.5 -79.5t97 -58.5t116.5 -22.5q147 0 206.5 103t59.5 306h125q0 -518 -391 -518q-77 0 -144 22.5t-115.5 59t-93 80t-86 87t-84 80t-97.5 59t-117 22.5q-75 0 -127.5 -28t-82 -83.5
t-42 -127.5t-12.5 -171zM324 82h-125q0 518 389 518q78 0 145 -22.5t116 -59t93.5 -80t85.5 -87t83.5 -80t97 -59t116.5 -22.5q147 0 206.5 103.5t59.5 306.5h125q0 -518 -391 -518q-77 0 -144 22.5t-115.5 59t-93 80t-86 87t-84 80t-97.5 59t-117 22.5q-75 0 -127.5 -28
t-82 -83.5t-42 -127.5t-12.5 -171z" />
    <glyph glyph-name="notequal" unicode="&#x2260;" horiz-adv-x="1925" 
d="M1726 1079v-110h-593l-164 -545h757v-111h-790l-152 -508h-120l151 508h-616v111h649l164 545h-813v110h845l152 508h121l-152 -508h561z" />
    <glyph glyph-name="lessequal" unicode="&#x2264;" horiz-adv-x="1939" 
d="M360 987l1340 -356v-121l-1501 399v156l1501 399v-118zM211 119v110h1530v-110h-1530z" />
    <glyph glyph-name="greaterequal" unicode="&#x2265;" horiz-adv-x="1939" 
d="M240 1346v118l1501 -399v-156l-1501 -399v121l1339 356zM1726 119h-1527v110h1527v-110z" />
    <glyph glyph-name="lozenge" unicode="&#x25ca;" horiz-adv-x="1835" 
d="M995 -231h-153l-643 933l643 936h153l641 -936zM344 702l576 -835l571 835l-571 836z" />
    <glyph glyph-name="A.ss01" horiz-adv-x="2521" 
d="M2345 0h-137l-232 387h-1431l-232 -387h-135l852 1434h463zM1108 1325l-496 -827h1299l-496 827h-307z" />
    <glyph glyph-name="Aacute.ss01" horiz-adv-x="2521" 
d="M889 1755l741 164v-111l-741 -163v110zM2345 0h-137l-232 387h-1431l-232 -387h-135l852 1434h463zM1108 1325l-496 -827h1299l-496 827h-307z" />
    <glyph glyph-name="Abreve.ss01" horiz-adv-x="2521" 
d="M1262 1624q-100 0 -173.5 16.5t-131 54t-86.5 104t-29 161.5h112q0 -70 22 -117.5t65.5 -72t95.5 -34.5t125 -10q72 0 123.5 10t95 34.5t65 72t21.5 117.5h112q0 -95 -28.5 -161.5t-85.5 -104t-130 -54t-173 -16.5zM2345 0h-137l-232 387h-1431l-232 -387h-135l852 1434
h463zM1108 1325l-496 -827h1299l-496 827h-307z" />
    <glyph glyph-name="Acircumflex.ss01" horiz-adv-x="2521" 
d="M1630 1741v-115l-368 164l-371 -164v115l371 164zM2345 0h-137l-232 387h-1431l-232 -387h-135l852 1434h463zM1108 1325l-496 -827h1299l-496 827h-307z" />
    <glyph glyph-name="Adieresis.ss01" horiz-adv-x="2521" 
d="M938 1808h182v-135h-182v135zM1401 1808h184v-135h-184v135zM2345 0h-137l-232 387h-1431l-232 -387h-135l852 1434h463zM1108 1325l-496 -827h1299l-496 827h-307z" />
    <glyph glyph-name="Agrave.ss01" horiz-adv-x="2521" 
d="M889 1919l741 -164v-110l-741 163v111zM2345 0h-137l-232 387h-1431l-232 -387h-135l852 1434h463zM1108 1325l-496 -827h1299l-496 827h-307z" />
    <glyph glyph-name="Amacron.ss01" horiz-adv-x="2521" 
d="M834 1808h852v-108h-852v108zM2345 0h-137l-232 387h-1431l-232 -387h-135l852 1434h463zM1108 1325l-496 -827h1299l-496 827h-307z" />
    <glyph glyph-name="Aogonek.ss01" horiz-adv-x="2516" 
d="M2169 -211q0 -79 76 -115t245 -36v-109q-232 0 -340 51t-108 174q0 68 44 125.5t140 120.5h-18l-232 387h-1431l-232 -387h-135l852 1434h463l852 -1434h-27q-77 -60 -104 -94q-45 -56 -45 -117zM1108 1325l-496 -827h1299l-496 827h-307z" />
    <glyph glyph-name="Aring.ss01" horiz-adv-x="2521" 
d="M1262 1583q-198 0 -293 60.5t-95 168.5q0 109 95 169.5t293 60.5q197 0 291 -60.5t94 -169.5q0 -108 -94 -168.5t-291 -60.5zM1262 1954q-147 0 -213 -36t-66 -106t65.5 -104.5t213.5 -34.5q147 0 211.5 34.5t64.5 104.5t-65 106t-211 36zM2345 0h-137l-232 387h-1431
l-232 -387h-135l852 1434h463zM1108 1325l-496 -827h1299l-496 827h-307z" />
    <glyph glyph-name="Atilde.ss01" horiz-adv-x="2521" 
d="M1022 1823q-170 0 -170 -199h-125q0 40 8 79.5t28.5 81.5t52 73.5t83.5 52t117 20.5q70 0 126.5 -22.5t95.5 -54.5t75.5 -63.5t83.5 -54t102 -22.5q170 0 170 197h125q0 -51 -14 -100.5t-44.5 -98t-89.5 -78.5t-139 -30q-70 0 -127 22.5t-96 55t-76 64.5t-84 54.5
t-102 22.5zM2345 0h-137l-232 387h-1431l-232 -387h-135l852 1434h463zM1108 1325l-496 -827h1299l-496 827h-307z" />
    <glyph glyph-name="K.ss01" horiz-adv-x="1968" 
d="M905 772l713 662h174l-774 -715l774 -719h-174l-713 664h-588v-664h-118v1434h118v-662h588z" />
    <glyph glyph-name="uni0136.ss01" horiz-adv-x="1968" 
d="M905 772l713 662h174l-774 -715l774 -719h-174l-713 664h-588v-664h-118v1434h118v-662h588zM768 -512l74 207h-64v133h156v-133l-98 -207h-68z" />
    <glyph glyph-name="R.ss01" horiz-adv-x="1921" 
d="M1743 971q0 -181 -101.5 -300t-298.5 -151l383 -520h-143l-375 506h-891v-506h-118v1434h1009q258 0 396.5 -126t138.5 -337zM1174 1325h-857v-709h857q444 0 444 355q0 95 -32 164t-92 110t-139.5 60.5t-180.5 19.5z" />
    <glyph glyph-name="Racute.ss01" horiz-adv-x="1921" 
d="M1262 1808l-742 -163v110l742 164v-111zM1743 971q0 -181 -101.5 -300t-298.5 -151l383 -520h-143l-375 506h-891v-506h-118v1434h1009q258 0 396.5 -126t138.5 -337zM1174 1325h-857v-709h857q444 0 444 355q0 95 -32 164t-92 110t-139.5 60.5t-180.5 19.5z" />
    <glyph glyph-name="Rcaron.ss01" horiz-adv-x="1921" 
d="M522 1901l371 -164l369 164v-115l-369 -164l-371 164v115zM1743 971q0 -181 -101.5 -300t-298.5 -151l383 -520h-143l-375 506h-891v-506h-118v1434h1009q258 0 396.5 -126t138.5 -337zM1174 1325h-857v-709h857q444 0 444 355q0 95 -32 164t-92 110t-139.5 60.5
t-180.5 19.5z" />
    <glyph glyph-name="uni0156.ss01" horiz-adv-x="1921" 
d="M1743 971q0 -181 -101.5 -300t-298.5 -151l383 -520h-143l-375 506h-891v-506h-118v1434h1009q258 0 396.5 -126t138.5 -337zM1174 1325h-857v-709h857q444 0 444 355q0 95 -32 164t-92 110t-139.5 60.5t-180.5 19.5zM889 -512h-66l72 207h-64v133h156v-133z" />
    <glyph glyph-name="V.ss01" horiz-adv-x="2521" 
d="M2208 1434h137l-852 -1434h-463l-852 1434h135l795 -1325h307z" />
    <glyph glyph-name="W.ss01" horiz-adv-x="3604" 
d="M2707 109l592 1325h129l-641 -1434h-405l-572 1309l-573 -1309h-406l-653 1434h129l602 -1325h248l578 1325h147l578 -1325h247z" />
    <glyph glyph-name="Wacute.ss01" horiz-adv-x="3604" 
d="M1438 1755l741 164v-111l-741 -163v110zM2707 109l592 1325h129l-641 -1434h-405l-572 1309l-573 -1309h-406l-653 1434h129l602 -1325h248l578 1325h147l578 -1325h247z" />
    <glyph glyph-name="Wcircumflex.ss01" horiz-adv-x="3604" 
d="M2179 1741v-115l-371 164l-368 -164v115l368 164zM2707 109l592 1325h129l-641 -1434h-405l-572 1309l-573 -1309h-406l-653 1434h129l602 -1325h248l578 1325h147l578 -1325h247z" />
    <glyph glyph-name="Wdieresis.ss01" horiz-adv-x="3604" 
d="M1485 1808h184v-135h-184v135zM1950 1808h182v-135h-182v135zM2707 109l592 1325h129l-641 -1434h-405l-572 1309l-573 -1309h-406l-653 1434h129l602 -1325h248l578 1325h147l578 -1325h247z" />
    <glyph glyph-name="Wgrave.ss01" horiz-adv-x="3604" 
d="M1438 1919l741 -164v-110l-741 163v111zM2707 109l592 1325h129l-641 -1434h-405l-572 1309l-573 -1309h-406l-653 1434h129l602 -1325h248l578 1325h147l578 -1325h247z" />
    <glyph glyph-name="i.loclTRK" horiz-adv-x="522" 
d="M170 1427v136h182v-136h-182zM199 0v1188h125v-1188h-125z" />
    <glyph glyph-name="a.ss01" horiz-adv-x="1898" 
d="M1575 907v281h127v-1188h-127v281q-81 -155 -250 -238.5t-414 -83.5q-340 0 -536.5 167.5t-196.5 467.5t196.5 467.5t536.5 167.5q245 0 414 -83.5t250 -238.5zM934 68q190 0 333.5 59t225.5 179t82 288t-82 288t-225.5 179t-333.5 59q-288 0 -459.5 -137t-171.5 -389
t171.5 -389t459.5 -137z" />
    <glyph glyph-name="aacute.ss01" horiz-adv-x="1898" 
d="M578 1509l741 164v-110l-741 -164v110zM1575 907v281h127v-1188h-127v281q-81 -155 -250 -238.5t-414 -83.5q-340 0 -536.5 167.5t-196.5 467.5t196.5 467.5t536.5 167.5q245 0 414 -83.5t250 -238.5zM934 68q190 0 333.5 59t225.5 179t82 288t-82 288t-225.5 179
t-333.5 59q-288 0 -459.5 -137t-171.5 -389t171.5 -389t459.5 -137z" />
    <glyph glyph-name="abreve.ss01" horiz-adv-x="1898" 
d="M950 1378q-100 0 -173.5 16.5t-131 54t-86.5 104t-29 161.5h113q0 -70 22 -117.5t65 -72t95 -34t125 -9.5q57 0 100.5 5.5t83.5 21t65.5 41t40.5 67t15 98.5h113q0 -95 -29 -161.5t-85.5 -104t-130 -54t-173.5 -16.5zM1575 907v281h127v-1188h-127v281
q-81 -155 -250 -238.5t-414 -83.5q-340 0 -536.5 167.5t-196.5 467.5t196.5 467.5t536.5 167.5q245 0 414 -83.5t250 -238.5zM934 68q190 0 333.5 59t225.5 179t82 288t-82 288t-225.5 179t-333.5 59q-288 0 -459.5 -137t-171.5 -389t171.5 -389t459.5 -137z" />
    <glyph glyph-name="acircumflex.ss01" horiz-adv-x="1898" 
d="M1319 1495v-115l-369 164l-370 -164v115l370 164zM1575 907v281h127v-1188h-127v281q-81 -155 -250 -238.5t-414 -83.5q-340 0 -536.5 167.5t-196.5 467.5t196.5 467.5t536.5 167.5q245 0 414 -83.5t250 -238.5zM934 68q190 0 333.5 59t225.5 179t82 288t-82 288
t-225.5 179t-333.5 59q-288 0 -459.5 -137t-171.5 -389t171.5 -389t459.5 -137z" />
    <glyph glyph-name="adieresis.ss01" horiz-adv-x="1898" 
d="M627 1563h182v-136h-182v136zM1090 1563h184v-136h-184v136zM1575 907v281h127v-1188h-127v281q-81 -155 -250 -238.5t-414 -83.5q-340 0 -536.5 167.5t-196.5 467.5t196.5 467.5t536.5 167.5q245 0 414 -83.5t250 -238.5zM934 68q190 0 333.5 59t225.5 179t82 288
t-82 288t-225.5 179t-333.5 59q-288 0 -459.5 -137t-171.5 -389t171.5 -389t459.5 -137z" />
    <glyph glyph-name="agrave.ss01" horiz-adv-x="1898" 
d="M578 1673l741 -164v-110l-741 164v110zM1575 907v281h127v-1188h-127v281q-81 -155 -250 -238.5t-414 -83.5q-340 0 -536.5 167.5t-196.5 467.5t196.5 467.5t536.5 167.5q245 0 414 -83.5t250 -238.5zM934 68q190 0 333.5 59t225.5 179t82 288t-82 288t-225.5 179
t-333.5 59q-288 0 -459.5 -137t-171.5 -389t171.5 -389t459.5 -137z" />
    <glyph glyph-name="amacron.ss01" horiz-adv-x="1898" 
d="M522 1563h852v-109h-852v109zM1575 907v281h127v-1188h-127v281q-81 -155 -250 -238.5t-414 -83.5q-340 0 -536.5 167.5t-196.5 467.5t196.5 467.5t536.5 167.5q245 0 414 -83.5t250 -238.5zM934 68q190 0 333.5 59t225.5 179t82 288t-82 288t-225.5 179t-333.5 59
q-288 0 -459.5 -137t-171.5 -389t171.5 -389t459.5 -137z" />
    <glyph glyph-name="aogonek.ss01" horiz-adv-x="1898" 
d="M1495 -211q0 -78 76.5 -114.5t245.5 -36.5v-109q-233 0 -341 51t-108 174q0 68 44 125.5t140 120.5h23v281q-81 -155 -250 -238.5t-414 -83.5q-340 0 -536.5 167.5t-196.5 467.5t196.5 467.5t536.5 167.5q245 0 414 -83.5t250 -238.5v281h127v-1188h-57q-77 -60 -103 -92
q-47 -57 -47 -119zM934 68q190 0 333.5 59t225.5 179t82 288t-82 288t-225.5 179t-333.5 59q-288 0 -459.5 -137t-171.5 -389t171.5 -389t459.5 -137z" />
    <glyph glyph-name="aring.ss01" horiz-adv-x="1898" 
d="M950 1337q-198 0 -292.5 61t-94.5 169q0 109 94.5 169t292.5 60q197 0 291 -60t94 -169q0 -108 -94.5 -169t-290.5 -61zM950 1708q-148 0 -213 -35.5t-65 -105.5t65 -105t213 -35q147 0 212 35t65 105t-65.5 105.5t-211.5 35.5zM1575 907v281h127v-1188h-127v281
q-81 -155 -250 -238.5t-414 -83.5q-340 0 -536.5 167.5t-196.5 467.5t196.5 467.5t536.5 167.5q245 0 414 -83.5t250 -238.5zM934 68q190 0 333.5 59t225.5 179t82 288t-82 288t-225.5 179t-333.5 59q-288 0 -459.5 -137t-171.5 -389t171.5 -389t459.5 -137z" />
    <glyph glyph-name="atilde.ss01" horiz-adv-x="1898" 
d="M711 1577q-170 0 -170 -199h-125q0 40 8 79.5t28.5 81.5t52 74t83.5 52.5t117 20.5q70 0 126.5 -22.5t95.5 -54.5t75.5 -64t83.5 -54.5t102 -22.5q170 0 170 197h125q0 -51 -14 -100.5t-44.5 -98t-89.5 -78.5t-139 -30q-70 0 -127 22.5t-96 55t-76 64.5t-84 54.5
t-102 22.5zM1575 907v281h127v-1188h-127v281q-81 -155 -250 -238.5t-414 -83.5q-340 0 -536.5 167.5t-196.5 467.5t196.5 467.5t536.5 167.5q245 0 414 -83.5t250 -238.5zM934 68q190 0 333.5 59t225.5 179t82 288t-82 288t-225.5 179t-333.5 59q-288 0 -459.5 -137
t-171.5 -389t171.5 -389t459.5 -137z" />
    <glyph glyph-name="g.ss01" horiz-adv-x="1996" 
d="M1407 1188h487v-96q-74 0 -286 16q164 -101 164 -303q0 -102 -40.5 -178t-131.5 -133t-247.5 -86t-377.5 -29q-382 0 -509.5 -18t-127.5 -93q0 -85 140 -105t556 -20q106 0 187.5 -2.5t168.5 -11t149.5 -22t121 -37t94.5 -56t57 -78.5t21 -104q0 -86 -42.5 -151
t-114 -105t-176.5 -64.5t-216.5 -34t-249.5 -9.5q-123 0 -223 5.5t-201 18.5t-176 38t-134.5 61.5t-90.5 91t-31 124.5q0 60 24.5 105t70 73.5t95.5 45t113 26.5q-131 22 -200.5 68t-69.5 129q0 36 16 65t41.5 47.5t64.5 32t78 21t89 12.5q-170 49 -246 142.5t-76 230.5
q0 101 40.5 176.5t131.5 132.5t247.5 86t377.5 29q260 0 432 -41zM975 487q191 0 323.5 21.5t208 64.5t108 99.5t32.5 132.5t-32.5 131.5t-108 98t-208 64t-323.5 21.5t-323.5 -21.5t-208 -64t-108 -98t-32.5 -131.5t32.5 -132.5t108 -99.5t208 -64.5t323.5 -21.5z
M1708 -174q0 38 -12.5 68.5t-43.5 52t-60.5 37.5t-87 25t-97.5 15t-117.5 8t-122 2.5t-133.5 0.5q-132 0 -226.5 -3t-182 -11t-143.5 -23t-98.5 -38.5t-61.5 -57t-19 -78.5q0 -68 50 -117t147.5 -77t228 -41t305.5 -13q146 0 259 11t211 37.5t151 77.5t53 124z" />
    <glyph glyph-name="gbreve.ss01" horiz-adv-x="1996" 
d="M938 1378q-100 0 -173.5 16.5t-131 54t-86.5 104t-29 161.5h113q0 -70 22 -117.5t65 -72t95 -34t125 -9.5q57 0 100.5 5.5t83.5 21t65.5 41t40.5 67t15 98.5h113q0 -95 -29 -161.5t-85.5 -104t-130 -54t-173.5 -16.5zM1407 1188h487v-96q-74 0 -286 16q164 -101 164 -303
q0 -102 -40.5 -178t-131.5 -133t-247.5 -86t-377.5 -29q-382 0 -509.5 -18t-127.5 -93q0 -85 140 -105t556 -20q106 0 187.5 -2.5t168.5 -11t149.5 -22t121 -37t94.5 -56t57 -78.5t21 -104q0 -86 -42.5 -151t-114 -105t-176.5 -64.5t-216.5 -34t-249.5 -9.5q-123 0 -223 5.5
t-201 18.5t-176 38t-134.5 61.5t-90.5 91t-31 124.5q0 60 24.5 105t70 73.5t95.5 45t113 26.5q-131 22 -200.5 68t-69.5 129q0 36 16 65t41.5 47.5t64.5 32t78 21t89 12.5q-170 49 -246 142.5t-76 230.5q0 101 40.5 176.5t131.5 132.5t247.5 86t377.5 29q260 0 432 -41z
M975 487q191 0 323.5 21.5t208 64.5t108 99.5t32.5 132.5t-32.5 131.5t-108 98t-208 64t-323.5 21.5t-323.5 -21.5t-208 -64t-108 -98t-32.5 -131.5t32.5 -132.5t108 -99.5t208 -64.5t323.5 -21.5zM1708 -174q0 38 -12.5 68.5t-43.5 52t-60.5 37.5t-87 25t-97.5 15t-117.5 8
t-122 2.5t-133.5 0.5q-132 0 -226.5 -3t-182 -11t-143.5 -23t-98.5 -38.5t-61.5 -57t-19 -78.5q0 -68 50 -117t147.5 -77t228 -41t305.5 -13q146 0 259 11t211 37.5t151 77.5t53 124z" />
    <glyph glyph-name="uni0123.ss01" horiz-adv-x="1996" 
d="M946 1595h64v-133h-156v133l98 207h68zM1407 1188h487v-96q-74 0 -286 16q164 -101 164 -303q0 -102 -40.5 -178t-131.5 -133t-247.5 -86t-377.5 -29q-382 0 -509.5 -18t-127.5 -93q0 -85 140 -105t556 -20q106 0 187.5 -2.5t168.5 -11t149.5 -22t121 -37t94.5 -56
t57 -78.5t21 -104q0 -86 -42.5 -151t-114 -105t-176.5 -64.5t-216.5 -34t-249.5 -9.5q-123 0 -223 5.5t-201 18.5t-176 38t-134.5 61.5t-90.5 91t-31 124.5q0 60 24.5 105t70 73.5t95.5 45t113 26.5q-131 22 -200.5 68t-69.5 129q0 36 16 65t41.5 47.5t64.5 32t78 21
t89 12.5q-170 49 -246 142.5t-76 230.5q0 101 40.5 176.5t131.5 132.5t247.5 86t377.5 29q260 0 432 -41zM975 487q191 0 323.5 21.5t208 64.5t108 99.5t32.5 132.5t-32.5 131.5t-108 98t-208 64t-323.5 21.5t-323.5 -21.5t-208 -64t-108 -98t-32.5 -131.5t32.5 -132.5
t108 -99.5t208 -64.5t323.5 -21.5zM1708 -174q0 38 -12.5 68.5t-43.5 52t-60.5 37.5t-87 25t-97.5 15t-117.5 8t-122 2.5t-133.5 0.5q-132 0 -226.5 -3t-182 -11t-143.5 -23t-98.5 -38.5t-61.5 -57t-19 -78.5q0 -68 50 -117t147.5 -77t228 -41t305.5 -13q146 0 259 11
t211 37.5t151 77.5t53 124z" />
    <glyph glyph-name="gdotaccent.ss01" horiz-adv-x="1996" 
d="M846 1563h182v-136h-182v136zM1407 1188h487v-96q-74 0 -286 16q164 -101 164 -303q0 -102 -40.5 -178t-131.5 -133t-247.5 -86t-377.5 -29q-382 0 -509.5 -18t-127.5 -93q0 -85 140 -105t556 -20q106 0 187.5 -2.5t168.5 -11t149.5 -22t121 -37t94.5 -56t57 -78.5
t21 -104q0 -86 -42.5 -151t-114 -105t-176.5 -64.5t-216.5 -34t-249.5 -9.5q-123 0 -223 5.5t-201 18.5t-176 38t-134.5 61.5t-90.5 91t-31 124.5q0 60 24.5 105t70 73.5t95.5 45t113 26.5q-131 22 -200.5 68t-69.5 129q0 36 16 65t41.5 47.5t64.5 32t78 21t89 12.5
q-170 49 -246 142.5t-76 230.5q0 101 40.5 176.5t131.5 132.5t247.5 86t377.5 29q260 0 432 -41zM975 487q191 0 323.5 21.5t208 64.5t108 99.5t32.5 132.5t-32.5 131.5t-108 98t-208 64t-323.5 21.5t-323.5 -21.5t-208 -64t-108 -98t-32.5 -131.5t32.5 -132.5t108 -99.5
t208 -64.5t323.5 -21.5zM1708 -174q0 38 -12.5 68.5t-43.5 52t-60.5 37.5t-87 25t-97.5 15t-117.5 8t-122 2.5t-133.5 0.5q-132 0 -226.5 -3t-182 -11t-143.5 -23t-98.5 -38.5t-61.5 -57t-19 -78.5q0 -68 50 -117t147.5 -77t228 -41t305.5 -13q146 0 259 11t211 37.5
t151 77.5t53 124z" />
    </font>
</defs>
</svg>
