<?xml version="1.0" standalone="no"?>
<!DOCTYPE svg PUBLIC "-//W3C//DTD SVG 1.1//EN" "http://www.w3.org/Graphics/SVG/1.1/DTD/svg11.dtd" >
<svg xmlns="http://www.w3.org/2000/svg" xmlns:xlink="http://www.w3.org/1999/xlink" version="1.1">
<metadata>
Created by FontForge 20170731 at Tue Nov 29 21:47:35 2022
 By Aleksey,,,
Pangram Pangram
</metadata>
<defs>
<font id="PPMonumentExtended-Regular" horiz-adv-x="0" >
  <font-face 
    font-family="PP Monument Extended"
    font-weight="400"
    font-stretch="normal"
    units-per-em="2048"
    panose-1="0 0 5 0 0 0 0 0 0 0"
    ascent="1638"
    descent="-410"
    x-height="1194"
    cap-height="1440"
    bbox="-2226 -616 4110 2208"
    underline-thickness="169"
    underline-position="-291"
    unicode-range="U+0020-25CA"
  />
<missing-glyph horiz-adv-x="1126" 
d="M209 1638h715v-2252h-715v2252zM750 1413v74h-371v-74h145v-84h-147v-74h373v74h-148v84h148zM602 1038v158h-225v-233h373v75h-148zM451 1120h73v-82h-73v82zM750 827v74h-373v-74h147v-84h-147v-73h225v157h148zM750 541v225h-74v-148h-299v-77h373zM750 238v254h-226
v-125h78v51h74v-107h-225v181h-74v-254h373zM750 -152v254h-373v-254h373zM451 29h225v-107h-225v107zM750 -279v74h-373v-74h158l-158 -106v-74h373v74h-230l158 106h72z" />
    <glyph glyph-name="f_f" unicode="ff" horiz-adv-x="2420" 
d="M2267 1423h-295q-84 0 -131 -8t-78.5 -34t-41.5 -68.5t-11 -118.5h557v-223h-557v-971h-256v971h-684v-971h-256v971h-360v223h360v29q0 222 114 318.5t363 96.5h322v-215h-281q-84 0 -131 -8t-78.5 -34t-41.5 -68.5t-11 -118.5h684v29q0 222 114 318.5t363 96.5h336
v-215z" />
    <glyph glyph-name="f_f_i" unicode="ffi" horiz-adv-x="2826" 
d="M2650 1423h-678q-84 0 -131 -8t-78.5 -34t-41.5 -68.5t-11 -118.5h940v-1194h-256v971h-684v-971h-256v971h-684v-971h-256v971h-360v223h360v29q0 222 114 318.5t363 96.5h342v-215h-301q-84 0 -131 -8t-78.5 -34t-41.5 -68.5t-11 -118.5h684v29q0 222 114 318.5
t363 96.5h719v-215z" />
    <glyph glyph-name="f_i" unicode="fi" horiz-adv-x="1886" 
d="M1710 1423h-678q-84 0 -131 -8t-78.5 -34t-41.5 -68.5t-11 -118.5h940v-1194h-256v971h-684v-971h-256v971h-360v223h360v29q0 222 114 318.5t363 96.5h719v-215z" />
    <glyph glyph-name="f_l" unicode="fl" horiz-adv-x="1939" 
d="M991 1638h772v-1638h-256v1423h-475q-84 0 -131 -8t-78.5 -34t-41.5 -68.5t-11 -118.5h533v-223h-533v-971h-256v971h-360v223h360v29q0 222 114 318.5t363 96.5z" />
    <glyph glyph-name=".notdef" horiz-adv-x="1126" 
d="M209 1638h715v-2252h-715v2252zM750 1413v74h-371v-74h145v-84h-147v-74h373v74h-148v84h148zM602 1038v158h-225v-233h373v75h-148zM451 1120h73v-82h-73v82zM750 827v74h-373v-74h147v-84h-147v-73h225v157h148zM750 541v225h-74v-148h-299v-77h373zM750 238v254h-226
v-125h78v51h74v-107h-225v181h-74v-254h373zM750 -152v254h-373v-254h373zM451 29h225v-107h-225v107zM750 -279v74h-373v-74h158l-158 -106v-74h373v74h-230l158 106h72z" />
    <glyph glyph-name=".null" 
 />
    <glyph glyph-name="nonmarkingreturn" horiz-adv-x="682" 
 />
    <glyph glyph-name="space" unicode=" " horiz-adv-x="817" 
 />
    <glyph glyph-name="exclam" unicode="!" horiz-adv-x="616" 
d="M176 1440h264l-2 -1020h-258zM180 0v225h258v-225h-258z" />
    <glyph glyph-name="quotedbl" unicode="&#x22;" horiz-adv-x="1146" 
d="M176 1563h283l-23 -672h-235zM688 1563h283l-23 -672h-235z" />
    <glyph glyph-name="numbersign" unicode="#" horiz-adv-x="2842" 
d="M2623 1096v-224h-497l-154 -516h447v-223h-514l-131 -440h-263l131 440h-690l-131 -440h-262l131 440h-473v223h541l153 516h-489v224h557l119 399h262l-119 -399h690l119 399h262l-119 -399h430zM1020 356h690l154 516h-690z" />
    <glyph glyph-name="dollar" unicode="$" horiz-adv-x="2185" 
d="M2007 420q0 -78 -22 -141.5t-61 -110.5t-98 -83t-127 -59t-154.5 -38t-174.5 -21.5t-192 -7.5v-164h-170v166q-195 8 -341 38.5t-256 89.5t-169 153.5t-66 224.5h283q0 -63 27.5 -110t90 -84t170 -58.5t261.5 -28.5v437q-169 12 -291 32t-217 53.5t-152 82.5t-86 116
t-29 158q0 110 53.5 189.5t157.5 127.5t242 71.5t322 27.5v157h170v-159q364 -15 565.5 -137.5t202.5 -346.5h-281q0 125 -113.5 185.5t-373.5 72.5v-415q129 -9 209 -17t178 -22.5t156 -33t119.5 -49t93.5 -70.5t52.5 -97t20.5 -129zM514 1053q0 -67 41 -104t144.5 -59.5
t308.5 -39.5v405q-192 -2 -302.5 -26.5t-151 -66t-40.5 -109.5zM1178 610v-426q291 3 419.5 58.5t128.5 163.5q0 38 -8 63.5t-32.5 47t-60 34.5t-101.5 24.5t-145 19t-201 15.5z" />
    <glyph glyph-name="percent" unicode="%" horiz-adv-x="3067" 
d="M725 510q-118 0 -212.5 28.5t-156.5 75t-103.5 110t-59 131t-17.5 140.5t17.5 140.5t59 131t103.5 110.5t156.5 75.5t212.5 28.5t213 -28.5t157 -75.5t103 -110.5t58.5 -131t17.5 -140.5t-17.5 -140t-58.5 -131t-103 -110.5t-157 -75t-213 -28.5zM1950 1440h305
l-1139 -1440h-305zM725 725q137 0 213 70.5t76 199.5q0 130 -76 200.5t-213 70.5q-136 0 -211.5 -70.5t-75.5 -200.5q0 -129 75.5 -199.5t211.5 -70.5zM2341 -41q-117 0 -211.5 28.5t-156 75t-103 110t-59 131t-17.5 140.5t17.5 140.5t59 131t103 110.5t156 75.5t211.5 28.5
q119 0 214.5 -28.5t157 -75.5t103 -110.5t59 -131t17.5 -140.5t-17.5 -140t-59 -131t-103 -110.5t-157 -75t-214.5 -28.5zM2341 174q137 0 213 70.5t76 199.5q0 130 -76 200.5t-213 70.5q-135 0 -211 -71t-76 -200q0 -128 76.5 -199t210.5 -71z" />
    <glyph glyph-name="ampersand" unicode="&#x26;" horiz-adv-x="2193" 
d="M1661 258l356 -258h-420l-137 98q-247 -139 -571 -139q-350 0 -531.5 106t-181.5 302q0 66 22 122t56.5 95.5t87.5 74t103 56.5t116 45q-174 167 -174 354q0 169 138 265t366 96q220 0 356.5 -92t136.5 -255q0 -61 -19 -110.5t-50 -86t-85 -71t-107.5 -59t-135.5 -56.5
q22 -16 73 -51t79 -55l329 -240q100 128 111 303h262q-11 -254 -180 -444zM889 1260q-232 0 -232 -164q0 -62 44.5 -119.5t129.5 -124.5q169 66 230 116t61 122q0 80 -59 125t-174 45zM915 176q195 0 349 68l-283 205q-40 29 -133 93t-139 99q-66 -25 -107.5 -45t-79 -48
t-54.5 -62.5t-17 -79.5q0 -115 119.5 -172.5t344.5 -57.5z" />
    <glyph glyph-name="quotesingle" unicode="'" horiz-adv-x="634" 
d="M176 1563h283l-23 -672h-235z" />
    <glyph glyph-name="parenleft" unicode="(" horiz-adv-x="1296" 
d="M176 616q0 263 65 459.5t189 319.5t295.5 183t392.5 60v-227q-117 0 -214.5 -25.5t-181.5 -84.5t-142 -149.5t-90.5 -226.5t-32.5 -309q0 -174 33 -310t91 -227t142 -150t181 -85t214 -26v-228q-221 0 -392.5 60.5t-295.5 183.5t-189 320.5t-65 461.5z" />
    <glyph glyph-name="parenright" unicode=")" horiz-adv-x="1296" 
d="M1118 616q0 -264 -65 -461.5t-189 -320.5t-295.5 -183.5t-392.5 -60.5v228q117 0 215 26t182.5 85t142.5 150t91 227t33 310q0 173 -33 309t-91 226.5t-142 149.5t-182 84.5t-216 25.5v227q221 0 392.5 -60t295.5 -183t189 -319.5t65 -459.5z" />
    <glyph glyph-name="asterisk" unicode="*" horiz-adv-x="1357" 
d="M283 850l-107 184l334 164l-334 164l107 186l309 -202l-23 296l217 3l-20 -299l309 202l107 -186l-334 -164l334 -164l-107 -184l-309 201l20 -299h-213l21 299z" />
    <glyph glyph-name="plus" unicode="+" horiz-adv-x="1992" 
d="M1112 807h703v-221h-703v-586h-233v586h-703v221h703v586h233v-586z" />
    <glyph glyph-name="comma" unicode="," horiz-adv-x="612" 
d="M176 0v225h260v-225l-131 -379h-123l86 379h-92z" />
    <glyph glyph-name="hyphen" unicode="-" horiz-adv-x="2074" 
d="M217 586v221h1638v-221h-1638z" />
    <glyph glyph-name="period" unicode="." horiz-adv-x="612" 
d="M176 0v225h260v-225h-260z" />
    <glyph glyph-name="slash" unicode="/" horiz-adv-x="1157" 
d="M719 1495h262l-539 -1802h-262z" />
    <glyph glyph-name="zero" unicode="0" horiz-adv-x="2002" 
d="M1001 -41q-210 0 -371.5 54.5t-265 155t-156 239.5t-52.5 313q0 173 52.5 312t156 239.5t265 154.5t371.5 54q209 0 370.5 -54.5t264.5 -155t156 -239.5t53 -311q0 -173 -52.5 -312t-156 -240t-265 -155.5t-370.5 -54.5zM1001 190q270 0 418 138t148 393t-148 391.5
t-418 136.5t-417.5 -136t-147.5 -392q0 -257 147.5 -394t417.5 -137z" />
    <glyph glyph-name="one" unicode="1" horiz-adv-x="1697" 
d="M709 1440h270v-1213h543v-227h-1346v227h543l2 955l-455 -168l-90 227z" />
    <glyph glyph-name="two" unicode="2" horiz-adv-x="1943" 
d="M1767 1038q0 -98 -41 -177t-111 -132t-161 -95t-193 -71t-205.5 -54.5t-199.5 -52t-173.5 -56.5t-130 -73.5t-65.5 -99.5h1278v-227h-1605v154q5 92 45.5 167.5t105.5 127.5t150.5 96t180 73t194 58t193 51.5t176.5 53.5t145.5 64t98.5 82.5t36 110.5q0 53 -20 90.5
t-69.5 68t-142 45.5t-229.5 15q-274 0 -400 -78.5t-126 -244.5h-283q8 547 811 547q140 0 251.5 -14.5t204.5 -47t155 -83t96 -126t34 -172.5z" />
    <glyph glyph-name="three" unicode="3" horiz-adv-x="1945" 
d="M1503 723q287 -95 287 -328q0 -436 -791 -436q-198 0 -348.5 28.5t-262.5 90t-171 164t-61 245.5h280q0 -72 24 -124.5t68 -87t116.5 -54.5t160 -28.5t207.5 -8.5q270 0 383.5 46.5t113.5 166.5q0 71 -35 115.5t-119.5 72t-210.5 38t-323 10.5v178q373 0 520.5 51
t147.5 191q0 71 -41 114t-147.5 66.5t-288.5 23.5q-221 0 -345 -30t-177.5 -95t-53.5 -180h-276q5 529 839 529q770 0 770 -432q0 -225 -266 -326z" />
    <glyph glyph-name="four" unicode="4" horiz-adv-x="1994" 
d="M1483 500h336v-226h-336v-274h-260v274h-1047v226l1047 940h260v-940zM1223 1143l-717 -643h717v643z" />
    <glyph glyph-name="five" unicode="5" horiz-adv-x="1939" 
d="M1159 1012q279 0 451 -134.5t172 -359.5q0 -183 -99 -310t-273 -188t-411 -61q-178 0 -324 25t-265 79.5t-186 149.5t-68 225h282q2 -119 147 -186.5t423 -67.5q258 0 375.5 86.5t117.5 231.5q0 51 -12 93t-43 80.5t-80.5 64.5t-128.5 41.5t-184 15.5
q-118 0 -244.5 -31.5t-314.5 -116.5l-254 58l176 733h1261v-226h-1052l-82 -352q160 83 300 116.5t316 33.5z" />
    <glyph glyph-name="six" unicode="6" horiz-adv-x="1988" 
d="M1085 1012q169 0 301.5 -30.5t228.5 -92t146.5 -160.5t50.5 -231q0 -260 -200 -399.5t-578 -139.5q-234 0 -390.5 36t-262 121t-153.5 223t-52 345v16v21q4 172 48.5 303t119.5 217t185 140.5t236 77t282 22.5q132 0 269 -11.5t194.5 -19.5t197.5 -29v-225
q-19 3 -82.5 12t-87 12.5t-78.5 10.5t-88.5 10t-83 7t-96 5.5t-96.5 1.5q-131 0 -223.5 -10.5t-172 -38t-128 -75.5t-77.5 -123t-34 -181q90 77 253.5 131t370.5 54zM995 184q151 0 256 20.5t166 61t88 95.5t27 131t-27 130.5t-88 94.5t-166 60t-256 20q-536 0 -536 -305
q0 -308 536 -308z" />
    <glyph glyph-name="seven" unicode="7" horiz-adv-x="1732" 
d="M104 1210v230h1522v-230q-309 -177 -494.5 -355.5t-273.5 -385.5t-88 -469h-278q0 145 24 274.5t80.5 258.5t145 244t222 225.5t308.5 207.5h-1168z" />
    <glyph glyph-name="eight" unicode="8" horiz-adv-x="2007" 
d="M1513 774q336 -107 336 -381q0 -81 -26.5 -146t-88 -119.5t-157.5 -91t-240.5 -57t-332.5 -20.5q-189 0 -333 20t-240.5 56.5t-157.5 91t-87 119.5t-26 147q0 274 334 381q-195 98 -195 297q0 210 170.5 310t534.5 100q363 0 533.5 -100t170.5 -310q0 -194 -195 -297z
M1004 1262q-232 0 -330.5 -44t-98.5 -151q0 -106 98.5 -150.5t330.5 -44.5t330 44.5t98 150.5q0 107 -97.5 151t-330.5 44zM1004 180q210 0 335.5 27.5t175.5 78t50 130.5q0 79 -50 128t-175 76t-336 27t-336.5 -27t-175.5 -76t-50 -128q0 -80 50.5 -130.5t176 -78
t335.5 -27.5z" />
    <glyph glyph-name="nine" unicode="9" horiz-adv-x="1992" 
d="M1815 737v-18q-4 -171 -48.5 -302t-119 -217t-184 -140.5t-235.5 -77.5t-282 -23q-299 0 -661 59v226q13 -2 94.5 -14t103.5 -15t90 -11.5t107 -11t99 -5.5t118 -3q109 0 190 7t154 25t122.5 48.5t87.5 78t57.5 114t23.5 155.5q-93 -77 -256 -130.5t-369 -53.5
q-169 0 -301.5 30.5t-228.5 92t-146.5 160t-50.5 229.5q0 260 199.5 400.5t576.5 140.5q235 0 392 -36t262.5 -122t153 -223.5t51.5 -345.5v-17zM997 643q537 0 537 305q0 307 -537 307q-122 0 -213.5 -13.5t-152.5 -38t-99 -63t-54.5 -85.5t-16.5 -107q0 -103 47.5 -167.5
t167.5 -101t321 -36.5z" />
    <glyph glyph-name="colon" unicode=":" horiz-adv-x="612" 
d="M176 614v226h260v-226h-260zM176 0v225h260v-225h-260z" />
    <glyph glyph-name="semicolon" unicode=";" horiz-adv-x="612" 
d="M176 614v226h260v-226h-260zM268 0h-92v225h260v-225l-131 -379h-123z" />
    <glyph glyph-name="less" unicode="&#x3c;" horiz-adv-x="1992" 
d="M176 879l1639 350v-250l-1354 -283l1354 -282v-250l-1639 350v365z" />
    <glyph glyph-name="equal" unicode="=" horiz-adv-x="1992" 
d="M176 913v222h1639v-222h-1639zM176 258v221h1639v-221h-1639z" />
    <glyph glyph-name="greater" unicode="&#x3e;" horiz-adv-x="1992" 
d="M176 979v250l1639 -350v-365l-1639 -350v250l1354 282z" />
    <glyph glyph-name="question" unicode="?" horiz-adv-x="1894" 
d="M997 420h-276q0 80 24.5 143t66 104.5t95.5 73.5t113.5 54t118.5 40.5t113 38.5t95.5 44t66 60.5t24.5 84.5q0 194 -443 194q-285 0 -413.5 -81t-128.5 -271h-277q5 576 805 576q737 0 737 -414q0 -93 -40 -162t-103.5 -109.5t-140 -71.5t-153.5 -57t-140.5 -55.5
t-103.5 -77.5t-40 -114zM721 0v225h260v-225h-260z" />
    <glyph glyph-name="at" unicode="@" horiz-adv-x="2748" 
d="M1470 -340q512 0 920 217l109 -180q-427 -258 -1029 -258q-648 0 -971 275.5t-323 834.5q0 530 321.5 814t936.5 284q216 0 389.5 -34.5t315 -111t236.5 -195.5t146 -292.5t51 -397.5q0 -114 -12.5 -208.5t-45 -182t-84 -147.5t-134 -95.5t-191.5 -35.5q-311 0 -391 248
q-119 -185 -424 -185q-134 0 -236.5 40.5t-165.5 113.5t-94.5 168.5t-31.5 210.5t31.5 210.5t94.5 168t165.5 113t236.5 40.5q278 0 400 -151v131h237v-658q0 -57 7 -97t25 -75t55 -53t93 -18q119 0 163 112t44 361q0 186 -38 323.5t-108 228t-181 146t-244 78t-309 22.5
q-494 0 -746 -210.5t-252 -665.5q0 -240 65.5 -410.5t198 -276t322 -154t448.5 -48.5zM1356 227q97 0 164 23t103.5 67t51.5 98.5t15 127.5q0 74 -15 128.5t-51.5 98t-103.5 66t-164 22.5q-98 0 -165 -22.5t-103 -66t-51 -98t-15 -128.5t15 -128t51 -98.5t103 -67t165 -22.5
z" />
    <glyph glyph-name="A" unicode="A" horiz-adv-x="2312" 
d="M2154 0h-296l-179 311h-1046l-178 -311h-299l833 1440h332zM1155 1223l-393 -686h786z" />
    <glyph glyph-name="B" unicode="B" horiz-adv-x="2070" 
d="M1442 0h-1266v1440h1256q97 0 173 -20t125 -54t80.5 -81.5t44.5 -99t13 -110.5q0 -211 -164 -332q209 -107 209 -337q0 -191 -116 -298.5t-355 -107.5zM438 1214v-378h901h47.5t42.5 2t40.5 5t34 9.5t30.5 16t22.5 23.5t18.5 32.5t10 43.5t4 56t-4 56.5t-10 44t-18.5 33
t-22.5 24t-30.5 16t-34 9.5t-40.5 5t-42.5 2h-47.5h-901zM438 618v-393h946q32 0 47.5 0.5t42 2t39.5 5t33.5 10t30.5 16.5t22.5 24.5t18.5 34t10 46t4 58.5t-4 58t-10 45.5t-18.5 34.5t-22.5 24.5t-30 16t-33 10t-39.5 5.5t-41.5 2h-47h-2h-946z" />
    <glyph glyph-name="C" unicode="C" horiz-adv-x="2109" 
d="M156 721q0 176 57 315.5t170 239t289.5 152.5t406.5 53q200 0 360 -43.5t265.5 -120.5t167.5 -177t78 -220h-283q-30 156 -179.5 241.5t-408.5 85.5q-641 0 -641 -526q0 -528 641 -528q257 0 407.5 87.5t180.5 243.5h285q-17 -121 -79.5 -222t-168 -178.5t-265.5 -121
t-360 -43.5q-230 0 -406.5 53.5t-289.5 153.5t-170 239.5t-57 315.5z" />
    <glyph glyph-name="D" unicode="D" horiz-adv-x="2070" 
d="M176 1440h1030q116 0 220 -27.5t193.5 -85t154.5 -141.5t102 -203.5t37 -263.5q0 -143 -37 -262t-102 -202.5t-154.5 -141.5t-193.5 -85.5t-220 -27.5h-1030v1440zM438 1206v-973h635q147 0 245 20.5t172 74t108 149.5t34 242q0 118 -23 203t-66 140t-113.5 87t-155 44.5
t-201.5 12.5h-635z" />
    <glyph glyph-name="E" unicode="E" horiz-adv-x="1851" 
d="M176 1440h1516v-230h-1254v-376h1213v-228h-1213v-379h1254v-227h-1516v1440z" />
    <glyph glyph-name="F" unicode="F" horiz-adv-x="1851" 
d="M176 1440h1516v-234h-1254v-483h1131v-234h-1131v-489h-262v1440z" />
    <glyph glyph-name="G" unicode="G" horiz-adv-x="2109" 
d="M156 719q0 352 244.5 557t678.5 205q198 0 359 -43.5t267 -120t168.5 -176t78.5 -215.5h-283q-31 151 -182 236t-408 85q-116 0 -212.5 -20.5t-161.5 -53t-114.5 -79t-78 -93.5t-46 -101.5t-23 -97t-5.5 -85.5q0 -42 6.5 -85.5t26 -97t50 -101.5t83 -94t119.5 -79
t165 -53.5t216 -20.5q187 0 314 26t268 87v233h-625v218h891v-564q-229 -125 -423 -176t-427 -51q-439 0 -692.5 205t-253.5 555z" />
    <glyph glyph-name="H" unicode="H" horiz-adv-x="2109" 
d="M438 836h1233v604h262v-1440h-262v602h-1233v-602h-262v1440h262v-604z" />
    <glyph glyph-name="I" unicode="I" horiz-adv-x="614" 
d="M176 1440h262v-1440h-262v1440z" />
    <glyph glyph-name="J" unicode="J" horiz-adv-x="2074" 
d="M887 1440h1009v-721q0 -376 -209.5 -559t-650.5 -183t-650.5 182.5t-209.5 559.5h262q0 -55 4.5 -99.5t19.5 -99t40.5 -96.5t70.5 -83.5t106.5 -68.5t152.5 -44t204 -17t204.5 17t153 44.5t107 69t71 83.5t40.5 96.5t19.5 99t4.5 98.5v487h-749v234z" />
    <glyph glyph-name="K" unicode="K" horiz-adv-x="2074" 
d="M1503 1440h416l-829 -649l829 -791h-371l-661 631l-449 -350v-281h-262v1440h262v-834z" />
    <glyph glyph-name="L" unicode="L" horiz-adv-x="1697" 
d="M176 1440h262v-1207h1106v-233h-1368v1440z" />
    <glyph glyph-name="M" unicode="M" horiz-adv-x="2574" 
d="M438 0h-262v1440h412l700 -1137l699 1137h411v-1440h-262v1192l-729 -1192h-240l-729 1192v-1192z" />
    <glyph glyph-name="N" unicode="N" horiz-adv-x="2144" 
d="M551 1440l1155 -1182v1182h262v-1440h-375l-1155 1182v-1182h-262v1440h375z" />
    <glyph glyph-name="O" unicode="O" horiz-adv-x="2166" 
d="M1083 -41q-460 0 -693.5 202.5t-233.5 559.5t233.5 558.5t693.5 201.5q231 0 408.5 -53.5t290.5 -153.5t170 -239t57 -314t-57 -314t-170 -239.5t-290.5 -154.5t-408.5 -54zM1083 193q646 0 646 528q0 526 -646 526q-316 0 -480.5 -127t-164.5 -399q0 -528 645 -528z" />
    <glyph glyph-name="P" unicode="P" horiz-adv-x="2000" 
d="M176 0v1440h1114q252 0 403.5 -138t151.5 -378q0 -239 -151.5 -376.5t-403.5 -137.5h-852v-410h-262zM1186 1206h-748v-563h748q34 0 52.5 0.5t54 3t57 7t53.5 14t52 23.5t42.5 35.5t35.5 48.5t21.5 65t8.5 84q0 224 -198 268q-60 14 -179 14z" />
    <glyph glyph-name="Q" unicode="Q" horiz-adv-x="2119" 
d="M2011 723q0 -325 -190 -518l176 -176l-168 -168l-203 205q-216 -107 -543 -107q-232 0 -409 53.5t-290 154t-169.5 240.5t-56.5 316q0 175 56.5 313.5t169.5 238t290 153t409 53.5q231 0 408.5 -53.5t291 -153.5t171 -238.5t57.5 -312.5zM1083 193q217 0 357 57l-254 256
l168 168l278 -281q97 126 97 330q0 524 -646 524q-315 0 -480 -126.5t-165 -397.5q0 -530 645 -530z" />
    <glyph glyph-name="R" unicode="R" horiz-adv-x="2004" 
d="M1575 631q104 -19 159.5 -86.5t55.5 -177.5v-367h-260v303q0 109 -39.5 145.5t-161.5 36.5h-891v-485h-262v1440h1075q264 0 410.5 -105.5t146.5 -328.5q0 -277 -233 -375zM1184 1208h-746v-493h746q34 0 52 0.5t51.5 2.5t53 6t48 12.5t46 21t37.5 31t30.5 43t18 58
t7.5 73.5t-7.5 73t-18 57t-30.5 42.5t-37 30.5t-45.5 20.5t-48 12.5t-53 6t-51 2.5t-51.5 0.5h-2z" />
    <glyph glyph-name="S" unicode="S" horiz-adv-x="2144" 
d="M156 467h282q0 -69 34 -119.5t112 -88.5t213.5 -56.5t330.5 -18.5q307 0 442.5 55.5t135.5 166.5q0 27 -4.5 47t-13.5 38t-28.5 31t-42 24t-62.5 19.5t-82.5 15.5t-108 13t-133 11t-164.5 11q-188 11 -322 30t-239 52t-167.5 83t-94 119.5t-31.5 164.5q0 115 58.5 196.5
t172 129t263 69t348.5 21.5q270 0 463 -53t299.5 -163t107.5 -270h-280q0 140 -144.5 200t-480.5 60q-206 0 -323 -23.5t-160 -66t-43 -112.5q0 -43 15.5 -72t51 -51.5t106 -38t166 -26.5t244.5 -21q118 -8 180 -13t159 -15t147 -20t122 -27t108 -37.5t80.5 -51t64.5 -67.5
t34.5 -85.5t14.5 -107.5q0 -109 -44.5 -191.5t-119.5 -133t-187.5 -82t-233 -43t-272.5 -11.5q-182 0 -326 15.5t-264.5 52.5t-202 95t-128.5 144.5t-53 200.5z" />
    <glyph glyph-name="T" unicode="T" horiz-adv-x="2074" 
d="M156 1206v234h1761v-234h-750v-1206h-260v1206h-751z" />
    <glyph glyph-name="U" unicode="U" horiz-adv-x="2156" 
d="M1978 1440v-740q0 -377 -217 -559t-684 -182q-469 0 -685 181t-216 560v740h262v-735q0 -56 4.5 -101t20.5 -100t43 -97t75.5 -84t114 -69t163 -44t218.5 -17t219 17t164 44.5t114.5 69.5t75.5 84t43 97t20.5 100t4.5 100v735h260z" />
    <glyph glyph-name="V" unicode="V" horiz-adv-x="2312" 
d="M1155 217l703 1223h296l-833 -1440h-332l-833 1440h299z" />
    <glyph glyph-name="W" unicode="W" horiz-adv-x="3332" 
d="M2367 233l529 1207h280l-639 -1440h-342l-530 1251l-563 -1251h-344l-602 1440h280l496 -1207l541 1207h389z" />
    <glyph glyph-name="X" unicode="X" horiz-adv-x="2324" 
d="M561 0h-387l809 719l-809 721h387l600 -539l602 539h387l-811 -721l811 -719h-387l-602 539z" />
    <glyph glyph-name="Y" unicode="Y" horiz-adv-x="2316" 
d="M1159 698l656 742h346l-863 -967v-473h-280v473l-862 967h346z" />
    <glyph glyph-name="Z" unicode="Z" horiz-adv-x="1976" 
d="M176 1206v234h1624v-234l-1216 -973h1216v-233h-1624v233l1217 973h-1217z" />
    <glyph glyph-name="bracketleft" unicode="[" horiz-adv-x="1296" 
d="M176 1638h942v-227h-661v-1593h661v-228h-942v2048z" />
    <glyph glyph-name="backslash" unicode="\" horiz-adv-x="1155" 
d="M715 -307l-539 1802h262l539 -1802h-262z" />
    <glyph glyph-name="bracketright" unicode="]" horiz-adv-x="1296" 
d="M176 1411v227h942v-2048h-942v228h664v1593h-664z" />
    <glyph glyph-name="asciicircum" unicode="^" horiz-adv-x="1994" 
d="M1171 1638l646 -921h-297l-523 745l-522 -745h-299l649 921h346z" />
    <glyph glyph-name="underscore" unicode="_" horiz-adv-x="2484" 
d="M217 -379v225h2048v-225h-2048z" />
    <glyph glyph-name="grave" unicode="`" horiz-adv-x="1150" 
d="M176 1761l797 -164v-208l-797 163v209z" />
    <glyph glyph-name="a" unicode="a" horiz-adv-x="1921" 
d="M991 1235q195 0 334.5 -32t239.5 -104.5t149.5 -193.5t50.5 -295v-610h-256v147q-211 -89 -400.5 -137.5t-406.5 -48.5q-283 0 -425 101t-142 309q0 91 38 163.5t104 120t159.5 78.5t198 44.5t225.5 13.5q310 0 649 -97q-1 60 -23.5 109t-56.5 81.5t-82.5 57t-96 38
t-103 21.5t-96.5 10.5t-84 2.5q-315 0 -637 -105l-94 203q394 123 755 123zM780 182q139 0 340.5 50t388.5 120v129q-322 94 -632 94q-465 0 -465 -204q0 -58 25.5 -96t77 -58t113.5 -27.5t152 -7.5z" />
    <glyph glyph-name="b" unicode="b" horiz-adv-x="1988" 
d="M1073 1235q129 0 243 -24.5t209.5 -76t164 -126t107 -180t38.5 -232.5q0 -158 -58.5 -281t-163 -200t-241.5 -116.5t-299 -39.5q-449 0 -641 248v-207h-256v1638h256v-653q191 250 641 250zM1006 186q269 0 411 109t142 301t-142 301t-411 109q-273 0 -423.5 -109.5
t-150.5 -300.5t150.5 -300.5t423.5 -109.5z" />
    <glyph glyph-name="c" unicode="c" horiz-adv-x="1939" 
d="M154 596q0 160 60.5 282.5t172 200t262.5 117t338 39.5q332 0 539.5 -125.5t259.5 -374.5h-279q-40 139 -167 207t-353 68q-559 0 -559 -414q0 -412 559 -412q225 0 352.5 67.5t167.5 205.5h279q-52 -247 -259.5 -372.5t-539.5 -125.5q-187 0 -338 39t-262.5 116
t-172 199.5t-60.5 282.5z" />
    <glyph glyph-name="d" unicode="d" horiz-adv-x="1988" 
d="M1556 987v651h256v-1638h-256v207q-190 -248 -641 -248q-162 0 -299 39.5t-241 116.5t-162.5 200t-58.5 281q0 127 38.5 232.5t107 180t164 126t209 76t242.5 24.5q451 0 641 -248zM985 186q271 0 421 109.5t150 300.5t-150 300.5t-421 109.5t-413 -108.5t-142 -301.5
t142 -301.5t413 -108.5z" />
    <glyph glyph-name="e" unicode="e" horiz-adv-x="1957" 
d="M999 182q219 0 339 55.5t171 157.5h277q-56 -206 -262.5 -321t-526.5 -115q-187 0 -339.5 39t-266 116t-175.5 200t-62 282q0 127 41.5 232.5t116 180t177.5 126t226 76t262 24.5q144 0 264.5 -21.5t226.5 -73t179 -131t115 -200.5t42 -277h-1372q20 -182 162 -266
t405 -84zM977 1016q-444 0 -528 -275h1062q-77 275 -534 275z" />
    <glyph glyph-name="f" unicode="f" horiz-adv-x="1476" 
d="M1073 1444q-128 0 -191.5 -23t-87 -74t-24.5 -153h553v-223h-553v-971h-256v971h-360v223h360v29q0 438 447 438q183 0 362 -21v-206q-143 10 -250 10z" />
    <glyph glyph-name="g" unicode="g" horiz-adv-x="1988" 
d="M1556 993v201h256v-1040q0 -355 -198.5 -520.5t-575.5 -165.5q-369 0 -762 96l9 215q4 -1 50 -10t58.5 -11t59 -11t67.5 -12t67.5 -10.5t74.5 -10.5t72 -8t78.5 -7t75.5 -4t79 -2q170 0 284 30.5t181.5 96.5t95.5 158.5t28 226.5q-187 -242 -622 -242q-130 0 -245 23.5
t-213.5 74t-169.5 124.5t-111.5 180t-40.5 235q0 159 61.5 283t169.5 199.5t247 114t302 38.5q435 0 622 -242zM993 193q273 0 418 108t145 299q0 189 -145.5 297.5t-417.5 108.5t-417.5 -108.5t-145.5 -297.5q0 -191 145 -299t418 -108z" />
    <glyph glyph-name="h" unicode="h" horiz-adv-x="2013" 
d="M1143 1235q162 0 285.5 -35t216 -109.5t141.5 -199t51 -295.5v-596h-256v539q0 118 -25.5 202t-83.5 145t-156.5 90.5t-240.5 29.5q-141 0 -257.5 -33t-203 -97.5t-134.5 -167t-48 -233.5v-475h-256v1638h256v-710q239 307 711 307z" />
    <glyph glyph-name="i" unicode="i" horiz-adv-x="610" 
d="M176 1352v286h256v-286h-256zM176 0v1194h256v-1194h-256z" />
    <glyph glyph-name="j" unicode="j" horiz-adv-x="1060" 
d="M645 1352v286h256v-286h-256zM645 1194h256v-1139q0 -118 -11 -204t-40 -161.5t-78 -122t-128 -73t-187 -26.5q-187 0 -363 30v215q167 -20 252 -20q67 0 111 5.5t79.5 22t55 41t32.5 70t17 101.5t4 141v1120z" />
    <glyph glyph-name="k" unicode="k" horiz-adv-x="1918" 
d="M1319 1194h446l-788 -532l788 -662h-385l-614 520l-334 -225v-295h-256v1638h256v-1042z" />
    <glyph glyph-name="l" unicode="l" horiz-adv-x="610" 
d="M176 0v1638h256v-1638h-256z" />
    <glyph glyph-name="m" unicode="m" horiz-adv-x="2926" 
d="M432 0h-256v1194h256v-242q218 283 588 283q423 0 534 -334q220 334 625 334q562 0 571 -582v-653h-256v631q0 190 -93 282.5t-312 92.5q-94 0 -182 -29t-159 -82.5t-114 -141t-43 -194.5v-559h-256v631q0 190 -93 282.5t-310 92.5q-95 0 -183 -29t-159.5 -82.5
t-114.5 -141t-43 -194.5v-559z" />
    <glyph glyph-name="n" unicode="n" horiz-adv-x="2013" 
d="M432 0h-256v1194h256v-266q239 307 711 307q162 0 285.5 -35t216 -109.5t141.5 -199t51 -295.5v-596h-256v539q0 118 -25.5 202t-83.5 145t-156.5 90.5t-240.5 29.5q-141 0 -257.5 -33t-203 -97.5t-134.5 -167t-48 -233.5v-475z" />
    <glyph glyph-name="o" unicode="o" horiz-adv-x="1988" 
d="M995 -41q-188 0 -341 39.5t-265 117t-173.5 200t-61.5 280.5q0 211 108 356.5t294.5 214t438.5 68.5q187 0 340 -39.5t265 -117.5t173.5 -200.5t61.5 -281.5q0 -210 -108 -355t-294.5 -213.5t-437.5 -68.5zM995 184q277 0 420.5 103t143.5 309q0 207 -143 310.5
t-421 103.5q-565 0 -565 -414q0 -206 143 -309t422 -103z" />
    <glyph glyph-name="p" unicode="p" horiz-adv-x="1988" 
d="M1073 1235q129 0 243 -24.5t209.5 -76t164 -126t107 -180t38.5 -232.5q0 -158 -58.5 -281t-163 -200t-241.5 -116.5t-299 -39.5q-449 0 -641 248v-699h-256v1686h256v-209q191 250 641 250zM1006 186q269 0 411 109t142 301q0 191 -150 300.5t-422 109.5
q-271 0 -413 -108.5t-142 -301.5q0 -191 150.5 -300.5t423.5 -109.5z" />
    <glyph glyph-name="q" unicode="q" horiz-adv-x="1988" 
d="M1556 987v207h256v-1686h-256v699q-190 -248 -641 -248q-162 0 -299 39.5t-241 116.5t-162.5 200t-58.5 281q0 127 38.5 232.5t107 180t164 126t209 76t242.5 24.5q451 0 641 -248zM985 186q271 0 421 109.5t150 300.5q0 193 -142 301.5t-413 108.5q-272 0 -421.5 -109.5
t-149.5 -300.5q0 -193 142 -301.5t413 -108.5z" />
    <glyph glyph-name="r" unicode="r" horiz-adv-x="1478" 
d="M1020 1235q172 0 323 -45v-229q-162 43 -317 43q-142 0 -279 -50.5t-315 -189.5v-764h-256v1194h256v-213q141 144 281 199t307 55z" />
    <glyph glyph-name="s" unicode="s" horiz-adv-x="1974" 
d="M154 406h276q9 -84 69 -133t190.5 -73t350.5 -24q161 0 261.5 9.5t153.5 32t71 52t18 76.5q0 22 -3.5 37.5t-15.5 30t-27.5 23.5t-49 18.5t-70 15.5t-100 13t-129 12.5t-166.5 13.5q-85 6 -145.5 11.5t-129 13t-116 16t-99.5 20t-86.5 25.5t-69 33t-56 42t-38.5 51
t-24.5 62.5t-7.5 75.5q0 86 39.5 152t107.5 107.5t169 68t212 37t248 10.5q115 0 207.5 -6.5t183.5 -22t158.5 -44.5t121.5 -70.5t84.5 -103t37.5 -140.5h-277q-13 103 -131.5 137.5t-413.5 34.5q-180 0 -287 -19t-145.5 -49t-38.5 -75q0 -23 7 -39t29.5 -30.5t57.5 -24.5
t99.5 -20t145.5 -18.5t204 -19.5q31 -3 92 -8q91 -8 135.5 -12t120 -13t112.5 -17t94 -23t84.5 -32.5t63 -43t51 -56.5t27 -72t11.5 -90q0 -94 -35 -164t-97.5 -114.5t-160 -72t-209.5 -38t-258 -10.5q-109 0 -199 4.5t-184 17.5t-167.5 34t-140.5 55.5t-111.5 80.5
t-72.5 110.5t-32 144.5z" />
    <glyph glyph-name="t" unicode="t" horiz-adv-x="1546" 
d="M1374 1194v-223h-608v-461q0 -68 4.5 -114.5t17 -85t32 -60.5t54 -37.5t79 -21t108.5 -5.5q117 0 313 25v-219q-223 -33 -370 -33q-145 0 -236.5 24.5t-151 86.5t-83 161.5t-23.5 257.5v482h-356v223h356v279l256 86v-365h608z" />
    <glyph glyph-name="u" unicode="u" horiz-adv-x="2013" 
d="M1581 717v477h256v-1194h-256v266q-239 -307 -711 -307q-161 0 -284.5 34.5t-216 109t-142 198.5t-51.5 295v598h256v-539q0 -118 25.5 -202.5t84 -145.5t157 -91t241.5 -30q140 0 256 33t202.5 97.5t134.5 167t48 233.5z" />
    <glyph glyph-name="v" unicode="v" horiz-adv-x="2050" 
d="M1026 158l584 1036h286l-675 -1194h-394l-673 1194h286z" />
    <glyph glyph-name="w" unicode="w" horiz-adv-x="3082" 
d="M2193 174l461 1020h275l-539 -1194h-389l-459 950l-461 -950h-389l-538 1194h272l463 -1020l489 1020h326z" />
    <glyph glyph-name="x" unicode="x" horiz-adv-x="2070" 
d="M545 0h-391l720 596l-720 598h391l491 -432l492 432h389l-721 -598l721 -596h-389l-492 432z" />
    <glyph glyph-name="y" unicode="y" horiz-adv-x="2082" 
d="M1047 131l598 1063h286l-733 -1305q-59 -107 -113 -179t-123 -130t-154 -85t-192 -27q-177 0 -391 40v224q185 -39 344 -39q129 0 213 56.5t166 205.5l25 45h-146l-673 1194h292z" />
    <glyph glyph-name="z" unicode="z" horiz-adv-x="1779" 
d="M176 1194h1428v-223l-1029 -748h1029v-223h-1428v223l1028 748h-1028v223z" />
    <glyph glyph-name="braceleft" unicode="{" horiz-adv-x="1296" 
d="M176 485v263q58 0 86.5 1.5t71.5 10.5t63 29.5t41 55t26.5 92t0.5 136.5q-12 170 12.5 276t102.5 172.5t204.5 91.5t333.5 25v-227q-58 0 -99.5 -1.5t-82.5 -6t-69 -11t-54.5 -19t-43 -28.5t-30.5 -39.5t-21 -51.5t-11 -66.5t-4 -82.5t4 -101q6 -93 -12 -163t-47 -107.5
t-69.5 -60.5t-71.5 -29.5t-61 -6.5v-41q30 0 61 -6.5t71.5 -29.5t69.5 -60.5t47 -107.5t12 -163q-4 -57 -4 -101.5t4 -83.5t11 -67.5t21 -52.5t30.5 -40t43 -28t54.5 -19t69 -11.5t82.5 -6t99.5 -1.5v-228q-108 0 -191.5 6.5t-153.5 20.5t-118.5 36.5t-86.5 55t-59 76.5
t-34.5 99.5t-13.5 124.5t4 153q5 79 -0.5 135.5t-26.5 91.5t-41 55t-63 29t-71.5 10.5t-86.5 1.5z" />
    <glyph glyph-name="bar" unicode="|" horiz-adv-x="604" 
d="M176 -307v1945h252v-1945h-252z" />
    <glyph glyph-name="braceright" unicode="}" horiz-adv-x="1300" 
d="M1124 748v-263q-58 0 -86.5 -1.5t-71.5 -10.5t-62.5 -29t-40.5 -55t-26 -91.5t1 -135.5q3 -84 3.5 -153t-14 -124.5t-35 -99.5t-59 -76.5t-87 -55t-118.5 -36.5t-153.5 -20.5t-192.5 -6.5v228q58 0 99.5 1.5t83 6t69 11.5t54.5 19t43 28t30.5 40t21.5 52.5t11 67.5
t4 83.5t-4 101.5q-6 93 12 163t47 107.5t69 60.5t71 29.5t61 6.5v41q-30 0 -61 6.5t-71 29.5t-69 60.5t-47 107.5t-12 163q4 57 4 101t-4 82.5t-11 66.5t-21.5 51.5t-30.5 39.5t-43 28.5t-55 19t-69 11t-82.5 6t-99.5 1.5v227q138 0 237.5 -11t177.5 -37.5t126 -67.5
t77 -105.5t37 -147t1 -196.5q-8 -117 6.5 -186.5t63 -98t89.5 -34.5t127 -6z" />
    <glyph glyph-name="asciitilde" unicode="~" horiz-adv-x="1992" 
d="M440 406h-264q0 583 449 583q78 0 146.5 -19.5t119.5 -50.5t97.5 -69t88 -76t82.5 -69t90.5 -50.5t102.5 -19.5q103 0 151.5 82.5t48.5 271.5h263q0 -583 -447 -583q-78 0 -146.5 19.5t-119.5 50.5t-97.5 68.5t-88.5 75t-83 68.5t-90 50.5t-102 19.5q-103 0 -152 -82
t-49 -270z" />
    <glyph glyph-name="exclamdown" unicode="&#xa1;" horiz-adv-x="634" 
d="M438 1004h-258v225h258v-225zM438 809l2 -1014h-264l4 1014h258z" />
    <glyph glyph-name="cent" unicode="&#xa2;" horiz-adv-x="1980" 
d="M1075 1126v-819q194 9 305 76t148 195h278q-49 -234 -238.5 -359t-492.5 -137v-287h-168v287q-222 14 -384 86t-255.5 212t-93.5 337t93.5 337t255.5 212t384 86v286h168v-286q303 -12 492.5 -137t238.5 -359h-278q-37 128 -148 194.5t-305 75.5zM449 717
q0 -372 458 -408v815q-458 -36 -458 -407z" />
    <glyph glyph-name="sterling" unicode="&#xa3;" horiz-adv-x="1869" 
d="M1206 1251q-166 0 -266 -27.5t-143.5 -81.5t-53.5 -135t5 -188h706v-160h-690q-9 -255 -377 -432h1305v-227h-1516v227q18 15 55 45t53 43t46.5 39.5t44.5 40.5t37 38.5t34 41t25 40.5t20 45t10.5 46.5t4.5 52.5h-330v160h299q-23 92 -19 177t26.5 158.5t75.5 134
t128 103t183 66t241 23.5q146 0 272.5 -14.5t309.5 -47.5v-229q-165 33 -271.5 47t-214.5 14z" />
    <glyph glyph-name="currency" unicode="&#xa4;" horiz-adv-x="2025" 
d="M1855 698q0 -350 -290 -516l247 -297l-161 -159l-314 370q-146 -35 -321 -35t-324 35l-313 -370l-160 159l248 297q-140 79 -216.5 209t-76.5 307q0 347 283 512l-238 283l160 160l303 -353q148 37 334 37t334 -37l301 353l161 -160l-237 -283q280 -165 280 -512z
M451 698q0 -206 143 -308.5t422 -102.5q277 0 420 102.5t143 308.5q0 414 -563 414q-565 0 -565 -414z" />
    <glyph glyph-name="yen" unicode="&#xa5;" horiz-adv-x="2365" 
d="M1835 1440h346l-682 -764h494v-160h-635l-39 -43v-78h674v-159h-674v-236h-281v236h-667v159h667v78l-39 43h-628v160h487l-682 764h346l658 -742z" />
    <glyph glyph-name="brokenbar" unicode="&#xa6;" horiz-adv-x="604" 
d="M176 870v768h252v-768h-252zM176 -307v768h252v-768h-252z" />
    <glyph glyph-name="section" unicode="&#xa7;" horiz-adv-x="2088" 
d="M1581 356q174 -48 253 -135t79 -237q0 -94 -38 -163.5t-105 -114t-172 -71t-226 -37t-280 -10.5q-198 0 -354.5 26t-274 80t-181.5 143.5t-65 209.5h277q0 -137 146 -189.5t488 -52.5q208 0 318.5 19.5t150 58t39.5 109.5q0 45 -15.5 74.5t-50.5 52.5t-105 38.5
t-164.5 26.5t-243.5 21q-93 6 -159.5 11.5t-143.5 13.5t-131 16.5t-113 21t-99.5 27.5t-80.5 34.5t-65.5 44t-46 54.5t-29.5 67t-9 80q0 139 82 220t236 118q-168 46 -245 132.5t-77 234.5q0 94 40 163.5t108.5 113.5t175 70.5t225 37t272.5 10.5q153 0 279.5 -16t231 -51
t176.5 -88t112 -129.5t41 -173.5h-276q0 138 -136 189.5t-464 51.5q-200 0 -310 -19t-154 -58.5t-44 -110.5q0 -43 15.5 -72t50 -51.5t102.5 -38t160 -26.5t235 -21q104 -7 176.5 -13.5t156.5 -15.5t140.5 -19.5t118.5 -26t101.5 -34.5t77.5 -45t59 -57.5t33.5 -71.5
t12.5 -88q0 -260 -311 -334zM453 633q0 -39 10.5 -65.5t41 -48t71 -35t116 -24.5t160 -18.5t217.5 -15.5q201 -10 324 12t174 69.5t51 125.5q0 33 -9 57t-26 43.5t-53 33.5t-77 25t-113 19.5t-146.5 15.5t-189.5 15q-202 10 -325.5 -12.5t-174.5 -70.5t-51 -126z" />
    <glyph glyph-name="dieresis" unicode="&#xa8;" horiz-adv-x="1218" 
d="M176 1434v204h334v-204h-334zM709 1434v204h333v-204h-333z" />
    <glyph glyph-name="copyright" unicode="&#xa9;" horiz-adv-x="2043" 
d="M1022 -20q-405 0 -625.5 198.5t-220.5 540.5t220 538.5t626 196.5q407 0 625.5 -196.5t218.5 -538.5q0 -343 -219 -541t-625 -198zM1022 109q334 0 521.5 161t187.5 449t-187 448t-522 160q-333 0 -521 -160.5t-188 -447.5q0 -288 188 -449t521 -161zM551 717
q0 189 131 285t356 96q385 0 449 -295h-135q-25 87 -101 127.5t-215 40.5q-165 0 -256.5 -62t-91.5 -192q0 -252 348 -252q139 0 215 40t101 126h135q-64 -295 -449 -295q-225 0 -356 96t-131 285z" />
    <glyph glyph-name="guillemotleft" unicode="&#xab;" horiz-adv-x="1943" 
d="M176 596l533 598h358l-532 -598l532 -596h-358zM877 596l532 598h356l-532 -598l532 -596h-356z" />
    <glyph glyph-name="logicalnot" unicode="&#xac;" horiz-adv-x="1992" 
d="M176 815h1639v-651h-232v428h-1407v223z" />
    <glyph glyph-name="registered" unicode="&#xae;" horiz-adv-x="2043" 
d="M1022 -41q-202 0 -363 55.5t-266.5 156t-161 240t-55.5 308.5t55.5 308.5t161 240.5t266.5 157t363 56q203 0 364 -56t265.5 -157t159.5 -240.5t55 -308.5t-55 -308.5t-160 -240t-265.5 -156t-363.5 -55.5zM1022 88q342 0 525.5 168.5t183.5 462.5t-183 463.5t-526 169.5
q-341 0 -525 -170t-184 -463t184 -462t525 -169zM842 381h-137v696h391q160 0 232.5 -66.5t72.5 -181.5q0 -81 -45.5 -146.5t-136.5 -90.5l172 -211h-174l-154 199h-221v-199zM842 950v-241h248q100 0 138 25.5t38 94.5q0 67 -38.5 94t-137.5 27h-248z" />
    <glyph glyph-name="macron" unicode="&#xaf;" horiz-adv-x="1314" 
d="M176 1434v204h961v-204h-961z" />
    <glyph glyph-name="degree" unicode="&#xb0;" horiz-adv-x="1456" 
d="M727 506q-121 0 -217 28.5t-157.5 75t-102 110.5t-57.5 131.5t-17 141.5t17 141.5t57.5 132t102 111t157.5 75t217 28.5q122 0 218.5 -28.5t158 -75t102.5 -111t57.5 -132t16.5 -141.5t-16.5 -141.5t-57.5 -131.5t-102.5 -110.5t-158 -75t-218.5 -28.5zM727 721
q138 0 214.5 71t76.5 201q0 131 -76 202t-215 71q-137 0 -213 -71t-76 -202q0 -130 76 -201t213 -71z" />
    <glyph glyph-name="plusminus" unicode="&#xb1;" horiz-adv-x="1992" 
d="M1112 1436v-363h703v-221h-703v-363h-233v363h-703v221h703v363h233zM1815 94h-1639v221h1639v-221z" />
    <glyph glyph-name="acute" unicode="&#xb4;" horiz-adv-x="1150" 
d="M176 1389v208l797 164v-209z" />
    <glyph glyph-name="paragraph" unicode="&#xb6;" horiz-adv-x="1851" 
d="M899 1638h252v-1945h-252v1071q-82 0 -142.5 1.5t-127.5 7t-115 15.5t-98.5 26t-84.5 39t-65.5 55.5t-50 74.5t-29 96.5t-10.5 120.5q0 75 12 134.5t39 104t60 77t84.5 54.5t103 35.5t125 20.5t140 9.5t159.5 2.5zM1423 -307v1945h252v-1945h-252z" />
    <glyph glyph-name="periodcentered" unicode="&#xb7;" horiz-adv-x="630" 
d="M176 524v226h260v-226h-260z" />
    <glyph glyph-name="cedilla" unicode="&#xb8;" horiz-adv-x="1001" 
d="M621 -115q90 0 146 -38.5t56 -110.5q0 -60 -37.5 -104.5t-99.5 -69.5t-146.5 -36.5t-175 -10t-188.5 13.5v168q200 -31 298.5 -24t98.5 61q0 47 -73 47q-52 0 -131 -31l-142 55l39 195h217l-30 -152q72 37 168 37z" />
    <glyph glyph-name="guillemotright" unicode="&#xbb;" horiz-adv-x="2015" 
d="M248 1194h358l533 -598l-533 -596h-358l532 596zM948 1194h357l532 -598l-532 -596h-357l533 596z" />
    <glyph glyph-name="questiondown" unicode="&#xbf;" horiz-adv-x="1894" 
d="M1174 1229v-225h-259v225h259zM897 809h277q0 -80 -24.5 -143t-66 -104.5t-95 -73.5t-113 -54t-118.5 -40.5t-112.5 -38.5t-95 -44t-66 -60.5t-24.5 -84.5q0 -195 440 -195q284 0 413.5 82t129.5 271h276q-3 -576 -805 -576q-737 0 -737 416q0 92 40 161t103.5 109.5
t140 71.5t153.5 57t140.5 55.5t103.5 77.5t40 113z" />
    <glyph glyph-name="Agrave" unicode="&#xc0;" horiz-adv-x="2312" 
d="M756 2007l796 -164v-209l-796 164v209zM2154 0h-296l-179 311h-1046l-178 -311h-299l833 1440h332zM1155 1223l-393 -686h786z" />
    <glyph glyph-name="Aacute" unicode="&#xc1;" horiz-adv-x="2312" 
d="M756 1843l796 164v-209l-796 -164v209zM2154 0h-296l-179 311h-1046l-178 -311h-299l833 1440h332zM1155 1223l-393 -686h786z" />
    <glyph glyph-name="Acircumflex" unicode="&#xc2;" horiz-adv-x="2312" 
d="M1579 1843v-219l-424 164l-424 -164v219l424 164zM2154 0h-296l-179 311h-1046l-178 -311h-299l833 1440h332zM1155 1223l-393 -686h786z" />
    <glyph glyph-name="Atilde" unicode="&#xc3;" horiz-adv-x="2312" 
d="M930 1819q-123 0 -123 -185h-250q0 80 20.5 149.5t60.5 125.5t108.5 88.5t156.5 32.5q70 0 130 -20.5t102 -50t80 -59.5t80 -50.5t85 -20.5q68 0 95.5 48.5t27.5 135.5h252q0 -81 -20.5 -151t-61 -125.5t-108.5 -88t-156 -32.5q-70 0 -130 21t-102.5 50.5t-80.5 59.5
t-80 51t-86 21zM2154 0h-296l-179 311h-1046l-178 -311h-299l833 1440h332zM1155 1223l-393 -686h786z" />
    <glyph glyph-name="Adieresis" unicode="&#xc4;" horiz-adv-x="2312" 
d="M723 1884h334v-205h-334v205zM1255 1884h334v-205h-334v205zM2154 0h-296l-179 311h-1046l-178 -311h-299l833 1440h332zM1155 1223l-393 -686h786z" />
    <glyph glyph-name="Aring" unicode="&#xc5;" horiz-adv-x="2312" 
d="M1155 1597q-432 0 -432 271q0 270 432 270q434 0 434 -270q0 -271 -434 -271zM1155 1993q-221 0 -221 -125t221 -125q223 0 223 125t-223 125zM2154 0h-296l-179 311h-1046l-178 -311h-299l833 1440h332zM1155 1223l-393 -686h786z" />
    <glyph glyph-name="AE" unicode="&#xc6;" horiz-adv-x="3086" 
d="M156 0l757 1440h2016v-230h-1254v-376h1213v-228h-1213v-379h1254v-227h-1516v330h-770l-174 -330h-313zM1110 1210l-350 -655h653v655h-303z" />
    <glyph glyph-name="Ccedilla" unicode="&#xc7;" horiz-adv-x="2109" 
d="M1667 524h285q-16 -117 -75.5 -216t-160.5 -176t-253 -122.5t-341 -50.5l-26 -131q69 37 166 37q90 0 147 -39t57 -111q0 -60 -37.5 -104.5t-99.5 -69.5t-146.5 -36.5t-175 -10t-188.5 13.5v168q199 -31 298.5 -24t99.5 61q0 47 -74 47q-53 0 -133 -30l-142 55l37 182
q-371 38 -560 235t-189 519q0 176 57 315.5t170 239t289.5 152.5t406.5 53q200 0 360 -43.5t265.5 -120.5t167.5 -177t78 -220h-283q-30 156 -179.5 241.5t-408.5 85.5q-641 0 -641 -526q0 -528 641 -528q257 0 407.5 87.5t180.5 243.5z" />
    <glyph glyph-name="Egrave" unicode="&#xc8;" horiz-adv-x="1851" 
d="M1339 1634l-796 164v209l796 -164v-209zM176 0v1440h1516v-230h-1254v-376h1213v-228h-1213v-379h1254v-227h-1516z" />
    <glyph glyph-name="Eacute" unicode="&#xc9;" horiz-adv-x="1851" 
d="M1339 1798l-796 -164v209l796 164v-209zM176 0v1440h1516v-230h-1254v-376h1213v-228h-1213v-379h1254v-227h-1516z" />
    <glyph glyph-name="Ecircumflex" unicode="&#xca;" horiz-adv-x="1851" 
d="M518 1843l424 164l424 -164v-219l-424 164l-424 -164v219zM176 0v1440h1516v-230h-1254v-376h1213v-228h-1213v-379h1254v-227h-1516z" />
    <glyph glyph-name="Edieresis" unicode="&#xcb;" horiz-adv-x="1851" 
d="M842 1679h-332v205h332v-205zM1374 1679h-332v205h332v-205zM176 0v1440h1516v-230h-1254v-376h1213v-228h-1213v-379h1254v-227h-1516z" />
    <glyph glyph-name="Igrave" unicode="&#xcc;" horiz-adv-x="614" 
d="M-92 2007l797 -164v-209l-797 164v209zM176 1440h262v-1440h-262v1440z" />
    <glyph glyph-name="Iacute" unicode="&#xcd;" horiz-adv-x="614" 
d="M-92 1634v209l797 164v-209zM176 1440h262v-1440h-262v1440z" />
    <glyph glyph-name="Icircumflex" unicode="&#xce;" horiz-adv-x="614" 
d="M-117 1843l424 164l424 -164v-219l-424 164l-424 -164v219zM438 0h-262v1440h262v-1440z" />
    <glyph glyph-name="Idieresis" unicode="&#xcf;" horiz-adv-x="614" 
d="M-125 1679v205h332v-205h-332zM408 1679v205h331v-205h-331zM176 1440h262v-1440h-262v1440z" />
    <glyph glyph-name="Eth" unicode="&#xd0;" horiz-adv-x="2113" 
d="M221 1440h1028q116 0 220.5 -27.5t194.5 -85t155 -141.5t102 -203.5t37 -263.5q0 -143 -37 -262t-102 -202.5t-155 -141.5t-194.5 -85.5t-220.5 -27.5h-1028v657h-164v123h164v660zM481 657v-424h635q147 0 245 20.5t172 74t108 149.5t34 242q0 118 -23 203t-66 140
t-113.5 87t-155 44.5t-201.5 12.5h-635v-426h559v-123h-559z" />
    <glyph glyph-name="Ntilde" unicode="&#xd1;" horiz-adv-x="2144" 
d="M883 1819q-123 0 -123 -185h-250q0 80 20 149.5t60.5 125.5t108 88.5t155.5 32.5q70 0 130.5 -20.5t102.5 -50t80.5 -59.5t80.5 -50.5t85 -20.5q68 0 95.5 48.5t27.5 135.5h252q0 -81 -20.5 -151t-61 -125.5t-108.5 -88t-156 -32.5q-70 0 -130.5 21t-102.5 50.5
t-80.5 59.5t-80.5 51t-85 21zM551 1440l1155 -1182v1182h262v-1440h-375l-1155 1182v-1182h-262v1440h375z" />
    <glyph glyph-name="Ograve" unicode="&#xd2;" horiz-adv-x="2166" 
d="M684 2007l797 -164v-209l-797 164v209zM1083 -41q-460 0 -693.5 202.5t-233.5 559.5t233.5 558.5t693.5 201.5q231 0 408.5 -53.5t290.5 -153.5t170 -239t57 -314t-57 -314t-170 -239.5t-290.5 -154.5t-408.5 -54zM1083 193q646 0 646 528q0 526 -646 526
q-316 0 -480.5 -127t-164.5 -399q0 -528 645 -528z" />
    <glyph glyph-name="Oacute" unicode="&#xd3;" horiz-adv-x="2166" 
d="M684 1634v209l797 164v-209zM1083 -41q-460 0 -693.5 202.5t-233.5 559.5t233.5 558.5t693.5 201.5q231 0 408.5 -53.5t290.5 -153.5t170 -239t57 -314t-57 -314t-170 -239.5t-290.5 -154.5t-408.5 -54zM1083 193q646 0 646 528q0 526 -646 526q-316 0 -480.5 -127
t-164.5 -399q0 -528 645 -528z" />
    <glyph glyph-name="Ocircumflex" unicode="&#xd4;" horiz-adv-x="2166" 
d="M1507 1843v-219l-424 164l-424 -164v219l424 164zM1083 1481q231 0 408.5 -53.5t290.5 -153.5t170 -239t57 -314t-57 -314t-170 -239.5t-290.5 -154.5t-408.5 -54q-460 0 -693.5 202.5t-233.5 559.5t233.5 558.5t693.5 201.5zM1083 193q646 0 646 528q0 526 -646 526
q-316 0 -480.5 -127t-164.5 -399q0 -528 645 -528z" />
    <glyph glyph-name="Otilde" unicode="&#xd5;" horiz-adv-x="2166" 
d="M735 1634h-252q0 80 20.5 149.5t61 125.5t108.5 88.5t156 32.5q59 0 112 -15t89 -37t73 -48.5t66.5 -48.5t66 -37t73.5 -15q68 0 95.5 48.5t27.5 135.5h249q0 -81 -20 -150.5t-60.5 -126t-108 -88.5t-155.5 -32q-70 0 -130.5 21t-102.5 50.5t-80.5 59.5t-80.5 51t-85 21
q-123 0 -123 -185zM1083 -41q-460 0 -693.5 202.5t-233.5 559.5t233.5 558.5t693.5 201.5q231 0 408.5 -53.5t290.5 -153.5t170 -239t57 -314t-57 -314t-170 -239.5t-290.5 -154.5t-408.5 -54zM1083 193q646 0 646 528q0 526 -646 526q-316 0 -480.5 -127t-164.5 -399
q0 -528 645 -528z" />
    <glyph glyph-name="Odieresis" unicode="&#xd6;" horiz-adv-x="2166" 
d="M651 1679v205h332v-205h-332zM1184 1679v205h332v-205h-332zM1083 -41q-460 0 -693.5 202.5t-233.5 559.5t233.5 558.5t693.5 201.5q231 0 408.5 -53.5t290.5 -153.5t170 -239t57 -314t-57 -314t-170 -239.5t-290.5 -154.5t-408.5 -54zM1083 193q646 0 646 528
q0 526 -646 526q-316 0 -480.5 -127t-164.5 -399q0 -528 645 -528z" />
    <glyph glyph-name="multiply" unicode="&#xd7;" horiz-adv-x="1884" 
d="M1165 694l543 -313l-113 -193l-653 377l-653 -377l-113 193l543 313l-541 314l111 192l653 -377l653 377l111 -192z" />
    <glyph glyph-name="Oslash" unicode="&#xd8;" horiz-adv-x="2166" 
d="M1456 1708l-65 -256q308 -62 463 -251.5t155 -479.5q0 -175 -57 -314t-170 -239.5t-290.5 -154.5t-408.5 -54q-52 0 -77 2l-62 -235h-235l67 262q-309 62 -464.5 252t-155.5 481q0 357 233.5 558.5t693.5 201.5q53 0 78 -2l60 229h235zM438 721q0 -415 398 -504l266 1030
h-19q-316 0 -480.5 -127t-164.5 -399zM1083 193q646 0 646 528q0 416 -398 502l-266 -1030h18z" />
    <glyph glyph-name="Ugrave" unicode="&#xd9;" horiz-adv-x="2156" 
d="M678 2007l797 -164v-209l-797 164v209zM1978 1440v-740q0 -377 -217 -559t-684 -182q-469 0 -685 181t-216 560v740h262v-735q0 -56 4.5 -101t20.5 -100t43 -97t75.5 -84t114 -69t163 -44t218.5 -17t219 17t164 44.5t114.5 69.5t75.5 84t43 97t20.5 100t4.5 100v735h260z
" />
    <glyph glyph-name="Uacute" unicode="&#xda;" horiz-adv-x="2156" 
d="M678 1634v209l797 164v-209zM1978 1440v-740q0 -377 -217 -559t-684 -182q-469 0 -685 181t-216 560v740h262v-735q0 -56 4.5 -101t20.5 -100t43 -97t75.5 -84t114 -69t163 -44t218.5 -17t219 17t164 44.5t114.5 69.5t75.5 84t43 97t20.5 100t4.5 100v735h260z" />
    <glyph glyph-name="Ucircumflex" unicode="&#xdb;" horiz-adv-x="2156" 
d="M1501 1843v-219l-424 164l-424 -164v219l424 164zM1718 705v735h260v-740q0 -377 -217 -559t-684 -182q-469 0 -685 181t-216 560v740h262v-735q0 -56 4.5 -101t20.5 -100t43 -97t75.5 -84t114 -69t163 -44t218.5 -17t219 17t164 44.5t114.5 69.5t75.5 84t43 97t20.5 100
t4.5 100z" />
    <glyph glyph-name="Udieresis" unicode="&#xdc;" horiz-adv-x="2156" 
d="M645 1679v205h334v-205h-334zM1178 1679v205h333v-205h-333zM1978 1440v-740q0 -377 -217 -559t-684 -182q-469 0 -685 181t-216 560v740h262v-735q0 -56 4.5 -101t20.5 -100t43 -97t75.5 -84t114 -69t163 -44t218.5 -17t219 17t164 44.5t114.5 69.5t75.5 84t43 97
t20.5 100t4.5 100v735h260z" />
    <glyph glyph-name="Yacute" unicode="&#xdd;" horiz-adv-x="2316" 
d="M760 1843l796 164v-209l-796 -164v209zM1159 698l656 742h346l-863 -967v-473h-280v473l-862 967h346z" />
    <glyph glyph-name="Thorn" unicode="&#xde;" horiz-adv-x="2015" 
d="M176 1440h281v-203h850q251 0 402 -136.5t151 -375.5t-151 -375.5t-402 -136.5h-850v-213h-281v1440zM1200 1004h-743v-558h743q34 0 53 0.5t55 3t57.5 7t53.5 14t52 23t42.5 35t35.5 48.5t21.5 65t8.5 83t-8.5 83t-21.5 65t-35.5 48.5t-42.5 35t-52 23t-53.5 14t-57.5 7
t-55 3t-53 0.5z" />
    <glyph glyph-name="germandbls" unicode="&#xdf;" horiz-adv-x="1959" 
d="M1432 778q186 -37 278 -125.5t92 -251.5q0 -59 -9 -107t-33.5 -86.5t-49 -67.5t-76.5 -51t-92.5 -37t-120.5 -25t-137.5 -15.5t-166 -8t-184 -3t-212.5 -0.5v225q131 0 220.5 1t176.5 4.5t141.5 9.5t105 16.5t77.5 24.5t48 35t28.5 46.5t7.5 59.5t-7.5 59t-28.5 45.5
t-48 34.5t-77.5 24t-104.5 16t-141.5 9.5t-177 4.5t-220.5 1v211q93 0 153 1t124.5 4.5t103.5 9.5t78 17t60 26.5t38.5 38t24 51.5t6.5 67q0 113 -93 163t-288 50q-132 0 -217 -17t-146 -62t-87.5 -123.5t-26.5 -200.5v-852h-275v848q0 148 32.5 257.5t92 181.5t154.5 115
t209 61t266 18q119 0 215 -12t179.5 -41.5t140 -76t88.5 -117.5t32 -163q0 -182 -153 -293z" />
    <glyph glyph-name="agrave" unicode="&#xe0;" horiz-adv-x="1921" 
d="M592 1761l797 -164v-208l-797 163v209zM991 1235q195 0 334.5 -32t239.5 -104.5t149.5 -193.5t50.5 -295v-610h-256v147q-211 -89 -400.5 -137.5t-406.5 -48.5q-283 0 -425 101t-142 309q0 91 38 163.5t104 120t159.5 78.5t198 44.5t225.5 13.5q310 0 649 -97
q-1 60 -23.5 109t-56.5 81.5t-82.5 57t-96 38t-103 21.5t-96.5 10.5t-84 2.5q-315 0 -637 -105l-94 203q394 123 755 123zM780 182q139 0 340.5 50t388.5 120v129q-322 94 -632 94q-465 0 -465 -204q0 -58 25.5 -96t77 -58t113.5 -27.5t152 -7.5z" />
    <glyph glyph-name="aacute" unicode="&#xe1;" horiz-adv-x="1921" 
d="M592 1597l797 164v-209l-797 -163v208zM991 1235q195 0 334.5 -32t239.5 -104.5t149.5 -193.5t50.5 -295v-610h-256v147q-211 -89 -400.5 -137.5t-406.5 -48.5q-283 0 -425 101t-142 309q0 91 38 163.5t104 120t159.5 78.5t198 44.5t225.5 13.5q310 0 649 -97
q-1 60 -23.5 109t-56.5 81.5t-82.5 57t-96 38t-103 21.5t-96.5 10.5t-84 2.5q-315 0 -637 -105l-94 203q394 123 755 123zM780 182q139 0 340.5 50t388.5 120v129q-322 94 -632 94q-465 0 -465 -204q0 -58 25.5 -96t77 -58t113.5 -27.5t152 -7.5z" />
    <glyph glyph-name="acircumflex" unicode="&#xe2;" horiz-adv-x="1921" 
d="M1415 1597v-219l-424 164l-424 -164v219l424 164zM991 1235q195 0 334.5 -32t239.5 -104.5t149.5 -193.5t50.5 -295v-610h-256v147q-211 -89 -400.5 -137.5t-406.5 -48.5q-283 0 -425 101t-142 309q0 91 38 163.5t104 120t159.5 78.5t198 44.5t225.5 13.5q310 0 649 -97
q-1 60 -23.5 109t-56.5 81.5t-82.5 57t-96 38t-103 21.5t-96.5 10.5t-84 2.5q-315 0 -637 -105l-94 203q394 123 755 123zM780 182q139 0 340.5 50t388.5 120v129q-322 94 -632 94q-465 0 -465 -204q0 -58 25.5 -96t77 -58t113.5 -27.5t152 -7.5z" />
    <glyph glyph-name="atilde" unicode="&#xe3;" horiz-adv-x="1921" 
d="M766 1573q-123 0 -123 -184h-250q0 63 12.5 120.5t39.5 108t66.5 87t97 58t128.5 21.5q70 0 130.5 -20.5t103 -50t80.5 -59.5t80.5 -50.5t85.5 -20.5q67 0 94.5 48.5t27.5 135.5h252q0 -81 -20.5 -151t-61 -125.5t-108.5 -88t-156 -32.5q-70 0 -130.5 21t-102.5 50.5
t-80.5 59.5t-80.5 51t-85 21zM991 1235q195 0 334.5 -32t239.5 -104.5t149.5 -193.5t50.5 -295v-610h-256v147q-211 -89 -400.5 -137.5t-406.5 -48.5q-283 0 -425 101t-142 309q0 91 38 163.5t104 120t159.5 78.5t198 44.5t225.5 13.5q310 0 649 -97q-1 60 -23.5 109
t-56.5 81.5t-82.5 57t-96 38t-103 21.5t-96.5 10.5t-84 2.5q-315 0 -637 -105l-94 203q394 123 755 123zM780 182q139 0 340.5 50t388.5 120v129q-322 94 -632 94q-465 0 -465 -204q0 -58 25.5 -96t77 -58t113.5 -27.5t152 -7.5z" />
    <glyph glyph-name="adieresis" unicode="&#xe4;" horiz-adv-x="1921" 
d="M559 1638h332v-204h-332v204zM1092 1638h331v-204h-331v204zM991 1235q195 0 334.5 -32t239.5 -104.5t149.5 -193.5t50.5 -295v-610h-256v147q-211 -89 -400.5 -137.5t-406.5 -48.5q-283 0 -425 101t-142 309q0 91 38 163.5t104 120t159.5 78.5t198 44.5t225.5 13.5
q310 0 649 -97q-1 60 -23.5 109t-56.5 81.5t-82.5 57t-96 38t-103 21.5t-96.5 10.5t-84 2.5q-315 0 -637 -105l-94 203q394 123 755 123zM780 182q139 0 340.5 50t388.5 120v129q-322 94 -632 94q-465 0 -465 -204q0 -58 25.5 -96t77 -58t113.5 -27.5t152 -7.5z" />
    <glyph glyph-name="aring" unicode="&#xe5;" horiz-adv-x="1921" 
d="M991 1352q-432 0 -432 270t432 270t432 -270t-432 -270zM991 1747q-223 0 -223 -125t223 -125t223 125t-223 125zM991 1235q195 0 334.5 -32t239.5 -104.5t149.5 -193.5t50.5 -295v-610h-256v147q-211 -89 -400.5 -137.5t-406.5 -48.5q-283 0 -425 101t-142 309
q0 91 38 163.5t104 120t159.5 78.5t198 44.5t225.5 13.5q310 0 649 -97q-1 60 -23.5 109t-56.5 81.5t-82.5 57t-96 38t-103 21.5t-96.5 10.5t-84 2.5q-315 0 -637 -105l-94 203q394 123 755 123zM780 182q139 0 340.5 50t388.5 120v129q-322 94 -632 94q-465 0 -465 -204
q0 -58 25.5 -96t77 -58t113.5 -27.5t152 -7.5z" />
    <glyph glyph-name="ae" unicode="&#xe6;" horiz-adv-x="3315" 
d="M2355 182q220 0 340.5 55.5t169.5 157.5h277q-54 -206 -261.5 -321t-527.5 -115q-258 0 -450 74t-293 221q-80 -77 -195.5 -136.5t-238 -92t-237 -48.5t-216.5 -16q-285 0 -436.5 98.5t-151.5 290.5q0 101 39 176t103.5 120t162 72.5t199 37.5t229.5 10h625
q0 45 -21.5 82t-55.5 61.5t-82 43.5t-96 29.5t-102.5 17t-95.5 8.5t-82 2q-296 0 -616 -105l-102 199q375 127 735 127q250 0 419.5 -56t262.5 -180q108 119 284 179.5t392 60.5q145 0 265.5 -21.5t226.5 -73t179.5 -131t115.5 -200.5t42 -277h-1372q20 -182 162 -266
t403 -84zM2333 1016q-443 0 -527 -275h1063q-77 275 -536 275zM1493 393v162h-612q-71 0 -115.5 -1t-99.5 -5t-88.5 -11.5t-68.5 -21t-54 -33.5t-31 -49t-12 -67q0 -101 94 -143t268 -42q186 0 376 53.5t343 157.5z" />
    <glyph glyph-name="ccedilla" unicode="&#xe7;" horiz-adv-x="1939" 
d="M987 184q225 0 352.5 67.5t167.5 205.5h279q-50 -240 -246 -365t-510 -133l-26 -127q65 35 165 35q90 0 147.5 -38.5t57.5 -109.5q0 -61 -37.5 -105.5t-99.5 -69.5t-146.5 -36.5t-175 -10t-188.5 13.5v167q199 -31 297 -24t98 61q0 26 -17.5 36.5t-53.5 10.5
q-53 0 -133 -30l-142 55l37 182q-308 33 -483.5 191.5t-175.5 435.5q0 160 60.5 282.5t172 200t262.5 117t338 39.5q332 0 539.5 -125.5t259.5 -374.5h-279q-40 139 -167 207t-353 68q-559 0 -559 -414q0 -412 559 -412z" />
    <glyph glyph-name="egrave" unicode="&#xe8;" horiz-adv-x="1957" 
d="M594 1761l797 -164v-208l-797 163v209zM999 182q219 0 339 55.5t171 157.5h277q-56 -206 -262.5 -321t-526.5 -115q-187 0 -339.5 39t-266 116t-175.5 200t-62 282q0 127 41.5 232.5t116 180t177.5 126t226 76t262 24.5q144 0 264.5 -21.5t226.5 -73t179 -131t115 -200.5
t42 -277h-1372q20 -182 162 -266t405 -84zM977 1016q-444 0 -528 -275h1062q-77 275 -534 275z" />
    <glyph glyph-name="eacute" unicode="&#xe9;" horiz-adv-x="1957" 
d="M594 1597l797 164v-209l-797 -163v208zM999 182q219 0 339 55.5t171 157.5h277q-56 -206 -262.5 -321t-526.5 -115q-187 0 -339.5 39t-266 116t-175.5 200t-62 282q0 127 41.5 232.5t116 180t177.5 126t226 76t262 24.5q144 0 264.5 -21.5t226.5 -73t179 -131t115 -200.5
t42 -277h-1372q20 -182 162 -266t405 -84zM977 1016q-444 0 -528 -275h1062q-77 275 -534 275z" />
    <glyph glyph-name="ecircumflex" unicode="&#xea;" horiz-adv-x="1957" 
d="M1417 1597v-219l-424 164l-424 -164v219l424 164zM999 182q219 0 339 55.5t171 157.5h277q-56 -206 -262.5 -321t-526.5 -115q-187 0 -339.5 39t-266 116t-175.5 200t-62 282q0 127 41.5 232.5t116 180t177.5 126t226 76t262 24.5q144 0 264.5 -21.5t226.5 -73t179 -131
t115 -200.5t42 -277h-1372q20 -182 162 -266t405 -84zM977 1016q-444 0 -528 -275h1062q-77 275 -534 275z" />
    <glyph glyph-name="edieresis" unicode="&#xeb;" horiz-adv-x="1957" 
d="M561 1638h334v-204h-334v204zM1094 1638h333v-204h-333v204zM999 182q219 0 339 55.5t171 157.5h277q-56 -206 -262.5 -321t-526.5 -115q-187 0 -339.5 39t-266 116t-175.5 200t-62 282q0 127 41.5 232.5t116 180t177.5 126t226 76t262 24.5q144 0 264.5 -21.5t226.5 -73
t179 -131t115 -200.5t42 -277h-1372q20 -182 162 -266t405 -84zM977 1016q-444 0 -528 -275h1062q-77 275 -534 275z" />
    <glyph glyph-name="igrave" unicode="&#xec;" horiz-adv-x="626" 
d="M-86 1761l797 -164v-208l-797 163v209zM176 0v1194h275v-1194h-275z" />
    <glyph glyph-name="iacute" unicode="&#xed;" horiz-adv-x="626" 
d="M-86 1389v208l797 164v-209zM176 0v1194h275v-1194h-275z" />
    <glyph glyph-name="icircumflex" unicode="&#xee;" horiz-adv-x="626" 
d="M-111 1597l424 164l424 -164v-219l-424 164l-424 -164v219zM451 0h-275v1194h275v-1194z" />
    <glyph glyph-name="idieresis" unicode="&#xef;" horiz-adv-x="626" 
d="M-119 1434v204h332v-204h-332zM414 1434v204h331v-204h-331zM176 0v1194h275v-1194h-275z" />
    <glyph glyph-name="ntilde" unicode="&#xf1;" horiz-adv-x="2013" 
d="M850 1573q-123 0 -123 -184h-250q0 64 12.5 121t39.5 107.5t66.5 87t98 58t129.5 21.5q70 0 130 -20.5t102 -50t80 -59.5t80 -50.5t85 -20.5q68 0 95.5 48.5t27.5 135.5h252q0 -81 -20.5 -151t-61 -125.5t-108.5 -88t-156 -32.5q-70 0 -130 21t-102.5 50.5t-80.5 59.5
t-80 51t-86 21zM1143 1235q162 0 285.5 -35t216 -109.5t141.5 -199t51 -295.5v-596h-256v539q0 118 -25.5 202t-83.5 145t-156.5 90.5t-240.5 29.5q-141 0 -257.5 -33t-203 -97.5t-134.5 -167t-48 -233.5v-475h-256v1194h256v-266q239 307 711 307z" />
    <glyph glyph-name="ograve" unicode="&#xf2;" horiz-adv-x="1988" 
d="M596 1761l797 -164v-208l-797 163v209zM995 -41q-188 0 -341 39.5t-265 117t-173.5 200t-61.5 280.5q0 211 108 356.5t294.5 214t438.5 68.5q187 0 340 -39.5t265 -117.5t173.5 -200.5t61.5 -281.5q0 -210 -108 -355t-294.5 -213.5t-437.5 -68.5zM995 184
q277 0 420.5 103t143.5 309q0 207 -143 310.5t-421 103.5q-565 0 -565 -414q0 -206 143 -309t422 -103z" />
    <glyph glyph-name="oacute" unicode="&#xf3;" horiz-adv-x="1988" 
d="M596 1389v208l797 164v-209zM995 -41q-188 0 -341 39.5t-265 117t-173.5 200t-61.5 280.5q0 211 108 356.5t294.5 214t438.5 68.5q187 0 340 -39.5t265 -117.5t173.5 -200.5t61.5 -281.5q0 -210 -108 -355t-294.5 -213.5t-437.5 -68.5zM995 184q277 0 420.5 103
t143.5 309q0 207 -143 310.5t-421 103.5q-565 0 -565 -414q0 -206 143 -309t422 -103z" />
    <glyph glyph-name="ocircumflex" unicode="&#xf4;" horiz-adv-x="1988" 
d="M1419 1597v-219l-424 164l-424 -164v219l424 164zM995 1235q187 0 340 -39.5t265 -117.5t173.5 -200.5t61.5 -281.5q0 -210 -108 -355t-294.5 -213.5t-437.5 -68.5q-188 0 -341 39.5t-265 117t-173.5 200t-61.5 280.5q0 211 108 356.5t294.5 214t438.5 68.5zM995 184
q277 0 420.5 103t143.5 309q0 207 -143 310.5t-421 103.5q-565 0 -565 -414q0 -206 143 -309t422 -103z" />
    <glyph glyph-name="otilde" unicode="&#xf5;" horiz-adv-x="1988" 
d="M647 1389h-252q0 63 12.5 120.5t40 108t67 87t97.5 58t129 21.5q59 0 112 -15t89 -37t73 -48.5t66.5 -48.5t66 -37t73.5 -15q67 0 94.5 48.5t27.5 135.5h250q0 -81 -20.5 -150.5t-60.5 -126t-108.5 -88.5t-156.5 -32q-70 0 -130 21t-102 50.5t-80 59.5t-80 51t-85 21
q-123 0 -123 -184zM995 -41q-188 0 -341 39.5t-265 117t-173.5 200t-61.5 280.5q0 211 108 356.5t294.5 214t438.5 68.5q187 0 340 -39.5t265 -117.5t173.5 -200.5t61.5 -281.5q0 -210 -108 -355t-294.5 -213.5t-437.5 -68.5zM995 184q277 0 420.5 103t143.5 309
q0 207 -143 310.5t-421 103.5q-565 0 -565 -414q0 -206 143 -309t422 -103z" />
    <glyph glyph-name="odieresis" unicode="&#xf6;" horiz-adv-x="1988" 
d="M561 1434v204h334v-204h-334zM1094 1434v204h333v-204h-333zM995 -41q-188 0 -341 39.5t-265 117t-173.5 200t-61.5 280.5q0 211 108 356.5t294.5 214t438.5 68.5q187 0 340 -39.5t265 -117.5t173.5 -200.5t61.5 -281.5q0 -210 -108 -355t-294.5 -213.5t-437.5 -68.5z
M995 184q277 0 420.5 103t143.5 309q0 207 -143 310.5t-421 103.5q-565 0 -565 -414q0 -206 143 -309t422 -103z" />
    <glyph glyph-name="divide" unicode="&#xf7;" horiz-adv-x="1992" 
d="M864 1024v217h246v-217h-246zM176 580v223h1639v-223h-1639zM864 143v217h246v-217h-246z" />
    <glyph glyph-name="oslash" unicode="&#xf8;" horiz-adv-x="1988" 
d="M1374 1487l-82 -281q256 -56 399.5 -210t143.5 -400q0 -210 -108 -355t-294.5 -213.5t-437.5 -68.5q-44 0 -67 2l-74 -256h-240l82 283q-256 56 -399 209t-143 399q0 211 108 356.5t294.5 214t438.5 68.5q44 0 64 -2l74 254h241zM430 596q0 -311 330 -389l233 803
q-563 0 -563 -414zM995 184q277 0 420.5 103t143.5 309q0 316 -330 391l-236 -803h2z" />
    <glyph glyph-name="ugrave" unicode="&#xf9;" horiz-adv-x="2013" 
d="M686 1532l-98 203l696 -117l100 -203zM1581 717v477h256v-1194h-256v266q-239 -307 -711 -307q-161 0 -284.5 34.5t-216 109t-142 198.5t-51.5 295v598h256v-539q0 -118 25.5 -202.5t84 -145.5t157 -91t241.5 -30q140 0 256 33t202.5 97.5t134.5 167t48 233.5z" />
    <glyph glyph-name="uacute" unicode="&#xfa;" horiz-adv-x="2013" 
d="M686 1409l-98 162l696 170l100 -162zM1581 717v477h256v-1194h-256v266q-239 -307 -711 -307q-161 0 -284.5 34.5t-216 109t-142 198.5t-51.5 295v598h256v-539q0 -118 25.5 -202.5t84 -145.5t157 -91t241.5 -30q140 0 256 33t202.5 97.5t134.5 167t48 233.5z" />
    <glyph glyph-name="ucircumflex" unicode="&#xfb;" horiz-adv-x="2013" 
d="M934 1741l424 -123l53 -213l-371 117l-424 -123l-53 172zM1581 717v477h256v-1194h-256v266q-239 -307 -711 -307q-161 0 -284.5 34.5t-216 109t-142 198.5t-51.5 295v598h256v-539q0 -118 25.5 -202.5t84 -145.5t157 -91t241.5 -30q140 0 256 33t202.5 97.5t134.5 167
t48 233.5z" />
    <glyph glyph-name="udieresis" unicode="&#xfc;" horiz-adv-x="2013" 
d="M600 1434l-47 180l287 24l47 -178zM1133 1434l-48 180l287 24l47 -178zM1581 717v477h256v-1194h-256v266q-239 -307 -711 -307q-161 0 -284.5 34.5t-216 109t-142 198.5t-51.5 295v598h256v-539q0 -118 25.5 -202.5t84 -145.5t157 -91t241.5 -30q140 0 256 33
t202.5 97.5t134.5 167t48 233.5z" />
    <glyph glyph-name="yacute" unicode="&#xfd;" horiz-adv-x="2082" 
d="M659 1597l797 164v-209l-797 -163v208zM1047 131l598 1063h286l-733 -1305q-59 -107 -113 -179t-123 -130t-154 -85t-192 -27q-177 0 -391 40v224q185 -39 344 -39q129 0 213 56.5t166 205.5l25 45h-146l-673 1194h292z" />
    <glyph glyph-name="thorn" unicode="&#xfe;" horiz-adv-x="2007" 
d="M1092 1231q118 0 223 -19.5t204 -66.5t170.5 -118t114.5 -181.5t43 -249.5q0 -138 -43 -248.5t-114.5 -181.5t-170.5 -118.5t-204.5 -67t-222.5 -19.5q-447 0 -639 238v-598h-277v2037h277v-645q192 238 639 238zM1012 193q559 0 559 403q0 405 -559 405t-559 -405
q0 -403 559 -403z" />
    <glyph glyph-name="ydieresis" unicode="&#xff;" horiz-adv-x="2082" 
d="M627 1638h334v-204h-334v204zM1159 1638h334v-204h-334v204zM1047 131l598 1063h286l-733 -1305q-59 -107 -113 -179t-123 -130t-154 -85t-192 -27q-177 0 -391 40v224q185 -39 344 -39q129 0 213 56.5t166 205.5l25 45h-146l-673 1194h292z" />
    <glyph glyph-name="Amacron" unicode="&#x100;" horiz-adv-x="2312" 
d="M674 1884h960v-205h-960v205zM2154 0h-296l-179 311h-1046l-178 -311h-299l833 1440h332zM1155 1223l-393 -686h786z" />
    <glyph glyph-name="amacron" unicode="&#x101;" horiz-adv-x="1921" 
d="M510 1638h960v-204h-960v204zM991 1235q195 0 334.5 -32t239.5 -104.5t149.5 -193.5t50.5 -295v-610h-256v147q-211 -89 -400.5 -137.5t-406.5 -48.5q-283 0 -425 101t-142 309q0 91 38 163.5t104 120t159.5 78.5t198 44.5t225.5 13.5q310 0 649 -97q-1 60 -23.5 109
t-56.5 81.5t-82.5 57t-96 38t-103 21.5t-96.5 10.5t-84 2.5q-315 0 -637 -105l-94 203q394 123 755 123zM780 182q139 0 340.5 50t388.5 120v129q-322 94 -632 94q-465 0 -465 -204q0 -58 25.5 -96t77 -58t113.5 -27.5t152 -7.5z" />
    <glyph glyph-name="Abreve" unicode="&#x102;" horiz-adv-x="2312" 
d="M1155 1599q-82 0 -146.5 9.5t-126 35.5t-102.5 68.5t-65.5 112.5t-24.5 164h211q0 -112 65 -156.5t189 -44.5t190 44.5t66 156.5h209q0 -94 -24.5 -164t-65.5 -112.5t-102.5 -68.5t-126 -35.5t-146.5 -9.5zM2154 0h-296l-179 311h-1046l-178 -311h-299l833 1440h332z
M1155 1223l-393 -686h786z" />
    <glyph glyph-name="abreve" unicode="&#x103;" horiz-adv-x="1921" 
d="M991 1354q-82 0 -146.5 9.5t-126 35t-102.5 68t-65.5 112.5t-24.5 164h211q0 -112 65 -156.5t189 -44.5t190 44.5t66 156.5h209q0 -94 -24.5 -164t-65.5 -112.5t-102.5 -68t-126 -35t-146.5 -9.5zM991 1235q195 0 334.5 -32t239.5 -104.5t149.5 -193.5t50.5 -295v-610
h-256v147q-211 -89 -400.5 -137.5t-406.5 -48.5q-283 0 -425 101t-142 309q0 91 38 163.5t104 120t159.5 78.5t198 44.5t225.5 13.5q310 0 649 -97q-1 60 -23.5 109t-56.5 81.5t-82.5 57t-96 38t-103 21.5t-96.5 10.5t-84 2.5q-315 0 -637 -105l-94 203q394 123 755 123z
M780 182q139 0 340.5 50t388.5 120v129q-322 94 -632 94q-465 0 -465 -204q0 -58 25.5 -96t77 -58t113.5 -27.5t152 -7.5z" />
    <glyph glyph-name="Aogonek" unicode="&#x104;" horiz-adv-x="2312" 
d="M1921 -164q0 -133 233 -133v-215q-239 0 -368 61t-129 205q0 48 21 90.5t54.5 72.5t67.5 50.5t68 32.5h-10l-179 311h-1046l-178 -311h-299l833 1440h332l833 -1440h-6q-227 -49 -227 -164zM1155 1223l-393 -686h786z" />
    <glyph glyph-name="aogonek" unicode="&#x105;" horiz-adv-x="2009" 
d="M1530 -164q0 -41 19 -69t54.5 -41t73.5 -18t90 -5v-215q-249 0 -375 57t-126 191q0 174 245 264h-2v147q-211 -89 -400.5 -137.5t-406.5 -48.5q-283 0 -425 101t-142 309q0 91 38 163.5t104 120t159.5 78.5t198 44.5t225.5 13.5q310 0 649 -97q-1 60 -23.5 109
t-56.5 81.5t-82.5 57t-96 38t-103 21.5t-96.5 10.5t-84 2.5q-315 0 -637 -105l-94 203q394 123 755 123q195 0 334.5 -32t239.5 -104.5t149.5 -193.5t50.5 -295v-610h-6q-119 -10 -174 -54t-55 -110zM780 182q139 0 340.5 50t388.5 120v129q-322 94 -632 94
q-465 0 -465 -204q0 -58 25.5 -96t77 -58t113.5 -27.5t152 -7.5z" />
    <glyph glyph-name="Cacute" unicode="&#x106;" horiz-adv-x="2109" 
d="M680 1634v209l797 164v-209zM156 721q0 176 57 315.5t170 239t289.5 152.5t406.5 53q200 0 360 -43.5t265.5 -120.5t167.5 -177t78 -220h-283q-30 156 -179.5 241.5t-408.5 85.5q-641 0 -641 -526q0 -528 641 -528q257 0 407.5 87.5t180.5 243.5h285q-17 -121 -79.5 -222
t-168 -178.5t-265.5 -121t-360 -43.5q-230 0 -406.5 53.5t-289.5 153.5t-170 239.5t-57 315.5z" />
    <glyph glyph-name="cacute" unicode="&#x107;" horiz-adv-x="1939" 
d="M596 1389v208l797 164v-209zM154 596q0 160 60.5 282.5t172 200t262.5 117t338 39.5q332 0 539.5 -125.5t259.5 -374.5h-279q-40 139 -167 207t-353 68q-559 0 -559 -414q0 -412 559 -412q225 0 352.5 67.5t167.5 205.5h279q-52 -247 -259.5 -372.5t-539.5 -125.5
q-187 0 -338 39t-262.5 116t-172 199.5t-60.5 282.5z" />
    <glyph glyph-name="Cdotaccent" unicode="&#x10a;" horiz-adv-x="2109" 
d="M909 1679v205h338v-205h-338zM156 721q0 176 57 315.5t170 239t289.5 152.5t406.5 53q200 0 360 -43.5t265.5 -120.5t167.5 -177t78 -220h-283q-30 156 -179.5 241.5t-408.5 85.5q-641 0 -641 -526q0 -528 641 -528q257 0 407.5 87.5t180.5 243.5h285
q-17 -121 -79.5 -222t-168 -178.5t-265.5 -121t-360 -43.5q-230 0 -406.5 53.5t-289.5 153.5t-170 239.5t-57 315.5z" />
    <glyph glyph-name="cdotaccent" unicode="&#x10b;" horiz-adv-x="1939" 
d="M827 1434v204h338v-204h-338zM154 596q0 160 60.5 282.5t172 200t262.5 117t338 39.5q332 0 539.5 -125.5t259.5 -374.5h-279q-40 139 -167 207t-353 68q-559 0 -559 -414q0 -412 559 -412q225 0 352.5 67.5t167.5 205.5h279q-52 -247 -259.5 -372.5t-539.5 -125.5
q-187 0 -338 39t-262.5 116t-172 199.5t-60.5 282.5z" />
    <glyph glyph-name="Ccaron" unicode="&#x10c;" horiz-adv-x="2109" 
d="M1503 1985v-220l-424 -163l-424 163v220l424 -164zM1667 524h285q-17 -121 -79.5 -222t-168 -178.5t-265.5 -121t-360 -43.5q-230 0 -406.5 53.5t-289.5 153.5t-170 239.5t-57 315.5t57 315.5t170 239t289.5 152.5t406.5 53q200 0 360 -43.5t265.5 -120.5t167.5 -177
t78 -220h-283q-30 156 -179.5 241.5t-408.5 85.5q-641 0 -641 -526q0 -528 641 -528q257 0 407.5 87.5t180.5 243.5z" />
    <glyph glyph-name="ccaron" unicode="&#x10d;" horiz-adv-x="1939" 
d="M1419 1739v-219l-424 -164l-424 164v219l424 -164zM987 184q225 0 352.5 67.5t167.5 205.5h279q-52 -247 -259.5 -372.5t-539.5 -125.5q-187 0 -338 39t-262.5 116t-172 199.5t-60.5 282.5t60.5 282.5t172 200t262.5 117t338 39.5q332 0 539.5 -125.5t259.5 -374.5h-279
q-40 139 -167 207t-353 68q-559 0 -559 -414q0 -412 559 -412z" />
    <glyph glyph-name="Dcaron" unicode="&#x10e;" horiz-adv-x="2070" 
d="M901 1817l424 163v-219l-424 -164l-424 164v219zM176 1440h1030q116 0 220 -27.5t193.5 -85t154.5 -141.5t102 -203.5t37 -263.5q0 -143 -37 -262t-102 -202.5t-154.5 -141.5t-193.5 -85.5t-220 -27.5h-1030v1440zM438 1206v-973h635q147 0 245 20.5t172 74t108 149.5
t34 242q0 118 -23 203t-66 140t-113.5 87t-155 44.5t-201.5 12.5h-635z" />
    <glyph glyph-name="dcaron" unicode="&#x10f;" horiz-adv-x="2379" 
d="M1556 987v651h256v-1638h-256v207q-190 -248 -641 -248q-162 0 -299 39.5t-241 116.5t-162.5 200t-58.5 281q0 127 38.5 232.5t107 180t164 126t209 76t242.5 24.5q451 0 641 -248zM1935 1413v225h258v-225l-131 -379h-123l86 379h-90zM985 186q271 0 421 109.5
t150 300.5t-150 300.5t-421 109.5t-413 -108.5t-142 -301.5t142 -301.5t413 -108.5z" />
    <glyph glyph-name="Dcroat" unicode="&#x110;" horiz-adv-x="2113" 
d="M221 1440h1028q116 0 220.5 -27.5t194.5 -85t155 -141.5t102 -203.5t37 -263.5q0 -143 -37 -262t-102 -202.5t-155 -141.5t-194.5 -85.5t-220.5 -27.5h-1028v657h-164v123h164v660zM481 657v-424h635q147 0 245 20.5t172 74t108 149.5t34 242q0 118 -23 203t-66 140
t-113.5 87t-155 44.5t-201.5 12.5h-635v-426h559v-123h-559z" />
    <glyph glyph-name="dcroat" unicode="&#x111;" horiz-adv-x="2148" 
d="M1812 1518h199v-205h-199v-1313h-256v207q-190 -248 -641 -248q-162 0 -299 39.5t-241 116.5t-162.5 200t-58.5 281q0 127 38.5 232.5t107 180t164 126t209 76t242.5 24.5q451 0 641 -248v326h-626v205h626v120h256v-120zM985 186q271 0 421 109.5t150 300.5t-150 300.5
t-421 109.5t-413 -108.5t-142 -301.5t142 -301.5t413 -108.5z" />
    <glyph glyph-name="Emacron" unicode="&#x112;" horiz-adv-x="1851" 
d="M1421 1679h-960v205h960v-205zM176 0v1440h1516v-230h-1254v-376h1213v-228h-1213v-379h1254v-227h-1516z" />
    <glyph glyph-name="emacron" unicode="&#x113;" horiz-adv-x="1957" 
d="M512 1638h961v-204h-961v204zM999 182q219 0 339 55.5t171 157.5h277q-56 -206 -262.5 -321t-526.5 -115q-187 0 -339.5 39t-266 116t-175.5 200t-62 282q0 127 41.5 232.5t116 180t177.5 126t226 76t262 24.5q144 0 264.5 -21.5t226.5 -73t179 -131t115 -200.5t42 -277
h-1372q20 -182 162 -266t405 -84zM977 1016q-444 0 -528 -275h1062q-77 275 -534 275z" />
    <glyph glyph-name="Edotaccent" unicode="&#x116;" horiz-adv-x="1851" 
d="M1112 1679h-338v205h338v-205zM176 0v1440h1516v-230h-1254v-376h1213v-228h-1213v-379h1254v-227h-1516z" />
    <glyph glyph-name="edotaccent" unicode="&#x117;" horiz-adv-x="1957" 
d="M825 1638h338v-204h-338v204zM999 182q219 0 339 55.5t171 157.5h277q-56 -206 -262.5 -321t-526.5 -115q-187 0 -339.5 39t-266 116t-175.5 200t-62 282q0 127 41.5 232.5t116 180t177.5 126t226 76t262 24.5q144 0 264.5 -21.5t226.5 -73t179 -131t115 -200.5t42 -277
h-1372q20 -182 162 -266t405 -84zM977 1016q-444 0 -528 -275h1062q-77 275 -534 275z" />
    <glyph glyph-name="Eogonek" unicode="&#x118;" horiz-adv-x="1851" 
d="M1454 0h-1278v1440h1516v-230h-1254v-376h1213v-228h-1213v-379h1254v-227h-43q-100 -25 -146.5 -64t-46.5 -100q0 -41 18.5 -69t54 -41t73.5 -18t90 -5v-215q-251 0 -376.5 60t-125.5 206q0 97 71.5 159.5t192.5 86.5z" />
    <glyph glyph-name="eogonek" unicode="&#x119;" horiz-adv-x="1951" 
d="M999 182q219 0 339 55.5t171 157.5h277q-43 -159 -178 -265.5t-346 -147.5q-89 -26 -118.5 -53.5t-29.5 -71.5q0 -21 7 -37.5t23 -28t32 -20t45 -13.5t50 -8t59 -4t60 -1.5t64 -0.5v-215q-122 0 -209 5.5t-163 21t-121.5 42t-71 69t-25.5 102.5q0 70 47.5 116t157.5 76
q-23 -2 -72 -2q-187 0 -339.5 39t-266 116t-175.5 200t-62 282q0 127 41.5 232.5t116 180t177.5 126t226 76t262 24.5q144 0 264.5 -21.5t226.5 -73t179 -131t115 -200.5t42 -277h-1372q20 -182 162 -266t405 -84zM977 1016q-444 0 -528 -275h1062q-77 275 -534 275z" />
    <glyph glyph-name="Ecaron" unicode="&#x11a;" horiz-adv-x="1851" 
d="M518 1985l424 -164l424 164v-220l-424 -163l-424 163v220zM176 0v1440h1516v-230h-1254v-376h1213v-228h-1213v-379h1254v-227h-1516z" />
    <glyph glyph-name="ecaron" unicode="&#x11b;" horiz-adv-x="1957" 
d="M1417 1739v-219l-424 -164l-424 164v219l424 -164zM999 182q219 0 339 55.5t171 157.5h277q-56 -206 -262.5 -321t-526.5 -115q-187 0 -339.5 39t-266 116t-175.5 200t-62 282q0 127 41.5 232.5t116 180t177.5 126t226 76t262 24.5q144 0 264.5 -21.5t226.5 -73t179 -131
t115 -200.5t42 -277h-1372q20 -182 162 -266t405 -84zM977 1016q-444 0 -528 -275h1062q-77 275 -534 275z" />
    <glyph glyph-name="Gbreve" unicode="&#x11e;" horiz-adv-x="2109" 
d="M610 1989h211q0 -112 65 -156.5t189 -44.5t190 44.5t66 156.5h209q0 -94 -24.5 -164t-65.5 -112.5t-102.5 -68.5t-126 -35.5t-146.5 -9.5t-146.5 9.5t-126 35.5t-102.5 68.5t-65.5 112.5t-24.5 164zM156 719q0 352 244.5 557t678.5 205q198 0 359 -43.5t267 -120
t168.5 -176t78.5 -215.5h-283q-31 151 -182 236t-408 85q-116 0 -212.5 -20.5t-161.5 -53t-114.5 -79t-78 -93.5t-46 -101.5t-23 -97t-5.5 -85.5q0 -42 6.5 -85.5t26 -97t50 -101.5t83 -94t119.5 -79t165 -53.5t216 -20.5q187 0 314 26t268 87v233h-625v218h891v-564
q-229 -125 -423 -176t-427 -51q-439 0 -692.5 205t-253.5 555z" />
    <glyph glyph-name="gbreve" unicode="&#x11f;" horiz-adv-x="1988" 
d="M991 1354q-82 0 -146.5 9.5t-126 35t-102.5 68t-65.5 112.5t-24.5 164h211q0 -112 65 -156.5t189 -44.5t190 44.5t66 156.5h209q0 -94 -24.5 -164t-65.5 -112.5t-102.5 -68t-126 -35t-146.5 -9.5zM1556 993v201h256v-1040q0 -355 -198.5 -520.5t-575.5 -165.5
q-369 0 -762 96l9 215q4 -1 50 -10t58.5 -11t59 -11t67.5 -12t67.5 -10.5t74.5 -10.5t72 -8t78.5 -7t75.5 -4t79 -2q170 0 284 30.5t181.5 96.5t95.5 158.5t28 226.5q-187 -242 -622 -242q-130 0 -245 23.5t-213.5 74t-169.5 124.5t-111.5 180t-40.5 235q0 159 61.5 283
t169.5 199.5t247 114t302 38.5q435 0 622 -242zM993 193q273 0 418 108t145 299q0 189 -145.5 297.5t-417.5 108.5t-417.5 -108.5t-145.5 -297.5q0 -191 145 -299t418 -108z" />
    <glyph glyph-name="Gdotaccent" unicode="&#x120;" horiz-adv-x="2109" 
d="M907 1679v205h338v-205h-338zM156 719q0 352 244.5 557t678.5 205q198 0 359 -43.5t267 -120t168.5 -176t78.5 -215.5h-283q-31 151 -182 236t-408 85q-116 0 -212.5 -20.5t-161.5 -53t-114.5 -79t-78 -93.5t-46 -101.5t-23 -97t-5.5 -85.5q0 -42 6.5 -85.5t26 -97
t50 -101.5t83 -94t119.5 -79t165 -53.5t216 -20.5q187 0 314 26t268 87v233h-625v218h891v-564q-229 -125 -423 -176t-427 -51q-439 0 -692.5 205t-253.5 555z" />
    <glyph glyph-name="gdotaccent" unicode="&#x121;" horiz-adv-x="1988" 
d="M823 1638h338v-204h-338v204zM1556 993v201h256v-1040q0 -355 -198.5 -520.5t-575.5 -165.5q-369 0 -762 96l9 215q4 -1 50 -10t58.5 -11t59 -11t67.5 -12t67.5 -10.5t74.5 -10.5t72 -8t78.5 -7t75.5 -4t79 -2q170 0 284 30.5t181.5 96.5t95.5 158.5t28 226.5
q-187 -242 -622 -242q-130 0 -245 23.5t-213.5 74t-169.5 124.5t-111.5 180t-40.5 235q0 159 61.5 283t169.5 199.5t247 114t302 38.5q435 0 622 -242zM993 193q273 0 418 108t145 299q0 189 -145.5 297.5t-417.5 108.5t-417.5 -108.5t-145.5 -297.5q0 -191 145 -299
t418 -108z" />
    <glyph glyph-name="uni0122" unicode="&#x122;" horiz-adv-x="2109" 
d="M156 719q0 352 244.5 557t678.5 205q198 0 359 -43.5t267 -120t168.5 -176t78.5 -215.5h-283q-31 151 -182 236t-408 85q-116 0 -212.5 -20.5t-161.5 -53t-114.5 -79t-78 -93.5t-46 -101.5t-23 -97t-5.5 -85.5q0 -42 6.5 -85.5t26 -97t50 -101.5t83 -94t119.5 -79
t165 -53.5t216 -20.5q187 0 314 26t268 87v233h-625v218h891v-564q-229 -125 -423 -176t-427 -51q-439 0 -692.5 205t-253.5 555zM1001 -371v209h267v-209l-140 -225h-127l105 225h-105z" />
    <glyph glyph-name="uni0123" unicode="&#x123;" horiz-adv-x="1988" 
d="M1022 1661h102v-209h-266v209l139 225h127zM1556 993v201h256v-1040q0 -355 -198.5 -520.5t-575.5 -165.5q-369 0 -762 96l9 215q4 -1 50 -10t58.5 -11t59 -11t67.5 -12t67.5 -10.5t74.5 -10.5t72 -8t78.5 -7t75.5 -4t79 -2q170 0 284 30.5t181.5 96.5t95.5 158.5
t28 226.5q-187 -242 -622 -242q-130 0 -245 23.5t-213.5 74t-169.5 124.5t-111.5 180t-40.5 235q0 159 61.5 283t169.5 199.5t247 114t302 38.5q435 0 622 -242zM993 193q273 0 418 108t145 299q0 189 -145.5 297.5t-417.5 108.5t-417.5 -108.5t-145.5 -297.5
q0 -191 145 -299t418 -108z" />
    <glyph glyph-name="Hbar" unicode="&#x126;" horiz-adv-x="2242" 
d="M1739 1440h260v-201h143v-205h-143v-1034h-260v602h-1235v-602h-260v1034h-144v205h144v201h260v-201h1235v201zM1739 1034h-1235v-198h1235v198z" />
    <glyph glyph-name="hbar" unicode="&#x127;" horiz-adv-x="2154" 
d="M1284 1235q161 0 284.5 -35t216 -109.5t142 -199t51.5 -295.5v-596h-256v539q0 118 -25.5 202t-84 145t-157 90.5t-241.5 29.5q-140 0 -256 -33t-202.5 -97.5t-134.5 -167t-48 -233.5v-475h-256v1313h-182v205h182v120h256v-120h646v-205h-646v-385q239 307 711 307z" />
    <glyph glyph-name="Imacron" unicode="&#x12a;" horiz-adv-x="614" 
d="M-174 1679v205h960v-205h-960zM176 1440h262v-1440h-262v1440z" />
    <glyph glyph-name="imacron" unicode="&#x12b;" horiz-adv-x="626" 
d="M-168 1434v204h961v-204h-961zM176 0v1194h275v-1194h-275z" />
    <glyph glyph-name="Iogonek" unicode="&#x12e;" horiz-adv-x="632" 
d="M244 -164q0 -41 19 -69t54.5 -41t73.5 -18t90 -5v-215q-251 0 -376 60t-125 206q0 48 17 87.5t51 69t65 48.5t77 41h-16v1440h262v-1440h2q-101 -25 -147.5 -64t-46.5 -100z" />
    <glyph glyph-name="iogonek" unicode="&#x12f;" horiz-adv-x="630" 
d="M104 1638h347v-215h-347v215zM264 -164q0 -41 19 -69t55 -41t74 -18t90 -5v-215q-251 0 -376.5 60t-125.5 206q0 25 5.5 48t12 40t21 36.5t23.5 30.5t29 28t28 22.5t30.5 21.5t26.5 19v1194h275v-1194h2q-97 -25 -143 -64t-46 -100z" />
    <glyph glyph-name="Idotaccent" unicode="&#x130;" horiz-adv-x="614" 
d="M139 1679v205h338v-205h-338zM176 1440h262v-1440h-262v1440z" />
    <glyph glyph-name="dotlessi" unicode="&#x131;" horiz-adv-x="626" 
d="M176 0v1194h275v-1194h-275z" />
    <glyph glyph-name="uni0136" unicode="&#x136;" horiz-adv-x="2074" 
d="M1503 1440h416l-829 -649l829 -791h-371l-661 631l-449 -350v-281h-262v1440h262v-834zM930 -371h-103v209h267v-209l-140 -225h-127z" />
    <glyph glyph-name="uni0137" unicode="&#x137;" horiz-adv-x="1918" 
d="M1319 1194h446l-788 -532l788 -662h-385l-614 520l-334 -225v-295h-256v1638h256v-1042zM854 -371h-102v209h266v-209l-139 -225h-127z" />
    <glyph glyph-name="Lacute" unicode="&#x139;" horiz-adv-x="1697" 
d="M176 1634v209l797 164v-209zM176 1440h262v-1207h1106v-233h-1368v1440z" />
    <glyph glyph-name="lacute" unicode="&#x13a;" horiz-adv-x="610" 
d="M-94 1833v211l796 164v-211zM176 0v1638h256v-1638h-256z" />
    <glyph glyph-name="uni013B" unicode="&#x13b;" horiz-adv-x="1697" 
d="M176 1440h262v-1207h1106v-233h-1368v1440zM735 -596l105 225h-105v209h266v-209l-139 -225h-127z" />
    <glyph glyph-name="uni013C" unicode="&#x13c;" horiz-adv-x="610" 
d="M176 0v1638h256v-1638h-256zM172 -371v209h266v-209l-139 -225h-127l102 225h-102z" />
    <glyph glyph-name="Lcaron" unicode="&#x13d;" horiz-adv-x="1697" 
d="M176 1440h262v-1207h1106v-233h-1368v1440zM1354 1393v-209l-140 -226h-127l105 226h-105v209h267z" />
    <glyph glyph-name="lcaron" unicode="&#x13e;" horiz-adv-x="909" 
d="M176 0v1638h256v-1638h-256zM567 1389v208h267v-208l-140 -226h-127l103 226h-103z" />
    <glyph glyph-name="Lslash" unicode="&#x141;" horiz-adv-x="2023" 
d="M1245 903l-612 -295v-375h1106v-233h-1368v492l-207 -99v240l207 98v709h262v-590l612 293v-240z" />
    <glyph glyph-name="lslash" unicode="&#x142;" horiz-adv-x="1101" 
d="M670 1026l278 125v-225l-278 -125v-801h-256v686l-260 -117v226l260 116v727h256v-612z" />
    <glyph glyph-name="Nacute" unicode="&#x143;" horiz-adv-x="2144" 
d="M709 1634v209l796 164v-209zM551 1440l1155 -1182v1182h262v-1440h-375l-1155 1182v-1182h-262v1440h375z" />
    <glyph glyph-name="nacute" unicode="&#x144;" horiz-adv-x="2013" 
d="M1473 1552l-797 -163v208l797 164v-209zM432 0h-256v1194h256v-266q239 307 711 307q162 0 285.5 -35t216 -109.5t141.5 -199t51 -295.5v-596h-256v539q0 118 -25.5 202t-83.5 145t-156.5 90.5t-240.5 29.5q-141 0 -257.5 -33t-203 -97.5t-134.5 -167t-48 -233.5v-475z
" />
    <glyph glyph-name="uni0145" unicode="&#x145;" horiz-adv-x="2144" 
d="M551 1440l1155 -1182v1182h262v-1440h-375l-1155 1182v-1182h-262v1440h375zM889 -596l102 225h-102v209h266v-209l-139 -225h-127z" />
    <glyph glyph-name="uni0146" unicode="&#x146;" horiz-adv-x="2013" 
d="M1143 1235q162 0 285.5 -35t216 -109.5t141.5 -199t51 -295.5v-596h-256v539q0 118 -25.5 202t-83.5 145t-156.5 90.5t-240.5 29.5q-141 0 -257.5 -33t-203 -97.5t-134.5 -167t-48 -233.5v-475h-256v1194h256v-266q239 307 711 307zM973 -596l-84 27l67 198l-86 31
l52 178l215 -31l-25 -206z" />
    <glyph glyph-name="Ncaron" unicode="&#x147;" horiz-adv-x="2144" 
d="M684 1985l424 -164l424 164v-220l-424 -163l-424 163v220zM176 1440h375l1155 -1182v1182h262v-1440h-375l-1155 1182v-1182h-262v1440z" />
    <glyph glyph-name="ncaron" unicode="&#x148;" horiz-adv-x="2013" 
d="M705 1718l423 -123l371 117l-51 -213l-424 -123l-373 170zM1143 1235q162 0 285.5 -35t216 -109.5t141.5 -199t51 -295.5v-596h-256v539q0 118 -25.5 202t-83.5 145t-156.5 90.5t-240.5 29.5q-141 0 -257.5 -33t-203 -97.5t-134.5 -167t-48 -233.5v-475h-256v1194h256
v-266q239 307 711 307z" />
    <glyph glyph-name="Eng" unicode="&#x14a;" horiz-adv-x="2144" 
d="M551 1440l1155 -1182v1182h262v-1440q0 -272 -137.5 -412.5t-431.5 -140.5q-189 0 -363 49v217q67 -15 96.5 -21t94 -12t147.5 -6q78 0 134.5 15.5t90.5 42t53.5 69.5t26.5 89t7 110h-93l-1155 1182v-1182h-262v1440h375z" />
    <glyph glyph-name="eng" unicode="&#x14b;" horiz-adv-x="2013" 
d="M1143 1235q162 0 285.5 -35t216 -109.5t141.5 -199t51 -295.5v-596q0 -267 -132.5 -392.5t-418.5 -125.5q-181 0 -362 31v200q167 -20 231 -20q95 0 157 6t117.5 24.5t86 52.5t48 89t17.5 135v539q0 118 -25.5 202t-83.5 145t-156.5 90.5t-240.5 29.5q-141 0 -257.5 -33
t-203 -97.5t-134.5 -167t-48 -233.5v-475h-256v1194h256v-266q239 307 711 307z" />
    <glyph glyph-name="Omacron" unicode="&#x14c;" horiz-adv-x="2166" 
d="M602 1679v205h961v-205h-961zM1083 -41q-460 0 -693.5 202.5t-233.5 559.5t233.5 558.5t693.5 201.5q231 0 408.5 -53.5t290.5 -153.5t170 -239t57 -314t-57 -314t-170 -239.5t-290.5 -154.5t-408.5 -54zM1083 193q646 0 646 528q0 526 -646 526q-316 0 -480.5 -127
t-164.5 -399q0 -528 645 -528z" />
    <glyph glyph-name="omacron" unicode="&#x14d;" horiz-adv-x="1988" 
d="M514 1434v204h961v-204h-961zM995 -41q-188 0 -341 39.5t-265 117t-173.5 200t-61.5 280.5q0 211 108 356.5t294.5 214t438.5 68.5q187 0 340 -39.5t265 -117.5t173.5 -200.5t61.5 -281.5q0 -210 -108 -355t-294.5 -213.5t-437.5 -68.5zM995 184q277 0 420.5 103
t143.5 309q0 207 -143 310.5t-421 103.5q-565 0 -565 -414q0 -206 143 -309t422 -103z" />
    <glyph glyph-name="Ohungarumlaut" unicode="&#x150;" horiz-adv-x="2166" 
d="M639 1653v219l424 164v-219zM1186 1653v219l424 164v-219zM1083 -41q-460 0 -693.5 202.5t-233.5 559.5t233.5 558.5t693.5 201.5q231 0 408.5 -53.5t290.5 -153.5t170 -239t57 -314t-57 -314t-170 -239.5t-290.5 -154.5t-408.5 -54zM1083 193q646 0 646 528
q0 526 -646 526q-316 0 -480.5 -127t-164.5 -399q0 -528 645 -528z" />
    <glyph glyph-name="ohungarumlaut" unicode="&#x151;" horiz-adv-x="1988" 
d="M551 1407v219l424 164v-219zM1098 1407v219l424 164v-219zM995 -41q-188 0 -341 39.5t-265 117t-173.5 200t-61.5 280.5q0 211 108 356.5t294.5 214t438.5 68.5q187 0 340 -39.5t265 -117.5t173.5 -200.5t61.5 -281.5q0 -210 -108 -355t-294.5 -213.5t-437.5 -68.5z
M995 184q277 0 420.5 103t143.5 309q0 207 -143 310.5t-421 103.5q-565 0 -565 -414q0 -206 143 -309t422 -103z" />
    <glyph glyph-name="OE" unicode="&#x152;" horiz-adv-x="3516" 
d="M1843 1440h1516v-230h-1256v-376h1215v-228h-1215v-379h1256v-227h-1516v227q-236 -268 -760 -268q-460 0 -693.5 202.5t-233.5 559.5t233.5 558.5t693.5 201.5q523 0 760 -269v228zM1083 193q646 0 646 528q0 526 -646 526q-316 0 -480.5 -127t-164.5 -399
q0 -528 645 -528z" />
    <glyph glyph-name="oe" unicode="&#x153;" horiz-adv-x="3434" 
d="M2476 182q219 0 339 55.5t171 157.5h276q-56 -206 -262 -321t-526 -115q-256 0 -447.5 72.5t-293.5 216.5q-101 -144 -291.5 -216.5t-446.5 -72.5q-188 0 -341 39.5t-265 117t-173.5 200t-61.5 280.5q0 211 108 356.5t294.5 214t438.5 68.5q256 0 447.5 -73t292.5 -218
q102 144 290.5 217.5t428.5 73.5q144 0 264.5 -21.5t226.5 -73t179 -131t115 -200.5t42 -277h-1372q20 -182 162 -266t405 -84zM2454 1016q-445 0 -529 -275h1063q-77 275 -534 275zM995 184q277 0 420.5 103t143.5 309q0 207 -143 310.5t-421 103.5q-565 0 -565 -414
q0 -206 143 -309t422 -103z" />
    <glyph glyph-name="Racute" unicode="&#x154;" horiz-adv-x="2004" 
d="M526 1634v209l797 164v-209zM1575 631q104 -19 159.5 -86.5t55.5 -177.5v-367h-260v303q0 109 -39.5 145.5t-161.5 36.5h-891v-485h-262v1440h1075q264 0 410.5 -105.5t146.5 -328.5q0 -277 -233 -375zM1184 1208h-746v-493h746q34 0 52 0.5t51.5 2.5t53 6t48 12.5t46 21
t37.5 31t30.5 43t18 58t7.5 73.5t-7.5 73t-18 57t-30.5 42.5t-37 30.5t-45.5 20.5t-48 12.5t-53 6t-51 2.5t-51.5 0.5h-2z" />
    <glyph glyph-name="racute" unicode="&#x155;" horiz-adv-x="1478" 
d="M338 1597l797 164v-209l-797 -163v208zM1020 1235q172 0 323 -45v-229q-162 43 -317 43q-142 0 -279 -50.5t-315 -189.5v-764h-256v1194h256v-213q141 144 281 199t307 55z" />
    <glyph glyph-name="uni0156" unicode="&#x156;" horiz-adv-x="2004" 
d="M1575 631q104 -19 159.5 -86.5t55.5 -177.5v-367h-260v303q0 109 -39.5 145.5t-161.5 36.5h-891v-485h-262v1440h1075q264 0 410.5 -105.5t146.5 -328.5q0 -277 -233 -375zM1184 1208h-746v-493h746q34 0 52 0.5t51.5 2.5t53 6t48 12.5t46 21t37.5 31t30.5 43t18 58
t7.5 73.5t-7.5 73t-18 57t-30.5 42.5t-37 30.5t-45.5 20.5t-48 12.5t-53 6t-51 2.5t-51.5 0.5h-2zM889 -596l104 225h-104v209h266v-209l-139 -225h-127z" />
    <glyph glyph-name="uni0157" unicode="&#x157;" horiz-adv-x="1478" 
d="M1020 1235q172 0 323 -45v-229q-162 43 -317 43q-142 0 -279 -50.5t-315 -189.5v-764h-256v1194h256v-213q141 144 281 199t307 55zM274 -371h-102v209h266v-209l-139 -225h-127z" />
    <glyph glyph-name="Rcaron" unicode="&#x158;" horiz-adv-x="2004" 
d="M926 1821l424 164v-220l-424 -163l-424 163v220zM1575 631q104 -19 159.5 -86.5t55.5 -177.5v-367h-260v303q0 109 -39.5 145.5t-161.5 36.5h-891v-485h-262v1440h1075q264 0 410.5 -105.5t146.5 -328.5q0 -277 -233 -375zM1184 1208h-746v-493h746q34 0 52 0.5t51.5 2.5
t53 6t48 12.5t46 21t37.5 31t30.5 43t18 58t7.5 73.5t-7.5 73t-18 57t-30.5 42.5t-37 30.5t-45.5 20.5t-48 12.5t-53 6t-51 2.5t-51.5 0.5h-2z" />
    <glyph glyph-name="rcaron" unicode="&#x159;" horiz-adv-x="1478" 
d="M1161 1739v-219l-424 -164l-424 164v219l424 -164zM1020 1235q172 0 323 -45v-229q-162 43 -317 43q-142 0 -279 -50.5t-315 -189.5v-764h-256v1194h256v-213q141 144 281 199t307 55z" />
    <glyph glyph-name="Sacute" unicode="&#x15a;" horiz-adv-x="2144" 
d="M672 1634v209l796 164v-209zM156 467h282q0 -69 34 -119.5t112 -88.5t213.5 -56.5t330.5 -18.5q307 0 442.5 55.5t135.5 166.5q0 27 -4.5 47t-13.5 38t-28.5 31t-42 24t-62.5 19.5t-82.5 15.5t-108 13t-133 11t-164.5 11q-188 11 -322 30t-239 52t-167.5 83t-94 119.5
t-31.5 164.5q0 115 58.5 196.5t172 129t263 69t348.5 21.5q270 0 463 -53t299.5 -163t107.5 -270h-280q0 140 -144.5 200t-480.5 60q-206 0 -323 -23.5t-160 -66t-43 -112.5q0 -43 15.5 -72t51 -51.5t106 -38t166 -26.5t244.5 -21q118 -8 180 -13t159 -15t147 -20t122 -27
t108 -37.5t80.5 -51t64.5 -67.5t34.5 -85.5t14.5 -107.5q0 -109 -44.5 -191.5t-119.5 -133t-187.5 -82t-233 -43t-272.5 -11.5q-182 0 -326 15.5t-264.5 52.5t-202 95t-128.5 144.5t-53 200.5z" />
    <glyph glyph-name="sacute" unicode="&#x15b;" horiz-adv-x="1974" 
d="M588 1389v208l796 164v-209zM154 406h276q9 -84 69 -133t190.5 -73t350.5 -24q161 0 261.5 9.5t153.5 32t71 52t18 76.5q0 22 -3.5 37.5t-15.5 30t-27.5 23.5t-49 18.5t-70 15.5t-100 13t-129 12.5t-166.5 13.5q-85 6 -145.5 11.5t-129 13t-116 16t-99.5 20t-86.5 25.5
t-69 33t-56 42t-38.5 51t-24.5 62.5t-7.5 75.5q0 86 39.5 152t107.5 107.5t169 68t212 37t248 10.5q115 0 207.5 -6.5t183.5 -22t158.5 -44.5t121.5 -70.5t84.5 -103t37.5 -140.5h-277q-13 103 -131.5 137.5t-413.5 34.5q-180 0 -287 -19t-145.5 -49t-38.5 -75q0 -23 7 -39
t29.5 -30.5t57.5 -24.5t99.5 -20t145.5 -18.5t204 -19.5q31 -3 92 -8q91 -8 135.5 -12t120 -13t112.5 -17t94 -23t84.5 -32.5t63 -43t51 -56.5t27 -72t11.5 -90q0 -94 -35 -164t-97.5 -114.5t-160 -72t-209.5 -38t-258 -10.5q-109 0 -199 4.5t-184 17.5t-167.5 34
t-140.5 55.5t-111.5 80.5t-72.5 110.5t-32 144.5z" />
    <glyph glyph-name="Scedilla" unicode="&#x15e;" horiz-adv-x="2144" 
d="M1987 420q0 -91 -29.5 -163t-86 -122t-130 -84.5t-172.5 -54t-201.5 -28t-226.5 -9.5l-27 -131q72 37 168 37q90 0 146.5 -39t56.5 -111q0 -60 -37.5 -104.5t-99.5 -69.5t-146.5 -36.5t-175 -10t-188.5 13.5v168q200 -31 298.5 -24t98.5 61q0 47 -74 47q-55 0 -131 -30
l-141 55l37 180q-180 11 -315.5 43.5t-237 91.5t-156 150.5t-61.5 216.5h282q0 -69 34 -119.5t112 -88.5t213.5 -56.5t330.5 -18.5q307 0 442.5 55.5t135.5 166.5q0 27 -4.5 47t-13.5 38t-28.5 31t-42 24t-62.5 19.5t-82.5 15.5t-108 13t-133 11t-164.5 11q-188 11 -322 30
t-239 52t-167.5 83t-94 119.5t-31.5 164.5q0 115 58.5 196.5t172 129t263 69t348.5 21.5q270 0 463 -53t299.5 -163t107.5 -270h-280q0 140 -144.5 200t-480.5 60q-206 0 -323 -23.5t-160 -66t-43 -112.5q0 -43 15.5 -72t51 -51.5t106 -38t166 -26.5t244.5 -21
q118 -8 180 -13t159 -15t147 -20t122 -27t108 -37.5t80.5 -51t64.5 -67.5t34.5 -85.5t14.5 -107.5z" />
    <glyph glyph-name="scedilla" unicode="&#x15f;" horiz-adv-x="1974" 
d="M1061 -41h-4l-27 -131q69 37 166 37q90 0 147.5 -39t57.5 -111q0 -60 -37.5 -104.5t-99.5 -69.5t-146.5 -36.5t-175 -10t-188.5 13.5v168q200 -31 298.5 -24t98.5 61q0 47 -74 47q-53 0 -133 -30l-141 55l37 180q-119 7 -214.5 24t-183.5 49.5t-148 80.5t-97.5 121
t-42.5 166h276q9 -84 69 -133t190.5 -73t350.5 -24q161 0 261.5 9.5t153.5 32t71 52t18 76.5q0 22 -3.5 37.5t-15.5 30t-27.5 23.5t-49 18.5t-70 15.5t-100 13t-129 12.5t-166.5 13.5q-85 6 -145.5 11.5t-129 13t-116 16t-99.5 20t-86.5 25.5t-69 33t-56 42t-38.5 51
t-24.5 62.5t-7.5 75.5q0 86 39.5 152t107.5 107.5t169 68t212 37t248 10.5q115 0 207.5 -6.5t183.5 -22t158.5 -44.5t121.5 -70.5t84.5 -103t37.5 -140.5h-277q-13 103 -131.5 137.5t-413.5 34.5q-180 0 -287 -19t-145.5 -49t-38.5 -75q0 -23 7 -39t29.5 -30.5t57.5 -24.5
t99.5 -20t145.5 -18.5t204 -19.5q31 -3 92 -8q91 -8 135.5 -12t120 -13t112.5 -17t94 -23t84.5 -32.5t63 -43t51 -56.5t27 -72t11.5 -90q0 -94 -35 -164t-97.5 -114.5t-160 -72t-209.5 -38t-258 -10.5z" />
    <glyph glyph-name="Scaron" unicode="&#x160;" horiz-adv-x="2144" 
d="M1495 1985v-220l-424 -163l-424 163v220l424 -164zM1077 844q118 -8 180 -13t159 -15t147 -20t122 -27t108 -37.5t80.5 -51t64.5 -67.5t34.5 -85.5t14.5 -107.5q0 -109 -44.5 -191.5t-119.5 -133t-187.5 -82t-233 -43t-272.5 -11.5q-182 0 -326 15.5t-264.5 52.5t-202 95
t-128.5 144.5t-53 200.5h282q0 -69 34 -119.5t112 -88.5t213.5 -56.5t330.5 -18.5q307 0 442.5 55.5t135.5 166.5q0 27 -4.5 47t-13.5 38t-28.5 31t-42 24t-62.5 19.5t-82.5 15.5t-108 13t-133 11t-164.5 11q-188 11 -322 30t-239 52t-167.5 83t-94 119.5t-31.5 164.5
q0 115 58.5 196.5t172 129t263 69t348.5 21.5q270 0 463 -53t299.5 -163t107.5 -270h-280q0 140 -144.5 200t-480.5 60q-206 0 -323 -23.5t-160 -66t-43 -112.5q0 -43 15.5 -72t51 -51.5t106 -38t166 -26.5t244.5 -21z" />
    <glyph glyph-name="scaron" unicode="&#x161;" horiz-adv-x="1974" 
d="M1411 1739v-219l-424 -164l-424 164v219l424 -164zM1030 725q31 -3 92 -8q91 -8 135.5 -12t120 -13t112.5 -17t94 -23t84.5 -32.5t63 -43t51 -56.5t27 -72t11.5 -90q0 -94 -35 -164t-97.5 -114.5t-160 -72t-209.5 -38t-258 -10.5q-109 0 -199 4.5t-184 17.5t-167.5 34
t-140.5 55.5t-111.5 80.5t-72.5 110.5t-32 144.5h276q9 -84 69 -133t190.5 -73t350.5 -24q161 0 261.5 9.5t153.5 32t71 52t18 76.5q0 22 -3.5 37.5t-15.5 30t-27.5 23.5t-49 18.5t-70 15.5t-100 13t-129 12.5t-166.5 13.5q-85 6 -145.5 11.5t-129 13t-116 16t-99.5 20
t-86.5 25.5t-69 33t-56 42t-38.5 51t-24.5 62.5t-7.5 75.5q0 86 39.5 152t107.5 107.5t169 68t212 37t248 10.5q115 0 207.5 -6.5t183.5 -22t158.5 -44.5t121.5 -70.5t84.5 -103t37.5 -140.5h-277q-13 103 -131.5 137.5t-413.5 34.5q-180 0 -287 -19t-145.5 -49t-38.5 -75
q0 -23 7 -39t29.5 -30.5t57.5 -24.5t99.5 -20t145.5 -18.5t204 -19.5z" />
    <glyph glyph-name="uni0162" unicode="&#x162;" horiz-adv-x="2074" 
d="M1917 1440v-234h-750v-1206h-24l-31 -150q79 35 166 35q90 0 147.5 -38.5t57.5 -110.5q0 -60 -37.5 -104.5t-99.5 -69.5t-146.5 -36.5t-175 -10t-188.5 13.5v168q200 -31 298.5 -24t98.5 61q0 47 -74 47q-51 0 -133 -31l-141 55l39 195h-17v1206h-751v234h1761z" />
    <glyph glyph-name="uni0163" unicode="&#x163;" horiz-adv-x="1546" 
d="M1374 1194v-223h-608v-461q0 -68 4.5 -114.5t17 -85t32 -60.5t54 -37.5t79 -21t108.5 -5.5q117 0 313 25v-219q-223 -33 -370 -33h-37l-27 -127q65 35 166 35q90 0 147.5 -38.5t57.5 -109.5q0 -61 -37.5 -105.5t-99.5 -69.5t-146.5 -36.5t-175 -10t-188.5 13.5v167
q200 -31 298.5 -24t98.5 61q0 47 -74 47q-53 0 -133 -30l-141 55l39 195h24q-147 38 -206.5 153.5t-59.5 353.5v482h-356v223h356v279l256 86v-365h608z" />
    <glyph glyph-name="Tcaron" unicode="&#x164;" horiz-adv-x="2074" 
d="M1036 1821l424 164v-220l-424 -163l-424 163v220zM156 1440h1761v-234h-750v-1206h-260v1206h-751v234z" />
    <glyph glyph-name="tcaron" unicode="&#x165;" horiz-adv-x="1546" 
d="M1225 1489l-140 -221h-127l105 221h-105v207h267v-207zM1374 1194v-223h-608v-461q0 -68 4.5 -114.5t17 -85t32 -60.5t54 -37.5t79 -21t108.5 -5.5q117 0 313 25v-219q-223 -33 -370 -33q-145 0 -236.5 24.5t-151 86.5t-83 161.5t-23.5 257.5v482h-356v223h356v279
l256 86v-365h608z" />
    <glyph glyph-name="Tbar" unicode="&#x166;" horiz-adv-x="2074" 
d="M156 1440h1761v-234h-750v-432h498v-205h-498v-569h-260v569h-497v205h497v432h-751v234z" />
    <glyph glyph-name="tbar" unicode="&#x167;" horiz-adv-x="1546" 
d="M1374 1194v-223h-608v-211h608v-205h-608v-45q0 -68 4.5 -114.5t17 -85t32 -60.5t54 -37.5t79 -21t108.5 -5.5q117 0 313 25v-219q-223 -33 -370 -33q-145 0 -236.5 24.5t-151 86.5t-83 161.5t-23.5 257.5v66h-356v205h356v211h-356v223h356v279l256 86v-365h608z" />
    <glyph glyph-name="Umacron" unicode="&#x16a;" horiz-adv-x="2156" 
d="M596 1679v205h960v-205h-960zM1978 1440v-740q0 -377 -217 -559t-684 -182q-469 0 -685 181t-216 560v740h262v-735q0 -56 4.5 -101t20.5 -100t43 -97t75.5 -84t114 -69t163 -44t218.5 -17t219 17t164 44.5t114.5 69.5t75.5 84t43 97t20.5 100t4.5 100v735h260z" />
    <glyph glyph-name="umacron" unicode="&#x16b;" horiz-adv-x="2013" 
d="M625 1434l-119 180l840 24l120 -178zM1581 717v477h256v-1194h-256v266q-239 -307 -711 -307q-161 0 -284.5 34.5t-216 109t-142 198.5t-51.5 295v598h256v-539q0 -118 25.5 -202.5t84 -145.5t157 -91t241.5 -30q140 0 256 33t202.5 97.5t134.5 167t48 233.5z" />
    <glyph glyph-name="Uring" unicode="&#x16e;" horiz-adv-x="2156" 
d="M1077 1597q-432 0 -432 271q0 270 432 270q434 0 434 -270q0 -271 -434 -271zM1077 1743q223 0 223 125t-223 125q-221 0 -221 -125t221 -125zM1978 1440v-740q0 -377 -217 -559t-684 -182q-469 0 -685 181t-216 560v740h262v-735q0 -56 4.5 -101t20.5 -100t43 -97
t75.5 -84t114 -69t163 -44t218.5 -17t219 17t164 44.5t114.5 69.5t75.5 84t43 97t20.5 100t4.5 100v735h260z" />
    <glyph glyph-name="uring" unicode="&#x16f;" horiz-adv-x="2013" 
d="M987 1352q-434 0 -434 270t434 270q432 0 432 -270t-432 -270zM987 1747q-223 0 -223 -125t223 -125q221 0 221 125t-221 125zM1581 717v477h256v-1194h-256v266q-239 -307 -711 -307q-161 0 -284.5 34.5t-216 109t-142 198.5t-51.5 295v598h256v-539q0 -118 25.5 -202.5
t84 -145.5t157 -91t241.5 -30q140 0 256 33t202.5 97.5t134.5 167t48 233.5z" />
    <glyph glyph-name="Uhungarumlaut" unicode="&#x170;" horiz-adv-x="2156" 
d="M633 1653v219l424 164v-219zM1180 1653v219l424 164v-219zM1978 1440v-740q0 -377 -217 -559t-684 -182q-469 0 -685 181t-216 560v740h262v-735q0 -56 4.5 -101t20.5 -100t43 -97t75.5 -84t114 -69t163 -44t218.5 -17t219 17t164 44.5t114.5 69.5t75.5 84t43 97
t20.5 100t4.5 100v735h260z" />
    <glyph glyph-name="uhungarumlaut" unicode="&#x171;" horiz-adv-x="2013" 
d="M596 1427l-53 172l370 170l54 -170zM1143 1427l-53 172l370 170l53 -170zM1581 717v477h256v-1194h-256v266q-239 -307 -711 -307q-161 0 -284.5 34.5t-216 109t-142 198.5t-51.5 295v598h256v-539q0 -118 25.5 -202.5t84 -145.5t157 -91t241.5 -30q140 0 256 33
t202.5 97.5t134.5 167t48 233.5z" />
    <glyph glyph-name="Uogonek" unicode="&#x172;" horiz-adv-x="2156" 
d="M1718 705v735h260v-740q0 -290 -127.5 -464t-396.5 -238q-86 -22 -131 -44t-58.5 -43.5t-13.5 -53.5q0 -21 7 -37.5t23 -28t32 -20t45 -13.5t50 -8t59 -4t59.5 -1.5t64.5 -0.5v-215q-107 0 -178 2.5t-144 10t-117.5 22.5t-81.5 39.5t-53 60.5t-16 86q0 154 218 213
q-90 -4 -142 -4q-469 0 -685 181t-216 560v740h262v-735q0 -56 4.5 -101t20.5 -100t43 -97t75.5 -84t114 -69t163 -44t218.5 -17t219 17t164 44.5t114.5 69.5t75.5 84t43 97t20.5 100t4.5 100z" />
    <glyph glyph-name="uogonek" unicode="&#x173;" horiz-adv-x="2013" 
d="M1581 1194h256v-1194q-120 -10 -174.5 -54t-54.5 -112q0 -41 18 -68t52.5 -40t71.5 -18t87 -5v-215q-494 0 -494 268q0 92 67 148t189 96h-18v266q-239 -307 -711 -307q-694 0 -694 637v598h256v-539q0 -118 25.5 -202.5t84 -145.5t157 -91t241.5 -30q140 0 256 33
t202.5 97.5t134.5 167t48 233.5v477z" />
    <glyph glyph-name="Wcircumflex" unicode="&#x174;" horiz-adv-x="3332" 
d="M2091 1843v-219l-424 164l-424 -164v219l424 164zM2367 233l529 1207h280l-639 -1440h-342l-530 1251l-563 -1251h-344l-602 1440h280l496 -1207l541 1207h389z" />
    <glyph glyph-name="wcircumflex" unicode="&#x175;" horiz-adv-x="3082" 
d="M1966 1597v-219l-424 164l-424 -164v219l424 164zM2193 174l461 1020h275l-539 -1194h-389l-459 950l-461 -950h-389l-538 1194h272l463 -1020l489 1020h326z" />
    <glyph glyph-name="Ycircumflex" unicode="&#x176;" horiz-adv-x="2316" 
d="M1583 1843v-219l-424 164l-424 -164v219l424 164zM1159 698l656 742h346l-863 -967v-473h-280v473l-862 967h346z" />
    <glyph glyph-name="ycircumflex" unicode="&#x177;" horiz-adv-x="2082" 
d="M1483 1597v-219l-424 164l-424 -164v219l424 164zM1047 131l598 1063h286l-733 -1305q-59 -107 -113 -179t-123 -130t-154 -85t-192 -27q-177 0 -391 40v224q185 -39 344 -39q129 0 213 56.5t166 205.5l25 45h-146l-673 1194h292z" />
    <glyph glyph-name="Ydieresis" unicode="&#x178;" horiz-adv-x="2316" 
d="M725 1884h334v-205h-334v205zM1257 1884h334v-205h-334v205zM1159 698l656 742h346l-863 -967v-473h-280v473l-862 967h346z" />
    <glyph glyph-name="Zacute" unicode="&#x179;" horiz-adv-x="1976" 
d="M590 1843l796 164v-209l-796 -164v209zM176 1440h1624v-234l-1216 -973h1216v-233h-1624v233l1217 973h-1217v234z" />
    <glyph glyph-name="zacute" unicode="&#x17a;" horiz-adv-x="1779" 
d="M492 1597l796 164v-209l-796 -163v208zM176 1194h1428v-223l-1029 -748h1029v-223h-1428v223l1028 748h-1028v223z" />
    <glyph glyph-name="Zdotaccent" unicode="&#x17b;" horiz-adv-x="1976" 
d="M819 1884h338v-205h-338v205zM176 1440h1624v-234l-1216 -973h1216v-233h-1624v233l1217 973h-1217v234z" />
    <glyph glyph-name="zdotaccent" unicode="&#x17c;" horiz-adv-x="1779" 
d="M721 1638h338v-204h-338v204zM176 1194h1428v-223l-1029 -748h1029v-223h-1428v223l1028 748h-1028v223z" />
    <glyph glyph-name="Zcaron" unicode="&#x17d;" horiz-adv-x="1976" 
d="M1413 1985v-220l-424 -163l-424 163v220l424 -164zM176 1440h1624v-234l-1216 -973h1216v-233h-1624v233l1217 973h-1217v234z" />
    <glyph glyph-name="zcaron" unicode="&#x17e;" horiz-adv-x="1779" 
d="M1315 1739v-219l-424 -164l-424 164v219l424 -164zM176 1194h1428v-223l-1029 -748h1029v-223h-1428v223l1028 748h-1028v223z" />
    <glyph glyph-name="uni0218" unicode="&#x218;" horiz-adv-x="2144" 
d="M156 467h282q0 -69 34 -119.5t112 -88.5t213.5 -56.5t330.5 -18.5q307 0 442.5 55.5t135.5 166.5q0 27 -4.5 47t-13.5 38t-28.5 31t-42 24t-62.5 19.5t-82.5 15.5t-108 13t-133 11t-164.5 11q-188 11 -322 30t-239 52t-167.5 83t-94 119.5t-31.5 164.5q0 115 58.5 196.5
t172 129t263 69t348.5 21.5q270 0 463 -53t299.5 -163t107.5 -270h-280q0 140 -144.5 200t-480.5 60q-206 0 -323 -23.5t-160 -66t-43 -112.5q0 -43 15.5 -72t51 -51.5t106 -38t166 -26.5t244.5 -21q118 -8 180 -13t159 -15t147 -20t122 -27t108 -37.5t80.5 -51t64.5 -67.5
t34.5 -85.5t14.5 -107.5q0 -109 -44.5 -191.5t-119.5 -133t-187.5 -82t-233 -43t-272.5 -11.5q-182 0 -326 15.5t-264.5 52.5t-202 95t-128.5 144.5t-53 200.5zM938 -391v209h266v-209l-139 -225h-127l104 225h-104z" />
    <glyph glyph-name="uni0219" unicode="&#x219;" horiz-adv-x="1974" 
d="M154 406h276q9 -84 69 -133t190.5 -73t350.5 -24q161 0 261.5 9.5t153.5 32t71 52t18 76.5q0 22 -3.5 37.5t-15.5 30t-27.5 23.5t-49 18.5t-70 15.5t-100 13t-129 12.5t-166.5 13.5q-85 6 -145.5 11.5t-129 13t-116 16t-99.5 20t-86.5 25.5t-69 33t-56 42t-38.5 51
t-24.5 62.5t-7.5 75.5q0 86 39.5 152t107.5 107.5t169 68t212 37t248 10.5q115 0 207.5 -6.5t183.5 -22t158.5 -44.5t121.5 -70.5t84.5 -103t37.5 -140.5h-277q-13 103 -131.5 137.5t-413.5 34.5q-180 0 -287 -19t-145.5 -49t-38.5 -75q0 -23 7 -39t29.5 -30.5t57.5 -24.5
t99.5 -20t145.5 -18.5t204 -19.5q31 -3 92 -8q91 -8 135.5 -12t120 -13t112.5 -17t94 -23t84.5 -32.5t63 -43t51 -56.5t27 -72t11.5 -90q0 -94 -35 -164t-97.5 -114.5t-160 -72t-209.5 -38t-258 -10.5q-109 0 -199 4.5t-184 17.5t-167.5 34t-140.5 55.5t-111.5 80.5
t-72.5 110.5t-32 144.5zM854 -391v209h266v-209l-139 -225h-127l104 225h-104z" />
    <glyph glyph-name="uni021A" unicode="&#x21a;" horiz-adv-x="2074" 
d="M156 1440h1761v-234h-750v-1206h-260v1206h-751v234zM903 -596l105 225h-105v209h266v-209l-139 -225h-127z" />
    <glyph glyph-name="uni021B" unicode="&#x21b;" horiz-adv-x="1546" 
d="M1374 1194v-223h-608v-461q0 -68 4.5 -114.5t17 -85t32 -60.5t54 -37.5t79 -21t108.5 -5.5q117 0 313 25v-219q-223 -33 -370 -33q-145 0 -236.5 24.5t-151 86.5t-83 161.5t-23.5 257.5v482h-356v223h356v279l256 86v-365h608zM922 -375h-105v211h266v-211l-139 -225
h-127z" />
    <glyph glyph-name="circumflex" unicode="&#x2c6;" horiz-adv-x="1202" 
d="M176 1597l424 164l424 -164v-219l-424 164l-424 -164v219z" />
    <glyph glyph-name="caron" unicode="&#x2c7;" horiz-adv-x="1202" 
d="M176 1739l424 -164l424 164v-219l-424 -164l-424 164v219z" />
    <glyph glyph-name="breve" unicode="&#x2d8;" horiz-adv-x="1284" 
d="M176 1743h211q0 -112 65 -156.5t189 -44.5t190 44.5t66 156.5h209q0 -94 -24.5 -164t-65.5 -112.5t-102.5 -68t-126 -35t-146.5 -9.5t-146.5 9.5t-126 35t-102.5 68t-65.5 112.5t-24.5 164z" />
    <glyph glyph-name="dotaccent" unicode="&#x2d9;" horiz-adv-x="692" 
d="M176 1434v204h338v-204h-338z" />
    <glyph glyph-name="ring" unicode="&#x2da;" horiz-adv-x="1218" 
d="M610 1352q-434 0 -434 270t434 270q432 0 432 -270t-432 -270zM610 1497q221 0 221 125t-221 125q-223 0 -223 -125t223 -125z" />
    <glyph glyph-name="ogonek" unicode="&#x2db;" horiz-adv-x="944" 
d="M766 -266v-205q-123 0 -210 5.5t-163 21t-122 42t-71.5 69t-25.5 102.5q0 71 42 122.5t130 108.5h184q-31 -25 -48 -41t-36.5 -46.5t-19.5 -59.5q0 -22 7 -39.5t23 -29.5t32 -21t45 -14t50 -8.5t59 -4.5t59.5 -1.5t64.5 -0.5z" />
    <glyph glyph-name="tilde" unicode="&#x2dc;" horiz-adv-x="1552" 
d="M428 1389h-252q0 63 12.5 120.5t40 108t67 87t97.5 58t129 21.5q70 0 130 -20.5t102.5 -50t80.5 -59.5t80 -50.5t86 -20.5q68 0 95.5 48.5t27.5 135.5h250q0 -81 -20 -150.5t-60.5 -126t-108 -88.5t-155.5 -32q-70 0 -130.5 21t-102.5 50.5t-80.5 59.5t-80.5 51t-85 21
q-123 0 -123 -184z" />
    <glyph glyph-name="hungarumlaut" unicode="&#x2dd;" horiz-adv-x="1325" 
d="M176 1407v219l424 164v-219zM723 1407v219l424 164v-219z" />
    <glyph glyph-name="gravecomb" unicode="&#x300;" 
d="M-1010 1761l797 -164v-208l-797 163v209z" />
    <glyph glyph-name="acutecomb" unicode="&#x301;" 
d="M-975 1389v208l797 164v-209z" />
    <glyph glyph-name="uni0302" unicode="&#x302;" 
d="M-1026 1597l424 164l424 -164v-219l-424 164l-424 -164v219z" />
    <glyph glyph-name="tildecomb" unicode="&#x303;" 
d="M-1124 1389h-252q0 63 12.5 120.5t40 108t67 87t97.5 58t129 21.5q70 0 130 -20.5t102.5 -50t80.5 -59.5t80 -50.5t86 -20.5q68 0 95.5 48.5t27.5 135.5h250q0 -81 -20 -150.5t-60.5 -126t-108 -88.5t-155.5 -32q-70 0 -130.5 21t-102.5 50.5t-80.5 59.5t-80.5 51t-85 21
q-123 0 -123 -184z" />
    <glyph glyph-name="uni0304" unicode="&#x304;" 
d="M-1139 1434v204h961v-204h-961z" />
    <glyph glyph-name="uni0306" unicode="&#x306;" 
d="M-1108 1743h211q0 -112 65 -156.5t189 -44.5t190 44.5t66 156.5h209q0 -94 -24.5 -164t-65.5 -112.5t-102.5 -68t-126 -35t-146.5 -9.5t-146.5 9.5t-126 35t-102.5 68t-65.5 112.5t-24.5 164z" />
    <glyph glyph-name="uni0307" unicode="&#x307;" 
d="M-516 1434v204h338v-204h-338z" />
    <glyph glyph-name="uni0308" unicode="&#x308;" 
d="M-1042 1434v204h333v-204h-333zM-510 1434v204h334v-204h-334z" />
    <glyph glyph-name="uni030A" unicode="&#x30a;" 
d="M-608 1352q-434 0 -434 270t434 270q432 0 432 -270t-432 -270zM-608 1497q221 0 221 125t-221 125q-223 0 -223 -125t223 -125z" />
    <glyph glyph-name="uni030B" unicode="&#x30b;" 
d="M-1149 1407v219l424 164v-219zM-602 1407v219l424 164v-219z" />
    <glyph glyph-name="uni030C" unicode="&#x30c;" 
d="M-1026 1739l424 -164l424 164v-219l-424 -164l-424 164v219z" />
    <glyph glyph-name="uni0312" unicode="&#x312;" 
d="M-178 1661v-209h-266v209l139 225h127l-103 -225h103z" />
    <glyph glyph-name="uni0326" unicode="&#x326;" 
d="M-444 -371v209h266v-209l-139 -225h-127l104 225h-104z" />
    <glyph glyph-name="uni0327" unicode="&#x327;" 
d="M-381 -115q90 0 146.5 -38.5t56.5 -110.5q0 -60 -37.5 -104.5t-99.5 -69.5t-146.5 -36.5t-175 -10t-188.5 13.5v168q199 -31 298 -24t99 61q0 47 -74 47q-52 0 -131 -31l-141 55l39 195h217l-31 -152q72 37 168 37z" />
    <glyph glyph-name="uni0328" unicode="&#x328;" 
d="M-178 -266v-205q-123 0 -210 5.5t-163 21t-122 42t-71.5 69t-25.5 102.5q0 71 42 122.5t130 108.5h184q-31 -25 -48 -41t-36.5 -46.5t-19.5 -59.5q0 -22 7 -39.5t23 -29.5t32 -21t45 -14t50 -8.5t59 -4.5t60 -1.5t64 -0.5z" />
    <glyph glyph-name="uni0335" unicode="&#x335;" 
d="M-1161 594v205h983v-205h-983z" />
    <glyph glyph-name="uni0336" unicode="&#x336;" 
d="M-2226 594v205h2048v-205h-2048z" />
    <glyph glyph-name="uni0337" unicode="&#x337;" 
d="M-440 1495h262l-539 -1802h-262z" />
    <glyph glyph-name="uni0338" unicode="&#x338;" 
d="M-426 1475h250l-533 -1782h-249z" />
    <glyph glyph-name="Wgrave" unicode="&#x1e80;" horiz-adv-x="3332" 
d="M1268 2007l796 -164v-209l-796 164v209zM2367 233l529 1207h280l-639 -1440h-342l-530 1251l-563 -1251h-344l-602 1440h280l496 -1207l541 1207h389z" />
    <glyph glyph-name="wgrave" unicode="&#x1e81;" horiz-adv-x="3082" 
d="M1143 1761l796 -164v-208l-796 163v209zM2193 174l461 1020h275l-539 -1194h-389l-459 950l-461 -950h-389l-538 1194h272l463 -1020l489 1020h326z" />
    <glyph glyph-name="Wacute" unicode="&#x1e82;" horiz-adv-x="3332" 
d="M1268 1843l796 164v-209l-796 -164v209zM2367 233l529 1207h280l-639 -1440h-342l-530 1251l-563 -1251h-344l-602 1440h280l496 -1207l541 1207h389z" />
    <glyph glyph-name="wacute" unicode="&#x1e83;" horiz-adv-x="3082" 
d="M1143 1597l796 164v-209l-796 -163v208zM2193 174l461 1020h275l-539 -1194h-389l-459 950l-461 -950h-389l-538 1194h272l463 -1020l489 1020h326z" />
    <glyph glyph-name="Wdieresis" unicode="&#x1e84;" horiz-adv-x="3332" 
d="M1233 1884h334v-205h-334v205zM1765 1884h334v-205h-334v205zM2367 233l529 1207h280l-639 -1440h-342l-530 1251l-563 -1251h-344l-602 1440h280l496 -1207l541 1207h389z" />
    <glyph glyph-name="wdieresis" unicode="&#x1e85;" horiz-adv-x="3082" 
d="M1108 1638h334v-204h-334v204zM1640 1638h334v-204h-334v204zM2193 174l461 1020h275l-539 -1194h-389l-459 950l-461 -950h-389l-538 1194h272l463 -1020l489 1020h326z" />
    <glyph glyph-name="Ygrave" unicode="&#x1ef2;" horiz-adv-x="2316" 
d="M760 2007l796 -164v-209l-796 164v209zM1159 698l656 742h346l-863 -967v-473h-280v473l-862 967h346z" />
    <glyph glyph-name="ygrave" unicode="&#x1ef3;" horiz-adv-x="2082" 
d="M659 1761l797 -164v-208l-797 163v209zM1047 131l598 1063h286l-733 -1305q-59 -107 -113 -179t-123 -130t-154 -85t-192 -27q-177 0 -391 40v224q185 -39 344 -39q129 0 213 56.5t166 205.5l25 45h-146l-673 1194h292z" />
    <glyph glyph-name="endash" unicode="&#x2013;" horiz-adv-x="2484" 
d="M217 586v221h2048v-221h-2048z" />
    <glyph glyph-name="emdash" unicode="&#x2014;" horiz-adv-x="2893" 
d="M217 586v221h2458v-221h-2458z" />
    <glyph glyph-name="quoteleft" unicode="&#x2018;" horiz-adv-x="747" 
d="M471 891h-274l127 672h229z" />
    <glyph glyph-name="quoteright" unicode="&#x2019;" horiz-adv-x="745" 
d="M276 1563h275l-125 -672h-231z" />
    <glyph glyph-name="quotesinglbase" unicode="&#x201a;" horiz-adv-x="630" 
d="M176 0v225h260v-225l-131 -379h-123l86 379h-92z" />
    <glyph glyph-name="quotedblleft" unicode="&#x201c;" horiz-adv-x="1185" 
d="M471 891h-274l127 672h229zM909 891h-274l125 672h231z" />
    <glyph glyph-name="quotedblright" unicode="&#x201d;" horiz-adv-x="1185" 
d="M276 1563h275l-125 -672h-231zM715 1563h274l-127 -672h-229z" />
    <glyph glyph-name="quotedblbase" unicode="&#x201e;" horiz-adv-x="1067" 
d="M268 0h-92v225h260v-225l-131 -379h-123zM614 0v225h258v-225l-131 -379h-120l84 379h-91z" />
    <glyph glyph-name="dagger" unicode="&#x2020;" horiz-adv-x="1812" 
d="M1034 1194h602v-229h-602v-1272h-252v1272h-606v229h606v444h252v-444z" />
    <glyph glyph-name="daggerdbl" unicode="&#x2021;" horiz-adv-x="1812" 
d="M1636 1194v-229h-602v-598h602v-228h-602v-446h-252v446h-606v228h606v598h-606v229h606v444h252v-444h602z" />
    <glyph glyph-name="bullet" unicode="&#x2022;" horiz-adv-x="894" 
d="M449 465q-139 0 -206 46.5t-67 145.5q0 98 67.5 145.5t205.5 47.5q137 0 203.5 -47.5t66.5 -145.5q0 -99 -66.5 -145.5t-203.5 -46.5z" />
    <glyph glyph-name="ellipsis" unicode="&#x2026;" horiz-adv-x="1607" 
d="M176 0v225h260v-225h-260zM666 0v225h258v-225h-258zM1155 0v225h258v-225h-258z" />
    <glyph glyph-name="perthousand" unicode="&#x2030;" horiz-adv-x="4286" 
d="M725 510q-118 0 -212.5 28.5t-156.5 75t-103.5 110t-59 131t-17.5 140.5t17.5 140.5t59 131t103.5 110.5t156.5 75.5t212.5 28.5t213 -28.5t157 -75.5t103 -110.5t58.5 -131t17.5 -140.5t-17.5 -140t-58.5 -131t-103 -110.5t-157 -75t-213 -28.5zM1950 1440h305
l-1139 -1440h-305zM725 725q137 0 213 70.5t76 199.5q0 130 -76 200.5t-213 70.5q-136 0 -211.5 -70.5t-75.5 -200.5q0 -129 75.5 -199.5t211.5 -70.5zM2341 -41q-117 0 -211.5 28.5t-156 75t-103 110t-59 131t-17.5 140.5t17.5 140.5t59 131t103 110.5t156 75.5t211.5 28.5
q119 0 214.5 -28.5t157 -75.5t103 -110.5t59 -131t17.5 -140.5t-17.5 -140t-59 -131t-103 -110.5t-157 -75t-214.5 -28.5zM3559 -41q-118 0 -213 28.5t-156 75t-102 110.5t-58 131t-17 140t17 140.5t58 131t102 110.5t156 75.5t213 28.5q119 0 214.5 -28.5t157 -75.5
t103 -110.5t59 -131t17.5 -140.5t-17.5 -140t-59 -131t-103 -110.5t-157 -75t-214.5 -28.5zM2341 174q137 0 213 70.5t76 199.5q0 130 -76 200.5t-213 70.5q-135 0 -211 -71t-76 -200q0 -128 76.5 -199t210.5 -71zM3559 174q137 0 213 70.5t76 199.5q0 130 -76 200.5
t-213 70.5q-136 0 -211 -70.5t-75 -200.5q0 -129 75.5 -199.5t210.5 -70.5z" />
    <glyph glyph-name="guilsinglleft" unicode="&#x2039;" horiz-adv-x="1243" 
d="M176 596l533 598h358l-532 -598l532 -596h-358z" />
    <glyph glyph-name="guilsinglright" unicode="&#x203a;" horiz-adv-x="1243" 
d="M176 1194h359l532 -598l-532 -596h-359l533 596z" />
    <glyph glyph-name="fraction" unicode="&#x2044;" horiz-adv-x="1165" 
d="M719 1495h262l-539 -1802h-262z" />
    <glyph glyph-name="Euro" unicode="&#x20ac;" horiz-adv-x="1863" 
d="M1171 1249q-234 0 -357 -70.5t-165 -220.5h801v-159h-825q-2 -25 -2 -80q0 -51 2 -76h825v-158h-803q42 -153 165 -224t359 -71q185 0 517 64v-231q-181 -35 -307.5 -49.5t-274.5 -14.5q-640 0 -746 526h-184v158h166q-2 25 -2 76q0 53 2 80h-166v159h189
q26 120 81.5 214t144.5 164.5t219 107.5t296 37q149 0 276 -15t306 -51v-229q-327 63 -517 63z" />
    <glyph glyph-name="trademark" unicode="&#x2122;" horiz-adv-x="2306" 
d="M537 1307h-361v127h856v-127h-360v-570h-135v570zM1272 737h-137v697h213l284 -574l283 574h213v-697h-135v553l-277 -553h-168l-276 553v-553z" />
    <glyph glyph-name="arrowleft" unicode="&#x2190;" horiz-adv-x="1787" 
d="M1610 825v-217h-1020l321 -334l-168 -163l-567 608l567 604l168 -164l-321 -334h1020z" />
    <glyph glyph-name="arrowup" unicode="&#x2191;" horiz-adv-x="1564" 
d="M891 1100v-1020h-217v1020l-334 -322l-164 168l604 567l609 -567l-164 -168z" />
    <glyph glyph-name="arrowright" unicode="&#x2192;" horiz-adv-x="1787" 
d="M1198 608h-1022v217h1022l-324 334l168 164l568 -604l-568 -608l-168 163z" />
    <glyph glyph-name="arrowdown" unicode="&#x2193;" horiz-adv-x="1564" 
d="M674 1358h217v-1022l334 323l164 -170l-609 -567l-604 567l164 170l334 -323v1022z" />
    <glyph glyph-name="arrowboth" unicode="&#x2194;" horiz-adv-x="3069" 
d="M2480 825l-321 334l168 164l567 -604l-567 -608l-168 163l321 334h-1890l321 -334l-168 -163l-567 608l567 604l168 -164l-321 -334h1890z" />
    <glyph glyph-name="arrowupdn" unicode="&#x2195;" horiz-adv-x="1564" 
d="M891 1270v-1229l334 324l164 -168l-609 -568l-604 568l164 168l334 -324v1229l-334 -324l-164 168l604 567l609 -567l-164 -168z" />
    <glyph glyph-name="uni2196" unicode="&#x2196;" horiz-adv-x="1470" 
d="M1294 362l-153 -153l-723 723l-6 -465l-236 4l31 829l827 27l2 -233l-463 -9z" />
    <glyph glyph-name="uni2197" unicode="&#x2197;" horiz-adv-x="1470" 
d="M1053 930l-723 -721l-154 153l723 721l-465 9l4 233l828 -25l28 -831l-235 -2z" />
    <glyph glyph-name="uni2198" unicode="&#x2198;" horiz-adv-x="1470" 
d="M176 1073l156 152l721 -721l8 463l233 -2l-28 -832l-828 -24l-4 233l465 6z" />
    <glyph glyph-name="uni2199" unicode="&#x2199;" horiz-adv-x="1470" 
d="M418 504l723 721l153 -152l-721 -725l463 -6l-2 -233l-827 24l-31 832l236 2z" />
    <glyph glyph-name="emptyset" unicode="&#x2205;" horiz-adv-x="2420" 
d="M2216 1591l-221 -221q243 -252 243 -651q0 -200 -67 -371.5t-193.5 -300t-323.5 -201.5t-444 -73q-382 0 -641 172l-235 -236l-131 133l223 224q-121 125 -183.5 292.5t-62.5 360.5q0 200 67.5 371t194.5 298.5t324.5 200t443.5 72.5q378 0 641 -170l234 233zM457 719
q0 -288 149 -473l1069 1069q-186 117 -465 117q-355 0 -554 -187.5t-199 -525.5zM1210 2q355 0 553.5 189.5t198.5 527.5q0 292 -147 471l-1070 -1069q188 -119 465 -119z" />
    <glyph glyph-name="product" unicode="&#x220f;" horiz-adv-x="2447" 
d="M176 1638h2095v-227h-446v-1718h-252v1718h-787v-1718h-251v1718h-359v227z" />
    <glyph glyph-name="minus" unicode="&#x2212;" horiz-adv-x="1992" 
d="M176 586v221h1639v-221h-1639z" />
    <glyph glyph-name="integral" unicode="&#x222b;" horiz-adv-x="2142" 
d="M176 -307v227q183 0 255 9q247 32 361 201q73 108 99 276l84 520q24 148 71 263t98.5 189.5t136 126.5t148 77.5t173 38.5t171 15t179.5 2h12v-227h-32q-58 0 -89.5 -0.5t-90.5 -4.5t-95 -12t-89 -24.5t-87.5 -40.5t-76 -61t-68 -84t-50 -113t-35.5 -145l-84 -520
q-21 -131 -56 -235.5t-89 -177t-104.5 -126t-130.5 -85.5t-137 -51t-154.5 -27t-151.5 -9.5t-158 -1.5h-10z" />
    <glyph glyph-name="approxequal" unicode="&#x2248;" horiz-adv-x="1992" 
d="M440 778h-264q0 584 449 584q106 0 195.5 -36.5t151.5 -88t118.5 -103t123 -88t138.5 -36.5q103 0 151.5 81.5t48.5 270.5h263q0 -584 -447 -584q-78 0 -146.5 19.5t-119.5 51t-97.5 69.5t-88.5 75.5t-83 69t-90 51t-102 19.5q-103 0 -152 -83t-49 -272zM440 37h-264
q0 584 449 584q78 0 146.5 -19.5t119.5 -51t97.5 -69.5t88 -75.5t82.5 -69t90.5 -51t102.5 -19.5q103 0 151.5 83t48.5 272h263q0 -584 -447 -584q-78 0 -146.5 19.5t-119.5 50.5t-97.5 68.5t-88.5 75t-83 68.5t-90 50.5t-102 19.5q-103 0 -152 -82t-49 -270z" />
    <glyph glyph-name="notequal" unicode="&#x2260;" horiz-adv-x="1992" 
d="M1815 1135v-222h-617l-129 -434h746v-221h-811l-140 -463h-262l139 463h-565v221h631l129 434h-760v222h825l140 462h262l-139 -462h551z" />
    <glyph glyph-name="lessequal" unicode="&#x2264;" horiz-adv-x="2027" 
d="M461 987l1354 -282v-250l-1639 350v364l1639 351v-250zM213 63v222h1638v-222h-1638z" />
    <glyph glyph-name="greaterequal" unicode="&#x2265;" horiz-adv-x="2027" 
d="M213 1270v250l1638 -351v-364l-1638 -350v250l1354 282zM1815 63h-1639v222h1639v-222z" />
    <glyph glyph-name="lozenge" unicode="&#x25ca;" horiz-adv-x="1982" 
d="M1163 -297h-342l-645 969l645 966h342l641 -966zM471 672l520 -783l518 783l-518 780z" />
    <glyph glyph-name="A.ss01" horiz-adv-x="2625" 
d="M2470 0h-299l-195 330h-1327l-194 -330h-299l833 1440h645zM1163 1206l-383 -651h1065l-383 651h-299z" />
    <glyph glyph-name="Aacute.ss01" horiz-adv-x="2625" 
d="M913 1843l797 164v-209l-797 -164v209zM2470 0h-299l-195 330h-1327l-194 -330h-299l833 1440h645zM1163 1206l-383 -651h1065l-383 651h-299z" />
    <glyph glyph-name="Abreve.ss01" horiz-adv-x="2625" 
d="M1313 1599q-82 0 -146.5 9.5t-126 35.5t-102.5 68.5t-65.5 112.5t-24.5 164h209q0 -112 66 -156.5t190 -44.5t189 44.5t65 156.5h211q0 -94 -24.5 -164t-65.5 -112.5t-102.5 -68.5t-126 -35.5t-146.5 -9.5zM2470 0h-299l-195 330h-1327l-194 -330h-299l833 1440h645z
M1163 1206l-383 -651h1065l-383 651h-299z" />
    <glyph glyph-name="Acircumflex.ss01" horiz-adv-x="2625" 
d="M1737 1843v-219l-424 164l-424 -164v219l424 164zM2470 0h-299l-195 330h-1327l-194 -330h-299l833 1440h645zM1163 1206l-383 -651h1065l-383 651h-299z" />
    <glyph glyph-name="Adieresis.ss01" horiz-adv-x="2625" 
d="M881 1884h331v-205h-331v205zM1413 1884h332v-205h-332v205zM2470 0h-299l-195 330h-1327l-194 -330h-299l833 1440h645zM1163 1206l-383 -651h1065l-383 651h-299z" />
    <glyph glyph-name="Agrave.ss01" horiz-adv-x="2625" 
d="M913 2007l797 -164v-209l-797 164v209zM2470 0h-299l-195 330h-1327l-194 -330h-299l833 1440h645zM1163 1206l-383 -651h1065l-383 651h-299z" />
    <glyph glyph-name="Amacron.ss01" horiz-adv-x="2625" 
d="M831 1884h961v-205h-961v205zM2470 0h-299l-195 330h-1327l-194 -330h-299l833 1440h645zM1163 1206l-383 -651h1065l-383 651h-299z" />
    <glyph glyph-name="Aogonek.ss01" horiz-adv-x="2611" 
d="M2292 -147q0 -22 7 -39.5t23 -29.5t32 -21t45 -14t50 -8.5t59 -4.5t60 -1.5t64 -0.5v-205q-123 0 -210 5.5t-163 21t-122 42t-71.5 69t-25.5 102.5q0 71 42 122.5t130 108.5h-41l-195 330h-1327l-194 -330h-299l833 1440h645l836 -1440h-74q-31 -25 -48 -41t-36.5 -46.5
t-19.5 -59.5zM1163 1206l-383 -651h1065l-383 651h-299z" />
    <glyph glyph-name="Aring.ss01" horiz-adv-x="2625" 
d="M1313 1597q-432 0 -432 271q0 270 432 270t432 -270q0 -271 -432 -271zM1313 1993q-223 0 -223 -125t223 -125t223 125t-223 125zM2470 0h-299l-195 330h-1327l-194 -330h-299l833 1440h645zM1163 1206l-383 -651h1065l-383 651h-299z" />
    <glyph glyph-name="Atilde.ss01" horiz-adv-x="2625" 
d="M1087 1819q-122 0 -122 -185h-252q0 80 20.5 149.5t61 125.5t108.5 88.5t156 32.5q70 0 130.5 -20.5t102.5 -50t80.5 -59.5t80.5 -50.5t85 -20.5q68 0 95.5 48.5t27.5 135.5h250q0 -81 -20 -150.5t-60.5 -126t-108 -88.5t-155.5 -32q-70 0 -130.5 21t-103 50.5
t-80.5 59.5t-80.5 51t-85.5 21zM2470 0h-299l-195 330h-1327l-194 -330h-299l833 1440h645zM1163 1206l-383 -651h1065l-383 651h-299z" />
    <glyph glyph-name="K.ss01" horiz-adv-x="2088" 
d="M922 836l639 604h368l-760 -721l760 -719h-368l-639 602h-484v-602h-262v1440h262v-604h484z" />
    <glyph glyph-name="uni0136.ss01" horiz-adv-x="2088" 
d="M922 836l639 604h368l-760 -721l760 -719h-368l-639 602h-484v-602h-262v1440h262v-604h484zM817 -596l103 225h-103v209h266v-209l-139 -225h-127z" />
    <glyph glyph-name="R.ss01" horiz-adv-x="2000" 
d="M1845 936q0 -176 -91.5 -299.5t-252.5 -173.5l326 -463h-314l-299 434h-776v-434h-262v1440h1116q251 0 402 -135t151 -369zM1184 1208h-746v-544h746q34 0 53 0.5t55 2.5t57.5 7t53.5 14t52 22.5t42.5 34t35.5 47t21.5 63.5t8.5 81t-8.5 81t-21.5 63.5t-35.5 47
t-42.5 34t-52 22.5t-53.5 14t-57.5 7t-55 2.5t-53 0.5z" />
    <glyph glyph-name="Racute.ss01" horiz-adv-x="2000" 
d="M1323 1798l-797 -164v209l797 164v-209zM1845 936q0 -176 -91.5 -299.5t-252.5 -173.5l326 -463h-314l-299 434h-776v-434h-262v1440h1116q251 0 402 -135t151 -369zM1184 1208h-746v-544h746q34 0 53 0.5t55 2.5t57.5 7t53.5 14t52 22.5t42.5 34t35.5 47t21.5 63.5
t8.5 81t-8.5 81t-21.5 63.5t-35.5 47t-42.5 34t-52 22.5t-53.5 14t-57.5 7t-55 2.5t-53 0.5z" />
    <glyph glyph-name="Rcaron.ss01" horiz-adv-x="2000" 
d="M502 1985l424 -164l424 164v-220l-424 -163l-424 163v220zM1845 936q0 -176 -91.5 -299.5t-252.5 -173.5l326 -463h-314l-299 434h-776v-434h-262v1440h1116q251 0 402 -135t151 -369zM1184 1208h-746v-544h746q34 0 53 0.5t55 2.5t57.5 7t53.5 14t52 22.5t42.5 34
t35.5 47t21.5 63.5t8.5 81t-8.5 81t-21.5 63.5t-35.5 47t-42.5 34t-52 22.5t-53.5 14t-57.5 7t-55 2.5t-53 0.5z" />
    <glyph glyph-name="uni0156.ss01" horiz-adv-x="2000" 
d="M1845 936q0 -176 -91.5 -299.5t-252.5 -173.5l326 -463h-314l-299 434h-776v-434h-262v1440h1116q251 0 402 -135t151 -369zM1184 1208h-746v-544h746q34 0 53 0.5t55 2.5t57.5 7t53.5 14t52 22.5t42.5 34t35.5 47t21.5 63.5t8.5 81t-8.5 81t-21.5 63.5t-35.5 47
t-42.5 34t-52 22.5t-53.5 14t-57.5 7t-55 2.5t-53 0.5zM954 -596h-127l105 225h-105v209h267v-209z" />
    <glyph glyph-name="V.ss01" horiz-adv-x="2625" 
d="M2171 1440h299l-836 -1440h-645l-833 1440h299l708 -1207h299z" />
    <glyph glyph-name="W.ss01" horiz-adv-x="3764" 
d="M2791 233l537 1207h281l-639 -1440h-625l-461 1171l-463 -1171h-626l-639 1440h282l535 -1207h268l471 1207h342l471 -1207h266z" />
    <glyph glyph-name="Wacute.ss01" horiz-adv-x="3764" 
d="M1485 1843l796 164v-209l-796 -164v209zM2791 233l537 1207h281l-639 -1440h-625l-461 1171l-463 -1171h-626l-639 1440h282l535 -1207h268l471 1207h342l471 -1207h266z" />
    <glyph glyph-name="Wcircumflex.ss01" horiz-adv-x="3764" 
d="M2308 1843v-219l-424 164l-424 -164v219l424 164zM2791 233l537 1207h281l-639 -1440h-625l-461 1171l-463 -1171h-626l-639 1440h282l535 -1207h268l471 1207h342l471 -1207h266z" />
    <glyph glyph-name="Wdieresis.ss01" horiz-adv-x="3764" 
d="M1450 1884h334v-205h-334v205zM1982 1884h334v-205h-334v205zM2791 233l537 1207h281l-639 -1440h-625l-461 1171l-463 -1171h-626l-639 1440h282l535 -1207h268l471 1207h342l471 -1207h266z" />
    <glyph glyph-name="Wgrave.ss01" horiz-adv-x="3764" 
d="M1485 2007l796 -164v-209l-796 164v209zM2791 233l537 1207h281l-639 -1440h-625l-461 1171l-463 -1171h-626l-639 1440h282l535 -1207h268l471 1207h342l471 -1207h266z" />
    <glyph glyph-name="i.loclTRK" horiz-adv-x="626" 
d="M141 1423v215h346v-215h-346zM176 0v1194h275v-1194h-275z" />
    <glyph glyph-name="a.ss01" horiz-adv-x="2007" 
d="M1556 987v205h275v-1194h-275v209q-190 -248 -641 -248q-162 0 -299 39.5t-241 116.5t-162.5 200t-58.5 281q0 127 38.5 232.5t107 180t164 126t209 76t242.5 24.5q451 0 641 -248zM985 186q271 0 421 109.5t150 300.5t-150 300.5t-421 109.5t-413 -108.5t-142 -301.5
t142 -301.5t413 -108.5z" />
    <glyph glyph-name="aacute.ss01" horiz-adv-x="2007" 
d="M602 1597l797 164v-209l-797 -163v208zM1556 987v205h275v-1194h-275v209q-190 -248 -641 -248q-162 0 -299 39.5t-241 116.5t-162.5 200t-58.5 281q0 127 38.5 232.5t107 180t164 126t209 76t242.5 24.5q451 0 641 -248zM985 186q271 0 421 109.5t150 300.5t-150 300.5
t-421 109.5t-413 -108.5t-142 -301.5t142 -301.5t413 -108.5z" />
    <glyph glyph-name="abreve.ss01" horiz-adv-x="2007" 
d="M1001 1354q-82 0 -146.5 9.5t-126 35t-102 68t-65 112.5t-24.5 164h211q0 -112 64.5 -156.5t188.5 -44.5t190 44.5t66 156.5h209q0 -94 -24.5 -164t-65.5 -112.5t-102.5 -68t-126 -35t-146.5 -9.5zM1556 987v205h275v-1194h-275v209q-190 -248 -641 -248
q-162 0 -299 39.5t-241 116.5t-162.5 200t-58.5 281q0 127 38.5 232.5t107 180t164 126t209 76t242.5 24.5q451 0 641 -248zM985 186q271 0 421 109.5t150 300.5t-150 300.5t-421 109.5t-413 -108.5t-142 -301.5t142 -301.5t413 -108.5z" />
    <glyph glyph-name="acircumflex.ss01" horiz-adv-x="2007" 
d="M1425 1597v-219l-424 164l-423 -164v219l423 164zM1556 987v205h275v-1194h-275v209q-190 -248 -641 -248q-162 0 -299 39.5t-241 116.5t-162.5 200t-58.5 281q0 127 38.5 232.5t107 180t164 126t209 76t242.5 24.5q451 0 641 -248zM985 186q271 0 421 109.5t150 300.5
t-150 300.5t-421 109.5t-413 -108.5t-142 -301.5t142 -301.5t413 -108.5z" />
    <glyph glyph-name="adieresis.ss01" horiz-adv-x="2007" 
d="M569 1638h334v-204h-334v204zM1102 1638h334v-204h-334v204zM1556 987v205h275v-1194h-275v209q-190 -248 -641 -248q-162 0 -299 39.5t-241 116.5t-162.5 200t-58.5 281q0 127 38.5 232.5t107 180t164 126t209 76t242.5 24.5q451 0 641 -248zM985 186q271 0 421 109.5
t150 300.5t-150 300.5t-421 109.5t-413 -108.5t-142 -301.5t142 -301.5t413 -108.5z" />
    <glyph glyph-name="agrave.ss01" horiz-adv-x="2007" 
d="M602 1761l797 -164v-208l-797 163v209zM1556 987v205h275v-1194h-275v209q-190 -248 -641 -248q-162 0 -299 39.5t-241 116.5t-162.5 200t-58.5 281q0 127 38.5 232.5t107 180t164 126t209 76t242.5 24.5q451 0 641 -248zM985 186q271 0 421 109.5t150 300.5t-150 300.5
t-421 109.5t-413 -108.5t-142 -301.5t142 -301.5t413 -108.5z" />
    <glyph glyph-name="amacron.ss01" horiz-adv-x="2007" 
d="M520 1638h961v-204h-961v204zM1556 987v205h275v-1194h-275v209q-190 -248 -641 -248q-162 0 -299 39.5t-241 116.5t-162.5 200t-58.5 281q0 127 38.5 232.5t107 180t164 126t209 76t242.5 24.5q451 0 641 -248zM985 186q271 0 421 109.5t150 300.5t-150 300.5
t-421 109.5t-413 -108.5t-142 -301.5t142 -301.5t413 -108.5z" />
    <glyph glyph-name="aogonek.ss01" horiz-adv-x="2007" 
d="M1634 -147q0 -22 7 -39.5t23 -29.5t32 -21t45 -14t50 -8.5t59 -4.5t60 -1.5t64 -0.5v-205q-123 0 -210 5.5t-163 21t-122 42t-71.5 69t-25.5 102.5q0 71 42 122.5t130 108.5h2v207q-190 -248 -641 -248q-162 0 -299 39.5t-241 116.5t-162.5 200t-58.5 281
q0 127 38.5 232.5t107 180t164 126t209 76t242.5 24.5q451 0 641 -248v205h275v-1194h-94q-30 -25 -47.5 -41t-36.5 -46t-19 -58zM985 186q271 0 421 109.5t150 300.5t-150 300.5t-421 109.5t-413 -108.5t-142 -301.5t142 -301.5t413 -108.5z" />
    <glyph glyph-name="aring.ss01" horiz-adv-x="2007" 
d="M1001 1352q-432 0 -432 270t432 270q435 0 435 -270t-435 -270zM1001 1747q-221 0 -221 -125t221 -125q224 0 224 125t-224 125zM1556 987v205h275v-1194h-275v209q-190 -248 -641 -248q-162 0 -299 39.5t-241 116.5t-162.5 200t-58.5 281q0 127 38.5 232.5t107 180
t164 126t209 76t242.5 24.5q451 0 641 -248zM985 186q271 0 421 109.5t150 300.5t-150 300.5t-421 109.5t-413 -108.5t-142 -301.5t142 -301.5t413 -108.5z" />
    <glyph glyph-name="atilde.ss01" horiz-adv-x="2007" 
d="M776 1573q-123 0 -123 -184h-250q0 80 20.5 149.5t61 125.5t109 88t156.5 32q70 0 130 -20.5t102 -50t80 -59.5t80 -50.5t85 -20.5q68 0 95.5 48.5t27.5 135.5h252q0 -81 -20.5 -151t-61.5 -125.5t-109 -88t-156 -32.5q-70 0 -130 21t-102.5 50.5t-80.5 59.5t-80 51
t-86 21zM1556 987v205h275v-1194h-275v209q-190 -248 -641 -248q-162 0 -299 39.5t-241 116.5t-162.5 200t-58.5 281q0 127 38.5 232.5t107 180t164 126t209 76t242.5 24.5q451 0 641 -248zM985 186q271 0 421 109.5t150 300.5t-150 300.5t-421 109.5t-413 -108.5
t-142 -301.5t142 -301.5t413 -108.5z" />
    <glyph glyph-name="g.ss01" horiz-adv-x="2035" 
d="M1440 1194h497v-170q-50 0 -202 20q80 -93 80 -237q0 -79 -22 -141t-78.5 -117.5t-148.5 -91.5t-238 -57t-341 -21q-358 0 -456.5 -13t-98.5 -71q0 -61 106.5 -74.5t508.5 -13.5q135 0 238.5 -6t201 -20.5t166 -41t120.5 -65.5t77.5 -95.5t25.5 -130.5
q0 -70 -23.5 -125.5t-63 -95t-101 -68.5t-128.5 -46t-155.5 -27.5t-171.5 -14t-186 -3.5q-108 0 -190.5 2t-180 9.5t-168.5 20.5t-141 36t-113.5 55t-70.5 78.5t-27 105.5q0 58 24.5 103.5t67 74.5t88.5 46.5t102 27.5q-264 61 -264 227q0 155 234 203q-137 54 -194.5 141.5
t-57.5 208.5q0 79 22 141t78.5 117.5t149 91.5t239 57t342.5 21q278 0 453 -41zM987 592q300 0 423.5 47.5t123.5 167.5t-123.5 167.5t-423.5 47.5q-301 0 -425 -47.5t-124 -167.5t124 -167.5t425 -47.5zM1614 -164q0 29 -13 51.5t-35 38.5t-61 27.5t-81 18t-105.5 10.5
t-124.5 5t-147 1h-64q-106 -1 -178.5 -3t-139.5 -8t-107.5 -16.5t-72 -27.5t-44.5 -40.5t-13 -56.5q0 -26 11 -46.5t34.5 -35.5t53 -26.5t74 -19t88.5 -12.5t107 -7t118.5 -3t132.5 -1q103 0 170 1.5t138 6.5t113.5 15.5t78.5 27t51.5 41.5t15.5 59z" />
    <glyph glyph-name="gbreve.ss01" horiz-adv-x="2035" 
d="M985 1354q-82 0 -146.5 9.5t-126 35t-102.5 68t-65.5 112.5t-24.5 164h211q0 -112 65 -156.5t189 -44.5t190 44.5t66 156.5h209q0 -94 -24.5 -164t-65.5 -112.5t-102.5 -68t-126 -35t-146.5 -9.5zM1440 1194h497v-170q-50 0 -202 20q80 -93 80 -237q0 -79 -22 -141
t-78.5 -117.5t-148.5 -91.5t-238 -57t-341 -21q-358 0 -456.5 -13t-98.5 -71q0 -61 106.5 -74.5t508.5 -13.5q135 0 238.5 -6t201 -20.5t166 -41t120.5 -65.5t77.5 -95.5t25.5 -130.5q0 -70 -23.5 -125.5t-63 -95t-101 -68.5t-128.5 -46t-155.5 -27.5t-171.5 -14t-186 -3.5
q-108 0 -190.5 2t-180 9.5t-168.5 20.5t-141 36t-113.5 55t-70.5 78.5t-27 105.5q0 58 24.5 103.5t67 74.5t88.5 46.5t102 27.5q-264 61 -264 227q0 155 234 203q-137 54 -194.5 141.5t-57.5 208.5q0 79 22 141t78.5 117.5t149 91.5t239 57t342.5 21q278 0 453 -41zM987 592
q300 0 423.5 47.5t123.5 167.5t-123.5 167.5t-423.5 47.5q-301 0 -425 -47.5t-124 -167.5t124 -167.5t425 -47.5zM1614 -164q0 29 -13 51.5t-35 38.5t-61 27.5t-81 18t-105.5 10.5t-124.5 5t-147 1h-64q-106 -1 -178.5 -3t-139.5 -8t-107.5 -16.5t-72 -27.5t-44.5 -40.5
t-13 -56.5q0 -26 11 -46.5t34.5 -35.5t53 -26.5t74 -19t88.5 -12.5t107 -7t118.5 -3t132.5 -1q103 0 170 1.5t138 6.5t113.5 15.5t78.5 27t51.5 41.5t15.5 59z" />
    <glyph glyph-name="uni0123.ss01" horiz-adv-x="2035" 
d="M1016 1661h102v-209h-266v209l139 225h127zM1440 1194h497v-170q-50 0 -202 20q80 -93 80 -237q0 -79 -22 -141t-78.5 -117.5t-148.5 -91.5t-238 -57t-341 -21q-358 0 -456.5 -13t-98.5 -71q0 -61 106.5 -74.5t508.5 -13.5q135 0 238.5 -6t201 -20.5t166 -41t120.5 -65.5
t77.5 -95.5t25.5 -130.5q0 -70 -23.5 -125.5t-63 -95t-101 -68.5t-128.5 -46t-155.5 -27.5t-171.5 -14t-186 -3.5q-108 0 -190.5 2t-180 9.5t-168.5 20.5t-141 36t-113.5 55t-70.5 78.5t-27 105.5q0 58 24.5 103.5t67 74.5t88.5 46.5t102 27.5q-264 61 -264 227
q0 155 234 203q-137 54 -194.5 141.5t-57.5 208.5q0 79 22 141t78.5 117.5t149 91.5t239 57t342.5 21q278 0 453 -41zM987 592q300 0 423.5 47.5t123.5 167.5t-123.5 167.5t-423.5 47.5q-301 0 -425 -47.5t-124 -167.5t124 -167.5t425 -47.5zM1614 -164q0 29 -13 51.5
t-35 38.5t-61 27.5t-81 18t-105.5 10.5t-124.5 5t-147 1h-64q-106 -1 -178.5 -3t-139.5 -8t-107.5 -16.5t-72 -27.5t-44.5 -40.5t-13 -56.5q0 -26 11 -46.5t34.5 -35.5t53 -26.5t74 -19t88.5 -12.5t107 -7t118.5 -3t132.5 -1q103 0 170 1.5t138 6.5t113.5 15.5t78.5 27
t51.5 41.5t15.5 59z" />
    <glyph glyph-name="gdotaccent.ss01" horiz-adv-x="2035" 
d="M817 1638h338v-204h-338v204zM1440 1194h497v-170q-50 0 -202 20q80 -93 80 -237q0 -79 -22 -141t-78.5 -117.5t-148.5 -91.5t-238 -57t-341 -21q-358 0 -456.5 -13t-98.5 -71q0 -61 106.5 -74.5t508.5 -13.5q135 0 238.5 -6t201 -20.5t166 -41t120.5 -65.5t77.5 -95.5
t25.5 -130.5q0 -70 -23.5 -125.5t-63 -95t-101 -68.5t-128.5 -46t-155.5 -27.5t-171.5 -14t-186 -3.5q-108 0 -190.5 2t-180 9.5t-168.5 20.5t-141 36t-113.5 55t-70.5 78.5t-27 105.5q0 58 24.5 103.5t67 74.5t88.5 46.5t102 27.5q-264 61 -264 227q0 155 234 203
q-137 54 -194.5 141.5t-57.5 208.5q0 79 22 141t78.5 117.5t149 91.5t239 57t342.5 21q278 0 453 -41zM987 592q300 0 423.5 47.5t123.5 167.5t-123.5 167.5t-423.5 47.5q-301 0 -425 -47.5t-124 -167.5t124 -167.5t425 -47.5zM1614 -164q0 29 -13 51.5t-35 38.5t-61 27.5
t-81 18t-105.5 10.5t-124.5 5t-147 1h-64q-106 -1 -178.5 -3t-139.5 -8t-107.5 -16.5t-72 -27.5t-44.5 -40.5t-13 -56.5q0 -26 11 -46.5t34.5 -35.5t53 -26.5t74 -19t88.5 -12.5t107 -7t118.5 -3t132.5 -1q103 0 170 1.5t138 6.5t113.5 15.5t78.5 27t51.5 41.5t15.5 59z" />
    </font>
</defs>
</svg>
